M48
; DRILL file {KiCad 7.0.7} date Fri Jan 26 01:18:22 2024
; FORMAT={-:-/ absolute / inch / decimal}
; #@! TF.CreationDate,2024-01-26T01:18:22+08:00
; #@! TF.GenerationSoftware,Kicad,Pcbnew,7.0.7
; #@! TF.FileFunction,Plated,1,2,PTH
FMAT,2
INCH
; #@! TA.AperFunction,Plated,PTH,ViaDrill
T1C0.0118
; #@! TA.AperFunction,Plated,PTH,ViaDrill
T2C0.0157
; #@! TA.AperFunction,Plated,PTH,ComponentDrill
T3C0.0236
; #@! TA.AperFunction,Plated,PTH,ComponentDrill
T4C0.0394
; #@! TA.AperFunction,Plated,PTH,ComponentDrill
T5C0.0430
; #@! TA.AperFunction,Plated,PTH,ComponentDrill
T6C0.0512
; #@! TA.AperFunction,Plated,PTH,ComponentDrill
T7C0.1575
%
G90
G05
T1
X7.0085Y-4.4944
X7.0406Y-4.4944
X7.0728Y-4.4944
X7.1049Y-4.4944
X7.137Y-4.4944
X7.1691Y-4.4944
X7.4571Y-5.1681
T2
X7.5416Y-3.9798
X7.5648Y-4.2432
X8.2688Y-3.8977
X8.684Y-4.2787
X8.7055Y-4.1417
X8.7622Y-3.8256
X8.7886Y-3.9295
X8.902Y-3.6913
X9.1319Y-3.7642
T4
X7.1281Y-4.8035
X7.1281Y-4.9035
X7.1281Y-5.0035
X7.1281Y-5.1035
X7.1281Y-5.2035
X7.1281Y-5.3035
X7.3223Y-4.8027
X7.3223Y-4.9027
X7.3223Y-5.0027
X7.3223Y-5.1027
X7.3223Y-5.2027
X7.5162Y-3.5832
X7.5162Y-3.6832
X7.5778Y-4.4106
X7.5778Y-4.5106
X7.5778Y-4.6106
X7.5805Y-4.8035
X7.5805Y-4.9035
X7.5805Y-5.0035
X7.5805Y-5.1035
X7.5805Y-5.2035
X7.5805Y-5.3035
X7.764Y-3.9826
X7.764Y-4.0826
X7.764Y-4.1826
X7.764Y-4.2826
X8.4882Y-3.9787
X8.4882Y-4.0787
X8.4882Y-4.1787
X8.4882Y-4.2787
X8.6417Y-4.8004
X8.6417Y-4.9004
X8.6417Y-5.0004
X8.6417Y-5.1004
X8.6417Y-5.2004
X8.6417Y-5.3004
X8.6425Y-4.4096
X8.6425Y-4.5096
X8.6425Y-4.6096
X8.7264Y-3.5797
X8.7264Y-3.6797
X8.9048Y-4.7996
X8.9048Y-4.8996
X8.9048Y-4.9996
X8.9048Y-5.0996
X8.9048Y-5.1996
X9.0961Y-4.8004
X9.0961Y-4.9004
X9.0961Y-5.0004
X9.0961Y-5.1004
X9.0961Y-5.2004
X9.0961Y-5.3004
T5
X6.8191Y-3.4798
X6.8191Y-3.5798
X6.8191Y-3.6798
X6.8191Y-3.7798
X6.8191Y-3.8798
X6.8191Y-3.9798
X6.8191Y-4.0798
X6.8191Y-4.1798
X6.8191Y-4.2798
X6.8191Y-4.3798
X6.8191Y-4.4798
X6.8191Y-4.5798
X7.2191Y-4.5798
X7.3191Y-4.4798
X7.3191Y-4.5798
X7.4191Y-3.4798
X7.4191Y-3.5798
X7.4191Y-3.6798
X7.4191Y-3.7798
X7.4191Y-3.8798
X7.4191Y-3.9798
X7.4191Y-4.0798
X7.4191Y-4.1798
X7.4191Y-4.2798
X7.4191Y-4.3798
X7.4191Y-4.4798
X7.4191Y-4.5798
X8.8303Y-3.4768
X8.8303Y-3.5768
X8.8303Y-3.6768
X8.8303Y-3.7768
X8.8303Y-3.8768
X8.8303Y-3.9768
X8.8303Y-4.0768
X8.8303Y-4.1768
X8.8303Y-4.2768
X8.8303Y-4.3768
X8.8303Y-4.4768
X8.8303Y-4.5768
X9.2303Y-4.5768
X9.3303Y-4.4768
X9.3303Y-4.5768
X9.4303Y-3.4768
X9.4303Y-3.5768
X9.4303Y-3.6768
X9.4303Y-3.7768
X9.4303Y-3.8768
X9.4303Y-3.9768
X9.4303Y-4.0768
X9.4303Y-4.1768
X9.4303Y-4.2768
X9.4303Y-4.3768
X9.4303Y-4.4768
X9.4303Y-4.5768
T6
X7.9862Y-3.8307
X7.9862Y-4.0079
X8.2421Y-3.8307
X8.2421Y-4.0079
T7
X6.5673Y-3.5646
X7.9256Y-4.6571
X8.1142Y-4.2933
X8.3115Y-4.6572
X9.6727Y-3.5587
T3
G00X7.6223Y-3.4433
M15
G01X7.6223Y-3.467
M16
G05
G00X7.6616Y-3.7189
M15
G01X7.6616Y-3.8016
M16
G05
G00X7.8388Y-3.4433
M15
G01X7.8388Y-3.467
M16
G05
G00X7.8388Y-3.5614
M15
G01X7.8388Y-3.5851
M16
G05
G00X7.8388Y-3.7189
M15
G01X7.8388Y-3.7426
M16
G05
G00X8.3977Y-3.4345
M15
G01X8.3977Y-3.4582
M16
G05
G00X8.4371Y-3.7101
M15
G01X8.4371Y-3.7928
M16
G05
G00X8.6143Y-3.4345
M15
G01X8.6143Y-3.4582
M16
G05
G00X8.6143Y-3.5526
M15
G01X8.6143Y-3.5763
M16
G05
G00X8.6143Y-3.7101
M15
G01X8.6143Y-3.7337
M16
G05
T0
M30
