%TF.GenerationSoftware,KiCad,Pcbnew,7.0.7*%
%TF.CreationDate,2024-01-26T01:18:23+08:00*%
%TF.ProjectId,adapter,61646170-7465-4722-9e6b-696361645f70,rev?*%
%TF.SameCoordinates,Original*%
%TF.FileFunction,Drillmap*%
%TF.FilePolarity,Positive*%
%FSLAX45Y45*%
G04 Gerber Fmt 4.5, Leading zero omitted, Abs format (unit mm)*
G04 Created by KiCad (PCBNEW 7.0.7) date 2024-01-26 01:18:23*
%MOMM*%
%LPD*%
G01*
G04 APERTURE LIST*
%ADD10C,0.100000*%
%ADD11C,0.200000*%
%ADD12C,0.030000*%
%ADD13C,0.040000*%
%ADD14C,0.060000*%
%ADD15C,0.109220*%
%ADD16C,0.130000*%
%ADD17C,0.400000*%
G04 APERTURE END LIST*
D10*
X20119380Y-12272525D02*
X21129347Y-12269459D01*
X19203727Y-8634018D02*
X19935579Y-8632393D01*
X22934762Y-8713218D02*
X23438762Y-8711218D01*
X17856030Y-8713082D02*
X18332030Y-8717082D01*
X20080581Y-8906110D02*
G75*
G03*
X20231002Y-9056109I149999J-1D01*
G01*
X21018572Y-9053888D02*
G75*
G03*
X21168149Y-8903889I-422J149998D01*
G01*
X21168149Y-8776327D02*
X21168149Y-8903889D01*
X20080579Y-8779393D02*
X20080579Y-8906110D01*
X20231002Y-9056109D02*
X21018572Y-9053889D01*
X23395966Y-13709029D02*
G75*
G03*
X23545939Y-13558966I-26J149999D01*
G01*
X23545807Y-13233451D02*
X23545939Y-13558966D01*
X22330762Y-13709218D02*
X23395966Y-13709027D01*
X18441030Y-13709082D02*
X18914030Y-13712082D01*
X24252000Y-11622952D02*
X24258000Y-9998199D01*
X16996727Y-11626018D02*
X16989083Y-10008063D01*
X23544629Y-12558452D02*
X23542000Y-12212952D01*
X22135001Y-8670951D02*
G75*
G03*
X22231130Y-8714258I94371J81135D01*
G01*
D11*
X24539695Y-9543199D02*
G75*
G03*
X24258000Y-9998199I207357J-443077D01*
G01*
D10*
X17413841Y-11916018D02*
X17226727Y-11916018D01*
X24022000Y-11912952D02*
X23834887Y-11912952D01*
X21912536Y-13709188D02*
X22330762Y-13709218D01*
D11*
X19336192Y-13712252D02*
G75*
G03*
X19483445Y-13567357I1348J145902D01*
G01*
D10*
X17711227Y-13243315D02*
X17704392Y-13561741D01*
X19017597Y-8717324D02*
X18332030Y-8717082D01*
D11*
X21129347Y-12269459D02*
X21512395Y-12268557D01*
X24885100Y-9060952D02*
G75*
G03*
X24565565Y-8710362I-331378J18886D01*
G01*
D10*
X24022001Y-11912955D02*
G75*
G03*
X24252000Y-11622952I-56288J280849D01*
G01*
D11*
X16683163Y-8713429D02*
G75*
G03*
X16345638Y-9070816I57J-338131D01*
G01*
X24539695Y-9543198D02*
G75*
G03*
X24885094Y-9060952I-155253J476012D01*
G01*
X19482333Y-12525623D02*
X19483445Y-13567357D01*
D10*
X17706725Y-12216018D02*
G75*
G03*
X17413841Y-11916018I-319345J-18802D01*
G01*
X17850592Y-13709353D02*
X18441030Y-13709082D01*
X19336192Y-13712254D02*
X18914030Y-13712082D01*
X22135000Y-8670952D02*
G75*
G03*
X22045000Y-8630952I-96908J-96794D01*
G01*
X19017597Y-8717322D02*
G75*
G03*
X19113727Y-8674018I1743J124482D01*
G01*
D11*
X22045000Y-8630952D02*
X21313149Y-8629327D01*
X16345643Y-9070816D02*
G75*
G03*
X16691037Y-9553063I500627J-6254D01*
G01*
D10*
X16996726Y-11626018D02*
G75*
G03*
X17226727Y-11916018I286274J-9162D01*
G01*
X17706727Y-12216018D02*
X17710049Y-12568316D01*
D11*
X21313149Y-8629326D02*
G75*
G03*
X21168149Y-8776327I1984J-146970D01*
G01*
X21765282Y-13564291D02*
X21766395Y-12522557D01*
D10*
X19203727Y-8634018D02*
G75*
G03*
X19113727Y-8674018I6903J-136782D01*
G01*
D11*
X16989081Y-10008063D02*
G75*
G03*
X16691037Y-9553063I-506811J-6867D01*
G01*
X19736333Y-12271623D02*
X20119380Y-12272525D01*
D10*
X16683163Y-8713428D02*
X17856030Y-8713082D01*
D11*
X21765277Y-13564291D02*
G75*
G03*
X21912536Y-13709188I145905J1005D01*
G01*
X21766401Y-12522557D02*
G75*
G03*
X21512395Y-12268557I-254009J-9D01*
G01*
D10*
X23544629Y-12558452D02*
X23545807Y-13233451D01*
X17711227Y-13243315D02*
X17710049Y-12568316D01*
X23834887Y-11912957D02*
G75*
G03*
X23542000Y-12212952I26475J-318819D01*
G01*
X24565565Y-8710362D02*
X23438762Y-8711218D01*
D11*
X17704393Y-13561741D02*
G75*
G03*
X17850592Y-13709353I146227J-1379D01*
G01*
X20080581Y-8779393D02*
G75*
G03*
X19935579Y-8632393I-147001J13D01*
G01*
D10*
X22231130Y-8714258D02*
X22934762Y-8713218D01*
D11*
X19736333Y-12271622D02*
G75*
G03*
X19482333Y-12525623I8J-254008D01*
G01*
D12*
X17786638Y-11400816D02*
X17816638Y-11430816D01*
X17816638Y-11400816D02*
X17786638Y-11430816D01*
X17868238Y-11400816D02*
X17898238Y-11430816D01*
X17898238Y-11400816D02*
X17868238Y-11430816D01*
X17949838Y-11400816D02*
X17979838Y-11430816D01*
X17979838Y-11400816D02*
X17949838Y-11430816D01*
X18031438Y-11400816D02*
X18061438Y-11430816D01*
X18061438Y-11400816D02*
X18031438Y-11430816D01*
X18113038Y-11400816D02*
X18143038Y-11430816D01*
X18143038Y-11400816D02*
X18113038Y-11430816D01*
X18194638Y-11400816D02*
X18224638Y-11430816D01*
X18224638Y-11400816D02*
X18194638Y-11430816D01*
X18925909Y-13112087D02*
X18955909Y-13142087D01*
X18955909Y-13112087D02*
X18925909Y-13142087D01*
D13*
X19175638Y-10108816D02*
G75*
G03*
X19175638Y-10108816I-20000J0D01*
G01*
X19234638Y-10777816D02*
G75*
G03*
X19234638Y-10777816I-20000J0D01*
G01*
X21022770Y-9900230D02*
G75*
G03*
X21022770Y-9900230I-20000J0D01*
G01*
X22077402Y-10867952D02*
G75*
G03*
X22077402Y-10867952I-20000J0D01*
G01*
X22132000Y-10519952D02*
G75*
G03*
X22132000Y-10519952I-20000J0D01*
G01*
X22276000Y-9716952D02*
G75*
G03*
X22276000Y-9716952I-20000J0D01*
G01*
X22342950Y-9980952D02*
G75*
G03*
X22342950Y-9980952I-20000J0D01*
G01*
X22631000Y-9375952D02*
G75*
G03*
X22631000Y-9375952I-20000J0D01*
G01*
X23215000Y-9560952D02*
G75*
G03*
X23215000Y-9560952I-20000J0D01*
G01*
D14*
X19360530Y-8746082D02*
X19360530Y-8806082D01*
X19330530Y-8776082D02*
X19390530Y-8776082D01*
D11*
X19330530Y-8746082D02*
X19330530Y-8806082D01*
X19330530Y-8806082D02*
G75*
G03*
X19390530Y-8806082I30000J0D01*
G01*
X19390530Y-8806082D02*
X19390530Y-8746082D01*
X19390530Y-8746082D02*
G75*
G03*
X19330530Y-8746082I-30000J0D01*
G01*
D14*
X19460530Y-9521082D02*
X19460530Y-9581082D01*
X19430530Y-9551082D02*
X19490530Y-9551082D01*
D11*
X19430530Y-9446082D02*
X19430530Y-9656082D01*
X19430530Y-9656082D02*
G75*
G03*
X19490530Y-9656082I30000J0D01*
G01*
X19490530Y-9656082D02*
X19490530Y-9446082D01*
X19490530Y-9446082D02*
G75*
G03*
X19430530Y-9446082I-30000J0D01*
G01*
D14*
X19910530Y-8746082D02*
X19910530Y-8806082D01*
X19880530Y-8776082D02*
X19940530Y-8776082D01*
D11*
X19880530Y-8746082D02*
X19880530Y-8806082D01*
X19880530Y-8806082D02*
G75*
G03*
X19940530Y-8806082I30000J0D01*
G01*
X19940530Y-8806082D02*
X19940530Y-8746082D01*
X19940530Y-8746082D02*
G75*
G03*
X19880530Y-8746082I-30000J0D01*
G01*
D14*
X19910530Y-9046082D02*
X19910530Y-9106082D01*
X19880530Y-9076082D02*
X19940530Y-9076082D01*
D11*
X19880530Y-9046082D02*
X19880530Y-9106082D01*
X19880530Y-9106082D02*
G75*
G03*
X19940530Y-9106082I30000J0D01*
G01*
X19940530Y-9106082D02*
X19940530Y-9046082D01*
X19940530Y-9046082D02*
G75*
G03*
X19880530Y-9046082I-30000J0D01*
G01*
D14*
X19910530Y-9446082D02*
X19910530Y-9506082D01*
X19880530Y-9476082D02*
X19940530Y-9476082D01*
D11*
X19880530Y-9446082D02*
X19880530Y-9506082D01*
X19880530Y-9506082D02*
G75*
G03*
X19940530Y-9506082I30000J0D01*
G01*
X19940530Y-9506082D02*
X19940530Y-9446082D01*
X19940530Y-9446082D02*
G75*
G03*
X19880530Y-9446082I-30000J0D01*
G01*
D14*
X21330262Y-8723718D02*
X21330262Y-8783718D01*
X21300262Y-8753718D02*
X21360262Y-8753718D01*
D11*
X21300262Y-8723718D02*
X21300262Y-8783718D01*
X21300262Y-8783718D02*
G75*
G03*
X21360262Y-8783718I30000J0D01*
G01*
X21360262Y-8783718D02*
X21360262Y-8723718D01*
X21360262Y-8723718D02*
G75*
G03*
X21300262Y-8723718I-30000J0D01*
G01*
D14*
X21430262Y-9498718D02*
X21430262Y-9558718D01*
X21400262Y-9528718D02*
X21460262Y-9528718D01*
D11*
X21400262Y-9423718D02*
X21400262Y-9633718D01*
X21400262Y-9633718D02*
G75*
G03*
X21460262Y-9633718I30000J0D01*
G01*
X21460262Y-9633718D02*
X21460262Y-9423718D01*
X21460262Y-9423718D02*
G75*
G03*
X21400262Y-9423718I-30000J0D01*
G01*
D14*
X21880262Y-8723718D02*
X21880262Y-8783718D01*
X21850262Y-8753718D02*
X21910262Y-8753718D01*
D11*
X21850262Y-8723718D02*
X21850262Y-8783718D01*
X21850262Y-8783718D02*
G75*
G03*
X21910262Y-8783718I30000J0D01*
G01*
X21910262Y-8783718D02*
X21910262Y-8723718D01*
X21910262Y-8723718D02*
G75*
G03*
X21850262Y-8723718I-30000J0D01*
G01*
D14*
X21880262Y-9023718D02*
X21880262Y-9083718D01*
X21850262Y-9053718D02*
X21910262Y-9053718D01*
D11*
X21850262Y-9023718D02*
X21850262Y-9083718D01*
X21850262Y-9083718D02*
G75*
G03*
X21910262Y-9083718I30000J0D01*
G01*
X21910262Y-9083718D02*
X21910262Y-9023718D01*
X21910262Y-9023718D02*
G75*
G03*
X21850262Y-9023718I-30000J0D01*
G01*
D14*
X21880262Y-9423718D02*
X21880262Y-9483718D01*
X21850262Y-9453718D02*
X21910262Y-9453718D01*
D11*
X21850262Y-9423718D02*
X21850262Y-9483718D01*
X21850262Y-9483718D02*
G75*
G03*
X21910262Y-9483718I30000J0D01*
G01*
X21910262Y-9483718D02*
X21910262Y-9423718D01*
X21910262Y-9423718D02*
G75*
G03*
X21850262Y-9423718I-30000J0D01*
G01*
D10*
X18140713Y-12236172D02*
X18140713Y-12165460D01*
X18070002Y-12165460D01*
X18070002Y-12236172D01*
X18140713Y-12236172D01*
X18140713Y-12490172D02*
X18140713Y-12419460D01*
X18070002Y-12419460D01*
X18070002Y-12490172D01*
X18140713Y-12490172D01*
X18140713Y-12744172D02*
X18140713Y-12673460D01*
X18070002Y-12673460D01*
X18070002Y-12744172D01*
X18140713Y-12744172D01*
X18140713Y-12998172D02*
X18140713Y-12927460D01*
X18070002Y-12927460D01*
X18070002Y-12998172D01*
X18140713Y-12998172D01*
X18140713Y-13252172D02*
X18140713Y-13181460D01*
X18070002Y-13181460D01*
X18070002Y-13252172D01*
X18140713Y-13252172D01*
X18140713Y-13506172D02*
X18140713Y-13435460D01*
X18070002Y-13435460D01*
X18070002Y-13506172D01*
X18140713Y-13506172D01*
X18634047Y-12234172D02*
X18634047Y-12163460D01*
X18563336Y-12163460D01*
X18563336Y-12234172D01*
X18634047Y-12234172D01*
X18634047Y-12488172D02*
X18634047Y-12417460D01*
X18563336Y-12417460D01*
X18563336Y-12488172D01*
X18634047Y-12488172D01*
X18634047Y-12742172D02*
X18634047Y-12671460D01*
X18563336Y-12671460D01*
X18563336Y-12742172D01*
X18634047Y-12742172D01*
X18634047Y-12996172D02*
X18634047Y-12925460D01*
X18563336Y-12925460D01*
X18563336Y-12996172D01*
X18634047Y-12996172D01*
X18634047Y-13250172D02*
X18634047Y-13179460D01*
X18563336Y-13179460D01*
X18563336Y-13250172D01*
X18634047Y-13250172D01*
X19126593Y-9136672D02*
X19126593Y-9065960D01*
X19055882Y-9065960D01*
X19055882Y-9136672D01*
X19126593Y-9136672D01*
X19126593Y-9390672D02*
X19126593Y-9319960D01*
X19055882Y-9319960D01*
X19055882Y-9390672D01*
X19126593Y-9390672D01*
X19282993Y-11238172D02*
X19282993Y-11167460D01*
X19212282Y-11167460D01*
X19212282Y-11238172D01*
X19282993Y-11238172D01*
X19282993Y-11492172D02*
X19282993Y-11421460D01*
X19212282Y-11421460D01*
X19212282Y-11492172D01*
X19282993Y-11492172D01*
X19282993Y-11746172D02*
X19282993Y-11675460D01*
X19212282Y-11675460D01*
X19212282Y-11746172D01*
X19282993Y-11746172D01*
X19289762Y-12236172D02*
X19289762Y-12165460D01*
X19219051Y-12165460D01*
X19219051Y-12236172D01*
X19289762Y-12236172D01*
X19289762Y-12490172D02*
X19289762Y-12419460D01*
X19219051Y-12419460D01*
X19219051Y-12490172D01*
X19289762Y-12490172D01*
X19289762Y-12744172D02*
X19289762Y-12673460D01*
X19219051Y-12673460D01*
X19219051Y-12744172D01*
X19289762Y-12744172D01*
X19289762Y-12998172D02*
X19289762Y-12927460D01*
X19219051Y-12927460D01*
X19219051Y-12998172D01*
X19289762Y-12998172D01*
X19289762Y-13252172D02*
X19289762Y-13181460D01*
X19219051Y-13181460D01*
X19219051Y-13252172D01*
X19289762Y-13252172D01*
X19289762Y-13506172D02*
X19289762Y-13435460D01*
X19219051Y-13435460D01*
X19219051Y-13506172D01*
X19289762Y-13506172D01*
X19755993Y-10151172D02*
X19755993Y-10080460D01*
X19685282Y-10080460D01*
X19685282Y-10151172D01*
X19755993Y-10151172D01*
X19755993Y-10405172D02*
X19755993Y-10334460D01*
X19685282Y-10334460D01*
X19685282Y-10405172D01*
X19755993Y-10405172D01*
X19755993Y-10659172D02*
X19755993Y-10588460D01*
X19685282Y-10588460D01*
X19685282Y-10659172D01*
X19755993Y-10659172D01*
X19755993Y-10913172D02*
X19755993Y-10842460D01*
X19685282Y-10842460D01*
X19685282Y-10913172D01*
X19755993Y-10913172D01*
X21595356Y-10141308D02*
X21595356Y-10070596D01*
X21524644Y-10070596D01*
X21524644Y-10141308D01*
X21595356Y-10141308D01*
X21595356Y-10395308D02*
X21595356Y-10324596D01*
X21524644Y-10324596D01*
X21524644Y-10395308D01*
X21595356Y-10395308D01*
X21595356Y-10649308D02*
X21595356Y-10578596D01*
X21524644Y-10578596D01*
X21524644Y-10649308D01*
X21595356Y-10649308D01*
X21595356Y-10903308D02*
X21595356Y-10832596D01*
X21524644Y-10832596D01*
X21524644Y-10903308D01*
X21595356Y-10903308D01*
X21985356Y-12228308D02*
X21985356Y-12157596D01*
X21914644Y-12157596D01*
X21914644Y-12228308D01*
X21985356Y-12228308D01*
X21985356Y-12482308D02*
X21985356Y-12411596D01*
X21914644Y-12411596D01*
X21914644Y-12482308D01*
X21985356Y-12482308D01*
X21985356Y-12736308D02*
X21985356Y-12665596D01*
X21914644Y-12665596D01*
X21914644Y-12736308D01*
X21985356Y-12736308D01*
X21985356Y-12990308D02*
X21985356Y-12919596D01*
X21914644Y-12919596D01*
X21914644Y-12990308D01*
X21985356Y-12990308D01*
X21985356Y-13244308D02*
X21985356Y-13173596D01*
X21914644Y-13173596D01*
X21914644Y-13244308D01*
X21985356Y-13244308D01*
X21985356Y-13498308D02*
X21985356Y-13427596D01*
X21914644Y-13427596D01*
X21914644Y-13498308D01*
X21985356Y-13498308D01*
X21987356Y-11235808D02*
X21987356Y-11165096D01*
X21916644Y-11165096D01*
X21916644Y-11235808D01*
X21987356Y-11235808D01*
X21987356Y-11489808D02*
X21987356Y-11419096D01*
X21916644Y-11419096D01*
X21916644Y-11489808D01*
X21987356Y-11489808D01*
X21987356Y-11743808D02*
X21987356Y-11673096D01*
X21916644Y-11673096D01*
X21916644Y-11743808D01*
X21987356Y-11743808D01*
X22200356Y-9127808D02*
X22200356Y-9057096D01*
X22129644Y-9057096D01*
X22129644Y-9127808D01*
X22200356Y-9127808D01*
X22200356Y-9381808D02*
X22200356Y-9311096D01*
X22129644Y-9311096D01*
X22129644Y-9381808D01*
X22200356Y-9381808D01*
X22653610Y-12226308D02*
X22653610Y-12155596D01*
X22582898Y-12155596D01*
X22582898Y-12226308D01*
X22653610Y-12226308D01*
X22653610Y-12480308D02*
X22653610Y-12409596D01*
X22582898Y-12409596D01*
X22582898Y-12480308D01*
X22653610Y-12480308D01*
X22653610Y-12734308D02*
X22653610Y-12663596D01*
X22582898Y-12663596D01*
X22582898Y-12734308D01*
X22653610Y-12734308D01*
X22653610Y-12988308D02*
X22653610Y-12917596D01*
X22582898Y-12917596D01*
X22582898Y-12988308D01*
X22653610Y-12988308D01*
X22653610Y-13242308D02*
X22653610Y-13171596D01*
X22582898Y-13171596D01*
X22582898Y-13242308D01*
X22653610Y-13242308D01*
X23139324Y-12228308D02*
X23139324Y-12157596D01*
X23068613Y-12157596D01*
X23068613Y-12228308D01*
X23139324Y-12228308D01*
X23139324Y-12482308D02*
X23139324Y-12411596D01*
X23068613Y-12411596D01*
X23068613Y-12482308D01*
X23139324Y-12482308D01*
X23139324Y-12736308D02*
X23139324Y-12665596D01*
X23068613Y-12665596D01*
X23068613Y-12736308D01*
X23139324Y-12736308D01*
X23139324Y-12990308D02*
X23139324Y-12919596D01*
X23068613Y-12919596D01*
X23068613Y-12990308D01*
X23139324Y-12990308D01*
X23139324Y-13244308D02*
X23139324Y-13173596D01*
X23068613Y-13173596D01*
X23068613Y-13244308D01*
X23139324Y-13244308D01*
X23139324Y-13498308D02*
X23139324Y-13427596D01*
X23068613Y-13427596D01*
X23068613Y-13498308D01*
X23139324Y-13498308D01*
D15*
X17320638Y-8893426D02*
X17375248Y-8838816D01*
X17320638Y-8784206D01*
X17266028Y-8838816D01*
X17320638Y-8893426D01*
X17320638Y-9147426D02*
X17375248Y-9092816D01*
X17320638Y-9038206D01*
X17266028Y-9092816D01*
X17320638Y-9147426D01*
X17320638Y-9401426D02*
X17375248Y-9346816D01*
X17320638Y-9292206D01*
X17266028Y-9346816D01*
X17320638Y-9401426D01*
X17320638Y-9655426D02*
X17375248Y-9600816D01*
X17320638Y-9546206D01*
X17266028Y-9600816D01*
X17320638Y-9655426D01*
X17320638Y-9909426D02*
X17375248Y-9854816D01*
X17320638Y-9800206D01*
X17266028Y-9854816D01*
X17320638Y-9909426D01*
X17320638Y-10163426D02*
X17375248Y-10108816D01*
X17320638Y-10054206D01*
X17266028Y-10108816D01*
X17320638Y-10163426D01*
X17320638Y-10417426D02*
X17375248Y-10362816D01*
X17320638Y-10308206D01*
X17266028Y-10362816D01*
X17320638Y-10417426D01*
X17320638Y-10671426D02*
X17375248Y-10616816D01*
X17320638Y-10562206D01*
X17266028Y-10616816D01*
X17320638Y-10671426D01*
X17320638Y-10925426D02*
X17375248Y-10870816D01*
X17320638Y-10816206D01*
X17266028Y-10870816D01*
X17320638Y-10925426D01*
X17320638Y-11179426D02*
X17375248Y-11124816D01*
X17320638Y-11070206D01*
X17266028Y-11124816D01*
X17320638Y-11179426D01*
X17320638Y-11433426D02*
X17375248Y-11378816D01*
X17320638Y-11324206D01*
X17266028Y-11378816D01*
X17320638Y-11433426D01*
X17320638Y-11687426D02*
X17375248Y-11632816D01*
X17320638Y-11578206D01*
X17266028Y-11632816D01*
X17320638Y-11687426D01*
X18336638Y-11687426D02*
X18391248Y-11632816D01*
X18336638Y-11578206D01*
X18282028Y-11632816D01*
X18336638Y-11687426D01*
X18590638Y-11433426D02*
X18645248Y-11378816D01*
X18590638Y-11324206D01*
X18536028Y-11378816D01*
X18590638Y-11433426D01*
X18590638Y-11687426D02*
X18645248Y-11632816D01*
X18590638Y-11578206D01*
X18536028Y-11632816D01*
X18590638Y-11687426D01*
X18844638Y-8893426D02*
X18899248Y-8838816D01*
X18844638Y-8784206D01*
X18790028Y-8838816D01*
X18844638Y-8893426D01*
X18844638Y-9147426D02*
X18899248Y-9092816D01*
X18844638Y-9038206D01*
X18790028Y-9092816D01*
X18844638Y-9147426D01*
X18844638Y-9401426D02*
X18899248Y-9346816D01*
X18844638Y-9292206D01*
X18790028Y-9346816D01*
X18844638Y-9401426D01*
X18844638Y-9655426D02*
X18899248Y-9600816D01*
X18844638Y-9546206D01*
X18790028Y-9600816D01*
X18844638Y-9655426D01*
X18844638Y-9909426D02*
X18899248Y-9854816D01*
X18844638Y-9800206D01*
X18790028Y-9854816D01*
X18844638Y-9909426D01*
X18844638Y-10163426D02*
X18899248Y-10108816D01*
X18844638Y-10054206D01*
X18790028Y-10108816D01*
X18844638Y-10163426D01*
X18844638Y-10417426D02*
X18899248Y-10362816D01*
X18844638Y-10308206D01*
X18790028Y-10362816D01*
X18844638Y-10417426D01*
X18844638Y-10671426D02*
X18899248Y-10616816D01*
X18844638Y-10562206D01*
X18790028Y-10616816D01*
X18844638Y-10671426D01*
X18844638Y-10925426D02*
X18899248Y-10870816D01*
X18844638Y-10816206D01*
X18790028Y-10870816D01*
X18844638Y-10925426D01*
X18844638Y-11179426D02*
X18899248Y-11124816D01*
X18844638Y-11070206D01*
X18790028Y-11124816D01*
X18844638Y-11179426D01*
X18844638Y-11433426D02*
X18899248Y-11378816D01*
X18844638Y-11324206D01*
X18790028Y-11378816D01*
X18844638Y-11433426D01*
X18844638Y-11687426D02*
X18899248Y-11632816D01*
X18844638Y-11578206D01*
X18790028Y-11632816D01*
X18844638Y-11687426D01*
X22429000Y-8885562D02*
X22483610Y-8830952D01*
X22429000Y-8776342D01*
X22374390Y-8830952D01*
X22429000Y-8885562D01*
X22429000Y-9139562D02*
X22483610Y-9084952D01*
X22429000Y-9030342D01*
X22374390Y-9084952D01*
X22429000Y-9139562D01*
X22429000Y-9393562D02*
X22483610Y-9338952D01*
X22429000Y-9284342D01*
X22374390Y-9338952D01*
X22429000Y-9393562D01*
X22429000Y-9647562D02*
X22483610Y-9592952D01*
X22429000Y-9538342D01*
X22374390Y-9592952D01*
X22429000Y-9647562D01*
X22429000Y-9901562D02*
X22483610Y-9846952D01*
X22429000Y-9792342D01*
X22374390Y-9846952D01*
X22429000Y-9901562D01*
X22429000Y-10155562D02*
X22483610Y-10100952D01*
X22429000Y-10046342D01*
X22374390Y-10100952D01*
X22429000Y-10155562D01*
X22429000Y-10409562D02*
X22483610Y-10354952D01*
X22429000Y-10300342D01*
X22374390Y-10354952D01*
X22429000Y-10409562D01*
X22429000Y-10663562D02*
X22483610Y-10608952D01*
X22429000Y-10554342D01*
X22374390Y-10608952D01*
X22429000Y-10663562D01*
X22429000Y-10917562D02*
X22483610Y-10862952D01*
X22429000Y-10808342D01*
X22374390Y-10862952D01*
X22429000Y-10917562D01*
X22429000Y-11171562D02*
X22483610Y-11116952D01*
X22429000Y-11062342D01*
X22374390Y-11116952D01*
X22429000Y-11171562D01*
X22429000Y-11425562D02*
X22483610Y-11370952D01*
X22429000Y-11316342D01*
X22374390Y-11370952D01*
X22429000Y-11425562D01*
X22429000Y-11679562D02*
X22483610Y-11624952D01*
X22429000Y-11570342D01*
X22374390Y-11624952D01*
X22429000Y-11679562D01*
X23445000Y-11679562D02*
X23499610Y-11624952D01*
X23445000Y-11570342D01*
X23390390Y-11624952D01*
X23445000Y-11679562D01*
X23699000Y-11425562D02*
X23753610Y-11370952D01*
X23699000Y-11316342D01*
X23644390Y-11370952D01*
X23699000Y-11425562D01*
X23699000Y-11679562D02*
X23753610Y-11624952D01*
X23699000Y-11570342D01*
X23644390Y-11624952D01*
X23699000Y-11679562D01*
X23953000Y-8885562D02*
X24007610Y-8830952D01*
X23953000Y-8776342D01*
X23898390Y-8830952D01*
X23953000Y-8885562D01*
X23953000Y-9139562D02*
X24007610Y-9084952D01*
X23953000Y-9030342D01*
X23898390Y-9084952D01*
X23953000Y-9139562D01*
X23953000Y-9393562D02*
X24007610Y-9338952D01*
X23953000Y-9284342D01*
X23898390Y-9338952D01*
X23953000Y-9393562D01*
X23953000Y-9647562D02*
X24007610Y-9592952D01*
X23953000Y-9538342D01*
X23898390Y-9592952D01*
X23953000Y-9647562D01*
X23953000Y-9901562D02*
X24007610Y-9846952D01*
X23953000Y-9792342D01*
X23898390Y-9846952D01*
X23953000Y-9901562D01*
X23953000Y-10155562D02*
X24007610Y-10100952D01*
X23953000Y-10046342D01*
X23898390Y-10100952D01*
X23953000Y-10155562D01*
X23953000Y-10409562D02*
X24007610Y-10354952D01*
X23953000Y-10300342D01*
X23898390Y-10354952D01*
X23953000Y-10409562D01*
X23953000Y-10663562D02*
X24007610Y-10608952D01*
X23953000Y-10554342D01*
X23898390Y-10608952D01*
X23953000Y-10663562D01*
X23953000Y-10917562D02*
X24007610Y-10862952D01*
X23953000Y-10808342D01*
X23898390Y-10862952D01*
X23953000Y-10917562D01*
X23953000Y-11171562D02*
X24007610Y-11116952D01*
X23953000Y-11062342D01*
X23898390Y-11116952D01*
X23953000Y-11171562D01*
X23953000Y-11425562D02*
X24007610Y-11370952D01*
X23953000Y-11316342D01*
X23898390Y-11370952D01*
X23953000Y-11425562D01*
X23953000Y-11679562D02*
X24007610Y-11624952D01*
X23953000Y-11570342D01*
X23898390Y-11624952D01*
X23953000Y-11679562D01*
D16*
X20220000Y-9665000D02*
X20350000Y-9795000D01*
X20350000Y-9665000D02*
X20220000Y-9795000D01*
X20350000Y-9730000D02*
G75*
G03*
X20350000Y-9730000I-65000J0D01*
G01*
X20220000Y-10115000D02*
X20350000Y-10245000D01*
X20350000Y-10115000D02*
X20220000Y-10245000D01*
X20350000Y-10180000D02*
G75*
G03*
X20350000Y-10180000I-65000J0D01*
G01*
X20870000Y-9665000D02*
X21000000Y-9795000D01*
X21000000Y-9665000D02*
X20870000Y-9795000D01*
X21000000Y-9730000D02*
G75*
G03*
X21000000Y-9730000I-65000J0D01*
G01*
X20870000Y-10115000D02*
X21000000Y-10245000D01*
X21000000Y-10115000D02*
X20870000Y-10245000D01*
X21000000Y-10180000D02*
G75*
G03*
X21000000Y-10180000I-65000J0D01*
G01*
D17*
X16481030Y-8854082D02*
X16881030Y-9254082D01*
X16881030Y-8854082D02*
X16481030Y-9254082D01*
X16681030Y-8854082D02*
X16681030Y-9254082D01*
X16481030Y-9054082D02*
X16881030Y-9054082D01*
X19931030Y-11629082D02*
X20331030Y-12029082D01*
X20331030Y-11629082D02*
X19931030Y-12029082D01*
X20131030Y-11629082D02*
X20131030Y-12029082D01*
X19931030Y-11829082D02*
X20331030Y-11829082D01*
X20410000Y-10705000D02*
X20810000Y-11105000D01*
X20810000Y-10705000D02*
X20410000Y-11105000D01*
X20610000Y-10705000D02*
X20610000Y-11105000D01*
X20410000Y-10905000D02*
X20810000Y-10905000D01*
X20911262Y-11629218D02*
X21311262Y-12029218D01*
X21311262Y-11629218D02*
X20911262Y-12029218D01*
X21111262Y-11629218D02*
X21111262Y-12029218D01*
X20911262Y-11829218D02*
X21311262Y-11829218D01*
X24368762Y-8839218D02*
X24768762Y-9239218D01*
X24768762Y-8839218D02*
X24368762Y-9239218D01*
X24568762Y-8839218D02*
X24568762Y-9239218D01*
X24368762Y-9039218D02*
X24768762Y-9039218D01*
D11*
X16595866Y-14033742D02*
X16595866Y-13833742D01*
X16595866Y-13833742D02*
X16643485Y-13833742D01*
X16643485Y-13833742D02*
X16672056Y-13843266D01*
X16672056Y-13843266D02*
X16691104Y-13862314D01*
X16691104Y-13862314D02*
X16700628Y-13881361D01*
X16700628Y-13881361D02*
X16710151Y-13919456D01*
X16710151Y-13919456D02*
X16710151Y-13948028D01*
X16710151Y-13948028D02*
X16700628Y-13986123D01*
X16700628Y-13986123D02*
X16691104Y-14005171D01*
X16691104Y-14005171D02*
X16672056Y-14024218D01*
X16672056Y-14024218D02*
X16643485Y-14033742D01*
X16643485Y-14033742D02*
X16595866Y-14033742D01*
X16795866Y-14033742D02*
X16795866Y-13900409D01*
X16795866Y-13938504D02*
X16805390Y-13919456D01*
X16805390Y-13919456D02*
X16814913Y-13909933D01*
X16814913Y-13909933D02*
X16833961Y-13900409D01*
X16833961Y-13900409D02*
X16853009Y-13900409D01*
X16919675Y-14033742D02*
X16919675Y-13900409D01*
X16919675Y-13833742D02*
X16910151Y-13843266D01*
X16910151Y-13843266D02*
X16919675Y-13852790D01*
X16919675Y-13852790D02*
X16929199Y-13843266D01*
X16929199Y-13843266D02*
X16919675Y-13833742D01*
X16919675Y-13833742D02*
X16919675Y-13852790D01*
X17043485Y-14033742D02*
X17024437Y-14024218D01*
X17024437Y-14024218D02*
X17014913Y-14005171D01*
X17014913Y-14005171D02*
X17014913Y-13833742D01*
X17148247Y-14033742D02*
X17129199Y-14024218D01*
X17129199Y-14024218D02*
X17119675Y-14005171D01*
X17119675Y-14005171D02*
X17119675Y-13833742D01*
X17376818Y-14033742D02*
X17376818Y-13833742D01*
X17376818Y-13833742D02*
X17443485Y-13976599D01*
X17443485Y-13976599D02*
X17510151Y-13833742D01*
X17510151Y-13833742D02*
X17510151Y-14033742D01*
X17691104Y-14033742D02*
X17691104Y-13928980D01*
X17691104Y-13928980D02*
X17681580Y-13909933D01*
X17681580Y-13909933D02*
X17662532Y-13900409D01*
X17662532Y-13900409D02*
X17624437Y-13900409D01*
X17624437Y-13900409D02*
X17605390Y-13909933D01*
X17691104Y-14024218D02*
X17672056Y-14033742D01*
X17672056Y-14033742D02*
X17624437Y-14033742D01*
X17624437Y-14033742D02*
X17605390Y-14024218D01*
X17605390Y-14024218D02*
X17595866Y-14005171D01*
X17595866Y-14005171D02*
X17595866Y-13986123D01*
X17595866Y-13986123D02*
X17605390Y-13967076D01*
X17605390Y-13967076D02*
X17624437Y-13957552D01*
X17624437Y-13957552D02*
X17672056Y-13957552D01*
X17672056Y-13957552D02*
X17691104Y-13948028D01*
X17786342Y-13900409D02*
X17786342Y-14100409D01*
X17786342Y-13909933D02*
X17805390Y-13900409D01*
X17805390Y-13900409D02*
X17843485Y-13900409D01*
X17843485Y-13900409D02*
X17862532Y-13909933D01*
X17862532Y-13909933D02*
X17872056Y-13919456D01*
X17872056Y-13919456D02*
X17881580Y-13938504D01*
X17881580Y-13938504D02*
X17881580Y-13995647D01*
X17881580Y-13995647D02*
X17872056Y-14014695D01*
X17872056Y-14014695D02*
X17862532Y-14024218D01*
X17862532Y-14024218D02*
X17843485Y-14033742D01*
X17843485Y-14033742D02*
X17805390Y-14033742D01*
X17805390Y-14033742D02*
X17786342Y-14024218D01*
X17967294Y-14014695D02*
X17976818Y-14024218D01*
X17976818Y-14024218D02*
X17967294Y-14033742D01*
X17967294Y-14033742D02*
X17957771Y-14024218D01*
X17957771Y-14024218D02*
X17967294Y-14014695D01*
X17967294Y-14014695D02*
X17967294Y-14033742D01*
X17967294Y-13909933D02*
X17976818Y-13919456D01*
X17976818Y-13919456D02*
X17967294Y-13928980D01*
X17967294Y-13928980D02*
X17957771Y-13919456D01*
X17957771Y-13919456D02*
X17967294Y-13909933D01*
X17967294Y-13909933D02*
X17967294Y-13928980D01*
D12*
X16305089Y-14347258D02*
X16335089Y-14377258D01*
X16335089Y-14347258D02*
X16305089Y-14377258D01*
D11*
X16633961Y-14253742D02*
X16653009Y-14253742D01*
X16653009Y-14253742D02*
X16672056Y-14263266D01*
X16672056Y-14263266D02*
X16681580Y-14272790D01*
X16681580Y-14272790D02*
X16691104Y-14291837D01*
X16691104Y-14291837D02*
X16700628Y-14329933D01*
X16700628Y-14329933D02*
X16700628Y-14377552D01*
X16700628Y-14377552D02*
X16691104Y-14415647D01*
X16691104Y-14415647D02*
X16681580Y-14434695D01*
X16681580Y-14434695D02*
X16672056Y-14444218D01*
X16672056Y-14444218D02*
X16653009Y-14453742D01*
X16653009Y-14453742D02*
X16633961Y-14453742D01*
X16633961Y-14453742D02*
X16614913Y-14444218D01*
X16614913Y-14444218D02*
X16605389Y-14434695D01*
X16605389Y-14434695D02*
X16595866Y-14415647D01*
X16595866Y-14415647D02*
X16586342Y-14377552D01*
X16586342Y-14377552D02*
X16586342Y-14329933D01*
X16586342Y-14329933D02*
X16595866Y-14291837D01*
X16595866Y-14291837D02*
X16605389Y-14272790D01*
X16605389Y-14272790D02*
X16614913Y-14263266D01*
X16614913Y-14263266D02*
X16633961Y-14253742D01*
X16786342Y-14434695D02*
X16795866Y-14444218D01*
X16795866Y-14444218D02*
X16786342Y-14453742D01*
X16786342Y-14453742D02*
X16776818Y-14444218D01*
X16776818Y-14444218D02*
X16786342Y-14434695D01*
X16786342Y-14434695D02*
X16786342Y-14453742D01*
X16862532Y-14253742D02*
X16986342Y-14253742D01*
X16986342Y-14253742D02*
X16919675Y-14329933D01*
X16919675Y-14329933D02*
X16948247Y-14329933D01*
X16948247Y-14329933D02*
X16967294Y-14339456D01*
X16967294Y-14339456D02*
X16976818Y-14348980D01*
X16976818Y-14348980D02*
X16986342Y-14368028D01*
X16986342Y-14368028D02*
X16986342Y-14415647D01*
X16986342Y-14415647D02*
X16976818Y-14434695D01*
X16976818Y-14434695D02*
X16967294Y-14444218D01*
X16967294Y-14444218D02*
X16948247Y-14453742D01*
X16948247Y-14453742D02*
X16891104Y-14453742D01*
X16891104Y-14453742D02*
X16872056Y-14444218D01*
X16872056Y-14444218D02*
X16862532Y-14434695D01*
X17110151Y-14253742D02*
X17129199Y-14253742D01*
X17129199Y-14253742D02*
X17148247Y-14263266D01*
X17148247Y-14263266D02*
X17157771Y-14272790D01*
X17157771Y-14272790D02*
X17167294Y-14291837D01*
X17167294Y-14291837D02*
X17176818Y-14329933D01*
X17176818Y-14329933D02*
X17176818Y-14377552D01*
X17176818Y-14377552D02*
X17167294Y-14415647D01*
X17167294Y-14415647D02*
X17157771Y-14434695D01*
X17157771Y-14434695D02*
X17148247Y-14444218D01*
X17148247Y-14444218D02*
X17129199Y-14453742D01*
X17129199Y-14453742D02*
X17110151Y-14453742D01*
X17110151Y-14453742D02*
X17091104Y-14444218D01*
X17091104Y-14444218D02*
X17081580Y-14434695D01*
X17081580Y-14434695D02*
X17072056Y-14415647D01*
X17072056Y-14415647D02*
X17062532Y-14377552D01*
X17062532Y-14377552D02*
X17062532Y-14329933D01*
X17062532Y-14329933D02*
X17072056Y-14291837D01*
X17072056Y-14291837D02*
X17081580Y-14272790D01*
X17081580Y-14272790D02*
X17091104Y-14263266D01*
X17091104Y-14263266D02*
X17110151Y-14253742D01*
X17300628Y-14253742D02*
X17319675Y-14253742D01*
X17319675Y-14253742D02*
X17338723Y-14263266D01*
X17338723Y-14263266D02*
X17348247Y-14272790D01*
X17348247Y-14272790D02*
X17357771Y-14291837D01*
X17357771Y-14291837D02*
X17367294Y-14329933D01*
X17367294Y-14329933D02*
X17367294Y-14377552D01*
X17367294Y-14377552D02*
X17357771Y-14415647D01*
X17357771Y-14415647D02*
X17348247Y-14434695D01*
X17348247Y-14434695D02*
X17338723Y-14444218D01*
X17338723Y-14444218D02*
X17319675Y-14453742D01*
X17319675Y-14453742D02*
X17300628Y-14453742D01*
X17300628Y-14453742D02*
X17281580Y-14444218D01*
X17281580Y-14444218D02*
X17272056Y-14434695D01*
X17272056Y-14434695D02*
X17262532Y-14415647D01*
X17262532Y-14415647D02*
X17253009Y-14377552D01*
X17253009Y-14377552D02*
X17253009Y-14329933D01*
X17253009Y-14329933D02*
X17262532Y-14291837D01*
X17262532Y-14291837D02*
X17272056Y-14272790D01*
X17272056Y-14272790D02*
X17281580Y-14263266D01*
X17281580Y-14263266D02*
X17300628Y-14253742D01*
X17453009Y-14453742D02*
X17453009Y-14320409D01*
X17453009Y-14339456D02*
X17462532Y-14329933D01*
X17462532Y-14329933D02*
X17481580Y-14320409D01*
X17481580Y-14320409D02*
X17510152Y-14320409D01*
X17510152Y-14320409D02*
X17529199Y-14329933D01*
X17529199Y-14329933D02*
X17538723Y-14348980D01*
X17538723Y-14348980D02*
X17538723Y-14453742D01*
X17538723Y-14348980D02*
X17548247Y-14329933D01*
X17548247Y-14329933D02*
X17567294Y-14320409D01*
X17567294Y-14320409D02*
X17595866Y-14320409D01*
X17595866Y-14320409D02*
X17614913Y-14329933D01*
X17614913Y-14329933D02*
X17624437Y-14348980D01*
X17624437Y-14348980D02*
X17624437Y-14453742D01*
X17719675Y-14453742D02*
X17719675Y-14320409D01*
X17719675Y-14339456D02*
X17729199Y-14329933D01*
X17729199Y-14329933D02*
X17748247Y-14320409D01*
X17748247Y-14320409D02*
X17776818Y-14320409D01*
X17776818Y-14320409D02*
X17795866Y-14329933D01*
X17795866Y-14329933D02*
X17805390Y-14348980D01*
X17805390Y-14348980D02*
X17805390Y-14453742D01*
X17805390Y-14348980D02*
X17814913Y-14329933D01*
X17814913Y-14329933D02*
X17833961Y-14320409D01*
X17833961Y-14320409D02*
X17862532Y-14320409D01*
X17862532Y-14320409D02*
X17881580Y-14329933D01*
X17881580Y-14329933D02*
X17891104Y-14348980D01*
X17891104Y-14348980D02*
X17891104Y-14453742D01*
X18281580Y-14244218D02*
X18110152Y-14501361D01*
X18538723Y-14253742D02*
X18557771Y-14253742D01*
X18557771Y-14253742D02*
X18576818Y-14263266D01*
X18576818Y-14263266D02*
X18586342Y-14272790D01*
X18586342Y-14272790D02*
X18595866Y-14291837D01*
X18595866Y-14291837D02*
X18605390Y-14329933D01*
X18605390Y-14329933D02*
X18605390Y-14377552D01*
X18605390Y-14377552D02*
X18595866Y-14415647D01*
X18595866Y-14415647D02*
X18586342Y-14434695D01*
X18586342Y-14434695D02*
X18576818Y-14444218D01*
X18576818Y-14444218D02*
X18557771Y-14453742D01*
X18557771Y-14453742D02*
X18538723Y-14453742D01*
X18538723Y-14453742D02*
X18519675Y-14444218D01*
X18519675Y-14444218D02*
X18510152Y-14434695D01*
X18510152Y-14434695D02*
X18500628Y-14415647D01*
X18500628Y-14415647D02*
X18491104Y-14377552D01*
X18491104Y-14377552D02*
X18491104Y-14329933D01*
X18491104Y-14329933D02*
X18500628Y-14291837D01*
X18500628Y-14291837D02*
X18510152Y-14272790D01*
X18510152Y-14272790D02*
X18519675Y-14263266D01*
X18519675Y-14263266D02*
X18538723Y-14253742D01*
X18691104Y-14434695D02*
X18700628Y-14444218D01*
X18700628Y-14444218D02*
X18691104Y-14453742D01*
X18691104Y-14453742D02*
X18681580Y-14444218D01*
X18681580Y-14444218D02*
X18691104Y-14434695D01*
X18691104Y-14434695D02*
X18691104Y-14453742D01*
X18824437Y-14253742D02*
X18843485Y-14253742D01*
X18843485Y-14253742D02*
X18862533Y-14263266D01*
X18862533Y-14263266D02*
X18872056Y-14272790D01*
X18872056Y-14272790D02*
X18881580Y-14291837D01*
X18881580Y-14291837D02*
X18891104Y-14329933D01*
X18891104Y-14329933D02*
X18891104Y-14377552D01*
X18891104Y-14377552D02*
X18881580Y-14415647D01*
X18881580Y-14415647D02*
X18872056Y-14434695D01*
X18872056Y-14434695D02*
X18862533Y-14444218D01*
X18862533Y-14444218D02*
X18843485Y-14453742D01*
X18843485Y-14453742D02*
X18824437Y-14453742D01*
X18824437Y-14453742D02*
X18805390Y-14444218D01*
X18805390Y-14444218D02*
X18795866Y-14434695D01*
X18795866Y-14434695D02*
X18786342Y-14415647D01*
X18786342Y-14415647D02*
X18776818Y-14377552D01*
X18776818Y-14377552D02*
X18776818Y-14329933D01*
X18776818Y-14329933D02*
X18786342Y-14291837D01*
X18786342Y-14291837D02*
X18795866Y-14272790D01*
X18795866Y-14272790D02*
X18805390Y-14263266D01*
X18805390Y-14263266D02*
X18824437Y-14253742D01*
X19081580Y-14453742D02*
X18967295Y-14453742D01*
X19024437Y-14453742D02*
X19024437Y-14253742D01*
X19024437Y-14253742D02*
X19005390Y-14282314D01*
X19005390Y-14282314D02*
X18986342Y-14301361D01*
X18986342Y-14301361D02*
X18967295Y-14310885D01*
X19272056Y-14453742D02*
X19157771Y-14453742D01*
X19214914Y-14453742D02*
X19214914Y-14253742D01*
X19214914Y-14253742D02*
X19195866Y-14282314D01*
X19195866Y-14282314D02*
X19176818Y-14301361D01*
X19176818Y-14301361D02*
X19157771Y-14310885D01*
X19386342Y-14339456D02*
X19367295Y-14329933D01*
X19367295Y-14329933D02*
X19357771Y-14320409D01*
X19357771Y-14320409D02*
X19348247Y-14301361D01*
X19348247Y-14301361D02*
X19348247Y-14291837D01*
X19348247Y-14291837D02*
X19357771Y-14272790D01*
X19357771Y-14272790D02*
X19367295Y-14263266D01*
X19367295Y-14263266D02*
X19386342Y-14253742D01*
X19386342Y-14253742D02*
X19424437Y-14253742D01*
X19424437Y-14253742D02*
X19443485Y-14263266D01*
X19443485Y-14263266D02*
X19453009Y-14272790D01*
X19453009Y-14272790D02*
X19462533Y-14291837D01*
X19462533Y-14291837D02*
X19462533Y-14301361D01*
X19462533Y-14301361D02*
X19453009Y-14320409D01*
X19453009Y-14320409D02*
X19443485Y-14329933D01*
X19443485Y-14329933D02*
X19424437Y-14339456D01*
X19424437Y-14339456D02*
X19386342Y-14339456D01*
X19386342Y-14339456D02*
X19367295Y-14348980D01*
X19367295Y-14348980D02*
X19357771Y-14358504D01*
X19357771Y-14358504D02*
X19348247Y-14377552D01*
X19348247Y-14377552D02*
X19348247Y-14415647D01*
X19348247Y-14415647D02*
X19357771Y-14434695D01*
X19357771Y-14434695D02*
X19367295Y-14444218D01*
X19367295Y-14444218D02*
X19386342Y-14453742D01*
X19386342Y-14453742D02*
X19424437Y-14453742D01*
X19424437Y-14453742D02*
X19443485Y-14444218D01*
X19443485Y-14444218D02*
X19453009Y-14434695D01*
X19453009Y-14434695D02*
X19462533Y-14415647D01*
X19462533Y-14415647D02*
X19462533Y-14377552D01*
X19462533Y-14377552D02*
X19453009Y-14358504D01*
X19453009Y-14358504D02*
X19443485Y-14348980D01*
X19443485Y-14348980D02*
X19424437Y-14339456D01*
X19538723Y-14253742D02*
X19538723Y-14291837D01*
X19614914Y-14253742D02*
X19614914Y-14291837D01*
X19910152Y-14529933D02*
X19900628Y-14520409D01*
X19900628Y-14520409D02*
X19881580Y-14491837D01*
X19881580Y-14491837D02*
X19872057Y-14472790D01*
X19872057Y-14472790D02*
X19862533Y-14444218D01*
X19862533Y-14444218D02*
X19853009Y-14396599D01*
X19853009Y-14396599D02*
X19853009Y-14358504D01*
X19853009Y-14358504D02*
X19862533Y-14310885D01*
X19862533Y-14310885D02*
X19872057Y-14282314D01*
X19872057Y-14282314D02*
X19881580Y-14263266D01*
X19881580Y-14263266D02*
X19900628Y-14234695D01*
X19900628Y-14234695D02*
X19910152Y-14225171D01*
X19967295Y-14253742D02*
X20100628Y-14253742D01*
X20100628Y-14253742D02*
X20014914Y-14453742D01*
X20329199Y-14453742D02*
X20329199Y-14253742D01*
X20414914Y-14453742D02*
X20414914Y-14348980D01*
X20414914Y-14348980D02*
X20405390Y-14329933D01*
X20405390Y-14329933D02*
X20386342Y-14320409D01*
X20386342Y-14320409D02*
X20357771Y-14320409D01*
X20357771Y-14320409D02*
X20338723Y-14329933D01*
X20338723Y-14329933D02*
X20329199Y-14339456D01*
X20538723Y-14453742D02*
X20519676Y-14444218D01*
X20519676Y-14444218D02*
X20510152Y-14434695D01*
X20510152Y-14434695D02*
X20500628Y-14415647D01*
X20500628Y-14415647D02*
X20500628Y-14358504D01*
X20500628Y-14358504D02*
X20510152Y-14339456D01*
X20510152Y-14339456D02*
X20519676Y-14329933D01*
X20519676Y-14329933D02*
X20538723Y-14320409D01*
X20538723Y-14320409D02*
X20567295Y-14320409D01*
X20567295Y-14320409D02*
X20586342Y-14329933D01*
X20586342Y-14329933D02*
X20595866Y-14339456D01*
X20595866Y-14339456D02*
X20605390Y-14358504D01*
X20605390Y-14358504D02*
X20605390Y-14415647D01*
X20605390Y-14415647D02*
X20595866Y-14434695D01*
X20595866Y-14434695D02*
X20586342Y-14444218D01*
X20586342Y-14444218D02*
X20567295Y-14453742D01*
X20567295Y-14453742D02*
X20538723Y-14453742D01*
X20719676Y-14453742D02*
X20700628Y-14444218D01*
X20700628Y-14444218D02*
X20691104Y-14425171D01*
X20691104Y-14425171D02*
X20691104Y-14253742D01*
X20872057Y-14444218D02*
X20853009Y-14453742D01*
X20853009Y-14453742D02*
X20814914Y-14453742D01*
X20814914Y-14453742D02*
X20795866Y-14444218D01*
X20795866Y-14444218D02*
X20786342Y-14425171D01*
X20786342Y-14425171D02*
X20786342Y-14348980D01*
X20786342Y-14348980D02*
X20795866Y-14329933D01*
X20795866Y-14329933D02*
X20814914Y-14320409D01*
X20814914Y-14320409D02*
X20853009Y-14320409D01*
X20853009Y-14320409D02*
X20872057Y-14329933D01*
X20872057Y-14329933D02*
X20881580Y-14348980D01*
X20881580Y-14348980D02*
X20881580Y-14368028D01*
X20881580Y-14368028D02*
X20786342Y-14387076D01*
X20957771Y-14444218D02*
X20976819Y-14453742D01*
X20976819Y-14453742D02*
X21014914Y-14453742D01*
X21014914Y-14453742D02*
X21033961Y-14444218D01*
X21033961Y-14444218D02*
X21043485Y-14425171D01*
X21043485Y-14425171D02*
X21043485Y-14415647D01*
X21043485Y-14415647D02*
X21033961Y-14396599D01*
X21033961Y-14396599D02*
X21014914Y-14387076D01*
X21014914Y-14387076D02*
X20986342Y-14387076D01*
X20986342Y-14387076D02*
X20967295Y-14377552D01*
X20967295Y-14377552D02*
X20957771Y-14358504D01*
X20957771Y-14358504D02*
X20957771Y-14348980D01*
X20957771Y-14348980D02*
X20967295Y-14329933D01*
X20967295Y-14329933D02*
X20986342Y-14320409D01*
X20986342Y-14320409D02*
X21014914Y-14320409D01*
X21014914Y-14320409D02*
X21033961Y-14329933D01*
X21110152Y-14529933D02*
X21119676Y-14520409D01*
X21119676Y-14520409D02*
X21138723Y-14491837D01*
X21138723Y-14491837D02*
X21148247Y-14472790D01*
X21148247Y-14472790D02*
X21157771Y-14444218D01*
X21157771Y-14444218D02*
X21167295Y-14396599D01*
X21167295Y-14396599D02*
X21167295Y-14358504D01*
X21167295Y-14358504D02*
X21157771Y-14310885D01*
X21157771Y-14310885D02*
X21148247Y-14282314D01*
X21148247Y-14282314D02*
X21138723Y-14263266D01*
X21138723Y-14263266D02*
X21119676Y-14234695D01*
X21119676Y-14234695D02*
X21110152Y-14225171D01*
D13*
X16335089Y-14626258D02*
G75*
G03*
X16335089Y-14626258I-20000J0D01*
G01*
D11*
X16633961Y-14517742D02*
X16653009Y-14517742D01*
X16653009Y-14517742D02*
X16672056Y-14527266D01*
X16672056Y-14527266D02*
X16681580Y-14536790D01*
X16681580Y-14536790D02*
X16691104Y-14555837D01*
X16691104Y-14555837D02*
X16700628Y-14593933D01*
X16700628Y-14593933D02*
X16700628Y-14641552D01*
X16700628Y-14641552D02*
X16691104Y-14679647D01*
X16691104Y-14679647D02*
X16681580Y-14698695D01*
X16681580Y-14698695D02*
X16672056Y-14708218D01*
X16672056Y-14708218D02*
X16653009Y-14717742D01*
X16653009Y-14717742D02*
X16633961Y-14717742D01*
X16633961Y-14717742D02*
X16614913Y-14708218D01*
X16614913Y-14708218D02*
X16605389Y-14698695D01*
X16605389Y-14698695D02*
X16595866Y-14679647D01*
X16595866Y-14679647D02*
X16586342Y-14641552D01*
X16586342Y-14641552D02*
X16586342Y-14593933D01*
X16586342Y-14593933D02*
X16595866Y-14555837D01*
X16595866Y-14555837D02*
X16605389Y-14536790D01*
X16605389Y-14536790D02*
X16614913Y-14527266D01*
X16614913Y-14527266D02*
X16633961Y-14517742D01*
X16786342Y-14698695D02*
X16795866Y-14708218D01*
X16795866Y-14708218D02*
X16786342Y-14717742D01*
X16786342Y-14717742D02*
X16776818Y-14708218D01*
X16776818Y-14708218D02*
X16786342Y-14698695D01*
X16786342Y-14698695D02*
X16786342Y-14717742D01*
X16967294Y-14584409D02*
X16967294Y-14717742D01*
X16919675Y-14508218D02*
X16872056Y-14651076D01*
X16872056Y-14651076D02*
X16995866Y-14651076D01*
X17110151Y-14517742D02*
X17129199Y-14517742D01*
X17129199Y-14517742D02*
X17148247Y-14527266D01*
X17148247Y-14527266D02*
X17157771Y-14536790D01*
X17157771Y-14536790D02*
X17167294Y-14555837D01*
X17167294Y-14555837D02*
X17176818Y-14593933D01*
X17176818Y-14593933D02*
X17176818Y-14641552D01*
X17176818Y-14641552D02*
X17167294Y-14679647D01*
X17167294Y-14679647D02*
X17157771Y-14698695D01*
X17157771Y-14698695D02*
X17148247Y-14708218D01*
X17148247Y-14708218D02*
X17129199Y-14717742D01*
X17129199Y-14717742D02*
X17110151Y-14717742D01*
X17110151Y-14717742D02*
X17091104Y-14708218D01*
X17091104Y-14708218D02*
X17081580Y-14698695D01*
X17081580Y-14698695D02*
X17072056Y-14679647D01*
X17072056Y-14679647D02*
X17062532Y-14641552D01*
X17062532Y-14641552D02*
X17062532Y-14593933D01*
X17062532Y-14593933D02*
X17072056Y-14555837D01*
X17072056Y-14555837D02*
X17081580Y-14536790D01*
X17081580Y-14536790D02*
X17091104Y-14527266D01*
X17091104Y-14527266D02*
X17110151Y-14517742D01*
X17300628Y-14517742D02*
X17319675Y-14517742D01*
X17319675Y-14517742D02*
X17338723Y-14527266D01*
X17338723Y-14527266D02*
X17348247Y-14536790D01*
X17348247Y-14536790D02*
X17357771Y-14555837D01*
X17357771Y-14555837D02*
X17367294Y-14593933D01*
X17367294Y-14593933D02*
X17367294Y-14641552D01*
X17367294Y-14641552D02*
X17357771Y-14679647D01*
X17357771Y-14679647D02*
X17348247Y-14698695D01*
X17348247Y-14698695D02*
X17338723Y-14708218D01*
X17338723Y-14708218D02*
X17319675Y-14717742D01*
X17319675Y-14717742D02*
X17300628Y-14717742D01*
X17300628Y-14717742D02*
X17281580Y-14708218D01*
X17281580Y-14708218D02*
X17272056Y-14698695D01*
X17272056Y-14698695D02*
X17262532Y-14679647D01*
X17262532Y-14679647D02*
X17253009Y-14641552D01*
X17253009Y-14641552D02*
X17253009Y-14593933D01*
X17253009Y-14593933D02*
X17262532Y-14555837D01*
X17262532Y-14555837D02*
X17272056Y-14536790D01*
X17272056Y-14536790D02*
X17281580Y-14527266D01*
X17281580Y-14527266D02*
X17300628Y-14517742D01*
X17453009Y-14717742D02*
X17453009Y-14584409D01*
X17453009Y-14603456D02*
X17462532Y-14593933D01*
X17462532Y-14593933D02*
X17481580Y-14584409D01*
X17481580Y-14584409D02*
X17510152Y-14584409D01*
X17510152Y-14584409D02*
X17529199Y-14593933D01*
X17529199Y-14593933D02*
X17538723Y-14612980D01*
X17538723Y-14612980D02*
X17538723Y-14717742D01*
X17538723Y-14612980D02*
X17548247Y-14593933D01*
X17548247Y-14593933D02*
X17567294Y-14584409D01*
X17567294Y-14584409D02*
X17595866Y-14584409D01*
X17595866Y-14584409D02*
X17614913Y-14593933D01*
X17614913Y-14593933D02*
X17624437Y-14612980D01*
X17624437Y-14612980D02*
X17624437Y-14717742D01*
X17719675Y-14717742D02*
X17719675Y-14584409D01*
X17719675Y-14603456D02*
X17729199Y-14593933D01*
X17729199Y-14593933D02*
X17748247Y-14584409D01*
X17748247Y-14584409D02*
X17776818Y-14584409D01*
X17776818Y-14584409D02*
X17795866Y-14593933D01*
X17795866Y-14593933D02*
X17805390Y-14612980D01*
X17805390Y-14612980D02*
X17805390Y-14717742D01*
X17805390Y-14612980D02*
X17814913Y-14593933D01*
X17814913Y-14593933D02*
X17833961Y-14584409D01*
X17833961Y-14584409D02*
X17862532Y-14584409D01*
X17862532Y-14584409D02*
X17881580Y-14593933D01*
X17881580Y-14593933D02*
X17891104Y-14612980D01*
X17891104Y-14612980D02*
X17891104Y-14717742D01*
X18281580Y-14508218D02*
X18110152Y-14765361D01*
X18538723Y-14517742D02*
X18557771Y-14517742D01*
X18557771Y-14517742D02*
X18576818Y-14527266D01*
X18576818Y-14527266D02*
X18586342Y-14536790D01*
X18586342Y-14536790D02*
X18595866Y-14555837D01*
X18595866Y-14555837D02*
X18605390Y-14593933D01*
X18605390Y-14593933D02*
X18605390Y-14641552D01*
X18605390Y-14641552D02*
X18595866Y-14679647D01*
X18595866Y-14679647D02*
X18586342Y-14698695D01*
X18586342Y-14698695D02*
X18576818Y-14708218D01*
X18576818Y-14708218D02*
X18557771Y-14717742D01*
X18557771Y-14717742D02*
X18538723Y-14717742D01*
X18538723Y-14717742D02*
X18519675Y-14708218D01*
X18519675Y-14708218D02*
X18510152Y-14698695D01*
X18510152Y-14698695D02*
X18500628Y-14679647D01*
X18500628Y-14679647D02*
X18491104Y-14641552D01*
X18491104Y-14641552D02*
X18491104Y-14593933D01*
X18491104Y-14593933D02*
X18500628Y-14555837D01*
X18500628Y-14555837D02*
X18510152Y-14536790D01*
X18510152Y-14536790D02*
X18519675Y-14527266D01*
X18519675Y-14527266D02*
X18538723Y-14517742D01*
X18691104Y-14698695D02*
X18700628Y-14708218D01*
X18700628Y-14708218D02*
X18691104Y-14717742D01*
X18691104Y-14717742D02*
X18681580Y-14708218D01*
X18681580Y-14708218D02*
X18691104Y-14698695D01*
X18691104Y-14698695D02*
X18691104Y-14717742D01*
X18824437Y-14517742D02*
X18843485Y-14517742D01*
X18843485Y-14517742D02*
X18862533Y-14527266D01*
X18862533Y-14527266D02*
X18872056Y-14536790D01*
X18872056Y-14536790D02*
X18881580Y-14555837D01*
X18881580Y-14555837D02*
X18891104Y-14593933D01*
X18891104Y-14593933D02*
X18891104Y-14641552D01*
X18891104Y-14641552D02*
X18881580Y-14679647D01*
X18881580Y-14679647D02*
X18872056Y-14698695D01*
X18872056Y-14698695D02*
X18862533Y-14708218D01*
X18862533Y-14708218D02*
X18843485Y-14717742D01*
X18843485Y-14717742D02*
X18824437Y-14717742D01*
X18824437Y-14717742D02*
X18805390Y-14708218D01*
X18805390Y-14708218D02*
X18795866Y-14698695D01*
X18795866Y-14698695D02*
X18786342Y-14679647D01*
X18786342Y-14679647D02*
X18776818Y-14641552D01*
X18776818Y-14641552D02*
X18776818Y-14593933D01*
X18776818Y-14593933D02*
X18786342Y-14555837D01*
X18786342Y-14555837D02*
X18795866Y-14536790D01*
X18795866Y-14536790D02*
X18805390Y-14527266D01*
X18805390Y-14527266D02*
X18824437Y-14517742D01*
X19081580Y-14717742D02*
X18967295Y-14717742D01*
X19024437Y-14717742D02*
X19024437Y-14517742D01*
X19024437Y-14517742D02*
X19005390Y-14546314D01*
X19005390Y-14546314D02*
X18986342Y-14565361D01*
X18986342Y-14565361D02*
X18967295Y-14574885D01*
X19262533Y-14517742D02*
X19167295Y-14517742D01*
X19167295Y-14517742D02*
X19157771Y-14612980D01*
X19157771Y-14612980D02*
X19167295Y-14603456D01*
X19167295Y-14603456D02*
X19186342Y-14593933D01*
X19186342Y-14593933D02*
X19233961Y-14593933D01*
X19233961Y-14593933D02*
X19253009Y-14603456D01*
X19253009Y-14603456D02*
X19262533Y-14612980D01*
X19262533Y-14612980D02*
X19272056Y-14632028D01*
X19272056Y-14632028D02*
X19272056Y-14679647D01*
X19272056Y-14679647D02*
X19262533Y-14698695D01*
X19262533Y-14698695D02*
X19253009Y-14708218D01*
X19253009Y-14708218D02*
X19233961Y-14717742D01*
X19233961Y-14717742D02*
X19186342Y-14717742D01*
X19186342Y-14717742D02*
X19167295Y-14708218D01*
X19167295Y-14708218D02*
X19157771Y-14698695D01*
X19338723Y-14517742D02*
X19472056Y-14517742D01*
X19472056Y-14517742D02*
X19386342Y-14717742D01*
X19538723Y-14517742D02*
X19538723Y-14555837D01*
X19614914Y-14517742D02*
X19614914Y-14555837D01*
X19910152Y-14793933D02*
X19900628Y-14784409D01*
X19900628Y-14784409D02*
X19881580Y-14755837D01*
X19881580Y-14755837D02*
X19872057Y-14736790D01*
X19872057Y-14736790D02*
X19862533Y-14708218D01*
X19862533Y-14708218D02*
X19853009Y-14660599D01*
X19853009Y-14660599D02*
X19853009Y-14622504D01*
X19853009Y-14622504D02*
X19862533Y-14574885D01*
X19862533Y-14574885D02*
X19872057Y-14546314D01*
X19872057Y-14546314D02*
X19881580Y-14527266D01*
X19881580Y-14527266D02*
X19900628Y-14498695D01*
X19900628Y-14498695D02*
X19910152Y-14489171D01*
X19995866Y-14717742D02*
X20033961Y-14717742D01*
X20033961Y-14717742D02*
X20053009Y-14708218D01*
X20053009Y-14708218D02*
X20062533Y-14698695D01*
X20062533Y-14698695D02*
X20081580Y-14670123D01*
X20081580Y-14670123D02*
X20091104Y-14632028D01*
X20091104Y-14632028D02*
X20091104Y-14555837D01*
X20091104Y-14555837D02*
X20081580Y-14536790D01*
X20081580Y-14536790D02*
X20072057Y-14527266D01*
X20072057Y-14527266D02*
X20053009Y-14517742D01*
X20053009Y-14517742D02*
X20014914Y-14517742D01*
X20014914Y-14517742D02*
X19995866Y-14527266D01*
X19995866Y-14527266D02*
X19986342Y-14536790D01*
X19986342Y-14536790D02*
X19976818Y-14555837D01*
X19976818Y-14555837D02*
X19976818Y-14603456D01*
X19976818Y-14603456D02*
X19986342Y-14622504D01*
X19986342Y-14622504D02*
X19995866Y-14632028D01*
X19995866Y-14632028D02*
X20014914Y-14641552D01*
X20014914Y-14641552D02*
X20053009Y-14641552D01*
X20053009Y-14641552D02*
X20072057Y-14632028D01*
X20072057Y-14632028D02*
X20081580Y-14622504D01*
X20081580Y-14622504D02*
X20091104Y-14603456D01*
X20329199Y-14717742D02*
X20329199Y-14517742D01*
X20414914Y-14717742D02*
X20414914Y-14612980D01*
X20414914Y-14612980D02*
X20405390Y-14593933D01*
X20405390Y-14593933D02*
X20386342Y-14584409D01*
X20386342Y-14584409D02*
X20357771Y-14584409D01*
X20357771Y-14584409D02*
X20338723Y-14593933D01*
X20338723Y-14593933D02*
X20329199Y-14603456D01*
X20538723Y-14717742D02*
X20519676Y-14708218D01*
X20519676Y-14708218D02*
X20510152Y-14698695D01*
X20510152Y-14698695D02*
X20500628Y-14679647D01*
X20500628Y-14679647D02*
X20500628Y-14622504D01*
X20500628Y-14622504D02*
X20510152Y-14603456D01*
X20510152Y-14603456D02*
X20519676Y-14593933D01*
X20519676Y-14593933D02*
X20538723Y-14584409D01*
X20538723Y-14584409D02*
X20567295Y-14584409D01*
X20567295Y-14584409D02*
X20586342Y-14593933D01*
X20586342Y-14593933D02*
X20595866Y-14603456D01*
X20595866Y-14603456D02*
X20605390Y-14622504D01*
X20605390Y-14622504D02*
X20605390Y-14679647D01*
X20605390Y-14679647D02*
X20595866Y-14698695D01*
X20595866Y-14698695D02*
X20586342Y-14708218D01*
X20586342Y-14708218D02*
X20567295Y-14717742D01*
X20567295Y-14717742D02*
X20538723Y-14717742D01*
X20719676Y-14717742D02*
X20700628Y-14708218D01*
X20700628Y-14708218D02*
X20691104Y-14689171D01*
X20691104Y-14689171D02*
X20691104Y-14517742D01*
X20872057Y-14708218D02*
X20853009Y-14717742D01*
X20853009Y-14717742D02*
X20814914Y-14717742D01*
X20814914Y-14717742D02*
X20795866Y-14708218D01*
X20795866Y-14708218D02*
X20786342Y-14689171D01*
X20786342Y-14689171D02*
X20786342Y-14612980D01*
X20786342Y-14612980D02*
X20795866Y-14593933D01*
X20795866Y-14593933D02*
X20814914Y-14584409D01*
X20814914Y-14584409D02*
X20853009Y-14584409D01*
X20853009Y-14584409D02*
X20872057Y-14593933D01*
X20872057Y-14593933D02*
X20881580Y-14612980D01*
X20881580Y-14612980D02*
X20881580Y-14632028D01*
X20881580Y-14632028D02*
X20786342Y-14651076D01*
X20957771Y-14708218D02*
X20976819Y-14717742D01*
X20976819Y-14717742D02*
X21014914Y-14717742D01*
X21014914Y-14717742D02*
X21033961Y-14708218D01*
X21033961Y-14708218D02*
X21043485Y-14689171D01*
X21043485Y-14689171D02*
X21043485Y-14679647D01*
X21043485Y-14679647D02*
X21033961Y-14660599D01*
X21033961Y-14660599D02*
X21014914Y-14651076D01*
X21014914Y-14651076D02*
X20986342Y-14651076D01*
X20986342Y-14651076D02*
X20967295Y-14641552D01*
X20967295Y-14641552D02*
X20957771Y-14622504D01*
X20957771Y-14622504D02*
X20957771Y-14612980D01*
X20957771Y-14612980D02*
X20967295Y-14593933D01*
X20967295Y-14593933D02*
X20986342Y-14584409D01*
X20986342Y-14584409D02*
X21014914Y-14584409D01*
X21014914Y-14584409D02*
X21033961Y-14593933D01*
X21110152Y-14793933D02*
X21119676Y-14784409D01*
X21119676Y-14784409D02*
X21138723Y-14755837D01*
X21138723Y-14755837D02*
X21148247Y-14736790D01*
X21148247Y-14736790D02*
X21157771Y-14708218D01*
X21157771Y-14708218D02*
X21167295Y-14660599D01*
X21167295Y-14660599D02*
X21167295Y-14622504D01*
X21167295Y-14622504D02*
X21157771Y-14574885D01*
X21157771Y-14574885D02*
X21148247Y-14546314D01*
X21148247Y-14546314D02*
X21138723Y-14527266D01*
X21138723Y-14527266D02*
X21119676Y-14498695D01*
X21119676Y-14498695D02*
X21110152Y-14489171D01*
D14*
X16305089Y-14860258D02*
X16305089Y-14920258D01*
X16275089Y-14890258D02*
X16335089Y-14890258D01*
D11*
X16633961Y-14781742D02*
X16653009Y-14781742D01*
X16653009Y-14781742D02*
X16672056Y-14791266D01*
X16672056Y-14791266D02*
X16681580Y-14800790D01*
X16681580Y-14800790D02*
X16691104Y-14819837D01*
X16691104Y-14819837D02*
X16700628Y-14857933D01*
X16700628Y-14857933D02*
X16700628Y-14905552D01*
X16700628Y-14905552D02*
X16691104Y-14943647D01*
X16691104Y-14943647D02*
X16681580Y-14962695D01*
X16681580Y-14962695D02*
X16672056Y-14972218D01*
X16672056Y-14972218D02*
X16653009Y-14981742D01*
X16653009Y-14981742D02*
X16633961Y-14981742D01*
X16633961Y-14981742D02*
X16614913Y-14972218D01*
X16614913Y-14972218D02*
X16605389Y-14962695D01*
X16605389Y-14962695D02*
X16595866Y-14943647D01*
X16595866Y-14943647D02*
X16586342Y-14905552D01*
X16586342Y-14905552D02*
X16586342Y-14857933D01*
X16586342Y-14857933D02*
X16595866Y-14819837D01*
X16595866Y-14819837D02*
X16605389Y-14800790D01*
X16605389Y-14800790D02*
X16614913Y-14791266D01*
X16614913Y-14791266D02*
X16633961Y-14781742D01*
X16786342Y-14962695D02*
X16795866Y-14972218D01*
X16795866Y-14972218D02*
X16786342Y-14981742D01*
X16786342Y-14981742D02*
X16776818Y-14972218D01*
X16776818Y-14972218D02*
X16786342Y-14962695D01*
X16786342Y-14962695D02*
X16786342Y-14981742D01*
X16967294Y-14781742D02*
X16929199Y-14781742D01*
X16929199Y-14781742D02*
X16910151Y-14791266D01*
X16910151Y-14791266D02*
X16900628Y-14800790D01*
X16900628Y-14800790D02*
X16881580Y-14829361D01*
X16881580Y-14829361D02*
X16872056Y-14867456D01*
X16872056Y-14867456D02*
X16872056Y-14943647D01*
X16872056Y-14943647D02*
X16881580Y-14962695D01*
X16881580Y-14962695D02*
X16891104Y-14972218D01*
X16891104Y-14972218D02*
X16910151Y-14981742D01*
X16910151Y-14981742D02*
X16948247Y-14981742D01*
X16948247Y-14981742D02*
X16967294Y-14972218D01*
X16967294Y-14972218D02*
X16976818Y-14962695D01*
X16976818Y-14962695D02*
X16986342Y-14943647D01*
X16986342Y-14943647D02*
X16986342Y-14896028D01*
X16986342Y-14896028D02*
X16976818Y-14876980D01*
X16976818Y-14876980D02*
X16967294Y-14867456D01*
X16967294Y-14867456D02*
X16948247Y-14857933D01*
X16948247Y-14857933D02*
X16910151Y-14857933D01*
X16910151Y-14857933D02*
X16891104Y-14867456D01*
X16891104Y-14867456D02*
X16881580Y-14876980D01*
X16881580Y-14876980D02*
X16872056Y-14896028D01*
X17110151Y-14781742D02*
X17129199Y-14781742D01*
X17129199Y-14781742D02*
X17148247Y-14791266D01*
X17148247Y-14791266D02*
X17157771Y-14800790D01*
X17157771Y-14800790D02*
X17167294Y-14819837D01*
X17167294Y-14819837D02*
X17176818Y-14857933D01*
X17176818Y-14857933D02*
X17176818Y-14905552D01*
X17176818Y-14905552D02*
X17167294Y-14943647D01*
X17167294Y-14943647D02*
X17157771Y-14962695D01*
X17157771Y-14962695D02*
X17148247Y-14972218D01*
X17148247Y-14972218D02*
X17129199Y-14981742D01*
X17129199Y-14981742D02*
X17110151Y-14981742D01*
X17110151Y-14981742D02*
X17091104Y-14972218D01*
X17091104Y-14972218D02*
X17081580Y-14962695D01*
X17081580Y-14962695D02*
X17072056Y-14943647D01*
X17072056Y-14943647D02*
X17062532Y-14905552D01*
X17062532Y-14905552D02*
X17062532Y-14857933D01*
X17062532Y-14857933D02*
X17072056Y-14819837D01*
X17072056Y-14819837D02*
X17081580Y-14800790D01*
X17081580Y-14800790D02*
X17091104Y-14791266D01*
X17091104Y-14791266D02*
X17110151Y-14781742D01*
X17300628Y-14781742D02*
X17319675Y-14781742D01*
X17319675Y-14781742D02*
X17338723Y-14791266D01*
X17338723Y-14791266D02*
X17348247Y-14800790D01*
X17348247Y-14800790D02*
X17357771Y-14819837D01*
X17357771Y-14819837D02*
X17367294Y-14857933D01*
X17367294Y-14857933D02*
X17367294Y-14905552D01*
X17367294Y-14905552D02*
X17357771Y-14943647D01*
X17357771Y-14943647D02*
X17348247Y-14962695D01*
X17348247Y-14962695D02*
X17338723Y-14972218D01*
X17338723Y-14972218D02*
X17319675Y-14981742D01*
X17319675Y-14981742D02*
X17300628Y-14981742D01*
X17300628Y-14981742D02*
X17281580Y-14972218D01*
X17281580Y-14972218D02*
X17272056Y-14962695D01*
X17272056Y-14962695D02*
X17262532Y-14943647D01*
X17262532Y-14943647D02*
X17253009Y-14905552D01*
X17253009Y-14905552D02*
X17253009Y-14857933D01*
X17253009Y-14857933D02*
X17262532Y-14819837D01*
X17262532Y-14819837D02*
X17272056Y-14800790D01*
X17272056Y-14800790D02*
X17281580Y-14791266D01*
X17281580Y-14791266D02*
X17300628Y-14781742D01*
X17453009Y-14981742D02*
X17453009Y-14848409D01*
X17453009Y-14867456D02*
X17462532Y-14857933D01*
X17462532Y-14857933D02*
X17481580Y-14848409D01*
X17481580Y-14848409D02*
X17510152Y-14848409D01*
X17510152Y-14848409D02*
X17529199Y-14857933D01*
X17529199Y-14857933D02*
X17538723Y-14876980D01*
X17538723Y-14876980D02*
X17538723Y-14981742D01*
X17538723Y-14876980D02*
X17548247Y-14857933D01*
X17548247Y-14857933D02*
X17567294Y-14848409D01*
X17567294Y-14848409D02*
X17595866Y-14848409D01*
X17595866Y-14848409D02*
X17614913Y-14857933D01*
X17614913Y-14857933D02*
X17624437Y-14876980D01*
X17624437Y-14876980D02*
X17624437Y-14981742D01*
X17719675Y-14981742D02*
X17719675Y-14848409D01*
X17719675Y-14867456D02*
X17729199Y-14857933D01*
X17729199Y-14857933D02*
X17748247Y-14848409D01*
X17748247Y-14848409D02*
X17776818Y-14848409D01*
X17776818Y-14848409D02*
X17795866Y-14857933D01*
X17795866Y-14857933D02*
X17805390Y-14876980D01*
X17805390Y-14876980D02*
X17805390Y-14981742D01*
X17805390Y-14876980D02*
X17814913Y-14857933D01*
X17814913Y-14857933D02*
X17833961Y-14848409D01*
X17833961Y-14848409D02*
X17862532Y-14848409D01*
X17862532Y-14848409D02*
X17881580Y-14857933D01*
X17881580Y-14857933D02*
X17891104Y-14876980D01*
X17891104Y-14876980D02*
X17891104Y-14981742D01*
X18281580Y-14772218D02*
X18110152Y-15029361D01*
X18538723Y-14781742D02*
X18557771Y-14781742D01*
X18557771Y-14781742D02*
X18576818Y-14791266D01*
X18576818Y-14791266D02*
X18586342Y-14800790D01*
X18586342Y-14800790D02*
X18595866Y-14819837D01*
X18595866Y-14819837D02*
X18605390Y-14857933D01*
X18605390Y-14857933D02*
X18605390Y-14905552D01*
X18605390Y-14905552D02*
X18595866Y-14943647D01*
X18595866Y-14943647D02*
X18586342Y-14962695D01*
X18586342Y-14962695D02*
X18576818Y-14972218D01*
X18576818Y-14972218D02*
X18557771Y-14981742D01*
X18557771Y-14981742D02*
X18538723Y-14981742D01*
X18538723Y-14981742D02*
X18519675Y-14972218D01*
X18519675Y-14972218D02*
X18510152Y-14962695D01*
X18510152Y-14962695D02*
X18500628Y-14943647D01*
X18500628Y-14943647D02*
X18491104Y-14905552D01*
X18491104Y-14905552D02*
X18491104Y-14857933D01*
X18491104Y-14857933D02*
X18500628Y-14819837D01*
X18500628Y-14819837D02*
X18510152Y-14800790D01*
X18510152Y-14800790D02*
X18519675Y-14791266D01*
X18519675Y-14791266D02*
X18538723Y-14781742D01*
X18691104Y-14962695D02*
X18700628Y-14972218D01*
X18700628Y-14972218D02*
X18691104Y-14981742D01*
X18691104Y-14981742D02*
X18681580Y-14972218D01*
X18681580Y-14972218D02*
X18691104Y-14962695D01*
X18691104Y-14962695D02*
X18691104Y-14981742D01*
X18824437Y-14781742D02*
X18843485Y-14781742D01*
X18843485Y-14781742D02*
X18862533Y-14791266D01*
X18862533Y-14791266D02*
X18872056Y-14800790D01*
X18872056Y-14800790D02*
X18881580Y-14819837D01*
X18881580Y-14819837D02*
X18891104Y-14857933D01*
X18891104Y-14857933D02*
X18891104Y-14905552D01*
X18891104Y-14905552D02*
X18881580Y-14943647D01*
X18881580Y-14943647D02*
X18872056Y-14962695D01*
X18872056Y-14962695D02*
X18862533Y-14972218D01*
X18862533Y-14972218D02*
X18843485Y-14981742D01*
X18843485Y-14981742D02*
X18824437Y-14981742D01*
X18824437Y-14981742D02*
X18805390Y-14972218D01*
X18805390Y-14972218D02*
X18795866Y-14962695D01*
X18795866Y-14962695D02*
X18786342Y-14943647D01*
X18786342Y-14943647D02*
X18776818Y-14905552D01*
X18776818Y-14905552D02*
X18776818Y-14857933D01*
X18776818Y-14857933D02*
X18786342Y-14819837D01*
X18786342Y-14819837D02*
X18795866Y-14800790D01*
X18795866Y-14800790D02*
X18805390Y-14791266D01*
X18805390Y-14791266D02*
X18824437Y-14781742D01*
X18967295Y-14800790D02*
X18976818Y-14791266D01*
X18976818Y-14791266D02*
X18995866Y-14781742D01*
X18995866Y-14781742D02*
X19043485Y-14781742D01*
X19043485Y-14781742D02*
X19062533Y-14791266D01*
X19062533Y-14791266D02*
X19072056Y-14800790D01*
X19072056Y-14800790D02*
X19081580Y-14819837D01*
X19081580Y-14819837D02*
X19081580Y-14838885D01*
X19081580Y-14838885D02*
X19072056Y-14867456D01*
X19072056Y-14867456D02*
X18957771Y-14981742D01*
X18957771Y-14981742D02*
X19081580Y-14981742D01*
X19148247Y-14781742D02*
X19272056Y-14781742D01*
X19272056Y-14781742D02*
X19205390Y-14857933D01*
X19205390Y-14857933D02*
X19233961Y-14857933D01*
X19233961Y-14857933D02*
X19253009Y-14867456D01*
X19253009Y-14867456D02*
X19262533Y-14876980D01*
X19262533Y-14876980D02*
X19272056Y-14896028D01*
X19272056Y-14896028D02*
X19272056Y-14943647D01*
X19272056Y-14943647D02*
X19262533Y-14962695D01*
X19262533Y-14962695D02*
X19253009Y-14972218D01*
X19253009Y-14972218D02*
X19233961Y-14981742D01*
X19233961Y-14981742D02*
X19176818Y-14981742D01*
X19176818Y-14981742D02*
X19157771Y-14972218D01*
X19157771Y-14972218D02*
X19148247Y-14962695D01*
X19443485Y-14781742D02*
X19405390Y-14781742D01*
X19405390Y-14781742D02*
X19386342Y-14791266D01*
X19386342Y-14791266D02*
X19376818Y-14800790D01*
X19376818Y-14800790D02*
X19357771Y-14829361D01*
X19357771Y-14829361D02*
X19348247Y-14867456D01*
X19348247Y-14867456D02*
X19348247Y-14943647D01*
X19348247Y-14943647D02*
X19357771Y-14962695D01*
X19357771Y-14962695D02*
X19367295Y-14972218D01*
X19367295Y-14972218D02*
X19386342Y-14981742D01*
X19386342Y-14981742D02*
X19424437Y-14981742D01*
X19424437Y-14981742D02*
X19443485Y-14972218D01*
X19443485Y-14972218D02*
X19453009Y-14962695D01*
X19453009Y-14962695D02*
X19462533Y-14943647D01*
X19462533Y-14943647D02*
X19462533Y-14896028D01*
X19462533Y-14896028D02*
X19453009Y-14876980D01*
X19453009Y-14876980D02*
X19443485Y-14867456D01*
X19443485Y-14867456D02*
X19424437Y-14857933D01*
X19424437Y-14857933D02*
X19386342Y-14857933D01*
X19386342Y-14857933D02*
X19367295Y-14867456D01*
X19367295Y-14867456D02*
X19357771Y-14876980D01*
X19357771Y-14876980D02*
X19348247Y-14896028D01*
X19538723Y-14781742D02*
X19538723Y-14819837D01*
X19614914Y-14781742D02*
X19614914Y-14819837D01*
X19910152Y-15057933D02*
X19900628Y-15048409D01*
X19900628Y-15048409D02*
X19881580Y-15019837D01*
X19881580Y-15019837D02*
X19872057Y-15000790D01*
X19872057Y-15000790D02*
X19862533Y-14972218D01*
X19862533Y-14972218D02*
X19853009Y-14924599D01*
X19853009Y-14924599D02*
X19853009Y-14886504D01*
X19853009Y-14886504D02*
X19862533Y-14838885D01*
X19862533Y-14838885D02*
X19872057Y-14810314D01*
X19872057Y-14810314D02*
X19881580Y-14791266D01*
X19881580Y-14791266D02*
X19900628Y-14762695D01*
X19900628Y-14762695D02*
X19910152Y-14753171D01*
X20024437Y-14781742D02*
X20043485Y-14781742D01*
X20043485Y-14781742D02*
X20062533Y-14791266D01*
X20062533Y-14791266D02*
X20072057Y-14800790D01*
X20072057Y-14800790D02*
X20081580Y-14819837D01*
X20081580Y-14819837D02*
X20091104Y-14857933D01*
X20091104Y-14857933D02*
X20091104Y-14905552D01*
X20091104Y-14905552D02*
X20081580Y-14943647D01*
X20081580Y-14943647D02*
X20072057Y-14962695D01*
X20072057Y-14962695D02*
X20062533Y-14972218D01*
X20062533Y-14972218D02*
X20043485Y-14981742D01*
X20043485Y-14981742D02*
X20024437Y-14981742D01*
X20024437Y-14981742D02*
X20005390Y-14972218D01*
X20005390Y-14972218D02*
X19995866Y-14962695D01*
X19995866Y-14962695D02*
X19986342Y-14943647D01*
X19986342Y-14943647D02*
X19976818Y-14905552D01*
X19976818Y-14905552D02*
X19976818Y-14857933D01*
X19976818Y-14857933D02*
X19986342Y-14819837D01*
X19986342Y-14819837D02*
X19995866Y-14800790D01*
X19995866Y-14800790D02*
X20005390Y-14791266D01*
X20005390Y-14791266D02*
X20024437Y-14781742D01*
X20329199Y-14981742D02*
X20329199Y-14781742D01*
X20414914Y-14981742D02*
X20414914Y-14876980D01*
X20414914Y-14876980D02*
X20405390Y-14857933D01*
X20405390Y-14857933D02*
X20386342Y-14848409D01*
X20386342Y-14848409D02*
X20357771Y-14848409D01*
X20357771Y-14848409D02*
X20338723Y-14857933D01*
X20338723Y-14857933D02*
X20329199Y-14867456D01*
X20538723Y-14981742D02*
X20519676Y-14972218D01*
X20519676Y-14972218D02*
X20510152Y-14962695D01*
X20510152Y-14962695D02*
X20500628Y-14943647D01*
X20500628Y-14943647D02*
X20500628Y-14886504D01*
X20500628Y-14886504D02*
X20510152Y-14867456D01*
X20510152Y-14867456D02*
X20519676Y-14857933D01*
X20519676Y-14857933D02*
X20538723Y-14848409D01*
X20538723Y-14848409D02*
X20567295Y-14848409D01*
X20567295Y-14848409D02*
X20586342Y-14857933D01*
X20586342Y-14857933D02*
X20595866Y-14867456D01*
X20595866Y-14867456D02*
X20605390Y-14886504D01*
X20605390Y-14886504D02*
X20605390Y-14943647D01*
X20605390Y-14943647D02*
X20595866Y-14962695D01*
X20595866Y-14962695D02*
X20586342Y-14972218D01*
X20586342Y-14972218D02*
X20567295Y-14981742D01*
X20567295Y-14981742D02*
X20538723Y-14981742D01*
X20719676Y-14981742D02*
X20700628Y-14972218D01*
X20700628Y-14972218D02*
X20691104Y-14953171D01*
X20691104Y-14953171D02*
X20691104Y-14781742D01*
X20872057Y-14972218D02*
X20853009Y-14981742D01*
X20853009Y-14981742D02*
X20814914Y-14981742D01*
X20814914Y-14981742D02*
X20795866Y-14972218D01*
X20795866Y-14972218D02*
X20786342Y-14953171D01*
X20786342Y-14953171D02*
X20786342Y-14876980D01*
X20786342Y-14876980D02*
X20795866Y-14857933D01*
X20795866Y-14857933D02*
X20814914Y-14848409D01*
X20814914Y-14848409D02*
X20853009Y-14848409D01*
X20853009Y-14848409D02*
X20872057Y-14857933D01*
X20872057Y-14857933D02*
X20881580Y-14876980D01*
X20881580Y-14876980D02*
X20881580Y-14896028D01*
X20881580Y-14896028D02*
X20786342Y-14915076D01*
X20957771Y-14972218D02*
X20976819Y-14981742D01*
X20976819Y-14981742D02*
X21014914Y-14981742D01*
X21014914Y-14981742D02*
X21033961Y-14972218D01*
X21033961Y-14972218D02*
X21043485Y-14953171D01*
X21043485Y-14953171D02*
X21043485Y-14943647D01*
X21043485Y-14943647D02*
X21033961Y-14924599D01*
X21033961Y-14924599D02*
X21014914Y-14915076D01*
X21014914Y-14915076D02*
X20986342Y-14915076D01*
X20986342Y-14915076D02*
X20967295Y-14905552D01*
X20967295Y-14905552D02*
X20957771Y-14886504D01*
X20957771Y-14886504D02*
X20957771Y-14876980D01*
X20957771Y-14876980D02*
X20967295Y-14857933D01*
X20967295Y-14857933D02*
X20986342Y-14848409D01*
X20986342Y-14848409D02*
X21014914Y-14848409D01*
X21014914Y-14848409D02*
X21033961Y-14857933D01*
X21281581Y-14905552D02*
X21433962Y-14905552D01*
X21357771Y-14981742D02*
X21357771Y-14829361D01*
X21786342Y-14981742D02*
X21672057Y-14981742D01*
X21729200Y-14981742D02*
X21729200Y-14781742D01*
X21729200Y-14781742D02*
X21710152Y-14810314D01*
X21710152Y-14810314D02*
X21691104Y-14829361D01*
X21691104Y-14829361D02*
X21672057Y-14838885D01*
X21910152Y-14781742D02*
X21929200Y-14781742D01*
X21929200Y-14781742D02*
X21948247Y-14791266D01*
X21948247Y-14791266D02*
X21957771Y-14800790D01*
X21957771Y-14800790D02*
X21967295Y-14819837D01*
X21967295Y-14819837D02*
X21976819Y-14857933D01*
X21976819Y-14857933D02*
X21976819Y-14905552D01*
X21976819Y-14905552D02*
X21967295Y-14943647D01*
X21967295Y-14943647D02*
X21957771Y-14962695D01*
X21957771Y-14962695D02*
X21948247Y-14972218D01*
X21948247Y-14972218D02*
X21929200Y-14981742D01*
X21929200Y-14981742D02*
X21910152Y-14981742D01*
X21910152Y-14981742D02*
X21891104Y-14972218D01*
X21891104Y-14972218D02*
X21881581Y-14962695D01*
X21881581Y-14962695D02*
X21872057Y-14943647D01*
X21872057Y-14943647D02*
X21862533Y-14905552D01*
X21862533Y-14905552D02*
X21862533Y-14857933D01*
X21862533Y-14857933D02*
X21872057Y-14819837D01*
X21872057Y-14819837D02*
X21881581Y-14800790D01*
X21881581Y-14800790D02*
X21891104Y-14791266D01*
X21891104Y-14791266D02*
X21910152Y-14781742D01*
X22205390Y-14972218D02*
X22224438Y-14981742D01*
X22224438Y-14981742D02*
X22262533Y-14981742D01*
X22262533Y-14981742D02*
X22281581Y-14972218D01*
X22281581Y-14972218D02*
X22291104Y-14953171D01*
X22291104Y-14953171D02*
X22291104Y-14943647D01*
X22291104Y-14943647D02*
X22281581Y-14924599D01*
X22281581Y-14924599D02*
X22262533Y-14915076D01*
X22262533Y-14915076D02*
X22233962Y-14915076D01*
X22233962Y-14915076D02*
X22214914Y-14905552D01*
X22214914Y-14905552D02*
X22205390Y-14886504D01*
X22205390Y-14886504D02*
X22205390Y-14876980D01*
X22205390Y-14876980D02*
X22214914Y-14857933D01*
X22214914Y-14857933D02*
X22233962Y-14848409D01*
X22233962Y-14848409D02*
X22262533Y-14848409D01*
X22262533Y-14848409D02*
X22281581Y-14857933D01*
X22405390Y-14981742D02*
X22386342Y-14972218D01*
X22386342Y-14972218D02*
X22376819Y-14953171D01*
X22376819Y-14953171D02*
X22376819Y-14781742D01*
X22510152Y-14981742D02*
X22491104Y-14972218D01*
X22491104Y-14972218D02*
X22481581Y-14962695D01*
X22481581Y-14962695D02*
X22472057Y-14943647D01*
X22472057Y-14943647D02*
X22472057Y-14886504D01*
X22472057Y-14886504D02*
X22481581Y-14867456D01*
X22481581Y-14867456D02*
X22491104Y-14857933D01*
X22491104Y-14857933D02*
X22510152Y-14848409D01*
X22510152Y-14848409D02*
X22538723Y-14848409D01*
X22538723Y-14848409D02*
X22557771Y-14857933D01*
X22557771Y-14857933D02*
X22567295Y-14867456D01*
X22567295Y-14867456D02*
X22576819Y-14886504D01*
X22576819Y-14886504D02*
X22576819Y-14943647D01*
X22576819Y-14943647D02*
X22567295Y-14962695D01*
X22567295Y-14962695D02*
X22557771Y-14972218D01*
X22557771Y-14972218D02*
X22538723Y-14981742D01*
X22538723Y-14981742D02*
X22510152Y-14981742D01*
X22633962Y-14848409D02*
X22710152Y-14848409D01*
X22662533Y-14781742D02*
X22662533Y-14953171D01*
X22662533Y-14953171D02*
X22672057Y-14972218D01*
X22672057Y-14972218D02*
X22691104Y-14981742D01*
X22691104Y-14981742D02*
X22710152Y-14981742D01*
X22767295Y-14972218D02*
X22786342Y-14981742D01*
X22786342Y-14981742D02*
X22824438Y-14981742D01*
X22824438Y-14981742D02*
X22843485Y-14972218D01*
X22843485Y-14972218D02*
X22853009Y-14953171D01*
X22853009Y-14953171D02*
X22853009Y-14943647D01*
X22853009Y-14943647D02*
X22843485Y-14924599D01*
X22843485Y-14924599D02*
X22824438Y-14915076D01*
X22824438Y-14915076D02*
X22795866Y-14915076D01*
X22795866Y-14915076D02*
X22776819Y-14905552D01*
X22776819Y-14905552D02*
X22767295Y-14886504D01*
X22767295Y-14886504D02*
X22767295Y-14876980D01*
X22767295Y-14876980D02*
X22776819Y-14857933D01*
X22776819Y-14857933D02*
X22795866Y-14848409D01*
X22795866Y-14848409D02*
X22824438Y-14848409D01*
X22824438Y-14848409D02*
X22843485Y-14857933D01*
X22919676Y-15057933D02*
X22929200Y-15048409D01*
X22929200Y-15048409D02*
X22948247Y-15019837D01*
X22948247Y-15019837D02*
X22957771Y-15000790D01*
X22957771Y-15000790D02*
X22967295Y-14972218D01*
X22967295Y-14972218D02*
X22976819Y-14924599D01*
X22976819Y-14924599D02*
X22976819Y-14886504D01*
X22976819Y-14886504D02*
X22967295Y-14838885D01*
X22967295Y-14838885D02*
X22957771Y-14810314D01*
X22957771Y-14810314D02*
X22948247Y-14791266D01*
X22948247Y-14791266D02*
X22929200Y-14762695D01*
X22929200Y-14762695D02*
X22919676Y-14753171D01*
D10*
X16320445Y-15189614D02*
X16320445Y-15118903D01*
X16249733Y-15118903D01*
X16249733Y-15189614D01*
X16320445Y-15189614D01*
D11*
X16700628Y-15245742D02*
X16586342Y-15245742D01*
X16643485Y-15245742D02*
X16643485Y-15045742D01*
X16643485Y-15045742D02*
X16624437Y-15074314D01*
X16624437Y-15074314D02*
X16605389Y-15093361D01*
X16605389Y-15093361D02*
X16586342Y-15102885D01*
X16786342Y-15226695D02*
X16795866Y-15236218D01*
X16795866Y-15236218D02*
X16786342Y-15245742D01*
X16786342Y-15245742D02*
X16776818Y-15236218D01*
X16776818Y-15236218D02*
X16786342Y-15226695D01*
X16786342Y-15226695D02*
X16786342Y-15245742D01*
X16919675Y-15045742D02*
X16938723Y-15045742D01*
X16938723Y-15045742D02*
X16957771Y-15055266D01*
X16957771Y-15055266D02*
X16967294Y-15064790D01*
X16967294Y-15064790D02*
X16976818Y-15083837D01*
X16976818Y-15083837D02*
X16986342Y-15121933D01*
X16986342Y-15121933D02*
X16986342Y-15169552D01*
X16986342Y-15169552D02*
X16976818Y-15207647D01*
X16976818Y-15207647D02*
X16967294Y-15226695D01*
X16967294Y-15226695D02*
X16957771Y-15236218D01*
X16957771Y-15236218D02*
X16938723Y-15245742D01*
X16938723Y-15245742D02*
X16919675Y-15245742D01*
X16919675Y-15245742D02*
X16900628Y-15236218D01*
X16900628Y-15236218D02*
X16891104Y-15226695D01*
X16891104Y-15226695D02*
X16881580Y-15207647D01*
X16881580Y-15207647D02*
X16872056Y-15169552D01*
X16872056Y-15169552D02*
X16872056Y-15121933D01*
X16872056Y-15121933D02*
X16881580Y-15083837D01*
X16881580Y-15083837D02*
X16891104Y-15064790D01*
X16891104Y-15064790D02*
X16900628Y-15055266D01*
X16900628Y-15055266D02*
X16919675Y-15045742D01*
X17110151Y-15045742D02*
X17129199Y-15045742D01*
X17129199Y-15045742D02*
X17148247Y-15055266D01*
X17148247Y-15055266D02*
X17157771Y-15064790D01*
X17157771Y-15064790D02*
X17167294Y-15083837D01*
X17167294Y-15083837D02*
X17176818Y-15121933D01*
X17176818Y-15121933D02*
X17176818Y-15169552D01*
X17176818Y-15169552D02*
X17167294Y-15207647D01*
X17167294Y-15207647D02*
X17157771Y-15226695D01*
X17157771Y-15226695D02*
X17148247Y-15236218D01*
X17148247Y-15236218D02*
X17129199Y-15245742D01*
X17129199Y-15245742D02*
X17110151Y-15245742D01*
X17110151Y-15245742D02*
X17091104Y-15236218D01*
X17091104Y-15236218D02*
X17081580Y-15226695D01*
X17081580Y-15226695D02*
X17072056Y-15207647D01*
X17072056Y-15207647D02*
X17062532Y-15169552D01*
X17062532Y-15169552D02*
X17062532Y-15121933D01*
X17062532Y-15121933D02*
X17072056Y-15083837D01*
X17072056Y-15083837D02*
X17081580Y-15064790D01*
X17081580Y-15064790D02*
X17091104Y-15055266D01*
X17091104Y-15055266D02*
X17110151Y-15045742D01*
X17300628Y-15045742D02*
X17319675Y-15045742D01*
X17319675Y-15045742D02*
X17338723Y-15055266D01*
X17338723Y-15055266D02*
X17348247Y-15064790D01*
X17348247Y-15064790D02*
X17357771Y-15083837D01*
X17357771Y-15083837D02*
X17367294Y-15121933D01*
X17367294Y-15121933D02*
X17367294Y-15169552D01*
X17367294Y-15169552D02*
X17357771Y-15207647D01*
X17357771Y-15207647D02*
X17348247Y-15226695D01*
X17348247Y-15226695D02*
X17338723Y-15236218D01*
X17338723Y-15236218D02*
X17319675Y-15245742D01*
X17319675Y-15245742D02*
X17300628Y-15245742D01*
X17300628Y-15245742D02*
X17281580Y-15236218D01*
X17281580Y-15236218D02*
X17272056Y-15226695D01*
X17272056Y-15226695D02*
X17262532Y-15207647D01*
X17262532Y-15207647D02*
X17253009Y-15169552D01*
X17253009Y-15169552D02*
X17253009Y-15121933D01*
X17253009Y-15121933D02*
X17262532Y-15083837D01*
X17262532Y-15083837D02*
X17272056Y-15064790D01*
X17272056Y-15064790D02*
X17281580Y-15055266D01*
X17281580Y-15055266D02*
X17300628Y-15045742D01*
X17453009Y-15245742D02*
X17453009Y-15112409D01*
X17453009Y-15131456D02*
X17462532Y-15121933D01*
X17462532Y-15121933D02*
X17481580Y-15112409D01*
X17481580Y-15112409D02*
X17510152Y-15112409D01*
X17510152Y-15112409D02*
X17529199Y-15121933D01*
X17529199Y-15121933D02*
X17538723Y-15140980D01*
X17538723Y-15140980D02*
X17538723Y-15245742D01*
X17538723Y-15140980D02*
X17548247Y-15121933D01*
X17548247Y-15121933D02*
X17567294Y-15112409D01*
X17567294Y-15112409D02*
X17595866Y-15112409D01*
X17595866Y-15112409D02*
X17614913Y-15121933D01*
X17614913Y-15121933D02*
X17624437Y-15140980D01*
X17624437Y-15140980D02*
X17624437Y-15245742D01*
X17719675Y-15245742D02*
X17719675Y-15112409D01*
X17719675Y-15131456D02*
X17729199Y-15121933D01*
X17729199Y-15121933D02*
X17748247Y-15112409D01*
X17748247Y-15112409D02*
X17776818Y-15112409D01*
X17776818Y-15112409D02*
X17795866Y-15121933D01*
X17795866Y-15121933D02*
X17805390Y-15140980D01*
X17805390Y-15140980D02*
X17805390Y-15245742D01*
X17805390Y-15140980D02*
X17814913Y-15121933D01*
X17814913Y-15121933D02*
X17833961Y-15112409D01*
X17833961Y-15112409D02*
X17862532Y-15112409D01*
X17862532Y-15112409D02*
X17881580Y-15121933D01*
X17881580Y-15121933D02*
X17891104Y-15140980D01*
X17891104Y-15140980D02*
X17891104Y-15245742D01*
X18281580Y-15036218D02*
X18110152Y-15293361D01*
X18538723Y-15045742D02*
X18557771Y-15045742D01*
X18557771Y-15045742D02*
X18576818Y-15055266D01*
X18576818Y-15055266D02*
X18586342Y-15064790D01*
X18586342Y-15064790D02*
X18595866Y-15083837D01*
X18595866Y-15083837D02*
X18605390Y-15121933D01*
X18605390Y-15121933D02*
X18605390Y-15169552D01*
X18605390Y-15169552D02*
X18595866Y-15207647D01*
X18595866Y-15207647D02*
X18586342Y-15226695D01*
X18586342Y-15226695D02*
X18576818Y-15236218D01*
X18576818Y-15236218D02*
X18557771Y-15245742D01*
X18557771Y-15245742D02*
X18538723Y-15245742D01*
X18538723Y-15245742D02*
X18519675Y-15236218D01*
X18519675Y-15236218D02*
X18510152Y-15226695D01*
X18510152Y-15226695D02*
X18500628Y-15207647D01*
X18500628Y-15207647D02*
X18491104Y-15169552D01*
X18491104Y-15169552D02*
X18491104Y-15121933D01*
X18491104Y-15121933D02*
X18500628Y-15083837D01*
X18500628Y-15083837D02*
X18510152Y-15064790D01*
X18510152Y-15064790D02*
X18519675Y-15055266D01*
X18519675Y-15055266D02*
X18538723Y-15045742D01*
X18691104Y-15226695D02*
X18700628Y-15236218D01*
X18700628Y-15236218D02*
X18691104Y-15245742D01*
X18691104Y-15245742D02*
X18681580Y-15236218D01*
X18681580Y-15236218D02*
X18691104Y-15226695D01*
X18691104Y-15226695D02*
X18691104Y-15245742D01*
X18824437Y-15045742D02*
X18843485Y-15045742D01*
X18843485Y-15045742D02*
X18862533Y-15055266D01*
X18862533Y-15055266D02*
X18872056Y-15064790D01*
X18872056Y-15064790D02*
X18881580Y-15083837D01*
X18881580Y-15083837D02*
X18891104Y-15121933D01*
X18891104Y-15121933D02*
X18891104Y-15169552D01*
X18891104Y-15169552D02*
X18881580Y-15207647D01*
X18881580Y-15207647D02*
X18872056Y-15226695D01*
X18872056Y-15226695D02*
X18862533Y-15236218D01*
X18862533Y-15236218D02*
X18843485Y-15245742D01*
X18843485Y-15245742D02*
X18824437Y-15245742D01*
X18824437Y-15245742D02*
X18805390Y-15236218D01*
X18805390Y-15236218D02*
X18795866Y-15226695D01*
X18795866Y-15226695D02*
X18786342Y-15207647D01*
X18786342Y-15207647D02*
X18776818Y-15169552D01*
X18776818Y-15169552D02*
X18776818Y-15121933D01*
X18776818Y-15121933D02*
X18786342Y-15083837D01*
X18786342Y-15083837D02*
X18795866Y-15064790D01*
X18795866Y-15064790D02*
X18805390Y-15055266D01*
X18805390Y-15055266D02*
X18824437Y-15045742D01*
X18957771Y-15045742D02*
X19081580Y-15045742D01*
X19081580Y-15045742D02*
X19014914Y-15121933D01*
X19014914Y-15121933D02*
X19043485Y-15121933D01*
X19043485Y-15121933D02*
X19062533Y-15131456D01*
X19062533Y-15131456D02*
X19072056Y-15140980D01*
X19072056Y-15140980D02*
X19081580Y-15160028D01*
X19081580Y-15160028D02*
X19081580Y-15207647D01*
X19081580Y-15207647D02*
X19072056Y-15226695D01*
X19072056Y-15226695D02*
X19062533Y-15236218D01*
X19062533Y-15236218D02*
X19043485Y-15245742D01*
X19043485Y-15245742D02*
X18986342Y-15245742D01*
X18986342Y-15245742D02*
X18967295Y-15236218D01*
X18967295Y-15236218D02*
X18957771Y-15226695D01*
X19176818Y-15245742D02*
X19214914Y-15245742D01*
X19214914Y-15245742D02*
X19233961Y-15236218D01*
X19233961Y-15236218D02*
X19243485Y-15226695D01*
X19243485Y-15226695D02*
X19262533Y-15198123D01*
X19262533Y-15198123D02*
X19272056Y-15160028D01*
X19272056Y-15160028D02*
X19272056Y-15083837D01*
X19272056Y-15083837D02*
X19262533Y-15064790D01*
X19262533Y-15064790D02*
X19253009Y-15055266D01*
X19253009Y-15055266D02*
X19233961Y-15045742D01*
X19233961Y-15045742D02*
X19195866Y-15045742D01*
X19195866Y-15045742D02*
X19176818Y-15055266D01*
X19176818Y-15055266D02*
X19167295Y-15064790D01*
X19167295Y-15064790D02*
X19157771Y-15083837D01*
X19157771Y-15083837D02*
X19157771Y-15131456D01*
X19157771Y-15131456D02*
X19167295Y-15150504D01*
X19167295Y-15150504D02*
X19176818Y-15160028D01*
X19176818Y-15160028D02*
X19195866Y-15169552D01*
X19195866Y-15169552D02*
X19233961Y-15169552D01*
X19233961Y-15169552D02*
X19253009Y-15160028D01*
X19253009Y-15160028D02*
X19262533Y-15150504D01*
X19262533Y-15150504D02*
X19272056Y-15131456D01*
X19443485Y-15112409D02*
X19443485Y-15245742D01*
X19395866Y-15036218D02*
X19348247Y-15179076D01*
X19348247Y-15179076D02*
X19472056Y-15179076D01*
X19538723Y-15045742D02*
X19538723Y-15083837D01*
X19614914Y-15045742D02*
X19614914Y-15083837D01*
X19910152Y-15321933D02*
X19900628Y-15312409D01*
X19900628Y-15312409D02*
X19881580Y-15283837D01*
X19881580Y-15283837D02*
X19872057Y-15264790D01*
X19872057Y-15264790D02*
X19862533Y-15236218D01*
X19862533Y-15236218D02*
X19853009Y-15188599D01*
X19853009Y-15188599D02*
X19853009Y-15150504D01*
X19853009Y-15150504D02*
X19862533Y-15102885D01*
X19862533Y-15102885D02*
X19872057Y-15074314D01*
X19872057Y-15074314D02*
X19881580Y-15055266D01*
X19881580Y-15055266D02*
X19900628Y-15026695D01*
X19900628Y-15026695D02*
X19910152Y-15017171D01*
X20081580Y-15045742D02*
X19986342Y-15045742D01*
X19986342Y-15045742D02*
X19976818Y-15140980D01*
X19976818Y-15140980D02*
X19986342Y-15131456D01*
X19986342Y-15131456D02*
X20005390Y-15121933D01*
X20005390Y-15121933D02*
X20053009Y-15121933D01*
X20053009Y-15121933D02*
X20072057Y-15131456D01*
X20072057Y-15131456D02*
X20081580Y-15140980D01*
X20081580Y-15140980D02*
X20091104Y-15160028D01*
X20091104Y-15160028D02*
X20091104Y-15207647D01*
X20091104Y-15207647D02*
X20081580Y-15226695D01*
X20081580Y-15226695D02*
X20072057Y-15236218D01*
X20072057Y-15236218D02*
X20053009Y-15245742D01*
X20053009Y-15245742D02*
X20005390Y-15245742D01*
X20005390Y-15245742D02*
X19986342Y-15236218D01*
X19986342Y-15236218D02*
X19976818Y-15226695D01*
X20167295Y-15064790D02*
X20176818Y-15055266D01*
X20176818Y-15055266D02*
X20195866Y-15045742D01*
X20195866Y-15045742D02*
X20243485Y-15045742D01*
X20243485Y-15045742D02*
X20262533Y-15055266D01*
X20262533Y-15055266D02*
X20272057Y-15064790D01*
X20272057Y-15064790D02*
X20281580Y-15083837D01*
X20281580Y-15083837D02*
X20281580Y-15102885D01*
X20281580Y-15102885D02*
X20272057Y-15131456D01*
X20272057Y-15131456D02*
X20157771Y-15245742D01*
X20157771Y-15245742D02*
X20281580Y-15245742D01*
X20519676Y-15245742D02*
X20519676Y-15045742D01*
X20605390Y-15245742D02*
X20605390Y-15140980D01*
X20605390Y-15140980D02*
X20595866Y-15121933D01*
X20595866Y-15121933D02*
X20576819Y-15112409D01*
X20576819Y-15112409D02*
X20548247Y-15112409D01*
X20548247Y-15112409D02*
X20529199Y-15121933D01*
X20529199Y-15121933D02*
X20519676Y-15131456D01*
X20729199Y-15245742D02*
X20710152Y-15236218D01*
X20710152Y-15236218D02*
X20700628Y-15226695D01*
X20700628Y-15226695D02*
X20691104Y-15207647D01*
X20691104Y-15207647D02*
X20691104Y-15150504D01*
X20691104Y-15150504D02*
X20700628Y-15131456D01*
X20700628Y-15131456D02*
X20710152Y-15121933D01*
X20710152Y-15121933D02*
X20729199Y-15112409D01*
X20729199Y-15112409D02*
X20757771Y-15112409D01*
X20757771Y-15112409D02*
X20776819Y-15121933D01*
X20776819Y-15121933D02*
X20786342Y-15131456D01*
X20786342Y-15131456D02*
X20795866Y-15150504D01*
X20795866Y-15150504D02*
X20795866Y-15207647D01*
X20795866Y-15207647D02*
X20786342Y-15226695D01*
X20786342Y-15226695D02*
X20776819Y-15236218D01*
X20776819Y-15236218D02*
X20757771Y-15245742D01*
X20757771Y-15245742D02*
X20729199Y-15245742D01*
X20910152Y-15245742D02*
X20891104Y-15236218D01*
X20891104Y-15236218D02*
X20881580Y-15217171D01*
X20881580Y-15217171D02*
X20881580Y-15045742D01*
X21062533Y-15236218D02*
X21043485Y-15245742D01*
X21043485Y-15245742D02*
X21005390Y-15245742D01*
X21005390Y-15245742D02*
X20986342Y-15236218D01*
X20986342Y-15236218D02*
X20976819Y-15217171D01*
X20976819Y-15217171D02*
X20976819Y-15140980D01*
X20976819Y-15140980D02*
X20986342Y-15121933D01*
X20986342Y-15121933D02*
X21005390Y-15112409D01*
X21005390Y-15112409D02*
X21043485Y-15112409D01*
X21043485Y-15112409D02*
X21062533Y-15121933D01*
X21062533Y-15121933D02*
X21072057Y-15140980D01*
X21072057Y-15140980D02*
X21072057Y-15160028D01*
X21072057Y-15160028D02*
X20976819Y-15179076D01*
X21148247Y-15236218D02*
X21167295Y-15245742D01*
X21167295Y-15245742D02*
X21205390Y-15245742D01*
X21205390Y-15245742D02*
X21224438Y-15236218D01*
X21224438Y-15236218D02*
X21233961Y-15217171D01*
X21233961Y-15217171D02*
X21233961Y-15207647D01*
X21233961Y-15207647D02*
X21224438Y-15188599D01*
X21224438Y-15188599D02*
X21205390Y-15179076D01*
X21205390Y-15179076D02*
X21176819Y-15179076D01*
X21176819Y-15179076D02*
X21157771Y-15169552D01*
X21157771Y-15169552D02*
X21148247Y-15150504D01*
X21148247Y-15150504D02*
X21148247Y-15140980D01*
X21148247Y-15140980D02*
X21157771Y-15121933D01*
X21157771Y-15121933D02*
X21176819Y-15112409D01*
X21176819Y-15112409D02*
X21205390Y-15112409D01*
X21205390Y-15112409D02*
X21224438Y-15121933D01*
X21300628Y-15321933D02*
X21310152Y-15312409D01*
X21310152Y-15312409D02*
X21329200Y-15283837D01*
X21329200Y-15283837D02*
X21338723Y-15264790D01*
X21338723Y-15264790D02*
X21348247Y-15236218D01*
X21348247Y-15236218D02*
X21357771Y-15188599D01*
X21357771Y-15188599D02*
X21357771Y-15150504D01*
X21357771Y-15150504D02*
X21348247Y-15102885D01*
X21348247Y-15102885D02*
X21338723Y-15074314D01*
X21338723Y-15074314D02*
X21329200Y-15055266D01*
X21329200Y-15055266D02*
X21310152Y-15026695D01*
X21310152Y-15026695D02*
X21300628Y-15017171D01*
D15*
X16280479Y-15472868D02*
X16335089Y-15418258D01*
X16280479Y-15363648D01*
X16225869Y-15418258D01*
X16280479Y-15472868D01*
D11*
X16700628Y-15509742D02*
X16586342Y-15509742D01*
X16643485Y-15509742D02*
X16643485Y-15309742D01*
X16643485Y-15309742D02*
X16624437Y-15338314D01*
X16624437Y-15338314D02*
X16605389Y-15357361D01*
X16605389Y-15357361D02*
X16586342Y-15366885D01*
X16786342Y-15490695D02*
X16795866Y-15500218D01*
X16795866Y-15500218D02*
X16786342Y-15509742D01*
X16786342Y-15509742D02*
X16776818Y-15500218D01*
X16776818Y-15500218D02*
X16786342Y-15490695D01*
X16786342Y-15490695D02*
X16786342Y-15509742D01*
X16919675Y-15309742D02*
X16938723Y-15309742D01*
X16938723Y-15309742D02*
X16957771Y-15319266D01*
X16957771Y-15319266D02*
X16967294Y-15328790D01*
X16967294Y-15328790D02*
X16976818Y-15347837D01*
X16976818Y-15347837D02*
X16986342Y-15385933D01*
X16986342Y-15385933D02*
X16986342Y-15433552D01*
X16986342Y-15433552D02*
X16976818Y-15471647D01*
X16976818Y-15471647D02*
X16967294Y-15490695D01*
X16967294Y-15490695D02*
X16957771Y-15500218D01*
X16957771Y-15500218D02*
X16938723Y-15509742D01*
X16938723Y-15509742D02*
X16919675Y-15509742D01*
X16919675Y-15509742D02*
X16900628Y-15500218D01*
X16900628Y-15500218D02*
X16891104Y-15490695D01*
X16891104Y-15490695D02*
X16881580Y-15471647D01*
X16881580Y-15471647D02*
X16872056Y-15433552D01*
X16872056Y-15433552D02*
X16872056Y-15385933D01*
X16872056Y-15385933D02*
X16881580Y-15347837D01*
X16881580Y-15347837D02*
X16891104Y-15328790D01*
X16891104Y-15328790D02*
X16900628Y-15319266D01*
X16900628Y-15319266D02*
X16919675Y-15309742D01*
X17081580Y-15509742D02*
X17119675Y-15509742D01*
X17119675Y-15509742D02*
X17138723Y-15500218D01*
X17138723Y-15500218D02*
X17148247Y-15490695D01*
X17148247Y-15490695D02*
X17167294Y-15462123D01*
X17167294Y-15462123D02*
X17176818Y-15424028D01*
X17176818Y-15424028D02*
X17176818Y-15347837D01*
X17176818Y-15347837D02*
X17167294Y-15328790D01*
X17167294Y-15328790D02*
X17157771Y-15319266D01*
X17157771Y-15319266D02*
X17138723Y-15309742D01*
X17138723Y-15309742D02*
X17100628Y-15309742D01*
X17100628Y-15309742D02*
X17081580Y-15319266D01*
X17081580Y-15319266D02*
X17072056Y-15328790D01*
X17072056Y-15328790D02*
X17062532Y-15347837D01*
X17062532Y-15347837D02*
X17062532Y-15395456D01*
X17062532Y-15395456D02*
X17072056Y-15414504D01*
X17072056Y-15414504D02*
X17081580Y-15424028D01*
X17081580Y-15424028D02*
X17100628Y-15433552D01*
X17100628Y-15433552D02*
X17138723Y-15433552D01*
X17138723Y-15433552D02*
X17157771Y-15424028D01*
X17157771Y-15424028D02*
X17167294Y-15414504D01*
X17167294Y-15414504D02*
X17176818Y-15395456D01*
X17253009Y-15328790D02*
X17262532Y-15319266D01*
X17262532Y-15319266D02*
X17281580Y-15309742D01*
X17281580Y-15309742D02*
X17329199Y-15309742D01*
X17329199Y-15309742D02*
X17348247Y-15319266D01*
X17348247Y-15319266D02*
X17357771Y-15328790D01*
X17357771Y-15328790D02*
X17367294Y-15347837D01*
X17367294Y-15347837D02*
X17367294Y-15366885D01*
X17367294Y-15366885D02*
X17357771Y-15395456D01*
X17357771Y-15395456D02*
X17243485Y-15509742D01*
X17243485Y-15509742D02*
X17367294Y-15509742D01*
X17453009Y-15509742D02*
X17453009Y-15376409D01*
X17453009Y-15395456D02*
X17462532Y-15385933D01*
X17462532Y-15385933D02*
X17481580Y-15376409D01*
X17481580Y-15376409D02*
X17510152Y-15376409D01*
X17510152Y-15376409D02*
X17529199Y-15385933D01*
X17529199Y-15385933D02*
X17538723Y-15404980D01*
X17538723Y-15404980D02*
X17538723Y-15509742D01*
X17538723Y-15404980D02*
X17548247Y-15385933D01*
X17548247Y-15385933D02*
X17567294Y-15376409D01*
X17567294Y-15376409D02*
X17595866Y-15376409D01*
X17595866Y-15376409D02*
X17614913Y-15385933D01*
X17614913Y-15385933D02*
X17624437Y-15404980D01*
X17624437Y-15404980D02*
X17624437Y-15509742D01*
X17719675Y-15509742D02*
X17719675Y-15376409D01*
X17719675Y-15395456D02*
X17729199Y-15385933D01*
X17729199Y-15385933D02*
X17748247Y-15376409D01*
X17748247Y-15376409D02*
X17776818Y-15376409D01*
X17776818Y-15376409D02*
X17795866Y-15385933D01*
X17795866Y-15385933D02*
X17805390Y-15404980D01*
X17805390Y-15404980D02*
X17805390Y-15509742D01*
X17805390Y-15404980D02*
X17814913Y-15385933D01*
X17814913Y-15385933D02*
X17833961Y-15376409D01*
X17833961Y-15376409D02*
X17862532Y-15376409D01*
X17862532Y-15376409D02*
X17881580Y-15385933D01*
X17881580Y-15385933D02*
X17891104Y-15404980D01*
X17891104Y-15404980D02*
X17891104Y-15509742D01*
X18281580Y-15300218D02*
X18110152Y-15557361D01*
X18538723Y-15309742D02*
X18557771Y-15309742D01*
X18557771Y-15309742D02*
X18576818Y-15319266D01*
X18576818Y-15319266D02*
X18586342Y-15328790D01*
X18586342Y-15328790D02*
X18595866Y-15347837D01*
X18595866Y-15347837D02*
X18605390Y-15385933D01*
X18605390Y-15385933D02*
X18605390Y-15433552D01*
X18605390Y-15433552D02*
X18595866Y-15471647D01*
X18595866Y-15471647D02*
X18586342Y-15490695D01*
X18586342Y-15490695D02*
X18576818Y-15500218D01*
X18576818Y-15500218D02*
X18557771Y-15509742D01*
X18557771Y-15509742D02*
X18538723Y-15509742D01*
X18538723Y-15509742D02*
X18519675Y-15500218D01*
X18519675Y-15500218D02*
X18510152Y-15490695D01*
X18510152Y-15490695D02*
X18500628Y-15471647D01*
X18500628Y-15471647D02*
X18491104Y-15433552D01*
X18491104Y-15433552D02*
X18491104Y-15385933D01*
X18491104Y-15385933D02*
X18500628Y-15347837D01*
X18500628Y-15347837D02*
X18510152Y-15328790D01*
X18510152Y-15328790D02*
X18519675Y-15319266D01*
X18519675Y-15319266D02*
X18538723Y-15309742D01*
X18691104Y-15490695D02*
X18700628Y-15500218D01*
X18700628Y-15500218D02*
X18691104Y-15509742D01*
X18691104Y-15509742D02*
X18681580Y-15500218D01*
X18681580Y-15500218D02*
X18691104Y-15490695D01*
X18691104Y-15490695D02*
X18691104Y-15509742D01*
X18824437Y-15309742D02*
X18843485Y-15309742D01*
X18843485Y-15309742D02*
X18862533Y-15319266D01*
X18862533Y-15319266D02*
X18872056Y-15328790D01*
X18872056Y-15328790D02*
X18881580Y-15347837D01*
X18881580Y-15347837D02*
X18891104Y-15385933D01*
X18891104Y-15385933D02*
X18891104Y-15433552D01*
X18891104Y-15433552D02*
X18881580Y-15471647D01*
X18881580Y-15471647D02*
X18872056Y-15490695D01*
X18872056Y-15490695D02*
X18862533Y-15500218D01*
X18862533Y-15500218D02*
X18843485Y-15509742D01*
X18843485Y-15509742D02*
X18824437Y-15509742D01*
X18824437Y-15509742D02*
X18805390Y-15500218D01*
X18805390Y-15500218D02*
X18795866Y-15490695D01*
X18795866Y-15490695D02*
X18786342Y-15471647D01*
X18786342Y-15471647D02*
X18776818Y-15433552D01*
X18776818Y-15433552D02*
X18776818Y-15385933D01*
X18776818Y-15385933D02*
X18786342Y-15347837D01*
X18786342Y-15347837D02*
X18795866Y-15328790D01*
X18795866Y-15328790D02*
X18805390Y-15319266D01*
X18805390Y-15319266D02*
X18824437Y-15309742D01*
X19062533Y-15376409D02*
X19062533Y-15509742D01*
X19014914Y-15300218D02*
X18967295Y-15443076D01*
X18967295Y-15443076D02*
X19091104Y-15443076D01*
X19148247Y-15309742D02*
X19272056Y-15309742D01*
X19272056Y-15309742D02*
X19205390Y-15385933D01*
X19205390Y-15385933D02*
X19233961Y-15385933D01*
X19233961Y-15385933D02*
X19253009Y-15395456D01*
X19253009Y-15395456D02*
X19262533Y-15404980D01*
X19262533Y-15404980D02*
X19272056Y-15424028D01*
X19272056Y-15424028D02*
X19272056Y-15471647D01*
X19272056Y-15471647D02*
X19262533Y-15490695D01*
X19262533Y-15490695D02*
X19253009Y-15500218D01*
X19253009Y-15500218D02*
X19233961Y-15509742D01*
X19233961Y-15509742D02*
X19176818Y-15509742D01*
X19176818Y-15509742D02*
X19157771Y-15500218D01*
X19157771Y-15500218D02*
X19148247Y-15490695D01*
X19395866Y-15309742D02*
X19414914Y-15309742D01*
X19414914Y-15309742D02*
X19433961Y-15319266D01*
X19433961Y-15319266D02*
X19443485Y-15328790D01*
X19443485Y-15328790D02*
X19453009Y-15347837D01*
X19453009Y-15347837D02*
X19462533Y-15385933D01*
X19462533Y-15385933D02*
X19462533Y-15433552D01*
X19462533Y-15433552D02*
X19453009Y-15471647D01*
X19453009Y-15471647D02*
X19443485Y-15490695D01*
X19443485Y-15490695D02*
X19433961Y-15500218D01*
X19433961Y-15500218D02*
X19414914Y-15509742D01*
X19414914Y-15509742D02*
X19395866Y-15509742D01*
X19395866Y-15509742D02*
X19376818Y-15500218D01*
X19376818Y-15500218D02*
X19367295Y-15490695D01*
X19367295Y-15490695D02*
X19357771Y-15471647D01*
X19357771Y-15471647D02*
X19348247Y-15433552D01*
X19348247Y-15433552D02*
X19348247Y-15385933D01*
X19348247Y-15385933D02*
X19357771Y-15347837D01*
X19357771Y-15347837D02*
X19367295Y-15328790D01*
X19367295Y-15328790D02*
X19376818Y-15319266D01*
X19376818Y-15319266D02*
X19395866Y-15309742D01*
X19538723Y-15309742D02*
X19538723Y-15347837D01*
X19614914Y-15309742D02*
X19614914Y-15347837D01*
X19910152Y-15585933D02*
X19900628Y-15576409D01*
X19900628Y-15576409D02*
X19881580Y-15547837D01*
X19881580Y-15547837D02*
X19872057Y-15528790D01*
X19872057Y-15528790D02*
X19862533Y-15500218D01*
X19862533Y-15500218D02*
X19853009Y-15452599D01*
X19853009Y-15452599D02*
X19853009Y-15414504D01*
X19853009Y-15414504D02*
X19862533Y-15366885D01*
X19862533Y-15366885D02*
X19872057Y-15338314D01*
X19872057Y-15338314D02*
X19881580Y-15319266D01*
X19881580Y-15319266D02*
X19900628Y-15290695D01*
X19900628Y-15290695D02*
X19910152Y-15281171D01*
X20081580Y-15309742D02*
X19986342Y-15309742D01*
X19986342Y-15309742D02*
X19976818Y-15404980D01*
X19976818Y-15404980D02*
X19986342Y-15395456D01*
X19986342Y-15395456D02*
X20005390Y-15385933D01*
X20005390Y-15385933D02*
X20053009Y-15385933D01*
X20053009Y-15385933D02*
X20072057Y-15395456D01*
X20072057Y-15395456D02*
X20081580Y-15404980D01*
X20081580Y-15404980D02*
X20091104Y-15424028D01*
X20091104Y-15424028D02*
X20091104Y-15471647D01*
X20091104Y-15471647D02*
X20081580Y-15490695D01*
X20081580Y-15490695D02*
X20072057Y-15500218D01*
X20072057Y-15500218D02*
X20053009Y-15509742D01*
X20053009Y-15509742D02*
X20005390Y-15509742D01*
X20005390Y-15509742D02*
X19986342Y-15500218D01*
X19986342Y-15500218D02*
X19976818Y-15490695D01*
X20262533Y-15376409D02*
X20262533Y-15509742D01*
X20214914Y-15300218D02*
X20167295Y-15443076D01*
X20167295Y-15443076D02*
X20291104Y-15443076D01*
X20519676Y-15509742D02*
X20519676Y-15309742D01*
X20605390Y-15509742D02*
X20605390Y-15404980D01*
X20605390Y-15404980D02*
X20595866Y-15385933D01*
X20595866Y-15385933D02*
X20576819Y-15376409D01*
X20576819Y-15376409D02*
X20548247Y-15376409D01*
X20548247Y-15376409D02*
X20529199Y-15385933D01*
X20529199Y-15385933D02*
X20519676Y-15395456D01*
X20729199Y-15509742D02*
X20710152Y-15500218D01*
X20710152Y-15500218D02*
X20700628Y-15490695D01*
X20700628Y-15490695D02*
X20691104Y-15471647D01*
X20691104Y-15471647D02*
X20691104Y-15414504D01*
X20691104Y-15414504D02*
X20700628Y-15395456D01*
X20700628Y-15395456D02*
X20710152Y-15385933D01*
X20710152Y-15385933D02*
X20729199Y-15376409D01*
X20729199Y-15376409D02*
X20757771Y-15376409D01*
X20757771Y-15376409D02*
X20776819Y-15385933D01*
X20776819Y-15385933D02*
X20786342Y-15395456D01*
X20786342Y-15395456D02*
X20795866Y-15414504D01*
X20795866Y-15414504D02*
X20795866Y-15471647D01*
X20795866Y-15471647D02*
X20786342Y-15490695D01*
X20786342Y-15490695D02*
X20776819Y-15500218D01*
X20776819Y-15500218D02*
X20757771Y-15509742D01*
X20757771Y-15509742D02*
X20729199Y-15509742D01*
X20910152Y-15509742D02*
X20891104Y-15500218D01*
X20891104Y-15500218D02*
X20881580Y-15481171D01*
X20881580Y-15481171D02*
X20881580Y-15309742D01*
X21062533Y-15500218D02*
X21043485Y-15509742D01*
X21043485Y-15509742D02*
X21005390Y-15509742D01*
X21005390Y-15509742D02*
X20986342Y-15500218D01*
X20986342Y-15500218D02*
X20976819Y-15481171D01*
X20976819Y-15481171D02*
X20976819Y-15404980D01*
X20976819Y-15404980D02*
X20986342Y-15385933D01*
X20986342Y-15385933D02*
X21005390Y-15376409D01*
X21005390Y-15376409D02*
X21043485Y-15376409D01*
X21043485Y-15376409D02*
X21062533Y-15385933D01*
X21062533Y-15385933D02*
X21072057Y-15404980D01*
X21072057Y-15404980D02*
X21072057Y-15424028D01*
X21072057Y-15424028D02*
X20976819Y-15443076D01*
X21148247Y-15500218D02*
X21167295Y-15509742D01*
X21167295Y-15509742D02*
X21205390Y-15509742D01*
X21205390Y-15509742D02*
X21224438Y-15500218D01*
X21224438Y-15500218D02*
X21233961Y-15481171D01*
X21233961Y-15481171D02*
X21233961Y-15471647D01*
X21233961Y-15471647D02*
X21224438Y-15452599D01*
X21224438Y-15452599D02*
X21205390Y-15443076D01*
X21205390Y-15443076D02*
X21176819Y-15443076D01*
X21176819Y-15443076D02*
X21157771Y-15433552D01*
X21157771Y-15433552D02*
X21148247Y-15414504D01*
X21148247Y-15414504D02*
X21148247Y-15404980D01*
X21148247Y-15404980D02*
X21157771Y-15385933D01*
X21157771Y-15385933D02*
X21176819Y-15376409D01*
X21176819Y-15376409D02*
X21205390Y-15376409D01*
X21205390Y-15376409D02*
X21224438Y-15385933D01*
X21300628Y-15585933D02*
X21310152Y-15576409D01*
X21310152Y-15576409D02*
X21329200Y-15547837D01*
X21329200Y-15547837D02*
X21338723Y-15528790D01*
X21338723Y-15528790D02*
X21348247Y-15500218D01*
X21348247Y-15500218D02*
X21357771Y-15452599D01*
X21357771Y-15452599D02*
X21357771Y-15414504D01*
X21357771Y-15414504D02*
X21348247Y-15366885D01*
X21348247Y-15366885D02*
X21338723Y-15338314D01*
X21338723Y-15338314D02*
X21329200Y-15319266D01*
X21329200Y-15319266D02*
X21310152Y-15290695D01*
X21310152Y-15290695D02*
X21300628Y-15281171D01*
D16*
X16205089Y-15617258D02*
X16335089Y-15747258D01*
X16335089Y-15617258D02*
X16205089Y-15747258D01*
X16335089Y-15682258D02*
G75*
G03*
X16335089Y-15682258I-65000J0D01*
G01*
D11*
X16700628Y-15773742D02*
X16586342Y-15773742D01*
X16643485Y-15773742D02*
X16643485Y-15573742D01*
X16643485Y-15573742D02*
X16624437Y-15602314D01*
X16624437Y-15602314D02*
X16605389Y-15621361D01*
X16605389Y-15621361D02*
X16586342Y-15630885D01*
X16786342Y-15754695D02*
X16795866Y-15764218D01*
X16795866Y-15764218D02*
X16786342Y-15773742D01*
X16786342Y-15773742D02*
X16776818Y-15764218D01*
X16776818Y-15764218D02*
X16786342Y-15754695D01*
X16786342Y-15754695D02*
X16786342Y-15773742D01*
X16862532Y-15573742D02*
X16986342Y-15573742D01*
X16986342Y-15573742D02*
X16919675Y-15649933D01*
X16919675Y-15649933D02*
X16948247Y-15649933D01*
X16948247Y-15649933D02*
X16967294Y-15659456D01*
X16967294Y-15659456D02*
X16976818Y-15668980D01*
X16976818Y-15668980D02*
X16986342Y-15688028D01*
X16986342Y-15688028D02*
X16986342Y-15735647D01*
X16986342Y-15735647D02*
X16976818Y-15754695D01*
X16976818Y-15754695D02*
X16967294Y-15764218D01*
X16967294Y-15764218D02*
X16948247Y-15773742D01*
X16948247Y-15773742D02*
X16891104Y-15773742D01*
X16891104Y-15773742D02*
X16872056Y-15764218D01*
X16872056Y-15764218D02*
X16862532Y-15754695D01*
X17110151Y-15573742D02*
X17129199Y-15573742D01*
X17129199Y-15573742D02*
X17148247Y-15583266D01*
X17148247Y-15583266D02*
X17157771Y-15592790D01*
X17157771Y-15592790D02*
X17167294Y-15611837D01*
X17167294Y-15611837D02*
X17176818Y-15649933D01*
X17176818Y-15649933D02*
X17176818Y-15697552D01*
X17176818Y-15697552D02*
X17167294Y-15735647D01*
X17167294Y-15735647D02*
X17157771Y-15754695D01*
X17157771Y-15754695D02*
X17148247Y-15764218D01*
X17148247Y-15764218D02*
X17129199Y-15773742D01*
X17129199Y-15773742D02*
X17110151Y-15773742D01*
X17110151Y-15773742D02*
X17091104Y-15764218D01*
X17091104Y-15764218D02*
X17081580Y-15754695D01*
X17081580Y-15754695D02*
X17072056Y-15735647D01*
X17072056Y-15735647D02*
X17062532Y-15697552D01*
X17062532Y-15697552D02*
X17062532Y-15649933D01*
X17062532Y-15649933D02*
X17072056Y-15611837D01*
X17072056Y-15611837D02*
X17081580Y-15592790D01*
X17081580Y-15592790D02*
X17091104Y-15583266D01*
X17091104Y-15583266D02*
X17110151Y-15573742D01*
X17300628Y-15573742D02*
X17319675Y-15573742D01*
X17319675Y-15573742D02*
X17338723Y-15583266D01*
X17338723Y-15583266D02*
X17348247Y-15592790D01*
X17348247Y-15592790D02*
X17357771Y-15611837D01*
X17357771Y-15611837D02*
X17367294Y-15649933D01*
X17367294Y-15649933D02*
X17367294Y-15697552D01*
X17367294Y-15697552D02*
X17357771Y-15735647D01*
X17357771Y-15735647D02*
X17348247Y-15754695D01*
X17348247Y-15754695D02*
X17338723Y-15764218D01*
X17338723Y-15764218D02*
X17319675Y-15773742D01*
X17319675Y-15773742D02*
X17300628Y-15773742D01*
X17300628Y-15773742D02*
X17281580Y-15764218D01*
X17281580Y-15764218D02*
X17272056Y-15754695D01*
X17272056Y-15754695D02*
X17262532Y-15735647D01*
X17262532Y-15735647D02*
X17253009Y-15697552D01*
X17253009Y-15697552D02*
X17253009Y-15649933D01*
X17253009Y-15649933D02*
X17262532Y-15611837D01*
X17262532Y-15611837D02*
X17272056Y-15592790D01*
X17272056Y-15592790D02*
X17281580Y-15583266D01*
X17281580Y-15583266D02*
X17300628Y-15573742D01*
X17453009Y-15773742D02*
X17453009Y-15640409D01*
X17453009Y-15659456D02*
X17462532Y-15649933D01*
X17462532Y-15649933D02*
X17481580Y-15640409D01*
X17481580Y-15640409D02*
X17510152Y-15640409D01*
X17510152Y-15640409D02*
X17529199Y-15649933D01*
X17529199Y-15649933D02*
X17538723Y-15668980D01*
X17538723Y-15668980D02*
X17538723Y-15773742D01*
X17538723Y-15668980D02*
X17548247Y-15649933D01*
X17548247Y-15649933D02*
X17567294Y-15640409D01*
X17567294Y-15640409D02*
X17595866Y-15640409D01*
X17595866Y-15640409D02*
X17614913Y-15649933D01*
X17614913Y-15649933D02*
X17624437Y-15668980D01*
X17624437Y-15668980D02*
X17624437Y-15773742D01*
X17719675Y-15773742D02*
X17719675Y-15640409D01*
X17719675Y-15659456D02*
X17729199Y-15649933D01*
X17729199Y-15649933D02*
X17748247Y-15640409D01*
X17748247Y-15640409D02*
X17776818Y-15640409D01*
X17776818Y-15640409D02*
X17795866Y-15649933D01*
X17795866Y-15649933D02*
X17805390Y-15668980D01*
X17805390Y-15668980D02*
X17805390Y-15773742D01*
X17805390Y-15668980D02*
X17814913Y-15649933D01*
X17814913Y-15649933D02*
X17833961Y-15640409D01*
X17833961Y-15640409D02*
X17862532Y-15640409D01*
X17862532Y-15640409D02*
X17881580Y-15649933D01*
X17881580Y-15649933D02*
X17891104Y-15668980D01*
X17891104Y-15668980D02*
X17891104Y-15773742D01*
X18281580Y-15564218D02*
X18110152Y-15821361D01*
X18538723Y-15573742D02*
X18557771Y-15573742D01*
X18557771Y-15573742D02*
X18576818Y-15583266D01*
X18576818Y-15583266D02*
X18586342Y-15592790D01*
X18586342Y-15592790D02*
X18595866Y-15611837D01*
X18595866Y-15611837D02*
X18605390Y-15649933D01*
X18605390Y-15649933D02*
X18605390Y-15697552D01*
X18605390Y-15697552D02*
X18595866Y-15735647D01*
X18595866Y-15735647D02*
X18586342Y-15754695D01*
X18586342Y-15754695D02*
X18576818Y-15764218D01*
X18576818Y-15764218D02*
X18557771Y-15773742D01*
X18557771Y-15773742D02*
X18538723Y-15773742D01*
X18538723Y-15773742D02*
X18519675Y-15764218D01*
X18519675Y-15764218D02*
X18510152Y-15754695D01*
X18510152Y-15754695D02*
X18500628Y-15735647D01*
X18500628Y-15735647D02*
X18491104Y-15697552D01*
X18491104Y-15697552D02*
X18491104Y-15649933D01*
X18491104Y-15649933D02*
X18500628Y-15611837D01*
X18500628Y-15611837D02*
X18510152Y-15592790D01*
X18510152Y-15592790D02*
X18519675Y-15583266D01*
X18519675Y-15583266D02*
X18538723Y-15573742D01*
X18691104Y-15754695D02*
X18700628Y-15764218D01*
X18700628Y-15764218D02*
X18691104Y-15773742D01*
X18691104Y-15773742D02*
X18681580Y-15764218D01*
X18681580Y-15764218D02*
X18691104Y-15754695D01*
X18691104Y-15754695D02*
X18691104Y-15773742D01*
X18824437Y-15573742D02*
X18843485Y-15573742D01*
X18843485Y-15573742D02*
X18862533Y-15583266D01*
X18862533Y-15583266D02*
X18872056Y-15592790D01*
X18872056Y-15592790D02*
X18881580Y-15611837D01*
X18881580Y-15611837D02*
X18891104Y-15649933D01*
X18891104Y-15649933D02*
X18891104Y-15697552D01*
X18891104Y-15697552D02*
X18881580Y-15735647D01*
X18881580Y-15735647D02*
X18872056Y-15754695D01*
X18872056Y-15754695D02*
X18862533Y-15764218D01*
X18862533Y-15764218D02*
X18843485Y-15773742D01*
X18843485Y-15773742D02*
X18824437Y-15773742D01*
X18824437Y-15773742D02*
X18805390Y-15764218D01*
X18805390Y-15764218D02*
X18795866Y-15754695D01*
X18795866Y-15754695D02*
X18786342Y-15735647D01*
X18786342Y-15735647D02*
X18776818Y-15697552D01*
X18776818Y-15697552D02*
X18776818Y-15649933D01*
X18776818Y-15649933D02*
X18786342Y-15611837D01*
X18786342Y-15611837D02*
X18795866Y-15592790D01*
X18795866Y-15592790D02*
X18805390Y-15583266D01*
X18805390Y-15583266D02*
X18824437Y-15573742D01*
X19072056Y-15573742D02*
X18976818Y-15573742D01*
X18976818Y-15573742D02*
X18967295Y-15668980D01*
X18967295Y-15668980D02*
X18976818Y-15659456D01*
X18976818Y-15659456D02*
X18995866Y-15649933D01*
X18995866Y-15649933D02*
X19043485Y-15649933D01*
X19043485Y-15649933D02*
X19062533Y-15659456D01*
X19062533Y-15659456D02*
X19072056Y-15668980D01*
X19072056Y-15668980D02*
X19081580Y-15688028D01*
X19081580Y-15688028D02*
X19081580Y-15735647D01*
X19081580Y-15735647D02*
X19072056Y-15754695D01*
X19072056Y-15754695D02*
X19062533Y-15764218D01*
X19062533Y-15764218D02*
X19043485Y-15773742D01*
X19043485Y-15773742D02*
X18995866Y-15773742D01*
X18995866Y-15773742D02*
X18976818Y-15764218D01*
X18976818Y-15764218D02*
X18967295Y-15754695D01*
X19272056Y-15773742D02*
X19157771Y-15773742D01*
X19214914Y-15773742D02*
X19214914Y-15573742D01*
X19214914Y-15573742D02*
X19195866Y-15602314D01*
X19195866Y-15602314D02*
X19176818Y-15621361D01*
X19176818Y-15621361D02*
X19157771Y-15630885D01*
X19348247Y-15592790D02*
X19357771Y-15583266D01*
X19357771Y-15583266D02*
X19376818Y-15573742D01*
X19376818Y-15573742D02*
X19424437Y-15573742D01*
X19424437Y-15573742D02*
X19443485Y-15583266D01*
X19443485Y-15583266D02*
X19453009Y-15592790D01*
X19453009Y-15592790D02*
X19462533Y-15611837D01*
X19462533Y-15611837D02*
X19462533Y-15630885D01*
X19462533Y-15630885D02*
X19453009Y-15659456D01*
X19453009Y-15659456D02*
X19338723Y-15773742D01*
X19338723Y-15773742D02*
X19462533Y-15773742D01*
X19538723Y-15573742D02*
X19538723Y-15611837D01*
X19614914Y-15573742D02*
X19614914Y-15611837D01*
X19910152Y-15849933D02*
X19900628Y-15840409D01*
X19900628Y-15840409D02*
X19881580Y-15811837D01*
X19881580Y-15811837D02*
X19872057Y-15792790D01*
X19872057Y-15792790D02*
X19862533Y-15764218D01*
X19862533Y-15764218D02*
X19853009Y-15716599D01*
X19853009Y-15716599D02*
X19853009Y-15678504D01*
X19853009Y-15678504D02*
X19862533Y-15630885D01*
X19862533Y-15630885D02*
X19872057Y-15602314D01*
X19872057Y-15602314D02*
X19881580Y-15583266D01*
X19881580Y-15583266D02*
X19900628Y-15554695D01*
X19900628Y-15554695D02*
X19910152Y-15545171D01*
X20072057Y-15640409D02*
X20072057Y-15773742D01*
X20024437Y-15564218D02*
X19976818Y-15707076D01*
X19976818Y-15707076D02*
X20100628Y-15707076D01*
X20329199Y-15773742D02*
X20329199Y-15573742D01*
X20414914Y-15773742D02*
X20414914Y-15668980D01*
X20414914Y-15668980D02*
X20405390Y-15649933D01*
X20405390Y-15649933D02*
X20386342Y-15640409D01*
X20386342Y-15640409D02*
X20357771Y-15640409D01*
X20357771Y-15640409D02*
X20338723Y-15649933D01*
X20338723Y-15649933D02*
X20329199Y-15659456D01*
X20538723Y-15773742D02*
X20519676Y-15764218D01*
X20519676Y-15764218D02*
X20510152Y-15754695D01*
X20510152Y-15754695D02*
X20500628Y-15735647D01*
X20500628Y-15735647D02*
X20500628Y-15678504D01*
X20500628Y-15678504D02*
X20510152Y-15659456D01*
X20510152Y-15659456D02*
X20519676Y-15649933D01*
X20519676Y-15649933D02*
X20538723Y-15640409D01*
X20538723Y-15640409D02*
X20567295Y-15640409D01*
X20567295Y-15640409D02*
X20586342Y-15649933D01*
X20586342Y-15649933D02*
X20595866Y-15659456D01*
X20595866Y-15659456D02*
X20605390Y-15678504D01*
X20605390Y-15678504D02*
X20605390Y-15735647D01*
X20605390Y-15735647D02*
X20595866Y-15754695D01*
X20595866Y-15754695D02*
X20586342Y-15764218D01*
X20586342Y-15764218D02*
X20567295Y-15773742D01*
X20567295Y-15773742D02*
X20538723Y-15773742D01*
X20719676Y-15773742D02*
X20700628Y-15764218D01*
X20700628Y-15764218D02*
X20691104Y-15745171D01*
X20691104Y-15745171D02*
X20691104Y-15573742D01*
X20872057Y-15764218D02*
X20853009Y-15773742D01*
X20853009Y-15773742D02*
X20814914Y-15773742D01*
X20814914Y-15773742D02*
X20795866Y-15764218D01*
X20795866Y-15764218D02*
X20786342Y-15745171D01*
X20786342Y-15745171D02*
X20786342Y-15668980D01*
X20786342Y-15668980D02*
X20795866Y-15649933D01*
X20795866Y-15649933D02*
X20814914Y-15640409D01*
X20814914Y-15640409D02*
X20853009Y-15640409D01*
X20853009Y-15640409D02*
X20872057Y-15649933D01*
X20872057Y-15649933D02*
X20881580Y-15668980D01*
X20881580Y-15668980D02*
X20881580Y-15688028D01*
X20881580Y-15688028D02*
X20786342Y-15707076D01*
X20957771Y-15764218D02*
X20976819Y-15773742D01*
X20976819Y-15773742D02*
X21014914Y-15773742D01*
X21014914Y-15773742D02*
X21033961Y-15764218D01*
X21033961Y-15764218D02*
X21043485Y-15745171D01*
X21043485Y-15745171D02*
X21043485Y-15735647D01*
X21043485Y-15735647D02*
X21033961Y-15716599D01*
X21033961Y-15716599D02*
X21014914Y-15707076D01*
X21014914Y-15707076D02*
X20986342Y-15707076D01*
X20986342Y-15707076D02*
X20967295Y-15697552D01*
X20967295Y-15697552D02*
X20957771Y-15678504D01*
X20957771Y-15678504D02*
X20957771Y-15668980D01*
X20957771Y-15668980D02*
X20967295Y-15649933D01*
X20967295Y-15649933D02*
X20986342Y-15640409D01*
X20986342Y-15640409D02*
X21014914Y-15640409D01*
X21014914Y-15640409D02*
X21033961Y-15649933D01*
X21110152Y-15849933D02*
X21119676Y-15840409D01*
X21119676Y-15840409D02*
X21138723Y-15811837D01*
X21138723Y-15811837D02*
X21148247Y-15792790D01*
X21148247Y-15792790D02*
X21157771Y-15764218D01*
X21157771Y-15764218D02*
X21167295Y-15716599D01*
X21167295Y-15716599D02*
X21167295Y-15678504D01*
X21167295Y-15678504D02*
X21157771Y-15630885D01*
X21157771Y-15630885D02*
X21148247Y-15602314D01*
X21148247Y-15602314D02*
X21138723Y-15583266D01*
X21138723Y-15583266D02*
X21119676Y-15554695D01*
X21119676Y-15554695D02*
X21110152Y-15545171D01*
X16135089Y-15846258D02*
X16335089Y-16046258D01*
X16335089Y-15846258D02*
X16135089Y-16046258D01*
X16235089Y-15846258D02*
X16235089Y-16046258D01*
X16135089Y-15946258D02*
X16335089Y-15946258D01*
X16681580Y-15904409D02*
X16681580Y-16037742D01*
X16633961Y-15828218D02*
X16586342Y-15971076D01*
X16586342Y-15971076D02*
X16710151Y-15971076D01*
X16786342Y-16018695D02*
X16795866Y-16028218D01*
X16795866Y-16028218D02*
X16786342Y-16037742D01*
X16786342Y-16037742D02*
X16776818Y-16028218D01*
X16776818Y-16028218D02*
X16786342Y-16018695D01*
X16786342Y-16018695D02*
X16786342Y-16037742D01*
X16919675Y-15837742D02*
X16938723Y-15837742D01*
X16938723Y-15837742D02*
X16957771Y-15847266D01*
X16957771Y-15847266D02*
X16967294Y-15856790D01*
X16967294Y-15856790D02*
X16976818Y-15875837D01*
X16976818Y-15875837D02*
X16986342Y-15913933D01*
X16986342Y-15913933D02*
X16986342Y-15961552D01*
X16986342Y-15961552D02*
X16976818Y-15999647D01*
X16976818Y-15999647D02*
X16967294Y-16018695D01*
X16967294Y-16018695D02*
X16957771Y-16028218D01*
X16957771Y-16028218D02*
X16938723Y-16037742D01*
X16938723Y-16037742D02*
X16919675Y-16037742D01*
X16919675Y-16037742D02*
X16900628Y-16028218D01*
X16900628Y-16028218D02*
X16891104Y-16018695D01*
X16891104Y-16018695D02*
X16881580Y-15999647D01*
X16881580Y-15999647D02*
X16872056Y-15961552D01*
X16872056Y-15961552D02*
X16872056Y-15913933D01*
X16872056Y-15913933D02*
X16881580Y-15875837D01*
X16881580Y-15875837D02*
X16891104Y-15856790D01*
X16891104Y-15856790D02*
X16900628Y-15847266D01*
X16900628Y-15847266D02*
X16919675Y-15837742D01*
X17110151Y-15837742D02*
X17129199Y-15837742D01*
X17129199Y-15837742D02*
X17148247Y-15847266D01*
X17148247Y-15847266D02*
X17157771Y-15856790D01*
X17157771Y-15856790D02*
X17167294Y-15875837D01*
X17167294Y-15875837D02*
X17176818Y-15913933D01*
X17176818Y-15913933D02*
X17176818Y-15961552D01*
X17176818Y-15961552D02*
X17167294Y-15999647D01*
X17167294Y-15999647D02*
X17157771Y-16018695D01*
X17157771Y-16018695D02*
X17148247Y-16028218D01*
X17148247Y-16028218D02*
X17129199Y-16037742D01*
X17129199Y-16037742D02*
X17110151Y-16037742D01*
X17110151Y-16037742D02*
X17091104Y-16028218D01*
X17091104Y-16028218D02*
X17081580Y-16018695D01*
X17081580Y-16018695D02*
X17072056Y-15999647D01*
X17072056Y-15999647D02*
X17062532Y-15961552D01*
X17062532Y-15961552D02*
X17062532Y-15913933D01*
X17062532Y-15913933D02*
X17072056Y-15875837D01*
X17072056Y-15875837D02*
X17081580Y-15856790D01*
X17081580Y-15856790D02*
X17091104Y-15847266D01*
X17091104Y-15847266D02*
X17110151Y-15837742D01*
X17300628Y-15837742D02*
X17319675Y-15837742D01*
X17319675Y-15837742D02*
X17338723Y-15847266D01*
X17338723Y-15847266D02*
X17348247Y-15856790D01*
X17348247Y-15856790D02*
X17357771Y-15875837D01*
X17357771Y-15875837D02*
X17367294Y-15913933D01*
X17367294Y-15913933D02*
X17367294Y-15961552D01*
X17367294Y-15961552D02*
X17357771Y-15999647D01*
X17357771Y-15999647D02*
X17348247Y-16018695D01*
X17348247Y-16018695D02*
X17338723Y-16028218D01*
X17338723Y-16028218D02*
X17319675Y-16037742D01*
X17319675Y-16037742D02*
X17300628Y-16037742D01*
X17300628Y-16037742D02*
X17281580Y-16028218D01*
X17281580Y-16028218D02*
X17272056Y-16018695D01*
X17272056Y-16018695D02*
X17262532Y-15999647D01*
X17262532Y-15999647D02*
X17253009Y-15961552D01*
X17253009Y-15961552D02*
X17253009Y-15913933D01*
X17253009Y-15913933D02*
X17262532Y-15875837D01*
X17262532Y-15875837D02*
X17272056Y-15856790D01*
X17272056Y-15856790D02*
X17281580Y-15847266D01*
X17281580Y-15847266D02*
X17300628Y-15837742D01*
X17453009Y-16037742D02*
X17453009Y-15904409D01*
X17453009Y-15923456D02*
X17462532Y-15913933D01*
X17462532Y-15913933D02*
X17481580Y-15904409D01*
X17481580Y-15904409D02*
X17510152Y-15904409D01*
X17510152Y-15904409D02*
X17529199Y-15913933D01*
X17529199Y-15913933D02*
X17538723Y-15932980D01*
X17538723Y-15932980D02*
X17538723Y-16037742D01*
X17538723Y-15932980D02*
X17548247Y-15913933D01*
X17548247Y-15913933D02*
X17567294Y-15904409D01*
X17567294Y-15904409D02*
X17595866Y-15904409D01*
X17595866Y-15904409D02*
X17614913Y-15913933D01*
X17614913Y-15913933D02*
X17624437Y-15932980D01*
X17624437Y-15932980D02*
X17624437Y-16037742D01*
X17719675Y-16037742D02*
X17719675Y-15904409D01*
X17719675Y-15923456D02*
X17729199Y-15913933D01*
X17729199Y-15913933D02*
X17748247Y-15904409D01*
X17748247Y-15904409D02*
X17776818Y-15904409D01*
X17776818Y-15904409D02*
X17795866Y-15913933D01*
X17795866Y-15913933D02*
X17805390Y-15932980D01*
X17805390Y-15932980D02*
X17805390Y-16037742D01*
X17805390Y-15932980D02*
X17814913Y-15913933D01*
X17814913Y-15913933D02*
X17833961Y-15904409D01*
X17833961Y-15904409D02*
X17862532Y-15904409D01*
X17862532Y-15904409D02*
X17881580Y-15913933D01*
X17881580Y-15913933D02*
X17891104Y-15932980D01*
X17891104Y-15932980D02*
X17891104Y-16037742D01*
X18281580Y-15828218D02*
X18110152Y-16085361D01*
X18538723Y-15837742D02*
X18557771Y-15837742D01*
X18557771Y-15837742D02*
X18576818Y-15847266D01*
X18576818Y-15847266D02*
X18586342Y-15856790D01*
X18586342Y-15856790D02*
X18595866Y-15875837D01*
X18595866Y-15875837D02*
X18605390Y-15913933D01*
X18605390Y-15913933D02*
X18605390Y-15961552D01*
X18605390Y-15961552D02*
X18595866Y-15999647D01*
X18595866Y-15999647D02*
X18586342Y-16018695D01*
X18586342Y-16018695D02*
X18576818Y-16028218D01*
X18576818Y-16028218D02*
X18557771Y-16037742D01*
X18557771Y-16037742D02*
X18538723Y-16037742D01*
X18538723Y-16037742D02*
X18519675Y-16028218D01*
X18519675Y-16028218D02*
X18510152Y-16018695D01*
X18510152Y-16018695D02*
X18500628Y-15999647D01*
X18500628Y-15999647D02*
X18491104Y-15961552D01*
X18491104Y-15961552D02*
X18491104Y-15913933D01*
X18491104Y-15913933D02*
X18500628Y-15875837D01*
X18500628Y-15875837D02*
X18510152Y-15856790D01*
X18510152Y-15856790D02*
X18519675Y-15847266D01*
X18519675Y-15847266D02*
X18538723Y-15837742D01*
X18691104Y-16018695D02*
X18700628Y-16028218D01*
X18700628Y-16028218D02*
X18691104Y-16037742D01*
X18691104Y-16037742D02*
X18681580Y-16028218D01*
X18681580Y-16028218D02*
X18691104Y-16018695D01*
X18691104Y-16018695D02*
X18691104Y-16037742D01*
X18891104Y-16037742D02*
X18776818Y-16037742D01*
X18833961Y-16037742D02*
X18833961Y-15837742D01*
X18833961Y-15837742D02*
X18814914Y-15866314D01*
X18814914Y-15866314D02*
X18795866Y-15885361D01*
X18795866Y-15885361D02*
X18776818Y-15894885D01*
X19072056Y-15837742D02*
X18976818Y-15837742D01*
X18976818Y-15837742D02*
X18967295Y-15932980D01*
X18967295Y-15932980D02*
X18976818Y-15923456D01*
X18976818Y-15923456D02*
X18995866Y-15913933D01*
X18995866Y-15913933D02*
X19043485Y-15913933D01*
X19043485Y-15913933D02*
X19062533Y-15923456D01*
X19062533Y-15923456D02*
X19072056Y-15932980D01*
X19072056Y-15932980D02*
X19081580Y-15952028D01*
X19081580Y-15952028D02*
X19081580Y-15999647D01*
X19081580Y-15999647D02*
X19072056Y-16018695D01*
X19072056Y-16018695D02*
X19062533Y-16028218D01*
X19062533Y-16028218D02*
X19043485Y-16037742D01*
X19043485Y-16037742D02*
X18995866Y-16037742D01*
X18995866Y-16037742D02*
X18976818Y-16028218D01*
X18976818Y-16028218D02*
X18967295Y-16018695D01*
X19148247Y-15837742D02*
X19281580Y-15837742D01*
X19281580Y-15837742D02*
X19195866Y-16037742D01*
X19453009Y-15837742D02*
X19357771Y-15837742D01*
X19357771Y-15837742D02*
X19348247Y-15932980D01*
X19348247Y-15932980D02*
X19357771Y-15923456D01*
X19357771Y-15923456D02*
X19376818Y-15913933D01*
X19376818Y-15913933D02*
X19424437Y-15913933D01*
X19424437Y-15913933D02*
X19443485Y-15923456D01*
X19443485Y-15923456D02*
X19453009Y-15932980D01*
X19453009Y-15932980D02*
X19462533Y-15952028D01*
X19462533Y-15952028D02*
X19462533Y-15999647D01*
X19462533Y-15999647D02*
X19453009Y-16018695D01*
X19453009Y-16018695D02*
X19443485Y-16028218D01*
X19443485Y-16028218D02*
X19424437Y-16037742D01*
X19424437Y-16037742D02*
X19376818Y-16037742D01*
X19376818Y-16037742D02*
X19357771Y-16028218D01*
X19357771Y-16028218D02*
X19348247Y-16018695D01*
X19538723Y-15837742D02*
X19538723Y-15875837D01*
X19614914Y-15837742D02*
X19614914Y-15875837D01*
X19910152Y-16113933D02*
X19900628Y-16104409D01*
X19900628Y-16104409D02*
X19881580Y-16075837D01*
X19881580Y-16075837D02*
X19872057Y-16056790D01*
X19872057Y-16056790D02*
X19862533Y-16028218D01*
X19862533Y-16028218D02*
X19853009Y-15980599D01*
X19853009Y-15980599D02*
X19853009Y-15942504D01*
X19853009Y-15942504D02*
X19862533Y-15894885D01*
X19862533Y-15894885D02*
X19872057Y-15866314D01*
X19872057Y-15866314D02*
X19881580Y-15847266D01*
X19881580Y-15847266D02*
X19900628Y-15818695D01*
X19900628Y-15818695D02*
X19910152Y-15809171D01*
X20081580Y-15837742D02*
X19986342Y-15837742D01*
X19986342Y-15837742D02*
X19976818Y-15932980D01*
X19976818Y-15932980D02*
X19986342Y-15923456D01*
X19986342Y-15923456D02*
X20005390Y-15913933D01*
X20005390Y-15913933D02*
X20053009Y-15913933D01*
X20053009Y-15913933D02*
X20072057Y-15923456D01*
X20072057Y-15923456D02*
X20081580Y-15932980D01*
X20081580Y-15932980D02*
X20091104Y-15952028D01*
X20091104Y-15952028D02*
X20091104Y-15999647D01*
X20091104Y-15999647D02*
X20081580Y-16018695D01*
X20081580Y-16018695D02*
X20072057Y-16028218D01*
X20072057Y-16028218D02*
X20053009Y-16037742D01*
X20053009Y-16037742D02*
X20005390Y-16037742D01*
X20005390Y-16037742D02*
X19986342Y-16028218D01*
X19986342Y-16028218D02*
X19976818Y-16018695D01*
X20329199Y-16037742D02*
X20329199Y-15837742D01*
X20414914Y-16037742D02*
X20414914Y-15932980D01*
X20414914Y-15932980D02*
X20405390Y-15913933D01*
X20405390Y-15913933D02*
X20386342Y-15904409D01*
X20386342Y-15904409D02*
X20357771Y-15904409D01*
X20357771Y-15904409D02*
X20338723Y-15913933D01*
X20338723Y-15913933D02*
X20329199Y-15923456D01*
X20538723Y-16037742D02*
X20519676Y-16028218D01*
X20519676Y-16028218D02*
X20510152Y-16018695D01*
X20510152Y-16018695D02*
X20500628Y-15999647D01*
X20500628Y-15999647D02*
X20500628Y-15942504D01*
X20500628Y-15942504D02*
X20510152Y-15923456D01*
X20510152Y-15923456D02*
X20519676Y-15913933D01*
X20519676Y-15913933D02*
X20538723Y-15904409D01*
X20538723Y-15904409D02*
X20567295Y-15904409D01*
X20567295Y-15904409D02*
X20586342Y-15913933D01*
X20586342Y-15913933D02*
X20595866Y-15923456D01*
X20595866Y-15923456D02*
X20605390Y-15942504D01*
X20605390Y-15942504D02*
X20605390Y-15999647D01*
X20605390Y-15999647D02*
X20595866Y-16018695D01*
X20595866Y-16018695D02*
X20586342Y-16028218D01*
X20586342Y-16028218D02*
X20567295Y-16037742D01*
X20567295Y-16037742D02*
X20538723Y-16037742D01*
X20719676Y-16037742D02*
X20700628Y-16028218D01*
X20700628Y-16028218D02*
X20691104Y-16009171D01*
X20691104Y-16009171D02*
X20691104Y-15837742D01*
X20872057Y-16028218D02*
X20853009Y-16037742D01*
X20853009Y-16037742D02*
X20814914Y-16037742D01*
X20814914Y-16037742D02*
X20795866Y-16028218D01*
X20795866Y-16028218D02*
X20786342Y-16009171D01*
X20786342Y-16009171D02*
X20786342Y-15932980D01*
X20786342Y-15932980D02*
X20795866Y-15913933D01*
X20795866Y-15913933D02*
X20814914Y-15904409D01*
X20814914Y-15904409D02*
X20853009Y-15904409D01*
X20853009Y-15904409D02*
X20872057Y-15913933D01*
X20872057Y-15913933D02*
X20881580Y-15932980D01*
X20881580Y-15932980D02*
X20881580Y-15952028D01*
X20881580Y-15952028D02*
X20786342Y-15971076D01*
X20957771Y-16028218D02*
X20976819Y-16037742D01*
X20976819Y-16037742D02*
X21014914Y-16037742D01*
X21014914Y-16037742D02*
X21033961Y-16028218D01*
X21033961Y-16028218D02*
X21043485Y-16009171D01*
X21043485Y-16009171D02*
X21043485Y-15999647D01*
X21043485Y-15999647D02*
X21033961Y-15980599D01*
X21033961Y-15980599D02*
X21014914Y-15971076D01*
X21014914Y-15971076D02*
X20986342Y-15971076D01*
X20986342Y-15971076D02*
X20967295Y-15961552D01*
X20967295Y-15961552D02*
X20957771Y-15942504D01*
X20957771Y-15942504D02*
X20957771Y-15932980D01*
X20957771Y-15932980D02*
X20967295Y-15913933D01*
X20967295Y-15913933D02*
X20986342Y-15904409D01*
X20986342Y-15904409D02*
X21014914Y-15904409D01*
X21014914Y-15904409D02*
X21033961Y-15913933D01*
X21110152Y-16113933D02*
X21119676Y-16104409D01*
X21119676Y-16104409D02*
X21138723Y-16075837D01*
X21138723Y-16075837D02*
X21148247Y-16056790D01*
X21148247Y-16056790D02*
X21157771Y-16028218D01*
X21157771Y-16028218D02*
X21167295Y-15980599D01*
X21167295Y-15980599D02*
X21167295Y-15942504D01*
X21167295Y-15942504D02*
X21157771Y-15894885D01*
X21157771Y-15894885D02*
X21148247Y-15866314D01*
X21148247Y-15866314D02*
X21138723Y-15847266D01*
X21138723Y-15847266D02*
X21119676Y-15818695D01*
X21119676Y-15818695D02*
X21110152Y-15809171D01*
M02*
