%TF.GenerationSoftware,KiCad,Pcbnew,7.0.7*%
%TF.CreationDate,2024-01-26T01:18:24+08:00*%
%TF.ProjectId,adapter,61646170-7465-4722-9e6b-696361645f70,rev?*%
%TF.SameCoordinates,Original*%
%TF.FileFunction,Legend,Bot*%
%TF.FilePolarity,Positive*%
%FSLAX46Y46*%
G04 Gerber Fmt 4.6, Leading zero omitted, Abs format (unit mm)*
G04 Created by KiCad (PCBNEW 7.0.7) date 2024-01-26 01:18:24*
%MOMM*%
%LPD*%
G01*
G04 APERTURE LIST*
%ADD10C,0.150000*%
%ADD11C,0.120000*%
%ADD12R,1.752600X1.752600*%
%ADD13C,1.752600*%
G04 APERTURE END LIST*
D10*
X227223896Y-89729521D02*
G75*
G03*
X228004811Y-90500598I800327J29561D01*
G01*
X227250000Y-91909520D02*
X236750000Y-91909520D01*
X236750000Y-96709520D01*
X227250000Y-96709520D01*
X227250000Y-91909520D01*
D11*
X185099765Y-88779241D02*
X185099765Y-89798352D01*
D10*
X220520000Y-89719520D02*
X222920000Y-89719520D01*
X222920000Y-94669520D01*
X220520000Y-94669520D01*
X220520000Y-89719520D01*
D11*
X177697771Y-89808164D02*
G75*
G03*
X178478687Y-90579240I800429J29664D01*
G01*
D10*
X234845000Y-87929520D02*
X228020000Y-87929520D01*
D11*
X185099824Y-88779239D02*
G75*
G03*
X184318876Y-88008164I-800424J-29661D01*
G01*
X184303687Y-90579289D02*
G75*
G03*
X185099765Y-89798352I-3987J800289D01*
G01*
X178478687Y-90579241D02*
X184303687Y-90579241D01*
X177697798Y-89808163D02*
X177697798Y-88789052D01*
X184318876Y-88008163D02*
X178493876Y-88008162D01*
D10*
X235625951Y-88700596D02*
G75*
G03*
X234845000Y-87929520I-800328J-29564D01*
G01*
X228004811Y-90500598D02*
X234829811Y-90500599D01*
X235625889Y-88700598D02*
X235625889Y-89719709D01*
X176106376Y-92008160D02*
X185606376Y-92008160D01*
X185606376Y-96808160D01*
X176106376Y-96808160D01*
X176106376Y-92008160D01*
D11*
X178493876Y-88008172D02*
G75*
G03*
X177697798Y-88789052I4024J-800328D01*
G01*
D10*
X227223922Y-89729520D02*
X227223922Y-88710409D01*
X228020000Y-87929532D02*
G75*
G03*
X227223923Y-88710409I4123J-800428D01*
G01*
X189676376Y-89808160D02*
X192076376Y-89808160D01*
X192076376Y-94708160D01*
X189676376Y-94708160D01*
X189676376Y-89808160D01*
X234829811Y-90500652D02*
G75*
G03*
X235625889Y-89719709I-4088J800392D01*
G01*
X241543247Y-92526186D02*
X241543247Y-92792852D01*
X241962295Y-92907138D02*
X241962295Y-92526186D01*
X241962295Y-92526186D02*
X241162295Y-92526186D01*
X241162295Y-92526186D02*
X241162295Y-92907138D01*
X241962295Y-93630948D02*
X241962295Y-93249996D01*
X241962295Y-93249996D02*
X241162295Y-93249996D01*
X241962295Y-93897615D02*
X241162295Y-93897615D01*
X241162295Y-94164281D02*
X241162295Y-94621424D01*
X241962295Y-94392852D02*
X241162295Y-94392852D01*
X241543247Y-94888091D02*
X241543247Y-95154757D01*
X241962295Y-95269043D02*
X241962295Y-94888091D01*
X241962295Y-94888091D02*
X241162295Y-94888091D01*
X241162295Y-94888091D02*
X241162295Y-95269043D01*
X241657533Y-95611901D02*
X241657533Y-96221425D01*
X241886104Y-97059520D02*
X241924200Y-97021424D01*
X241924200Y-97021424D02*
X241962295Y-96907139D01*
X241962295Y-96907139D02*
X241962295Y-96830948D01*
X241962295Y-96830948D02*
X241924200Y-96716662D01*
X241924200Y-96716662D02*
X241848009Y-96640472D01*
X241848009Y-96640472D02*
X241771819Y-96602377D01*
X241771819Y-96602377D02*
X241619438Y-96564281D01*
X241619438Y-96564281D02*
X241505152Y-96564281D01*
X241505152Y-96564281D02*
X241352771Y-96602377D01*
X241352771Y-96602377D02*
X241276580Y-96640472D01*
X241276580Y-96640472D02*
X241200390Y-96716662D01*
X241200390Y-96716662D02*
X241162295Y-96830948D01*
X241162295Y-96830948D02*
X241162295Y-96907139D01*
X241162295Y-96907139D02*
X241200390Y-97021424D01*
X241200390Y-97021424D02*
X241238485Y-97059520D01*
X241962295Y-98011901D02*
X241162295Y-98011901D01*
X241543247Y-98011901D02*
X241543247Y-98469044D01*
X241962295Y-98469044D02*
X241162295Y-98469044D01*
X241162295Y-99002377D02*
X241162295Y-99154758D01*
X241162295Y-99154758D02*
X241200390Y-99230948D01*
X241200390Y-99230948D02*
X241276580Y-99307139D01*
X241276580Y-99307139D02*
X241428961Y-99345234D01*
X241428961Y-99345234D02*
X241695628Y-99345234D01*
X241695628Y-99345234D02*
X241848009Y-99307139D01*
X241848009Y-99307139D02*
X241924200Y-99230948D01*
X241924200Y-99230948D02*
X241962295Y-99154758D01*
X241962295Y-99154758D02*
X241962295Y-99002377D01*
X241962295Y-99002377D02*
X241924200Y-98926186D01*
X241924200Y-98926186D02*
X241848009Y-98849996D01*
X241848009Y-98849996D02*
X241695628Y-98811900D01*
X241695628Y-98811900D02*
X241428961Y-98811900D01*
X241428961Y-98811900D02*
X241276580Y-98849996D01*
X241276580Y-98849996D02*
X241200390Y-98926186D01*
X241200390Y-98926186D02*
X241162295Y-99002377D01*
X241962295Y-100069043D02*
X241962295Y-99688091D01*
X241962295Y-99688091D02*
X241162295Y-99688091D01*
X241962295Y-100335710D02*
X241162295Y-100335710D01*
X241162295Y-100335710D02*
X241162295Y-100526186D01*
X241162295Y-100526186D02*
X241200390Y-100640472D01*
X241200390Y-100640472D02*
X241276580Y-100716662D01*
X241276580Y-100716662D02*
X241352771Y-100754757D01*
X241352771Y-100754757D02*
X241505152Y-100792853D01*
X241505152Y-100792853D02*
X241619438Y-100792853D01*
X241619438Y-100792853D02*
X241771819Y-100754757D01*
X241771819Y-100754757D02*
X241848009Y-100716662D01*
X241848009Y-100716662D02*
X241924200Y-100640472D01*
X241924200Y-100640472D02*
X241962295Y-100526186D01*
X241962295Y-100526186D02*
X241962295Y-100335710D01*
X241543247Y-101135710D02*
X241543247Y-101402376D01*
X241962295Y-101516662D02*
X241962295Y-101135710D01*
X241962295Y-101135710D02*
X241162295Y-101135710D01*
X241162295Y-101135710D02*
X241162295Y-101516662D01*
X241962295Y-102316663D02*
X241581342Y-102049996D01*
X241962295Y-101859520D02*
X241162295Y-101859520D01*
X241162295Y-101859520D02*
X241162295Y-102164282D01*
X241162295Y-102164282D02*
X241200390Y-102240472D01*
X241200390Y-102240472D02*
X241238485Y-102278567D01*
X241238485Y-102278567D02*
X241314676Y-102316663D01*
X241314676Y-102316663D02*
X241428961Y-102316663D01*
X241428961Y-102316663D02*
X241505152Y-102278567D01*
X241505152Y-102278567D02*
X241543247Y-102240472D01*
X241543247Y-102240472D02*
X241581342Y-102164282D01*
X241581342Y-102164282D02*
X241581342Y-101859520D01*
X241238485Y-103230948D02*
X241200390Y-103269044D01*
X241200390Y-103269044D02*
X241162295Y-103345234D01*
X241162295Y-103345234D02*
X241162295Y-103535710D01*
X241162295Y-103535710D02*
X241200390Y-103611901D01*
X241200390Y-103611901D02*
X241238485Y-103649996D01*
X241238485Y-103649996D02*
X241314676Y-103688091D01*
X241314676Y-103688091D02*
X241390866Y-103688091D01*
X241390866Y-103688091D02*
X241505152Y-103649996D01*
X241505152Y-103649996D02*
X241962295Y-103192853D01*
X241962295Y-103192853D02*
X241962295Y-103688091D01*
X241886104Y-104030949D02*
X241924200Y-104069044D01*
X241924200Y-104069044D02*
X241962295Y-104030949D01*
X241962295Y-104030949D02*
X241924200Y-103992853D01*
X241924200Y-103992853D02*
X241886104Y-104030949D01*
X241886104Y-104030949D02*
X241962295Y-104030949D01*
X241962295Y-104830948D02*
X241962295Y-104373805D01*
X241962295Y-104602377D02*
X241162295Y-104602377D01*
X241162295Y-104602377D02*
X241276580Y-104526186D01*
X241276580Y-104526186D02*
X241352771Y-104449996D01*
X241352771Y-104449996D02*
X241390866Y-104373805D01*
X178414475Y-122318622D02*
X178872411Y-122237809D01*
X178737724Y-122641870D02*
X179303409Y-122076185D01*
X179303409Y-122076185D02*
X179087910Y-121860686D01*
X179087910Y-121860686D02*
X179007098Y-121833748D01*
X179007098Y-121833748D02*
X178953223Y-121833748D01*
X178953223Y-121833748D02*
X178872411Y-121860686D01*
X178872411Y-121860686D02*
X178791598Y-121941498D01*
X178791598Y-121941498D02*
X178764661Y-122022310D01*
X178764661Y-122022310D02*
X178764661Y-122076185D01*
X178764661Y-122076185D02*
X178791598Y-122156997D01*
X178791598Y-122156997D02*
X179007098Y-122372496D01*
X178306725Y-121456625D02*
X177929601Y-121833748D01*
X178656911Y-121375813D02*
X178387537Y-121914561D01*
X178387537Y-121914561D02*
X178037351Y-121564374D01*
X183444550Y-127324747D02*
X183444550Y-127378622D01*
X183444550Y-127378622D02*
X183498424Y-127486371D01*
X183498424Y-127486371D02*
X183552299Y-127540246D01*
X183552299Y-127540246D02*
X183660049Y-127594121D01*
X183660049Y-127594121D02*
X183767798Y-127594121D01*
X183767798Y-127594121D02*
X183848611Y-127567183D01*
X183848611Y-127567183D02*
X183983298Y-127486371D01*
X183983298Y-127486371D02*
X184064110Y-127405559D01*
X184064110Y-127405559D02*
X184144922Y-127270872D01*
X184144922Y-127270872D02*
X184171859Y-127190060D01*
X184171859Y-127190060D02*
X184171859Y-127082310D01*
X184171859Y-127082310D02*
X184117985Y-126974561D01*
X184117985Y-126974561D02*
X184064110Y-126920686D01*
X184064110Y-126920686D02*
X183956360Y-126866811D01*
X183956360Y-126866811D02*
X183902485Y-126866811D01*
X183686986Y-126651312D02*
X183686986Y-126597437D01*
X183686986Y-126597437D02*
X183660049Y-126516625D01*
X183660049Y-126516625D02*
X183525362Y-126381938D01*
X183525362Y-126381938D02*
X183444550Y-126355000D01*
X183444550Y-126355000D02*
X183390675Y-126355000D01*
X183390675Y-126355000D02*
X183309863Y-126381938D01*
X183309863Y-126381938D02*
X183255988Y-126435813D01*
X183255988Y-126435813D02*
X183202113Y-126543562D01*
X183202113Y-126543562D02*
X183202113Y-127190060D01*
X183202113Y-127190060D02*
X182851927Y-126839874D01*
X178468350Y-127344747D02*
X178468350Y-127398622D01*
X178468350Y-127398622D02*
X178522224Y-127506371D01*
X178522224Y-127506371D02*
X178576099Y-127560246D01*
X178576099Y-127560246D02*
X178683849Y-127614121D01*
X178683849Y-127614121D02*
X178791598Y-127614121D01*
X178791598Y-127614121D02*
X178872411Y-127587183D01*
X178872411Y-127587183D02*
X179007098Y-127506371D01*
X179007098Y-127506371D02*
X179087910Y-127425559D01*
X179087910Y-127425559D02*
X179168722Y-127290872D01*
X179168722Y-127290872D02*
X179195659Y-127210060D01*
X179195659Y-127210060D02*
X179195659Y-127102310D01*
X179195659Y-127102310D02*
X179141785Y-126994561D01*
X179141785Y-126994561D02*
X179087910Y-126940686D01*
X179087910Y-126940686D02*
X178980160Y-126886811D01*
X178980160Y-126886811D02*
X178926285Y-126886811D01*
X178306725Y-126536625D02*
X177929601Y-126913748D01*
X178656911Y-126455813D02*
X178387537Y-126994561D01*
X178387537Y-126994561D02*
X178037351Y-126644374D01*
X233281899Y-122219983D02*
X233739835Y-122139170D01*
X233605148Y-122543231D02*
X234170833Y-121977546D01*
X234170833Y-121977546D02*
X233955334Y-121762047D01*
X233955334Y-121762047D02*
X233874522Y-121735109D01*
X233874522Y-121735109D02*
X233820647Y-121735109D01*
X233820647Y-121735109D02*
X233739835Y-121762047D01*
X233739835Y-121762047D02*
X233659022Y-121842859D01*
X233659022Y-121842859D02*
X233632085Y-121923671D01*
X233632085Y-121923671D02*
X233632085Y-121977546D01*
X233632085Y-121977546D02*
X233659022Y-122058358D01*
X233659022Y-122058358D02*
X233874522Y-122273857D01*
X233174149Y-121357986D02*
X232797025Y-121735109D01*
X233524335Y-121277174D02*
X233254961Y-121815922D01*
X233254961Y-121815922D02*
X232904775Y-121465735D01*
X233335774Y-132326108D02*
X233335774Y-132379983D01*
X233335774Y-132379983D02*
X233389648Y-132487732D01*
X233389648Y-132487732D02*
X233443523Y-132541607D01*
X233443523Y-132541607D02*
X233551273Y-132595482D01*
X233551273Y-132595482D02*
X233659022Y-132595482D01*
X233659022Y-132595482D02*
X233739835Y-132568544D01*
X233739835Y-132568544D02*
X233874522Y-132487732D01*
X233874522Y-132487732D02*
X233955334Y-132406920D01*
X233955334Y-132406920D02*
X234036146Y-132272233D01*
X234036146Y-132272233D02*
X234063083Y-132191421D01*
X234063083Y-132191421D02*
X234063083Y-132083671D01*
X234063083Y-132083671D02*
X234009209Y-131975922D01*
X234009209Y-131975922D02*
X233955334Y-131922047D01*
X233955334Y-131922047D02*
X233847584Y-131868172D01*
X233847584Y-131868172D02*
X233793709Y-131868172D01*
X233362711Y-131329424D02*
X233470461Y-131437174D01*
X233470461Y-131437174D02*
X233497398Y-131517986D01*
X233497398Y-131517986D02*
X233497398Y-131571861D01*
X233497398Y-131571861D02*
X233470461Y-131706548D01*
X233470461Y-131706548D02*
X233389648Y-131841235D01*
X233389648Y-131841235D02*
X233174149Y-132056734D01*
X233174149Y-132056734D02*
X233093337Y-132083671D01*
X233093337Y-132083671D02*
X233039462Y-132083671D01*
X233039462Y-132083671D02*
X232958650Y-132056734D01*
X232958650Y-132056734D02*
X232850900Y-131948984D01*
X232850900Y-131948984D02*
X232823963Y-131868172D01*
X232823963Y-131868172D02*
X232823963Y-131814297D01*
X232823963Y-131814297D02*
X232850900Y-131733485D01*
X232850900Y-131733485D02*
X232985587Y-131598798D01*
X232985587Y-131598798D02*
X233066400Y-131571861D01*
X233066400Y-131571861D02*
X233120274Y-131571861D01*
X233120274Y-131571861D02*
X233201087Y-131598798D01*
X233201087Y-131598798D02*
X233308836Y-131706548D01*
X233308836Y-131706548D02*
X233335774Y-131787360D01*
X233335774Y-131787360D02*
X233335774Y-131841235D01*
X233335774Y-131841235D02*
X233308836Y-131922047D01*
X233281899Y-134919983D02*
X233739835Y-134839170D01*
X233605148Y-135243231D02*
X234170833Y-134677546D01*
X234170833Y-134677546D02*
X233955334Y-134462047D01*
X233955334Y-134462047D02*
X233874522Y-134435109D01*
X233874522Y-134435109D02*
X233820647Y-134435109D01*
X233820647Y-134435109D02*
X233739835Y-134462047D01*
X233739835Y-134462047D02*
X233659022Y-134542859D01*
X233659022Y-134542859D02*
X233632085Y-134623671D01*
X233632085Y-134623671D02*
X233632085Y-134677546D01*
X233632085Y-134677546D02*
X233659022Y-134758358D01*
X233659022Y-134758358D02*
X233874522Y-134973857D01*
X233335774Y-133842487D02*
X233605148Y-134111861D01*
X233605148Y-134111861D02*
X233362711Y-134408172D01*
X233362711Y-134408172D02*
X233362711Y-134354297D01*
X233362711Y-134354297D02*
X233335774Y-134273485D01*
X233335774Y-134273485D02*
X233201087Y-134138798D01*
X233201087Y-134138798D02*
X233120274Y-134111861D01*
X233120274Y-134111861D02*
X233066400Y-134111861D01*
X233066400Y-134111861D02*
X232985587Y-134138798D01*
X232985587Y-134138798D02*
X232850900Y-134273485D01*
X232850900Y-134273485D02*
X232823963Y-134354297D01*
X232823963Y-134354297D02*
X232823963Y-134408172D01*
X232823963Y-134408172D02*
X232850900Y-134488984D01*
X232850900Y-134488984D02*
X232985587Y-134623671D01*
X232985587Y-134623671D02*
X233066400Y-134650609D01*
X233066400Y-134650609D02*
X233120274Y-134650609D01*
X183390675Y-132458622D02*
X183848611Y-132377809D01*
X183713924Y-132781870D02*
X184279609Y-132216185D01*
X184279609Y-132216185D02*
X184064110Y-132000686D01*
X184064110Y-132000686D02*
X183983298Y-131973748D01*
X183983298Y-131973748D02*
X183929423Y-131973748D01*
X183929423Y-131973748D02*
X183848611Y-132000686D01*
X183848611Y-132000686D02*
X183767798Y-132081498D01*
X183767798Y-132081498D02*
X183740861Y-132162310D01*
X183740861Y-132162310D02*
X183740861Y-132216185D01*
X183740861Y-132216185D02*
X183767798Y-132296997D01*
X183767798Y-132296997D02*
X183983298Y-132512496D01*
X183686986Y-131731312D02*
X183686986Y-131677437D01*
X183686986Y-131677437D02*
X183660049Y-131596625D01*
X183660049Y-131596625D02*
X183525362Y-131461938D01*
X183525362Y-131461938D02*
X183444550Y-131435000D01*
X183444550Y-131435000D02*
X183390675Y-131435000D01*
X183390675Y-131435000D02*
X183309863Y-131461938D01*
X183309863Y-131461938D02*
X183255988Y-131515813D01*
X183255988Y-131515813D02*
X183202113Y-131623562D01*
X183202113Y-131623562D02*
X183202113Y-132270060D01*
X183202113Y-132270060D02*
X182851927Y-131919874D01*
X178468350Y-132424747D02*
X178468350Y-132478622D01*
X178468350Y-132478622D02*
X178522224Y-132586371D01*
X178522224Y-132586371D02*
X178576099Y-132640246D01*
X178576099Y-132640246D02*
X178683849Y-132694121D01*
X178683849Y-132694121D02*
X178791598Y-132694121D01*
X178791598Y-132694121D02*
X178872411Y-132667183D01*
X178872411Y-132667183D02*
X179007098Y-132586371D01*
X179007098Y-132586371D02*
X179087910Y-132505559D01*
X179087910Y-132505559D02*
X179168722Y-132370872D01*
X179168722Y-132370872D02*
X179195659Y-132290060D01*
X179195659Y-132290060D02*
X179195659Y-132182310D01*
X179195659Y-132182310D02*
X179141785Y-132074561D01*
X179141785Y-132074561D02*
X179087910Y-132020686D01*
X179087910Y-132020686D02*
X178980160Y-131966811D01*
X178980160Y-131966811D02*
X178926285Y-131966811D01*
X178495287Y-131428063D02*
X178603037Y-131535813D01*
X178603037Y-131535813D02*
X178629974Y-131616625D01*
X178629974Y-131616625D02*
X178629974Y-131670500D01*
X178629974Y-131670500D02*
X178603037Y-131805187D01*
X178603037Y-131805187D02*
X178522224Y-131939874D01*
X178522224Y-131939874D02*
X178306725Y-132155373D01*
X178306725Y-132155373D02*
X178225913Y-132182310D01*
X178225913Y-132182310D02*
X178172038Y-132182310D01*
X178172038Y-132182310D02*
X178091226Y-132155373D01*
X178091226Y-132155373D02*
X177983476Y-132047623D01*
X177983476Y-132047623D02*
X177956539Y-131966811D01*
X177956539Y-131966811D02*
X177956539Y-131912936D01*
X177956539Y-131912936D02*
X177983476Y-131832124D01*
X177983476Y-131832124D02*
X178118163Y-131697437D01*
X178118163Y-131697437D02*
X178198976Y-131670500D01*
X178198976Y-131670500D02*
X178252850Y-131670500D01*
X178252850Y-131670500D02*
X178333663Y-131697437D01*
X178333663Y-131697437D02*
X178441412Y-131805187D01*
X178441412Y-131805187D02*
X178468350Y-131885999D01*
X178468350Y-131885999D02*
X178468350Y-131939874D01*
X178468350Y-131939874D02*
X178441412Y-132020686D01*
X178389075Y-135012680D02*
X178847011Y-134931867D01*
X178712324Y-135335928D02*
X179278009Y-134770243D01*
X179278009Y-134770243D02*
X179062510Y-134554744D01*
X179062510Y-134554744D02*
X178981698Y-134527806D01*
X178981698Y-134527806D02*
X178927823Y-134527806D01*
X178927823Y-134527806D02*
X178847011Y-134554744D01*
X178847011Y-134554744D02*
X178766198Y-134635556D01*
X178766198Y-134635556D02*
X178739261Y-134716368D01*
X178739261Y-134716368D02*
X178739261Y-134770243D01*
X178739261Y-134770243D02*
X178766198Y-134851055D01*
X178766198Y-134851055D02*
X178981698Y-135066554D01*
X178442950Y-133935184D02*
X178712324Y-134204558D01*
X178712324Y-134204558D02*
X178469887Y-134500869D01*
X178469887Y-134500869D02*
X178469887Y-134446994D01*
X178469887Y-134446994D02*
X178442950Y-134366182D01*
X178442950Y-134366182D02*
X178308263Y-134231495D01*
X178308263Y-134231495D02*
X178227450Y-134204558D01*
X178227450Y-134204558D02*
X178173576Y-134204558D01*
X178173576Y-134204558D02*
X178092763Y-134231495D01*
X178092763Y-134231495D02*
X177958076Y-134366182D01*
X177958076Y-134366182D02*
X177931139Y-134446994D01*
X177931139Y-134446994D02*
X177931139Y-134500869D01*
X177931139Y-134500869D02*
X177958076Y-134581681D01*
X177958076Y-134581681D02*
X178092763Y-134716368D01*
X178092763Y-134716368D02*
X178173576Y-134743306D01*
X178173576Y-134743306D02*
X178227450Y-134743306D01*
X216944285Y-90589910D02*
X217020475Y-90551815D01*
X217020475Y-90551815D02*
X217134761Y-90551815D01*
X217134761Y-90551815D02*
X217249047Y-90589910D01*
X217249047Y-90589910D02*
X217325237Y-90666100D01*
X217325237Y-90666100D02*
X217363332Y-90742291D01*
X217363332Y-90742291D02*
X217401428Y-90894672D01*
X217401428Y-90894672D02*
X217401428Y-91008958D01*
X217401428Y-91008958D02*
X217363332Y-91161339D01*
X217363332Y-91161339D02*
X217325237Y-91237529D01*
X217325237Y-91237529D02*
X217249047Y-91313720D01*
X217249047Y-91313720D02*
X217134761Y-91351815D01*
X217134761Y-91351815D02*
X217058570Y-91351815D01*
X217058570Y-91351815D02*
X216944285Y-91313720D01*
X216944285Y-91313720D02*
X216906189Y-91275624D01*
X216906189Y-91275624D02*
X216906189Y-91008958D01*
X216906189Y-91008958D02*
X217058570Y-91008958D01*
X216563332Y-91351815D02*
X216563332Y-90551815D01*
X216563332Y-90551815D02*
X216106189Y-91351815D01*
X216106189Y-91351815D02*
X216106189Y-90551815D01*
X215725237Y-91351815D02*
X215725237Y-90551815D01*
X215725237Y-90551815D02*
X215534761Y-90551815D01*
X215534761Y-90551815D02*
X215420475Y-90589910D01*
X215420475Y-90589910D02*
X215344285Y-90666100D01*
X215344285Y-90666100D02*
X215306190Y-90742291D01*
X215306190Y-90742291D02*
X215268094Y-90894672D01*
X215268094Y-90894672D02*
X215268094Y-91008958D01*
X215268094Y-91008958D02*
X215306190Y-91161339D01*
X215306190Y-91161339D02*
X215344285Y-91237529D01*
X215344285Y-91237529D02*
X215420475Y-91313720D01*
X215420475Y-91313720D02*
X215534761Y-91351815D01*
X215534761Y-91351815D02*
X215725237Y-91351815D01*
X190863128Y-96446255D02*
X190825033Y-96331969D01*
X190825033Y-96331969D02*
X190786937Y-96293874D01*
X190786937Y-96293874D02*
X190710747Y-96255778D01*
X190710747Y-96255778D02*
X190596461Y-96255778D01*
X190596461Y-96255778D02*
X190520271Y-96293874D01*
X190520271Y-96293874D02*
X190482176Y-96331969D01*
X190482176Y-96331969D02*
X190444080Y-96408159D01*
X190444080Y-96408159D02*
X190444080Y-96712921D01*
X190444080Y-96712921D02*
X191244080Y-96712921D01*
X191244080Y-96712921D02*
X191244080Y-96446255D01*
X191244080Y-96446255D02*
X191205985Y-96370064D01*
X191205985Y-96370064D02*
X191167890Y-96331969D01*
X191167890Y-96331969D02*
X191091699Y-96293874D01*
X191091699Y-96293874D02*
X191015509Y-96293874D01*
X191015509Y-96293874D02*
X190939318Y-96331969D01*
X190939318Y-96331969D02*
X190901223Y-96370064D01*
X190901223Y-96370064D02*
X190863128Y-96446255D01*
X190863128Y-96446255D02*
X190863128Y-96712921D01*
X190748842Y-95912921D02*
X190748842Y-95303398D01*
X197230661Y-90358550D02*
X197306851Y-90320455D01*
X197306851Y-90320455D02*
X197421137Y-90320455D01*
X197421137Y-90320455D02*
X197535423Y-90358550D01*
X197535423Y-90358550D02*
X197611613Y-90434740D01*
X197611613Y-90434740D02*
X197649708Y-90510931D01*
X197649708Y-90510931D02*
X197687804Y-90663312D01*
X197687804Y-90663312D02*
X197687804Y-90777598D01*
X197687804Y-90777598D02*
X197649708Y-90929979D01*
X197649708Y-90929979D02*
X197611613Y-91006169D01*
X197611613Y-91006169D02*
X197535423Y-91082360D01*
X197535423Y-91082360D02*
X197421137Y-91120455D01*
X197421137Y-91120455D02*
X197344946Y-91120455D01*
X197344946Y-91120455D02*
X197230661Y-91082360D01*
X197230661Y-91082360D02*
X197192565Y-91044264D01*
X197192565Y-91044264D02*
X197192565Y-90777598D01*
X197192565Y-90777598D02*
X197344946Y-90777598D01*
X196849708Y-91120455D02*
X196849708Y-90320455D01*
X196849708Y-90320455D02*
X196392565Y-91120455D01*
X196392565Y-91120455D02*
X196392565Y-90320455D01*
X196011613Y-91120455D02*
X196011613Y-90320455D01*
X196011613Y-90320455D02*
X195821137Y-90320455D01*
X195821137Y-90320455D02*
X195706851Y-90358550D01*
X195706851Y-90358550D02*
X195630661Y-90434740D01*
X195630661Y-90434740D02*
X195592566Y-90510931D01*
X195592566Y-90510931D02*
X195554470Y-90663312D01*
X195554470Y-90663312D02*
X195554470Y-90777598D01*
X195554470Y-90777598D02*
X195592566Y-90929979D01*
X195592566Y-90929979D02*
X195630661Y-91006169D01*
X195630661Y-91006169D02*
X195706851Y-91082360D01*
X195706851Y-91082360D02*
X195821137Y-91120455D01*
X195821137Y-91120455D02*
X196011613Y-91120455D01*
X222851939Y-134577950D02*
X222932751Y-134604887D01*
X222932751Y-134604887D02*
X223013563Y-134685699D01*
X223013563Y-134685699D02*
X223067438Y-134793449D01*
X223067438Y-134793449D02*
X223067438Y-134901199D01*
X223067438Y-134901199D02*
X223040501Y-134982011D01*
X223040501Y-134982011D02*
X222959689Y-135116698D01*
X222959689Y-135116698D02*
X222878876Y-135197510D01*
X222878876Y-135197510D02*
X222744189Y-135278322D01*
X222744189Y-135278322D02*
X222663377Y-135305260D01*
X222663377Y-135305260D02*
X222555628Y-135305260D01*
X222555628Y-135305260D02*
X222447878Y-135251385D01*
X222447878Y-135251385D02*
X222394003Y-135197510D01*
X222394003Y-135197510D02*
X222340128Y-135089760D01*
X222340128Y-135089760D02*
X222340128Y-135035886D01*
X222340128Y-135035886D02*
X222528690Y-134847324D01*
X222528690Y-134847324D02*
X222636440Y-134955073D01*
X222043817Y-134847324D02*
X222609502Y-134281638D01*
X222609502Y-134281638D02*
X221720568Y-134524075D01*
X221720568Y-134524075D02*
X222286254Y-133958390D01*
X221451194Y-134254701D02*
X222016880Y-133689016D01*
X222016880Y-133689016D02*
X221882193Y-133554329D01*
X221882193Y-133554329D02*
X221774443Y-133500454D01*
X221774443Y-133500454D02*
X221666694Y-133500454D01*
X221666694Y-133500454D02*
X221585881Y-133527391D01*
X221585881Y-133527391D02*
X221451194Y-133608204D01*
X221451194Y-133608204D02*
X221370382Y-133689016D01*
X221370382Y-133689016D02*
X221289570Y-133823703D01*
X221289570Y-133823703D02*
X221262633Y-133904515D01*
X221262633Y-133904515D02*
X221262633Y-134012265D01*
X221262633Y-134012265D02*
X221316507Y-134120014D01*
X221316507Y-134120014D02*
X221451194Y-134254701D01*
X228491974Y-129686106D02*
X228491974Y-129739981D01*
X228491974Y-129739981D02*
X228545848Y-129847730D01*
X228545848Y-129847730D02*
X228599723Y-129901605D01*
X228599723Y-129901605D02*
X228707473Y-129955480D01*
X228707473Y-129955480D02*
X228815222Y-129955480D01*
X228815222Y-129955480D02*
X228896035Y-129928542D01*
X228896035Y-129928542D02*
X229030722Y-129847730D01*
X229030722Y-129847730D02*
X229111534Y-129766918D01*
X229111534Y-129766918D02*
X229192346Y-129632231D01*
X229192346Y-129632231D02*
X229219283Y-129551419D01*
X229219283Y-129551419D02*
X229219283Y-129443669D01*
X229219283Y-129443669D02*
X229165409Y-129335920D01*
X229165409Y-129335920D02*
X229111534Y-129282045D01*
X229111534Y-129282045D02*
X229003784Y-129228170D01*
X229003784Y-129228170D02*
X228949909Y-129228170D01*
X227899351Y-129201233D02*
X228222600Y-129524481D01*
X228060975Y-129362857D02*
X228626661Y-128797172D01*
X228626661Y-128797172D02*
X228599723Y-128931859D01*
X228599723Y-128931859D02*
X228599723Y-129039608D01*
X228599723Y-129039608D02*
X228626661Y-129120420D01*
X195819940Y-114716591D02*
X195900752Y-114743528D01*
X195900752Y-114743528D02*
X195981564Y-114824340D01*
X195981564Y-114824340D02*
X196035439Y-114932090D01*
X196035439Y-114932090D02*
X196035439Y-115039840D01*
X196035439Y-115039840D02*
X196008502Y-115120652D01*
X196008502Y-115120652D02*
X195927690Y-115255339D01*
X195927690Y-115255339D02*
X195846877Y-115336151D01*
X195846877Y-115336151D02*
X195712190Y-115416963D01*
X195712190Y-115416963D02*
X195631378Y-115443901D01*
X195631378Y-115443901D02*
X195523629Y-115443901D01*
X195523629Y-115443901D02*
X195415879Y-115390026D01*
X195415879Y-115390026D02*
X195362004Y-115336151D01*
X195362004Y-115336151D02*
X195308129Y-115228401D01*
X195308129Y-115228401D02*
X195308129Y-115174527D01*
X195308129Y-115174527D02*
X195496691Y-114985965D01*
X195496691Y-114985965D02*
X195604441Y-115093714D01*
X195011818Y-114985965D02*
X195577503Y-114420279D01*
X195577503Y-114420279D02*
X194688569Y-114662716D01*
X194688569Y-114662716D02*
X195254255Y-114097031D01*
X194419195Y-114393342D02*
X194984881Y-113827657D01*
X194984881Y-113827657D02*
X194850194Y-113692970D01*
X194850194Y-113692970D02*
X194742444Y-113639095D01*
X194742444Y-113639095D02*
X194634695Y-113639095D01*
X194634695Y-113639095D02*
X194553882Y-113666032D01*
X194553882Y-113666032D02*
X194419195Y-113746845D01*
X194419195Y-113746845D02*
X194338383Y-113827657D01*
X194338383Y-113827657D02*
X194257571Y-113962344D01*
X194257571Y-113962344D02*
X194230634Y-114043156D01*
X194230634Y-114043156D02*
X194230634Y-114150906D01*
X194230634Y-114150906D02*
X194284508Y-114258655D01*
X194284508Y-114258655D02*
X194419195Y-114393342D01*
X217463378Y-114797951D02*
X217544190Y-114824888D01*
X217544190Y-114824888D02*
X217625002Y-114905700D01*
X217625002Y-114905700D02*
X217678877Y-115013450D01*
X217678877Y-115013450D02*
X217678877Y-115121200D01*
X217678877Y-115121200D02*
X217651940Y-115202012D01*
X217651940Y-115202012D02*
X217571128Y-115336699D01*
X217571128Y-115336699D02*
X217490315Y-115417511D01*
X217490315Y-115417511D02*
X217355628Y-115498323D01*
X217355628Y-115498323D02*
X217274816Y-115525261D01*
X217274816Y-115525261D02*
X217167067Y-115525261D01*
X217167067Y-115525261D02*
X217059317Y-115471386D01*
X217059317Y-115471386D02*
X217005442Y-115417511D01*
X217005442Y-115417511D02*
X216951567Y-115309761D01*
X216951567Y-115309761D02*
X216951567Y-115255887D01*
X216951567Y-115255887D02*
X217140129Y-115067325D01*
X217140129Y-115067325D02*
X217247879Y-115175074D01*
X216655256Y-115067325D02*
X217220941Y-114501639D01*
X217220941Y-114501639D02*
X216332007Y-114744076D01*
X216332007Y-114744076D02*
X216897693Y-114178391D01*
X216062633Y-114474702D02*
X216628319Y-113909017D01*
X216628319Y-113909017D02*
X216493632Y-113774330D01*
X216493632Y-113774330D02*
X216385882Y-113720455D01*
X216385882Y-113720455D02*
X216278133Y-113720455D01*
X216278133Y-113720455D02*
X216197320Y-113747392D01*
X216197320Y-113747392D02*
X216062633Y-113828205D01*
X216062633Y-113828205D02*
X215981821Y-113909017D01*
X215981821Y-113909017D02*
X215901009Y-114043704D01*
X215901009Y-114043704D02*
X215874072Y-114124516D01*
X215874072Y-114124516D02*
X215874072Y-114232266D01*
X215874072Y-114232266D02*
X215927946Y-114340015D01*
X215927946Y-114340015D02*
X216062633Y-114474702D01*
X183390675Y-124838622D02*
X183848611Y-124757809D01*
X183713924Y-125161870D02*
X184279609Y-124596185D01*
X184279609Y-124596185D02*
X184064110Y-124380686D01*
X184064110Y-124380686D02*
X183983298Y-124353748D01*
X183983298Y-124353748D02*
X183929423Y-124353748D01*
X183929423Y-124353748D02*
X183848611Y-124380686D01*
X183848611Y-124380686D02*
X183767798Y-124461498D01*
X183767798Y-124461498D02*
X183740861Y-124542310D01*
X183740861Y-124542310D02*
X183740861Y-124596185D01*
X183740861Y-124596185D02*
X183767798Y-124676997D01*
X183767798Y-124676997D02*
X183983298Y-124892496D01*
X182851927Y-124299874D02*
X183175176Y-124623122D01*
X183013551Y-124461498D02*
X183579237Y-123895813D01*
X183579237Y-123895813D02*
X183552299Y-124030500D01*
X183552299Y-124030500D02*
X183552299Y-124138249D01*
X183552299Y-124138249D02*
X183579237Y-124219061D01*
X222205442Y-121527764D02*
X222474816Y-121797138D01*
X222474816Y-121797138D02*
X222232379Y-122093449D01*
X222232379Y-122093449D02*
X222232379Y-122039574D01*
X222232379Y-122039574D02*
X222205442Y-121958762D01*
X222205442Y-121958762D02*
X222070755Y-121824075D01*
X222070755Y-121824075D02*
X221989943Y-121797138D01*
X221989943Y-121797138D02*
X221936068Y-121797138D01*
X221936068Y-121797138D02*
X221855256Y-121824075D01*
X221855256Y-121824075D02*
X221720569Y-121958762D01*
X221720569Y-121958762D02*
X221693631Y-122039574D01*
X221693631Y-122039574D02*
X221693631Y-122093449D01*
X221693631Y-122093449D02*
X221720569Y-122174261D01*
X221720569Y-122174261D02*
X221855256Y-122308948D01*
X221855256Y-122308948D02*
X221936068Y-122335886D01*
X221936068Y-122335886D02*
X221989943Y-122335886D01*
X222016880Y-121339202D02*
X221262633Y-121716325D01*
X221262633Y-121716325D02*
X221639756Y-120962078D01*
X197268756Y-94420455D02*
X197649708Y-94420455D01*
X197649708Y-94420455D02*
X197687804Y-94801407D01*
X197687804Y-94801407D02*
X197649708Y-94763312D01*
X197649708Y-94763312D02*
X197573518Y-94725217D01*
X197573518Y-94725217D02*
X197383042Y-94725217D01*
X197383042Y-94725217D02*
X197306851Y-94763312D01*
X197306851Y-94763312D02*
X197268756Y-94801407D01*
X197268756Y-94801407D02*
X197230661Y-94877598D01*
X197230661Y-94877598D02*
X197230661Y-95068074D01*
X197230661Y-95068074D02*
X197268756Y-95144264D01*
X197268756Y-95144264D02*
X197306851Y-95182360D01*
X197306851Y-95182360D02*
X197383042Y-95220455D01*
X197383042Y-95220455D02*
X197573518Y-95220455D01*
X197573518Y-95220455D02*
X197649708Y-95182360D01*
X197649708Y-95182360D02*
X197687804Y-95144264D01*
X197002089Y-94420455D02*
X196735422Y-95220455D01*
X196735422Y-95220455D02*
X196468756Y-94420455D01*
X228438099Y-124659981D02*
X228896035Y-124579168D01*
X228761348Y-124983229D02*
X229327033Y-124417544D01*
X229327033Y-124417544D02*
X229111534Y-124202045D01*
X229111534Y-124202045D02*
X229030722Y-124175107D01*
X229030722Y-124175107D02*
X228976847Y-124175107D01*
X228976847Y-124175107D02*
X228896035Y-124202045D01*
X228896035Y-124202045D02*
X228815222Y-124282857D01*
X228815222Y-124282857D02*
X228788285Y-124363669D01*
X228788285Y-124363669D02*
X228788285Y-124417544D01*
X228788285Y-124417544D02*
X228815222Y-124498356D01*
X228815222Y-124498356D02*
X229030722Y-124713855D01*
X227899351Y-124121233D02*
X228222600Y-124444481D01*
X228060975Y-124282857D02*
X228626661Y-123717172D01*
X228626661Y-123717172D02*
X228599723Y-123851859D01*
X228599723Y-123851859D02*
X228599723Y-123959608D01*
X228599723Y-123959608D02*
X228626661Y-124040420D01*
X178468350Y-129884747D02*
X178468350Y-129938622D01*
X178468350Y-129938622D02*
X178522224Y-130046371D01*
X178522224Y-130046371D02*
X178576099Y-130100246D01*
X178576099Y-130100246D02*
X178683849Y-130154121D01*
X178683849Y-130154121D02*
X178791598Y-130154121D01*
X178791598Y-130154121D02*
X178872411Y-130127183D01*
X178872411Y-130127183D02*
X179007098Y-130046371D01*
X179007098Y-130046371D02*
X179087910Y-129965559D01*
X179087910Y-129965559D02*
X179168722Y-129830872D01*
X179168722Y-129830872D02*
X179195659Y-129750060D01*
X179195659Y-129750060D02*
X179195659Y-129642310D01*
X179195659Y-129642310D02*
X179141785Y-129534561D01*
X179141785Y-129534561D02*
X179087910Y-129480686D01*
X179087910Y-129480686D02*
X178980160Y-129426811D01*
X178980160Y-129426811D02*
X178926285Y-129426811D01*
X178468350Y-128861126D02*
X178737724Y-129130500D01*
X178737724Y-129130500D02*
X178495287Y-129426811D01*
X178495287Y-129426811D02*
X178495287Y-129372936D01*
X178495287Y-129372936D02*
X178468350Y-129292124D01*
X178468350Y-129292124D02*
X178333663Y-129157437D01*
X178333663Y-129157437D02*
X178252850Y-129130500D01*
X178252850Y-129130500D02*
X178198976Y-129130500D01*
X178198976Y-129130500D02*
X178118163Y-129157437D01*
X178118163Y-129157437D02*
X177983476Y-129292124D01*
X177983476Y-129292124D02*
X177956539Y-129372936D01*
X177956539Y-129372936D02*
X177956539Y-129426811D01*
X177956539Y-129426811D02*
X177983476Y-129507623D01*
X177983476Y-129507623D02*
X178118163Y-129642310D01*
X178118163Y-129642310D02*
X178198976Y-129669248D01*
X178198976Y-129669248D02*
X178252850Y-129669248D01*
X233335774Y-127246108D02*
X233335774Y-127299983D01*
X233335774Y-127299983D02*
X233389648Y-127407732D01*
X233389648Y-127407732D02*
X233443523Y-127461607D01*
X233443523Y-127461607D02*
X233551273Y-127515482D01*
X233551273Y-127515482D02*
X233659022Y-127515482D01*
X233659022Y-127515482D02*
X233739835Y-127488544D01*
X233739835Y-127488544D02*
X233874522Y-127407732D01*
X233874522Y-127407732D02*
X233955334Y-127326920D01*
X233955334Y-127326920D02*
X234036146Y-127192233D01*
X234036146Y-127192233D02*
X234063083Y-127111421D01*
X234063083Y-127111421D02*
X234063083Y-127003671D01*
X234063083Y-127003671D02*
X234009209Y-126895922D01*
X234009209Y-126895922D02*
X233955334Y-126842047D01*
X233955334Y-126842047D02*
X233847584Y-126788172D01*
X233847584Y-126788172D02*
X233793709Y-126788172D01*
X233174149Y-126437986D02*
X232797025Y-126815109D01*
X233524335Y-126357174D02*
X233254961Y-126895922D01*
X233254961Y-126895922D02*
X232904775Y-126545735D01*
X171213128Y-105391493D02*
X171213128Y-105124827D01*
X170794080Y-105010541D02*
X170794080Y-105391493D01*
X170794080Y-105391493D02*
X171594080Y-105391493D01*
X171594080Y-105391493D02*
X171594080Y-105010541D01*
X170794080Y-104286731D02*
X170794080Y-104667683D01*
X170794080Y-104667683D02*
X171594080Y-104667683D01*
X170794080Y-104020064D02*
X171594080Y-104020064D01*
X171594080Y-103753398D02*
X171594080Y-103296255D01*
X170794080Y-103524827D02*
X171594080Y-103524827D01*
X171213128Y-103029588D02*
X171213128Y-102762922D01*
X170794080Y-102648636D02*
X170794080Y-103029588D01*
X170794080Y-103029588D02*
X171594080Y-103029588D01*
X171594080Y-103029588D02*
X171594080Y-102648636D01*
X171098842Y-102305778D02*
X171098842Y-101696255D01*
X170870271Y-100858159D02*
X170832176Y-100896255D01*
X170832176Y-100896255D02*
X170794080Y-101010540D01*
X170794080Y-101010540D02*
X170794080Y-101086731D01*
X170794080Y-101086731D02*
X170832176Y-101201017D01*
X170832176Y-101201017D02*
X170908366Y-101277207D01*
X170908366Y-101277207D02*
X170984556Y-101315302D01*
X170984556Y-101315302D02*
X171136937Y-101353398D01*
X171136937Y-101353398D02*
X171251223Y-101353398D01*
X171251223Y-101353398D02*
X171403604Y-101315302D01*
X171403604Y-101315302D02*
X171479795Y-101277207D01*
X171479795Y-101277207D02*
X171555985Y-101201017D01*
X171555985Y-101201017D02*
X171594080Y-101086731D01*
X171594080Y-101086731D02*
X171594080Y-101010540D01*
X171594080Y-101010540D02*
X171555985Y-100896255D01*
X171555985Y-100896255D02*
X171517890Y-100858159D01*
X170794080Y-99905778D02*
X171594080Y-99905778D01*
X171213128Y-99905778D02*
X171213128Y-99448635D01*
X170794080Y-99448635D02*
X171594080Y-99448635D01*
X171594080Y-98915302D02*
X171594080Y-98762921D01*
X171594080Y-98762921D02*
X171555985Y-98686731D01*
X171555985Y-98686731D02*
X171479795Y-98610540D01*
X171479795Y-98610540D02*
X171327414Y-98572445D01*
X171327414Y-98572445D02*
X171060747Y-98572445D01*
X171060747Y-98572445D02*
X170908366Y-98610540D01*
X170908366Y-98610540D02*
X170832176Y-98686731D01*
X170832176Y-98686731D02*
X170794080Y-98762921D01*
X170794080Y-98762921D02*
X170794080Y-98915302D01*
X170794080Y-98915302D02*
X170832176Y-98991493D01*
X170832176Y-98991493D02*
X170908366Y-99067683D01*
X170908366Y-99067683D02*
X171060747Y-99105779D01*
X171060747Y-99105779D02*
X171327414Y-99105779D01*
X171327414Y-99105779D02*
X171479795Y-99067683D01*
X171479795Y-99067683D02*
X171555985Y-98991493D01*
X171555985Y-98991493D02*
X171594080Y-98915302D01*
X170794080Y-97848636D02*
X170794080Y-98229588D01*
X170794080Y-98229588D02*
X171594080Y-98229588D01*
X170794080Y-97581969D02*
X171594080Y-97581969D01*
X171594080Y-97581969D02*
X171594080Y-97391493D01*
X171594080Y-97391493D02*
X171555985Y-97277207D01*
X171555985Y-97277207D02*
X171479795Y-97201017D01*
X171479795Y-97201017D02*
X171403604Y-97162922D01*
X171403604Y-97162922D02*
X171251223Y-97124826D01*
X171251223Y-97124826D02*
X171136937Y-97124826D01*
X171136937Y-97124826D02*
X170984556Y-97162922D01*
X170984556Y-97162922D02*
X170908366Y-97201017D01*
X170908366Y-97201017D02*
X170832176Y-97277207D01*
X170832176Y-97277207D02*
X170794080Y-97391493D01*
X170794080Y-97391493D02*
X170794080Y-97581969D01*
X171213128Y-96781969D02*
X171213128Y-96515303D01*
X170794080Y-96401017D02*
X170794080Y-96781969D01*
X170794080Y-96781969D02*
X171594080Y-96781969D01*
X171594080Y-96781969D02*
X171594080Y-96401017D01*
X170794080Y-95601016D02*
X171175033Y-95867683D01*
X170794080Y-96058159D02*
X171594080Y-96058159D01*
X171594080Y-96058159D02*
X171594080Y-95753397D01*
X171594080Y-95753397D02*
X171555985Y-95677207D01*
X171555985Y-95677207D02*
X171517890Y-95639112D01*
X171517890Y-95639112D02*
X171441699Y-95601016D01*
X171441699Y-95601016D02*
X171327414Y-95601016D01*
X171327414Y-95601016D02*
X171251223Y-95639112D01*
X171251223Y-95639112D02*
X171213128Y-95677207D01*
X171213128Y-95677207D02*
X171175033Y-95753397D01*
X171175033Y-95753397D02*
X171175033Y-96058159D01*
X171517890Y-94686731D02*
X171555985Y-94648635D01*
X171555985Y-94648635D02*
X171594080Y-94572445D01*
X171594080Y-94572445D02*
X171594080Y-94381969D01*
X171594080Y-94381969D02*
X171555985Y-94305778D01*
X171555985Y-94305778D02*
X171517890Y-94267683D01*
X171517890Y-94267683D02*
X171441699Y-94229588D01*
X171441699Y-94229588D02*
X171365509Y-94229588D01*
X171365509Y-94229588D02*
X171251223Y-94267683D01*
X171251223Y-94267683D02*
X170794080Y-94724826D01*
X170794080Y-94724826D02*
X170794080Y-94229588D01*
X170870271Y-93886730D02*
X170832176Y-93848635D01*
X170832176Y-93848635D02*
X170794080Y-93886730D01*
X170794080Y-93886730D02*
X170832176Y-93924826D01*
X170832176Y-93924826D02*
X170870271Y-93886730D01*
X170870271Y-93886730D02*
X170794080Y-93886730D01*
X170794080Y-93086731D02*
X170794080Y-93543874D01*
X170794080Y-93315302D02*
X171594080Y-93315302D01*
X171594080Y-93315302D02*
X171479795Y-93391493D01*
X171479795Y-93391493D02*
X171403604Y-93467683D01*
X171403604Y-93467683D02*
X171365509Y-93543874D01*
X217220942Y-118024854D02*
X217786627Y-117459169D01*
X217786627Y-117459169D02*
X217651940Y-117324482D01*
X217651940Y-117324482D02*
X217544190Y-117270607D01*
X217544190Y-117270607D02*
X217436441Y-117270607D01*
X217436441Y-117270607D02*
X217355629Y-117297545D01*
X217355629Y-117297545D02*
X217220942Y-117378357D01*
X217220942Y-117378357D02*
X217140129Y-117459169D01*
X217140129Y-117459169D02*
X217059317Y-117593856D01*
X217059317Y-117593856D02*
X217032380Y-117674668D01*
X217032380Y-117674668D02*
X217032380Y-117782418D01*
X217032380Y-117782418D02*
X217086255Y-117890167D01*
X217086255Y-117890167D02*
X217220942Y-118024854D01*
X216655256Y-117459169D02*
X217220942Y-116893484D01*
X216385882Y-117189795D02*
X216951568Y-116624110D01*
X216951568Y-116624110D02*
X216062634Y-116866546D01*
X216062634Y-116866546D02*
X216628319Y-116300861D01*
X217517253Y-111907765D02*
X217786627Y-112177139D01*
X217786627Y-112177139D02*
X217544190Y-112473450D01*
X217544190Y-112473450D02*
X217544190Y-112419575D01*
X217544190Y-112419575D02*
X217517253Y-112338763D01*
X217517253Y-112338763D02*
X217382566Y-112204076D01*
X217382566Y-112204076D02*
X217301754Y-112177139D01*
X217301754Y-112177139D02*
X217247879Y-112177139D01*
X217247879Y-112177139D02*
X217167067Y-112204076D01*
X217167067Y-112204076D02*
X217032380Y-112338763D01*
X217032380Y-112338763D02*
X217005442Y-112419575D01*
X217005442Y-112419575D02*
X217005442Y-112473450D01*
X217005442Y-112473450D02*
X217032380Y-112554262D01*
X217032380Y-112554262D02*
X217167067Y-112688949D01*
X217167067Y-112688949D02*
X217247879Y-112715887D01*
X217247879Y-112715887D02*
X217301754Y-112715887D01*
X217328691Y-111719203D02*
X216574444Y-112096326D01*
X216574444Y-112096326D02*
X216951567Y-111342079D01*
X190335328Y-128233273D02*
X190901014Y-127667588D01*
X190901014Y-127667588D02*
X190308391Y-127883087D01*
X190308391Y-127883087D02*
X190523890Y-127290464D01*
X190523890Y-127290464D02*
X189958205Y-127856150D01*
X190146766Y-126913340D02*
X190039017Y-126805591D01*
X190039017Y-126805591D02*
X189958204Y-126778653D01*
X189958204Y-126778653D02*
X189850455Y-126778653D01*
X189850455Y-126778653D02*
X189715768Y-126859465D01*
X189715768Y-126859465D02*
X189527206Y-127048027D01*
X189527206Y-127048027D02*
X189446394Y-127182714D01*
X189446394Y-127182714D02*
X189446394Y-127290464D01*
X189446394Y-127290464D02*
X189473331Y-127371276D01*
X189473331Y-127371276D02*
X189581081Y-127479026D01*
X189581081Y-127479026D02*
X189661893Y-127505963D01*
X189661893Y-127505963D02*
X189769643Y-127505963D01*
X189769643Y-127505963D02*
X189904330Y-127425151D01*
X189904330Y-127425151D02*
X190092891Y-127236589D01*
X190092891Y-127236589D02*
X190173704Y-127101902D01*
X190173704Y-127101902D02*
X190173704Y-126994152D01*
X190173704Y-126994152D02*
X190146766Y-126913340D01*
X189150083Y-126994153D02*
X189042333Y-126940278D01*
X189042333Y-126940278D02*
X188907646Y-126805591D01*
X188907646Y-126805591D02*
X188880709Y-126724779D01*
X188880709Y-126724779D02*
X188880709Y-126670904D01*
X188880709Y-126670904D02*
X188907646Y-126590092D01*
X188907646Y-126590092D02*
X188961521Y-126536217D01*
X188961521Y-126536217D02*
X189042333Y-126509279D01*
X189042333Y-126509279D02*
X189096208Y-126509279D01*
X189096208Y-126509279D02*
X189177020Y-126536217D01*
X189177020Y-126536217D02*
X189311707Y-126617029D01*
X189311707Y-126617029D02*
X189392519Y-126643966D01*
X189392519Y-126643966D02*
X189446394Y-126643966D01*
X189446394Y-126643966D02*
X189527206Y-126617029D01*
X189527206Y-126617029D02*
X189581081Y-126563154D01*
X189581081Y-126563154D02*
X189608018Y-126482342D01*
X189608018Y-126482342D02*
X189608018Y-126428467D01*
X189608018Y-126428467D02*
X189581081Y-126347655D01*
X189581081Y-126347655D02*
X189446394Y-126212968D01*
X189446394Y-126212968D02*
X189338644Y-126159093D01*
X188557460Y-126455404D02*
X189123145Y-125889719D01*
X190577764Y-134856590D02*
X190658576Y-134883527D01*
X190658576Y-134883527D02*
X190739388Y-134964339D01*
X190739388Y-134964339D02*
X190793263Y-135072089D01*
X190793263Y-135072089D02*
X190793263Y-135179839D01*
X190793263Y-135179839D02*
X190766326Y-135260651D01*
X190766326Y-135260651D02*
X190685514Y-135395338D01*
X190685514Y-135395338D02*
X190604701Y-135476150D01*
X190604701Y-135476150D02*
X190470014Y-135556962D01*
X190470014Y-135556962D02*
X190389202Y-135583900D01*
X190389202Y-135583900D02*
X190281453Y-135583900D01*
X190281453Y-135583900D02*
X190173703Y-135530025D01*
X190173703Y-135530025D02*
X190119828Y-135476150D01*
X190119828Y-135476150D02*
X190065953Y-135368400D01*
X190065953Y-135368400D02*
X190065953Y-135314526D01*
X190065953Y-135314526D02*
X190254515Y-135125964D01*
X190254515Y-135125964D02*
X190362265Y-135233713D01*
X189769642Y-135125964D02*
X190335327Y-134560278D01*
X190335327Y-134560278D02*
X189446393Y-134802715D01*
X189446393Y-134802715D02*
X190012079Y-134237030D01*
X189177019Y-134533341D02*
X189742705Y-133967656D01*
X189742705Y-133967656D02*
X189608018Y-133832969D01*
X189608018Y-133832969D02*
X189500268Y-133779094D01*
X189500268Y-133779094D02*
X189392519Y-133779094D01*
X189392519Y-133779094D02*
X189311706Y-133806031D01*
X189311706Y-133806031D02*
X189177019Y-133886844D01*
X189177019Y-133886844D02*
X189096207Y-133967656D01*
X189096207Y-133967656D02*
X189015395Y-134102343D01*
X189015395Y-134102343D02*
X188988458Y-134183155D01*
X188988458Y-134183155D02*
X188988458Y-134290905D01*
X188988458Y-134290905D02*
X189042332Y-134398654D01*
X189042332Y-134398654D02*
X189177019Y-134533341D01*
X233281899Y-124759983D02*
X233739835Y-124679170D01*
X233605148Y-125083231D02*
X234170833Y-124517546D01*
X234170833Y-124517546D02*
X233955334Y-124302047D01*
X233955334Y-124302047D02*
X233874522Y-124275109D01*
X233874522Y-124275109D02*
X233820647Y-124275109D01*
X233820647Y-124275109D02*
X233739835Y-124302047D01*
X233739835Y-124302047D02*
X233659022Y-124382859D01*
X233659022Y-124382859D02*
X233632085Y-124463671D01*
X233632085Y-124463671D02*
X233632085Y-124517546D01*
X233632085Y-124517546D02*
X233659022Y-124598358D01*
X233659022Y-124598358D02*
X233874522Y-124813857D01*
X233659022Y-124005735D02*
X233308836Y-123655549D01*
X233308836Y-123655549D02*
X233281899Y-124059610D01*
X233281899Y-124059610D02*
X233201087Y-123978798D01*
X233201087Y-123978798D02*
X233120274Y-123951861D01*
X233120274Y-123951861D02*
X233066400Y-123951861D01*
X233066400Y-123951861D02*
X232985587Y-123978798D01*
X232985587Y-123978798D02*
X232850900Y-124113485D01*
X232850900Y-124113485D02*
X232823963Y-124194297D01*
X232823963Y-124194297D02*
X232823963Y-124248172D01*
X232823963Y-124248172D02*
X232850900Y-124328984D01*
X232850900Y-124328984D02*
X233012525Y-124490609D01*
X233012525Y-124490609D02*
X233093337Y-124517546D01*
X233093337Y-124517546D02*
X233147212Y-124517546D01*
X197687804Y-88182360D02*
X197573518Y-88220455D01*
X197573518Y-88220455D02*
X197383042Y-88220455D01*
X197383042Y-88220455D02*
X197306851Y-88182360D01*
X197306851Y-88182360D02*
X197268756Y-88144264D01*
X197268756Y-88144264D02*
X197230661Y-88068074D01*
X197230661Y-88068074D02*
X197230661Y-87991883D01*
X197230661Y-87991883D02*
X197268756Y-87915693D01*
X197268756Y-87915693D02*
X197306851Y-87877598D01*
X197306851Y-87877598D02*
X197383042Y-87839502D01*
X197383042Y-87839502D02*
X197535423Y-87801407D01*
X197535423Y-87801407D02*
X197611613Y-87763312D01*
X197611613Y-87763312D02*
X197649708Y-87725217D01*
X197649708Y-87725217D02*
X197687804Y-87649026D01*
X197687804Y-87649026D02*
X197687804Y-87572836D01*
X197687804Y-87572836D02*
X197649708Y-87496645D01*
X197649708Y-87496645D02*
X197611613Y-87458550D01*
X197611613Y-87458550D02*
X197535423Y-87420455D01*
X197535423Y-87420455D02*
X197344946Y-87420455D01*
X197344946Y-87420455D02*
X197230661Y-87458550D01*
X217401428Y-88113720D02*
X217287142Y-88151815D01*
X217287142Y-88151815D02*
X217096666Y-88151815D01*
X217096666Y-88151815D02*
X217020475Y-88113720D01*
X217020475Y-88113720D02*
X216982380Y-88075624D01*
X216982380Y-88075624D02*
X216944285Y-87999434D01*
X216944285Y-87999434D02*
X216944285Y-87923243D01*
X216944285Y-87923243D02*
X216982380Y-87847053D01*
X216982380Y-87847053D02*
X217020475Y-87808958D01*
X217020475Y-87808958D02*
X217096666Y-87770862D01*
X217096666Y-87770862D02*
X217249047Y-87732767D01*
X217249047Y-87732767D02*
X217325237Y-87694672D01*
X217325237Y-87694672D02*
X217363332Y-87656577D01*
X217363332Y-87656577D02*
X217401428Y-87580386D01*
X217401428Y-87580386D02*
X217401428Y-87504196D01*
X217401428Y-87504196D02*
X217363332Y-87428005D01*
X217363332Y-87428005D02*
X217325237Y-87389910D01*
X217325237Y-87389910D02*
X217249047Y-87351815D01*
X217249047Y-87351815D02*
X217058570Y-87351815D01*
X217058570Y-87351815D02*
X216944285Y-87389910D01*
X190335328Y-133313273D02*
X190901014Y-132747588D01*
X190901014Y-132747588D02*
X190308391Y-132963087D01*
X190308391Y-132963087D02*
X190523890Y-132370464D01*
X190523890Y-132370464D02*
X189958205Y-132936150D01*
X189688830Y-132666775D02*
X190254516Y-132101090D01*
X189473332Y-132397402D02*
X189365582Y-132343527D01*
X189365582Y-132343527D02*
X189230895Y-132208840D01*
X189230895Y-132208840D02*
X189203958Y-132128028D01*
X189203958Y-132128028D02*
X189203958Y-132074153D01*
X189203958Y-132074153D02*
X189230895Y-131993341D01*
X189230895Y-131993341D02*
X189284770Y-131939466D01*
X189284770Y-131939466D02*
X189365582Y-131912528D01*
X189365582Y-131912528D02*
X189419457Y-131912528D01*
X189419457Y-131912528D02*
X189500269Y-131939466D01*
X189500269Y-131939466D02*
X189634956Y-132020278D01*
X189634956Y-132020278D02*
X189715768Y-132047215D01*
X189715768Y-132047215D02*
X189769643Y-132047215D01*
X189769643Y-132047215D02*
X189850455Y-132020278D01*
X189850455Y-132020278D02*
X189904330Y-131966403D01*
X189904330Y-131966403D02*
X189931267Y-131885591D01*
X189931267Y-131885591D02*
X189931267Y-131831716D01*
X189931267Y-131831716D02*
X189904330Y-131750904D01*
X189904330Y-131750904D02*
X189769643Y-131616217D01*
X189769643Y-131616217D02*
X189661893Y-131562342D01*
X189338644Y-131185218D02*
X189230895Y-131077469D01*
X189230895Y-131077469D02*
X189150083Y-131050531D01*
X189150083Y-131050531D02*
X189042333Y-131050531D01*
X189042333Y-131050531D02*
X188907646Y-131131344D01*
X188907646Y-131131344D02*
X188719084Y-131319905D01*
X188719084Y-131319905D02*
X188638272Y-131454592D01*
X188638272Y-131454592D02*
X188638272Y-131562342D01*
X188638272Y-131562342D02*
X188665209Y-131643154D01*
X188665209Y-131643154D02*
X188772959Y-131750904D01*
X188772959Y-131750904D02*
X188853771Y-131777841D01*
X188853771Y-131777841D02*
X188961521Y-131777841D01*
X188961521Y-131777841D02*
X189096208Y-131697029D01*
X189096208Y-131697029D02*
X189284770Y-131508467D01*
X189284770Y-131508467D02*
X189365582Y-131373780D01*
X189365582Y-131373780D02*
X189365582Y-131266031D01*
X189365582Y-131266031D02*
X189338644Y-131185218D01*
X216982380Y-94351815D02*
X217363332Y-94351815D01*
X217363332Y-94351815D02*
X217401428Y-94732767D01*
X217401428Y-94732767D02*
X217363332Y-94694672D01*
X217363332Y-94694672D02*
X217287142Y-94656577D01*
X217287142Y-94656577D02*
X217096666Y-94656577D01*
X217096666Y-94656577D02*
X217020475Y-94694672D01*
X217020475Y-94694672D02*
X216982380Y-94732767D01*
X216982380Y-94732767D02*
X216944285Y-94808958D01*
X216944285Y-94808958D02*
X216944285Y-94999434D01*
X216944285Y-94999434D02*
X216982380Y-95075624D01*
X216982380Y-95075624D02*
X217020475Y-95113720D01*
X217020475Y-95113720D02*
X217096666Y-95151815D01*
X217096666Y-95151815D02*
X217287142Y-95151815D01*
X217287142Y-95151815D02*
X217363332Y-95113720D01*
X217363332Y-95113720D02*
X217401428Y-95075624D01*
X216715713Y-94351815D02*
X216449046Y-95151815D01*
X216449046Y-95151815D02*
X216182380Y-94351815D01*
X190065954Y-124844746D02*
X190065954Y-124898621D01*
X190065954Y-124898621D02*
X190119828Y-125006370D01*
X190119828Y-125006370D02*
X190173703Y-125060245D01*
X190173703Y-125060245D02*
X190281453Y-125114120D01*
X190281453Y-125114120D02*
X190389202Y-125114120D01*
X190389202Y-125114120D02*
X190470015Y-125087182D01*
X190470015Y-125087182D02*
X190604702Y-125006370D01*
X190604702Y-125006370D02*
X190685514Y-124925558D01*
X190685514Y-124925558D02*
X190766326Y-124790871D01*
X190766326Y-124790871D02*
X190793263Y-124710059D01*
X190793263Y-124710059D02*
X190793263Y-124602309D01*
X190793263Y-124602309D02*
X190739389Y-124494560D01*
X190739389Y-124494560D02*
X190685514Y-124440685D01*
X190685514Y-124440685D02*
X190577764Y-124386810D01*
X190577764Y-124386810D02*
X190523889Y-124386810D01*
X189823517Y-124656184D02*
X189715767Y-124602309D01*
X189715767Y-124602309D02*
X189581080Y-124467622D01*
X189581080Y-124467622D02*
X189554143Y-124386810D01*
X189554143Y-124386810D02*
X189554143Y-124332935D01*
X189554143Y-124332935D02*
X189581080Y-124252123D01*
X189581080Y-124252123D02*
X189634955Y-124198248D01*
X189634955Y-124198248D02*
X189715767Y-124171311D01*
X189715767Y-124171311D02*
X189769642Y-124171311D01*
X189769642Y-124171311D02*
X189850454Y-124198248D01*
X189850454Y-124198248D02*
X189985141Y-124279060D01*
X189985141Y-124279060D02*
X190065954Y-124305998D01*
X190065954Y-124305998D02*
X190119828Y-124305998D01*
X190119828Y-124305998D02*
X190200641Y-124279060D01*
X190200641Y-124279060D02*
X190254515Y-124225186D01*
X190254515Y-124225186D02*
X190281453Y-124144373D01*
X190281453Y-124144373D02*
X190281453Y-124090499D01*
X190281453Y-124090499D02*
X190254515Y-124009686D01*
X190254515Y-124009686D02*
X190119828Y-123874999D01*
X190119828Y-123874999D02*
X190012079Y-123821125D01*
X222932752Y-127954633D02*
X223498438Y-127388948D01*
X223498438Y-127388948D02*
X222905815Y-127604447D01*
X222905815Y-127604447D02*
X223121314Y-127011824D01*
X223121314Y-127011824D02*
X222555629Y-127577510D01*
X222744190Y-126634700D02*
X222636441Y-126526951D01*
X222636441Y-126526951D02*
X222555628Y-126500013D01*
X222555628Y-126500013D02*
X222447879Y-126500013D01*
X222447879Y-126500013D02*
X222313192Y-126580825D01*
X222313192Y-126580825D02*
X222124630Y-126769387D01*
X222124630Y-126769387D02*
X222043818Y-126904074D01*
X222043818Y-126904074D02*
X222043818Y-127011824D01*
X222043818Y-127011824D02*
X222070755Y-127092636D01*
X222070755Y-127092636D02*
X222178505Y-127200386D01*
X222178505Y-127200386D02*
X222259317Y-127227323D01*
X222259317Y-127227323D02*
X222367067Y-127227323D01*
X222367067Y-127227323D02*
X222501754Y-127146511D01*
X222501754Y-127146511D02*
X222690315Y-126957949D01*
X222690315Y-126957949D02*
X222771128Y-126823262D01*
X222771128Y-126823262D02*
X222771128Y-126715512D01*
X222771128Y-126715512D02*
X222744190Y-126634700D01*
X221747507Y-126715513D02*
X221639757Y-126661638D01*
X221639757Y-126661638D02*
X221505070Y-126526951D01*
X221505070Y-126526951D02*
X221478133Y-126446139D01*
X221478133Y-126446139D02*
X221478133Y-126392264D01*
X221478133Y-126392264D02*
X221505070Y-126311452D01*
X221505070Y-126311452D02*
X221558945Y-126257577D01*
X221558945Y-126257577D02*
X221639757Y-126230639D01*
X221639757Y-126230639D02*
X221693632Y-126230639D01*
X221693632Y-126230639D02*
X221774444Y-126257577D01*
X221774444Y-126257577D02*
X221909131Y-126338389D01*
X221909131Y-126338389D02*
X221989943Y-126365326D01*
X221989943Y-126365326D02*
X222043818Y-126365326D01*
X222043818Y-126365326D02*
X222124630Y-126338389D01*
X222124630Y-126338389D02*
X222178505Y-126284514D01*
X222178505Y-126284514D02*
X222205442Y-126203702D01*
X222205442Y-126203702D02*
X222205442Y-126149827D01*
X222205442Y-126149827D02*
X222178505Y-126069015D01*
X222178505Y-126069015D02*
X222043818Y-125934328D01*
X222043818Y-125934328D02*
X221936068Y-125880453D01*
X221154884Y-126176764D02*
X221720569Y-125611079D01*
X222932752Y-133034633D02*
X223498438Y-132468948D01*
X223498438Y-132468948D02*
X222905815Y-132684447D01*
X222905815Y-132684447D02*
X223121314Y-132091824D01*
X223121314Y-132091824D02*
X222555629Y-132657510D01*
X222286254Y-132388135D02*
X222851940Y-131822450D01*
X222070756Y-132118762D02*
X221963006Y-132064887D01*
X221963006Y-132064887D02*
X221828319Y-131930200D01*
X221828319Y-131930200D02*
X221801382Y-131849388D01*
X221801382Y-131849388D02*
X221801382Y-131795513D01*
X221801382Y-131795513D02*
X221828319Y-131714701D01*
X221828319Y-131714701D02*
X221882194Y-131660826D01*
X221882194Y-131660826D02*
X221963006Y-131633888D01*
X221963006Y-131633888D02*
X222016881Y-131633888D01*
X222016881Y-131633888D02*
X222097693Y-131660826D01*
X222097693Y-131660826D02*
X222232380Y-131741638D01*
X222232380Y-131741638D02*
X222313192Y-131768575D01*
X222313192Y-131768575D02*
X222367067Y-131768575D01*
X222367067Y-131768575D02*
X222447879Y-131741638D01*
X222447879Y-131741638D02*
X222501754Y-131687763D01*
X222501754Y-131687763D02*
X222528691Y-131606951D01*
X222528691Y-131606951D02*
X222528691Y-131553076D01*
X222528691Y-131553076D02*
X222501754Y-131472264D01*
X222501754Y-131472264D02*
X222367067Y-131337577D01*
X222367067Y-131337577D02*
X222259317Y-131283702D01*
X221936068Y-130906578D02*
X221828319Y-130798829D01*
X221828319Y-130798829D02*
X221747507Y-130771891D01*
X221747507Y-130771891D02*
X221639757Y-130771891D01*
X221639757Y-130771891D02*
X221505070Y-130852704D01*
X221505070Y-130852704D02*
X221316508Y-131041265D01*
X221316508Y-131041265D02*
X221235696Y-131175952D01*
X221235696Y-131175952D02*
X221235696Y-131283702D01*
X221235696Y-131283702D02*
X221262633Y-131364514D01*
X221262633Y-131364514D02*
X221370383Y-131472264D01*
X221370383Y-131472264D02*
X221451195Y-131499201D01*
X221451195Y-131499201D02*
X221558945Y-131499201D01*
X221558945Y-131499201D02*
X221693632Y-131418389D01*
X221693632Y-131418389D02*
X221882194Y-131229827D01*
X221882194Y-131229827D02*
X221963006Y-131095140D01*
X221963006Y-131095140D02*
X221963006Y-130987391D01*
X221963006Y-130987391D02*
X221936068Y-130906578D01*
X228438099Y-132279981D02*
X228896035Y-132199168D01*
X228761348Y-132603229D02*
X229327033Y-132037544D01*
X229327033Y-132037544D02*
X229111534Y-131822045D01*
X229111534Y-131822045D02*
X229030722Y-131795107D01*
X229030722Y-131795107D02*
X228976847Y-131795107D01*
X228976847Y-131795107D02*
X228896035Y-131822045D01*
X228896035Y-131822045D02*
X228815222Y-131902857D01*
X228815222Y-131902857D02*
X228788285Y-131983669D01*
X228788285Y-131983669D02*
X228788285Y-132037544D01*
X228788285Y-132037544D02*
X228815222Y-132118356D01*
X228815222Y-132118356D02*
X229030722Y-132333855D01*
X228734410Y-131552671D02*
X228734410Y-131498796D01*
X228734410Y-131498796D02*
X228707473Y-131417984D01*
X228707473Y-131417984D02*
X228572786Y-131283297D01*
X228572786Y-131283297D02*
X228491974Y-131256359D01*
X228491974Y-131256359D02*
X228438099Y-131256359D01*
X228438099Y-131256359D02*
X228357287Y-131283297D01*
X228357287Y-131283297D02*
X228303412Y-131337172D01*
X228303412Y-131337172D02*
X228249537Y-131444921D01*
X228249537Y-131444921D02*
X228249537Y-132091419D01*
X228249537Y-132091419D02*
X227899351Y-131741233D01*
X183444550Y-122244747D02*
X183444550Y-122298622D01*
X183444550Y-122298622D02*
X183498424Y-122406371D01*
X183498424Y-122406371D02*
X183552299Y-122460246D01*
X183552299Y-122460246D02*
X183660049Y-122514121D01*
X183660049Y-122514121D02*
X183767798Y-122514121D01*
X183767798Y-122514121D02*
X183848611Y-122487183D01*
X183848611Y-122487183D02*
X183983298Y-122406371D01*
X183983298Y-122406371D02*
X184064110Y-122325559D01*
X184064110Y-122325559D02*
X184144922Y-122190872D01*
X184144922Y-122190872D02*
X184171859Y-122110060D01*
X184171859Y-122110060D02*
X184171859Y-122002310D01*
X184171859Y-122002310D02*
X184117985Y-121894561D01*
X184117985Y-121894561D02*
X184064110Y-121840686D01*
X184064110Y-121840686D02*
X183956360Y-121786811D01*
X183956360Y-121786811D02*
X183902485Y-121786811D01*
X183767798Y-121544374D02*
X183417612Y-121194188D01*
X183417612Y-121194188D02*
X183390675Y-121598249D01*
X183390675Y-121598249D02*
X183309863Y-121517437D01*
X183309863Y-121517437D02*
X183229050Y-121490500D01*
X183229050Y-121490500D02*
X183175176Y-121490500D01*
X183175176Y-121490500D02*
X183094363Y-121517437D01*
X183094363Y-121517437D02*
X182959676Y-121652124D01*
X182959676Y-121652124D02*
X182932739Y-121732936D01*
X182932739Y-121732936D02*
X182932739Y-121786811D01*
X182932739Y-121786811D02*
X182959676Y-121867623D01*
X182959676Y-121867623D02*
X183121301Y-122029248D01*
X183121301Y-122029248D02*
X183202113Y-122056185D01*
X183202113Y-122056185D02*
X183255988Y-122056185D01*
X228491974Y-122066106D02*
X228491974Y-122119981D01*
X228491974Y-122119981D02*
X228545848Y-122227730D01*
X228545848Y-122227730D02*
X228599723Y-122281605D01*
X228599723Y-122281605D02*
X228707473Y-122335480D01*
X228707473Y-122335480D02*
X228815222Y-122335480D01*
X228815222Y-122335480D02*
X228896035Y-122308542D01*
X228896035Y-122308542D02*
X229030722Y-122227730D01*
X229030722Y-122227730D02*
X229111534Y-122146918D01*
X229111534Y-122146918D02*
X229192346Y-122012231D01*
X229192346Y-122012231D02*
X229219283Y-121931419D01*
X229219283Y-121931419D02*
X229219283Y-121823669D01*
X229219283Y-121823669D02*
X229165409Y-121715920D01*
X229165409Y-121715920D02*
X229111534Y-121662045D01*
X229111534Y-121662045D02*
X229003784Y-121608170D01*
X229003784Y-121608170D02*
X228949909Y-121608170D01*
X228815222Y-121365733D02*
X228465036Y-121015547D01*
X228465036Y-121015547D02*
X228438099Y-121419608D01*
X228438099Y-121419608D02*
X228357287Y-121338796D01*
X228357287Y-121338796D02*
X228276474Y-121311859D01*
X228276474Y-121311859D02*
X228222600Y-121311859D01*
X228222600Y-121311859D02*
X228141787Y-121338796D01*
X228141787Y-121338796D02*
X228007100Y-121473483D01*
X228007100Y-121473483D02*
X227980163Y-121554295D01*
X227980163Y-121554295D02*
X227980163Y-121608170D01*
X227980163Y-121608170D02*
X228007100Y-121688982D01*
X228007100Y-121688982D02*
X228168725Y-121850607D01*
X228168725Y-121850607D02*
X228249537Y-121877544D01*
X228249537Y-121877544D02*
X228303412Y-121877544D01*
X178414475Y-124858622D02*
X178872411Y-124777809D01*
X178737724Y-125181870D02*
X179303409Y-124616185D01*
X179303409Y-124616185D02*
X179087910Y-124400686D01*
X179087910Y-124400686D02*
X179007098Y-124373748D01*
X179007098Y-124373748D02*
X178953223Y-124373748D01*
X178953223Y-124373748D02*
X178872411Y-124400686D01*
X178872411Y-124400686D02*
X178791598Y-124481498D01*
X178791598Y-124481498D02*
X178764661Y-124562310D01*
X178764661Y-124562310D02*
X178764661Y-124616185D01*
X178764661Y-124616185D02*
X178791598Y-124696997D01*
X178791598Y-124696997D02*
X179007098Y-124912496D01*
X178791598Y-124104374D02*
X178441412Y-123754188D01*
X178441412Y-123754188D02*
X178414475Y-124158249D01*
X178414475Y-124158249D02*
X178333663Y-124077437D01*
X178333663Y-124077437D02*
X178252850Y-124050500D01*
X178252850Y-124050500D02*
X178198976Y-124050500D01*
X178198976Y-124050500D02*
X178118163Y-124077437D01*
X178118163Y-124077437D02*
X177983476Y-124212124D01*
X177983476Y-124212124D02*
X177956539Y-124292936D01*
X177956539Y-124292936D02*
X177956539Y-124346811D01*
X177956539Y-124346811D02*
X177983476Y-124427623D01*
X177983476Y-124427623D02*
X178145101Y-124589248D01*
X178145101Y-124589248D02*
X178225913Y-124616185D01*
X178225913Y-124616185D02*
X178279788Y-124616185D01*
X183444550Y-129864747D02*
X183444550Y-129918622D01*
X183444550Y-129918622D02*
X183498424Y-130026371D01*
X183498424Y-130026371D02*
X183552299Y-130080246D01*
X183552299Y-130080246D02*
X183660049Y-130134121D01*
X183660049Y-130134121D02*
X183767798Y-130134121D01*
X183767798Y-130134121D02*
X183848611Y-130107183D01*
X183848611Y-130107183D02*
X183983298Y-130026371D01*
X183983298Y-130026371D02*
X184064110Y-129945559D01*
X184064110Y-129945559D02*
X184144922Y-129810872D01*
X184144922Y-129810872D02*
X184171859Y-129730060D01*
X184171859Y-129730060D02*
X184171859Y-129622310D01*
X184171859Y-129622310D02*
X184117985Y-129514561D01*
X184117985Y-129514561D02*
X184064110Y-129460686D01*
X184064110Y-129460686D02*
X183956360Y-129406811D01*
X183956360Y-129406811D02*
X183902485Y-129406811D01*
X182851927Y-129379874D02*
X183175176Y-129703122D01*
X183013551Y-129541498D02*
X183579237Y-128975813D01*
X183579237Y-128975813D02*
X183552299Y-129110500D01*
X183552299Y-129110500D02*
X183552299Y-129218249D01*
X183552299Y-129218249D02*
X183579237Y-129299061D01*
X221720569Y-124566106D02*
X221720569Y-124619981D01*
X221720569Y-124619981D02*
X221774443Y-124727730D01*
X221774443Y-124727730D02*
X221828318Y-124781605D01*
X221828318Y-124781605D02*
X221936068Y-124835480D01*
X221936068Y-124835480D02*
X222043817Y-124835480D01*
X222043817Y-124835480D02*
X222124630Y-124808542D01*
X222124630Y-124808542D02*
X222259317Y-124727730D01*
X222259317Y-124727730D02*
X222340129Y-124646918D01*
X222340129Y-124646918D02*
X222420941Y-124512231D01*
X222420941Y-124512231D02*
X222447878Y-124431419D01*
X222447878Y-124431419D02*
X222447878Y-124323669D01*
X222447878Y-124323669D02*
X222394004Y-124215920D01*
X222394004Y-124215920D02*
X222340129Y-124162045D01*
X222340129Y-124162045D02*
X222232379Y-124108170D01*
X222232379Y-124108170D02*
X222178504Y-124108170D01*
X221478132Y-124377544D02*
X221370382Y-124323669D01*
X221370382Y-124323669D02*
X221235695Y-124188982D01*
X221235695Y-124188982D02*
X221208758Y-124108170D01*
X221208758Y-124108170D02*
X221208758Y-124054295D01*
X221208758Y-124054295D02*
X221235695Y-123973483D01*
X221235695Y-123973483D02*
X221289570Y-123919608D01*
X221289570Y-123919608D02*
X221370382Y-123892671D01*
X221370382Y-123892671D02*
X221424257Y-123892671D01*
X221424257Y-123892671D02*
X221505069Y-123919608D01*
X221505069Y-123919608D02*
X221639756Y-124000420D01*
X221639756Y-124000420D02*
X221720569Y-124027358D01*
X221720569Y-124027358D02*
X221774443Y-124027358D01*
X221774443Y-124027358D02*
X221855256Y-124000420D01*
X221855256Y-124000420D02*
X221909130Y-123946546D01*
X221909130Y-123946546D02*
X221936068Y-123865733D01*
X221936068Y-123865733D02*
X221936068Y-123811859D01*
X221936068Y-123811859D02*
X221909130Y-123731046D01*
X221909130Y-123731046D02*
X221774443Y-123596359D01*
X221774443Y-123596359D02*
X221666694Y-123542485D01*
X221693247Y-95471424D02*
X221731342Y-95585710D01*
X221731342Y-95585710D02*
X221769438Y-95623805D01*
X221769438Y-95623805D02*
X221845628Y-95661901D01*
X221845628Y-95661901D02*
X221959914Y-95661901D01*
X221959914Y-95661901D02*
X222036104Y-95623805D01*
X222036104Y-95623805D02*
X222074200Y-95585710D01*
X222074200Y-95585710D02*
X222112295Y-95509520D01*
X222112295Y-95509520D02*
X222112295Y-95204758D01*
X222112295Y-95204758D02*
X221312295Y-95204758D01*
X221312295Y-95204758D02*
X221312295Y-95471424D01*
X221312295Y-95471424D02*
X221350390Y-95547615D01*
X221350390Y-95547615D02*
X221388485Y-95585710D01*
X221388485Y-95585710D02*
X221464676Y-95623805D01*
X221464676Y-95623805D02*
X221540866Y-95623805D01*
X221540866Y-95623805D02*
X221617057Y-95585710D01*
X221617057Y-95585710D02*
X221655152Y-95547615D01*
X221655152Y-95547615D02*
X221693247Y-95471424D01*
X221693247Y-95471424D02*
X221693247Y-95204758D01*
X221807533Y-96004758D02*
X221807533Y-96614282D01*
X190631639Y-121806404D02*
X190901013Y-122075778D01*
X190901013Y-122075778D02*
X190658576Y-122372089D01*
X190658576Y-122372089D02*
X190658576Y-122318214D01*
X190658576Y-122318214D02*
X190631639Y-122237402D01*
X190631639Y-122237402D02*
X190496952Y-122102715D01*
X190496952Y-122102715D02*
X190416140Y-122075778D01*
X190416140Y-122075778D02*
X190362265Y-122075778D01*
X190362265Y-122075778D02*
X190281453Y-122102715D01*
X190281453Y-122102715D02*
X190146766Y-122237402D01*
X190146766Y-122237402D02*
X190119828Y-122318214D01*
X190119828Y-122318214D02*
X190119828Y-122372089D01*
X190119828Y-122372089D02*
X190146766Y-122452901D01*
X190146766Y-122452901D02*
X190281453Y-122587588D01*
X190281453Y-122587588D02*
X190362265Y-122614526D01*
X190362265Y-122614526D02*
X190416140Y-122614526D01*
X190443077Y-121617842D02*
X189688830Y-121994965D01*
X189688830Y-121994965D02*
X190065953Y-121240718D01*
X195281193Y-117943494D02*
X195846878Y-117377809D01*
X195846878Y-117377809D02*
X195712191Y-117243122D01*
X195712191Y-117243122D02*
X195604441Y-117189247D01*
X195604441Y-117189247D02*
X195496692Y-117189247D01*
X195496692Y-117189247D02*
X195415880Y-117216185D01*
X195415880Y-117216185D02*
X195281193Y-117296997D01*
X195281193Y-117296997D02*
X195200380Y-117377809D01*
X195200380Y-117377809D02*
X195119568Y-117512496D01*
X195119568Y-117512496D02*
X195092631Y-117593308D01*
X195092631Y-117593308D02*
X195092631Y-117701058D01*
X195092631Y-117701058D02*
X195146506Y-117808807D01*
X195146506Y-117808807D02*
X195281193Y-117943494D01*
X194715507Y-117377809D02*
X195281193Y-116812124D01*
X194446133Y-117108435D02*
X195011819Y-116542750D01*
X195011819Y-116542750D02*
X194122885Y-116785186D01*
X194122885Y-116785186D02*
X194688570Y-116219501D01*
X190389203Y-130813679D02*
X190281454Y-130759805D01*
X190281454Y-130759805D02*
X190146767Y-130625118D01*
X190146767Y-130625118D02*
X190119829Y-130544305D01*
X190119829Y-130544305D02*
X190119829Y-130490431D01*
X190119829Y-130490431D02*
X190146767Y-130409618D01*
X190146767Y-130409618D02*
X190200641Y-130355744D01*
X190200641Y-130355744D02*
X190281454Y-130328806D01*
X190281454Y-130328806D02*
X190335328Y-130328806D01*
X190335328Y-130328806D02*
X190416141Y-130355744D01*
X190416141Y-130355744D02*
X190550828Y-130436556D01*
X190550828Y-130436556D02*
X190631640Y-130463493D01*
X190631640Y-130463493D02*
X190685515Y-130463493D01*
X190685515Y-130463493D02*
X190766327Y-130436556D01*
X190766327Y-130436556D02*
X190820202Y-130382681D01*
X190820202Y-130382681D02*
X190847139Y-130301869D01*
X190847139Y-130301869D02*
X190847139Y-130247994D01*
X190847139Y-130247994D02*
X190820202Y-130167182D01*
X190820202Y-130167182D02*
X190685515Y-130032495D01*
X190685515Y-130032495D02*
X190577765Y-129978620D01*
X189527206Y-129897808D02*
X189527206Y-129951682D01*
X189527206Y-129951682D02*
X189581081Y-130059432D01*
X189581081Y-130059432D02*
X189634956Y-130113307D01*
X189634956Y-130113307D02*
X189742705Y-130167182D01*
X189742705Y-130167182D02*
X189850455Y-130167182D01*
X189850455Y-130167182D02*
X189931267Y-130140244D01*
X189931267Y-130140244D02*
X190065954Y-130059432D01*
X190065954Y-130059432D02*
X190146767Y-129978620D01*
X190146767Y-129978620D02*
X190227579Y-129843933D01*
X190227579Y-129843933D02*
X190254516Y-129763121D01*
X190254516Y-129763121D02*
X190254516Y-129655371D01*
X190254516Y-129655371D02*
X190200641Y-129547621D01*
X190200641Y-129547621D02*
X190146767Y-129493747D01*
X190146767Y-129493747D02*
X190039017Y-129439872D01*
X190039017Y-129439872D02*
X189985142Y-129439872D01*
X188961521Y-129439872D02*
X189230895Y-129709246D01*
X189230895Y-129709246D02*
X189796580Y-129143560D01*
X188772959Y-129251310D02*
X189338645Y-128685624D01*
X188449710Y-128928061D02*
X189015396Y-128847249D01*
X189015396Y-128362376D02*
X189015396Y-129008873D01*
X228491974Y-127146106D02*
X228491974Y-127199981D01*
X228491974Y-127199981D02*
X228545848Y-127307730D01*
X228545848Y-127307730D02*
X228599723Y-127361605D01*
X228599723Y-127361605D02*
X228707473Y-127415480D01*
X228707473Y-127415480D02*
X228815222Y-127415480D01*
X228815222Y-127415480D02*
X228896035Y-127388542D01*
X228896035Y-127388542D02*
X229030722Y-127307730D01*
X229030722Y-127307730D02*
X229111534Y-127226918D01*
X229111534Y-127226918D02*
X229192346Y-127092231D01*
X229192346Y-127092231D02*
X229219283Y-127011419D01*
X229219283Y-127011419D02*
X229219283Y-126903669D01*
X229219283Y-126903669D02*
X229165409Y-126795920D01*
X229165409Y-126795920D02*
X229111534Y-126742045D01*
X229111534Y-126742045D02*
X229003784Y-126688170D01*
X229003784Y-126688170D02*
X228949909Y-126688170D01*
X228734410Y-126472671D02*
X228734410Y-126418796D01*
X228734410Y-126418796D02*
X228707473Y-126337984D01*
X228707473Y-126337984D02*
X228572786Y-126203297D01*
X228572786Y-126203297D02*
X228491974Y-126176359D01*
X228491974Y-126176359D02*
X228438099Y-126176359D01*
X228438099Y-126176359D02*
X228357287Y-126203297D01*
X228357287Y-126203297D02*
X228303412Y-126257172D01*
X228303412Y-126257172D02*
X228249537Y-126364921D01*
X228249537Y-126364921D02*
X228249537Y-127011419D01*
X228249537Y-127011419D02*
X227899351Y-126661233D01*
X190763128Y-89146255D02*
X190725033Y-89031969D01*
X190725033Y-89031969D02*
X190686937Y-88993874D01*
X190686937Y-88993874D02*
X190610747Y-88955778D01*
X190610747Y-88955778D02*
X190496461Y-88955778D01*
X190496461Y-88955778D02*
X190420271Y-88993874D01*
X190420271Y-88993874D02*
X190382176Y-89031969D01*
X190382176Y-89031969D02*
X190344080Y-89108159D01*
X190344080Y-89108159D02*
X190344080Y-89412921D01*
X190344080Y-89412921D02*
X191144080Y-89412921D01*
X191144080Y-89412921D02*
X191144080Y-89146255D01*
X191144080Y-89146255D02*
X191105985Y-89070064D01*
X191105985Y-89070064D02*
X191067890Y-89031969D01*
X191067890Y-89031969D02*
X190991699Y-88993874D01*
X190991699Y-88993874D02*
X190915509Y-88993874D01*
X190915509Y-88993874D02*
X190839318Y-89031969D01*
X190839318Y-89031969D02*
X190801223Y-89070064D01*
X190801223Y-89070064D02*
X190763128Y-89146255D01*
X190763128Y-89146255D02*
X190763128Y-89412921D01*
X190648842Y-88612921D02*
X190648842Y-88003398D01*
X190344080Y-88308159D02*
X190953604Y-88308159D01*
X233335774Y-129786108D02*
X233335774Y-129839983D01*
X233335774Y-129839983D02*
X233389648Y-129947732D01*
X233389648Y-129947732D02*
X233443523Y-130001607D01*
X233443523Y-130001607D02*
X233551273Y-130055482D01*
X233551273Y-130055482D02*
X233659022Y-130055482D01*
X233659022Y-130055482D02*
X233739835Y-130028544D01*
X233739835Y-130028544D02*
X233874522Y-129947732D01*
X233874522Y-129947732D02*
X233955334Y-129866920D01*
X233955334Y-129866920D02*
X234036146Y-129732233D01*
X234036146Y-129732233D02*
X234063083Y-129651421D01*
X234063083Y-129651421D02*
X234063083Y-129543671D01*
X234063083Y-129543671D02*
X234009209Y-129435922D01*
X234009209Y-129435922D02*
X233955334Y-129382047D01*
X233955334Y-129382047D02*
X233847584Y-129328172D01*
X233847584Y-129328172D02*
X233793709Y-129328172D01*
X233335774Y-128762487D02*
X233605148Y-129031861D01*
X233605148Y-129031861D02*
X233362711Y-129328172D01*
X233362711Y-129328172D02*
X233362711Y-129274297D01*
X233362711Y-129274297D02*
X233335774Y-129193485D01*
X233335774Y-129193485D02*
X233201087Y-129058798D01*
X233201087Y-129058798D02*
X233120274Y-129031861D01*
X233120274Y-129031861D02*
X233066400Y-129031861D01*
X233066400Y-129031861D02*
X232985587Y-129058798D01*
X232985587Y-129058798D02*
X232850900Y-129193485D01*
X232850900Y-129193485D02*
X232823963Y-129274297D01*
X232823963Y-129274297D02*
X232823963Y-129328172D01*
X232823963Y-129328172D02*
X232850900Y-129408984D01*
X232850900Y-129408984D02*
X232985587Y-129543671D01*
X232985587Y-129543671D02*
X233066400Y-129570609D01*
X233066400Y-129570609D02*
X233120274Y-129570609D01*
X195173443Y-111826405D02*
X195442817Y-112095779D01*
X195442817Y-112095779D02*
X195200380Y-112392090D01*
X195200380Y-112392090D02*
X195200380Y-112338215D01*
X195200380Y-112338215D02*
X195173443Y-112257403D01*
X195173443Y-112257403D02*
X195038756Y-112122716D01*
X195038756Y-112122716D02*
X194957944Y-112095779D01*
X194957944Y-112095779D02*
X194904069Y-112095779D01*
X194904069Y-112095779D02*
X194823257Y-112122716D01*
X194823257Y-112122716D02*
X194688570Y-112257403D01*
X194688570Y-112257403D02*
X194661632Y-112338215D01*
X194661632Y-112338215D02*
X194661632Y-112392090D01*
X194661632Y-112392090D02*
X194688570Y-112472902D01*
X194688570Y-112472902D02*
X194823257Y-112607589D01*
X194823257Y-112607589D02*
X194904069Y-112634527D01*
X194904069Y-112634527D02*
X194957944Y-112634527D01*
X194984881Y-111637843D02*
X194230634Y-112014966D01*
X194230634Y-112014966D02*
X194607757Y-111260719D01*
X223067439Y-130535039D02*
X222959690Y-130481165D01*
X222959690Y-130481165D02*
X222825003Y-130346478D01*
X222825003Y-130346478D02*
X222798065Y-130265665D01*
X222798065Y-130265665D02*
X222798065Y-130211791D01*
X222798065Y-130211791D02*
X222825003Y-130130978D01*
X222825003Y-130130978D02*
X222878877Y-130077104D01*
X222878877Y-130077104D02*
X222959690Y-130050166D01*
X222959690Y-130050166D02*
X223013564Y-130050166D01*
X223013564Y-130050166D02*
X223094377Y-130077104D01*
X223094377Y-130077104D02*
X223229064Y-130157916D01*
X223229064Y-130157916D02*
X223309876Y-130184853D01*
X223309876Y-130184853D02*
X223363751Y-130184853D01*
X223363751Y-130184853D02*
X223444563Y-130157916D01*
X223444563Y-130157916D02*
X223498438Y-130104041D01*
X223498438Y-130104041D02*
X223525375Y-130023229D01*
X223525375Y-130023229D02*
X223525375Y-129969354D01*
X223525375Y-129969354D02*
X223498438Y-129888542D01*
X223498438Y-129888542D02*
X223363751Y-129753855D01*
X223363751Y-129753855D02*
X223256001Y-129699980D01*
X222205442Y-129619168D02*
X222205442Y-129673042D01*
X222205442Y-129673042D02*
X222259317Y-129780792D01*
X222259317Y-129780792D02*
X222313192Y-129834667D01*
X222313192Y-129834667D02*
X222420941Y-129888542D01*
X222420941Y-129888542D02*
X222528691Y-129888542D01*
X222528691Y-129888542D02*
X222609503Y-129861604D01*
X222609503Y-129861604D02*
X222744190Y-129780792D01*
X222744190Y-129780792D02*
X222825003Y-129699980D01*
X222825003Y-129699980D02*
X222905815Y-129565293D01*
X222905815Y-129565293D02*
X222932752Y-129484481D01*
X222932752Y-129484481D02*
X222932752Y-129376731D01*
X222932752Y-129376731D02*
X222878877Y-129268981D01*
X222878877Y-129268981D02*
X222825003Y-129215107D01*
X222825003Y-129215107D02*
X222717253Y-129161232D01*
X222717253Y-129161232D02*
X222663378Y-129161232D01*
X221639757Y-129161232D02*
X221909131Y-129430606D01*
X221909131Y-129430606D02*
X222474816Y-128864920D01*
X221451195Y-128972670D02*
X222016881Y-128406984D01*
X221127946Y-128649421D02*
X221693632Y-128568609D01*
X221693632Y-128083736D02*
X221693632Y-128730233D01*
X221593247Y-88171424D02*
X221631342Y-88285710D01*
X221631342Y-88285710D02*
X221669438Y-88323805D01*
X221669438Y-88323805D02*
X221745628Y-88361901D01*
X221745628Y-88361901D02*
X221859914Y-88361901D01*
X221859914Y-88361901D02*
X221936104Y-88323805D01*
X221936104Y-88323805D02*
X221974200Y-88285710D01*
X221974200Y-88285710D02*
X222012295Y-88209520D01*
X222012295Y-88209520D02*
X222012295Y-87904758D01*
X222012295Y-87904758D02*
X221212295Y-87904758D01*
X221212295Y-87904758D02*
X221212295Y-88171424D01*
X221212295Y-88171424D02*
X221250390Y-88247615D01*
X221250390Y-88247615D02*
X221288485Y-88285710D01*
X221288485Y-88285710D02*
X221364676Y-88323805D01*
X221364676Y-88323805D02*
X221440866Y-88323805D01*
X221440866Y-88323805D02*
X221517057Y-88285710D01*
X221517057Y-88285710D02*
X221555152Y-88247615D01*
X221555152Y-88247615D02*
X221593247Y-88171424D01*
X221593247Y-88171424D02*
X221593247Y-87904758D01*
X221707533Y-88704758D02*
X221707533Y-89314282D01*
X222012295Y-89009520D02*
X221402771Y-89009520D01*
X207679381Y-100004819D02*
X208012714Y-99528628D01*
X208250809Y-100004819D02*
X208250809Y-99004819D01*
X208250809Y-99004819D02*
X207869857Y-99004819D01*
X207869857Y-99004819D02*
X207774619Y-99052438D01*
X207774619Y-99052438D02*
X207727000Y-99100057D01*
X207727000Y-99100057D02*
X207679381Y-99195295D01*
X207679381Y-99195295D02*
X207679381Y-99338152D01*
X207679381Y-99338152D02*
X207727000Y-99433390D01*
X207727000Y-99433390D02*
X207774619Y-99481009D01*
X207774619Y-99481009D02*
X207869857Y-99528628D01*
X207869857Y-99528628D02*
X208250809Y-99528628D01*
X207250809Y-99481009D02*
X206917476Y-99481009D01*
X206774619Y-100004819D02*
X207250809Y-100004819D01*
X207250809Y-100004819D02*
X207250809Y-99004819D01*
X207250809Y-99004819D02*
X206774619Y-99004819D01*
X206393666Y-99957200D02*
X206250809Y-100004819D01*
X206250809Y-100004819D02*
X206012714Y-100004819D01*
X206012714Y-100004819D02*
X205917476Y-99957200D01*
X205917476Y-99957200D02*
X205869857Y-99909580D01*
X205869857Y-99909580D02*
X205822238Y-99814342D01*
X205822238Y-99814342D02*
X205822238Y-99719104D01*
X205822238Y-99719104D02*
X205869857Y-99623866D01*
X205869857Y-99623866D02*
X205917476Y-99576247D01*
X205917476Y-99576247D02*
X206012714Y-99528628D01*
X206012714Y-99528628D02*
X206203190Y-99481009D01*
X206203190Y-99481009D02*
X206298428Y-99433390D01*
X206298428Y-99433390D02*
X206346047Y-99385771D01*
X206346047Y-99385771D02*
X206393666Y-99290533D01*
X206393666Y-99290533D02*
X206393666Y-99195295D01*
X206393666Y-99195295D02*
X206346047Y-99100057D01*
X206346047Y-99100057D02*
X206298428Y-99052438D01*
X206298428Y-99052438D02*
X206203190Y-99004819D01*
X206203190Y-99004819D02*
X205965095Y-99004819D01*
X205965095Y-99004819D02*
X205822238Y-99052438D01*
X205393666Y-99481009D02*
X205060333Y-99481009D01*
X204917476Y-100004819D02*
X205393666Y-100004819D01*
X205393666Y-100004819D02*
X205393666Y-99004819D01*
X205393666Y-99004819D02*
X204917476Y-99004819D01*
X204631761Y-99004819D02*
X204060333Y-99004819D01*
X204346047Y-100004819D02*
X204346047Y-99004819D01*
%TO.C,RSW1*%
X202850000Y-97300000D02*
X202850000Y-101800000D01*
X202850000Y-101800000D02*
X209350000Y-101800000D01*
X209350000Y-101800000D02*
X209350000Y-97300000D01*
X209350000Y-97300000D02*
X202850000Y-97300000D01*
%TO.C,J9*%
X224892542Y-120609520D02*
X227502542Y-120609520D01*
X227502542Y-120609520D02*
X227502542Y-133369520D01*
X227502542Y-133369520D02*
X224892542Y-133369520D01*
X224892542Y-133369520D02*
X224892542Y-120609520D01*
%TO.C,J12*%
X179743575Y-120698159D02*
X182343575Y-120698159D01*
X182343575Y-120698159D02*
X182343575Y-136008159D01*
X182343575Y-136008159D02*
X179743575Y-136008159D01*
X179743575Y-136008159D02*
X179743575Y-120698159D01*
D11*
%TO.C,J4*%
X218120000Y-110594520D02*
X218120000Y-118404520D01*
X220780000Y-110594520D02*
X218120000Y-110594520D01*
X220780000Y-110594520D02*
X220780000Y-118404520D01*
X220780000Y-118404520D02*
X218120000Y-118404520D01*
%TO.C,J5*%
X191076376Y-110618160D02*
X191076376Y-118428160D01*
X193736376Y-110618160D02*
X191076376Y-110618160D01*
X193736376Y-110618160D02*
X193736376Y-118428160D01*
X193736376Y-118428160D02*
X191076376Y-118428160D01*
%TO.C,J13*%
X196006376Y-99858160D02*
X198406376Y-99858160D01*
X198406376Y-99858160D02*
X198406376Y-110058160D01*
X198406376Y-110058160D02*
X196006376Y-110058160D01*
X196006376Y-110058160D02*
X196006376Y-99858160D01*
D10*
%TO.C,J11*%
X184696917Y-120688159D02*
X187306917Y-120688159D01*
X187306917Y-120688159D02*
X187306917Y-133448159D01*
X187306917Y-133448159D02*
X184696917Y-133448159D01*
X184696917Y-133448159D02*
X184696917Y-120688159D01*
%TO.C,J7*%
X218190000Y-120619519D02*
X220790000Y-120619519D01*
X220790000Y-120619519D02*
X220790000Y-135929519D01*
X220790000Y-135929519D02*
X218190000Y-135929519D01*
X218190000Y-135929519D02*
X218190000Y-120619519D01*
D11*
%TO.C,J14*%
X214400000Y-99759520D02*
X216800000Y-99759520D01*
X216800000Y-99759520D02*
X216800000Y-109959520D01*
X216800000Y-109959520D02*
X214400000Y-109959520D01*
X214400000Y-109959520D02*
X214400000Y-99759520D01*
D10*
%TO.C,J8*%
X191234065Y-120698159D02*
X193834065Y-120698159D01*
X193834065Y-120698159D02*
X193834065Y-136008159D01*
X193834065Y-136008159D02*
X191234065Y-136008159D01*
X191234065Y-136008159D02*
X191234065Y-120698159D01*
%TO.C,J10*%
X229729684Y-120619519D02*
X232329684Y-120619519D01*
X232329684Y-120619519D02*
X232329684Y-135929519D01*
X232329684Y-135929519D02*
X229729684Y-135929519D01*
X229729684Y-135929519D02*
X229729684Y-120619519D01*
%TO.C,kibuzzard-61F01957*%
G36*
X191911215Y-119959604D02*
G01*
X191754946Y-119959604D01*
X191754946Y-119056714D01*
X191911215Y-119056714D01*
X191911215Y-119959604D01*
G37*
G36*
X192732251Y-119959604D02*
G01*
X192575361Y-119959604D01*
X192575361Y-119624121D01*
X192388706Y-119624121D01*
X192291864Y-119615922D01*
X192210525Y-119591324D01*
X192144690Y-119550327D01*
X192096286Y-119494585D01*
X192067244Y-119425752D01*
X192057710Y-119345068D01*
X192215073Y-119345068D01*
X192226080Y-119410723D01*
X192259101Y-119458860D01*
X192313051Y-119488393D01*
X192386845Y-119498237D01*
X192575361Y-119498237D01*
X192575361Y-119183218D01*
X192382504Y-119183218D01*
X192312741Y-119195077D01*
X192259721Y-119228176D01*
X192226235Y-119279258D01*
X192215073Y-119345068D01*
X192057710Y-119345068D01*
X192057563Y-119343828D01*
X192067451Y-119263075D01*
X192097113Y-119193622D01*
X192146550Y-119135469D01*
X192212799Y-119091716D01*
X192292898Y-119065464D01*
X192386845Y-119056714D01*
X192732251Y-119056714D01*
X192732251Y-119959604D01*
G37*
G36*
X193285498Y-119052166D02*
G01*
X193362496Y-119075731D01*
X193427712Y-119115005D01*
X193477149Y-119166406D01*
X193506811Y-119226350D01*
X193516699Y-119294839D01*
X193502987Y-119372698D01*
X193461853Y-119440084D01*
X193393296Y-119496997D01*
X193317641Y-119535444D01*
X193219663Y-119570171D01*
X193127343Y-119602882D01*
X193068664Y-119635283D01*
X193037271Y-119674350D01*
X193026806Y-119727060D01*
X193037116Y-119776282D01*
X193068044Y-119814807D01*
X193119436Y-119839689D01*
X193191137Y-119847983D01*
X193275008Y-119837441D01*
X193336865Y-119805815D01*
X193375002Y-119754966D01*
X193387714Y-119686753D01*
X193544604Y-119686753D01*
X193533209Y-119766438D01*
X193499025Y-119835581D01*
X193444300Y-119892554D01*
X193371281Y-119935730D01*
X193285163Y-119962937D01*
X193191137Y-119972007D01*
X193099188Y-119964600D01*
X193020950Y-119942379D01*
X192956423Y-119905344D01*
X192908364Y-119855769D01*
X192879528Y-119795928D01*
X192869917Y-119725820D01*
X192877358Y-119660785D01*
X192899682Y-119604587D01*
X192937974Y-119555753D01*
X192993320Y-119512810D01*
X193067579Y-119474983D01*
X193162612Y-119441496D01*
X193253149Y-119409715D01*
X193313921Y-119377004D01*
X193348337Y-119339720D01*
X193359809Y-119294219D01*
X193349190Y-119241819D01*
X193317331Y-119202441D01*
X193266249Y-119177792D01*
X193197959Y-119169575D01*
X193125017Y-119179574D01*
X193071145Y-119209573D01*
X193037891Y-119257244D01*
X193026806Y-119320263D01*
X192870537Y-119320263D01*
X192881079Y-119245617D01*
X192912705Y-119177947D01*
X192962779Y-119121128D01*
X193028667Y-119079038D01*
X193107577Y-119052993D01*
X193196718Y-119044311D01*
X193285498Y-119052166D01*
G37*
%TO.C,kibuzzard-61F01C84*%
G36*
X236491894Y-104343202D02*
G01*
X236491894Y-105070806D01*
X236491894Y-111648234D01*
X236491894Y-112375838D01*
X234208106Y-112375838D01*
X234208106Y-111648234D01*
X234208106Y-110791310D01*
X234720736Y-110791310D01*
X234720736Y-111648234D01*
X234951807Y-111648234D01*
X234951807Y-111090594D01*
X235213574Y-111090594D01*
X235213574Y-111561263D01*
X235436119Y-111561263D01*
X235436119Y-111090594D01*
X235731992Y-111090594D01*
X235731992Y-111646529D01*
X235962211Y-111646529D01*
X235962211Y-110791310D01*
X234720736Y-110791310D01*
X234208106Y-110791310D01*
X234208106Y-110665116D01*
X234720736Y-110665116D01*
X234951807Y-110665116D01*
X234951807Y-110292503D01*
X235962211Y-110292503D01*
X235962211Y-109993219D01*
X234951807Y-109993219D01*
X234951807Y-109627427D01*
X234720736Y-109627427D01*
X234720736Y-110665116D01*
X234208106Y-110665116D01*
X234208106Y-109141410D01*
X234720736Y-109141410D01*
X235962211Y-109600142D01*
X235962211Y-109278689D01*
X235730287Y-109206213D01*
X235730287Y-108796083D01*
X235962211Y-108724459D01*
X235962211Y-108404711D01*
X234720736Y-108860032D01*
X234720736Y-109141410D01*
X234208106Y-109141410D01*
X234208106Y-107772036D01*
X234720736Y-107772036D01*
X234729026Y-107878051D01*
X234753895Y-107976675D01*
X234795344Y-108067910D01*
X234851904Y-108149055D01*
X234922106Y-108217410D01*
X235005951Y-108272975D01*
X235100265Y-108314045D01*
X235201874Y-108338914D01*
X235310778Y-108347583D01*
X235367906Y-108347583D01*
X235477662Y-108339577D01*
X235579555Y-108315561D01*
X235673585Y-108275533D01*
X235757146Y-108220963D01*
X235827632Y-108153318D01*
X235885045Y-108072600D01*
X235927536Y-107981981D01*
X235953258Y-107884635D01*
X235962211Y-107780563D01*
X235962211Y-107372138D01*
X234720736Y-107372138D01*
X234720736Y-107772036D01*
X234208106Y-107772036D01*
X234208106Y-106730937D01*
X234720736Y-106730937D01*
X234733846Y-106865125D01*
X234773175Y-106982899D01*
X234836698Y-107080102D01*
X234922390Y-107152578D01*
X235025669Y-107197663D01*
X235141951Y-107212691D01*
X235254928Y-107198243D01*
X235351705Y-107154899D01*
X235432282Y-107082660D01*
X235492679Y-106985220D01*
X235528917Y-106866274D01*
X235540996Y-106725821D01*
X235540996Y-106534825D01*
X235962211Y-106534825D01*
X235962211Y-106235541D01*
X234720736Y-106235541D01*
X234720736Y-106730937D01*
X234208106Y-106730937D01*
X234208106Y-105070806D01*
X234720736Y-105070806D01*
X234720736Y-105371795D01*
X235545259Y-105371795D01*
X235658474Y-105395101D01*
X235726403Y-105458198D01*
X235749045Y-105561086D01*
X235736255Y-105642728D01*
X235697886Y-105701775D01*
X235630739Y-105737587D01*
X235531617Y-105749524D01*
X234720736Y-105749524D01*
X234720736Y-106048808D01*
X235533322Y-106048808D01*
X235662181Y-106034100D01*
X235772494Y-105989975D01*
X235861490Y-105918351D01*
X235926399Y-105821148D01*
X235966048Y-105701136D01*
X235979264Y-105561086D01*
X235966190Y-105420587D01*
X235926967Y-105301498D01*
X235861597Y-105203821D01*
X235773488Y-105131061D01*
X235666053Y-105086722D01*
X235539291Y-105070806D01*
X234720736Y-105070806D01*
X234208106Y-105070806D01*
X234208106Y-104343202D01*
X236491894Y-104343202D01*
G37*
G36*
X235731992Y-107775447D02*
G01*
X235709077Y-107889277D01*
X235640331Y-107973265D01*
X235569323Y-108011634D01*
X235478515Y-108034656D01*
X235367906Y-108042330D01*
X235314188Y-108042330D01*
X235204100Y-108034656D01*
X235113718Y-108011634D01*
X235043042Y-107973265D01*
X234974616Y-107888425D01*
X234951807Y-107772036D01*
X234951807Y-107671422D01*
X235731992Y-107671422D01*
X235731992Y-107775447D01*
G37*
G36*
X235309925Y-106730937D02*
G01*
X235299053Y-106807570D01*
X235266439Y-106863526D01*
X235143656Y-106909143D01*
X235065424Y-106897419D01*
X235004672Y-106862247D01*
X234965450Y-106806824D01*
X234951807Y-106734348D01*
X234951807Y-106534825D01*
X235309925Y-106534825D01*
X235309925Y-106730937D01*
G37*
G36*
X235499216Y-109134589D02*
G01*
X235068622Y-109000721D01*
X235499216Y-108867706D01*
X235499216Y-109134589D01*
G37*
%TO.C,kibuzzard-61F019CB*%
G36*
X221773162Y-114151662D02*
G01*
X221847680Y-114168095D01*
X221915100Y-114194657D01*
X221999824Y-114252095D01*
X222062378Y-114329532D01*
X222090972Y-114390717D01*
X222108129Y-114457690D01*
X222113848Y-114530450D01*
X222105631Y-114634940D01*
X222080981Y-114727647D01*
X222040364Y-114805007D01*
X221984243Y-114863453D01*
X221638218Y-114863453D01*
X221638218Y-114521148D01*
X221757280Y-114521148D01*
X221757280Y-114707184D01*
X221934014Y-114707184D01*
X221974941Y-114638971D01*
X221988584Y-114536031D01*
X221968353Y-114438285D01*
X221907659Y-114364569D01*
X221846439Y-114330290D01*
X221770682Y-114309723D01*
X221680386Y-114302867D01*
X221610933Y-114302867D01*
X221520843Y-114309999D01*
X221446533Y-114328912D01*
X221388000Y-114359608D01*
X221331027Y-114427123D01*
X221312036Y-114519908D01*
X221322229Y-114592888D01*
X221352809Y-114648738D01*
X221403775Y-114687456D01*
X221475127Y-114709044D01*
X221475127Y-114862833D01*
X221389000Y-114842989D01*
X221317479Y-114807436D01*
X221260566Y-114756173D01*
X221219225Y-114690165D01*
X221194421Y-114610376D01*
X221186152Y-114516808D01*
X221193342Y-114433906D01*
X221214910Y-114360693D01*
X221250858Y-114297170D01*
X221301184Y-114243336D01*
X221364300Y-114200470D01*
X221438618Y-114169852D01*
X221524136Y-114151481D01*
X221620854Y-114145357D01*
X221691548Y-114145357D01*
X221773162Y-114151662D01*
G37*
G36*
X222101445Y-115035846D02*
G01*
X222101445Y-115365128D01*
X222093866Y-115458593D01*
X222071128Y-115536418D01*
X222033232Y-115598602D01*
X221981211Y-115643905D01*
X221916099Y-115671087D01*
X221837896Y-115680147D01*
X221766505Y-115670148D01*
X221706121Y-115640150D01*
X221659999Y-115591858D01*
X221631396Y-115526978D01*
X221598530Y-115583719D01*
X221554502Y-115624957D01*
X221501792Y-115650072D01*
X221442881Y-115658443D01*
X221368536Y-115649555D01*
X221307558Y-115622890D01*
X221259946Y-115578448D01*
X221225840Y-115516988D01*
X221205376Y-115439266D01*
X221198555Y-115345284D01*
X221325059Y-115345284D01*
X221332500Y-115415280D01*
X221354824Y-115464037D01*
X221393892Y-115492640D01*
X221451562Y-115502174D01*
X221505435Y-115491864D01*
X221545510Y-115460936D01*
X221570392Y-115411714D01*
X221578687Y-115346524D01*
X221578687Y-115192735D01*
X221694028Y-115192735D01*
X221694028Y-115380011D01*
X221711392Y-115459937D01*
X221759347Y-115507893D01*
X221837896Y-115523878D01*
X221895876Y-115513491D01*
X221939595Y-115482330D01*
X221967035Y-115432721D01*
X221976182Y-115366988D01*
X221976182Y-115192735D01*
X221694028Y-115192735D01*
X221578687Y-115192735D01*
X221325059Y-115192735D01*
X221325059Y-115345284D01*
X221198555Y-115345284D01*
X221198555Y-115035846D01*
X222101445Y-115035846D01*
G37*
G36*
X222101445Y-113535782D02*
G01*
X221753560Y-113535782D01*
X221753560Y-113710655D01*
X222101445Y-113891729D01*
X222101445Y-114059781D01*
X222093384Y-114059781D01*
X221716973Y-113857003D01*
X221677053Y-113926534D01*
X221623025Y-113978856D01*
X221554579Y-114011645D01*
X221471406Y-114022574D01*
X221389895Y-114013135D01*
X221322303Y-113984816D01*
X221268628Y-113937618D01*
X221229698Y-113873057D01*
X221206341Y-113792649D01*
X221198555Y-113696393D01*
X221198555Y-113535782D01*
X221325059Y-113535782D01*
X221325059Y-113701353D01*
X221335911Y-113773055D01*
X221365986Y-113824447D01*
X221413890Y-113855375D01*
X221478228Y-113865685D01*
X221540317Y-113854522D01*
X221587678Y-113821036D01*
X221617676Y-113767706D01*
X221627676Y-113697013D01*
X221627676Y-113535782D01*
X221325059Y-113535782D01*
X221198555Y-113535782D01*
X221198555Y-113378893D01*
X222101445Y-113378893D01*
X222101445Y-113535782D01*
G37*
%TO.C,kibuzzard-620B8D91*%
G36*
X198086322Y-99459605D02*
G01*
X197930053Y-99459605D01*
X197930053Y-98556715D01*
X198086322Y-98556715D01*
X198086322Y-99459605D01*
G37*
G36*
X197558835Y-98553459D02*
G01*
X197633947Y-98580899D01*
X197695648Y-98624850D01*
X197741227Y-98683529D01*
X197769365Y-98753679D01*
X197778744Y-98832047D01*
X197628056Y-98832047D01*
X197617979Y-98762749D01*
X197587748Y-98709884D01*
X197539224Y-98676397D01*
X197474267Y-98665235D01*
X197419154Y-98675157D01*
X197376598Y-98704923D01*
X197349391Y-98750811D01*
X197340321Y-98809102D01*
X197367917Y-98906771D01*
X197404891Y-98961419D01*
X197460624Y-99028004D01*
X197761381Y-99356046D01*
X197761381Y-99459605D01*
X197154286Y-99459605D01*
X197154286Y-99339303D01*
X197573485Y-99339303D01*
X197352724Y-99103038D01*
X197278077Y-99013819D01*
X197227770Y-98934676D01*
X197199167Y-98862200D01*
X197189633Y-98792979D01*
X197198073Y-98720873D01*
X197223395Y-98659999D01*
X197265597Y-98610355D01*
X197322407Y-98573665D01*
X197391550Y-98551650D01*
X197473026Y-98544312D01*
X197558835Y-98553459D01*
G37*
G36*
X196777487Y-98557490D02*
G01*
X196868722Y-98597022D01*
X196943524Y-98660894D01*
X196998637Y-98747091D01*
X197023786Y-98815372D01*
X197038875Y-98890407D01*
X197043905Y-98972193D01*
X197043905Y-99056529D01*
X197037911Y-99136249D01*
X197022408Y-99209216D01*
X196997397Y-99275431D01*
X196943369Y-99358914D01*
X196870583Y-99420848D01*
X196781983Y-99459218D01*
X196680517Y-99472008D01*
X196584398Y-99463016D01*
X196501923Y-99436041D01*
X196433090Y-99391082D01*
X196379898Y-99330070D01*
X196344344Y-99254932D01*
X196326430Y-99165670D01*
X196482699Y-99165670D01*
X196503628Y-99248610D01*
X196541610Y-99303956D01*
X196599591Y-99335117D01*
X196680517Y-99345504D01*
X196769426Y-99326280D01*
X196833996Y-99268609D01*
X196863107Y-99209629D01*
X196880573Y-99135215D01*
X196886396Y-99045367D01*
X196886396Y-98965372D01*
X196879609Y-98876799D01*
X196860902Y-98803728D01*
X196830275Y-98746160D01*
X196763535Y-98690117D01*
X196673075Y-98671436D01*
X196595638Y-98682211D01*
X196539440Y-98714535D01*
X196502465Y-98771198D01*
X196482699Y-98854991D01*
X196326430Y-98854991D01*
X196344827Y-98763627D01*
X196380173Y-98687146D01*
X196432470Y-98625548D01*
X196499718Y-98580417D01*
X196579920Y-98553338D01*
X196673075Y-98544312D01*
X196777487Y-98557490D01*
G37*
D11*
%TO.C,J2*%
X200005297Y-97560820D02*
X195405297Y-97560820D01*
X200005297Y-85460820D02*
X200005297Y-97560820D01*
X200005297Y-85460820D02*
X199705297Y-85460820D01*
X199705297Y-85460820D02*
X199705297Y-82660820D01*
X193905297Y-85460820D02*
X193905297Y-82660820D01*
X193905297Y-85460820D02*
X192705297Y-85460820D01*
X193905297Y-82660820D02*
X199705297Y-82660820D01*
X192705297Y-97560820D02*
X195405297Y-97560820D01*
X192705297Y-85460820D02*
X192705297Y-97560820D01*
%TO.C,kibuzzard-620B8593*%
G36*
X231527462Y-97226526D02*
G01*
X231619006Y-97266756D01*
X231671579Y-97307787D01*
X231715607Y-97359360D01*
X231751091Y-97421476D01*
X231777102Y-97492307D01*
X231792708Y-97570028D01*
X231797910Y-97654640D01*
X231797910Y-97705489D01*
X231792364Y-97788516D01*
X231776551Y-97864790D01*
X231750471Y-97934312D01*
X231693885Y-98022137D01*
X231617766Y-98087171D01*
X231525911Y-98127401D01*
X231422119Y-98140812D01*
X231350978Y-98134851D01*
X231285556Y-98116971D01*
X231225852Y-98087171D01*
X231150430Y-98021904D01*
X231094697Y-97933382D01*
X231069204Y-97862999D01*
X231053907Y-97785381D01*
X231048809Y-97700528D01*
X231205698Y-97700528D01*
X231211934Y-97794097D01*
X231230641Y-97871405D01*
X231261819Y-97932452D01*
X231329954Y-97991983D01*
X231422119Y-98011827D01*
X231513819Y-97991518D01*
X231583040Y-97930592D01*
X231615251Y-97868925D01*
X231634578Y-97792237D01*
X231641021Y-97700528D01*
X231641021Y-97648438D01*
X231633958Y-97558625D01*
X231614424Y-97483487D01*
X231582419Y-97423026D01*
X231513974Y-97363262D01*
X231423359Y-97343341D01*
X231331039Y-97363340D01*
X231262439Y-97423336D01*
X231230916Y-97484452D01*
X231212003Y-97561140D01*
X231205698Y-97653399D01*
X231205698Y-97700528D01*
X231048809Y-97700528D01*
X231048809Y-97650299D01*
X231054321Y-97565860D01*
X231070030Y-97488655D01*
X231095937Y-97418685D01*
X231152136Y-97330783D01*
X231227712Y-97266136D01*
X231319257Y-97226371D01*
X231423359Y-97213116D01*
X231527462Y-97226526D01*
G37*
G36*
X233808253Y-97226526D02*
G01*
X233899797Y-97266756D01*
X233952370Y-97307787D01*
X233996398Y-97359360D01*
X234031882Y-97421476D01*
X234057893Y-97492307D01*
X234073499Y-97570028D01*
X234078701Y-97654640D01*
X234078701Y-97705489D01*
X234073155Y-97788516D01*
X234057342Y-97864790D01*
X234031262Y-97934312D01*
X233974677Y-98022137D01*
X233898557Y-98087171D01*
X233806702Y-98127401D01*
X233702910Y-98140812D01*
X233631769Y-98134851D01*
X233566347Y-98116971D01*
X233506643Y-98087171D01*
X233431221Y-98021904D01*
X233375488Y-97933382D01*
X233349995Y-97862999D01*
X233334698Y-97785381D01*
X233329600Y-97700528D01*
X233486489Y-97700528D01*
X233492725Y-97794097D01*
X233511432Y-97871405D01*
X233542610Y-97932452D01*
X233610745Y-97991983D01*
X233702910Y-98011827D01*
X233794610Y-97991518D01*
X233863831Y-97930592D01*
X233896042Y-97868925D01*
X233915369Y-97792237D01*
X233921812Y-97700528D01*
X233921812Y-97648438D01*
X233914749Y-97558625D01*
X233895215Y-97483487D01*
X233863210Y-97423026D01*
X233794765Y-97363262D01*
X233704150Y-97343341D01*
X233611830Y-97363340D01*
X233543230Y-97423336D01*
X233511707Y-97484452D01*
X233492794Y-97561140D01*
X233486489Y-97653399D01*
X233486489Y-97700528D01*
X233329600Y-97700528D01*
X233329600Y-97650299D01*
X233335112Y-97565860D01*
X233350821Y-97488655D01*
X233376729Y-97418685D01*
X233432927Y-97330783D01*
X233508503Y-97266136D01*
X233600048Y-97226371D01*
X233704150Y-97213116D01*
X233808253Y-97226526D01*
G37*
G36*
X230194907Y-98128409D02*
G01*
X230038018Y-98128409D01*
X230038018Y-97745797D01*
X229674629Y-97745797D01*
X229674629Y-97620533D01*
X230038018Y-97620533D01*
X230038018Y-97352022D01*
X229621299Y-97352022D01*
X229621299Y-97225519D01*
X230194907Y-97225519D01*
X230194907Y-98128409D01*
G37*
G36*
X230892539Y-98128409D02*
G01*
X230735649Y-98128409D01*
X230735649Y-97745797D01*
X230372261Y-97745797D01*
X230372261Y-97620533D01*
X230735649Y-97620533D01*
X230735649Y-97352022D01*
X230318931Y-97352022D01*
X230318931Y-97225519D01*
X230892539Y-97225519D01*
X230892539Y-98128409D01*
G37*
G36*
X232612744Y-97868580D02*
G01*
X233016440Y-97225519D01*
X233173330Y-97225519D01*
X233173330Y-98128409D01*
X233016440Y-98128409D01*
X233016440Y-97487828D01*
X232613984Y-98128409D01*
X232457095Y-98128409D01*
X232457095Y-97225519D01*
X232612744Y-97225519D01*
X232612744Y-97868580D01*
G37*
G36*
X232362217Y-98205924D02*
G01*
X232243774Y-98205924D01*
X231888447Y-97225519D01*
X232006890Y-97225519D01*
X232362217Y-98205924D01*
G37*
G36*
X181218593Y-98304564D02*
G01*
X181100150Y-98304564D01*
X180744823Y-97324159D01*
X180863266Y-97324159D01*
X181218593Y-98304564D01*
G37*
G36*
X181469120Y-97967220D02*
G01*
X181872816Y-97324159D01*
X182029706Y-97324159D01*
X182029706Y-98227049D01*
X181872816Y-98227049D01*
X181872816Y-97586468D01*
X181470360Y-98227049D01*
X181313471Y-98227049D01*
X181313471Y-97324159D01*
X181469120Y-97324159D01*
X181469120Y-97967220D01*
G37*
G36*
X179748915Y-98227049D02*
G01*
X179592025Y-98227049D01*
X179592025Y-97844437D01*
X179228637Y-97844437D01*
X179228637Y-97719173D01*
X179592025Y-97719173D01*
X179592025Y-97450662D01*
X179175307Y-97450662D01*
X179175307Y-97324159D01*
X179748915Y-97324159D01*
X179748915Y-98227049D01*
G37*
G36*
X179051283Y-98227049D02*
G01*
X178894394Y-98227049D01*
X178894394Y-97844437D01*
X178531005Y-97844437D01*
X178531005Y-97719173D01*
X178894394Y-97719173D01*
X178894394Y-97450662D01*
X178477675Y-97450662D01*
X178477675Y-97324159D01*
X179051283Y-97324159D01*
X179051283Y-98227049D01*
G37*
G36*
X182664629Y-97325166D02*
G01*
X182756173Y-97365396D01*
X182808746Y-97406427D01*
X182852774Y-97458000D01*
X182888258Y-97520116D01*
X182914269Y-97590947D01*
X182929875Y-97668668D01*
X182935077Y-97753280D01*
X182935077Y-97804129D01*
X182929531Y-97887156D01*
X182913718Y-97963430D01*
X182887638Y-98032952D01*
X182831053Y-98120777D01*
X182754933Y-98185811D01*
X182663078Y-98226041D01*
X182559286Y-98239452D01*
X182488145Y-98233491D01*
X182422723Y-98215611D01*
X182363019Y-98185811D01*
X182287597Y-98120544D01*
X182231864Y-98032022D01*
X182206371Y-97961639D01*
X182191074Y-97884021D01*
X182185976Y-97799168D01*
X182342865Y-97799168D01*
X182349101Y-97892737D01*
X182367808Y-97970045D01*
X182398986Y-98031092D01*
X182467121Y-98090623D01*
X182559286Y-98110467D01*
X182650986Y-98090158D01*
X182720207Y-98029232D01*
X182752418Y-97967565D01*
X182771745Y-97890877D01*
X182778188Y-97799168D01*
X182778188Y-97747078D01*
X182771125Y-97657265D01*
X182751591Y-97582127D01*
X182719586Y-97521666D01*
X182651141Y-97461902D01*
X182560526Y-97441981D01*
X182468206Y-97461980D01*
X182399606Y-97521976D01*
X182368083Y-97583092D01*
X182349170Y-97659780D01*
X182342865Y-97752039D01*
X182342865Y-97799168D01*
X182185976Y-97799168D01*
X182185976Y-97748939D01*
X182191488Y-97664500D01*
X182207197Y-97587295D01*
X182233105Y-97517325D01*
X182289303Y-97429423D01*
X182364879Y-97364776D01*
X182456424Y-97325011D01*
X182560526Y-97311756D01*
X182664629Y-97325166D01*
G37*
G36*
X180383838Y-97325166D02*
G01*
X180475382Y-97365396D01*
X180527955Y-97406427D01*
X180571983Y-97458000D01*
X180607467Y-97520116D01*
X180633478Y-97590947D01*
X180649084Y-97668668D01*
X180654286Y-97753280D01*
X180654286Y-97804129D01*
X180648740Y-97887156D01*
X180632927Y-97963430D01*
X180606847Y-98032952D01*
X180550261Y-98120777D01*
X180474142Y-98185811D01*
X180382287Y-98226041D01*
X180278495Y-98239452D01*
X180207354Y-98233491D01*
X180141932Y-98215611D01*
X180082228Y-98185811D01*
X180006806Y-98120544D01*
X179951073Y-98032022D01*
X179925580Y-97961639D01*
X179910283Y-97884021D01*
X179905185Y-97799168D01*
X180062074Y-97799168D01*
X180068310Y-97892737D01*
X180087017Y-97970045D01*
X180118195Y-98031092D01*
X180186330Y-98090623D01*
X180278495Y-98110467D01*
X180370195Y-98090158D01*
X180439416Y-98029232D01*
X180471627Y-97967565D01*
X180490954Y-97890877D01*
X180497397Y-97799168D01*
X180497397Y-97747078D01*
X180490334Y-97657265D01*
X180470800Y-97582127D01*
X180438795Y-97521666D01*
X180370350Y-97461902D01*
X180279735Y-97441981D01*
X180187415Y-97461980D01*
X180118815Y-97521976D01*
X180087292Y-97583092D01*
X180068379Y-97659780D01*
X180062074Y-97752039D01*
X180062074Y-97799168D01*
X179905185Y-97799168D01*
X179905185Y-97748939D01*
X179910697Y-97664500D01*
X179926406Y-97587295D01*
X179952313Y-97517325D01*
X180008512Y-97429423D01*
X180084088Y-97364776D01*
X180175633Y-97325011D01*
X180279735Y-97311756D01*
X180383838Y-97325166D01*
G37*
%TO.C,kibuzzard-61F01C84*%
G36*
X177987754Y-107816959D02*
G01*
X177557160Y-107949974D01*
X177557160Y-107683091D01*
X177987754Y-107816959D01*
G37*
G36*
X177990952Y-109920261D02*
G01*
X178051704Y-109955433D01*
X178090926Y-110010856D01*
X178104569Y-110083332D01*
X178104569Y-110282855D01*
X177746451Y-110282855D01*
X177746451Y-110086743D01*
X177757323Y-110010110D01*
X177789937Y-109954154D01*
X177912720Y-109908537D01*
X177990952Y-109920261D01*
G37*
G36*
X177852276Y-108783024D02*
G01*
X177942658Y-108806046D01*
X178013334Y-108844415D01*
X178081760Y-108929255D01*
X178104569Y-109045644D01*
X178104569Y-109146258D01*
X177324384Y-109146258D01*
X177324384Y-109042233D01*
X177347299Y-108928403D01*
X177416045Y-108844415D01*
X177487053Y-108806046D01*
X177577861Y-108783024D01*
X177688470Y-108775350D01*
X177742188Y-108775350D01*
X177852276Y-108783024D01*
G37*
G36*
X178848270Y-105169446D02*
G01*
X178848270Y-111746874D01*
X178848270Y-112474478D01*
X176564482Y-112474478D01*
X176564482Y-111746874D01*
X176564482Y-111256594D01*
X177077112Y-111256594D01*
X177090186Y-111397093D01*
X177129409Y-111516182D01*
X177194779Y-111613859D01*
X177282888Y-111686619D01*
X177390323Y-111730958D01*
X177517085Y-111746874D01*
X178335640Y-111746874D01*
X178335640Y-111445885D01*
X177511117Y-111445885D01*
X177397902Y-111422579D01*
X177329973Y-111359482D01*
X177307331Y-111256594D01*
X177320121Y-111174952D01*
X177358490Y-111115905D01*
X177425637Y-111080093D01*
X177524759Y-111068156D01*
X178335640Y-111068156D01*
X178335640Y-110768872D01*
X177523054Y-110768872D01*
X177394195Y-110783580D01*
X177283882Y-110827705D01*
X177194886Y-110899329D01*
X177129977Y-110996532D01*
X177090328Y-111116544D01*
X177077112Y-111256594D01*
X176564482Y-111256594D01*
X176564482Y-110582139D01*
X177094165Y-110582139D01*
X178335640Y-110582139D01*
X178335640Y-110086743D01*
X178322530Y-109952555D01*
X178283201Y-109834781D01*
X178219678Y-109737578D01*
X178133986Y-109665102D01*
X178030707Y-109620017D01*
X177914425Y-109604989D01*
X177801448Y-109619437D01*
X177704671Y-109662781D01*
X177624094Y-109735020D01*
X177563697Y-109832460D01*
X177527459Y-109951406D01*
X177515380Y-110091859D01*
X177515380Y-110282855D01*
X177094165Y-110282855D01*
X177094165Y-110582139D01*
X176564482Y-110582139D01*
X176564482Y-109445542D01*
X177094165Y-109445542D01*
X178335640Y-109445542D01*
X178335640Y-109045644D01*
X178327350Y-108939629D01*
X178302481Y-108841005D01*
X178261032Y-108749770D01*
X178204472Y-108668625D01*
X178134270Y-108600270D01*
X178050425Y-108544705D01*
X177956111Y-108503635D01*
X177854502Y-108478766D01*
X177745598Y-108470097D01*
X177688470Y-108470097D01*
X177578714Y-108478103D01*
X177476821Y-108502119D01*
X177382791Y-108542147D01*
X177299230Y-108596717D01*
X177228744Y-108664362D01*
X177171331Y-108745080D01*
X177128840Y-108835699D01*
X177103118Y-108933045D01*
X177094165Y-109037117D01*
X177094165Y-109445542D01*
X176564482Y-109445542D01*
X176564482Y-107217538D01*
X177094165Y-107217538D01*
X177094165Y-107538991D01*
X177326089Y-107611467D01*
X177326089Y-108021597D01*
X177094165Y-108093221D01*
X177094165Y-108412969D01*
X178335640Y-107957648D01*
X178335640Y-107676270D01*
X177094165Y-107217538D01*
X176564482Y-107217538D01*
X176564482Y-106824461D01*
X177094165Y-106824461D01*
X178104569Y-106824461D01*
X178104569Y-107190253D01*
X178335640Y-107190253D01*
X178335640Y-106152564D01*
X178104569Y-106152564D01*
X178104569Y-106525177D01*
X177094165Y-106525177D01*
X177094165Y-106824461D01*
X176564482Y-106824461D01*
X176564482Y-106026370D01*
X177094165Y-106026370D01*
X178335640Y-106026370D01*
X178335640Y-105169446D01*
X178104569Y-105169446D01*
X178104569Y-105727086D01*
X177842802Y-105727086D01*
X177842802Y-105256417D01*
X177620257Y-105256417D01*
X177620257Y-105727086D01*
X177324384Y-105727086D01*
X177324384Y-105171151D01*
X177094165Y-105171151D01*
X177094165Y-106026370D01*
X176564482Y-106026370D01*
X176564482Y-105169446D01*
X176564482Y-104441842D01*
X178848270Y-104441842D01*
X178848270Y-105169446D01*
G37*
%TO.C,kibuzzard-6208EFFE*%
G36*
X183761669Y-90133541D02*
G01*
X182698943Y-90133541D01*
X182698943Y-89898672D01*
X183467501Y-89898672D01*
X183467501Y-88440621D01*
X183761669Y-88440621D01*
X183761669Y-90133541D01*
G37*
G36*
X179938646Y-88677816D02*
G01*
X179415423Y-88677816D01*
X179415423Y-90133541D01*
X179123580Y-90133541D01*
X179123580Y-88677816D01*
X178595705Y-88677816D01*
X178595705Y-88440621D01*
X179938646Y-88440621D01*
X179938646Y-88677816D01*
G37*
G36*
X181126946Y-90133541D02*
G01*
X180832778Y-90133541D01*
X180832778Y-89416143D01*
X180151424Y-89416143D01*
X180151424Y-89181274D01*
X180832778Y-89181274D01*
X180832778Y-88677816D01*
X180051430Y-88677816D01*
X180051430Y-88440621D01*
X181126946Y-88440621D01*
X181126946Y-90133541D01*
G37*
G36*
X182473375Y-90133541D02*
G01*
X181366466Y-90133541D01*
X181366466Y-89898672D01*
X182179207Y-89898672D01*
X182179207Y-89377773D01*
X181483901Y-89377773D01*
X181483901Y-89145229D01*
X182179207Y-89145229D01*
X182179207Y-88677816D01*
X181374605Y-88677816D01*
X181374605Y-88440621D01*
X182473375Y-88440621D01*
X182473375Y-90133541D01*
G37*
%TO.C,kibuzzard-620B8D91*%
G36*
X215171111Y-98458850D02*
G01*
X215262346Y-98498382D01*
X215337148Y-98562254D01*
X215392261Y-98648451D01*
X215417410Y-98716732D01*
X215432499Y-98791767D01*
X215437529Y-98873553D01*
X215437529Y-98957889D01*
X215431535Y-99037609D01*
X215416032Y-99110576D01*
X215391021Y-99176791D01*
X215336993Y-99260274D01*
X215264207Y-99322208D01*
X215175607Y-99360578D01*
X215074141Y-99373368D01*
X214978022Y-99364376D01*
X214895547Y-99337401D01*
X214826714Y-99292442D01*
X214773522Y-99231430D01*
X214737968Y-99156292D01*
X214720054Y-99067030D01*
X214876323Y-99067030D01*
X214897252Y-99149970D01*
X214935234Y-99205316D01*
X214993215Y-99236477D01*
X215074141Y-99246864D01*
X215163050Y-99227640D01*
X215227620Y-99169969D01*
X215256731Y-99110989D01*
X215274197Y-99036575D01*
X215280020Y-98946727D01*
X215280020Y-98866732D01*
X215273233Y-98778159D01*
X215254526Y-98705088D01*
X215223899Y-98647520D01*
X215157159Y-98591477D01*
X215066699Y-98572796D01*
X214989262Y-98583571D01*
X214933064Y-98615895D01*
X214896089Y-98672558D01*
X214876323Y-98756351D01*
X214720054Y-98756351D01*
X214738451Y-98664987D01*
X214773797Y-98588506D01*
X214826094Y-98526908D01*
X214893342Y-98481777D01*
X214973544Y-98454698D01*
X215066699Y-98445672D01*
X215171111Y-98458850D01*
G37*
G36*
X215952459Y-98454819D02*
G01*
X216027571Y-98482259D01*
X216089272Y-98526210D01*
X216134851Y-98584889D01*
X216162989Y-98655039D01*
X216172368Y-98733407D01*
X216021680Y-98733407D01*
X216011603Y-98664109D01*
X215981372Y-98611244D01*
X215932848Y-98577757D01*
X215867891Y-98566595D01*
X215812778Y-98576517D01*
X215770222Y-98606283D01*
X215743015Y-98652171D01*
X215733945Y-98710462D01*
X215761541Y-98808131D01*
X215798515Y-98862779D01*
X215854248Y-98929364D01*
X216155005Y-99257406D01*
X216155005Y-99360965D01*
X215547910Y-99360965D01*
X215547910Y-99240663D01*
X215967109Y-99240663D01*
X215746348Y-99004398D01*
X215671701Y-98915179D01*
X215621394Y-98836036D01*
X215592791Y-98763560D01*
X215583257Y-98694339D01*
X215591697Y-98622233D01*
X215617019Y-98561359D01*
X215659221Y-98511715D01*
X215716031Y-98475025D01*
X215785174Y-98453010D01*
X215866650Y-98445672D01*
X215952459Y-98454819D01*
G37*
G36*
X216479946Y-99360965D02*
G01*
X216323677Y-99360965D01*
X216323677Y-98458075D01*
X216479946Y-98458075D01*
X216479946Y-99360965D01*
G37*
%TO.C,J1*%
X212402620Y-85237180D02*
X212402620Y-97337180D01*
X212402620Y-97337180D02*
X215102620Y-97337180D01*
X213602620Y-82437180D02*
X219402620Y-82437180D01*
X213602620Y-85237180D02*
X212402620Y-85237180D01*
X213602620Y-85237180D02*
X213602620Y-82437180D01*
X219402620Y-85237180D02*
X219402620Y-82437180D01*
X219702620Y-85237180D02*
X219402620Y-85237180D01*
X219702620Y-85237180D02*
X219702620Y-97337180D01*
X219702620Y-97337180D02*
X215102620Y-97337180D01*
%TO.C,kibuzzard-61F01940*%
G36*
X228105376Y-119868561D02*
G01*
X227948486Y-119868561D01*
X227948486Y-119520676D01*
X227773613Y-119520676D01*
X227592539Y-119868561D01*
X227424487Y-119868561D01*
X227424487Y-119860500D01*
X227627266Y-119484089D01*
X227557735Y-119444169D01*
X227505413Y-119390141D01*
X227472624Y-119321695D01*
X227462590Y-119245344D01*
X227618584Y-119245344D01*
X227629746Y-119307433D01*
X227663232Y-119354794D01*
X227716562Y-119384792D01*
X227787256Y-119394792D01*
X227948486Y-119394792D01*
X227948486Y-119092175D01*
X227782915Y-119092175D01*
X227711214Y-119103027D01*
X227659822Y-119133102D01*
X227628893Y-119181006D01*
X227618584Y-119245344D01*
X227462590Y-119245344D01*
X227461694Y-119238522D01*
X227471134Y-119157011D01*
X227499453Y-119089419D01*
X227546650Y-119035744D01*
X227611211Y-118996814D01*
X227691620Y-118973457D01*
X227787876Y-118965671D01*
X228105376Y-118965671D01*
X228105376Y-119868561D01*
G37*
G36*
X230369424Y-119657721D02*
G01*
X230629873Y-118965671D01*
X230833271Y-118965671D01*
X230833271Y-119868561D01*
X230677002Y-119868561D01*
X230677002Y-119570905D01*
X230692505Y-119173410D01*
X230426475Y-119868561D01*
X230314233Y-119868561D01*
X230047583Y-119172790D01*
X230063086Y-119570905D01*
X230063086Y-119868561D01*
X229906816Y-119868561D01*
X229906816Y-118965671D01*
X230109595Y-118965671D01*
X230369424Y-119657721D01*
G37*
G36*
X229802017Y-119868561D02*
G01*
X229638926Y-119868561D01*
X229565752Y-119658342D01*
X229216006Y-119658342D01*
X229142212Y-119868561D01*
X228978501Y-119868561D01*
X229105929Y-119531838D01*
X229260034Y-119531838D01*
X229521724Y-119531838D01*
X229390879Y-119157287D01*
X229260034Y-119531838D01*
X229105929Y-119531838D01*
X229320186Y-118965671D01*
X229460952Y-118965671D01*
X229802017Y-119868561D01*
G37*
G36*
X226643760Y-119291852D02*
G01*
X226833516Y-118965671D01*
X227014590Y-118965671D01*
X226741118Y-119413395D01*
X227020791Y-119868561D01*
X226838477Y-119868561D01*
X226643760Y-119537419D01*
X226449663Y-119868561D01*
X226266729Y-119868561D01*
X226545781Y-119413395D01*
X226272930Y-118965671D01*
X226454004Y-118965671D01*
X226643760Y-119291852D01*
G37*
G36*
X228940054Y-119092175D02*
G01*
X228661001Y-119092175D01*
X228661001Y-119868561D01*
X228505352Y-119868561D01*
X228505352Y-119092175D01*
X228223818Y-119092175D01*
X228223818Y-118965671D01*
X228940054Y-118965671D01*
X228940054Y-119092175D01*
G37*
G36*
X227303564Y-119868561D02*
G01*
X227147295Y-119868561D01*
X227147295Y-118965671D01*
X227303564Y-118965671D01*
X227303564Y-119868561D01*
G37*
%TO.C,kibuzzard-61F01957*%
G36*
X220135723Y-118973526D02*
G01*
X220212721Y-118997091D01*
X220277937Y-119036365D01*
X220327374Y-119087766D01*
X220357036Y-119147710D01*
X220366924Y-119216199D01*
X220353212Y-119294058D01*
X220312078Y-119361444D01*
X220243521Y-119418357D01*
X220167866Y-119456804D01*
X220069888Y-119491531D01*
X219977568Y-119524242D01*
X219918889Y-119556643D01*
X219887496Y-119595710D01*
X219877031Y-119648420D01*
X219887341Y-119697642D01*
X219918269Y-119736167D01*
X219969661Y-119761049D01*
X220041362Y-119769343D01*
X220125233Y-119758801D01*
X220187090Y-119727175D01*
X220225227Y-119676326D01*
X220237939Y-119608113D01*
X220394829Y-119608113D01*
X220383434Y-119687798D01*
X220349250Y-119756941D01*
X220294525Y-119813914D01*
X220221506Y-119857090D01*
X220135388Y-119884297D01*
X220041362Y-119893367D01*
X219949413Y-119885960D01*
X219871175Y-119863739D01*
X219806648Y-119826704D01*
X219758589Y-119777129D01*
X219729753Y-119717288D01*
X219720142Y-119647180D01*
X219727583Y-119582145D01*
X219749907Y-119525947D01*
X219788199Y-119477113D01*
X219843545Y-119434170D01*
X219917804Y-119396343D01*
X220012837Y-119362856D01*
X220103374Y-119331075D01*
X220164146Y-119298364D01*
X220198562Y-119261080D01*
X220210034Y-119215579D01*
X220199415Y-119163179D01*
X220167556Y-119123801D01*
X220116474Y-119099152D01*
X220048184Y-119090935D01*
X219975242Y-119100934D01*
X219921370Y-119130933D01*
X219888116Y-119178604D01*
X219877031Y-119241623D01*
X219720762Y-119241623D01*
X219731304Y-119166977D01*
X219762930Y-119099307D01*
X219813004Y-119042488D01*
X219878892Y-119000398D01*
X219957802Y-118974353D01*
X220046943Y-118965671D01*
X220135723Y-118973526D01*
G37*
G36*
X219582476Y-119880964D02*
G01*
X219425586Y-119880964D01*
X219425586Y-119545481D01*
X219238931Y-119545481D01*
X219142089Y-119537282D01*
X219060750Y-119512684D01*
X218994915Y-119471687D01*
X218946511Y-119415945D01*
X218917469Y-119347112D01*
X218907935Y-119266428D01*
X219065298Y-119266428D01*
X219076305Y-119332083D01*
X219109326Y-119380220D01*
X219163276Y-119409753D01*
X219237070Y-119419597D01*
X219425586Y-119419597D01*
X219425586Y-119104578D01*
X219232729Y-119104578D01*
X219162966Y-119116437D01*
X219109946Y-119149536D01*
X219076460Y-119200618D01*
X219065298Y-119266428D01*
X218907935Y-119266428D01*
X218907788Y-119265188D01*
X218917676Y-119184435D01*
X218947338Y-119114982D01*
X218996775Y-119056829D01*
X219063024Y-119013076D01*
X219143123Y-118986824D01*
X219237070Y-118978074D01*
X219582476Y-118978074D01*
X219582476Y-119880964D01*
G37*
G36*
X218761440Y-119880964D02*
G01*
X218605171Y-119880964D01*
X218605171Y-118978074D01*
X218761440Y-118978074D01*
X218761440Y-119880964D01*
G37*
%TO.C,kibuzzard-61F01940*%
G36*
X182306140Y-119947201D02*
G01*
X182149871Y-119947201D01*
X182149871Y-119044311D01*
X182306140Y-119044311D01*
X182306140Y-119947201D01*
G37*
G36*
X183942630Y-119170815D02*
G01*
X183663577Y-119170815D01*
X183663577Y-119947201D01*
X183507928Y-119947201D01*
X183507928Y-119170815D01*
X183226394Y-119170815D01*
X183226394Y-119044311D01*
X183942630Y-119044311D01*
X183942630Y-119170815D01*
G37*
G36*
X181646336Y-119370492D02*
G01*
X181836092Y-119044311D01*
X182017166Y-119044311D01*
X181743694Y-119492035D01*
X182023367Y-119947201D01*
X181841053Y-119947201D01*
X181646336Y-119616059D01*
X181452239Y-119947201D01*
X181269305Y-119947201D01*
X181548357Y-119492035D01*
X181275506Y-119044311D01*
X181456580Y-119044311D01*
X181646336Y-119370492D01*
G37*
G36*
X184804593Y-119947201D02*
G01*
X184641502Y-119947201D01*
X184568328Y-119736982D01*
X184218582Y-119736982D01*
X184144788Y-119947201D01*
X183981077Y-119947201D01*
X184108505Y-119610478D01*
X184262610Y-119610478D01*
X184524300Y-119610478D01*
X184393455Y-119235927D01*
X184262610Y-119610478D01*
X184108505Y-119610478D01*
X184322762Y-119044311D01*
X184463528Y-119044311D01*
X184804593Y-119947201D01*
G37*
G36*
X185372000Y-119736361D02*
G01*
X185632449Y-119044311D01*
X185835847Y-119044311D01*
X185835847Y-119947201D01*
X185679578Y-119947201D01*
X185679578Y-119649545D01*
X185695081Y-119252050D01*
X185429051Y-119947201D01*
X185316809Y-119947201D01*
X185050159Y-119251430D01*
X185065662Y-119649545D01*
X185065662Y-119947201D01*
X184909392Y-119947201D01*
X184909392Y-119044311D01*
X185112171Y-119044311D01*
X185372000Y-119736361D01*
G37*
G36*
X183107952Y-119947201D02*
G01*
X182951062Y-119947201D01*
X182951062Y-119599316D01*
X182776189Y-119599316D01*
X182595115Y-119947201D01*
X182427063Y-119947201D01*
X182427063Y-119939140D01*
X182629842Y-119562729D01*
X182560311Y-119522809D01*
X182507989Y-119468781D01*
X182475200Y-119400335D01*
X182465166Y-119323984D01*
X182621160Y-119323984D01*
X182632322Y-119386073D01*
X182665808Y-119433434D01*
X182719138Y-119463432D01*
X182789832Y-119473432D01*
X182951062Y-119473432D01*
X182951062Y-119170815D01*
X182785491Y-119170815D01*
X182713790Y-119181667D01*
X182662398Y-119211742D01*
X182631469Y-119259646D01*
X182621160Y-119323984D01*
X182465166Y-119323984D01*
X182464270Y-119317162D01*
X182473710Y-119235651D01*
X182502029Y-119168059D01*
X182549226Y-119114384D01*
X182613787Y-119075454D01*
X182694196Y-119052097D01*
X182790452Y-119044311D01*
X183107952Y-119044311D01*
X183107952Y-119947201D01*
G37*
%TO.C,kibuzzard-61F01B61*%
G36*
X231998215Y-88364040D02*
G01*
X232135489Y-88404481D01*
X232254595Y-88471882D01*
X232355533Y-88566244D01*
X232435906Y-88684587D01*
X232493316Y-88823932D01*
X232527761Y-88984278D01*
X232539243Y-89165626D01*
X232539243Y-89298176D01*
X232527422Y-89451203D01*
X232496610Y-89590923D01*
X232446807Y-89717337D01*
X232339110Y-89876193D01*
X232193915Y-89993483D01*
X232079194Y-90047097D01*
X231953620Y-90079265D01*
X231817194Y-90089988D01*
X231621276Y-90074582D01*
X231447449Y-90028364D01*
X231302400Y-89952206D01*
X231192814Y-89846980D01*
X231192814Y-89198182D01*
X231834635Y-89198182D01*
X231834635Y-89421425D01*
X231485819Y-89421425D01*
X231485819Y-89752800D01*
X231613718Y-89829539D01*
X231806730Y-89855119D01*
X231990003Y-89817185D01*
X232128222Y-89703384D01*
X232192494Y-89588598D01*
X232231058Y-89446552D01*
X232243912Y-89277247D01*
X232243912Y-89147023D01*
X232230541Y-88978105D01*
X232195078Y-88838773D01*
X232137523Y-88729025D01*
X232010932Y-88622200D01*
X231836960Y-88586592D01*
X231700123Y-88605704D01*
X231595405Y-88663041D01*
X231522808Y-88758602D01*
X231482331Y-88892387D01*
X231193976Y-88892387D01*
X231231183Y-88730898D01*
X231297846Y-88596798D01*
X231393964Y-88490086D01*
X231517729Y-88412571D01*
X231667333Y-88366063D01*
X231842774Y-88350560D01*
X231998215Y-88364040D01*
G37*
G36*
X234648417Y-90066734D02*
G01*
X234354249Y-90066734D01*
X234354249Y-89414448D01*
X234026362Y-89414448D01*
X233686848Y-90066734D01*
X233371750Y-90066734D01*
X233371750Y-90051619D01*
X233751960Y-89345848D01*
X233621590Y-89270998D01*
X233523485Y-89169696D01*
X233462007Y-89041361D01*
X233443195Y-88898201D01*
X233735682Y-88898201D01*
X233756611Y-89014618D01*
X233819398Y-89103421D01*
X233919391Y-89159667D01*
X234051942Y-89178416D01*
X234354249Y-89178416D01*
X234354249Y-88611009D01*
X234043802Y-88611009D01*
X233909363Y-88631356D01*
X233813003Y-88687748D01*
X233755012Y-88777568D01*
X233735682Y-88898201D01*
X233443195Y-88898201D01*
X233441514Y-88885411D01*
X233459213Y-88732578D01*
X233512310Y-88605841D01*
X233600806Y-88505201D01*
X233721858Y-88432208D01*
X233872624Y-88388413D01*
X234053104Y-88373814D01*
X234648417Y-88373814D01*
X234648417Y-90066734D01*
G37*
G36*
X229818479Y-89078422D02*
G01*
X230575410Y-89078422D01*
X230575410Y-88373814D01*
X230869578Y-88373814D01*
X230869578Y-90066734D01*
X230575410Y-90066734D01*
X230575410Y-89314454D01*
X229818479Y-89314454D01*
X229818479Y-90066734D01*
X229525474Y-90066734D01*
X229525474Y-88373814D01*
X229818479Y-88373814D01*
X229818479Y-89078422D01*
G37*
G36*
X229297581Y-88611009D02*
G01*
X228774357Y-88611009D01*
X228774357Y-90066734D01*
X228482514Y-90066734D01*
X228482514Y-88611009D01*
X227954639Y-88611009D01*
X227954639Y-88373814D01*
X229297581Y-88373814D01*
X229297581Y-88611009D01*
G37*
G36*
X233145020Y-90066734D02*
G01*
X232852015Y-90066734D01*
X232852015Y-88373814D01*
X233145020Y-88373814D01*
X233145020Y-90066734D01*
G37*
%TO.C,kibuzzard-61F019CB*%
G36*
X190239403Y-115080677D02*
G01*
X190279323Y-115011146D01*
X190333351Y-114958824D01*
X190401797Y-114926035D01*
X190484970Y-114915106D01*
X190566481Y-114924545D01*
X190634073Y-114952864D01*
X190687748Y-115000062D01*
X190726678Y-115064623D01*
X190750035Y-115145031D01*
X190757821Y-115241287D01*
X190757821Y-115558787D01*
X189854931Y-115558787D01*
X189854931Y-115401898D01*
X190202816Y-115401898D01*
X190328700Y-115401898D01*
X190631317Y-115401898D01*
X190631317Y-115236327D01*
X190620465Y-115164625D01*
X190590390Y-115113233D01*
X190542486Y-115082305D01*
X190478148Y-115071995D01*
X190416059Y-115083158D01*
X190368698Y-115116644D01*
X190338700Y-115169974D01*
X190328700Y-115240667D01*
X190328700Y-115401898D01*
X190202816Y-115401898D01*
X190202816Y-115227025D01*
X189854931Y-115045951D01*
X189854931Y-114877899D01*
X189862992Y-114877899D01*
X190239403Y-115080677D01*
G37*
G36*
X190189871Y-113267532D02*
G01*
X190250255Y-113297530D01*
X190296377Y-113345822D01*
X190324980Y-113410702D01*
X190357846Y-113353961D01*
X190401874Y-113312723D01*
X190454584Y-113287608D01*
X190513495Y-113279237D01*
X190587840Y-113288125D01*
X190648818Y-113314790D01*
X190696430Y-113359232D01*
X190730536Y-113420692D01*
X190751000Y-113498414D01*
X190757821Y-113592396D01*
X190757821Y-113901834D01*
X189854931Y-113901834D01*
X189854931Y-113744945D01*
X189980194Y-113744945D01*
X190262348Y-113744945D01*
X190377689Y-113744945D01*
X190631317Y-113744945D01*
X190631317Y-113592396D01*
X190623876Y-113522400D01*
X190601552Y-113473643D01*
X190562484Y-113445040D01*
X190504814Y-113435506D01*
X190450941Y-113445816D01*
X190410866Y-113476744D01*
X190385984Y-113525966D01*
X190377689Y-113591156D01*
X190377689Y-113744945D01*
X190262348Y-113744945D01*
X190262348Y-113557669D01*
X190244984Y-113477743D01*
X190197029Y-113429787D01*
X190118480Y-113413802D01*
X190060500Y-113424189D01*
X190016781Y-113455350D01*
X189989341Y-113504959D01*
X189980194Y-113570692D01*
X189980194Y-113744945D01*
X189854931Y-113744945D01*
X189854931Y-113572552D01*
X189862510Y-113479087D01*
X189885248Y-113401262D01*
X189923144Y-113339078D01*
X189975165Y-113293775D01*
X190040277Y-113266593D01*
X190118480Y-113257533D01*
X190189871Y-113267532D01*
G37*
G36*
X190318158Y-114416532D02*
G01*
X190199096Y-114416532D01*
X190199096Y-114230496D01*
X190022362Y-114230496D01*
X189981435Y-114298709D01*
X189967792Y-114401649D01*
X189988023Y-114499395D01*
X190048717Y-114573111D01*
X190109937Y-114607390D01*
X190185694Y-114627957D01*
X190275990Y-114634813D01*
X190345443Y-114634813D01*
X190435533Y-114627681D01*
X190509843Y-114608768D01*
X190568376Y-114578072D01*
X190625349Y-114510557D01*
X190644340Y-114417772D01*
X190634147Y-114344792D01*
X190603567Y-114288942D01*
X190552601Y-114250224D01*
X190481249Y-114228636D01*
X190481249Y-114074847D01*
X190567376Y-114094691D01*
X190638897Y-114130244D01*
X190695810Y-114181507D01*
X190737151Y-114247515D01*
X190761955Y-114327304D01*
X190770224Y-114420872D01*
X190763034Y-114503774D01*
X190741466Y-114576987D01*
X190705518Y-114640510D01*
X190655192Y-114694344D01*
X190592076Y-114737210D01*
X190517758Y-114767828D01*
X190432240Y-114786199D01*
X190335522Y-114792323D01*
X190264828Y-114792323D01*
X190183214Y-114786018D01*
X190108696Y-114769585D01*
X190041276Y-114743023D01*
X189956552Y-114685585D01*
X189893998Y-114608148D01*
X189865404Y-114546963D01*
X189848247Y-114479990D01*
X189842528Y-114407230D01*
X189850745Y-114302740D01*
X189875395Y-114210033D01*
X189916012Y-114132673D01*
X189972133Y-114074227D01*
X190318158Y-114074227D01*
X190318158Y-114416532D01*
G37*
%TD*%
D12*
%TO.C,U2*%
X188446376Y-88388160D03*
D13*
X188446376Y-90928160D03*
X188446376Y-93468160D03*
X188446376Y-96008160D03*
X188446376Y-98548160D03*
X188446376Y-101088160D03*
X188446376Y-103628160D03*
X188446376Y-106168160D03*
X188446376Y-108708160D03*
X188446376Y-111248160D03*
X188446376Y-113788160D03*
X188446376Y-116328160D03*
X173206376Y-116328160D03*
X173206376Y-113788160D03*
X173206376Y-111248160D03*
X173206376Y-108708160D03*
X173206376Y-106168160D03*
X173206376Y-103628160D03*
X173206376Y-101088160D03*
X173206376Y-98548160D03*
X173206376Y-96008160D03*
X173206376Y-93468160D03*
X173206376Y-90928160D03*
X173206376Y-88388160D03*
X185906376Y-113788160D03*
X183366376Y-116328160D03*
X185906376Y-116328160D03*
%TD*%
%TO.C,U1*%
X236990000Y-116249520D03*
X234450000Y-116249520D03*
X236990000Y-113709520D03*
X224290000Y-88309520D03*
X224290000Y-90849520D03*
X224290000Y-93389520D03*
X224290000Y-95929520D03*
X224290000Y-98469520D03*
X224290000Y-101009520D03*
X224290000Y-103549520D03*
X224290000Y-106089520D03*
X224290000Y-108629520D03*
X224290000Y-111169520D03*
X224290000Y-113709520D03*
X224290000Y-116249520D03*
X239530000Y-116249520D03*
X239530000Y-113709520D03*
X239530000Y-111169520D03*
X239530000Y-108629520D03*
X239530000Y-106089520D03*
X239530000Y-103549520D03*
X239530000Y-101009520D03*
X239530000Y-98469520D03*
X239530000Y-95929520D03*
X239530000Y-93389520D03*
X239530000Y-90849520D03*
D12*
X239530000Y-88309520D03*
%TD*%
M02*
