M48
; DRILL file {KiCad 7.0.7} date Fri Jan 26 01:18:22 2024
; FORMAT={-:-/ absolute / inch / decimal}
; #@! TF.CreationDate,2024-01-26T01:18:22+08:00
; #@! TF.GenerationSoftware,Kicad,Pcbnew,7.0.7
; #@! TF.FileFunction,NonPlated,1,2,NPTH
FMAT,2
INCH
; #@! TA.AperFunction,NonPlated,NPTH,ComponentDrill
T1C0.0118
; #@! TA.AperFunction,NonPlated,NPTH,ComponentDrill
T2C0.0354
; #@! TA.AperFunction,NonPlated,NPTH,ComponentDrill
T3C0.0591
%
G90
G05
T1
X7.9146Y-4.1396
X7.9146Y-4.1629
X7.9146Y-4.1863
X7.9146Y-4.2097
X7.9146Y-4.2331
X7.9146Y-4.2564
X7.9146Y-4.2798
X7.9146Y-4.3032
X7.9146Y-4.3266
X7.9173Y-3.5699
X7.9173Y-3.5933
X7.9173Y-3.6166
X7.9173Y-3.64
X7.9173Y-3.6634
X7.9173Y-3.6868
X7.9173Y-3.7101
X7.9173Y-3.7335
X7.9173Y-3.7569
X8.1185Y-4.6341
X8.1185Y-4.6574
X8.1185Y-4.6808
X8.1185Y-4.7042
X8.1185Y-4.7276
X8.1185Y-4.7509
X8.1185Y-4.7743
X8.1185Y-4.7977
X8.1185Y-4.8211
X8.3217Y-3.5707
X8.3217Y-3.594
X8.3217Y-3.6174
X8.3217Y-3.6408
X8.3217Y-3.6642
X8.3217Y-3.6875
X8.3217Y-3.7109
X8.3217Y-3.7343
X8.3217Y-3.7577
X8.324Y-4.138
X8.324Y-4.1614
X8.324Y-4.1847
X8.324Y-4.2081
X8.324Y-4.2315
X8.324Y-4.2549
X8.324Y-4.2782
X8.324Y-4.3016
X8.324Y-4.325
T2
X7.0601Y-3.6952
X7.1782Y-3.6952
X9.0713Y-3.6921
X9.1894Y-3.6921
T3
G00X7.7482Y-3.6677
M15
G01X7.7482Y-3.6677
M16
G05
G00X8.5237Y-3.6589
M15
G01X8.5237Y-3.6589
M16
G05
T0
M30
