%TF.GenerationSoftware,KiCad,Pcbnew,7.0.7*%
%TF.CreationDate,2024-01-25T12:19:21+08:00*%
%TF.ProjectId,sensor,73656e73-6f72-42e6-9b69-6361645f7063,rev?*%
%TF.SameCoordinates,Original*%
%TF.FileFunction,Drillmap*%
%TF.FilePolarity,Positive*%
%FSLAX45Y45*%
G04 Gerber Fmt 4.5, Leading zero omitted, Abs format (unit mm)*
G04 Created by KiCad (PCBNEW 7.0.7) date 2024-01-25 12:19:21*
%MOMM*%
%LPD*%
G01*
G04 APERTURE LIST*
%ADD10C,0.050000*%
%ADD11C,0.200000*%
G04 APERTURE END LIST*
D10*
X6409999Y-11620000D02*
G75*
G03*
X7990000Y-13190000I1635307J65691D01*
G01*
X6410000Y-11620000D02*
X6410000Y-10490000D01*
X8110000Y-8920000D02*
G75*
G03*
X6410000Y-10490000I128843J-1844894D01*
G01*
X7990000Y-13189999D02*
G75*
G03*
X8110000Y-8920000I155482J2132316D01*
G01*
D11*
X6668277Y-13509644D02*
X6668277Y-13309644D01*
X6668277Y-13309644D02*
X6715896Y-13309644D01*
X6715896Y-13309644D02*
X6744467Y-13319168D01*
X6744467Y-13319168D02*
X6763515Y-13338216D01*
X6763515Y-13338216D02*
X6773039Y-13357263D01*
X6773039Y-13357263D02*
X6782562Y-13395358D01*
X6782562Y-13395358D02*
X6782562Y-13423930D01*
X6782562Y-13423930D02*
X6773039Y-13462025D01*
X6773039Y-13462025D02*
X6763515Y-13481073D01*
X6763515Y-13481073D02*
X6744467Y-13500120D01*
X6744467Y-13500120D02*
X6715896Y-13509644D01*
X6715896Y-13509644D02*
X6668277Y-13509644D01*
X6868277Y-13509644D02*
X6868277Y-13376311D01*
X6868277Y-13414406D02*
X6877800Y-13395358D01*
X6877800Y-13395358D02*
X6887324Y-13385835D01*
X6887324Y-13385835D02*
X6906372Y-13376311D01*
X6906372Y-13376311D02*
X6925420Y-13376311D01*
X6992086Y-13509644D02*
X6992086Y-13376311D01*
X6992086Y-13309644D02*
X6982562Y-13319168D01*
X6982562Y-13319168D02*
X6992086Y-13328692D01*
X6992086Y-13328692D02*
X7001610Y-13319168D01*
X7001610Y-13319168D02*
X6992086Y-13309644D01*
X6992086Y-13309644D02*
X6992086Y-13328692D01*
X7115896Y-13509644D02*
X7096848Y-13500120D01*
X7096848Y-13500120D02*
X7087324Y-13481073D01*
X7087324Y-13481073D02*
X7087324Y-13309644D01*
X7220658Y-13509644D02*
X7201610Y-13500120D01*
X7201610Y-13500120D02*
X7192086Y-13481073D01*
X7192086Y-13481073D02*
X7192086Y-13309644D01*
X7449229Y-13509644D02*
X7449229Y-13309644D01*
X7449229Y-13309644D02*
X7515896Y-13452501D01*
X7515896Y-13452501D02*
X7582562Y-13309644D01*
X7582562Y-13309644D02*
X7582562Y-13509644D01*
X7763515Y-13509644D02*
X7763515Y-13404882D01*
X7763515Y-13404882D02*
X7753991Y-13385835D01*
X7753991Y-13385835D02*
X7734943Y-13376311D01*
X7734943Y-13376311D02*
X7696848Y-13376311D01*
X7696848Y-13376311D02*
X7677800Y-13385835D01*
X7763515Y-13500120D02*
X7744467Y-13509644D01*
X7744467Y-13509644D02*
X7696848Y-13509644D01*
X7696848Y-13509644D02*
X7677800Y-13500120D01*
X7677800Y-13500120D02*
X7668277Y-13481073D01*
X7668277Y-13481073D02*
X7668277Y-13462025D01*
X7668277Y-13462025D02*
X7677800Y-13442978D01*
X7677800Y-13442978D02*
X7696848Y-13433454D01*
X7696848Y-13433454D02*
X7744467Y-13433454D01*
X7744467Y-13433454D02*
X7763515Y-13423930D01*
X7858753Y-13376311D02*
X7858753Y-13576311D01*
X7858753Y-13385835D02*
X7877800Y-13376311D01*
X7877800Y-13376311D02*
X7915896Y-13376311D01*
X7915896Y-13376311D02*
X7934943Y-13385835D01*
X7934943Y-13385835D02*
X7944467Y-13395358D01*
X7944467Y-13395358D02*
X7953991Y-13414406D01*
X7953991Y-13414406D02*
X7953991Y-13471549D01*
X7953991Y-13471549D02*
X7944467Y-13490597D01*
X7944467Y-13490597D02*
X7934943Y-13500120D01*
X7934943Y-13500120D02*
X7915896Y-13509644D01*
X7915896Y-13509644D02*
X7877800Y-13509644D01*
X7877800Y-13509644D02*
X7858753Y-13500120D01*
X8039705Y-13490597D02*
X8049229Y-13500120D01*
X8049229Y-13500120D02*
X8039705Y-13509644D01*
X8039705Y-13509644D02*
X8030181Y-13500120D01*
X8030181Y-13500120D02*
X8039705Y-13490597D01*
X8039705Y-13490597D02*
X8039705Y-13509644D01*
X8039705Y-13385835D02*
X8049229Y-13395358D01*
X8049229Y-13395358D02*
X8039705Y-13404882D01*
X8039705Y-13404882D02*
X8030181Y-13395358D01*
X8030181Y-13395358D02*
X8039705Y-13385835D01*
X8039705Y-13385835D02*
X8039705Y-13404882D01*
M02*
