M48
; DRILL file {KiCad 7.0.7} date Thu Jan 25 12:19:22 2024
; FORMAT={-:-/ absolute / inch / decimal}
; #@! TF.CreationDate,2024-01-25T12:19:22+08:00
; #@! TF.GenerationSoftware,Kicad,Pcbnew,7.0.7
; #@! TF.FileFunction,Plated,1,2,PTH
FMAT,2
INCH
; #@! TA.AperFunction,Plated,PTH,ViaDrill
T1C0.0118
; #@! TA.AperFunction,Plated,PTH,ComponentDrill
T2C0.0276
; #@! TA.AperFunction,Plated,PTH,ComponentDrill
T3C0.0394
; #@! TA.AperFunction,Plated,PTH,ComponentDrill
T4C0.1260
%
G90
G05
T1
X2.9488Y-4.3189
X3.1969Y-3.8661
X3.5118Y-3.9606
T2
X3.0004Y-4.0087
X3.0004Y-4.0787
X3.0004Y-4.1488
X3.0004Y-4.2189
X3.0004Y-4.289
X3.0004Y-4.3591
X3.0004Y-4.4291
X3.0004Y-4.4992
X3.4217Y-3.9736
X3.4217Y-4.0437
X3.4217Y-4.1138
X3.4217Y-4.1839
X3.4217Y-4.2539
X3.4217Y-4.324
X3.4217Y-4.3941
X3.4217Y-4.4642
T3
X3.811Y-4.0984
X3.811Y-4.1984
X3.811Y-4.2984
X3.811Y-4.3984
X3.811Y-4.4984
X3.811Y-4.5984
T4
X3.2126Y-3.6299
X3.2126Y-5.0866
T0
M30
