G04 #@! TF.GenerationSoftware,KiCad,Pcbnew,7.0.7*
G04 #@! TF.CreationDate,2024-02-03T15:44:35+08:00*
G04 #@! TF.ProjectId,flex,666c6578-2e6b-4696-9361-645f70636258,rev?*
G04 #@! TF.SameCoordinates,Original*
G04 #@! TF.FileFunction,Paste,Bot*
G04 #@! TF.FilePolarity,Positive*
%FSLAX46Y46*%
G04 Gerber Fmt 4.6, Leading zero omitted, Abs format (unit mm)*
G04 Created by KiCad (PCBNEW 7.0.7) date 2024-02-03 15:44:35*
%MOMM*%
%LPD*%
G01*
G04 APERTURE LIST*
G04 Aperture macros list*
%AMRoundRect*
0 Rectangle with rounded corners*
0 $1 Rounding radius*
0 $2 $3 $4 $5 $6 $7 $8 $9 X,Y pos of 4 corners*
0 Add a 4 corners polygon primitive as box body*
4,1,4,$2,$3,$4,$5,$6,$7,$8,$9,$2,$3,0*
0 Add four circle primitives for the rounded corners*
1,1,$1+$1,$2,$3*
1,1,$1+$1,$4,$5*
1,1,$1+$1,$6,$7*
1,1,$1+$1,$8,$9*
0 Add four rect primitives between the rounded corners*
20,1,$1+$1,$2,$3,$4,$5,0*
20,1,$1+$1,$4,$5,$6,$7,0*
20,1,$1+$1,$6,$7,$8,$9,0*
20,1,$1+$1,$8,$9,$2,$3,0*%
%AMRotRect*
0 Rectangle, with rotation*
0 The origin of the aperture is its center*
0 $1 length*
0 $2 width*
0 $3 Rotation angle, in degrees counterclockwise*
0 Add horizontal line*
21,1,$1,$2,0,0,$3*%
G04 Aperture macros list end*
%ADD10R,2.550000X2.500000*%
%ADD11R,1.524000X1.524000*%
%ADD12RotRect,2.550000X2.500000X10.000000*%
%ADD13RotRect,2.550000X2.500000X344.000000*%
%ADD14RoundRect,0.250001X-0.624999X0.462499X-0.624999X-0.462499X0.624999X-0.462499X0.624999X0.462499X0*%
%ADD15R,2.400000X0.820000*%
%ADD16RotRect,2.400000X0.820000X190.000000*%
%ADD17RotRect,2.400000X0.820000X165.000000*%
%ADD18RoundRect,0.250001X-0.695816X0.346943X-0.535192X-0.564003X0.695816X-0.346943X0.535192X0.564003X0*%
%ADD19RoundRect,0.250001X0.695816X-0.346943X0.535192X0.564003X-0.695816X0.346943X-0.535192X-0.564003X0*%
G04 APERTURE END LIST*
D10*
X80165326Y-50002185D03*
X94015326Y-47462185D03*
D11*
X73424526Y-52061785D03*
X73424526Y-55461785D03*
X83872275Y-91345142D03*
X83872275Y-94745142D03*
D12*
X67653387Y-97058569D03*
X80851908Y-92152130D03*
D11*
X82080000Y-70806000D03*
X82080000Y-67406000D03*
D10*
X86724800Y-72034400D03*
X100574800Y-69494400D03*
D12*
X59620713Y-53182354D03*
X72819234Y-48275915D03*
D11*
X99490526Y-47267785D03*
X99490526Y-50667785D03*
X97424526Y-47261785D03*
X97424526Y-50661785D03*
X99670000Y-77774000D03*
X99670000Y-81174000D03*
D12*
X66180187Y-75214569D03*
X79378708Y-70308130D03*
D13*
X102951506Y-51013962D03*
X116965100Y-52389935D03*
D14*
X96740526Y-53780285D03*
X96740526Y-56755285D03*
D15*
X91450000Y-79950000D03*
X97050000Y-79950000D03*
X97050000Y-78450000D03*
X91450000Y-78450000D03*
D16*
X65663300Y-59992606D03*
X71178224Y-59020176D03*
X70917752Y-57542964D03*
X65402828Y-58515394D03*
D17*
X105241819Y-60067536D03*
X110651004Y-61516923D03*
X111039233Y-60068034D03*
X105630048Y-58618647D03*
D16*
X72222774Y-82024821D03*
X77737698Y-81052391D03*
X77477226Y-79575179D03*
X71962302Y-80547609D03*
X73822774Y-104054821D03*
X79337698Y-103082391D03*
X79077226Y-101605179D03*
X73562302Y-102577609D03*
D15*
X84890526Y-57917785D03*
X90490526Y-57917785D03*
X90490526Y-56417785D03*
X84890526Y-56417785D03*
D18*
X81421698Y-79015098D03*
X81938302Y-81944902D03*
D14*
X101840526Y-53780285D03*
X101840526Y-56755285D03*
D19*
X80328302Y-76574902D03*
X79811698Y-73645098D03*
M02*
