G04 #@! TF.GenerationSoftware,KiCad,Pcbnew,7.0.7*
G04 #@! TF.CreationDate,2024-02-03T15:44:35+08:00*
G04 #@! TF.ProjectId,flex,666c6578-2e6b-4696-9361-645f70636258,rev?*
G04 #@! TF.SameCoordinates,Original*
G04 #@! TF.FileFunction,Soldermask,Top*
G04 #@! TF.FilePolarity,Negative*
%FSLAX46Y46*%
G04 Gerber Fmt 4.6, Leading zero omitted, Abs format (unit mm)*
G04 Created by KiCad (PCBNEW 7.0.7) date 2024-02-03 15:44:35*
%MOMM*%
%LPD*%
G01*
G04 APERTURE LIST*
G04 Aperture macros list*
%AMRoundRect*
0 Rectangle with rounded corners*
0 $1 Rounding radius*
0 $2 $3 $4 $5 $6 $7 $8 $9 X,Y pos of 4 corners*
0 Add a 4 corners polygon primitive as box body*
4,1,4,$2,$3,$4,$5,$6,$7,$8,$9,$2,$3,0*
0 Add four circle primitives for the rounded corners*
1,1,$1+$1,$2,$3*
1,1,$1+$1,$4,$5*
1,1,$1+$1,$6,$7*
1,1,$1+$1,$8,$9*
0 Add four rect primitives between the rounded corners*
20,1,$1+$1,$2,$3,$4,$5,0*
20,1,$1+$1,$4,$5,$6,$7,0*
20,1,$1+$1,$6,$7,$8,$9,0*
20,1,$1+$1,$8,$9,$2,$3,0*%
%AMHorizOval*
0 Thick line with rounded ends*
0 $1 width*
0 $2 $3 position (X,Y) of the first rounded end (center of the circle)*
0 $4 $5 position (X,Y) of the second rounded end (center of the circle)*
0 Add line between two ends*
20,1,$1,$2,$3,$4,$5,0*
0 Add two circle primitives to create the rounded ends*
1,1,$1,$2,$3*
1,1,$1,$4,$5*%
%AMRotRect*
0 Rectangle, with rotation*
0 The origin of the aperture is its center*
0 $1 length*
0 $2 width*
0 $3 Rotation angle, in degrees counterclockwise*
0 Add horizontal line*
21,1,$1,$2,0,0,$3*%
G04 Aperture macros list end*
%ADD10RotRect,1.700000X1.700000X10.000000*%
%ADD11HorizOval,1.700000X0.000000X0.000000X0.000000X0.000000X0*%
%ADD12C,3.000000*%
%ADD13C,3.987800*%
%ADD14R,1.524000X1.524000*%
%ADD15R,1.700000X1.700000*%
%ADD16O,1.700000X1.700000*%
%ADD17RoundRect,0.250001X-0.624999X0.462499X-0.624999X-0.462499X0.624999X-0.462499X0.624999X0.462499X0*%
G04 APERTURE END LIST*
D10*
X68770000Y-77710000D03*
D11*
X69211066Y-80211412D03*
X69652133Y-82712823D03*
D12*
X83915326Y-50002185D03*
D13*
X87725326Y-52542185D03*
D12*
X90265326Y-47462185D03*
D14*
X73424526Y-52061785D03*
X73424526Y-55461785D03*
X83872275Y-91345142D03*
X83872275Y-94745142D03*
D12*
X71346416Y-96407388D03*
D13*
X75539600Y-98247200D03*
D12*
X77158879Y-92803310D03*
D14*
X82080000Y-70806000D03*
X82080000Y-67406000D03*
D12*
X90474800Y-72034400D03*
D13*
X94284800Y-74574400D03*
D12*
X96824800Y-69494400D03*
D15*
X84130000Y-67920000D03*
D16*
X84130000Y-70460000D03*
X84130000Y-73000000D03*
X84130000Y-75540000D03*
X84130000Y-78080000D03*
X84130000Y-80620000D03*
D12*
X63313742Y-52531173D03*
D13*
X67506926Y-54370985D03*
D12*
X69126205Y-48927095D03*
D17*
X96740526Y-53780285D03*
X96740526Y-56755285D03*
D14*
X99490526Y-47267785D03*
X99490526Y-50667785D03*
D15*
X77740526Y-46167785D03*
D16*
X77740526Y-48707785D03*
X77740526Y-51247785D03*
X77740526Y-53787785D03*
D17*
X101840526Y-53775285D03*
X101840526Y-56750285D03*
D14*
X97424526Y-47261785D03*
X97424526Y-50661785D03*
X99670000Y-77774000D03*
X99670000Y-81174000D03*
D12*
X69873216Y-74563388D03*
D13*
X74066400Y-76403200D03*
D12*
X75685679Y-70959310D03*
X106556238Y-52047602D03*
D13*
X109518526Y-55539385D03*
D12*
X113360368Y-51356294D03*
D15*
X99240526Y-53827785D03*
D16*
X99240526Y-56367785D03*
X99240526Y-58907785D03*
M02*
