G04 #@! TF.GenerationSoftware,KiCad,Pcbnew,7.0.7*
G04 #@! TF.CreationDate,2024-02-03T15:44:35+08:00*
G04 #@! TF.ProjectId,flex,666c6578-2e6b-4696-9361-645f70636258,rev?*
G04 #@! TF.SameCoordinates,Original*
G04 #@! TF.FileFunction,Legend,Bot*
G04 #@! TF.FilePolarity,Positive*
%FSLAX46Y46*%
G04 Gerber Fmt 4.6, Leading zero omitted, Abs format (unit mm)*
G04 Created by KiCad (PCBNEW 7.0.7) date 2024-02-03 15:44:35*
%MOMM*%
%LPD*%
G01*
G04 APERTURE LIST*
%ADD10C,0.120000*%
%ADD11C,1.000000*%
%ADD12C,0.150000*%
%ADD13C,0.200000*%
%ADD14C,0.100000*%
G04 APERTURE END LIST*
D10*
X80781745Y-58484850D02*
G75*
G03*
X81577823Y-57703979I-4045J800350D01*
G01*
X74971934Y-55913790D02*
X80796934Y-55913790D01*
X81577800Y-56684869D02*
G75*
G03*
X80796934Y-55913790I-800400J-29631D01*
G01*
X74971934Y-55913828D02*
G75*
G03*
X74175856Y-56694679I4066J-800372D01*
G01*
X77723108Y-82546359D02*
G75*
G03*
X77220842Y-82234731I-392008J-71241D01*
G01*
D11*
X79530000Y-84475000D02*
X71105000Y-86125000D01*
D10*
X71878257Y-83176758D02*
G75*
G03*
X71566618Y-83678960I71143J-391942D01*
G01*
X71878259Y-83176768D02*
X77220842Y-82234730D01*
X77588358Y-84052192D02*
X72245775Y-84994230D01*
X80781745Y-58484869D02*
X74956745Y-58484868D01*
X77900000Y-83550000D02*
X77723033Y-82546372D01*
X81577823Y-57703979D02*
X81577823Y-56684868D01*
X74175856Y-56694679D02*
X74175856Y-57713790D01*
X77588349Y-84052141D02*
G75*
G03*
X77900000Y-83550000I-71149J391941D01*
G01*
X71566617Y-83678960D02*
X71743584Y-84682588D01*
X74175843Y-57713790D02*
G75*
G03*
X74956745Y-58484868I800357J29590D01*
G01*
X83197500Y-69850000D02*
X85572500Y-69850000D01*
X85572500Y-79800000D01*
X83197500Y-79800000D01*
X83197500Y-69850000D01*
X71743518Y-84682599D02*
G75*
G03*
X72245775Y-84994230I391982J71199D01*
G01*
X79900469Y-93525348D02*
X79869568Y-93569480D01*
X79869568Y-93569480D02*
X79851897Y-93688644D01*
X79851897Y-93688644D02*
X79865127Y-93763677D01*
X79865127Y-93763677D02*
X79922489Y-93869611D01*
X79922489Y-93869611D02*
X80010752Y-93931414D01*
X80010752Y-93931414D02*
X80092401Y-93955700D01*
X80092401Y-93955700D02*
X80249082Y-93966756D01*
X80249082Y-93966756D02*
X80361631Y-93946910D01*
X80361631Y-93946910D02*
X80505082Y-93882933D01*
X80505082Y-93882933D02*
X80573500Y-93832187D01*
X80573500Y-93832187D02*
X80635302Y-93743923D01*
X80635302Y-93743923D02*
X80652973Y-93624759D01*
X80652973Y-93624759D02*
X80639743Y-93549726D01*
X80639743Y-93549726D02*
X80582381Y-93443791D01*
X80582381Y-93443791D02*
X80538249Y-93412890D01*
X80566976Y-93137044D02*
X80480979Y-92649330D01*
X80480979Y-92649330D02*
X80227153Y-92964867D01*
X80227153Y-92964867D02*
X80207308Y-92852317D01*
X80207308Y-92852317D02*
X80156561Y-92783899D01*
X80156561Y-92783899D02*
X80112429Y-92752998D01*
X80112429Y-92752998D02*
X80030781Y-92728712D01*
X80030781Y-92728712D02*
X79843199Y-92761788D01*
X79843199Y-92761788D02*
X79774781Y-92812535D01*
X79774781Y-92812535D02*
X79743880Y-92856666D01*
X79743880Y-92856666D02*
X79719593Y-92938314D01*
X79719593Y-92938314D02*
X79759284Y-93163413D01*
X79759284Y-93163413D02*
X79810031Y-93231831D01*
X79810031Y-93231831D02*
X79854163Y-93262732D01*
X79554214Y-92000402D02*
X79975685Y-92196866D01*
X79633596Y-92450600D02*
X80421442Y-92311681D01*
X80421442Y-92311681D02*
X80368521Y-92011549D01*
X80368521Y-92011549D02*
X80317774Y-91943132D01*
X80317774Y-91943132D02*
X80273643Y-91912230D01*
X80273643Y-91912230D02*
X80191994Y-91887944D01*
X80191994Y-91887944D02*
X80079445Y-91907790D01*
X80079445Y-91907790D02*
X80011027Y-91958537D01*
X80011027Y-91958537D02*
X79980126Y-92002668D01*
X79980126Y-92002668D02*
X79955840Y-92084316D01*
X79955840Y-92084316D02*
X80008761Y-92384448D01*
X80216372Y-91148670D02*
X80282524Y-91523835D01*
X80282524Y-91523835D02*
X79913974Y-91627503D01*
X79913974Y-91627503D02*
X79944875Y-91583372D01*
X79944875Y-91583372D02*
X79969162Y-91501724D01*
X79969162Y-91501724D02*
X79936086Y-91314141D01*
X79936086Y-91314141D02*
X79885339Y-91245723D01*
X79885339Y-91245723D02*
X79841207Y-91214822D01*
X79841207Y-91214822D02*
X79759559Y-91190536D01*
X79759559Y-91190536D02*
X79571977Y-91223612D01*
X79571977Y-91223612D02*
X79503559Y-91274358D01*
X79503559Y-91274358D02*
X79472658Y-91318490D01*
X79472658Y-91318490D02*
X79448371Y-91400138D01*
X79448371Y-91400138D02*
X79481447Y-91587721D01*
X79481447Y-91587721D02*
X79532194Y-91656138D01*
X79532194Y-91656138D02*
X79576326Y-91687040D01*
D12*
X80007192Y-49027365D02*
X80054811Y-49074985D01*
X80054811Y-49074985D02*
X80197668Y-49122604D01*
X80197668Y-49122604D02*
X80292906Y-49122604D01*
X80292906Y-49122604D02*
X80435763Y-49074985D01*
X80435763Y-49074985D02*
X80531001Y-48979746D01*
X80531001Y-48979746D02*
X80578620Y-48884508D01*
X80578620Y-48884508D02*
X80626239Y-48694032D01*
X80626239Y-48694032D02*
X80626239Y-48551175D01*
X80626239Y-48551175D02*
X80578620Y-48360699D01*
X80578620Y-48360699D02*
X80531001Y-48265461D01*
X80531001Y-48265461D02*
X80435763Y-48170223D01*
X80435763Y-48170223D02*
X80292906Y-48122604D01*
X80292906Y-48122604D02*
X80197668Y-48122604D01*
X80197668Y-48122604D02*
X80054811Y-48170223D01*
X80054811Y-48170223D02*
X80007192Y-48217842D01*
X79150049Y-48455937D02*
X79150049Y-49122604D01*
X79388144Y-48074985D02*
X79626239Y-48789270D01*
X79626239Y-48789270D02*
X79007192Y-48789270D01*
X66903495Y-81355727D02*
X66958659Y-81394354D01*
X66958659Y-81394354D02*
X67107615Y-81416442D01*
X67107615Y-81416442D02*
X67201406Y-81399904D01*
X67201406Y-81399904D02*
X67333824Y-81328202D01*
X67333824Y-81328202D02*
X67411077Y-81217873D01*
X67411077Y-81217873D02*
X67441435Y-81115813D01*
X67441435Y-81115813D02*
X67455255Y-80919961D01*
X67455255Y-80919961D02*
X67430448Y-80779274D01*
X67430448Y-80779274D02*
X67350476Y-80599961D01*
X67350476Y-80599961D02*
X67287043Y-80514439D01*
X67287043Y-80514439D02*
X67176714Y-80437185D01*
X67176714Y-80437185D02*
X67027758Y-80415097D01*
X67027758Y-80415097D02*
X66933967Y-80431634D01*
X66933967Y-80431634D02*
X66801549Y-80503337D01*
X66801549Y-80503337D02*
X66762922Y-80558502D01*
X80924157Y-79651657D02*
X81169736Y-79124818D01*
X81486904Y-79552430D02*
X81313256Y-78567622D01*
X81313256Y-78567622D02*
X80938091Y-78633773D01*
X80938091Y-78633773D02*
X80852569Y-78697207D01*
X80852569Y-78697207D02*
X80813942Y-78752372D01*
X80813942Y-78752372D02*
X80783584Y-78854432D01*
X80783584Y-78854432D02*
X80808391Y-78995119D01*
X80808391Y-78995119D02*
X80871825Y-79080641D01*
X80871825Y-79080641D02*
X80926989Y-79119267D01*
X80926989Y-79119267D02*
X81029049Y-79149625D01*
X81029049Y-79149625D02*
X81404214Y-79083473D01*
X80007192Y-54127365D02*
X80054811Y-54174985D01*
X80054811Y-54174985D02*
X80197668Y-54222604D01*
X80197668Y-54222604D02*
X80292906Y-54222604D01*
X80292906Y-54222604D02*
X80435763Y-54174985D01*
X80435763Y-54174985D02*
X80531001Y-54079746D01*
X80531001Y-54079746D02*
X80578620Y-53984508D01*
X80578620Y-53984508D02*
X80626239Y-53794032D01*
X80626239Y-53794032D02*
X80626239Y-53651175D01*
X80626239Y-53651175D02*
X80578620Y-53460699D01*
X80578620Y-53460699D02*
X80531001Y-53365461D01*
X80531001Y-53365461D02*
X80435763Y-53270223D01*
X80435763Y-53270223D02*
X80292906Y-53222604D01*
X80292906Y-53222604D02*
X80197668Y-53222604D01*
X80197668Y-53222604D02*
X80054811Y-53270223D01*
X80054811Y-53270223D02*
X80007192Y-53317842D01*
X79626239Y-53317842D02*
X79578620Y-53270223D01*
X79578620Y-53270223D02*
X79483382Y-53222604D01*
X79483382Y-53222604D02*
X79245287Y-53222604D01*
X79245287Y-53222604D02*
X79150049Y-53270223D01*
X79150049Y-53270223D02*
X79102430Y-53317842D01*
X79102430Y-53317842D02*
X79054811Y-53413080D01*
X79054811Y-53413080D02*
X79054811Y-53508318D01*
X79054811Y-53508318D02*
X79102430Y-53651175D01*
X79102430Y-53651175D02*
X79673858Y-54222604D01*
X79673858Y-54222604D02*
X79054811Y-54222604D01*
X86741666Y-78977180D02*
X86789285Y-79024800D01*
X86789285Y-79024800D02*
X86932142Y-79072419D01*
X86932142Y-79072419D02*
X87027380Y-79072419D01*
X87027380Y-79072419D02*
X87170237Y-79024800D01*
X87170237Y-79024800D02*
X87265475Y-78929561D01*
X87265475Y-78929561D02*
X87313094Y-78834323D01*
X87313094Y-78834323D02*
X87360713Y-78643847D01*
X87360713Y-78643847D02*
X87360713Y-78500990D01*
X87360713Y-78500990D02*
X87313094Y-78310514D01*
X87313094Y-78310514D02*
X87265475Y-78215276D01*
X87265475Y-78215276D02*
X87170237Y-78120038D01*
X87170237Y-78120038D02*
X87027380Y-78072419D01*
X87027380Y-78072419D02*
X86932142Y-78072419D01*
X86932142Y-78072419D02*
X86789285Y-78120038D01*
X86789285Y-78120038D02*
X86741666Y-78167657D01*
X86360713Y-78167657D02*
X86313094Y-78120038D01*
X86313094Y-78120038D02*
X86217856Y-78072419D01*
X86217856Y-78072419D02*
X85979761Y-78072419D01*
X85979761Y-78072419D02*
X85884523Y-78120038D01*
X85884523Y-78120038D02*
X85836904Y-78167657D01*
X85836904Y-78167657D02*
X85789285Y-78262895D01*
X85789285Y-78262895D02*
X85789285Y-78358133D01*
X85789285Y-78358133D02*
X85836904Y-78500990D01*
X85836904Y-78500990D02*
X86408332Y-79072419D01*
X86408332Y-79072419D02*
X85789285Y-79072419D01*
X80007192Y-51722604D02*
X80340525Y-51246413D01*
X80578620Y-51722604D02*
X80578620Y-50722604D01*
X80578620Y-50722604D02*
X80197668Y-50722604D01*
X80197668Y-50722604D02*
X80102430Y-50770223D01*
X80102430Y-50770223D02*
X80054811Y-50817842D01*
X80054811Y-50817842D02*
X80007192Y-50913080D01*
X80007192Y-50913080D02*
X80007192Y-51055937D01*
X80007192Y-51055937D02*
X80054811Y-51151175D01*
X80054811Y-51151175D02*
X80102430Y-51198794D01*
X80102430Y-51198794D02*
X80197668Y-51246413D01*
X80197668Y-51246413D02*
X80578620Y-51246413D01*
X79150049Y-51055937D02*
X79150049Y-51722604D01*
X79388144Y-50674985D02*
X79626239Y-51389270D01*
X79626239Y-51389270D02*
X79007192Y-51389270D01*
D10*
X92746478Y-59637592D02*
X92632192Y-59675687D01*
X92632192Y-59675687D02*
X92594097Y-59713783D01*
X92594097Y-59713783D02*
X92556001Y-59789973D01*
X92556001Y-59789973D02*
X92556001Y-59904259D01*
X92556001Y-59904259D02*
X92594097Y-59980449D01*
X92594097Y-59980449D02*
X92632192Y-60018545D01*
X92632192Y-60018545D02*
X92708382Y-60056640D01*
X92708382Y-60056640D02*
X93013144Y-60056640D01*
X93013144Y-60056640D02*
X93013144Y-59256640D01*
X93013144Y-59256640D02*
X92746478Y-59256640D01*
X92746478Y-59256640D02*
X92670287Y-59294735D01*
X92670287Y-59294735D02*
X92632192Y-59332830D01*
X92632192Y-59332830D02*
X92594097Y-59409021D01*
X92594097Y-59409021D02*
X92594097Y-59485211D01*
X92594097Y-59485211D02*
X92632192Y-59561402D01*
X92632192Y-59561402D02*
X92670287Y-59599497D01*
X92670287Y-59599497D02*
X92746478Y-59637592D01*
X92746478Y-59637592D02*
X93013144Y-59637592D01*
X92251240Y-59828068D02*
X91870287Y-59828068D01*
X92327430Y-60056640D02*
X92060763Y-59256640D01*
X92060763Y-59256640D02*
X91794097Y-60056640D01*
X91565526Y-60018545D02*
X91451240Y-60056640D01*
X91451240Y-60056640D02*
X91260764Y-60056640D01*
X91260764Y-60056640D02*
X91184573Y-60018545D01*
X91184573Y-60018545D02*
X91146478Y-59980449D01*
X91146478Y-59980449D02*
X91108383Y-59904259D01*
X91108383Y-59904259D02*
X91108383Y-59828068D01*
X91108383Y-59828068D02*
X91146478Y-59751878D01*
X91146478Y-59751878D02*
X91184573Y-59713783D01*
X91184573Y-59713783D02*
X91260764Y-59675687D01*
X91260764Y-59675687D02*
X91413145Y-59637592D01*
X91413145Y-59637592D02*
X91489335Y-59599497D01*
X91489335Y-59599497D02*
X91527430Y-59561402D01*
X91527430Y-59561402D02*
X91565526Y-59485211D01*
X91565526Y-59485211D02*
X91565526Y-59409021D01*
X91565526Y-59409021D02*
X91527430Y-59332830D01*
X91527430Y-59332830D02*
X91489335Y-59294735D01*
X91489335Y-59294735D02*
X91413145Y-59256640D01*
X91413145Y-59256640D02*
X91222668Y-59256640D01*
X91222668Y-59256640D02*
X91108383Y-59294735D01*
X90879811Y-59256640D02*
X90422668Y-59256640D01*
X90651240Y-60056640D02*
X90651240Y-59256640D01*
X90194097Y-59828068D02*
X89813144Y-59828068D01*
X90270287Y-60056640D02*
X90003620Y-59256640D01*
X90003620Y-59256640D02*
X89736954Y-60056640D01*
X89013144Y-60056640D02*
X89279811Y-59675687D01*
X89470287Y-60056640D02*
X89470287Y-59256640D01*
X89470287Y-59256640D02*
X89165525Y-59256640D01*
X89165525Y-59256640D02*
X89089335Y-59294735D01*
X89089335Y-59294735D02*
X89051240Y-59332830D01*
X89051240Y-59332830D02*
X89013144Y-59409021D01*
X89013144Y-59409021D02*
X89013144Y-59523306D01*
X89013144Y-59523306D02*
X89051240Y-59599497D01*
X89051240Y-59599497D02*
X89089335Y-59637592D01*
X89089335Y-59637592D02*
X89165525Y-59675687D01*
X89165525Y-59675687D02*
X89470287Y-59675687D01*
X88670287Y-60056640D02*
X88670287Y-59256640D01*
X88670287Y-59256640D02*
X88479811Y-59256640D01*
X88479811Y-59256640D02*
X88365525Y-59294735D01*
X88365525Y-59294735D02*
X88289335Y-59370925D01*
X88289335Y-59370925D02*
X88251240Y-59447116D01*
X88251240Y-59447116D02*
X88213144Y-59599497D01*
X88213144Y-59599497D02*
X88213144Y-59713783D01*
X88213144Y-59713783D02*
X88251240Y-59866164D01*
X88251240Y-59866164D02*
X88289335Y-59942354D01*
X88289335Y-59942354D02*
X88365525Y-60018545D01*
X88365525Y-60018545D02*
X88479811Y-60056640D01*
X88479811Y-60056640D02*
X88670287Y-60056640D01*
X87870287Y-60056640D02*
X87870287Y-59256640D01*
X87413144Y-60056640D02*
X87756002Y-59599497D01*
X87413144Y-59256640D02*
X87870287Y-59713783D01*
X86803621Y-59637592D02*
X86689335Y-59675687D01*
X86689335Y-59675687D02*
X86651240Y-59713783D01*
X86651240Y-59713783D02*
X86613144Y-59789973D01*
X86613144Y-59789973D02*
X86613144Y-59904259D01*
X86613144Y-59904259D02*
X86651240Y-59980449D01*
X86651240Y-59980449D02*
X86689335Y-60018545D01*
X86689335Y-60018545D02*
X86765525Y-60056640D01*
X86765525Y-60056640D02*
X87070287Y-60056640D01*
X87070287Y-60056640D02*
X87070287Y-59256640D01*
X87070287Y-59256640D02*
X86803621Y-59256640D01*
X86803621Y-59256640D02*
X86727430Y-59294735D01*
X86727430Y-59294735D02*
X86689335Y-59332830D01*
X86689335Y-59332830D02*
X86651240Y-59409021D01*
X86651240Y-59409021D02*
X86651240Y-59485211D01*
X86651240Y-59485211D02*
X86689335Y-59561402D01*
X86689335Y-59561402D02*
X86727430Y-59599497D01*
X86727430Y-59599497D02*
X86803621Y-59637592D01*
X86803621Y-59637592D02*
X87070287Y-59637592D01*
X86270287Y-59980449D02*
X86232192Y-60018545D01*
X86232192Y-60018545D02*
X86270287Y-60056640D01*
X86270287Y-60056640D02*
X86308383Y-60018545D01*
X86308383Y-60018545D02*
X86270287Y-59980449D01*
X86270287Y-59980449D02*
X86270287Y-60056640D01*
X85432192Y-59980449D02*
X85470288Y-60018545D01*
X85470288Y-60018545D02*
X85584573Y-60056640D01*
X85584573Y-60056640D02*
X85660764Y-60056640D01*
X85660764Y-60056640D02*
X85775050Y-60018545D01*
X85775050Y-60018545D02*
X85851240Y-59942354D01*
X85851240Y-59942354D02*
X85889335Y-59866164D01*
X85889335Y-59866164D02*
X85927431Y-59713783D01*
X85927431Y-59713783D02*
X85927431Y-59599497D01*
X85927431Y-59599497D02*
X85889335Y-59447116D01*
X85889335Y-59447116D02*
X85851240Y-59370925D01*
X85851240Y-59370925D02*
X85775050Y-59294735D01*
X85775050Y-59294735D02*
X85660764Y-59256640D01*
X85660764Y-59256640D02*
X85584573Y-59256640D01*
X85584573Y-59256640D02*
X85470288Y-59294735D01*
X85470288Y-59294735D02*
X85432192Y-59332830D01*
X84936954Y-59256640D02*
X84784573Y-59256640D01*
X84784573Y-59256640D02*
X84708383Y-59294735D01*
X84708383Y-59294735D02*
X84632192Y-59370925D01*
X84632192Y-59370925D02*
X84594097Y-59523306D01*
X84594097Y-59523306D02*
X84594097Y-59789973D01*
X84594097Y-59789973D02*
X84632192Y-59942354D01*
X84632192Y-59942354D02*
X84708383Y-60018545D01*
X84708383Y-60018545D02*
X84784573Y-60056640D01*
X84784573Y-60056640D02*
X84936954Y-60056640D01*
X84936954Y-60056640D02*
X85013145Y-60018545D01*
X85013145Y-60018545D02*
X85089335Y-59942354D01*
X85089335Y-59942354D02*
X85127431Y-59789973D01*
X85127431Y-59789973D02*
X85127431Y-59523306D01*
X85127431Y-59523306D02*
X85089335Y-59370925D01*
X85089335Y-59370925D02*
X85013145Y-59294735D01*
X85013145Y-59294735D02*
X84936954Y-59256640D01*
X84251240Y-60056640D02*
X84251240Y-59256640D01*
X84251240Y-59256640D02*
X83984574Y-59828068D01*
X83984574Y-59828068D02*
X83717907Y-59256640D01*
X83717907Y-59256640D02*
X83717907Y-60056640D01*
D12*
X86741666Y-68817180D02*
X86789285Y-68864800D01*
X86789285Y-68864800D02*
X86932142Y-68912419D01*
X86932142Y-68912419D02*
X87027380Y-68912419D01*
X87027380Y-68912419D02*
X87170237Y-68864800D01*
X87170237Y-68864800D02*
X87265475Y-68769561D01*
X87265475Y-68769561D02*
X87313094Y-68674323D01*
X87313094Y-68674323D02*
X87360713Y-68483847D01*
X87360713Y-68483847D02*
X87360713Y-68340990D01*
X87360713Y-68340990D02*
X87313094Y-68150514D01*
X87313094Y-68150514D02*
X87265475Y-68055276D01*
X87265475Y-68055276D02*
X87170237Y-67960038D01*
X87170237Y-67960038D02*
X87027380Y-67912419D01*
X87027380Y-67912419D02*
X86932142Y-67912419D01*
X86932142Y-67912419D02*
X86789285Y-67960038D01*
X86789285Y-67960038D02*
X86741666Y-68007657D01*
X85836904Y-67912419D02*
X86313094Y-67912419D01*
X86313094Y-67912419D02*
X86360713Y-68388609D01*
X86360713Y-68388609D02*
X86313094Y-68340990D01*
X86313094Y-68340990D02*
X86217856Y-68293371D01*
X86217856Y-68293371D02*
X85979761Y-68293371D01*
X85979761Y-68293371D02*
X85884523Y-68340990D01*
X85884523Y-68340990D02*
X85836904Y-68388609D01*
X85836904Y-68388609D02*
X85789285Y-68483847D01*
X85789285Y-68483847D02*
X85789285Y-68721942D01*
X85789285Y-68721942D02*
X85836904Y-68817180D01*
X85836904Y-68817180D02*
X85884523Y-68864800D01*
X85884523Y-68864800D02*
X85979761Y-68912419D01*
X85979761Y-68912419D02*
X86217856Y-68912419D01*
X86217856Y-68912419D02*
X86313094Y-68864800D01*
X86313094Y-68864800D02*
X86360713Y-68817180D01*
X76394563Y-83883321D02*
X76689259Y-83251114D01*
X77069860Y-83764248D02*
X76861482Y-82582478D01*
X76861482Y-82582478D02*
X76411285Y-82661861D01*
X76411285Y-82661861D02*
X76308658Y-82737981D01*
X76308658Y-82737981D02*
X76262306Y-82804178D01*
X76262306Y-82804178D02*
X76225877Y-82926650D01*
X76225877Y-82926650D02*
X76255645Y-83095475D01*
X76255645Y-83095475D02*
X76331765Y-83198101D01*
X76331765Y-83198101D02*
X76397963Y-83244453D01*
X76397963Y-83244453D02*
X76520435Y-83280883D01*
X76520435Y-83280883D02*
X76970633Y-83201501D01*
X75888091Y-83972626D02*
X75679713Y-82790856D01*
X74507866Y-83055509D02*
X74610493Y-82979389D01*
X74610493Y-82979389D02*
X74779317Y-82949620D01*
X74779317Y-82949620D02*
X74958064Y-82976127D01*
X74958064Y-82976127D02*
X75090459Y-83068831D01*
X75090459Y-83068831D02*
X75166579Y-83171458D01*
X75166579Y-83171458D02*
X75262545Y-83386634D01*
X75262545Y-83386634D02*
X75292313Y-83555458D01*
X75292313Y-83555458D02*
X75275729Y-83790480D01*
X75275729Y-83790480D02*
X75239300Y-83912952D01*
X75239300Y-83912952D02*
X75146596Y-84045347D01*
X75146596Y-84045347D02*
X74987695Y-84131390D01*
X74987695Y-84131390D02*
X74875145Y-84151235D01*
X74875145Y-84151235D02*
X74696398Y-84124729D01*
X74696398Y-84124729D02*
X74630201Y-84078377D01*
X74630201Y-84078377D02*
X74560742Y-83684454D01*
X74560742Y-83684454D02*
X74785841Y-83644763D01*
X74143574Y-84280231D02*
X73935196Y-83098462D01*
X74034424Y-83661209D02*
X73359127Y-83780282D01*
X73468277Y-84399304D02*
X73259899Y-83217535D01*
X72865976Y-83286994D02*
X72190679Y-83406067D01*
X72736705Y-84528300D02*
X72528328Y-83346531D01*
X97892906Y-59522604D02*
X97892906Y-58522604D01*
X97892906Y-58522604D02*
X97654811Y-58522604D01*
X97654811Y-58522604D02*
X97511954Y-58570223D01*
X97511954Y-58570223D02*
X97416716Y-58665461D01*
X97416716Y-58665461D02*
X97369097Y-58760699D01*
X97369097Y-58760699D02*
X97321478Y-58951175D01*
X97321478Y-58951175D02*
X97321478Y-59094032D01*
X97321478Y-59094032D02*
X97369097Y-59284508D01*
X97369097Y-59284508D02*
X97416716Y-59379746D01*
X97416716Y-59379746D02*
X97511954Y-59474985D01*
X97511954Y-59474985D02*
X97654811Y-59522604D01*
X97654811Y-59522604D02*
X97892906Y-59522604D01*
X96892906Y-59522604D02*
X96892906Y-58855937D01*
X96892906Y-58522604D02*
X96940525Y-58570223D01*
X96940525Y-58570223D02*
X96892906Y-58617842D01*
X96892906Y-58617842D02*
X96845287Y-58570223D01*
X96845287Y-58570223D02*
X96892906Y-58522604D01*
X96892906Y-58522604D02*
X96892906Y-58617842D01*
X96416716Y-58855937D02*
X96416716Y-59522604D01*
X96416716Y-58951175D02*
X96369097Y-58903556D01*
X96369097Y-58903556D02*
X96273859Y-58855937D01*
X96273859Y-58855937D02*
X96131002Y-58855937D01*
X96131002Y-58855937D02*
X96035764Y-58903556D01*
X96035764Y-58903556D02*
X95988145Y-58998794D01*
X95988145Y-58998794D02*
X95988145Y-59522604D01*
X68736837Y-69459200D02*
X68582216Y-70501891D01*
X68582216Y-70501891D02*
X68080298Y-69574966D01*
X67495348Y-70645181D02*
X67597408Y-70675539D01*
X67597408Y-70675539D02*
X67784990Y-70642463D01*
X67784990Y-70642463D02*
X67870512Y-70579029D01*
X67870512Y-70579029D02*
X67909139Y-70523865D01*
X67909139Y-70523865D02*
X67939497Y-70421805D01*
X67939497Y-70421805D02*
X67889883Y-70140431D01*
X67889883Y-70140431D02*
X67826449Y-70054909D01*
X67826449Y-70054909D02*
X67771285Y-70016282D01*
X67771285Y-70016282D02*
X67669225Y-69985924D01*
X67669225Y-69985924D02*
X67481642Y-70019000D01*
X67481642Y-70019000D02*
X67396120Y-70082434D01*
X66651227Y-70794022D02*
X66753287Y-70824380D01*
X66753287Y-70824380D02*
X66940869Y-70791304D01*
X66940869Y-70791304D02*
X67026391Y-70727871D01*
X67026391Y-70727871D02*
X67065018Y-70672706D01*
X67065018Y-70672706D02*
X67095376Y-70570646D01*
X67095376Y-70570646D02*
X67045762Y-70289272D01*
X67045762Y-70289272D02*
X66982328Y-70203750D01*
X66982328Y-70203750D02*
X66927164Y-70165123D01*
X66927164Y-70165123D02*
X66825104Y-70134766D01*
X66825104Y-70134766D02*
X66637521Y-70167842D01*
X66637521Y-70167842D02*
X66551999Y-70231275D01*
X86741666Y-76686519D02*
X87074999Y-76210328D01*
X87313094Y-76686519D02*
X87313094Y-75686519D01*
X87313094Y-75686519D02*
X86932142Y-75686519D01*
X86932142Y-75686519D02*
X86836904Y-75734138D01*
X86836904Y-75734138D02*
X86789285Y-75781757D01*
X86789285Y-75781757D02*
X86741666Y-75876995D01*
X86741666Y-75876995D02*
X86741666Y-76019852D01*
X86741666Y-76019852D02*
X86789285Y-76115090D01*
X86789285Y-76115090D02*
X86836904Y-76162709D01*
X86836904Y-76162709D02*
X86932142Y-76210328D01*
X86932142Y-76210328D02*
X87313094Y-76210328D01*
X85836904Y-75686519D02*
X86313094Y-75686519D01*
X86313094Y-75686519D02*
X86360713Y-76162709D01*
X86360713Y-76162709D02*
X86313094Y-76115090D01*
X86313094Y-76115090D02*
X86217856Y-76067471D01*
X86217856Y-76067471D02*
X85979761Y-76067471D01*
X85979761Y-76067471D02*
X85884523Y-76115090D01*
X85884523Y-76115090D02*
X85836904Y-76162709D01*
X85836904Y-76162709D02*
X85789285Y-76257947D01*
X85789285Y-76257947D02*
X85789285Y-76496042D01*
X85789285Y-76496042D02*
X85836904Y-76591280D01*
X85836904Y-76591280D02*
X85884523Y-76638900D01*
X85884523Y-76638900D02*
X85979761Y-76686519D01*
X85979761Y-76686519D02*
X86217856Y-76686519D01*
X86217856Y-76686519D02*
X86313094Y-76638900D01*
X86313094Y-76638900D02*
X86360713Y-76591280D01*
D10*
X115611993Y-53242361D02*
X115564873Y-53268480D01*
X115564873Y-53268480D02*
X115496752Y-53367838D01*
X115496752Y-53367838D02*
X115475751Y-53441077D01*
X115475751Y-53441077D02*
X115480869Y-53561436D01*
X115480869Y-53561436D02*
X115533107Y-53655676D01*
X115533107Y-53655676D02*
X115595846Y-53713297D01*
X115595846Y-53713297D02*
X115731823Y-53791918D01*
X115731823Y-53791918D02*
X115841682Y-53823420D01*
X115841682Y-53823420D02*
X115998660Y-53828802D01*
X115998660Y-53828802D02*
X116082400Y-53813183D01*
X116082400Y-53813183D02*
X116176640Y-53760945D01*
X116176640Y-53760945D02*
X116244761Y-53661587D01*
X116244761Y-53661587D02*
X116265762Y-53588348D01*
X116265762Y-53588348D02*
X116260643Y-53467989D01*
X116260643Y-53467989D02*
X116234524Y-53420869D01*
X116240435Y-52709216D02*
X115727763Y-52562210D01*
X116480889Y-52976317D02*
X115879094Y-53001908D01*
X115879094Y-53001908D02*
X116015600Y-52525854D01*
X115969273Y-51719961D02*
X116261965Y-52081302D01*
X115843268Y-52159395D02*
X116612277Y-52379905D01*
X116612277Y-52379905D02*
X116696281Y-52086949D01*
X116696281Y-52086949D02*
X116680662Y-52003209D01*
X116680662Y-52003209D02*
X116654543Y-51956089D01*
X116654543Y-51956089D02*
X116591805Y-51898469D01*
X116591805Y-51898469D02*
X116481946Y-51866968D01*
X116481946Y-51866968D02*
X116398207Y-51882586D01*
X116398207Y-51882586D02*
X116351087Y-51908705D01*
X116351087Y-51908705D02*
X116293466Y-51971444D01*
X116293466Y-51971444D02*
X116209463Y-52264400D01*
X116670955Y-51207817D02*
X116158282Y-51060810D01*
X116911408Y-51474918D02*
X116309614Y-51500508D01*
X116309614Y-51500508D02*
X116446120Y-51024455D01*
D12*
X81877319Y-70734286D02*
X81877319Y-71353333D01*
X81877319Y-71353333D02*
X82258271Y-71020000D01*
X82258271Y-71020000D02*
X82258271Y-71162857D01*
X82258271Y-71162857D02*
X82305890Y-71258095D01*
X82305890Y-71258095D02*
X82353509Y-71305714D01*
X82353509Y-71305714D02*
X82448747Y-71353333D01*
X82448747Y-71353333D02*
X82686842Y-71353333D01*
X82686842Y-71353333D02*
X82782080Y-71305714D01*
X82782080Y-71305714D02*
X82829700Y-71258095D01*
X82829700Y-71258095D02*
X82877319Y-71162857D01*
X82877319Y-71162857D02*
X82877319Y-70877143D01*
X82877319Y-70877143D02*
X82829700Y-70781905D01*
X82829700Y-70781905D02*
X82782080Y-70734286D01*
X82877319Y-73115238D02*
X82401128Y-72781905D01*
X82877319Y-72543810D02*
X81877319Y-72543810D01*
X81877319Y-72543810D02*
X81877319Y-72924762D01*
X81877319Y-72924762D02*
X81924938Y-73020000D01*
X81924938Y-73020000D02*
X81972557Y-73067619D01*
X81972557Y-73067619D02*
X82067795Y-73115238D01*
X82067795Y-73115238D02*
X82210652Y-73115238D01*
X82210652Y-73115238D02*
X82305890Y-73067619D01*
X82305890Y-73067619D02*
X82353509Y-73020000D01*
X82353509Y-73020000D02*
X82401128Y-72924762D01*
X82401128Y-72924762D02*
X82401128Y-72543810D01*
X81877319Y-73734286D02*
X81877319Y-73924762D01*
X81877319Y-73924762D02*
X81924938Y-74020000D01*
X81924938Y-74020000D02*
X82020176Y-74115238D01*
X82020176Y-74115238D02*
X82210652Y-74162857D01*
X82210652Y-74162857D02*
X82543985Y-74162857D01*
X82543985Y-74162857D02*
X82734461Y-74115238D01*
X82734461Y-74115238D02*
X82829700Y-74020000D01*
X82829700Y-74020000D02*
X82877319Y-73924762D01*
X82877319Y-73924762D02*
X82877319Y-73734286D01*
X82877319Y-73734286D02*
X82829700Y-73639048D01*
X82829700Y-73639048D02*
X82734461Y-73543810D01*
X82734461Y-73543810D02*
X82543985Y-73496191D01*
X82543985Y-73496191D02*
X82210652Y-73496191D01*
X82210652Y-73496191D02*
X82020176Y-73543810D01*
X82020176Y-73543810D02*
X81924938Y-73639048D01*
X81924938Y-73639048D02*
X81877319Y-73734286D01*
X81877319Y-74496191D02*
X82877319Y-74734286D01*
X82877319Y-74734286D02*
X82163033Y-74924762D01*
X82163033Y-74924762D02*
X82877319Y-75115238D01*
X82877319Y-75115238D02*
X81877319Y-75353334D01*
X82829700Y-75686667D02*
X82877319Y-75829524D01*
X82877319Y-75829524D02*
X82877319Y-76067619D01*
X82877319Y-76067619D02*
X82829700Y-76162857D01*
X82829700Y-76162857D02*
X82782080Y-76210476D01*
X82782080Y-76210476D02*
X82686842Y-76258095D01*
X82686842Y-76258095D02*
X82591604Y-76258095D01*
X82591604Y-76258095D02*
X82496366Y-76210476D01*
X82496366Y-76210476D02*
X82448747Y-76162857D01*
X82448747Y-76162857D02*
X82401128Y-76067619D01*
X82401128Y-76067619D02*
X82353509Y-75877143D01*
X82353509Y-75877143D02*
X82305890Y-75781905D01*
X82305890Y-75781905D02*
X82258271Y-75734286D01*
X82258271Y-75734286D02*
X82163033Y-75686667D01*
X82163033Y-75686667D02*
X82067795Y-75686667D01*
X82067795Y-75686667D02*
X81972557Y-75734286D01*
X81972557Y-75734286D02*
X81924938Y-75781905D01*
X81924938Y-75781905D02*
X81877319Y-75877143D01*
X81877319Y-75877143D02*
X81877319Y-76115238D01*
X81877319Y-76115238D02*
X81924938Y-76258095D01*
D10*
X79829811Y-60081640D02*
X80096478Y-59700687D01*
X80286954Y-60081640D02*
X80286954Y-59281640D01*
X80286954Y-59281640D02*
X79982192Y-59281640D01*
X79982192Y-59281640D02*
X79906002Y-59319735D01*
X79906002Y-59319735D02*
X79867907Y-59357830D01*
X79867907Y-59357830D02*
X79829811Y-59434021D01*
X79829811Y-59434021D02*
X79829811Y-59548306D01*
X79829811Y-59548306D02*
X79867907Y-59624497D01*
X79867907Y-59624497D02*
X79906002Y-59662592D01*
X79906002Y-59662592D02*
X79982192Y-59700687D01*
X79982192Y-59700687D02*
X80286954Y-59700687D01*
X79486954Y-59662592D02*
X79220288Y-59662592D01*
X79106002Y-60081640D02*
X79486954Y-60081640D01*
X79486954Y-60081640D02*
X79486954Y-59281640D01*
X79486954Y-59281640D02*
X79106002Y-59281640D01*
X78877430Y-59281640D02*
X78610763Y-60081640D01*
X78610763Y-60081640D02*
X78344097Y-59281640D01*
X77506002Y-59357830D02*
X77467906Y-59319735D01*
X77467906Y-59319735D02*
X77391716Y-59281640D01*
X77391716Y-59281640D02*
X77201240Y-59281640D01*
X77201240Y-59281640D02*
X77125049Y-59319735D01*
X77125049Y-59319735D02*
X77086954Y-59357830D01*
X77086954Y-59357830D02*
X77048859Y-59434021D01*
X77048859Y-59434021D02*
X77048859Y-59510211D01*
X77048859Y-59510211D02*
X77086954Y-59624497D01*
X77086954Y-59624497D02*
X77544097Y-60081640D01*
X77544097Y-60081640D02*
X77048859Y-60081640D01*
X76706001Y-60005449D02*
X76667906Y-60043545D01*
X76667906Y-60043545D02*
X76706001Y-60081640D01*
X76706001Y-60081640D02*
X76744097Y-60043545D01*
X76744097Y-60043545D02*
X76706001Y-60005449D01*
X76706001Y-60005449D02*
X76706001Y-60081640D01*
X75906002Y-60081640D02*
X76363145Y-60081640D01*
X76134573Y-60081640D02*
X76134573Y-59281640D01*
X76134573Y-59281640D02*
X76210764Y-59395925D01*
X76210764Y-59395925D02*
X76286954Y-59472116D01*
X76286954Y-59472116D02*
X76363145Y-59510211D01*
X95995237Y-81963855D02*
X96261904Y-81582902D01*
X96452380Y-81963855D02*
X96452380Y-81163855D01*
X96452380Y-81163855D02*
X96147618Y-81163855D01*
X96147618Y-81163855D02*
X96071428Y-81201950D01*
X96071428Y-81201950D02*
X96033333Y-81240045D01*
X96033333Y-81240045D02*
X95995237Y-81316236D01*
X95995237Y-81316236D02*
X95995237Y-81430521D01*
X95995237Y-81430521D02*
X96033333Y-81506712D01*
X96033333Y-81506712D02*
X96071428Y-81544807D01*
X96071428Y-81544807D02*
X96147618Y-81582902D01*
X96147618Y-81582902D02*
X96452380Y-81582902D01*
X95652380Y-81544807D02*
X95385714Y-81544807D01*
X95271428Y-81963855D02*
X95652380Y-81963855D01*
X95652380Y-81963855D02*
X95652380Y-81163855D01*
X95652380Y-81163855D02*
X95271428Y-81163855D01*
X95042856Y-81163855D02*
X94776189Y-81963855D01*
X94776189Y-81963855D02*
X94509523Y-81163855D01*
X93671428Y-81240045D02*
X93633332Y-81201950D01*
X93633332Y-81201950D02*
X93557142Y-81163855D01*
X93557142Y-81163855D02*
X93366666Y-81163855D01*
X93366666Y-81163855D02*
X93290475Y-81201950D01*
X93290475Y-81201950D02*
X93252380Y-81240045D01*
X93252380Y-81240045D02*
X93214285Y-81316236D01*
X93214285Y-81316236D02*
X93214285Y-81392426D01*
X93214285Y-81392426D02*
X93252380Y-81506712D01*
X93252380Y-81506712D02*
X93709523Y-81963855D01*
X93709523Y-81963855D02*
X93214285Y-81963855D01*
X92871427Y-81887664D02*
X92833332Y-81925760D01*
X92833332Y-81925760D02*
X92871427Y-81963855D01*
X92871427Y-81963855D02*
X92909523Y-81925760D01*
X92909523Y-81925760D02*
X92871427Y-81887664D01*
X92871427Y-81887664D02*
X92871427Y-81963855D01*
X92338094Y-81163855D02*
X92261904Y-81163855D01*
X92261904Y-81163855D02*
X92185713Y-81201950D01*
X92185713Y-81201950D02*
X92147618Y-81240045D01*
X92147618Y-81240045D02*
X92109523Y-81316236D01*
X92109523Y-81316236D02*
X92071428Y-81468617D01*
X92071428Y-81468617D02*
X92071428Y-81659093D01*
X92071428Y-81659093D02*
X92109523Y-81811474D01*
X92109523Y-81811474D02*
X92147618Y-81887664D01*
X92147618Y-81887664D02*
X92185713Y-81925760D01*
X92185713Y-81925760D02*
X92261904Y-81963855D01*
X92261904Y-81963855D02*
X92338094Y-81963855D01*
X92338094Y-81963855D02*
X92414285Y-81925760D01*
X92414285Y-81925760D02*
X92452380Y-81887664D01*
X92452380Y-81887664D02*
X92490475Y-81811474D01*
X92490475Y-81811474D02*
X92528571Y-81659093D01*
X92528571Y-81659093D02*
X92528571Y-81468617D01*
X92528571Y-81468617D02*
X92490475Y-81316236D01*
X92490475Y-81316236D02*
X92452380Y-81240045D01*
X92452380Y-81240045D02*
X92414285Y-81201950D01*
X92414285Y-81201950D02*
X92338094Y-81163855D01*
X91309523Y-81963855D02*
X91766666Y-81963855D01*
X91538094Y-81963855D02*
X91538094Y-81163855D01*
X91538094Y-81163855D02*
X91614285Y-81278140D01*
X91614285Y-81278140D02*
X91690475Y-81354331D01*
X91690475Y-81354331D02*
X91766666Y-81392426D01*
D12*
X96269097Y-55700842D02*
X96326240Y-55757985D01*
X96326240Y-55757985D02*
X96497668Y-55815127D01*
X96497668Y-55815127D02*
X96611954Y-55815127D01*
X96611954Y-55815127D02*
X96783383Y-55757985D01*
X96783383Y-55757985D02*
X96897668Y-55643699D01*
X96897668Y-55643699D02*
X96954811Y-55529413D01*
X96954811Y-55529413D02*
X97011954Y-55300842D01*
X97011954Y-55300842D02*
X97011954Y-55129413D01*
X97011954Y-55129413D02*
X96954811Y-54900842D01*
X96954811Y-54900842D02*
X96897668Y-54786556D01*
X96897668Y-54786556D02*
X96783383Y-54672270D01*
X96783383Y-54672270D02*
X96611954Y-54615127D01*
X96611954Y-54615127D02*
X96497668Y-54615127D01*
X96497668Y-54615127D02*
X96326240Y-54672270D01*
X96326240Y-54672270D02*
X96269097Y-54729413D01*
D10*
X92952861Y-48607070D02*
X92914766Y-48645166D01*
X92914766Y-48645166D02*
X92876670Y-48759451D01*
X92876670Y-48759451D02*
X92876670Y-48835642D01*
X92876670Y-48835642D02*
X92914766Y-48949928D01*
X92914766Y-48949928D02*
X92990956Y-49026118D01*
X92990956Y-49026118D02*
X93067146Y-49064213D01*
X93067146Y-49064213D02*
X93219527Y-49102309D01*
X93219527Y-49102309D02*
X93333813Y-49102309D01*
X93333813Y-49102309D02*
X93486194Y-49064213D01*
X93486194Y-49064213D02*
X93562385Y-49026118D01*
X93562385Y-49026118D02*
X93638575Y-48949928D01*
X93638575Y-48949928D02*
X93676670Y-48835642D01*
X93676670Y-48835642D02*
X93676670Y-48759451D01*
X93676670Y-48759451D02*
X93638575Y-48645166D01*
X93638575Y-48645166D02*
X93600480Y-48607070D01*
X93676670Y-47883261D02*
X93676670Y-48264213D01*
X93676670Y-48264213D02*
X93295718Y-48302309D01*
X93295718Y-48302309D02*
X93333813Y-48264213D01*
X93333813Y-48264213D02*
X93371908Y-48188023D01*
X93371908Y-48188023D02*
X93371908Y-47997547D01*
X93371908Y-47997547D02*
X93333813Y-47921356D01*
X93333813Y-47921356D02*
X93295718Y-47883261D01*
X93295718Y-47883261D02*
X93219527Y-47845166D01*
X93219527Y-47845166D02*
X93029051Y-47845166D01*
X93029051Y-47845166D02*
X92952861Y-47883261D01*
X92952861Y-47883261D02*
X92914766Y-47921356D01*
X92914766Y-47921356D02*
X92876670Y-47997547D01*
X92876670Y-47997547D02*
X92876670Y-48188023D01*
X92876670Y-48188023D02*
X92914766Y-48264213D01*
X92914766Y-48264213D02*
X92952861Y-48302309D01*
X92876670Y-47045165D02*
X93257623Y-47311832D01*
X92876670Y-47502308D02*
X93676670Y-47502308D01*
X93676670Y-47502308D02*
X93676670Y-47197546D01*
X93676670Y-47197546D02*
X93638575Y-47121356D01*
X93638575Y-47121356D02*
X93600480Y-47083261D01*
X93600480Y-47083261D02*
X93524289Y-47045165D01*
X93524289Y-47045165D02*
X93410004Y-47045165D01*
X93410004Y-47045165D02*
X93333813Y-47083261D01*
X93333813Y-47083261D02*
X93295718Y-47121356D01*
X93295718Y-47121356D02*
X93257623Y-47197546D01*
X93257623Y-47197546D02*
X93257623Y-47502308D01*
X93410004Y-46359451D02*
X92876670Y-46359451D01*
X93714766Y-46549927D02*
X93143337Y-46740404D01*
X93143337Y-46740404D02*
X93143337Y-46245165D01*
X99525335Y-70614285D02*
X99487240Y-70652381D01*
X99487240Y-70652381D02*
X99449144Y-70766666D01*
X99449144Y-70766666D02*
X99449144Y-70842857D01*
X99449144Y-70842857D02*
X99487240Y-70957143D01*
X99487240Y-70957143D02*
X99563430Y-71033333D01*
X99563430Y-71033333D02*
X99639620Y-71071428D01*
X99639620Y-71071428D02*
X99792001Y-71109524D01*
X99792001Y-71109524D02*
X99906287Y-71109524D01*
X99906287Y-71109524D02*
X100058668Y-71071428D01*
X100058668Y-71071428D02*
X100134859Y-71033333D01*
X100134859Y-71033333D02*
X100211049Y-70957143D01*
X100211049Y-70957143D02*
X100249144Y-70842857D01*
X100249144Y-70842857D02*
X100249144Y-70766666D01*
X100249144Y-70766666D02*
X100211049Y-70652381D01*
X100211049Y-70652381D02*
X100172954Y-70614285D01*
X100249144Y-69890476D02*
X100249144Y-70271428D01*
X100249144Y-70271428D02*
X99868192Y-70309524D01*
X99868192Y-70309524D02*
X99906287Y-70271428D01*
X99906287Y-70271428D02*
X99944382Y-70195238D01*
X99944382Y-70195238D02*
X99944382Y-70004762D01*
X99944382Y-70004762D02*
X99906287Y-69928571D01*
X99906287Y-69928571D02*
X99868192Y-69890476D01*
X99868192Y-69890476D02*
X99792001Y-69852381D01*
X99792001Y-69852381D02*
X99601525Y-69852381D01*
X99601525Y-69852381D02*
X99525335Y-69890476D01*
X99525335Y-69890476D02*
X99487240Y-69928571D01*
X99487240Y-69928571D02*
X99449144Y-70004762D01*
X99449144Y-70004762D02*
X99449144Y-70195238D01*
X99449144Y-70195238D02*
X99487240Y-70271428D01*
X99487240Y-70271428D02*
X99525335Y-70309524D01*
X99449144Y-69052380D02*
X99830097Y-69319047D01*
X99449144Y-69509523D02*
X100249144Y-69509523D01*
X100249144Y-69509523D02*
X100249144Y-69204761D01*
X100249144Y-69204761D02*
X100211049Y-69128571D01*
X100211049Y-69128571D02*
X100172954Y-69090476D01*
X100172954Y-69090476D02*
X100096763Y-69052380D01*
X100096763Y-69052380D02*
X99982478Y-69052380D01*
X99982478Y-69052380D02*
X99906287Y-69090476D01*
X99906287Y-69090476D02*
X99868192Y-69128571D01*
X99868192Y-69128571D02*
X99830097Y-69204761D01*
X99830097Y-69204761D02*
X99830097Y-69509523D01*
X100249144Y-68328571D02*
X100249144Y-68709523D01*
X100249144Y-68709523D02*
X99868192Y-68747619D01*
X99868192Y-68747619D02*
X99906287Y-68709523D01*
X99906287Y-68709523D02*
X99944382Y-68633333D01*
X99944382Y-68633333D02*
X99944382Y-68442857D01*
X99944382Y-68442857D02*
X99906287Y-68366666D01*
X99906287Y-68366666D02*
X99868192Y-68328571D01*
X99868192Y-68328571D02*
X99792001Y-68290476D01*
X99792001Y-68290476D02*
X99601525Y-68290476D01*
X99601525Y-68290476D02*
X99525335Y-68328571D01*
X99525335Y-68328571D02*
X99487240Y-68366666D01*
X99487240Y-68366666D02*
X99449144Y-68442857D01*
X99449144Y-68442857D02*
X99449144Y-68633333D01*
X99449144Y-68633333D02*
X99487240Y-68709523D01*
X99487240Y-68709523D02*
X99525335Y-68747619D01*
X72015995Y-49693133D02*
X71985094Y-49737265D01*
X71985094Y-49737265D02*
X71967423Y-49856429D01*
X71967423Y-49856429D02*
X71980653Y-49931462D01*
X71980653Y-49931462D02*
X72038015Y-50037396D01*
X72038015Y-50037396D02*
X72126278Y-50099199D01*
X72126278Y-50099199D02*
X72207927Y-50123485D01*
X72207927Y-50123485D02*
X72364608Y-50134541D01*
X72364608Y-50134541D02*
X72477157Y-50114695D01*
X72477157Y-50114695D02*
X72620608Y-50050718D01*
X72620608Y-50050718D02*
X72689026Y-49999972D01*
X72689026Y-49999972D02*
X72750828Y-49911708D01*
X72750828Y-49911708D02*
X72768499Y-49792544D01*
X72768499Y-49792544D02*
X72755269Y-49717511D01*
X72755269Y-49717511D02*
X72697907Y-49611576D01*
X72697907Y-49611576D02*
X72653775Y-49580675D01*
X72600854Y-49280543D02*
X72631755Y-49236411D01*
X72631755Y-49236411D02*
X72656041Y-49154763D01*
X72656041Y-49154763D02*
X72622966Y-48967181D01*
X72622966Y-48967181D02*
X72572219Y-48898763D01*
X72572219Y-48898763D02*
X72528087Y-48867862D01*
X72528087Y-48867862D02*
X72446439Y-48843576D01*
X72446439Y-48843576D02*
X72371406Y-48856806D01*
X72371406Y-48856806D02*
X72265472Y-48914168D01*
X72265472Y-48914168D02*
X71894656Y-49443748D01*
X71894656Y-49443748D02*
X71808659Y-48956033D01*
X71669740Y-48168187D02*
X72091211Y-48364651D01*
X71749122Y-48618385D02*
X72536968Y-48479466D01*
X72536968Y-48479466D02*
X72484047Y-48179334D01*
X72484047Y-48179334D02*
X72433300Y-48110917D01*
X72433300Y-48110917D02*
X72389169Y-48080015D01*
X72389169Y-48080015D02*
X72307520Y-48055729D01*
X72307520Y-48055729D02*
X72194971Y-48075575D01*
X72194971Y-48075575D02*
X72126553Y-48126322D01*
X72126553Y-48126322D02*
X72095652Y-48170453D01*
X72095652Y-48170453D02*
X72071366Y-48252101D01*
X72071366Y-48252101D02*
X72124287Y-48552233D01*
X72075898Y-47400278D02*
X71550667Y-47492890D01*
X72409106Y-47534939D02*
X71879434Y-47821749D01*
X71879434Y-47821749D02*
X71793437Y-47334035D01*
D12*
X101469097Y-55815127D02*
X101869097Y-55243699D01*
X102154811Y-55815127D02*
X102154811Y-54615127D01*
X102154811Y-54615127D02*
X101697668Y-54615127D01*
X101697668Y-54615127D02*
X101583383Y-54672270D01*
X101583383Y-54672270D02*
X101526240Y-54729413D01*
X101526240Y-54729413D02*
X101469097Y-54843699D01*
X101469097Y-54843699D02*
X101469097Y-55015127D01*
X101469097Y-55015127D02*
X101526240Y-55129413D01*
X101526240Y-55129413D02*
X101583383Y-55186556D01*
X101583383Y-55186556D02*
X101697668Y-55243699D01*
X101697668Y-55243699D02*
X102154811Y-55243699D01*
D10*
X78500469Y-71725348D02*
X78469568Y-71769480D01*
X78469568Y-71769480D02*
X78451897Y-71888644D01*
X78451897Y-71888644D02*
X78465127Y-71963677D01*
X78465127Y-71963677D02*
X78522489Y-72069611D01*
X78522489Y-72069611D02*
X78610752Y-72131414D01*
X78610752Y-72131414D02*
X78692401Y-72155700D01*
X78692401Y-72155700D02*
X78849082Y-72166756D01*
X78849082Y-72166756D02*
X78961631Y-72146910D01*
X78961631Y-72146910D02*
X79105082Y-72082933D01*
X79105082Y-72082933D02*
X79173500Y-72032187D01*
X79173500Y-72032187D02*
X79235302Y-71943923D01*
X79235302Y-71943923D02*
X79252973Y-71824759D01*
X79252973Y-71824759D02*
X79239743Y-71749726D01*
X79239743Y-71749726D02*
X79182381Y-71643791D01*
X79182381Y-71643791D02*
X79138249Y-71612890D01*
X79085328Y-71312758D02*
X79116229Y-71268626D01*
X79116229Y-71268626D02*
X79140515Y-71186978D01*
X79140515Y-71186978D02*
X79107440Y-70999396D01*
X79107440Y-70999396D02*
X79056693Y-70930978D01*
X79056693Y-70930978D02*
X79012561Y-70900077D01*
X79012561Y-70900077D02*
X78930913Y-70875791D01*
X78930913Y-70875791D02*
X78855880Y-70889021D01*
X78855880Y-70889021D02*
X78749946Y-70946383D01*
X78749946Y-70946383D02*
X78379130Y-71475963D01*
X78379130Y-71475963D02*
X78293133Y-70988248D01*
X78154214Y-70200402D02*
X78575685Y-70396866D01*
X78233596Y-70650600D02*
X79021442Y-70511681D01*
X79021442Y-70511681D02*
X78968521Y-70211549D01*
X78968521Y-70211549D02*
X78917774Y-70143132D01*
X78917774Y-70143132D02*
X78873643Y-70112230D01*
X78873643Y-70112230D02*
X78791994Y-70087944D01*
X78791994Y-70087944D02*
X78679445Y-70107790D01*
X78679445Y-70107790D02*
X78611027Y-70158537D01*
X78611027Y-70158537D02*
X78580126Y-70202668D01*
X78580126Y-70202668D02*
X78555840Y-70284316D01*
X78555840Y-70284316D02*
X78608761Y-70584448D01*
X78816372Y-69348670D02*
X78882524Y-69723835D01*
X78882524Y-69723835D02*
X78513974Y-69827503D01*
X78513974Y-69827503D02*
X78544875Y-69783372D01*
X78544875Y-69783372D02*
X78569162Y-69701724D01*
X78569162Y-69701724D02*
X78536086Y-69514141D01*
X78536086Y-69514141D02*
X78485339Y-69445723D01*
X78485339Y-69445723D02*
X78441207Y-69414822D01*
X78441207Y-69414822D02*
X78359559Y-69390536D01*
X78359559Y-69390536D02*
X78171977Y-69423612D01*
X78171977Y-69423612D02*
X78103559Y-69474358D01*
X78103559Y-69474358D02*
X78072658Y-69518490D01*
X78072658Y-69518490D02*
X78048371Y-69600138D01*
X78048371Y-69600138D02*
X78081447Y-69787721D01*
X78081447Y-69787721D02*
X78132194Y-69856138D01*
X78132194Y-69856138D02*
X78176326Y-69887040D01*
D12*
X86741666Y-81417280D02*
X86789285Y-81464900D01*
X86789285Y-81464900D02*
X86932142Y-81512519D01*
X86932142Y-81512519D02*
X87027380Y-81512519D01*
X87027380Y-81512519D02*
X87170237Y-81464900D01*
X87170237Y-81464900D02*
X87265475Y-81369661D01*
X87265475Y-81369661D02*
X87313094Y-81274423D01*
X87313094Y-81274423D02*
X87360713Y-81083947D01*
X87360713Y-81083947D02*
X87360713Y-80941090D01*
X87360713Y-80941090D02*
X87313094Y-80750614D01*
X87313094Y-80750614D02*
X87265475Y-80655376D01*
X87265475Y-80655376D02*
X87170237Y-80560138D01*
X87170237Y-80560138D02*
X87027380Y-80512519D01*
X87027380Y-80512519D02*
X86932142Y-80512519D01*
X86932142Y-80512519D02*
X86789285Y-80560138D01*
X86789285Y-80560138D02*
X86741666Y-80607757D01*
X86408332Y-80512519D02*
X85789285Y-80512519D01*
X85789285Y-80512519D02*
X86122618Y-80893471D01*
X86122618Y-80893471D02*
X85979761Y-80893471D01*
X85979761Y-80893471D02*
X85884523Y-80941090D01*
X85884523Y-80941090D02*
X85836904Y-80988709D01*
X85836904Y-80988709D02*
X85789285Y-81083947D01*
X85789285Y-81083947D02*
X85789285Y-81322042D01*
X85789285Y-81322042D02*
X85836904Y-81417280D01*
X85836904Y-81417280D02*
X85884523Y-81464900D01*
X85884523Y-81464900D02*
X85979761Y-81512519D01*
X85979761Y-81512519D02*
X86265475Y-81512519D01*
X86265475Y-81512519D02*
X86360713Y-81464900D01*
X86360713Y-81464900D02*
X86408332Y-81417280D01*
X86741666Y-71509580D02*
X86789285Y-71557200D01*
X86789285Y-71557200D02*
X86932142Y-71604819D01*
X86932142Y-71604819D02*
X87027380Y-71604819D01*
X87027380Y-71604819D02*
X87170237Y-71557200D01*
X87170237Y-71557200D02*
X87265475Y-71461961D01*
X87265475Y-71461961D02*
X87313094Y-71366723D01*
X87313094Y-71366723D02*
X87360713Y-71176247D01*
X87360713Y-71176247D02*
X87360713Y-71033390D01*
X87360713Y-71033390D02*
X87313094Y-70842914D01*
X87313094Y-70842914D02*
X87265475Y-70747676D01*
X87265475Y-70747676D02*
X87170237Y-70652438D01*
X87170237Y-70652438D02*
X87027380Y-70604819D01*
X87027380Y-70604819D02*
X86932142Y-70604819D01*
X86932142Y-70604819D02*
X86789285Y-70652438D01*
X86789285Y-70652438D02*
X86741666Y-70700057D01*
X85884523Y-70604819D02*
X86074999Y-70604819D01*
X86074999Y-70604819D02*
X86170237Y-70652438D01*
X86170237Y-70652438D02*
X86217856Y-70700057D01*
X86217856Y-70700057D02*
X86313094Y-70842914D01*
X86313094Y-70842914D02*
X86360713Y-71033390D01*
X86360713Y-71033390D02*
X86360713Y-71414342D01*
X86360713Y-71414342D02*
X86313094Y-71509580D01*
X86313094Y-71509580D02*
X86265475Y-71557200D01*
X86265475Y-71557200D02*
X86170237Y-71604819D01*
X86170237Y-71604819D02*
X85979761Y-71604819D01*
X85979761Y-71604819D02*
X85884523Y-71557200D01*
X85884523Y-71557200D02*
X85836904Y-71509580D01*
X85836904Y-71509580D02*
X85789285Y-71414342D01*
X85789285Y-71414342D02*
X85789285Y-71176247D01*
X85789285Y-71176247D02*
X85836904Y-71081009D01*
X85836904Y-71081009D02*
X85884523Y-71033390D01*
X85884523Y-71033390D02*
X85979761Y-70985771D01*
X85979761Y-70985771D02*
X86170237Y-70985771D01*
X86170237Y-70985771D02*
X86265475Y-71033390D01*
X86265475Y-71033390D02*
X86313094Y-71081009D01*
X86313094Y-71081009D02*
X86360713Y-71176247D01*
X86741666Y-74000480D02*
X86789285Y-74048100D01*
X86789285Y-74048100D02*
X86932142Y-74095719D01*
X86932142Y-74095719D02*
X87027380Y-74095719D01*
X87027380Y-74095719D02*
X87170237Y-74048100D01*
X87170237Y-74048100D02*
X87265475Y-73952861D01*
X87265475Y-73952861D02*
X87313094Y-73857623D01*
X87313094Y-73857623D02*
X87360713Y-73667147D01*
X87360713Y-73667147D02*
X87360713Y-73524290D01*
X87360713Y-73524290D02*
X87313094Y-73333814D01*
X87313094Y-73333814D02*
X87265475Y-73238576D01*
X87265475Y-73238576D02*
X87170237Y-73143338D01*
X87170237Y-73143338D02*
X87027380Y-73095719D01*
X87027380Y-73095719D02*
X86932142Y-73095719D01*
X86932142Y-73095719D02*
X86789285Y-73143338D01*
X86789285Y-73143338D02*
X86741666Y-73190957D01*
X85884523Y-73429052D02*
X85884523Y-74095719D01*
X86122618Y-73048100D02*
X86360713Y-73762385D01*
X86360713Y-73762385D02*
X85741666Y-73762385D01*
X80007192Y-46500865D02*
X80054811Y-46548485D01*
X80054811Y-46548485D02*
X80197668Y-46596104D01*
X80197668Y-46596104D02*
X80292906Y-46596104D01*
X80292906Y-46596104D02*
X80435763Y-46548485D01*
X80435763Y-46548485D02*
X80531001Y-46453246D01*
X80531001Y-46453246D02*
X80578620Y-46358008D01*
X80578620Y-46358008D02*
X80626239Y-46167532D01*
X80626239Y-46167532D02*
X80626239Y-46024675D01*
X80626239Y-46024675D02*
X80578620Y-45834199D01*
X80578620Y-45834199D02*
X80531001Y-45738961D01*
X80531001Y-45738961D02*
X80435763Y-45643723D01*
X80435763Y-45643723D02*
X80292906Y-45596104D01*
X80292906Y-45596104D02*
X80197668Y-45596104D01*
X80197668Y-45596104D02*
X80054811Y-45643723D01*
X80054811Y-45643723D02*
X80007192Y-45691342D01*
X79102430Y-45596104D02*
X79578620Y-45596104D01*
X79578620Y-45596104D02*
X79626239Y-46072294D01*
X79626239Y-46072294D02*
X79578620Y-46024675D01*
X79578620Y-46024675D02*
X79483382Y-45977056D01*
X79483382Y-45977056D02*
X79245287Y-45977056D01*
X79245287Y-45977056D02*
X79150049Y-46024675D01*
X79150049Y-46024675D02*
X79102430Y-46072294D01*
X79102430Y-46072294D02*
X79054811Y-46167532D01*
X79054811Y-46167532D02*
X79054811Y-46405627D01*
X79054811Y-46405627D02*
X79102430Y-46500865D01*
X79102430Y-46500865D02*
X79150049Y-46548485D01*
X79150049Y-46548485D02*
X79245287Y-46596104D01*
X79245287Y-46596104D02*
X79483382Y-46596104D01*
X79483382Y-46596104D02*
X79578620Y-46548485D01*
X79578620Y-46548485D02*
X79626239Y-46500865D01*
D13*
X79946934Y-57970897D02*
X80446934Y-57256611D01*
X80804077Y-57970897D02*
X80804077Y-56470897D01*
X80804077Y-56470897D02*
X80232648Y-56470897D01*
X80232648Y-56470897D02*
X80089791Y-56542326D01*
X80089791Y-56542326D02*
X80018362Y-56613754D01*
X80018362Y-56613754D02*
X79946934Y-56756611D01*
X79946934Y-56756611D02*
X79946934Y-56970897D01*
X79946934Y-56970897D02*
X80018362Y-57113754D01*
X80018362Y-57113754D02*
X80089791Y-57185183D01*
X80089791Y-57185183D02*
X80232648Y-57256611D01*
X80232648Y-57256611D02*
X80804077Y-57256611D01*
X79304077Y-57970897D02*
X79304077Y-56470897D01*
X77804076Y-56542326D02*
X77946934Y-56470897D01*
X77946934Y-56470897D02*
X78161219Y-56470897D01*
X78161219Y-56470897D02*
X78375505Y-56542326D01*
X78375505Y-56542326D02*
X78518362Y-56685183D01*
X78518362Y-56685183D02*
X78589791Y-56828040D01*
X78589791Y-56828040D02*
X78661219Y-57113754D01*
X78661219Y-57113754D02*
X78661219Y-57328040D01*
X78661219Y-57328040D02*
X78589791Y-57613754D01*
X78589791Y-57613754D02*
X78518362Y-57756611D01*
X78518362Y-57756611D02*
X78375505Y-57899469D01*
X78375505Y-57899469D02*
X78161219Y-57970897D01*
X78161219Y-57970897D02*
X78018362Y-57970897D01*
X78018362Y-57970897D02*
X77804076Y-57899469D01*
X77804076Y-57899469D02*
X77732648Y-57828040D01*
X77732648Y-57828040D02*
X77732648Y-57328040D01*
X77732648Y-57328040D02*
X78018362Y-57328040D01*
X77089791Y-57970897D02*
X77089791Y-56470897D01*
X77089791Y-57185183D02*
X76232648Y-57185183D01*
X76232648Y-57970897D02*
X76232648Y-56470897D01*
X75732647Y-56470897D02*
X74875505Y-56470897D01*
X75304076Y-57970897D02*
X75304076Y-56470897D01*
D12*
X89534849Y-44694385D02*
X89391992Y-44742004D01*
X89391992Y-44742004D02*
X89153897Y-44742004D01*
X89153897Y-44742004D02*
X89058659Y-44694385D01*
X89058659Y-44694385D02*
X89011040Y-44646765D01*
X89011040Y-44646765D02*
X88963421Y-44551527D01*
X88963421Y-44551527D02*
X88963421Y-44456289D01*
X88963421Y-44456289D02*
X89011040Y-44361051D01*
X89011040Y-44361051D02*
X89058659Y-44313432D01*
X89058659Y-44313432D02*
X89153897Y-44265813D01*
X89153897Y-44265813D02*
X89344373Y-44218194D01*
X89344373Y-44218194D02*
X89439611Y-44170575D01*
X89439611Y-44170575D02*
X89487230Y-44122956D01*
X89487230Y-44122956D02*
X89534849Y-44027718D01*
X89534849Y-44027718D02*
X89534849Y-43932480D01*
X89534849Y-43932480D02*
X89487230Y-43837242D01*
X89487230Y-43837242D02*
X89439611Y-43789623D01*
X89439611Y-43789623D02*
X89344373Y-43742004D01*
X89344373Y-43742004D02*
X89106278Y-43742004D01*
X89106278Y-43742004D02*
X88963421Y-43789623D01*
X88630087Y-43742004D02*
X88391992Y-44742004D01*
X88391992Y-44742004D02*
X88201516Y-44027718D01*
X88201516Y-44027718D02*
X88011040Y-44742004D01*
X88011040Y-44742004D02*
X87772945Y-43742004D01*
X86868183Y-44742004D02*
X87439611Y-44742004D01*
X87153897Y-44742004D02*
X87153897Y-43742004D01*
X87153897Y-43742004D02*
X87249135Y-43884861D01*
X87249135Y-43884861D02*
X87344373Y-43980099D01*
X87344373Y-43980099D02*
X87439611Y-44027718D01*
X86391992Y-44742004D02*
X86201516Y-44742004D01*
X86201516Y-44742004D02*
X86106278Y-44694385D01*
X86106278Y-44694385D02*
X86058659Y-44646765D01*
X86058659Y-44646765D02*
X85963421Y-44503908D01*
X85963421Y-44503908D02*
X85915802Y-44313432D01*
X85915802Y-44313432D02*
X85915802Y-43932480D01*
X85915802Y-43932480D02*
X85963421Y-43837242D01*
X85963421Y-43837242D02*
X86011040Y-43789623D01*
X86011040Y-43789623D02*
X86106278Y-43742004D01*
X86106278Y-43742004D02*
X86296754Y-43742004D01*
X86296754Y-43742004D02*
X86391992Y-43789623D01*
X86391992Y-43789623D02*
X86439611Y-43837242D01*
X86439611Y-43837242D02*
X86487230Y-43932480D01*
X86487230Y-43932480D02*
X86487230Y-44170575D01*
X86487230Y-44170575D02*
X86439611Y-44265813D01*
X86439611Y-44265813D02*
X86391992Y-44313432D01*
X86391992Y-44313432D02*
X86296754Y-44361051D01*
X86296754Y-44361051D02*
X86106278Y-44361051D01*
X86106278Y-44361051D02*
X86011040Y-44313432D01*
X86011040Y-44313432D02*
X85963421Y-44265813D01*
X85963421Y-44265813D02*
X85915802Y-44170575D01*
X75489920Y-90287094D02*
X75357502Y-90358797D01*
X75357502Y-90358797D02*
X75123024Y-90400142D01*
X75123024Y-90400142D02*
X75020963Y-90369784D01*
X75020963Y-90369784D02*
X74965799Y-90331157D01*
X74965799Y-90331157D02*
X74902365Y-90245635D01*
X74902365Y-90245635D02*
X74885827Y-90151844D01*
X74885827Y-90151844D02*
X74916185Y-90049784D01*
X74916185Y-90049784D02*
X74954812Y-89994619D01*
X74954812Y-89994619D02*
X75040334Y-89931186D01*
X75040334Y-89931186D02*
X75219647Y-89851214D01*
X75219647Y-89851214D02*
X75305170Y-89787781D01*
X75305170Y-89787781D02*
X75343796Y-89732616D01*
X75343796Y-89732616D02*
X75374154Y-89630556D01*
X75374154Y-89630556D02*
X75357616Y-89536765D01*
X75357616Y-89536765D02*
X75294183Y-89451242D01*
X75294183Y-89451242D02*
X75239018Y-89412616D01*
X75239018Y-89412616D02*
X75136958Y-89382258D01*
X75136958Y-89382258D02*
X74902480Y-89423603D01*
X74902480Y-89423603D02*
X74770062Y-89495305D01*
X74433524Y-89506293D02*
X74372694Y-90532445D01*
X74372694Y-90532445D02*
X74061077Y-89862087D01*
X74061077Y-89862087D02*
X73997529Y-90598597D01*
X73997529Y-90598597D02*
X73589403Y-89655134D01*
X73340991Y-90714362D02*
X73153408Y-90747438D01*
X73153408Y-90747438D02*
X73051348Y-90717080D01*
X73051348Y-90717080D02*
X72996183Y-90678454D01*
X72996183Y-90678454D02*
X72877585Y-90554305D01*
X72877585Y-90554305D02*
X72797614Y-90374991D01*
X72797614Y-90374991D02*
X72731462Y-89999826D01*
X72731462Y-89999826D02*
X72761820Y-89897766D01*
X72761820Y-89897766D02*
X72800447Y-89842602D01*
X72800447Y-89842602D02*
X72885969Y-89779168D01*
X72885969Y-89779168D02*
X73073551Y-89746092D01*
X73073551Y-89746092D02*
X73175611Y-89776450D01*
X73175611Y-89776450D02*
X73230776Y-89815077D01*
X73230776Y-89815077D02*
X73294210Y-89900599D01*
X73294210Y-89900599D02*
X73335554Y-90135077D01*
X73335554Y-90135077D02*
X73305197Y-90237137D01*
X73305197Y-90237137D02*
X73266570Y-90292302D01*
X73266570Y-90292302D02*
X73181048Y-90355735D01*
X73181048Y-90355735D02*
X72993465Y-90388811D01*
X72993465Y-90388811D02*
X72891405Y-90358453D01*
X72891405Y-90358453D02*
X72836241Y-90319827D01*
X72836241Y-90319827D02*
X72772807Y-90234305D01*
X96094323Y-66726600D02*
X95951466Y-66774219D01*
X95951466Y-66774219D02*
X95713371Y-66774219D01*
X95713371Y-66774219D02*
X95618133Y-66726600D01*
X95618133Y-66726600D02*
X95570514Y-66678980D01*
X95570514Y-66678980D02*
X95522895Y-66583742D01*
X95522895Y-66583742D02*
X95522895Y-66488504D01*
X95522895Y-66488504D02*
X95570514Y-66393266D01*
X95570514Y-66393266D02*
X95618133Y-66345647D01*
X95618133Y-66345647D02*
X95713371Y-66298028D01*
X95713371Y-66298028D02*
X95903847Y-66250409D01*
X95903847Y-66250409D02*
X95999085Y-66202790D01*
X95999085Y-66202790D02*
X96046704Y-66155171D01*
X96046704Y-66155171D02*
X96094323Y-66059933D01*
X96094323Y-66059933D02*
X96094323Y-65964695D01*
X96094323Y-65964695D02*
X96046704Y-65869457D01*
X96046704Y-65869457D02*
X95999085Y-65821838D01*
X95999085Y-65821838D02*
X95903847Y-65774219D01*
X95903847Y-65774219D02*
X95665752Y-65774219D01*
X95665752Y-65774219D02*
X95522895Y-65821838D01*
X95189561Y-65774219D02*
X94951466Y-66774219D01*
X94951466Y-66774219D02*
X94760990Y-66059933D01*
X94760990Y-66059933D02*
X94570514Y-66774219D01*
X94570514Y-66774219D02*
X94332419Y-65774219D01*
X93427657Y-66774219D02*
X93999085Y-66774219D01*
X93713371Y-66774219D02*
X93713371Y-65774219D01*
X93713371Y-65774219D02*
X93808609Y-65917076D01*
X93808609Y-65917076D02*
X93903847Y-66012314D01*
X93903847Y-66012314D02*
X93999085Y-66059933D01*
X92951466Y-66774219D02*
X92760990Y-66774219D01*
X92760990Y-66774219D02*
X92665752Y-66726600D01*
X92665752Y-66726600D02*
X92618133Y-66678980D01*
X92618133Y-66678980D02*
X92522895Y-66536123D01*
X92522895Y-66536123D02*
X92475276Y-66345647D01*
X92475276Y-66345647D02*
X92475276Y-65964695D01*
X92475276Y-65964695D02*
X92522895Y-65869457D01*
X92522895Y-65869457D02*
X92570514Y-65821838D01*
X92570514Y-65821838D02*
X92665752Y-65774219D01*
X92665752Y-65774219D02*
X92856228Y-65774219D01*
X92856228Y-65774219D02*
X92951466Y-65821838D01*
X92951466Y-65821838D02*
X92999085Y-65869457D01*
X92999085Y-65869457D02*
X93046704Y-65964695D01*
X93046704Y-65964695D02*
X93046704Y-66202790D01*
X93046704Y-66202790D02*
X92999085Y-66298028D01*
X92999085Y-66298028D02*
X92951466Y-66345647D01*
X92951466Y-66345647D02*
X92856228Y-66393266D01*
X92856228Y-66393266D02*
X92665752Y-66393266D01*
X92665752Y-66393266D02*
X92570514Y-66345647D01*
X92570514Y-66345647D02*
X92522895Y-66298028D01*
X92522895Y-66298028D02*
X92475276Y-66202790D01*
X67457246Y-46410879D02*
X67324828Y-46482582D01*
X67324828Y-46482582D02*
X67090350Y-46523927D01*
X67090350Y-46523927D02*
X66988289Y-46493569D01*
X66988289Y-46493569D02*
X66933125Y-46454942D01*
X66933125Y-46454942D02*
X66869691Y-46369420D01*
X66869691Y-46369420D02*
X66853153Y-46275629D01*
X66853153Y-46275629D02*
X66883511Y-46173569D01*
X66883511Y-46173569D02*
X66922138Y-46118404D01*
X66922138Y-46118404D02*
X67007660Y-46054971D01*
X67007660Y-46054971D02*
X67186973Y-45974999D01*
X67186973Y-45974999D02*
X67272496Y-45911566D01*
X67272496Y-45911566D02*
X67311122Y-45856401D01*
X67311122Y-45856401D02*
X67341480Y-45754341D01*
X67341480Y-45754341D02*
X67324942Y-45660550D01*
X67324942Y-45660550D02*
X67261509Y-45575027D01*
X67261509Y-45575027D02*
X67206344Y-45536401D01*
X67206344Y-45536401D02*
X67104284Y-45506043D01*
X67104284Y-45506043D02*
X66869806Y-45547388D01*
X66869806Y-45547388D02*
X66737388Y-45619090D01*
X66400850Y-45630078D02*
X66340020Y-46656230D01*
X66340020Y-46656230D02*
X66028403Y-45985872D01*
X66028403Y-45985872D02*
X65964855Y-46722382D01*
X65964855Y-46722382D02*
X65556729Y-45778919D01*
X64712608Y-45927760D02*
X65181564Y-45845070D01*
X65181564Y-45845070D02*
X65311149Y-46305758D01*
X65311149Y-46305758D02*
X65255985Y-46267131D01*
X65255985Y-46267131D02*
X65153925Y-46236773D01*
X65153925Y-46236773D02*
X64919447Y-46278118D01*
X64919447Y-46278118D02*
X64833924Y-46341552D01*
X64833924Y-46341552D02*
X64795298Y-46396716D01*
X64795298Y-46396716D02*
X64764940Y-46498776D01*
X64764940Y-46498776D02*
X64806285Y-46733254D01*
X64806285Y-46733254D02*
X64869718Y-46818777D01*
X64869718Y-46818777D02*
X64924883Y-46857403D01*
X64924883Y-46857403D02*
X65026943Y-46887761D01*
X65026943Y-46887761D02*
X65261421Y-46846416D01*
X65261421Y-46846416D02*
X65346943Y-46782983D01*
X65346943Y-46782983D02*
X65385570Y-46727818D01*
X74016720Y-68443094D02*
X73884302Y-68514797D01*
X73884302Y-68514797D02*
X73649824Y-68556142D01*
X73649824Y-68556142D02*
X73547763Y-68525784D01*
X73547763Y-68525784D02*
X73492599Y-68487157D01*
X73492599Y-68487157D02*
X73429165Y-68401635D01*
X73429165Y-68401635D02*
X73412627Y-68307844D01*
X73412627Y-68307844D02*
X73442985Y-68205784D01*
X73442985Y-68205784D02*
X73481612Y-68150619D01*
X73481612Y-68150619D02*
X73567134Y-68087186D01*
X73567134Y-68087186D02*
X73746447Y-68007214D01*
X73746447Y-68007214D02*
X73831970Y-67943781D01*
X73831970Y-67943781D02*
X73870596Y-67888616D01*
X73870596Y-67888616D02*
X73900954Y-67786556D01*
X73900954Y-67786556D02*
X73884416Y-67692765D01*
X73884416Y-67692765D02*
X73820983Y-67607242D01*
X73820983Y-67607242D02*
X73765818Y-67568616D01*
X73765818Y-67568616D02*
X73663758Y-67538258D01*
X73663758Y-67538258D02*
X73429280Y-67579603D01*
X73429280Y-67579603D02*
X73296862Y-67651305D01*
X72960324Y-67662293D02*
X72899494Y-68688445D01*
X72899494Y-68688445D02*
X72587877Y-68018087D01*
X72587877Y-68018087D02*
X72524329Y-68754597D01*
X72524329Y-68754597D02*
X72116203Y-67811134D01*
X71272082Y-67959975D02*
X71741038Y-67877285D01*
X71741038Y-67877285D02*
X71870623Y-68337973D01*
X71870623Y-68337973D02*
X71815459Y-68299346D01*
X71815459Y-68299346D02*
X71713399Y-68268988D01*
X71713399Y-68268988D02*
X71478921Y-68310333D01*
X71478921Y-68310333D02*
X71393398Y-68373767D01*
X71393398Y-68373767D02*
X71354772Y-68428931D01*
X71354772Y-68428931D02*
X71324414Y-68530991D01*
X71324414Y-68530991D02*
X71365759Y-68765469D01*
X71365759Y-68765469D02*
X71429192Y-68850992D01*
X71429192Y-68850992D02*
X71484357Y-68889618D01*
X71484357Y-68889618D02*
X71586417Y-68919976D01*
X71586417Y-68919976D02*
X71820895Y-68878631D01*
X71820895Y-68878631D02*
X71906417Y-68815198D01*
X71906417Y-68815198D02*
X71945044Y-68760033D01*
X113421098Y-48494368D02*
X113270649Y-48500765D01*
X113270649Y-48500765D02*
X113041777Y-48435137D01*
X113041777Y-48435137D02*
X112963354Y-48363112D01*
X112963354Y-48363112D02*
X112930705Y-48304212D01*
X112930705Y-48304212D02*
X112911182Y-48199537D01*
X112911182Y-48199537D02*
X112937433Y-48107989D01*
X112937433Y-48107989D02*
X113009459Y-48029566D01*
X113009459Y-48029566D02*
X113068359Y-47996917D01*
X113068359Y-47996917D02*
X113173033Y-47977394D01*
X113173033Y-47977394D02*
X113369256Y-47984122D01*
X113369256Y-47984122D02*
X113473931Y-47964598D01*
X113473931Y-47964598D02*
X113532831Y-47931950D01*
X113532831Y-47931950D02*
X113604856Y-47853526D01*
X113604856Y-47853526D02*
X113631107Y-47761978D01*
X113631107Y-47761978D02*
X113611584Y-47657303D01*
X113611584Y-47657303D02*
X113578935Y-47598403D01*
X113578935Y-47598403D02*
X113500512Y-47526378D01*
X113500512Y-47526378D02*
X113271640Y-47460750D01*
X113271640Y-47460750D02*
X113121192Y-47467148D01*
X112813897Y-47329494D02*
X112309387Y-48225128D01*
X112309387Y-48225128D02*
X112323174Y-47486010D01*
X112323174Y-47486010D02*
X111943193Y-48120123D01*
X111943193Y-48120123D02*
X111989958Y-47093234D01*
X110844608Y-47805109D02*
X111393900Y-47962616D01*
X111119254Y-47883863D02*
X111394891Y-46922601D01*
X111394891Y-46922601D02*
X111447063Y-47086175D01*
X111447063Y-47086175D02*
X111512361Y-47203975D01*
X111512361Y-47203975D02*
X111590784Y-47276001D01*
X110204427Y-46928007D02*
X110020669Y-47568848D01*
X110538304Y-46627440D02*
X110570292Y-47379684D01*
X110570292Y-47379684D02*
X109975225Y-47209051D01*
X81375326Y-48097185D02*
X81375326Y-48478185D01*
X81375326Y-51526185D02*
X81375326Y-51907185D01*
X81756326Y-51907185D02*
X81375326Y-51907185D01*
X83915326Y-45557185D02*
X92805326Y-45557185D01*
X85261164Y-51907185D02*
X81756326Y-51907185D01*
X92805326Y-45557185D02*
X92805326Y-45938185D01*
X92805326Y-48986185D02*
X92805326Y-50002185D01*
X92805326Y-50002185D02*
X87725326Y-50002185D01*
X83915326Y-45557185D02*
G75*
G03*
X81375326Y-48097185I1J-2540001D01*
G01*
X87725326Y-50002185D02*
G75*
G03*
X85261165Y-51926145I0J-2539999D01*
G01*
D10*
X74456526Y-50961785D02*
X74456526Y-52358785D01*
X72424526Y-50961785D02*
X74456526Y-50961785D01*
X72424526Y-52358785D02*
X72424526Y-50961785D01*
D12*
X74124526Y-53261785D02*
X72724526Y-53261785D01*
X73424526Y-53261785D02*
X74124526Y-54161785D01*
X74124526Y-54161785D02*
X72724526Y-54161785D01*
X72724526Y-54161785D02*
X73424526Y-53261785D01*
D10*
X84888275Y-90331142D02*
X84888275Y-91728142D01*
X82856275Y-90331142D02*
X84888275Y-90331142D01*
X82856275Y-91728142D02*
X82856275Y-90331142D01*
D12*
X84572275Y-92545142D02*
X83172275Y-92545142D01*
X83872275Y-92545142D02*
X84572275Y-93445142D01*
X84572275Y-93445142D02*
X83172275Y-93445142D01*
X83172275Y-93445142D02*
X83872275Y-92545142D01*
X68514205Y-94972395D02*
X68580365Y-95347607D01*
X69109644Y-98349301D02*
X69175804Y-98724513D01*
X69551016Y-98658353D02*
X69175804Y-98724513D01*
X70574550Y-92029917D02*
X79329491Y-90486185D01*
X73002608Y-98049744D02*
X69551016Y-98658353D01*
X79329491Y-90486185D02*
X79395651Y-90861397D01*
X79924930Y-93863091D02*
X80101357Y-94863656D01*
X80101357Y-94863656D02*
X75098534Y-95745788D01*
X70574550Y-92029918D02*
G75*
G03*
X68514205Y-94972395I441067J-2501412D01*
G01*
X75098534Y-95745788D02*
G75*
G03*
X73005901Y-98068416I441066J-2501411D01*
G01*
D10*
X81064000Y-71820000D02*
X81064000Y-70423000D01*
X83096000Y-71820000D02*
X81064000Y-71820000D01*
X83096000Y-70423000D02*
X83096000Y-71820000D01*
D12*
X81380000Y-69606000D02*
X82780000Y-69606000D01*
X82080000Y-69606000D02*
X81380000Y-68706000D01*
X81380000Y-68706000D02*
X82780000Y-68706000D01*
X82780000Y-68706000D02*
X82080000Y-69606000D01*
X87934800Y-70129400D02*
X87934800Y-70510400D01*
X87934800Y-73558400D02*
X87934800Y-73939400D01*
X88315800Y-73939400D02*
X87934800Y-73939400D01*
X90474800Y-67589400D02*
X99364800Y-67589400D01*
X91820638Y-73939400D02*
X88315800Y-73939400D01*
X99364800Y-67589400D02*
X99364800Y-67970400D01*
X99364800Y-71018400D02*
X99364800Y-72034400D01*
X99364800Y-72034400D02*
X94284800Y-72034400D01*
X90474800Y-67589400D02*
G75*
G03*
X87934800Y-70129400I1J-2540001D01*
G01*
X94284800Y-72034400D02*
G75*
G03*
X91820639Y-73958360I0J-2539999D01*
G01*
X60481531Y-51096180D02*
X60547691Y-51471392D01*
X61076970Y-54473086D02*
X61143130Y-54848298D01*
X61518342Y-54782138D02*
X61143130Y-54848298D01*
X62541876Y-48153702D02*
X71296817Y-46609970D01*
X64969934Y-54173529D02*
X61518342Y-54782138D01*
X71296817Y-46609970D02*
X71362977Y-46985182D01*
X71892256Y-49986876D02*
X72068683Y-50987441D01*
X72068683Y-50987441D02*
X67065860Y-51869573D01*
X62541876Y-48153703D02*
G75*
G03*
X60481531Y-51096180I441067J-2501412D01*
G01*
X67065860Y-51869573D02*
G75*
G03*
X64973227Y-54192201I441066J-2501411D01*
G01*
D10*
X100522526Y-46167785D02*
X100522526Y-47564785D01*
X98490526Y-46167785D02*
X100522526Y-46167785D01*
X98490526Y-47564785D02*
X98490526Y-46167785D01*
D12*
X100190526Y-48467785D02*
X98790526Y-48467785D01*
X99490526Y-48467785D02*
X100190526Y-49367785D01*
X100190526Y-49367785D02*
X98790526Y-49367785D01*
X98790526Y-49367785D02*
X99490526Y-48467785D01*
D10*
X98456526Y-46161785D02*
X98456526Y-47558785D01*
X96424526Y-46161785D02*
X98456526Y-46161785D01*
X96424526Y-47558785D02*
X96424526Y-46161785D01*
D12*
X98124526Y-48461785D02*
X96724526Y-48461785D01*
X97424526Y-48461785D02*
X98124526Y-49361785D01*
X98124526Y-49361785D02*
X96724526Y-49361785D01*
X96724526Y-49361785D02*
X97424526Y-48461785D01*
D10*
X100686000Y-76760000D02*
X100686000Y-78157000D01*
X98654000Y-76760000D02*
X100686000Y-76760000D01*
X98654000Y-78157000D02*
X98654000Y-76760000D01*
D12*
X100370000Y-78974000D02*
X98970000Y-78974000D01*
X99670000Y-78974000D02*
X100370000Y-79874000D01*
X100370000Y-79874000D02*
X98970000Y-79874000D01*
X98970000Y-79874000D02*
X99670000Y-78974000D01*
X67041005Y-73128395D02*
X67107165Y-73503607D01*
X67636444Y-76505301D02*
X67702604Y-76880513D01*
X68077816Y-76814353D02*
X67702604Y-76880513D01*
X69101350Y-70185917D02*
X77856291Y-68642185D01*
X71529408Y-76205744D02*
X68077816Y-76814353D01*
X77856291Y-68642185D02*
X77922451Y-69017397D01*
X78451730Y-72019091D02*
X78628157Y-73019656D01*
X78628157Y-73019656D02*
X73625334Y-73901788D01*
X69101350Y-70185918D02*
G75*
G03*
X67041005Y-73128395I441067J-2501412D01*
G01*
X73625334Y-73901788D02*
G75*
G03*
X71532701Y-76224416I441066J-2501411D01*
G01*
X104639722Y-49516280D02*
X104534704Y-49882520D01*
X103694562Y-52812446D02*
X103589544Y-53178687D01*
X103955785Y-53283704D02*
X103589544Y-53178687D01*
X107781446Y-47774794D02*
X116327062Y-50225210D01*
X107324851Y-54249769D02*
X103955785Y-53283704D01*
X116327062Y-50225210D02*
X116222045Y-50591451D01*
X115381902Y-53521376D02*
X115101854Y-54498018D01*
X115101854Y-54498018D02*
X110218645Y-53097780D01*
X107781446Y-47774794D02*
G75*
G03*
X104639723Y-49516280I-700118J-2441606D01*
G01*
X110218645Y-53097780D02*
G75*
G03*
X107319626Y-54267994I-700119J-2441604D01*
G01*
D14*
X98700000Y-80500000D02*
X98350000Y-80500000D01*
X98350000Y-79450000D01*
X98700000Y-79450000D01*
X98700000Y-80500000D01*
G36*
X98700000Y-80500000D02*
G01*
X98350000Y-80500000D01*
X98350000Y-79450000D01*
X98700000Y-79450000D01*
X98700000Y-80500000D01*
G37*
X72898663Y-59275301D02*
X72553980Y-59336078D01*
X72371650Y-58302029D01*
X72716333Y-58241253D01*
X72898663Y-59275301D01*
G36*
X72898663Y-59275301D02*
G01*
X72553980Y-59336078D01*
X72371650Y-58302029D01*
X72716333Y-58241253D01*
X72898663Y-59275301D01*
G37*
X112374191Y-61461011D02*
X112102431Y-62475233D01*
X111764357Y-62384647D01*
X112036117Y-61370425D01*
X112374191Y-61461011D01*
G36*
X112374191Y-61461011D02*
G01*
X112102431Y-62475233D01*
X111764357Y-62384647D01*
X112036117Y-61370425D01*
X112374191Y-61461011D01*
G37*
X79458137Y-81307516D02*
X79113454Y-81368293D01*
X78931124Y-80334244D01*
X79275807Y-80273468D01*
X79458137Y-81307516D01*
G36*
X79458137Y-81307516D02*
G01*
X79113454Y-81368293D01*
X78931124Y-80334244D01*
X79275807Y-80273468D01*
X79458137Y-81307516D01*
G37*
X81058137Y-103337516D02*
X80713454Y-103398293D01*
X80531124Y-102364244D01*
X80875807Y-102303468D01*
X81058137Y-103337516D01*
G36*
X81058137Y-103337516D02*
G01*
X80713454Y-103398293D01*
X80531124Y-102364244D01*
X80875807Y-102303468D01*
X81058137Y-103337516D01*
G37*
X92140526Y-58467785D02*
X91790526Y-58467785D01*
X91790526Y-57417785D01*
X92140526Y-57417785D01*
X92140526Y-58467785D01*
G36*
X92140526Y-58467785D02*
G01*
X91790526Y-58467785D01*
X91790526Y-57417785D01*
X92140526Y-57417785D01*
X92140526Y-58467785D01*
G37*
M02*
