G04 #@! TF.GenerationSoftware,KiCad,Pcbnew,7.0.7*
G04 #@! TF.CreationDate,2024-02-03T15:44:35+08:00*
G04 #@! TF.ProjectId,flex,666c6578-2e6b-4696-9361-645f70636258,rev?*
G04 #@! TF.SameCoordinates,Original*
G04 #@! TF.FileFunction,Legend,Top*
G04 #@! TF.FilePolarity,Positive*
%FSLAX46Y46*%
G04 Gerber Fmt 4.6, Leading zero omitted, Abs format (unit mm)*
G04 Created by KiCad (PCBNEW 7.0.7) date 2024-02-03 15:44:35*
%MOMM*%
%LPD*%
G01*
G04 APERTURE LIST*
%ADD10C,0.120000*%
%ADD11C,1.000000*%
%ADD12C,0.150000*%
%ADD13C,0.200000*%
G04 APERTURE END LIST*
D10*
X80781746Y-55913790D02*
X74956746Y-55913790D01*
D11*
X79665000Y-84485000D02*
X71735000Y-86015000D01*
D10*
X77716139Y-82640936D02*
G75*
G03*
X77251576Y-82275616I-397439J-27364D01*
G01*
X77251576Y-82275615D02*
X71908995Y-83217659D01*
X77716183Y-82640933D02*
X77893150Y-83644561D01*
X81577783Y-56694680D02*
G75*
G03*
X80781746Y-55913790I-800183J-19520D01*
G01*
X71908998Y-83217710D02*
G75*
G03*
X71543677Y-83682267I27302J-397390D01*
G01*
X74175857Y-57703979D02*
X74175857Y-56684868D01*
X71720644Y-84685895D02*
X71543677Y-83682267D01*
X81577824Y-56694679D02*
X81577824Y-57713790D01*
X74175858Y-57703979D02*
G75*
G03*
X74971935Y-58484869I800142J19479D01*
G01*
X83200000Y-69850000D02*
X85575000Y-69850000D01*
X85575000Y-79800000D01*
X83200000Y-79800000D01*
X83200000Y-69850000D01*
X74956745Y-55913748D02*
G75*
G03*
X74175857Y-56684868I19555J-800752D01*
G01*
X72185251Y-85051213D02*
X77527832Y-84109169D01*
X71720631Y-84685896D02*
G75*
G03*
X72185251Y-85051212I397469J27396D01*
G01*
X74971935Y-58484869D02*
X80796935Y-58484868D01*
X77527828Y-84109111D02*
G75*
G03*
X77893150Y-83644561I-27328J397411D01*
G01*
X80796934Y-58484834D02*
G75*
G03*
X81577823Y-57713790I-19434J800634D01*
G01*
X76301240Y-59881640D02*
X76034573Y-59500687D01*
X75844097Y-59881640D02*
X75844097Y-59081640D01*
X75844097Y-59081640D02*
X76148859Y-59081640D01*
X76148859Y-59081640D02*
X76225049Y-59119735D01*
X76225049Y-59119735D02*
X76263144Y-59157830D01*
X76263144Y-59157830D02*
X76301240Y-59234021D01*
X76301240Y-59234021D02*
X76301240Y-59348306D01*
X76301240Y-59348306D02*
X76263144Y-59424497D01*
X76263144Y-59424497D02*
X76225049Y-59462592D01*
X76225049Y-59462592D02*
X76148859Y-59500687D01*
X76148859Y-59500687D02*
X75844097Y-59500687D01*
X76644097Y-59462592D02*
X76910763Y-59462592D01*
X77025049Y-59881640D02*
X76644097Y-59881640D01*
X76644097Y-59881640D02*
X76644097Y-59081640D01*
X76644097Y-59081640D02*
X77025049Y-59081640D01*
X77253621Y-59081640D02*
X77520288Y-59881640D01*
X77520288Y-59881640D02*
X77786954Y-59081640D01*
X78625049Y-59157830D02*
X78663145Y-59119735D01*
X78663145Y-59119735D02*
X78739335Y-59081640D01*
X78739335Y-59081640D02*
X78929811Y-59081640D01*
X78929811Y-59081640D02*
X79006002Y-59119735D01*
X79006002Y-59119735D02*
X79044097Y-59157830D01*
X79044097Y-59157830D02*
X79082192Y-59234021D01*
X79082192Y-59234021D02*
X79082192Y-59310211D01*
X79082192Y-59310211D02*
X79044097Y-59424497D01*
X79044097Y-59424497D02*
X78586954Y-59881640D01*
X78586954Y-59881640D02*
X79082192Y-59881640D01*
X79425050Y-59805449D02*
X79463145Y-59843545D01*
X79463145Y-59843545D02*
X79425050Y-59881640D01*
X79425050Y-59881640D02*
X79386954Y-59843545D01*
X79386954Y-59843545D02*
X79425050Y-59805449D01*
X79425050Y-59805449D02*
X79425050Y-59881640D01*
X80225049Y-59881640D02*
X79767906Y-59881640D01*
X79996478Y-59881640D02*
X79996478Y-59081640D01*
X79996478Y-59081640D02*
X79920287Y-59195925D01*
X79920287Y-59195925D02*
X79844097Y-59272116D01*
X79844097Y-59272116D02*
X79767906Y-59310211D01*
X105665035Y-50400944D02*
X105691154Y-50448064D01*
X105691154Y-50448064D02*
X105696272Y-50568423D01*
X105696272Y-50568423D02*
X105675271Y-50641662D01*
X105675271Y-50641662D02*
X105607151Y-50741020D01*
X105607151Y-50741020D02*
X105512911Y-50793258D01*
X105512911Y-50793258D02*
X105429171Y-50808876D01*
X105429171Y-50808876D02*
X105272193Y-50803494D01*
X105272193Y-50803494D02*
X105162334Y-50771992D01*
X105162334Y-50771992D02*
X105026357Y-50693371D01*
X105026357Y-50693371D02*
X104963618Y-50635751D01*
X104963618Y-50635751D02*
X104911380Y-50541511D01*
X104911380Y-50541511D02*
X104906262Y-50421152D01*
X104906262Y-50421152D02*
X104927263Y-50347913D01*
X104927263Y-50347913D02*
X104995384Y-50248555D01*
X104995384Y-50248555D02*
X105042504Y-50222436D01*
X105414610Y-49615787D02*
X105927283Y-49762794D01*
X105069152Y-49714881D02*
X105565942Y-50055485D01*
X105565942Y-50055485D02*
X105702448Y-49579432D01*
X106168794Y-48920545D02*
X105729095Y-49071877D01*
X106042788Y-49359979D02*
X105273779Y-49139469D01*
X105273779Y-49139469D02*
X105357782Y-48846513D01*
X105357782Y-48846513D02*
X105415403Y-48783775D01*
X105415403Y-48783775D02*
X105462523Y-48757656D01*
X105462523Y-48757656D02*
X105546262Y-48742037D01*
X105546262Y-48742037D02*
X105656121Y-48773539D01*
X105656121Y-48773539D02*
X105718859Y-48831159D01*
X105718859Y-48831159D02*
X105744978Y-48878279D01*
X105744978Y-48878279D02*
X105760597Y-48962018D01*
X105760597Y-48962018D02*
X105676593Y-49254974D01*
X105845129Y-48114388D02*
X106357802Y-48261394D01*
X105499671Y-48213481D02*
X105996461Y-48554086D01*
X105996461Y-48554086D02*
X106132967Y-48078033D01*
X69817058Y-95325443D02*
X69861190Y-95356344D01*
X69861190Y-95356344D02*
X69918552Y-95462279D01*
X69918552Y-95462279D02*
X69931782Y-95537312D01*
X69931782Y-95537312D02*
X69914111Y-95656476D01*
X69914111Y-95656476D02*
X69852308Y-95744739D01*
X69852308Y-95744739D02*
X69783891Y-95795486D01*
X69783891Y-95795486D02*
X69640440Y-95859463D01*
X69640440Y-95859463D02*
X69527890Y-95879309D01*
X69527890Y-95879309D02*
X69371209Y-95868253D01*
X69371209Y-95868253D02*
X69289561Y-95843967D01*
X69289561Y-95843967D02*
X69201298Y-95782164D01*
X69201298Y-95782164D02*
X69143936Y-95676230D01*
X69143936Y-95676230D02*
X69130706Y-95601197D01*
X69130706Y-95601197D02*
X69148377Y-95482032D01*
X69148377Y-95482032D02*
X69179278Y-95437901D01*
X69057939Y-95188516D02*
X68971941Y-94700801D01*
X68971941Y-94700801D02*
X69318380Y-94910495D01*
X69318380Y-94910495D02*
X69298534Y-94797946D01*
X69298534Y-94797946D02*
X69322820Y-94716298D01*
X69322820Y-94716298D02*
X69353722Y-94672166D01*
X69353722Y-94672166D02*
X69422139Y-94621419D01*
X69422139Y-94621419D02*
X69609722Y-94588344D01*
X69609722Y-94588344D02*
X69691370Y-94612630D01*
X69691370Y-94612630D02*
X69735502Y-94643531D01*
X69735502Y-94643531D02*
X69786248Y-94711949D01*
X69786248Y-94711949D02*
X69825939Y-94937048D01*
X69825939Y-94937048D02*
X69801653Y-95018696D01*
X69801653Y-95018696D02*
X69770752Y-95062828D01*
X69620869Y-93774036D02*
X69292010Y-94102804D01*
X69700251Y-94224234D02*
X68912405Y-94363153D01*
X68912405Y-94363153D02*
X68859484Y-94063021D01*
X68859484Y-94063021D02*
X68883770Y-93981373D01*
X68883770Y-93981373D02*
X68914671Y-93937241D01*
X68914671Y-93937241D02*
X68983089Y-93886494D01*
X68983089Y-93886494D02*
X69095638Y-93866649D01*
X69095638Y-93866649D02*
X69177286Y-93890935D01*
X69177286Y-93890935D02*
X69221418Y-93921836D01*
X69221418Y-93921836D02*
X69272165Y-93990254D01*
X69272165Y-93990254D02*
X69325086Y-94290386D01*
X68707335Y-93200142D02*
X68773486Y-93575307D01*
X68773486Y-93575307D02*
X69155266Y-93546671D01*
X69155266Y-93546671D02*
X69111135Y-93515770D01*
X69111135Y-93515770D02*
X69060388Y-93447352D01*
X69060388Y-93447352D02*
X69027312Y-93259770D01*
X69027312Y-93259770D02*
X69051598Y-93178122D01*
X69051598Y-93178122D02*
X69082500Y-93133990D01*
X69082500Y-93133990D02*
X69150917Y-93083243D01*
X69150917Y-93083243D02*
X69338500Y-93050167D01*
X69338500Y-93050167D02*
X69420148Y-93074454D01*
X69420148Y-93074454D02*
X69464280Y-93105355D01*
X69464280Y-93105355D02*
X69515026Y-93173773D01*
X69515026Y-93173773D02*
X69548102Y-93361355D01*
X69548102Y-93361355D02*
X69523816Y-93443003D01*
X69523816Y-93443003D02*
X69492915Y-93487135D01*
D12*
X97011954Y-55765342D02*
X96954811Y-55822485D01*
X96954811Y-55822485D02*
X96783383Y-55879627D01*
X96783383Y-55879627D02*
X96669097Y-55879627D01*
X96669097Y-55879627D02*
X96497668Y-55822485D01*
X96497668Y-55822485D02*
X96383383Y-55708199D01*
X96383383Y-55708199D02*
X96326240Y-55593913D01*
X96326240Y-55593913D02*
X96269097Y-55365342D01*
X96269097Y-55365342D02*
X96269097Y-55193913D01*
X96269097Y-55193913D02*
X96326240Y-54965342D01*
X96326240Y-54965342D02*
X96383383Y-54851056D01*
X96383383Y-54851056D02*
X96497668Y-54736770D01*
X96497668Y-54736770D02*
X96669097Y-54679627D01*
X96669097Y-54679627D02*
X96783383Y-54679627D01*
X96783383Y-54679627D02*
X96954811Y-54736770D01*
X96954811Y-54736770D02*
X97011954Y-54793913D01*
X79673859Y-54079865D02*
X79626240Y-54127485D01*
X79626240Y-54127485D02*
X79483383Y-54175104D01*
X79483383Y-54175104D02*
X79388145Y-54175104D01*
X79388145Y-54175104D02*
X79245288Y-54127485D01*
X79245288Y-54127485D02*
X79150050Y-54032246D01*
X79150050Y-54032246D02*
X79102431Y-53937008D01*
X79102431Y-53937008D02*
X79054812Y-53746532D01*
X79054812Y-53746532D02*
X79054812Y-53603675D01*
X79054812Y-53603675D02*
X79102431Y-53413199D01*
X79102431Y-53413199D02*
X79150050Y-53317961D01*
X79150050Y-53317961D02*
X79245288Y-53222723D01*
X79245288Y-53222723D02*
X79388145Y-53175104D01*
X79388145Y-53175104D02*
X79483383Y-53175104D01*
X79483383Y-53175104D02*
X79626240Y-53222723D01*
X79626240Y-53222723D02*
X79673859Y-53270342D01*
X80054812Y-53270342D02*
X80102431Y-53222723D01*
X80102431Y-53222723D02*
X80197669Y-53175104D01*
X80197669Y-53175104D02*
X80435764Y-53175104D01*
X80435764Y-53175104D02*
X80531002Y-53222723D01*
X80531002Y-53222723D02*
X80578621Y-53270342D01*
X80578621Y-53270342D02*
X80626240Y-53365580D01*
X80626240Y-53365580D02*
X80626240Y-53460818D01*
X80626240Y-53460818D02*
X80578621Y-53603675D01*
X80578621Y-53603675D02*
X80007193Y-54175104D01*
X80007193Y-54175104D02*
X80626240Y-54175104D01*
X86408333Y-81399680D02*
X86360714Y-81447300D01*
X86360714Y-81447300D02*
X86217857Y-81494919D01*
X86217857Y-81494919D02*
X86122619Y-81494919D01*
X86122619Y-81494919D02*
X85979762Y-81447300D01*
X85979762Y-81447300D02*
X85884524Y-81352061D01*
X85884524Y-81352061D02*
X85836905Y-81256823D01*
X85836905Y-81256823D02*
X85789286Y-81066347D01*
X85789286Y-81066347D02*
X85789286Y-80923490D01*
X85789286Y-80923490D02*
X85836905Y-80733014D01*
X85836905Y-80733014D02*
X85884524Y-80637776D01*
X85884524Y-80637776D02*
X85979762Y-80542538D01*
X85979762Y-80542538D02*
X86122619Y-80494919D01*
X86122619Y-80494919D02*
X86217857Y-80494919D01*
X86217857Y-80494919D02*
X86360714Y-80542538D01*
X86360714Y-80542538D02*
X86408333Y-80590157D01*
X86741667Y-80494919D02*
X87360714Y-80494919D01*
X87360714Y-80494919D02*
X87027381Y-80875871D01*
X87027381Y-80875871D02*
X87170238Y-80875871D01*
X87170238Y-80875871D02*
X87265476Y-80923490D01*
X87265476Y-80923490D02*
X87313095Y-80971109D01*
X87313095Y-80971109D02*
X87360714Y-81066347D01*
X87360714Y-81066347D02*
X87360714Y-81304442D01*
X87360714Y-81304442D02*
X87313095Y-81399680D01*
X87313095Y-81399680D02*
X87265476Y-81447300D01*
X87265476Y-81447300D02*
X87170238Y-81494919D01*
X87170238Y-81494919D02*
X86884524Y-81494919D01*
X86884524Y-81494919D02*
X86789286Y-81447300D01*
X86789286Y-81447300D02*
X86741667Y-81399680D01*
X86408333Y-68841980D02*
X86360714Y-68889600D01*
X86360714Y-68889600D02*
X86217857Y-68937219D01*
X86217857Y-68937219D02*
X86122619Y-68937219D01*
X86122619Y-68937219D02*
X85979762Y-68889600D01*
X85979762Y-68889600D02*
X85884524Y-68794361D01*
X85884524Y-68794361D02*
X85836905Y-68699123D01*
X85836905Y-68699123D02*
X85789286Y-68508647D01*
X85789286Y-68508647D02*
X85789286Y-68365790D01*
X85789286Y-68365790D02*
X85836905Y-68175314D01*
X85836905Y-68175314D02*
X85884524Y-68080076D01*
X85884524Y-68080076D02*
X85979762Y-67984838D01*
X85979762Y-67984838D02*
X86122619Y-67937219D01*
X86122619Y-67937219D02*
X86217857Y-67937219D01*
X86217857Y-67937219D02*
X86360714Y-67984838D01*
X86360714Y-67984838D02*
X86408333Y-68032457D01*
X87313095Y-67937219D02*
X86836905Y-67937219D01*
X86836905Y-67937219D02*
X86789286Y-68413409D01*
X86789286Y-68413409D02*
X86836905Y-68365790D01*
X86836905Y-68365790D02*
X86932143Y-68318171D01*
X86932143Y-68318171D02*
X87170238Y-68318171D01*
X87170238Y-68318171D02*
X87265476Y-68365790D01*
X87265476Y-68365790D02*
X87313095Y-68413409D01*
X87313095Y-68413409D02*
X87360714Y-68508647D01*
X87360714Y-68508647D02*
X87360714Y-68746742D01*
X87360714Y-68746742D02*
X87313095Y-68841980D01*
X87313095Y-68841980D02*
X87265476Y-68889600D01*
X87265476Y-68889600D02*
X87170238Y-68937219D01*
X87170238Y-68937219D02*
X86932143Y-68937219D01*
X86932143Y-68937219D02*
X86836905Y-68889600D01*
X86836905Y-68889600D02*
X86789286Y-68841980D01*
X79673859Y-51675104D02*
X79340526Y-51198913D01*
X79102431Y-51675104D02*
X79102431Y-50675104D01*
X79102431Y-50675104D02*
X79483383Y-50675104D01*
X79483383Y-50675104D02*
X79578621Y-50722723D01*
X79578621Y-50722723D02*
X79626240Y-50770342D01*
X79626240Y-50770342D02*
X79673859Y-50865580D01*
X79673859Y-50865580D02*
X79673859Y-51008437D01*
X79673859Y-51008437D02*
X79626240Y-51103675D01*
X79626240Y-51103675D02*
X79578621Y-51151294D01*
X79578621Y-51151294D02*
X79483383Y-51198913D01*
X79483383Y-51198913D02*
X79102431Y-51198913D01*
X80531002Y-51008437D02*
X80531002Y-51675104D01*
X80292907Y-50627485D02*
X80054812Y-51341770D01*
X80054812Y-51341770D02*
X80673859Y-51341770D01*
X66382940Y-69820945D02*
X66884857Y-70747870D01*
X66884857Y-70747870D02*
X67039478Y-69705180D01*
X67955187Y-70510788D02*
X67869665Y-70574222D01*
X67869665Y-70574222D02*
X67682083Y-70607298D01*
X67682083Y-70607298D02*
X67580023Y-70576940D01*
X67580023Y-70576940D02*
X67524858Y-70538313D01*
X67524858Y-70538313D02*
X67461425Y-70452791D01*
X67461425Y-70452791D02*
X67411811Y-70171417D01*
X67411811Y-70171417D02*
X67442168Y-70069357D01*
X67442168Y-70069357D02*
X67480795Y-70014193D01*
X67480795Y-70014193D02*
X67566317Y-69950759D01*
X67566317Y-69950759D02*
X67753900Y-69917683D01*
X67753900Y-69917683D02*
X67855960Y-69948041D01*
X68799309Y-70361947D02*
X68713786Y-70425381D01*
X68713786Y-70425381D02*
X68526204Y-70458456D01*
X68526204Y-70458456D02*
X68424144Y-70428099D01*
X68424144Y-70428099D02*
X68368979Y-70389472D01*
X68368979Y-70389472D02*
X68305546Y-70303950D01*
X68305546Y-70303950D02*
X68255932Y-70022576D01*
X68255932Y-70022576D02*
X68286290Y-69920516D01*
X68286290Y-69920516D02*
X68324916Y-69865351D01*
X68324916Y-69865351D02*
X68410438Y-69801918D01*
X68410438Y-69801918D02*
X68598021Y-69768842D01*
X68598021Y-69768842D02*
X68700081Y-69799200D01*
X79673859Y-46453365D02*
X79626240Y-46500985D01*
X79626240Y-46500985D02*
X79483383Y-46548604D01*
X79483383Y-46548604D02*
X79388145Y-46548604D01*
X79388145Y-46548604D02*
X79245288Y-46500985D01*
X79245288Y-46500985D02*
X79150050Y-46405746D01*
X79150050Y-46405746D02*
X79102431Y-46310508D01*
X79102431Y-46310508D02*
X79054812Y-46120032D01*
X79054812Y-46120032D02*
X79054812Y-45977175D01*
X79054812Y-45977175D02*
X79102431Y-45786699D01*
X79102431Y-45786699D02*
X79150050Y-45691461D01*
X79150050Y-45691461D02*
X79245288Y-45596223D01*
X79245288Y-45596223D02*
X79388145Y-45548604D01*
X79388145Y-45548604D02*
X79483383Y-45548604D01*
X79483383Y-45548604D02*
X79626240Y-45596223D01*
X79626240Y-45596223D02*
X79673859Y-45643842D01*
X80578621Y-45548604D02*
X80102431Y-45548604D01*
X80102431Y-45548604D02*
X80054812Y-46024794D01*
X80054812Y-46024794D02*
X80102431Y-45977175D01*
X80102431Y-45977175D02*
X80197669Y-45929556D01*
X80197669Y-45929556D02*
X80435764Y-45929556D01*
X80435764Y-45929556D02*
X80531002Y-45977175D01*
X80531002Y-45977175D02*
X80578621Y-46024794D01*
X80578621Y-46024794D02*
X80626240Y-46120032D01*
X80626240Y-46120032D02*
X80626240Y-46358127D01*
X80626240Y-46358127D02*
X80578621Y-46453365D01*
X80578621Y-46453365D02*
X80531002Y-46500985D01*
X80531002Y-46500985D02*
X80435764Y-46548604D01*
X80435764Y-46548604D02*
X80197669Y-46548604D01*
X80197669Y-46548604D02*
X80102431Y-46500985D01*
X80102431Y-46500985D02*
X80054812Y-46453365D01*
D10*
X83984573Y-59537592D02*
X84098859Y-59575687D01*
X84098859Y-59575687D02*
X84136954Y-59613783D01*
X84136954Y-59613783D02*
X84175050Y-59689973D01*
X84175050Y-59689973D02*
X84175050Y-59804259D01*
X84175050Y-59804259D02*
X84136954Y-59880449D01*
X84136954Y-59880449D02*
X84098859Y-59918545D01*
X84098859Y-59918545D02*
X84022669Y-59956640D01*
X84022669Y-59956640D02*
X83717907Y-59956640D01*
X83717907Y-59956640D02*
X83717907Y-59156640D01*
X83717907Y-59156640D02*
X83984573Y-59156640D01*
X83984573Y-59156640D02*
X84060764Y-59194735D01*
X84060764Y-59194735D02*
X84098859Y-59232830D01*
X84098859Y-59232830D02*
X84136954Y-59309021D01*
X84136954Y-59309021D02*
X84136954Y-59385211D01*
X84136954Y-59385211D02*
X84098859Y-59461402D01*
X84098859Y-59461402D02*
X84060764Y-59499497D01*
X84060764Y-59499497D02*
X83984573Y-59537592D01*
X83984573Y-59537592D02*
X83717907Y-59537592D01*
X84479811Y-59728068D02*
X84860764Y-59728068D01*
X84403621Y-59956640D02*
X84670288Y-59156640D01*
X84670288Y-59156640D02*
X84936954Y-59956640D01*
X85165525Y-59918545D02*
X85279811Y-59956640D01*
X85279811Y-59956640D02*
X85470287Y-59956640D01*
X85470287Y-59956640D02*
X85546478Y-59918545D01*
X85546478Y-59918545D02*
X85584573Y-59880449D01*
X85584573Y-59880449D02*
X85622668Y-59804259D01*
X85622668Y-59804259D02*
X85622668Y-59728068D01*
X85622668Y-59728068D02*
X85584573Y-59651878D01*
X85584573Y-59651878D02*
X85546478Y-59613783D01*
X85546478Y-59613783D02*
X85470287Y-59575687D01*
X85470287Y-59575687D02*
X85317906Y-59537592D01*
X85317906Y-59537592D02*
X85241716Y-59499497D01*
X85241716Y-59499497D02*
X85203621Y-59461402D01*
X85203621Y-59461402D02*
X85165525Y-59385211D01*
X85165525Y-59385211D02*
X85165525Y-59309021D01*
X85165525Y-59309021D02*
X85203621Y-59232830D01*
X85203621Y-59232830D02*
X85241716Y-59194735D01*
X85241716Y-59194735D02*
X85317906Y-59156640D01*
X85317906Y-59156640D02*
X85508383Y-59156640D01*
X85508383Y-59156640D02*
X85622668Y-59194735D01*
X85851240Y-59156640D02*
X86308383Y-59156640D01*
X86079811Y-59956640D02*
X86079811Y-59156640D01*
X86536954Y-59728068D02*
X86917907Y-59728068D01*
X86460764Y-59956640D02*
X86727431Y-59156640D01*
X86727431Y-59156640D02*
X86994097Y-59956640D01*
X87717907Y-59956640D02*
X87451240Y-59575687D01*
X87260764Y-59956640D02*
X87260764Y-59156640D01*
X87260764Y-59156640D02*
X87565526Y-59156640D01*
X87565526Y-59156640D02*
X87641716Y-59194735D01*
X87641716Y-59194735D02*
X87679811Y-59232830D01*
X87679811Y-59232830D02*
X87717907Y-59309021D01*
X87717907Y-59309021D02*
X87717907Y-59423306D01*
X87717907Y-59423306D02*
X87679811Y-59499497D01*
X87679811Y-59499497D02*
X87641716Y-59537592D01*
X87641716Y-59537592D02*
X87565526Y-59575687D01*
X87565526Y-59575687D02*
X87260764Y-59575687D01*
X88060764Y-59956640D02*
X88060764Y-59156640D01*
X88060764Y-59156640D02*
X88251240Y-59156640D01*
X88251240Y-59156640D02*
X88365526Y-59194735D01*
X88365526Y-59194735D02*
X88441716Y-59270925D01*
X88441716Y-59270925D02*
X88479811Y-59347116D01*
X88479811Y-59347116D02*
X88517907Y-59499497D01*
X88517907Y-59499497D02*
X88517907Y-59613783D01*
X88517907Y-59613783D02*
X88479811Y-59766164D01*
X88479811Y-59766164D02*
X88441716Y-59842354D01*
X88441716Y-59842354D02*
X88365526Y-59918545D01*
X88365526Y-59918545D02*
X88251240Y-59956640D01*
X88251240Y-59956640D02*
X88060764Y-59956640D01*
X88860764Y-59956640D02*
X88860764Y-59156640D01*
X89317907Y-59956640D02*
X88975049Y-59499497D01*
X89317907Y-59156640D02*
X88860764Y-59613783D01*
X89927430Y-59537592D02*
X90041716Y-59575687D01*
X90041716Y-59575687D02*
X90079811Y-59613783D01*
X90079811Y-59613783D02*
X90117907Y-59689973D01*
X90117907Y-59689973D02*
X90117907Y-59804259D01*
X90117907Y-59804259D02*
X90079811Y-59880449D01*
X90079811Y-59880449D02*
X90041716Y-59918545D01*
X90041716Y-59918545D02*
X89965526Y-59956640D01*
X89965526Y-59956640D02*
X89660764Y-59956640D01*
X89660764Y-59956640D02*
X89660764Y-59156640D01*
X89660764Y-59156640D02*
X89927430Y-59156640D01*
X89927430Y-59156640D02*
X90003621Y-59194735D01*
X90003621Y-59194735D02*
X90041716Y-59232830D01*
X90041716Y-59232830D02*
X90079811Y-59309021D01*
X90079811Y-59309021D02*
X90079811Y-59385211D01*
X90079811Y-59385211D02*
X90041716Y-59461402D01*
X90041716Y-59461402D02*
X90003621Y-59499497D01*
X90003621Y-59499497D02*
X89927430Y-59537592D01*
X89927430Y-59537592D02*
X89660764Y-59537592D01*
X90460764Y-59880449D02*
X90498859Y-59918545D01*
X90498859Y-59918545D02*
X90460764Y-59956640D01*
X90460764Y-59956640D02*
X90422668Y-59918545D01*
X90422668Y-59918545D02*
X90460764Y-59880449D01*
X90460764Y-59880449D02*
X90460764Y-59956640D01*
X91298859Y-59880449D02*
X91260763Y-59918545D01*
X91260763Y-59918545D02*
X91146478Y-59956640D01*
X91146478Y-59956640D02*
X91070287Y-59956640D01*
X91070287Y-59956640D02*
X90956001Y-59918545D01*
X90956001Y-59918545D02*
X90879811Y-59842354D01*
X90879811Y-59842354D02*
X90841716Y-59766164D01*
X90841716Y-59766164D02*
X90803620Y-59613783D01*
X90803620Y-59613783D02*
X90803620Y-59499497D01*
X90803620Y-59499497D02*
X90841716Y-59347116D01*
X90841716Y-59347116D02*
X90879811Y-59270925D01*
X90879811Y-59270925D02*
X90956001Y-59194735D01*
X90956001Y-59194735D02*
X91070287Y-59156640D01*
X91070287Y-59156640D02*
X91146478Y-59156640D01*
X91146478Y-59156640D02*
X91260763Y-59194735D01*
X91260763Y-59194735D02*
X91298859Y-59232830D01*
X91794097Y-59156640D02*
X91946478Y-59156640D01*
X91946478Y-59156640D02*
X92022668Y-59194735D01*
X92022668Y-59194735D02*
X92098859Y-59270925D01*
X92098859Y-59270925D02*
X92136954Y-59423306D01*
X92136954Y-59423306D02*
X92136954Y-59689973D01*
X92136954Y-59689973D02*
X92098859Y-59842354D01*
X92098859Y-59842354D02*
X92022668Y-59918545D01*
X92022668Y-59918545D02*
X91946478Y-59956640D01*
X91946478Y-59956640D02*
X91794097Y-59956640D01*
X91794097Y-59956640D02*
X91717906Y-59918545D01*
X91717906Y-59918545D02*
X91641716Y-59842354D01*
X91641716Y-59842354D02*
X91603620Y-59689973D01*
X91603620Y-59689973D02*
X91603620Y-59423306D01*
X91603620Y-59423306D02*
X91641716Y-59270925D01*
X91641716Y-59270925D02*
X91717906Y-59194735D01*
X91717906Y-59194735D02*
X91794097Y-59156640D01*
X92479811Y-59956640D02*
X92479811Y-59156640D01*
X92479811Y-59156640D02*
X92746477Y-59728068D01*
X92746477Y-59728068D02*
X93013144Y-59156640D01*
X93013144Y-59156640D02*
X93013144Y-59956640D01*
D12*
X67504890Y-81201451D02*
X67466263Y-81256616D01*
X67466263Y-81256616D02*
X67333845Y-81328318D01*
X67333845Y-81328318D02*
X67240054Y-81344856D01*
X67240054Y-81344856D02*
X67091098Y-81322768D01*
X67091098Y-81322768D02*
X66980769Y-81245514D01*
X66980769Y-81245514D02*
X66917335Y-81159992D01*
X66917335Y-81159992D02*
X66837364Y-80980679D01*
X66837364Y-80980679D02*
X66812557Y-80839992D01*
X66812557Y-80839992D02*
X66826377Y-80644140D01*
X66826377Y-80644140D02*
X66856734Y-80542080D01*
X66856734Y-80542080D02*
X66933988Y-80431751D01*
X66933988Y-80431751D02*
X67066406Y-80360049D01*
X67066406Y-80360049D02*
X67160197Y-80343511D01*
X67160197Y-80343511D02*
X67309153Y-80365599D01*
X67309153Y-80365599D02*
X67364317Y-80404226D01*
D10*
X91729762Y-81998855D02*
X91463095Y-81617902D01*
X91272619Y-81998855D02*
X91272619Y-81198855D01*
X91272619Y-81198855D02*
X91577381Y-81198855D01*
X91577381Y-81198855D02*
X91653571Y-81236950D01*
X91653571Y-81236950D02*
X91691666Y-81275045D01*
X91691666Y-81275045D02*
X91729762Y-81351236D01*
X91729762Y-81351236D02*
X91729762Y-81465521D01*
X91729762Y-81465521D02*
X91691666Y-81541712D01*
X91691666Y-81541712D02*
X91653571Y-81579807D01*
X91653571Y-81579807D02*
X91577381Y-81617902D01*
X91577381Y-81617902D02*
X91272619Y-81617902D01*
X92072619Y-81579807D02*
X92339285Y-81579807D01*
X92453571Y-81998855D02*
X92072619Y-81998855D01*
X92072619Y-81998855D02*
X92072619Y-81198855D01*
X92072619Y-81198855D02*
X92453571Y-81198855D01*
X92682143Y-81198855D02*
X92948810Y-81998855D01*
X92948810Y-81998855D02*
X93215476Y-81198855D01*
X94053571Y-81275045D02*
X94091667Y-81236950D01*
X94091667Y-81236950D02*
X94167857Y-81198855D01*
X94167857Y-81198855D02*
X94358333Y-81198855D01*
X94358333Y-81198855D02*
X94434524Y-81236950D01*
X94434524Y-81236950D02*
X94472619Y-81275045D01*
X94472619Y-81275045D02*
X94510714Y-81351236D01*
X94510714Y-81351236D02*
X94510714Y-81427426D01*
X94510714Y-81427426D02*
X94472619Y-81541712D01*
X94472619Y-81541712D02*
X94015476Y-81998855D01*
X94015476Y-81998855D02*
X94510714Y-81998855D01*
X94853572Y-81922664D02*
X94891667Y-81960760D01*
X94891667Y-81960760D02*
X94853572Y-81998855D01*
X94853572Y-81998855D02*
X94815476Y-81960760D01*
X94815476Y-81960760D02*
X94853572Y-81922664D01*
X94853572Y-81922664D02*
X94853572Y-81998855D01*
X95386905Y-81198855D02*
X95463095Y-81198855D01*
X95463095Y-81198855D02*
X95539286Y-81236950D01*
X95539286Y-81236950D02*
X95577381Y-81275045D01*
X95577381Y-81275045D02*
X95615476Y-81351236D01*
X95615476Y-81351236D02*
X95653571Y-81503617D01*
X95653571Y-81503617D02*
X95653571Y-81694093D01*
X95653571Y-81694093D02*
X95615476Y-81846474D01*
X95615476Y-81846474D02*
X95577381Y-81922664D01*
X95577381Y-81922664D02*
X95539286Y-81960760D01*
X95539286Y-81960760D02*
X95463095Y-81998855D01*
X95463095Y-81998855D02*
X95386905Y-81998855D01*
X95386905Y-81998855D02*
X95310714Y-81960760D01*
X95310714Y-81960760D02*
X95272619Y-81922664D01*
X95272619Y-81922664D02*
X95234524Y-81846474D01*
X95234524Y-81846474D02*
X95196428Y-81694093D01*
X95196428Y-81694093D02*
X95196428Y-81503617D01*
X95196428Y-81503617D02*
X95234524Y-81351236D01*
X95234524Y-81351236D02*
X95272619Y-81275045D01*
X95272619Y-81275045D02*
X95310714Y-81236950D01*
X95310714Y-81236950D02*
X95386905Y-81198855D01*
X96415476Y-81998855D02*
X95958333Y-81998855D01*
X96186905Y-81998855D02*
X96186905Y-81198855D01*
X96186905Y-81198855D02*
X96110714Y-81313140D01*
X96110714Y-81313140D02*
X96034524Y-81389331D01*
X96034524Y-81389331D02*
X95958333Y-81427426D01*
D13*
X76668363Y-57968397D02*
X75954077Y-57968397D01*
X75954077Y-57968397D02*
X75954077Y-56468397D01*
X77168363Y-57182683D02*
X77668363Y-57182683D01*
X77882649Y-57968397D02*
X77168363Y-57968397D01*
X77168363Y-57968397D02*
X77168363Y-56468397D01*
X77168363Y-56468397D02*
X77882649Y-56468397D01*
X79025506Y-57182683D02*
X78525506Y-57182683D01*
X78525506Y-57968397D02*
X78525506Y-56468397D01*
X78525506Y-56468397D02*
X79239792Y-56468397D01*
X79596935Y-56468397D02*
X80454078Y-56468397D01*
X80025506Y-57968397D02*
X80025506Y-56468397D01*
D12*
X86408333Y-78959580D02*
X86360714Y-79007200D01*
X86360714Y-79007200D02*
X86217857Y-79054819D01*
X86217857Y-79054819D02*
X86122619Y-79054819D01*
X86122619Y-79054819D02*
X85979762Y-79007200D01*
X85979762Y-79007200D02*
X85884524Y-78911961D01*
X85884524Y-78911961D02*
X85836905Y-78816723D01*
X85836905Y-78816723D02*
X85789286Y-78626247D01*
X85789286Y-78626247D02*
X85789286Y-78483390D01*
X85789286Y-78483390D02*
X85836905Y-78292914D01*
X85836905Y-78292914D02*
X85884524Y-78197676D01*
X85884524Y-78197676D02*
X85979762Y-78102438D01*
X85979762Y-78102438D02*
X86122619Y-78054819D01*
X86122619Y-78054819D02*
X86217857Y-78054819D01*
X86217857Y-78054819D02*
X86360714Y-78102438D01*
X86360714Y-78102438D02*
X86408333Y-78150057D01*
X86789286Y-78150057D02*
X86836905Y-78102438D01*
X86836905Y-78102438D02*
X86932143Y-78054819D01*
X86932143Y-78054819D02*
X87170238Y-78054819D01*
X87170238Y-78054819D02*
X87265476Y-78102438D01*
X87265476Y-78102438D02*
X87313095Y-78150057D01*
X87313095Y-78150057D02*
X87360714Y-78245295D01*
X87360714Y-78245295D02*
X87360714Y-78340533D01*
X87360714Y-78340533D02*
X87313095Y-78483390D01*
X87313095Y-78483390D02*
X86741667Y-79054819D01*
X86741667Y-79054819D02*
X87360714Y-79054819D01*
X102311954Y-55879627D02*
X101911954Y-55308199D01*
X101626240Y-55879627D02*
X101626240Y-54679627D01*
X101626240Y-54679627D02*
X102083383Y-54679627D01*
X102083383Y-54679627D02*
X102197668Y-54736770D01*
X102197668Y-54736770D02*
X102254811Y-54793913D01*
X102254811Y-54793913D02*
X102311954Y-54908199D01*
X102311954Y-54908199D02*
X102311954Y-55079627D01*
X102311954Y-55079627D02*
X102254811Y-55193913D01*
X102254811Y-55193913D02*
X102197668Y-55251056D01*
X102197668Y-55251056D02*
X102083383Y-55308199D01*
X102083383Y-55308199D02*
X101626240Y-55308199D01*
D10*
X89162664Y-70764285D02*
X89200760Y-70802381D01*
X89200760Y-70802381D02*
X89238855Y-70916666D01*
X89238855Y-70916666D02*
X89238855Y-70992857D01*
X89238855Y-70992857D02*
X89200760Y-71107143D01*
X89200760Y-71107143D02*
X89124569Y-71183333D01*
X89124569Y-71183333D02*
X89048379Y-71221428D01*
X89048379Y-71221428D02*
X88895998Y-71259524D01*
X88895998Y-71259524D02*
X88781712Y-71259524D01*
X88781712Y-71259524D02*
X88629331Y-71221428D01*
X88629331Y-71221428D02*
X88553140Y-71183333D01*
X88553140Y-71183333D02*
X88476950Y-71107143D01*
X88476950Y-71107143D02*
X88438855Y-70992857D01*
X88438855Y-70992857D02*
X88438855Y-70916666D01*
X88438855Y-70916666D02*
X88476950Y-70802381D01*
X88476950Y-70802381D02*
X88515045Y-70764285D01*
X88438855Y-70040476D02*
X88438855Y-70421428D01*
X88438855Y-70421428D02*
X88819807Y-70459524D01*
X88819807Y-70459524D02*
X88781712Y-70421428D01*
X88781712Y-70421428D02*
X88743617Y-70345238D01*
X88743617Y-70345238D02*
X88743617Y-70154762D01*
X88743617Y-70154762D02*
X88781712Y-70078571D01*
X88781712Y-70078571D02*
X88819807Y-70040476D01*
X88819807Y-70040476D02*
X88895998Y-70002381D01*
X88895998Y-70002381D02*
X89086474Y-70002381D01*
X89086474Y-70002381D02*
X89162664Y-70040476D01*
X89162664Y-70040476D02*
X89200760Y-70078571D01*
X89200760Y-70078571D02*
X89238855Y-70154762D01*
X89238855Y-70154762D02*
X89238855Y-70345238D01*
X89238855Y-70345238D02*
X89200760Y-70421428D01*
X89200760Y-70421428D02*
X89162664Y-70459524D01*
X89238855Y-69202380D02*
X88857902Y-69469047D01*
X89238855Y-69659523D02*
X88438855Y-69659523D01*
X88438855Y-69659523D02*
X88438855Y-69354761D01*
X88438855Y-69354761D02*
X88476950Y-69278571D01*
X88476950Y-69278571D02*
X88515045Y-69240476D01*
X88515045Y-69240476D02*
X88591236Y-69202380D01*
X88591236Y-69202380D02*
X88705521Y-69202380D01*
X88705521Y-69202380D02*
X88781712Y-69240476D01*
X88781712Y-69240476D02*
X88819807Y-69278571D01*
X88819807Y-69278571D02*
X88857902Y-69354761D01*
X88857902Y-69354761D02*
X88857902Y-69659523D01*
X88438855Y-68478571D02*
X88438855Y-68859523D01*
X88438855Y-68859523D02*
X88819807Y-68897619D01*
X88819807Y-68897619D02*
X88781712Y-68859523D01*
X88781712Y-68859523D02*
X88743617Y-68783333D01*
X88743617Y-68783333D02*
X88743617Y-68592857D01*
X88743617Y-68592857D02*
X88781712Y-68516666D01*
X88781712Y-68516666D02*
X88819807Y-68478571D01*
X88819807Y-68478571D02*
X88895998Y-68440476D01*
X88895998Y-68440476D02*
X89086474Y-68440476D01*
X89086474Y-68440476D02*
X89162664Y-68478571D01*
X89162664Y-68478571D02*
X89200760Y-68516666D01*
X89200760Y-68516666D02*
X89238855Y-68592857D01*
X89238855Y-68592857D02*
X89238855Y-68783333D01*
X89238855Y-68783333D02*
X89200760Y-68859523D01*
X89200760Y-68859523D02*
X89162664Y-68897619D01*
D12*
X73689142Y-84469006D02*
X73126395Y-84568234D01*
X73126395Y-84568234D02*
X72918017Y-83386464D01*
X73973915Y-83780525D02*
X74367838Y-83711065D01*
X74645813Y-84300319D02*
X74083066Y-84399547D01*
X74083066Y-84399547D02*
X73874688Y-83217777D01*
X73874688Y-83217777D02*
X74437435Y-83118550D01*
X75437058Y-83522533D02*
X75043135Y-83591992D01*
X75152285Y-84211014D02*
X74943907Y-83029245D01*
X74943907Y-83029245D02*
X75506655Y-82930018D01*
X75788028Y-82880404D02*
X76463325Y-82761331D01*
X76334054Y-84002637D02*
X76125676Y-82820867D01*
X81824819Y-76185713D02*
X81824819Y-75566666D01*
X81824819Y-75566666D02*
X82205771Y-75899999D01*
X82205771Y-75899999D02*
X82205771Y-75757142D01*
X82205771Y-75757142D02*
X82253390Y-75661904D01*
X82253390Y-75661904D02*
X82301009Y-75614285D01*
X82301009Y-75614285D02*
X82396247Y-75566666D01*
X82396247Y-75566666D02*
X82634342Y-75566666D01*
X82634342Y-75566666D02*
X82729580Y-75614285D01*
X82729580Y-75614285D02*
X82777200Y-75661904D01*
X82777200Y-75661904D02*
X82824819Y-75757142D01*
X82824819Y-75757142D02*
X82824819Y-76042856D01*
X82824819Y-76042856D02*
X82777200Y-76138094D01*
X82777200Y-76138094D02*
X82729580Y-76185713D01*
X82824819Y-73804761D02*
X82348628Y-74138094D01*
X82824819Y-74376189D02*
X81824819Y-74376189D01*
X81824819Y-74376189D02*
X81824819Y-73995237D01*
X81824819Y-73995237D02*
X81872438Y-73899999D01*
X81872438Y-73899999D02*
X81920057Y-73852380D01*
X81920057Y-73852380D02*
X82015295Y-73804761D01*
X82015295Y-73804761D02*
X82158152Y-73804761D01*
X82158152Y-73804761D02*
X82253390Y-73852380D01*
X82253390Y-73852380D02*
X82301009Y-73899999D01*
X82301009Y-73899999D02*
X82348628Y-73995237D01*
X82348628Y-73995237D02*
X82348628Y-74376189D01*
X81824819Y-73185713D02*
X81824819Y-72995237D01*
X81824819Y-72995237D02*
X81872438Y-72899999D01*
X81872438Y-72899999D02*
X81967676Y-72804761D01*
X81967676Y-72804761D02*
X82158152Y-72757142D01*
X82158152Y-72757142D02*
X82491485Y-72757142D01*
X82491485Y-72757142D02*
X82681961Y-72804761D01*
X82681961Y-72804761D02*
X82777200Y-72899999D01*
X82777200Y-72899999D02*
X82824819Y-72995237D01*
X82824819Y-72995237D02*
X82824819Y-73185713D01*
X82824819Y-73185713D02*
X82777200Y-73280951D01*
X82777200Y-73280951D02*
X82681961Y-73376189D01*
X82681961Y-73376189D02*
X82491485Y-73423808D01*
X82491485Y-73423808D02*
X82158152Y-73423808D01*
X82158152Y-73423808D02*
X81967676Y-73376189D01*
X81967676Y-73376189D02*
X81872438Y-73280951D01*
X81872438Y-73280951D02*
X81824819Y-73185713D01*
X81824819Y-72423808D02*
X82824819Y-72185713D01*
X82824819Y-72185713D02*
X82110533Y-71995237D01*
X82110533Y-71995237D02*
X82824819Y-71804761D01*
X82824819Y-71804761D02*
X81824819Y-71566666D01*
X82777200Y-71233332D02*
X82824819Y-71090475D01*
X82824819Y-71090475D02*
X82824819Y-70852380D01*
X82824819Y-70852380D02*
X82777200Y-70757142D01*
X82777200Y-70757142D02*
X82729580Y-70709523D01*
X82729580Y-70709523D02*
X82634342Y-70661904D01*
X82634342Y-70661904D02*
X82539104Y-70661904D01*
X82539104Y-70661904D02*
X82443866Y-70709523D01*
X82443866Y-70709523D02*
X82396247Y-70757142D01*
X82396247Y-70757142D02*
X82348628Y-70852380D01*
X82348628Y-70852380D02*
X82301009Y-71042856D01*
X82301009Y-71042856D02*
X82253390Y-71138094D01*
X82253390Y-71138094D02*
X82205771Y-71185713D01*
X82205771Y-71185713D02*
X82110533Y-71233332D01*
X82110533Y-71233332D02*
X82015295Y-71233332D01*
X82015295Y-71233332D02*
X81920057Y-71185713D01*
X81920057Y-71185713D02*
X81872438Y-71138094D01*
X81872438Y-71138094D02*
X81824819Y-71042856D01*
X81824819Y-71042856D02*
X81824819Y-70804761D01*
X81824819Y-70804761D02*
X81872438Y-70661904D01*
D10*
X61807584Y-51443228D02*
X61851716Y-51474129D01*
X61851716Y-51474129D02*
X61909078Y-51580064D01*
X61909078Y-51580064D02*
X61922308Y-51655097D01*
X61922308Y-51655097D02*
X61904637Y-51774261D01*
X61904637Y-51774261D02*
X61842834Y-51862524D01*
X61842834Y-51862524D02*
X61774417Y-51913271D01*
X61774417Y-51913271D02*
X61630966Y-51977248D01*
X61630966Y-51977248D02*
X61518416Y-51997094D01*
X61518416Y-51997094D02*
X61361735Y-51986038D01*
X61361735Y-51986038D02*
X61280087Y-51961752D01*
X61280087Y-51961752D02*
X61191824Y-51899949D01*
X61191824Y-51899949D02*
X61134462Y-51794015D01*
X61134462Y-51794015D02*
X61121232Y-51718982D01*
X61121232Y-51718982D02*
X61138903Y-51599817D01*
X61138903Y-51599817D02*
X61169804Y-51555686D01*
X61116882Y-51255554D02*
X61072751Y-51224653D01*
X61072751Y-51224653D02*
X61022004Y-51156235D01*
X61022004Y-51156235D02*
X60988928Y-50968652D01*
X60988928Y-50968652D02*
X61013214Y-50887004D01*
X61013214Y-50887004D02*
X61044116Y-50842873D01*
X61044116Y-50842873D02*
X61112533Y-50792126D01*
X61112533Y-50792126D02*
X61187566Y-50778895D01*
X61187566Y-50778895D02*
X61306731Y-50796566D01*
X61306731Y-50796566D02*
X61836311Y-51167382D01*
X61836311Y-51167382D02*
X61750314Y-50679668D01*
X61611395Y-49891821D02*
X61282536Y-50220589D01*
X61690777Y-50342019D02*
X60902931Y-50480938D01*
X60902931Y-50480938D02*
X60850010Y-50180806D01*
X60850010Y-50180806D02*
X60874296Y-50099158D01*
X60874296Y-50099158D02*
X60905197Y-50055026D01*
X60905197Y-50055026D02*
X60973615Y-50004279D01*
X60973615Y-50004279D02*
X61086164Y-49984434D01*
X61086164Y-49984434D02*
X61167812Y-50008720D01*
X61167812Y-50008720D02*
X61211944Y-50039621D01*
X61211944Y-50039621D02*
X61262691Y-50108039D01*
X61262691Y-50108039D02*
X61315612Y-50408171D01*
X60967091Y-49309137D02*
X61492322Y-49216525D01*
X60700035Y-49549641D02*
X61295858Y-49637996D01*
X61295858Y-49637996D02*
X61209861Y-49150281D01*
D12*
X81551622Y-79472477D02*
X81140664Y-79061403D01*
X80988875Y-79571704D02*
X80815227Y-78586896D01*
X80815227Y-78586896D02*
X81190392Y-78520745D01*
X81190392Y-78520745D02*
X81292452Y-78551102D01*
X81292452Y-78551102D02*
X81347617Y-78589729D01*
X81347617Y-78589729D02*
X81411050Y-78675251D01*
X81411050Y-78675251D02*
X81435857Y-78815938D01*
X81435857Y-78815938D02*
X81405499Y-78917998D01*
X81405499Y-78917998D02*
X81366873Y-78973163D01*
X81366873Y-78973163D02*
X81281350Y-79036596D01*
X81281350Y-79036596D02*
X80906186Y-79102748D01*
D10*
X68367058Y-73550443D02*
X68411190Y-73581344D01*
X68411190Y-73581344D02*
X68468552Y-73687279D01*
X68468552Y-73687279D02*
X68481782Y-73762312D01*
X68481782Y-73762312D02*
X68464111Y-73881476D01*
X68464111Y-73881476D02*
X68402308Y-73969739D01*
X68402308Y-73969739D02*
X68333891Y-74020486D01*
X68333891Y-74020486D02*
X68190440Y-74084463D01*
X68190440Y-74084463D02*
X68077890Y-74104309D01*
X68077890Y-74104309D02*
X67921209Y-74093253D01*
X67921209Y-74093253D02*
X67839561Y-74068967D01*
X67839561Y-74068967D02*
X67751298Y-74007164D01*
X67751298Y-74007164D02*
X67693936Y-73901230D01*
X67693936Y-73901230D02*
X67680706Y-73826197D01*
X67680706Y-73826197D02*
X67698377Y-73707032D01*
X67698377Y-73707032D02*
X67729278Y-73662901D01*
X67676356Y-73362769D02*
X67632225Y-73331868D01*
X67632225Y-73331868D02*
X67581478Y-73263450D01*
X67581478Y-73263450D02*
X67548402Y-73075867D01*
X67548402Y-73075867D02*
X67572688Y-72994219D01*
X67572688Y-72994219D02*
X67603590Y-72950088D01*
X67603590Y-72950088D02*
X67672007Y-72899341D01*
X67672007Y-72899341D02*
X67747040Y-72886110D01*
X67747040Y-72886110D02*
X67866205Y-72903781D01*
X67866205Y-72903781D02*
X68395785Y-73274597D01*
X68395785Y-73274597D02*
X68309788Y-72786883D01*
X68170869Y-71999036D02*
X67842010Y-72327804D01*
X68250251Y-72449234D02*
X67462405Y-72588153D01*
X67462405Y-72588153D02*
X67409484Y-72288021D01*
X67409484Y-72288021D02*
X67433770Y-72206373D01*
X67433770Y-72206373D02*
X67464671Y-72162241D01*
X67464671Y-72162241D02*
X67533089Y-72111494D01*
X67533089Y-72111494D02*
X67645638Y-72091649D01*
X67645638Y-72091649D02*
X67727286Y-72115935D01*
X67727286Y-72115935D02*
X67771418Y-72146836D01*
X67771418Y-72146836D02*
X67822165Y-72215254D01*
X67822165Y-72215254D02*
X67875086Y-72515386D01*
X67257335Y-71425142D02*
X67323486Y-71800307D01*
X67323486Y-71800307D02*
X67705266Y-71771671D01*
X67705266Y-71771671D02*
X67661135Y-71740770D01*
X67661135Y-71740770D02*
X67610388Y-71672352D01*
X67610388Y-71672352D02*
X67577312Y-71484770D01*
X67577312Y-71484770D02*
X67601598Y-71403122D01*
X67601598Y-71403122D02*
X67632500Y-71358990D01*
X67632500Y-71358990D02*
X67700917Y-71308243D01*
X67700917Y-71308243D02*
X67888500Y-71275167D01*
X67888500Y-71275167D02*
X67970148Y-71299454D01*
X67970148Y-71299454D02*
X68014280Y-71330355D01*
X68014280Y-71330355D02*
X68065026Y-71398773D01*
X68065026Y-71398773D02*
X68098102Y-71586355D01*
X68098102Y-71586355D02*
X68073816Y-71668003D01*
X68073816Y-71668003D02*
X68042915Y-71712135D01*
D12*
X100488145Y-59422604D02*
X100488145Y-58422604D01*
X100488145Y-58422604D02*
X100726240Y-58422604D01*
X100726240Y-58422604D02*
X100869097Y-58470223D01*
X100869097Y-58470223D02*
X100964335Y-58565461D01*
X100964335Y-58565461D02*
X101011954Y-58660699D01*
X101011954Y-58660699D02*
X101059573Y-58851175D01*
X101059573Y-58851175D02*
X101059573Y-58994032D01*
X101059573Y-58994032D02*
X101011954Y-59184508D01*
X101011954Y-59184508D02*
X100964335Y-59279746D01*
X100964335Y-59279746D02*
X100869097Y-59374985D01*
X100869097Y-59374985D02*
X100726240Y-59422604D01*
X100726240Y-59422604D02*
X100488145Y-59422604D01*
X101488145Y-59422604D02*
X101488145Y-58755937D01*
X101488145Y-58422604D02*
X101440526Y-58470223D01*
X101440526Y-58470223D02*
X101488145Y-58517842D01*
X101488145Y-58517842D02*
X101535764Y-58470223D01*
X101535764Y-58470223D02*
X101488145Y-58422604D01*
X101488145Y-58422604D02*
X101488145Y-58517842D01*
X101964335Y-58755937D02*
X101964335Y-59422604D01*
X101964335Y-58851175D02*
X102011954Y-58803556D01*
X102011954Y-58803556D02*
X102107192Y-58755937D01*
X102107192Y-58755937D02*
X102250049Y-58755937D01*
X102250049Y-58755937D02*
X102345287Y-58803556D01*
X102345287Y-58803556D02*
X102392906Y-58898794D01*
X102392906Y-58898794D02*
X102392906Y-59422604D01*
X79673859Y-48979865D02*
X79626240Y-49027485D01*
X79626240Y-49027485D02*
X79483383Y-49075104D01*
X79483383Y-49075104D02*
X79388145Y-49075104D01*
X79388145Y-49075104D02*
X79245288Y-49027485D01*
X79245288Y-49027485D02*
X79150050Y-48932246D01*
X79150050Y-48932246D02*
X79102431Y-48837008D01*
X79102431Y-48837008D02*
X79054812Y-48646532D01*
X79054812Y-48646532D02*
X79054812Y-48503675D01*
X79054812Y-48503675D02*
X79102431Y-48313199D01*
X79102431Y-48313199D02*
X79150050Y-48217961D01*
X79150050Y-48217961D02*
X79245288Y-48122723D01*
X79245288Y-48122723D02*
X79388145Y-48075104D01*
X79388145Y-48075104D02*
X79483383Y-48075104D01*
X79483383Y-48075104D02*
X79626240Y-48122723D01*
X79626240Y-48122723D02*
X79673859Y-48170342D01*
X80531002Y-48408437D02*
X80531002Y-49075104D01*
X80292907Y-48027485D02*
X80054812Y-48741770D01*
X80054812Y-48741770D02*
X80673859Y-48741770D01*
X86408333Y-76668919D02*
X86075000Y-76192728D01*
X85836905Y-76668919D02*
X85836905Y-75668919D01*
X85836905Y-75668919D02*
X86217857Y-75668919D01*
X86217857Y-75668919D02*
X86313095Y-75716538D01*
X86313095Y-75716538D02*
X86360714Y-75764157D01*
X86360714Y-75764157D02*
X86408333Y-75859395D01*
X86408333Y-75859395D02*
X86408333Y-76002252D01*
X86408333Y-76002252D02*
X86360714Y-76097490D01*
X86360714Y-76097490D02*
X86313095Y-76145109D01*
X86313095Y-76145109D02*
X86217857Y-76192728D01*
X86217857Y-76192728D02*
X85836905Y-76192728D01*
X87313095Y-75668919D02*
X86836905Y-75668919D01*
X86836905Y-75668919D02*
X86789286Y-76145109D01*
X86789286Y-76145109D02*
X86836905Y-76097490D01*
X86836905Y-76097490D02*
X86932143Y-76049871D01*
X86932143Y-76049871D02*
X87170238Y-76049871D01*
X87170238Y-76049871D02*
X87265476Y-76097490D01*
X87265476Y-76097490D02*
X87313095Y-76145109D01*
X87313095Y-76145109D02*
X87360714Y-76240347D01*
X87360714Y-76240347D02*
X87360714Y-76478442D01*
X87360714Y-76478442D02*
X87313095Y-76573680D01*
X87313095Y-76573680D02*
X87265476Y-76621300D01*
X87265476Y-76621300D02*
X87170238Y-76668919D01*
X87170238Y-76668919D02*
X86932143Y-76668919D01*
X86932143Y-76668919D02*
X86836905Y-76621300D01*
X86836905Y-76621300D02*
X86789286Y-76573680D01*
X86408333Y-73982880D02*
X86360714Y-74030500D01*
X86360714Y-74030500D02*
X86217857Y-74078119D01*
X86217857Y-74078119D02*
X86122619Y-74078119D01*
X86122619Y-74078119D02*
X85979762Y-74030500D01*
X85979762Y-74030500D02*
X85884524Y-73935261D01*
X85884524Y-73935261D02*
X85836905Y-73840023D01*
X85836905Y-73840023D02*
X85789286Y-73649547D01*
X85789286Y-73649547D02*
X85789286Y-73506690D01*
X85789286Y-73506690D02*
X85836905Y-73316214D01*
X85836905Y-73316214D02*
X85884524Y-73220976D01*
X85884524Y-73220976D02*
X85979762Y-73125738D01*
X85979762Y-73125738D02*
X86122619Y-73078119D01*
X86122619Y-73078119D02*
X86217857Y-73078119D01*
X86217857Y-73078119D02*
X86360714Y-73125738D01*
X86360714Y-73125738D02*
X86408333Y-73173357D01*
X87265476Y-73411452D02*
X87265476Y-74078119D01*
X87027381Y-73030500D02*
X86789286Y-73744785D01*
X86789286Y-73744785D02*
X87408333Y-73744785D01*
D10*
X82678190Y-48732070D02*
X82716286Y-48770166D01*
X82716286Y-48770166D02*
X82754381Y-48884451D01*
X82754381Y-48884451D02*
X82754381Y-48960642D01*
X82754381Y-48960642D02*
X82716286Y-49074928D01*
X82716286Y-49074928D02*
X82640095Y-49151118D01*
X82640095Y-49151118D02*
X82563905Y-49189213D01*
X82563905Y-49189213D02*
X82411524Y-49227309D01*
X82411524Y-49227309D02*
X82297238Y-49227309D01*
X82297238Y-49227309D02*
X82144857Y-49189213D01*
X82144857Y-49189213D02*
X82068666Y-49151118D01*
X82068666Y-49151118D02*
X81992476Y-49074928D01*
X81992476Y-49074928D02*
X81954381Y-48960642D01*
X81954381Y-48960642D02*
X81954381Y-48884451D01*
X81954381Y-48884451D02*
X81992476Y-48770166D01*
X81992476Y-48770166D02*
X82030571Y-48732070D01*
X81954381Y-48008261D02*
X81954381Y-48389213D01*
X81954381Y-48389213D02*
X82335333Y-48427309D01*
X82335333Y-48427309D02*
X82297238Y-48389213D01*
X82297238Y-48389213D02*
X82259143Y-48313023D01*
X82259143Y-48313023D02*
X82259143Y-48122547D01*
X82259143Y-48122547D02*
X82297238Y-48046356D01*
X82297238Y-48046356D02*
X82335333Y-48008261D01*
X82335333Y-48008261D02*
X82411524Y-47970166D01*
X82411524Y-47970166D02*
X82602000Y-47970166D01*
X82602000Y-47970166D02*
X82678190Y-48008261D01*
X82678190Y-48008261D02*
X82716286Y-48046356D01*
X82716286Y-48046356D02*
X82754381Y-48122547D01*
X82754381Y-48122547D02*
X82754381Y-48313023D01*
X82754381Y-48313023D02*
X82716286Y-48389213D01*
X82716286Y-48389213D02*
X82678190Y-48427309D01*
X82754381Y-47170165D02*
X82373428Y-47436832D01*
X82754381Y-47627308D02*
X81954381Y-47627308D01*
X81954381Y-47627308D02*
X81954381Y-47322546D01*
X81954381Y-47322546D02*
X81992476Y-47246356D01*
X81992476Y-47246356D02*
X82030571Y-47208261D01*
X82030571Y-47208261D02*
X82106762Y-47170165D01*
X82106762Y-47170165D02*
X82221047Y-47170165D01*
X82221047Y-47170165D02*
X82297238Y-47208261D01*
X82297238Y-47208261D02*
X82335333Y-47246356D01*
X82335333Y-47246356D02*
X82373428Y-47322546D01*
X82373428Y-47322546D02*
X82373428Y-47627308D01*
X82221047Y-46484451D02*
X82754381Y-46484451D01*
X81916286Y-46674927D02*
X82487714Y-46865404D01*
X82487714Y-46865404D02*
X82487714Y-46370165D01*
D12*
X86408333Y-71491980D02*
X86360714Y-71539600D01*
X86360714Y-71539600D02*
X86217857Y-71587219D01*
X86217857Y-71587219D02*
X86122619Y-71587219D01*
X86122619Y-71587219D02*
X85979762Y-71539600D01*
X85979762Y-71539600D02*
X85884524Y-71444361D01*
X85884524Y-71444361D02*
X85836905Y-71349123D01*
X85836905Y-71349123D02*
X85789286Y-71158647D01*
X85789286Y-71158647D02*
X85789286Y-71015790D01*
X85789286Y-71015790D02*
X85836905Y-70825314D01*
X85836905Y-70825314D02*
X85884524Y-70730076D01*
X85884524Y-70730076D02*
X85979762Y-70634838D01*
X85979762Y-70634838D02*
X86122619Y-70587219D01*
X86122619Y-70587219D02*
X86217857Y-70587219D01*
X86217857Y-70587219D02*
X86360714Y-70634838D01*
X86360714Y-70634838D02*
X86408333Y-70682457D01*
X87265476Y-70587219D02*
X87075000Y-70587219D01*
X87075000Y-70587219D02*
X86979762Y-70634838D01*
X86979762Y-70634838D02*
X86932143Y-70682457D01*
X86932143Y-70682457D02*
X86836905Y-70825314D01*
X86836905Y-70825314D02*
X86789286Y-71015790D01*
X86789286Y-71015790D02*
X86789286Y-71396742D01*
X86789286Y-71396742D02*
X86836905Y-71491980D01*
X86836905Y-71491980D02*
X86884524Y-71539600D01*
X86884524Y-71539600D02*
X86979762Y-71587219D01*
X86979762Y-71587219D02*
X87170238Y-71587219D01*
X87170238Y-71587219D02*
X87265476Y-71539600D01*
X87265476Y-71539600D02*
X87313095Y-71491980D01*
X87313095Y-71491980D02*
X87360714Y-71396742D01*
X87360714Y-71396742D02*
X87360714Y-71158647D01*
X87360714Y-71158647D02*
X87313095Y-71063409D01*
X87313095Y-71063409D02*
X87265476Y-71015790D01*
X87265476Y-71015790D02*
X87170238Y-70968171D01*
X87170238Y-70968171D02*
X86979762Y-70968171D01*
X86979762Y-70968171D02*
X86884524Y-71015790D01*
X86884524Y-71015790D02*
X86836905Y-71063409D01*
X86836905Y-71063409D02*
X86789286Y-71158647D01*
X80725326Y-46542185D02*
X80725326Y-45542185D01*
X80725326Y-59542185D02*
X80725326Y-58542185D01*
X80725326Y-59542185D02*
X81725326Y-59542185D01*
X81725326Y-45542185D02*
X80725326Y-45542185D01*
X93725326Y-59542185D02*
X94725326Y-59542185D01*
X94725326Y-45542185D02*
X93725326Y-45542185D01*
X94725326Y-45542185D02*
X94725326Y-46542185D01*
X94725326Y-58542185D02*
X94725326Y-59542185D01*
D10*
X74456526Y-50961785D02*
X72424526Y-50961785D01*
X72424526Y-50961785D02*
X72424526Y-52358785D01*
X74456526Y-52358785D02*
X74456526Y-50961785D01*
D12*
X74124526Y-53261785D02*
X72724526Y-53261785D01*
X73424526Y-53261785D02*
X74124526Y-54161785D01*
X74124526Y-54161785D02*
X72724526Y-54161785D01*
X72724526Y-54161785D02*
X73424526Y-53261785D01*
D10*
X84888275Y-90331142D02*
X82856275Y-90331142D01*
X82856275Y-90331142D02*
X82856275Y-91728142D01*
X84888275Y-91728142D02*
X84888275Y-90331142D01*
D12*
X84572275Y-92545142D02*
X83172275Y-92545142D01*
X83872275Y-92545142D02*
X84572275Y-93445142D01*
X84572275Y-93445142D02*
X83172275Y-93445142D01*
X83172275Y-93445142D02*
X83872275Y-92545142D01*
X67604057Y-93553891D02*
X67430408Y-92569083D01*
X69861483Y-106356392D02*
X69687835Y-105371584D01*
X69861483Y-106356392D02*
X70846291Y-106182743D01*
X68415216Y-92395435D02*
X67430408Y-92569083D01*
X82663984Y-104098965D02*
X83648792Y-103925317D01*
X81217717Y-90138008D02*
X80232909Y-90311657D01*
X81217717Y-90138008D02*
X81391365Y-91122816D01*
X83475143Y-102940509D02*
X83648792Y-103925317D01*
D10*
X81064000Y-71820000D02*
X83096000Y-71820000D01*
X83096000Y-71820000D02*
X83096000Y-70423000D01*
X81064000Y-70423000D02*
X81064000Y-71820000D01*
D12*
X81380000Y-69606000D02*
X82780000Y-69606000D01*
X82080000Y-69606000D02*
X81380000Y-68706000D01*
X81380000Y-68706000D02*
X82780000Y-68706000D01*
X82780000Y-68706000D02*
X82080000Y-69606000D01*
X87284800Y-68574400D02*
X87284800Y-67574400D01*
X87284800Y-81574400D02*
X87284800Y-80574400D01*
X87284800Y-81574400D02*
X88284800Y-81574400D01*
X88284800Y-67574400D02*
X87284800Y-67574400D01*
X100284800Y-81574400D02*
X101284800Y-81574400D01*
X101284800Y-67574400D02*
X100284800Y-67574400D01*
X101284800Y-67574400D02*
X101284800Y-68574400D01*
X101284800Y-80574400D02*
X101284800Y-81574400D01*
X59571383Y-49677676D02*
X59397734Y-48692868D01*
X61828809Y-62480177D02*
X61655161Y-61495369D01*
X61828809Y-62480177D02*
X62813617Y-62306528D01*
X60382542Y-48519220D02*
X59397734Y-48692868D01*
X74631310Y-60222750D02*
X75616118Y-60049102D01*
X73185043Y-46261793D02*
X72200235Y-46435442D01*
X73185043Y-46261793D02*
X73358691Y-47246601D01*
X75442469Y-59064294D02*
X75616118Y-60049102D01*
D10*
X100522526Y-46167785D02*
X98490526Y-46167785D01*
X98490526Y-46167785D02*
X98490526Y-47564785D01*
X100522526Y-47564785D02*
X100522526Y-46167785D01*
D12*
X100190526Y-48467785D02*
X98790526Y-48467785D01*
X99490526Y-48467785D02*
X100190526Y-49367785D01*
X100190526Y-49367785D02*
X98790526Y-49367785D01*
X98790526Y-49367785D02*
X99490526Y-48467785D01*
D10*
X98456526Y-46161785D02*
X96424526Y-46161785D01*
X96424526Y-46161785D02*
X96424526Y-47558785D01*
X98456526Y-47558785D02*
X98456526Y-46161785D01*
D12*
X98124526Y-48461785D02*
X96724526Y-48461785D01*
X97424526Y-48461785D02*
X98124526Y-49361785D01*
X98124526Y-49361785D02*
X96724526Y-49361785D01*
X96724526Y-49361785D02*
X97424526Y-48461785D01*
D10*
X100686000Y-76760000D02*
X98654000Y-76760000D01*
X98654000Y-76760000D02*
X98654000Y-78157000D01*
X100686000Y-78157000D02*
X100686000Y-76760000D01*
D12*
X100370000Y-78974000D02*
X98970000Y-78974000D01*
X99670000Y-78974000D02*
X100370000Y-79874000D01*
X100370000Y-79874000D02*
X98970000Y-79874000D01*
X98970000Y-79874000D02*
X99670000Y-78974000D01*
X66130857Y-71709891D02*
X65957208Y-70725083D01*
X68388283Y-84512392D02*
X68214635Y-83527584D01*
X68388283Y-84512392D02*
X69373091Y-84338743D01*
X66942016Y-70551435D02*
X65957208Y-70725083D01*
X81190784Y-82254965D02*
X82175592Y-82081317D01*
X79744517Y-68294008D02*
X78759709Y-68467657D01*
X79744517Y-68294008D02*
X79918165Y-69278816D01*
X82001943Y-81096509D02*
X82175592Y-82081317D01*
X104443518Y-47842353D02*
X104719156Y-46881092D01*
X100860233Y-60338755D02*
X101135870Y-59377494D01*
X100860233Y-60338755D02*
X101821494Y-60614393D01*
X105680417Y-47156729D02*
X104719156Y-46881092D01*
X113356635Y-63922041D02*
X114317896Y-64197678D01*
X118176819Y-50740015D02*
X117215558Y-50464377D01*
X118176819Y-50740015D02*
X117901182Y-51701276D01*
X114593534Y-63236417D02*
X114317896Y-64197678D01*
M02*
