G04 #@! TF.GenerationSoftware,KiCad,Pcbnew,7.0.7*
G04 #@! TF.CreationDate,2024-02-03T15:44:35+08:00*
G04 #@! TF.ProjectId,flex,666c6578-2e6b-4696-9361-645f70636258,rev?*
G04 #@! TF.SameCoordinates,Original*
G04 #@! TF.FileFunction,Copper,L1,Top*
G04 #@! TF.FilePolarity,Positive*
%FSLAX46Y46*%
G04 Gerber Fmt 4.6, Leading zero omitted, Abs format (unit mm)*
G04 Created by KiCad (PCBNEW 7.0.7) date 2024-02-03 15:44:35*
%MOMM*%
%LPD*%
G01*
G04 APERTURE LIST*
G04 Aperture macros list*
%AMRoundRect*
0 Rectangle with rounded corners*
0 $1 Rounding radius*
0 $2 $3 $4 $5 $6 $7 $8 $9 X,Y pos of 4 corners*
0 Add a 4 corners polygon primitive as box body*
4,1,4,$2,$3,$4,$5,$6,$7,$8,$9,$2,$3,0*
0 Add four circle primitives for the rounded corners*
1,1,$1+$1,$2,$3*
1,1,$1+$1,$4,$5*
1,1,$1+$1,$6,$7*
1,1,$1+$1,$8,$9*
0 Add four rect primitives between the rounded corners*
20,1,$1+$1,$2,$3,$4,$5,0*
20,1,$1+$1,$4,$5,$6,$7,0*
20,1,$1+$1,$6,$7,$8,$9,0*
20,1,$1+$1,$8,$9,$2,$3,0*%
%AMHorizOval*
0 Thick line with rounded ends*
0 $1 width*
0 $2 $3 position (X,Y) of the first rounded end (center of the circle)*
0 $4 $5 position (X,Y) of the second rounded end (center of the circle)*
0 Add line between two ends*
20,1,$1,$2,$3,$4,$5,0*
0 Add two circle primitives to create the rounded ends*
1,1,$1,$2,$3*
1,1,$1,$4,$5*%
%AMRotRect*
0 Rectangle, with rotation*
0 The origin of the aperture is its center*
0 $1 length*
0 $2 width*
0 $3 Rotation angle, in degrees counterclockwise*
0 Add horizontal line*
21,1,$1,$2,0,0,$3*%
G04 Aperture macros list end*
G04 #@! TA.AperFunction,ComponentPad*
%ADD10RotRect,1.700000X1.700000X10.000000*%
G04 #@! TD*
G04 #@! TA.AperFunction,ComponentPad*
%ADD11HorizOval,1.700000X0.000000X0.000000X0.000000X0.000000X0*%
G04 #@! TD*
G04 #@! TA.AperFunction,SMDPad,CuDef*
%ADD12R,1.524000X1.524000*%
G04 #@! TD*
G04 #@! TA.AperFunction,ComponentPad*
%ADD13R,1.700000X1.700000*%
G04 #@! TD*
G04 #@! TA.AperFunction,ComponentPad*
%ADD14O,1.700000X1.700000*%
G04 #@! TD*
G04 #@! TA.AperFunction,SMDPad,CuDef*
%ADD15RoundRect,0.250001X-0.624999X0.462499X-0.624999X-0.462499X0.624999X-0.462499X0.624999X0.462499X0*%
G04 #@! TD*
G04 #@! TA.AperFunction,ViaPad*
%ADD16C,0.800000*%
G04 #@! TD*
G04 #@! TA.AperFunction,Conductor*
%ADD17C,0.250000*%
G04 #@! TD*
G04 #@! TA.AperFunction,Conductor*
%ADD18C,0.152400*%
G04 #@! TD*
G04 APERTURE END LIST*
D10*
X68770000Y-77710000D03*
D11*
X69211066Y-80211412D03*
X69652133Y-82712823D03*
D12*
X73424526Y-52061785D03*
X73424526Y-55461785D03*
X83872275Y-91345142D03*
X83872275Y-94745142D03*
X82080000Y-70806000D03*
X82080000Y-67406000D03*
D13*
X84130000Y-67920000D03*
D14*
X84130000Y-70460000D03*
X84130000Y-73000000D03*
X84130000Y-75540000D03*
X84130000Y-78080000D03*
X84130000Y-80620000D03*
D15*
X96740526Y-53780285D03*
X96740526Y-56755285D03*
D12*
X99490526Y-47267785D03*
X99490526Y-50667785D03*
D13*
X77740526Y-46167785D03*
D14*
X77740526Y-48707785D03*
X77740526Y-51247785D03*
X77740526Y-53787785D03*
D15*
X101840526Y-53775285D03*
X101840526Y-56750285D03*
D12*
X97424526Y-47261785D03*
X97424526Y-50661785D03*
X99670000Y-77774000D03*
X99670000Y-81174000D03*
D13*
X99240526Y-53827785D03*
D14*
X99240526Y-56367785D03*
X99240526Y-58907785D03*
D16*
X94240526Y-56367785D03*
X97440526Y-60367785D03*
X78250000Y-89700000D03*
X78990000Y-58692785D03*
X81820000Y-57192785D03*
X82500000Y-60910000D03*
X84930000Y-61940000D03*
X82160000Y-72440000D03*
X102240526Y-47567785D03*
X82240526Y-46767785D03*
X86470000Y-75430000D03*
X66650000Y-78000000D03*
X69450000Y-93860000D03*
X79850000Y-79300000D03*
X73360000Y-101240000D03*
X86600000Y-80170000D03*
X76150000Y-83540484D03*
X79000000Y-104380000D03*
X87040526Y-59567785D03*
X95790000Y-81333800D03*
X74240526Y-58767785D03*
X103040526Y-61167785D03*
X76640526Y-57167785D03*
X80640526Y-57967785D03*
X87550000Y-82010000D03*
X80550000Y-81098368D03*
D17*
X96640526Y-60367785D02*
X97440526Y-60367785D01*
X95840526Y-57967785D02*
X95840526Y-59567785D01*
X95840526Y-59567785D02*
X96640526Y-60367785D01*
X94240526Y-56367785D02*
X95840526Y-57967785D01*
D18*
X77450000Y-72900000D02*
X77450000Y-88900000D01*
X77450000Y-88900000D02*
X78250000Y-89700000D01*
X84130000Y-70460000D02*
X83280000Y-69610000D01*
X83280000Y-69610000D02*
X80740000Y-69610000D01*
X80740000Y-69610000D02*
X77450000Y-72900000D01*
X77209234Y-58692785D02*
X73978234Y-55461785D01*
X73978234Y-55461785D02*
X73424526Y-55461785D01*
X78990000Y-58692785D02*
X77209234Y-58692785D01*
X82160000Y-76110000D02*
X84130000Y-78080000D01*
X82160000Y-72440000D02*
X82160000Y-76110000D01*
X81820000Y-57192785D02*
X81145526Y-57192785D01*
X84930000Y-61940000D02*
X83530000Y-61940000D01*
X81145526Y-57192785D02*
X77740526Y-53787785D01*
X83530000Y-61940000D02*
X82500000Y-60910000D01*
D17*
X87272829Y-46767785D02*
X89592229Y-49087185D01*
X89592229Y-49087185D02*
X100721126Y-49087185D01*
D18*
X86470000Y-75430000D02*
X86470000Y-75340000D01*
X86470000Y-75340000D02*
X84130000Y-73000000D01*
D17*
X100721126Y-49087185D02*
X102240526Y-47567785D01*
X82240526Y-46767785D02*
X87272829Y-46767785D01*
D18*
X70016449Y-85196449D02*
X66650000Y-81830000D01*
X73300425Y-89969575D02*
X73300425Y-86492622D01*
X73300425Y-86492622D02*
X72004252Y-85196449D01*
X69450000Y-93860000D02*
X69450000Y-93820000D01*
X66650000Y-81830000D02*
X66650000Y-78000000D01*
X72004252Y-85196449D02*
X70016449Y-85196449D01*
X69450000Y-93820000D02*
X73300425Y-89969575D01*
X79850000Y-79300000D02*
X79850000Y-82600000D01*
X79580000Y-89511294D02*
X79580000Y-93970000D01*
X75805578Y-95020000D02*
X73360000Y-97465578D01*
X78530000Y-95020000D02*
X75805578Y-95020000D01*
X79850000Y-82600000D02*
X78034727Y-84415273D01*
X79580000Y-93970000D02*
X78530000Y-95020000D01*
X73360000Y-97465578D02*
X73360000Y-101240000D01*
X78034727Y-87966021D02*
X79580000Y-89511294D01*
X78034727Y-84415273D02*
X78034727Y-87966021D01*
D17*
X103040526Y-60167785D02*
X99240526Y-56367785D01*
D18*
X86600000Y-80170000D02*
X87763800Y-81333800D01*
X72878316Y-83540484D02*
X76150000Y-83540484D01*
X78470000Y-104910000D02*
X79000000Y-104380000D01*
X72983800Y-92731548D02*
X72983800Y-100636200D01*
X87763800Y-81333800D02*
X95790000Y-81333800D01*
D17*
X74240526Y-58767785D02*
X75040526Y-59567785D01*
D18*
X72683800Y-100936200D02*
X72683800Y-104333800D01*
X76150000Y-89565348D02*
X72983800Y-92731548D01*
X69452605Y-80114773D02*
X72878316Y-83540484D01*
D17*
X103040526Y-61167785D02*
X103040526Y-60167785D01*
D18*
X72683800Y-104333800D02*
X73260000Y-104910000D01*
X72983800Y-100636200D02*
X72683800Y-100936200D01*
X76150000Y-83540484D02*
X76150000Y-89565348D01*
X73260000Y-104910000D02*
X78470000Y-104910000D01*
D17*
X75040526Y-59567785D02*
X87040526Y-59567785D01*
X77440526Y-57967785D02*
X80640526Y-57967785D01*
X76640526Y-57167785D02*
X77440526Y-57967785D01*
D18*
X81461632Y-82010000D02*
X87550000Y-82010000D01*
X80550000Y-81098368D02*
X81461632Y-82010000D01*
G04 #@! TA.AperFunction,Conductor*
G36*
X80763366Y-66605919D02*
G01*
X80803376Y-66664568D01*
X80809500Y-66703373D01*
X80809500Y-68216649D01*
X80816009Y-68277196D01*
X80816011Y-68277204D01*
X80867110Y-68414202D01*
X80867112Y-68414207D01*
X80954738Y-68531261D01*
X81071792Y-68618887D01*
X81071794Y-68618888D01*
X81071796Y-68618889D01*
X81112082Y-68633915D01*
X81208795Y-68669988D01*
X81208803Y-68669990D01*
X81269350Y-68676499D01*
X81269355Y-68676499D01*
X81269362Y-68676500D01*
X82645500Y-68676500D01*
X82713621Y-68696502D01*
X82760114Y-68750158D01*
X82771500Y-68802500D01*
X82771500Y-68818632D01*
X82771501Y-68818652D01*
X82778723Y-68885833D01*
X82766117Y-68955701D01*
X82717738Y-69007663D01*
X82653445Y-69025300D01*
X80782461Y-69025300D01*
X80774229Y-69024760D01*
X80740001Y-69020254D01*
X80740000Y-69020254D01*
X80573331Y-69042196D01*
X80560219Y-69051592D01*
X80445134Y-69099263D01*
X80445121Y-69099270D01*
X80322988Y-69192985D01*
X80301967Y-69220378D01*
X80296529Y-69226579D01*
X77066583Y-72456526D01*
X77060382Y-72461964D01*
X77032985Y-72482988D01*
X76975901Y-72557384D01*
X76939124Y-72605311D01*
X76938475Y-72607037D01*
X76880350Y-72747363D01*
X76880350Y-72747364D01*
X76873118Y-72802299D01*
X76860255Y-72900000D01*
X76864760Y-72934221D01*
X76865300Y-72942453D01*
X76865300Y-79844605D01*
X76845298Y-79912726D01*
X76791642Y-79959219D01*
X76721368Y-79969323D01*
X76656788Y-79939829D01*
X76618404Y-79880103D01*
X76615214Y-79866485D01*
X76548817Y-79489927D01*
X76474455Y-79068202D01*
X76474455Y-79068197D01*
X76460118Y-78986889D01*
X76453209Y-78947702D01*
X76447968Y-78940412D01*
X76434164Y-78915799D01*
X76430681Y-78907535D01*
X76423948Y-78901593D01*
X76405022Y-78880679D01*
X76404961Y-78880594D01*
X76399781Y-78873389D01*
X76391890Y-78869092D01*
X76368784Y-78852912D01*
X76362056Y-78846975D01*
X76362054Y-78846974D01*
X76362052Y-78846973D01*
X76353410Y-78844541D01*
X76327288Y-78833910D01*
X76319404Y-78829616D01*
X76319400Y-78829615D01*
X76310432Y-78829168D01*
X76282593Y-78824616D01*
X76273952Y-78822185D01*
X76273951Y-78822185D01*
X76251132Y-78826209D01*
X72925607Y-79412589D01*
X72925606Y-79412589D01*
X72870391Y-79422325D01*
X72835470Y-79428483D01*
X72828181Y-79433724D01*
X72803580Y-79447521D01*
X72795305Y-79451009D01*
X72795300Y-79451012D01*
X72789359Y-79457745D01*
X72768449Y-79476668D01*
X72761157Y-79481910D01*
X72756860Y-79489802D01*
X72740685Y-79512903D01*
X72734742Y-79519637D01*
X72732310Y-79528281D01*
X72721682Y-79554398D01*
X72717384Y-79562290D01*
X72717384Y-79562291D01*
X72716937Y-79571252D01*
X72712386Y-79599092D01*
X72709953Y-79607737D01*
X72713978Y-79630561D01*
X73229940Y-82556736D01*
X73229943Y-82556745D01*
X73230898Y-82562161D01*
X73230898Y-82562163D01*
X73240788Y-82618250D01*
X73246792Y-82652298D01*
X73252030Y-82659583D01*
X73265830Y-82684190D01*
X73269316Y-82692460D01*
X73269320Y-82692466D01*
X73276047Y-82698402D01*
X73294982Y-82719326D01*
X73300220Y-82726611D01*
X73308099Y-82730901D01*
X73331219Y-82747090D01*
X73337941Y-82753023D01*
X73337944Y-82753025D01*
X73346578Y-82755454D01*
X73372712Y-82766089D01*
X73380599Y-82770384D01*
X73389558Y-82770830D01*
X73417412Y-82775384D01*
X73426048Y-82777815D01*
X73516183Y-82761922D01*
X73516183Y-82761921D01*
X76717422Y-82197455D01*
X76787979Y-82205324D01*
X76843083Y-82250091D01*
X76865237Y-82317543D01*
X76865300Y-82321541D01*
X76865300Y-88857546D01*
X76864760Y-88865778D01*
X76860255Y-88899999D01*
X76865300Y-88938318D01*
X76880349Y-89052635D01*
X76880350Y-89052637D01*
X76917584Y-89142528D01*
X76939266Y-89194873D01*
X76963709Y-89226727D01*
X77032987Y-89317013D01*
X77032988Y-89317014D01*
X77032990Y-89317016D01*
X77060383Y-89338035D01*
X77066576Y-89343466D01*
X77196083Y-89472973D01*
X77302236Y-89579126D01*
X77336262Y-89641438D01*
X77338451Y-89681386D01*
X77336496Y-89699994D01*
X77336496Y-89699999D01*
X77356457Y-89889927D01*
X77382337Y-89969574D01*
X77415473Y-90071556D01*
X77415476Y-90071561D01*
X77510958Y-90236941D01*
X77510965Y-90236951D01*
X77638744Y-90378864D01*
X77694055Y-90419050D01*
X77793248Y-90491118D01*
X77967712Y-90568794D01*
X78154513Y-90608500D01*
X78345487Y-90608500D01*
X78532288Y-90568794D01*
X78706752Y-90491118D01*
X78795239Y-90426827D01*
X78862107Y-90402970D01*
X78931258Y-90419050D01*
X78980738Y-90469964D01*
X78995300Y-90528764D01*
X78995300Y-93675619D01*
X78975298Y-93743740D01*
X78958396Y-93764714D01*
X78324713Y-94398396D01*
X78262403Y-94432420D01*
X78235620Y-94435300D01*
X75848039Y-94435300D01*
X75839807Y-94434760D01*
X75805579Y-94430254D01*
X75805578Y-94430254D01*
X75657536Y-94449745D01*
X75652942Y-94450349D01*
X75581823Y-94479808D01*
X75510706Y-94509266D01*
X75510704Y-94509267D01*
X75510705Y-94509267D01*
X75510699Y-94509270D01*
X75388566Y-94602985D01*
X75367545Y-94630378D01*
X75362107Y-94636579D01*
X72976583Y-97022104D01*
X72970382Y-97027542D01*
X72942987Y-97048565D01*
X72883422Y-97126191D01*
X72849124Y-97170889D01*
X72848475Y-97172615D01*
X72790349Y-97312942D01*
X72775300Y-97427257D01*
X72770255Y-97465577D01*
X72770255Y-97465578D01*
X72774760Y-97499799D01*
X72775300Y-97508031D01*
X72775300Y-100483276D01*
X72755298Y-100551397D01*
X72742937Y-100567586D01*
X72620961Y-100703054D01*
X72620958Y-100703058D01*
X72525476Y-100868438D01*
X72525473Y-100868444D01*
X72514119Y-100903389D01*
X72466457Y-101050072D01*
X72446496Y-101240000D01*
X72466457Y-101429927D01*
X72488701Y-101498385D01*
X72525473Y-101611556D01*
X72525476Y-101611561D01*
X72620958Y-101776941D01*
X72620965Y-101776951D01*
X72748744Y-101918864D01*
X72748747Y-101918866D01*
X72903248Y-102031118D01*
X73077712Y-102108794D01*
X73264513Y-102148500D01*
X73455487Y-102148500D01*
X73642288Y-102108794D01*
X73816752Y-102031118D01*
X73971253Y-101918866D01*
X74099040Y-101776944D01*
X74106322Y-101764331D01*
X74157699Y-101715340D01*
X74227412Y-101701901D01*
X74293324Y-101728285D01*
X74334508Y-101786116D01*
X74339526Y-101805451D01*
X74829940Y-104586736D01*
X74829943Y-104586745D01*
X74846792Y-104682298D01*
X74852030Y-104689583D01*
X74865830Y-104714190D01*
X74869316Y-104722460D01*
X74869320Y-104722466D01*
X74876047Y-104728402D01*
X74894982Y-104749326D01*
X74900220Y-104756611D01*
X74908099Y-104760901D01*
X74931219Y-104777090D01*
X74937941Y-104783023D01*
X74937944Y-104783025D01*
X74946578Y-104785454D01*
X74972712Y-104796089D01*
X74980599Y-104800384D01*
X74989558Y-104800830D01*
X75017412Y-104805384D01*
X75026048Y-104807815D01*
X75116183Y-104791922D01*
X75116183Y-104791921D01*
X78354429Y-104220930D01*
X78374392Y-104217410D01*
X78374394Y-104217411D01*
X78464529Y-104201518D01*
X78471816Y-104196278D01*
X78496427Y-104182475D01*
X78504696Y-104178990D01*
X78510635Y-104172259D01*
X78531551Y-104153331D01*
X78538842Y-104148090D01*
X78543139Y-104140198D01*
X78559319Y-104117091D01*
X78565256Y-104110365D01*
X78567685Y-104101729D01*
X78578319Y-104075598D01*
X78582615Y-104067711D01*
X78583062Y-104058742D01*
X78587616Y-104030896D01*
X78590046Y-104022261D01*
X78574153Y-103932126D01*
X78574152Y-103932125D01*
X78074455Y-101098202D01*
X78074455Y-101098197D01*
X78065969Y-101050072D01*
X78053209Y-100977702D01*
X78047968Y-100970412D01*
X78034164Y-100945799D01*
X78030681Y-100937535D01*
X78023948Y-100931593D01*
X78005022Y-100910679D01*
X77999781Y-100903389D01*
X77991890Y-100899092D01*
X77968784Y-100882912D01*
X77962056Y-100876975D01*
X77962054Y-100876974D01*
X77962052Y-100876973D01*
X77953410Y-100874541D01*
X77927288Y-100863910D01*
X77919404Y-100859616D01*
X77919400Y-100859615D01*
X77910432Y-100859168D01*
X77882593Y-100854616D01*
X77873952Y-100852185D01*
X77873951Y-100852185D01*
X77851132Y-100856209D01*
X74531032Y-101441631D01*
X74531024Y-101441633D01*
X74525607Y-101442589D01*
X74525606Y-101442589D01*
X74435471Y-101458483D01*
X74435469Y-101458484D01*
X74421491Y-101460949D01*
X74421178Y-101459174D01*
X74367959Y-101465226D01*
X74304279Y-101433835D01*
X74267679Y-101373000D01*
X74264262Y-101327927D01*
X74273504Y-101240000D01*
X74253542Y-101050072D01*
X74194527Y-100868444D01*
X74099040Y-100703056D01*
X74068621Y-100669272D01*
X73977063Y-100567586D01*
X73946346Y-100503578D01*
X73944700Y-100483276D01*
X73944700Y-97759958D01*
X73964702Y-97691837D01*
X73981605Y-97670863D01*
X76010864Y-95641605D01*
X76073176Y-95607579D01*
X76099959Y-95604700D01*
X78487547Y-95604700D01*
X78495779Y-95605240D01*
X78529999Y-95609745D01*
X78530000Y-95609745D01*
X78568319Y-95604700D01*
X78568321Y-95604700D01*
X78682637Y-95589650D01*
X78764377Y-95555791D01*
X82601775Y-95555791D01*
X82608284Y-95616338D01*
X82608286Y-95616346D01*
X82659385Y-95753344D01*
X82659387Y-95753349D01*
X82747013Y-95870403D01*
X82864067Y-95958029D01*
X82864069Y-95958030D01*
X82864071Y-95958031D01*
X82923150Y-95980066D01*
X83001070Y-96009130D01*
X83001078Y-96009132D01*
X83061625Y-96015641D01*
X83061630Y-96015641D01*
X83061637Y-96015642D01*
X83061643Y-96015642D01*
X84682907Y-96015642D01*
X84682913Y-96015642D01*
X84682920Y-96015641D01*
X84682924Y-96015641D01*
X84743471Y-96009132D01*
X84743474Y-96009131D01*
X84743476Y-96009131D01*
X84880479Y-95958031D01*
X84997536Y-95870403D01*
X85085164Y-95753346D01*
X85136264Y-95616343D01*
X85136974Y-95609745D01*
X85142774Y-95555791D01*
X85142775Y-95555774D01*
X85142775Y-93934509D01*
X85142774Y-93934492D01*
X85136265Y-93873945D01*
X85136263Y-93873937D01*
X85104268Y-93788157D01*
X85085164Y-93736938D01*
X85085163Y-93736936D01*
X85085162Y-93736934D01*
X84997536Y-93619880D01*
X84880482Y-93532254D01*
X84880477Y-93532252D01*
X84743479Y-93481153D01*
X84743471Y-93481151D01*
X84682924Y-93474642D01*
X84682913Y-93474642D01*
X83061637Y-93474642D01*
X83061625Y-93474642D01*
X83001078Y-93481151D01*
X83001070Y-93481153D01*
X82864072Y-93532252D01*
X82864067Y-93532254D01*
X82747013Y-93619880D01*
X82659387Y-93736934D01*
X82659385Y-93736939D01*
X82608286Y-93873937D01*
X82608284Y-93873945D01*
X82601775Y-93934492D01*
X82601775Y-95555791D01*
X78764377Y-95555791D01*
X78783212Y-95547989D01*
X78824873Y-95530734D01*
X78869386Y-95496577D01*
X78947013Y-95437013D01*
X78968036Y-95409613D01*
X78973456Y-95403432D01*
X79963433Y-94413455D01*
X79969615Y-94408034D01*
X79997013Y-94387013D01*
X80056577Y-94309386D01*
X80090734Y-94264873D01*
X80090735Y-94264869D01*
X80090737Y-94264867D01*
X80121053Y-94191675D01*
X80121052Y-94191675D01*
X80149650Y-94122637D01*
X80164700Y-94008321D01*
X80164700Y-94008319D01*
X80169745Y-93970000D01*
X80165240Y-93935778D01*
X80164700Y-93927546D01*
X80164700Y-92155791D01*
X82601775Y-92155791D01*
X82608284Y-92216338D01*
X82608286Y-92216346D01*
X82659385Y-92353344D01*
X82659387Y-92353349D01*
X82747013Y-92470403D01*
X82864067Y-92558029D01*
X82864069Y-92558030D01*
X82864071Y-92558031D01*
X82888048Y-92566974D01*
X83001070Y-92609130D01*
X83001078Y-92609132D01*
X83061625Y-92615641D01*
X83061630Y-92615641D01*
X83061637Y-92615642D01*
X83061643Y-92615642D01*
X84682907Y-92615642D01*
X84682913Y-92615642D01*
X84682920Y-92615641D01*
X84682924Y-92615641D01*
X84743471Y-92609132D01*
X84743474Y-92609131D01*
X84743476Y-92609131D01*
X84880479Y-92558031D01*
X84997536Y-92470403D01*
X85085164Y-92353346D01*
X85136264Y-92216343D01*
X85142775Y-92155780D01*
X85142775Y-90534504D01*
X85138111Y-90491117D01*
X85136265Y-90473945D01*
X85136263Y-90473937D01*
X85085164Y-90336939D01*
X85085162Y-90336934D01*
X84997536Y-90219880D01*
X84880482Y-90132254D01*
X84880477Y-90132252D01*
X84743479Y-90081153D01*
X84743471Y-90081151D01*
X84682924Y-90074642D01*
X84682913Y-90074642D01*
X83061637Y-90074642D01*
X83061625Y-90074642D01*
X83001078Y-90081151D01*
X83001070Y-90081153D01*
X82864072Y-90132252D01*
X82864067Y-90132254D01*
X82747013Y-90219880D01*
X82659387Y-90336934D01*
X82659385Y-90336939D01*
X82608286Y-90473937D01*
X82608284Y-90473945D01*
X82601775Y-90534492D01*
X82601775Y-92155791D01*
X80164700Y-92155791D01*
X80164700Y-89553746D01*
X80165240Y-89545513D01*
X80169745Y-89511294D01*
X80169745Y-89511293D01*
X80164700Y-89472973D01*
X80149650Y-89358657D01*
X80121616Y-89290977D01*
X80114027Y-89220387D01*
X80145806Y-89156900D01*
X80206864Y-89120673D01*
X80220301Y-89118012D01*
X85497693Y-88368977D01*
X85524902Y-88368087D01*
X85703473Y-88381598D01*
X85716439Y-88382579D01*
X85735232Y-88385439D01*
X85935488Y-88431593D01*
X85953628Y-88437245D01*
X86144674Y-88513004D01*
X86161761Y-88521323D01*
X86339227Y-88624956D01*
X86354871Y-88635752D01*
X86514718Y-88764893D01*
X86528562Y-88777921D01*
X86667176Y-88929656D01*
X86678901Y-88944617D01*
X86793101Y-89115460D01*
X86802443Y-89132016D01*
X86889646Y-89318105D01*
X86896391Y-89335876D01*
X86954609Y-89532969D01*
X86958603Y-89551554D01*
X86986507Y-89755154D01*
X86987660Y-89774128D01*
X86984729Y-89972168D01*
X86984340Y-89978287D01*
X86983626Y-89984627D01*
X86983625Y-89995316D01*
X86983368Y-90000988D01*
X86980846Y-90028855D01*
X86982159Y-90041197D01*
X86981238Y-90041294D01*
X86983625Y-90056960D01*
X86983625Y-93257690D01*
X86983580Y-93258489D01*
X86983625Y-93283863D01*
X86983625Y-93309358D01*
X86983670Y-93310162D01*
X86995402Y-100031539D01*
X86909770Y-103658511D01*
X86907045Y-103674935D01*
X86907257Y-103674959D01*
X86905907Y-103687296D01*
X86908109Y-103712444D01*
X86908331Y-103719425D01*
X86908144Y-103727372D01*
X86908911Y-103736014D01*
X86909150Y-103742539D01*
X86907352Y-103861298D01*
X86904324Y-103886910D01*
X86877825Y-104005306D01*
X86869646Y-104029764D01*
X86819595Y-104140287D01*
X86806608Y-104162569D01*
X86735102Y-104260586D01*
X86717850Y-104279755D01*
X86627886Y-104361160D01*
X86607092Y-104376416D01*
X86502436Y-104437799D01*
X86478972Y-104448501D01*
X86364014Y-104487289D01*
X86338862Y-104492990D01*
X86209703Y-104508612D01*
X86202587Y-104509067D01*
X83067486Y-104531722D01*
X83067444Y-104531722D01*
X83045733Y-104531686D01*
X83044940Y-104531782D01*
X83044106Y-104531874D01*
X83022941Y-104536865D01*
X68824678Y-107752362D01*
X68824647Y-107752366D01*
X68776923Y-107763177D01*
X68770670Y-107764265D01*
X68667130Y-107776949D01*
X68626671Y-107781906D01*
X68601302Y-107782440D01*
X68466235Y-107771634D01*
X68441273Y-107767073D01*
X68311118Y-107729426D01*
X68287575Y-107719956D01*
X68167602Y-107656992D01*
X68146435Y-107642998D01*
X68041508Y-107557271D01*
X68023578Y-107539324D01*
X67937946Y-107434299D01*
X67923980Y-107413128D01*
X67861135Y-107293089D01*
X67851689Y-107269539D01*
X67837728Y-107221092D01*
X67811462Y-107129945D01*
X67810020Y-107123788D01*
X67803492Y-107087852D01*
X67803491Y-107087851D01*
X67801191Y-107075185D01*
X67801180Y-107075148D01*
X67407709Y-104910013D01*
X67291431Y-104270175D01*
X67291430Y-104270173D01*
X66084516Y-97628951D01*
X66084515Y-97628949D01*
X65391383Y-93814883D01*
X65390646Y-93809250D01*
X65386526Y-93788156D01*
X65382676Y-93766973D01*
X65381303Y-93761419D01*
X65336542Y-93532253D01*
X65181779Y-92739905D01*
X65180892Y-92733754D01*
X65167543Y-92591892D01*
X65167673Y-92566974D01*
X65181524Y-92434611D01*
X65186552Y-92410218D01*
X65226187Y-92283150D01*
X65235914Y-92260234D01*
X65299772Y-92143466D01*
X65313830Y-92122896D01*
X65399419Y-92020979D01*
X65417248Y-92003578D01*
X65521227Y-91920493D01*
X65542123Y-91906949D01*
X65660413Y-91845953D01*
X65683567Y-91836784D01*
X65820396Y-91797736D01*
X65826460Y-91796326D01*
X65826909Y-91796245D01*
X71314624Y-90803887D01*
X71385214Y-90811448D01*
X71440512Y-90855974D01*
X71462960Y-90923328D01*
X71445429Y-90992127D01*
X71426137Y-91016971D01*
X69528513Y-92914596D01*
X69466203Y-92948620D01*
X69439420Y-92951500D01*
X69354513Y-92951500D01*
X69167711Y-92991206D01*
X68993247Y-93068882D01*
X68838744Y-93181135D01*
X68710965Y-93323048D01*
X68710958Y-93323058D01*
X68615476Y-93488438D01*
X68615473Y-93488445D01*
X68556457Y-93670072D01*
X68536496Y-93860000D01*
X68556457Y-94049927D01*
X68580082Y-94122635D01*
X68615473Y-94231556D01*
X68615476Y-94231561D01*
X68710958Y-94396941D01*
X68710965Y-94396951D01*
X68838744Y-94538864D01*
X68838747Y-94538866D01*
X68993248Y-94651118D01*
X69167712Y-94728794D01*
X69354513Y-94768500D01*
X69545487Y-94768500D01*
X69732288Y-94728794D01*
X69906752Y-94651118D01*
X70061253Y-94538866D01*
X70061255Y-94538864D01*
X70189034Y-94396951D01*
X70189035Y-94396949D01*
X70189040Y-94396944D01*
X70284527Y-94231556D01*
X70343542Y-94049928D01*
X70363504Y-93860000D01*
X70357743Y-93805193D01*
X70370515Y-93735358D01*
X70393955Y-93702933D01*
X73683857Y-90413031D01*
X73690040Y-90407609D01*
X73717438Y-90386588D01*
X73808314Y-90268155D01*
X73811159Y-90264448D01*
X73843344Y-90186746D01*
X73870075Y-90122212D01*
X73885125Y-90007896D01*
X73885125Y-90007894D01*
X73890170Y-89969575D01*
X73885665Y-89935353D01*
X73885125Y-89927121D01*
X73885125Y-86535074D01*
X73885665Y-86526841D01*
X73890170Y-86492622D01*
X73890170Y-86492621D01*
X73885125Y-86454301D01*
X73870075Y-86339986D01*
X73835562Y-86256665D01*
X73811160Y-86197751D01*
X73811159Y-86197750D01*
X73811159Y-86197749D01*
X73740967Y-86106273D01*
X73717438Y-86075609D01*
X73690044Y-86054589D01*
X73683854Y-86049160D01*
X72447713Y-84813020D01*
X72442286Y-84806832D01*
X72430057Y-84790894D01*
X72421264Y-84779434D01*
X72343638Y-84719871D01*
X72299124Y-84685714D01*
X72257464Y-84668459D01*
X72231511Y-84657709D01*
X72156889Y-84626799D01*
X72156888Y-84626798D01*
X72069169Y-84615250D01*
X72042573Y-84611749D01*
X72042571Y-84611749D01*
X72004252Y-84606704D01*
X72004251Y-84606704D01*
X71970030Y-84611209D01*
X71961798Y-84611749D01*
X70310829Y-84611749D01*
X70242708Y-84591747D01*
X70221734Y-84574844D01*
X69897948Y-84251058D01*
X69863922Y-84188746D01*
X69868987Y-84117931D01*
X69911534Y-84061095D01*
X69966305Y-84037681D01*
X69986768Y-84034267D01*
X70199707Y-83961165D01*
X70397709Y-83854012D01*
X70575373Y-83715729D01*
X70727855Y-83550091D01*
X70850993Y-83361614D01*
X70941429Y-83155439D01*
X70996697Y-82937191D01*
X71015289Y-82712823D01*
X70996697Y-82488455D01*
X70981137Y-82427011D01*
X70941430Y-82270210D01*
X70941429Y-82270209D01*
X70941429Y-82270207D01*
X70850993Y-82064032D01*
X70799130Y-81984649D01*
X70727857Y-81875557D01*
X70727853Y-81875552D01*
X70575370Y-81709914D01*
X70483547Y-81638445D01*
X70397709Y-81571634D01*
X70199707Y-81464481D01*
X70199701Y-81464479D01*
X70199699Y-81464478D01*
X70150934Y-81447736D01*
X70093000Y-81406699D01*
X70066449Y-81340854D01*
X70079711Y-81271107D01*
X70114460Y-81229130D01*
X70133968Y-81213946D01*
X70286391Y-81048370D01*
X70409485Y-80859960D01*
X70499886Y-80653868D01*
X70499889Y-80653861D01*
X70555133Y-80435704D01*
X70572235Y-80229319D01*
X69858946Y-80355091D01*
X69788386Y-80347222D01*
X69733283Y-80302454D01*
X69711129Y-80235003D01*
X69711066Y-80231005D01*
X69711066Y-80139522D01*
X69674196Y-80013955D01*
X69674196Y-79942959D01*
X69712580Y-79883233D01*
X69773212Y-79854371D01*
X70482494Y-79729306D01*
X70409485Y-79562863D01*
X70286391Y-79374453D01*
X70133968Y-79208877D01*
X69956541Y-79070780D01*
X69915070Y-79013155D01*
X69911336Y-78942256D01*
X69946526Y-78880594D01*
X69970062Y-78862736D01*
X70075447Y-78800772D01*
X70092870Y-78782207D01*
X70175507Y-78694150D01*
X70175506Y-78694150D01*
X70175509Y-78694148D01*
X70241479Y-78563653D01*
X70268013Y-78419858D01*
X70263908Y-78359085D01*
X69951814Y-76589113D01*
X69934886Y-76530601D01*
X69860772Y-76404553D01*
X69860771Y-76404552D01*
X69860770Y-76404550D01*
X69754150Y-76304492D01*
X69754147Y-76304490D01*
X69690327Y-76272227D01*
X69623653Y-76238521D01*
X69623651Y-76238520D01*
X69623652Y-76238520D01*
X69479861Y-76211987D01*
X69479853Y-76211986D01*
X69419091Y-76216091D01*
X69419084Y-76216092D01*
X67649113Y-76528186D01*
X67590601Y-76545113D01*
X67464550Y-76619229D01*
X67364492Y-76725849D01*
X67364490Y-76725852D01*
X67298520Y-76856348D01*
X67271987Y-77000138D01*
X67271986Y-77000146D01*
X67276091Y-77060908D01*
X67276093Y-77060926D01*
X67277682Y-77069937D01*
X67269812Y-77140496D01*
X67225044Y-77195599D01*
X67157591Y-77217751D01*
X67102347Y-77206921D01*
X66932288Y-77131206D01*
X66745487Y-77091500D01*
X66554513Y-77091500D01*
X66367711Y-77131206D01*
X66193247Y-77208882D01*
X66038744Y-77321135D01*
X65910965Y-77463048D01*
X65910958Y-77463058D01*
X65815476Y-77628438D01*
X65815473Y-77628445D01*
X65756457Y-77810072D01*
X65736496Y-78000000D01*
X65756457Y-78189927D01*
X65786526Y-78282470D01*
X65815473Y-78371556D01*
X65815476Y-78371561D01*
X65902687Y-78522616D01*
X65910960Y-78536944D01*
X66032936Y-78672412D01*
X66063653Y-78736419D01*
X66065300Y-78756722D01*
X66065300Y-81787546D01*
X66064760Y-81795778D01*
X66061654Y-81819372D01*
X66060255Y-81830000D01*
X66065300Y-81868318D01*
X66065300Y-81868321D01*
X66070552Y-81908215D01*
X66080349Y-81982635D01*
X66122010Y-82083212D01*
X66139265Y-82124872D01*
X66139266Y-82124874D01*
X66158408Y-82149819D01*
X66232987Y-82247013D01*
X66260383Y-82268035D01*
X66266576Y-82273466D01*
X67847121Y-83854011D01*
X69351359Y-85358249D01*
X69385385Y-85420561D01*
X69380320Y-85491376D01*
X69337773Y-85548212D01*
X69278064Y-85572349D01*
X66930366Y-85869094D01*
X66912048Y-85870064D01*
X66909137Y-85870005D01*
X66876426Y-85875830D01*
X66873284Y-85876309D01*
X66866017Y-85877227D01*
X66863027Y-85877533D01*
X66726001Y-85888252D01*
X66701306Y-85887756D01*
X66570320Y-85872191D01*
X66546196Y-85866886D01*
X66420767Y-85826067D01*
X66398142Y-85816158D01*
X66283085Y-85751653D01*
X66262827Y-85737520D01*
X66162569Y-85651811D01*
X66145458Y-85633998D01*
X66063840Y-85530368D01*
X66050533Y-85509560D01*
X65990702Y-85392002D01*
X65981715Y-85369011D01*
X65943289Y-85232526D01*
X65941911Y-85226515D01*
X65935557Y-85190835D01*
X65935555Y-85190833D01*
X65933275Y-85178027D01*
X65933271Y-85178011D01*
X65832404Y-84611749D01*
X65250273Y-81343681D01*
X64066548Y-74698286D01*
X64066547Y-74698285D01*
X63392282Y-70912990D01*
X63392282Y-70912966D01*
X63389189Y-70895605D01*
X63382736Y-70859391D01*
X63381953Y-70853266D01*
X63370927Y-70712461D01*
X63371421Y-70687764D01*
X63386980Y-70556757D01*
X63392280Y-70532649D01*
X63433099Y-70407196D01*
X63443002Y-70384581D01*
X63507511Y-70269502D01*
X63521634Y-70249257D01*
X63607355Y-70148973D01*
X63625158Y-70131870D01*
X63728799Y-70050237D01*
X63749598Y-70036935D01*
X63867170Y-69977092D01*
X63890162Y-69968105D01*
X64025546Y-69929986D01*
X64031784Y-69928567D01*
X79709343Y-67193813D01*
X79709366Y-67193813D01*
X79716436Y-67192579D01*
X79716558Y-67192592D01*
X79764058Y-67184277D01*
X79764059Y-67184278D01*
X79767415Y-67183690D01*
X79777536Y-67181919D01*
X79789933Y-67179757D01*
X79790056Y-67179728D01*
X79811088Y-67176046D01*
X79865329Y-67166554D01*
X80058928Y-67097284D01*
X80237931Y-66996104D01*
X80397123Y-66865962D01*
X80531869Y-66710647D01*
X80575672Y-66638187D01*
X80628030Y-66590240D01*
X80698000Y-66578210D01*
X80763366Y-66605919D01*
G37*
G04 #@! TD.AperFunction*
G04 #@! TA.AperFunction,Conductor*
G36*
X95886316Y-44441761D02*
G01*
X95887698Y-44441792D01*
X95921183Y-44442553D01*
X95923980Y-44442680D01*
X95940678Y-44443819D01*
X95957362Y-44444958D01*
X95960188Y-44445215D01*
X95994815Y-44449162D01*
X95994815Y-44449160D01*
X95995030Y-44449185D01*
X95997736Y-44449556D01*
X95999645Y-44449818D01*
X96050520Y-44456790D01*
X96050547Y-44456790D01*
X103593927Y-45490104D01*
X103593954Y-45490108D01*
X103593954Y-45490109D01*
X103607944Y-45492351D01*
X103628395Y-45495629D01*
X103631199Y-45496144D01*
X103639089Y-45497777D01*
X103663955Y-45502927D01*
X103666673Y-45503554D01*
X103700499Y-45512174D01*
X103700499Y-45512173D01*
X103700571Y-45512192D01*
X118657164Y-49688148D01*
X118663001Y-49690092D01*
X118794658Y-49741241D01*
X118816685Y-49752396D01*
X118927959Y-49823230D01*
X118947392Y-49838469D01*
X118966924Y-49857152D01*
X119042720Y-49929655D01*
X119058804Y-49948390D01*
X119134509Y-50056412D01*
X119146633Y-50077928D01*
X119199816Y-50198651D01*
X119207507Y-50222109D01*
X119228004Y-50314359D01*
X119236119Y-50350882D01*
X119239087Y-50375399D01*
X119242031Y-50507285D01*
X119240159Y-50531912D01*
X119215676Y-50671188D01*
X119214306Y-50677226D01*
X118148942Y-54492924D01*
X118148942Y-54492930D01*
X116339509Y-60973594D01*
X115299692Y-64697794D01*
X115289800Y-64733221D01*
X115287847Y-64739090D01*
X115236718Y-64870737D01*
X115225562Y-64892774D01*
X115154735Y-65004057D01*
X115139495Y-65023493D01*
X115048319Y-65118823D01*
X115029578Y-65134915D01*
X114921552Y-65210627D01*
X114900033Y-65222753D01*
X114779322Y-65275931D01*
X114755853Y-65283625D01*
X114627080Y-65312235D01*
X114602557Y-65315203D01*
X114470678Y-65318140D01*
X114446049Y-65316267D01*
X114307167Y-65291842D01*
X114301152Y-65290478D01*
X114297806Y-65289545D01*
X114296265Y-65289115D01*
X110099409Y-64117332D01*
X110099388Y-64117325D01*
X106761856Y-63185470D01*
X103428987Y-62254916D01*
X103428966Y-62254909D01*
X99351208Y-61116379D01*
X99318002Y-61107105D01*
X99318001Y-61107105D01*
X99264931Y-61094853D01*
X99243743Y-61090964D01*
X99211319Y-61085014D01*
X99184329Y-61081319D01*
X99178846Y-61080568D01*
X99094354Y-61068994D01*
X105904711Y-61068994D01*
X105906380Y-61077813D01*
X105908488Y-61105936D01*
X105908152Y-61114911D01*
X105908153Y-61114916D01*
X105911744Y-61123146D01*
X105920059Y-61150103D01*
X105921727Y-61158919D01*
X105921728Y-61158921D01*
X105927060Y-61166146D01*
X105941161Y-61190569D01*
X105944754Y-61198803D01*
X105951553Y-61204654D01*
X105970742Y-61225335D01*
X105976075Y-61232561D01*
X105976076Y-61232561D01*
X105976077Y-61232563D01*
X105982910Y-61236174D01*
X105984009Y-61236755D01*
X106007326Y-61252652D01*
X106014127Y-61258505D01*
X106081328Y-61276511D01*
X106100156Y-61281556D01*
X106102534Y-61282193D01*
X109364298Y-62156181D01*
X109364299Y-62156181D01*
X109386681Y-62162178D01*
X109392178Y-62161137D01*
X109395492Y-62160511D01*
X109423633Y-62158401D01*
X109432605Y-62158737D01*
X109440829Y-62155148D01*
X109467800Y-62146829D01*
X109469422Y-62146521D01*
X109476611Y-62145162D01*
X109483833Y-62139831D01*
X109508269Y-62125724D01*
X109516493Y-62122136D01*
X109522346Y-62115334D01*
X109543026Y-62096146D01*
X109550253Y-62090813D01*
X109554444Y-62082881D01*
X109570345Y-62059560D01*
X109576195Y-62052763D01*
X109599883Y-61964356D01*
X109599882Y-61964355D01*
X110362393Y-59118633D01*
X110376340Y-59066579D01*
X110374671Y-59057763D01*
X110372563Y-59029623D01*
X110372899Y-59020655D01*
X110369306Y-59012422D01*
X110360992Y-58985468D01*
X110359324Y-58976649D01*
X110353997Y-58969431D01*
X110339886Y-58944991D01*
X110336298Y-58936766D01*
X110329494Y-58930910D01*
X110310307Y-58910231D01*
X110304976Y-58903009D01*
X110304974Y-58903006D01*
X110297041Y-58898814D01*
X110273731Y-58882922D01*
X110266925Y-58877065D01*
X110266923Y-58877064D01*
X110172522Y-58851768D01*
X110172497Y-58851763D01*
X106957875Y-57990407D01*
X106894369Y-57973390D01*
X106885545Y-57975060D01*
X106857416Y-57977168D01*
X106848450Y-57976832D01*
X106848447Y-57976833D01*
X106840216Y-57980424D01*
X106813268Y-57988736D01*
X106804443Y-57990406D01*
X106804436Y-57990409D01*
X106797207Y-57995744D01*
X106772786Y-58009843D01*
X106764562Y-58013431D01*
X106764554Y-58013437D01*
X106758702Y-58020237D01*
X106738031Y-58039417D01*
X106730800Y-58044754D01*
X106730797Y-58044757D01*
X106726600Y-58052699D01*
X106710711Y-58076004D01*
X106704856Y-58082807D01*
X106689353Y-58140670D01*
X105911788Y-61042583D01*
X105904711Y-61068991D01*
X105904711Y-61068994D01*
X99094354Y-61068994D01*
X98344496Y-60966276D01*
X98279720Y-60937214D01*
X98240939Y-60877745D01*
X98240466Y-60806750D01*
X98252474Y-60778447D01*
X98275053Y-60739341D01*
X98334068Y-60557713D01*
X98354030Y-60367785D01*
X98334993Y-60186660D01*
X98347765Y-60116823D01*
X98396267Y-60064976D01*
X98465100Y-60047582D01*
X98520269Y-60062676D01*
X98652189Y-60134067D01*
X98692952Y-60156127D01*
X98692954Y-60156128D01*
X98756249Y-60177857D01*
X98905891Y-60229229D01*
X99127957Y-60266285D01*
X99127961Y-60266285D01*
X99353091Y-60266285D01*
X99353095Y-60266285D01*
X99575161Y-60229229D01*
X99788100Y-60156127D01*
X99986102Y-60048974D01*
X100163766Y-59910691D01*
X100316248Y-59745053D01*
X100439386Y-59556576D01*
X100529822Y-59350401D01*
X100585090Y-59132153D01*
X100603682Y-58907785D01*
X100585090Y-58683417D01*
X100529822Y-58465169D01*
X100439386Y-58258994D01*
X100373216Y-58157713D01*
X100316250Y-58070519D01*
X100316246Y-58070514D01*
X100175874Y-57918032D01*
X100163766Y-57904879D01*
X100163765Y-57904878D01*
X100163763Y-57904876D01*
X100079020Y-57838918D01*
X99986102Y-57766596D01*
X99952318Y-57748313D01*
X99901928Y-57698301D01*
X99886576Y-57628984D01*
X99911136Y-57562371D01*
X99952319Y-57526686D01*
X99985826Y-57508552D01*
X99985827Y-57508552D01*
X100163428Y-57370319D01*
X100247938Y-57278516D01*
X100308790Y-57241945D01*
X100379755Y-57244078D01*
X100438301Y-57284239D01*
X100465840Y-57349677D01*
X100465987Y-57351044D01*
X100467638Y-57367206D01*
X100467638Y-57367208D01*
X100467639Y-57367210D01*
X100523411Y-57535523D01*
X100581059Y-57628984D01*
X100616496Y-57686436D01*
X100616501Y-57686442D01*
X100741868Y-57811809D01*
X100741874Y-57811814D01*
X100741875Y-57811815D01*
X100892788Y-57904900D01*
X101061101Y-57960672D01*
X101089432Y-57963566D01*
X101164974Y-57971285D01*
X101164982Y-57971285D01*
X102516078Y-57971285D01*
X102585324Y-57964209D01*
X102619951Y-57960672D01*
X102788264Y-57904900D01*
X102939177Y-57811815D01*
X103064556Y-57686436D01*
X103157641Y-57535523D01*
X103213413Y-57367210D01*
X103217741Y-57324845D01*
X103224026Y-57263337D01*
X103224026Y-56237232D01*
X103215924Y-56157941D01*
X103213413Y-56133360D01*
X103157641Y-55965047D01*
X103064556Y-55814134D01*
X103064555Y-55814133D01*
X103064550Y-55814127D01*
X102939183Y-55688760D01*
X102939177Y-55688755D01*
X102856181Y-55637562D01*
X102788264Y-55595670D01*
X102619951Y-55539898D01*
X102619949Y-55539897D01*
X102619947Y-55539897D01*
X102516078Y-55529285D01*
X102516070Y-55529285D01*
X101164982Y-55529285D01*
X101164974Y-55529285D01*
X101061104Y-55539897D01*
X100892788Y-55595670D01*
X100892786Y-55595671D01*
X100741874Y-55688755D01*
X100741868Y-55688760D01*
X100652417Y-55778212D01*
X100590105Y-55812238D01*
X100519290Y-55807173D01*
X100462454Y-55764626D01*
X100447934Y-55739729D01*
X100438944Y-55719235D01*
X100315851Y-55530826D01*
X100312336Y-55527008D01*
X107045702Y-55527008D01*
X107064666Y-55828441D01*
X107064669Y-55828465D01*
X107092560Y-55974673D01*
X107121267Y-56125162D01*
X107214607Y-56412432D01*
X107219464Y-56422754D01*
X107343212Y-56685733D01*
X107343220Y-56685747D01*
X107505059Y-56940765D01*
X107505061Y-56940768D01*
X107697598Y-57173505D01*
X107697600Y-57173507D01*
X107917786Y-57380276D01*
X108155821Y-57553218D01*
X108162153Y-57557818D01*
X108426844Y-57703334D01*
X108586626Y-57766596D01*
X108707680Y-57814525D01*
X108707683Y-57814525D01*
X108707686Y-57814527D01*
X109000250Y-57889644D01*
X109000256Y-57889644D01*
X109000257Y-57889645D01*
X109120821Y-57904876D01*
X109299921Y-57927502D01*
X109299924Y-57927502D01*
X109601972Y-57927502D01*
X109601975Y-57927502D01*
X109901646Y-57889644D01*
X110194210Y-57814527D01*
X110475052Y-57703334D01*
X110739743Y-57557818D01*
X110984110Y-57380276D01*
X111204297Y-57173506D01*
X111396833Y-56940770D01*
X111558681Y-56685738D01*
X111687289Y-56412432D01*
X111780629Y-56125162D01*
X111837228Y-55828459D01*
X111842810Y-55739729D01*
X111856194Y-55527008D01*
X111856194Y-55526995D01*
X111837229Y-55225562D01*
X111837228Y-55225545D01*
X111780629Y-54928842D01*
X111687289Y-54641572D01*
X111558681Y-54368266D01*
X111538537Y-54336524D01*
X111396836Y-54113238D01*
X111396834Y-54113235D01*
X111204297Y-53880498D01*
X111204295Y-53880496D01*
X110984109Y-53673727D01*
X110739745Y-53496187D01*
X110642522Y-53442738D01*
X110475052Y-53350670D01*
X110394218Y-53318665D01*
X110194215Y-53239478D01*
X110194208Y-53239476D01*
X109901638Y-53164358D01*
X109601989Y-53126503D01*
X109601977Y-53126502D01*
X109601975Y-53126502D01*
X109299921Y-53126502D01*
X109299918Y-53126502D01*
X109299906Y-53126503D01*
X109000257Y-53164358D01*
X108707687Y-53239476D01*
X108707680Y-53239478D01*
X108426844Y-53350670D01*
X108162150Y-53496187D01*
X107917787Y-53673727D01*
X107917786Y-53673727D01*
X107697600Y-53880496D01*
X107697598Y-53880498D01*
X107505061Y-54113235D01*
X107505059Y-54113238D01*
X107343220Y-54368256D01*
X107343212Y-54368270D01*
X107214610Y-54641565D01*
X107214608Y-54641569D01*
X107121268Y-54928838D01*
X107121266Y-54928846D01*
X107064669Y-55225538D01*
X107064666Y-55225562D01*
X107045702Y-55526995D01*
X107045702Y-55527008D01*
X100312336Y-55527008D01*
X100172544Y-55375152D01*
X100141124Y-55311487D01*
X100149111Y-55240941D01*
X100193970Y-55185912D01*
X100221205Y-55171762D01*
X100336730Y-55128674D01*
X100453787Y-55041046D01*
X100536994Y-54929895D01*
X100541413Y-54923992D01*
X100541413Y-54923991D01*
X100541415Y-54923989D01*
X100551723Y-54896350D01*
X100594269Y-54839517D01*
X100660789Y-54814706D01*
X100730163Y-54829797D01*
X100735925Y-54833145D01*
X100741875Y-54836815D01*
X100892788Y-54929900D01*
X101061101Y-54985672D01*
X101089432Y-54988566D01*
X101164974Y-54996285D01*
X101164982Y-54996285D01*
X102516078Y-54996285D01*
X102585324Y-54989209D01*
X102619951Y-54985672D01*
X102788264Y-54929900D01*
X102939177Y-54836815D01*
X103064556Y-54711436D01*
X103157641Y-54560523D01*
X103213413Y-54392210D01*
X103219102Y-54336524D01*
X103224026Y-54288337D01*
X103224026Y-53262232D01*
X103216066Y-53184330D01*
X103213413Y-53158360D01*
X103157641Y-52990047D01*
X103064556Y-52839134D01*
X103064555Y-52839133D01*
X103064550Y-52839127D01*
X102939183Y-52713760D01*
X102939177Y-52713755D01*
X102887150Y-52681664D01*
X102788264Y-52620670D01*
X102619951Y-52564898D01*
X102619949Y-52564897D01*
X102619947Y-52564897D01*
X102516078Y-52554285D01*
X102516070Y-52554285D01*
X101164982Y-52554285D01*
X101164974Y-52554285D01*
X101061104Y-52564897D01*
X100892788Y-52620670D01*
X100892786Y-52620671D01*
X100741874Y-52713755D01*
X100741868Y-52713760D01*
X100722424Y-52733205D01*
X100660112Y-52767231D01*
X100589297Y-52762166D01*
X100532461Y-52719619D01*
X100453787Y-52614523D01*
X100336733Y-52526897D01*
X100336728Y-52526895D01*
X100199730Y-52475796D01*
X100199722Y-52475794D01*
X100139175Y-52469285D01*
X100139164Y-52469285D01*
X98341888Y-52469285D01*
X98341876Y-52469285D01*
X98281329Y-52475794D01*
X98281321Y-52475796D01*
X98144323Y-52526895D01*
X98144318Y-52526897D01*
X98027266Y-52614522D01*
X97983479Y-52673015D01*
X97926643Y-52715561D01*
X97855827Y-52720625D01*
X97816467Y-52704747D01*
X97688264Y-52625670D01*
X97519951Y-52569898D01*
X97519949Y-52569897D01*
X97519947Y-52569897D01*
X97416078Y-52559285D01*
X97416070Y-52559285D01*
X96064982Y-52559285D01*
X96064974Y-52559285D01*
X95961104Y-52569897D01*
X95792788Y-52625670D01*
X95792786Y-52625671D01*
X95641874Y-52718755D01*
X95641868Y-52718760D01*
X95516501Y-52844127D01*
X95516496Y-52844133D01*
X95423412Y-52995045D01*
X95423411Y-52995047D01*
X95367638Y-53163363D01*
X95357026Y-53267232D01*
X95357026Y-54293337D01*
X95357025Y-54293337D01*
X95367638Y-54397206D01*
X95367638Y-54397208D01*
X95367639Y-54397210D01*
X95423411Y-54565523D01*
X95452527Y-54612727D01*
X95516496Y-54716436D01*
X95516501Y-54716442D01*
X95641868Y-54841809D01*
X95641874Y-54841814D01*
X95641875Y-54841815D01*
X95792788Y-54934900D01*
X95961101Y-54990672D01*
X95989432Y-54993566D01*
X96064974Y-55001285D01*
X96064982Y-55001285D01*
X97416078Y-55001285D01*
X97485324Y-54994209D01*
X97519951Y-54990672D01*
X97688264Y-54934900D01*
X97767811Y-54885834D01*
X97836291Y-54867096D01*
X97904030Y-54888355D01*
X97934827Y-54917565D01*
X98027264Y-55041046D01*
X98144318Y-55128672D01*
X98144322Y-55128674D01*
X98259838Y-55171760D01*
X98316674Y-55214307D01*
X98341484Y-55280827D01*
X98326392Y-55350201D01*
X98308507Y-55375152D01*
X98165200Y-55530826D01*
X98056570Y-55697098D01*
X98002566Y-55743186D01*
X97932218Y-55752761D01*
X97867861Y-55722784D01*
X97861992Y-55717277D01*
X97838871Y-55694156D01*
X97838865Y-55694151D01*
X97688051Y-55601127D01*
X97519847Y-55545391D01*
X97519844Y-55545390D01*
X97416041Y-55534785D01*
X96994526Y-55534785D01*
X96994526Y-57975784D01*
X97416033Y-57975784D01*
X97519844Y-57965179D01*
X97688051Y-57909442D01*
X97838865Y-57816418D01*
X97838871Y-57816413D01*
X97964154Y-57691130D01*
X97964159Y-57691124D01*
X98057183Y-57540309D01*
X98100206Y-57410473D01*
X98140620Y-57352101D01*
X98206176Y-57324845D01*
X98276061Y-57337358D01*
X98312513Y-57364769D01*
X98317620Y-57370316D01*
X98495224Y-57508552D01*
X98495230Y-57508556D01*
X98528733Y-57526687D01*
X98579123Y-57576700D01*
X98594475Y-57646017D01*
X98569914Y-57712630D01*
X98528733Y-57748313D01*
X98494956Y-57766592D01*
X98494950Y-57766596D01*
X98317288Y-57904876D01*
X98164805Y-58070514D01*
X98164801Y-58070519D01*
X98041667Y-58258991D01*
X97951229Y-58465171D01*
X97951228Y-58465172D01*
X97895963Y-58683409D01*
X97895962Y-58683415D01*
X97895962Y-58683417D01*
X97877370Y-58907785D01*
X97894109Y-59109796D01*
X97895963Y-59132160D01*
X97951228Y-59350397D01*
X97951230Y-59350403D01*
X97956887Y-59363300D01*
X97965930Y-59433718D01*
X97935466Y-59497847D01*
X97875168Y-59535326D01*
X97804180Y-59534255D01*
X97790256Y-59529018D01*
X97722814Y-59498991D01*
X97536013Y-59459285D01*
X97345039Y-59459285D01*
X97158237Y-59498991D01*
X96983773Y-59576667D01*
X96932719Y-59613760D01*
X96865851Y-59637618D01*
X96796700Y-59621536D01*
X96769564Y-59600918D01*
X96510931Y-59342285D01*
X96476905Y-59279973D01*
X96474026Y-59253190D01*
X96474026Y-58051639D01*
X96475774Y-58035801D01*
X96475482Y-58035774D01*
X96476322Y-58026884D01*
X96476927Y-58025368D01*
X96477062Y-58024147D01*
X96477959Y-58020135D01*
X96478929Y-58020351D01*
X96486526Y-58001321D01*
X96486526Y-55534785D01*
X96065018Y-55534785D01*
X95961207Y-55545390D01*
X95793000Y-55601127D01*
X95642186Y-55694151D01*
X95642180Y-55694156D01*
X95516897Y-55819439D01*
X95516892Y-55819445D01*
X95423868Y-55970259D01*
X95365969Y-56144991D01*
X95364672Y-56144561D01*
X95334409Y-56200413D01*
X95272208Y-56234639D01*
X95201376Y-56229804D01*
X95144403Y-56187441D01*
X95125193Y-56150543D01*
X95116946Y-56125162D01*
X95075053Y-55996229D01*
X94979566Y-55830841D01*
X94979564Y-55830839D01*
X94979560Y-55830833D01*
X94851781Y-55688920D01*
X94697278Y-55576667D01*
X94522814Y-55498991D01*
X94336013Y-55459285D01*
X94145039Y-55459285D01*
X93958237Y-55498991D01*
X93783773Y-55576667D01*
X93629270Y-55688920D01*
X93501491Y-55830833D01*
X93501484Y-55830843D01*
X93406002Y-55996223D01*
X93405999Y-55996230D01*
X93346983Y-56177857D01*
X93327022Y-56367785D01*
X93346983Y-56557712D01*
X93377052Y-56650255D01*
X93405999Y-56739341D01*
X93406002Y-56739346D01*
X93501484Y-56904726D01*
X93501491Y-56904736D01*
X93629270Y-57046649D01*
X93629273Y-57046651D01*
X93783774Y-57158903D01*
X93958238Y-57236579D01*
X94145039Y-57276285D01*
X94200932Y-57276285D01*
X94269053Y-57296287D01*
X94290021Y-57313184D01*
X95170123Y-58193286D01*
X95204146Y-58255595D01*
X95207026Y-58282378D01*
X95207026Y-59483931D01*
X95205277Y-59499773D01*
X95205570Y-59499801D01*
X95204824Y-59507692D01*
X95207026Y-59577742D01*
X95207026Y-59607636D01*
X95207027Y-59607657D01*
X95207904Y-59614605D01*
X95208370Y-59620517D01*
X95209852Y-59667673D01*
X95209853Y-59667678D01*
X95215503Y-59687124D01*
X95219512Y-59706482D01*
X95222051Y-59726578D01*
X95222052Y-59726584D01*
X95239419Y-59770447D01*
X95241342Y-59776064D01*
X95254508Y-59821378D01*
X95264820Y-59838816D01*
X95273514Y-59856564D01*
X95280970Y-59875394D01*
X95280976Y-59875405D01*
X95308703Y-59913568D01*
X95311963Y-59918531D01*
X95335986Y-59959150D01*
X95350305Y-59973469D01*
X95363143Y-59988499D01*
X95375052Y-60004889D01*
X95375056Y-60004894D01*
X95411406Y-60034965D01*
X95415799Y-60038962D01*
X95802501Y-60425665D01*
X95836526Y-60487977D01*
X95831461Y-60558793D01*
X95788914Y-60615628D01*
X95722394Y-60640439D01*
X95713405Y-60640760D01*
X86524492Y-60640760D01*
X86523190Y-60640832D01*
X86449698Y-60640877D01*
X86252032Y-60674111D01*
X86062620Y-60739658D01*
X85886693Y-60835710D01*
X85729133Y-60959598D01*
X85594295Y-61107901D01*
X85594287Y-61107912D01*
X85582398Y-61126408D01*
X85528738Y-61172895D01*
X85458463Y-61182992D01*
X85402349Y-61160214D01*
X85400568Y-61158920D01*
X85386752Y-61148882D01*
X85212288Y-61071206D01*
X85025487Y-61031500D01*
X84834513Y-61031500D01*
X84647711Y-61071206D01*
X84473247Y-61148882D01*
X84318747Y-61261133D01*
X84271498Y-61313610D01*
X84211052Y-61350850D01*
X84177861Y-61355300D01*
X83824380Y-61355300D01*
X83756259Y-61335298D01*
X83735285Y-61318395D01*
X83447763Y-61030873D01*
X83413737Y-60968561D01*
X83411548Y-60928607D01*
X83413504Y-60910000D01*
X83393542Y-60720072D01*
X83334527Y-60538444D01*
X83239040Y-60373056D01*
X83239038Y-60373054D01*
X83239034Y-60373048D01*
X83111255Y-60231135D01*
X82956752Y-60118882D01*
X82782288Y-60041206D01*
X82595487Y-60001500D01*
X82404513Y-60001500D01*
X82217711Y-60041206D01*
X82043247Y-60118882D01*
X81888744Y-60231135D01*
X81760965Y-60373048D01*
X81760958Y-60373058D01*
X81694610Y-60487977D01*
X81665473Y-60538444D01*
X81659212Y-60557713D01*
X81606457Y-60720072D01*
X81586496Y-60909999D01*
X81606457Y-61099927D01*
X81631684Y-61177565D01*
X81665473Y-61281556D01*
X81665476Y-61281561D01*
X81760958Y-61446941D01*
X81760965Y-61446951D01*
X81888744Y-61588864D01*
X81888747Y-61588866D01*
X82043248Y-61701118D01*
X82217712Y-61778794D01*
X82404513Y-61818500D01*
X82529420Y-61818500D01*
X82597541Y-61838502D01*
X82618514Y-61855404D01*
X83086532Y-62323422D01*
X83091964Y-62329616D01*
X83107614Y-62350011D01*
X83112987Y-62357013D01*
X83186307Y-62413273D01*
X83235127Y-62450734D01*
X83264883Y-62463059D01*
X83377363Y-62509650D01*
X83491679Y-62524700D01*
X83491681Y-62524700D01*
X83530000Y-62529745D01*
X83530001Y-62529745D01*
X83564222Y-62525240D01*
X83572454Y-62524700D01*
X84177861Y-62524700D01*
X84245982Y-62544702D01*
X84271496Y-62566388D01*
X84318747Y-62618866D01*
X84473248Y-62731118D01*
X84647712Y-62808794D01*
X84834513Y-62848500D01*
X85025487Y-62848500D01*
X85212288Y-62808794D01*
X85267073Y-62784401D01*
X85337440Y-62774968D01*
X85401737Y-62805074D01*
X85439551Y-62865163D01*
X85443753Y-62887546D01*
X85692071Y-65491167D01*
X85692141Y-65491631D01*
X85698963Y-65563642D01*
X85749582Y-65754543D01*
X85749584Y-65754550D01*
X85830715Y-65934611D01*
X85830716Y-65934612D01*
X85940179Y-66098994D01*
X85940183Y-66098999D01*
X86075033Y-66243285D01*
X86075037Y-66243288D01*
X86231658Y-66363603D01*
X86405834Y-66456708D01*
X86592882Y-66520100D01*
X86787775Y-66552076D01*
X86886524Y-66551867D01*
X86926405Y-66551806D01*
X86926405Y-66551805D01*
X86951165Y-66551768D01*
X86951317Y-66551766D01*
X98962554Y-66533352D01*
X98970844Y-66533887D01*
X98982948Y-66535473D01*
X98982955Y-66535476D01*
X99014283Y-66533403D01*
X99018302Y-66533267D01*
X99032415Y-66533246D01*
X99032426Y-66533243D01*
X99032827Y-66533198D01*
X99039775Y-66532791D01*
X99276850Y-66532059D01*
X99284744Y-66532532D01*
X99532998Y-66563178D01*
X99540773Y-66564640D01*
X99783207Y-66626216D01*
X99790748Y-66628646D01*
X100023509Y-66720172D01*
X100030696Y-66723534D01*
X100250128Y-66843568D01*
X100256836Y-66847807D01*
X100459449Y-66994441D01*
X100465572Y-66999488D01*
X100488928Y-67021350D01*
X100648177Y-67170414D01*
X100653613Y-67176186D01*
X100813302Y-67368682D01*
X100817975Y-67375096D01*
X100952229Y-67586128D01*
X100956057Y-67593075D01*
X101062747Y-67819291D01*
X101065669Y-67826657D01*
X101143109Y-68064489D01*
X101145086Y-68072174D01*
X101192043Y-68317833D01*
X101193040Y-68325705D01*
X101208893Y-68577179D01*
X101209018Y-68581143D01*
X101209018Y-68625903D01*
X101209872Y-68633915D01*
X101305312Y-74556092D01*
X101317070Y-81292827D01*
X101316609Y-81300549D01*
X101292608Y-81497922D01*
X101289043Y-81516034D01*
X101237356Y-81704519D01*
X101231184Y-81721912D01*
X101181840Y-81834128D01*
X101136111Y-81888434D01*
X101068280Y-81909396D01*
X100999883Y-81890359D01*
X100952637Y-81837365D01*
X100940500Y-81783409D01*
X100940500Y-81098367D01*
X100940500Y-80363362D01*
X100934468Y-80307250D01*
X100933990Y-80302803D01*
X100933988Y-80302795D01*
X100882889Y-80165797D01*
X100882887Y-80165792D01*
X100795261Y-80048738D01*
X100678207Y-79961112D01*
X100678202Y-79961110D01*
X100541204Y-79910011D01*
X100541196Y-79910009D01*
X100480649Y-79903500D01*
X100480638Y-79903500D01*
X98859362Y-79903500D01*
X98859350Y-79903500D01*
X98798803Y-79910009D01*
X98798795Y-79910011D01*
X98661797Y-79961110D01*
X98661792Y-79961112D01*
X98544738Y-80048738D01*
X98457112Y-80165792D01*
X98457110Y-80165797D01*
X98406011Y-80302795D01*
X98406009Y-80302803D01*
X98399500Y-80363350D01*
X98399500Y-81984649D01*
X98406009Y-82045196D01*
X98406011Y-82045204D01*
X98457110Y-82182202D01*
X98457112Y-82182207D01*
X98544738Y-82299261D01*
X98661791Y-82386886D01*
X98661792Y-82386886D01*
X98661796Y-82386889D01*
X98798799Y-82437989D01*
X98798803Y-82437989D01*
X98803679Y-82439808D01*
X98860514Y-82482355D01*
X98885325Y-82548875D01*
X98870233Y-82618250D01*
X98820031Y-82668452D01*
X98760320Y-82683862D01*
X88396890Y-82739306D01*
X88328663Y-82719669D01*
X88281884Y-82666263D01*
X88271404Y-82596044D01*
X88287097Y-82550307D01*
X88289036Y-82546948D01*
X88289040Y-82546944D01*
X88384527Y-82381556D01*
X88443542Y-82199928D01*
X88463504Y-82010000D01*
X88443542Y-81820072D01*
X88384527Y-81638444D01*
X88289040Y-81473056D01*
X88289038Y-81473054D01*
X88289034Y-81473048D01*
X88161255Y-81331135D01*
X88006752Y-81218882D01*
X87832288Y-81141206D01*
X87645487Y-81101500D01*
X87454513Y-81101500D01*
X87267711Y-81141206D01*
X87093247Y-81218882D01*
X86938747Y-81331133D01*
X86904815Y-81368818D01*
X86891836Y-81383235D01*
X86891498Y-81383610D01*
X86831052Y-81420850D01*
X86797861Y-81425300D01*
X85453066Y-81425300D01*
X85384945Y-81405298D01*
X85338452Y-81351642D01*
X85328348Y-81281368D01*
X85337678Y-81248687D01*
X85419296Y-81062616D01*
X85474564Y-80844368D01*
X85482735Y-80745763D01*
X92349500Y-80745763D01*
X92353396Y-80753854D01*
X92362711Y-80780475D01*
X92364710Y-80789231D01*
X92364711Y-80789232D01*
X92370304Y-80796245D01*
X92385317Y-80820136D01*
X92389212Y-80828224D01*
X92396229Y-80833820D01*
X92416180Y-80853771D01*
X92421776Y-80860788D01*
X92429863Y-80864682D01*
X92453749Y-80879692D01*
X92460769Y-80885290D01*
X92469521Y-80887287D01*
X92496149Y-80896605D01*
X92504237Y-80900500D01*
X95995762Y-80900500D01*
X95995763Y-80900500D01*
X96003850Y-80896605D01*
X96030482Y-80887286D01*
X96039231Y-80885290D01*
X96046249Y-80879692D01*
X96070143Y-80864679D01*
X96078224Y-80860788D01*
X96083817Y-80853773D01*
X96103773Y-80833817D01*
X96110788Y-80828224D01*
X96114679Y-80820143D01*
X96129692Y-80796249D01*
X96135290Y-80789231D01*
X96137287Y-80780480D01*
X96146605Y-80753850D01*
X96150500Y-80745763D01*
X96150500Y-80654237D01*
X96150500Y-78584649D01*
X98399500Y-78584649D01*
X98406009Y-78645196D01*
X98406011Y-78645204D01*
X98457110Y-78782202D01*
X98457112Y-78782207D01*
X98544738Y-78899261D01*
X98661792Y-78986887D01*
X98661794Y-78986888D01*
X98661796Y-78986889D01*
X98720875Y-79008924D01*
X98798795Y-79037988D01*
X98798803Y-79037990D01*
X98859350Y-79044499D01*
X98859355Y-79044499D01*
X98859362Y-79044500D01*
X98859368Y-79044500D01*
X100480632Y-79044500D01*
X100480638Y-79044500D01*
X100480645Y-79044499D01*
X100480649Y-79044499D01*
X100541196Y-79037990D01*
X100541199Y-79037989D01*
X100541201Y-79037989D01*
X100678204Y-78986889D01*
X100740285Y-78940416D01*
X100795261Y-78899261D01*
X100882887Y-78782207D01*
X100882887Y-78782206D01*
X100882889Y-78782204D01*
X100933989Y-78645201D01*
X100936577Y-78621135D01*
X100940499Y-78584649D01*
X100940500Y-78584632D01*
X100940500Y-76963367D01*
X100940499Y-76963350D01*
X100933990Y-76902803D01*
X100933988Y-76902795D01*
X100882889Y-76765797D01*
X100882887Y-76765792D01*
X100795261Y-76648738D01*
X100678207Y-76561112D01*
X100678202Y-76561110D01*
X100541204Y-76510011D01*
X100541196Y-76510009D01*
X100480649Y-76503500D01*
X100480638Y-76503500D01*
X98859362Y-76503500D01*
X98859350Y-76503500D01*
X98798803Y-76510009D01*
X98798795Y-76510011D01*
X98661797Y-76561110D01*
X98661792Y-76561112D01*
X98544738Y-76648738D01*
X98457112Y-76765792D01*
X98457110Y-76765797D01*
X98406011Y-76902795D01*
X98406009Y-76902803D01*
X98399500Y-76963350D01*
X98399500Y-78584649D01*
X96150500Y-78584649D01*
X96150500Y-77677410D01*
X96150500Y-77654237D01*
X96146605Y-77646149D01*
X96137287Y-77619521D01*
X96135290Y-77610769D01*
X96129692Y-77603749D01*
X96114682Y-77579863D01*
X96110788Y-77571776D01*
X96103771Y-77566180D01*
X96083820Y-77546229D01*
X96078224Y-77539212D01*
X96070136Y-77535317D01*
X96046247Y-77520305D01*
X96039231Y-77514710D01*
X96030475Y-77512711D01*
X96003854Y-77503396D01*
X95995763Y-77499500D01*
X95972590Y-77499500D01*
X92595763Y-77499500D01*
X92504237Y-77499500D01*
X92504234Y-77499500D01*
X92496142Y-77503397D01*
X92469526Y-77512710D01*
X92460771Y-77514708D01*
X92460765Y-77514711D01*
X92453742Y-77520312D01*
X92429870Y-77535312D01*
X92421781Y-77539208D01*
X92421776Y-77539212D01*
X92416177Y-77546233D01*
X92396235Y-77566174D01*
X92390225Y-77570968D01*
X92389212Y-77571776D01*
X92389208Y-77571781D01*
X92385312Y-77579870D01*
X92370312Y-77603742D01*
X92364711Y-77610765D01*
X92364708Y-77610771D01*
X92362710Y-77619526D01*
X92353397Y-77646142D01*
X92349500Y-77654234D01*
X92349500Y-77654236D01*
X92349500Y-77654237D01*
X92349500Y-77677410D01*
X92349500Y-80654237D01*
X92349500Y-80745763D01*
X85482735Y-80745763D01*
X85493156Y-80620000D01*
X85474564Y-80395632D01*
X85452183Y-80307250D01*
X85419297Y-80177387D01*
X85419296Y-80177386D01*
X85419296Y-80177384D01*
X85328860Y-79971209D01*
X85310403Y-79942959D01*
X85205724Y-79782734D01*
X85205720Y-79782729D01*
X85065636Y-79630560D01*
X85053240Y-79617094D01*
X85053239Y-79617093D01*
X85053237Y-79617091D01*
X84939134Y-79528281D01*
X84875576Y-79478811D01*
X84842319Y-79460813D01*
X84791929Y-79410802D01*
X84776576Y-79341485D01*
X84801136Y-79274872D01*
X84842320Y-79239186D01*
X84848115Y-79236050D01*
X84875576Y-79221189D01*
X85053240Y-79082906D01*
X85205722Y-78917268D01*
X85328860Y-78728791D01*
X85419296Y-78522616D01*
X85474564Y-78304368D01*
X85493156Y-78080000D01*
X85474564Y-77855632D01*
X85419296Y-77637384D01*
X85328860Y-77431209D01*
X85311734Y-77404996D01*
X85205724Y-77242734D01*
X85205720Y-77242729D01*
X85053237Y-77077091D01*
X84907125Y-76963367D01*
X84875576Y-76938811D01*
X84842319Y-76920813D01*
X84791929Y-76870802D01*
X84776576Y-76801485D01*
X84801136Y-76734872D01*
X84842320Y-76699186D01*
X84875576Y-76681189D01*
X85053240Y-76542906D01*
X85205722Y-76377268D01*
X85328860Y-76188791D01*
X85419296Y-75982616D01*
X85440922Y-75897214D01*
X85477035Y-75836088D01*
X85540462Y-75804189D01*
X85611066Y-75811646D01*
X85666431Y-75856090D01*
X85672186Y-75865145D01*
X85730958Y-75966941D01*
X85730965Y-75966951D01*
X85858744Y-76108864D01*
X85858747Y-76108866D01*
X86013248Y-76221118D01*
X86187712Y-76298794D01*
X86374513Y-76338500D01*
X86565487Y-76338500D01*
X86752288Y-76298794D01*
X86926752Y-76221118D01*
X87081253Y-76108866D01*
X87111046Y-76075778D01*
X87209034Y-75966951D01*
X87209035Y-75966949D01*
X87209040Y-75966944D01*
X87304527Y-75801556D01*
X87363542Y-75619928D01*
X87383504Y-75430000D01*
X87363542Y-75240072D01*
X87304527Y-75058444D01*
X87209040Y-74893056D01*
X87209038Y-74893054D01*
X87209034Y-74893048D01*
X87081255Y-74751135D01*
X86926752Y-74638882D01*
X86752288Y-74561206D01*
X86565487Y-74521500D01*
X86530581Y-74521500D01*
X86462460Y-74501498D01*
X86441486Y-74484595D01*
X85465921Y-73509030D01*
X85431895Y-73446718D01*
X85432871Y-73389005D01*
X85474564Y-73224368D01*
X85493156Y-73000000D01*
X85474564Y-72775632D01*
X85419296Y-72557384D01*
X85328860Y-72351209D01*
X85262784Y-72250072D01*
X85205724Y-72162734D01*
X85205720Y-72162729D01*
X85053237Y-71997091D01*
X84968659Y-71931261D01*
X84875576Y-71858811D01*
X84842319Y-71840813D01*
X84791929Y-71790802D01*
X84776576Y-71721485D01*
X84801136Y-71654872D01*
X84842320Y-71619186D01*
X84847008Y-71616649D01*
X84875576Y-71601189D01*
X85053240Y-71462906D01*
X85205722Y-71297268D01*
X85328860Y-71108791D01*
X85419296Y-70902616D01*
X85474564Y-70684368D01*
X85493156Y-70460000D01*
X85474564Y-70235632D01*
X85425672Y-70042563D01*
X85419297Y-70017387D01*
X85419296Y-70017386D01*
X85419296Y-70017384D01*
X85328860Y-69811209D01*
X85257259Y-69701615D01*
X85205724Y-69622734D01*
X85205719Y-69622729D01*
X85139477Y-69550772D01*
X85062524Y-69467179D01*
X85031103Y-69403514D01*
X85039090Y-69332968D01*
X85083948Y-69277939D01*
X85111183Y-69263789D01*
X85226204Y-69220889D01*
X85263480Y-69192985D01*
X85343261Y-69133261D01*
X85430887Y-69016207D01*
X85430887Y-69016206D01*
X85430889Y-69016204D01*
X85481989Y-68879201D01*
X85488499Y-68818652D01*
X85488499Y-68818649D01*
X85488500Y-68818632D01*
X85488500Y-67021367D01*
X85488499Y-67021350D01*
X85481990Y-66960803D01*
X85481988Y-66960795D01*
X85438975Y-66845475D01*
X85430889Y-66823796D01*
X85430888Y-66823794D01*
X85430887Y-66823792D01*
X85343261Y-66706738D01*
X85226207Y-66619112D01*
X85226202Y-66619110D01*
X85089204Y-66568011D01*
X85089196Y-66568009D01*
X85028649Y-66561500D01*
X85028638Y-66561500D01*
X83441431Y-66561500D01*
X83373310Y-66541498D01*
X83326817Y-66487842D01*
X83323376Y-66479533D01*
X83292889Y-66397797D01*
X83292887Y-66397792D01*
X83205261Y-66280738D01*
X83088207Y-66193112D01*
X83088202Y-66193110D01*
X82951204Y-66142011D01*
X82951196Y-66142009D01*
X82890649Y-66135500D01*
X82890638Y-66135500D01*
X81269362Y-66135500D01*
X81269350Y-66135500D01*
X81208803Y-66142009D01*
X81208795Y-66142011D01*
X81071797Y-66193110D01*
X81071792Y-66193113D01*
X80949999Y-66284286D01*
X80883478Y-66309097D01*
X80814104Y-66294005D01*
X80763902Y-66243803D01*
X80748811Y-66174429D01*
X80751051Y-66158144D01*
X80754408Y-66141756D01*
X80760813Y-65936237D01*
X80754510Y-65891250D01*
X80754526Y-65891142D01*
X80750080Y-65859525D01*
X80750079Y-65859513D01*
X80748670Y-65849501D01*
X80746549Y-65834422D01*
X80746550Y-65834422D01*
X80740996Y-65794929D01*
X80740995Y-65794928D01*
X80738776Y-65779146D01*
X80738771Y-65779130D01*
X80198532Y-61938387D01*
X80198532Y-61938366D01*
X80197571Y-61931540D01*
X80197609Y-61931274D01*
X80190337Y-61879919D01*
X80176942Y-61785324D01*
X80120725Y-61602703D01*
X80036331Y-61431273D01*
X79925885Y-61275349D01*
X79792167Y-61138856D01*
X79638543Y-61025232D01*
X79468882Y-60937337D01*
X79431651Y-60925033D01*
X79287461Y-60877384D01*
X79287450Y-60877382D01*
X79098826Y-60846879D01*
X79098829Y-60846879D01*
X78984179Y-60846708D01*
X78907749Y-60846595D01*
X78907748Y-60846595D01*
X78907747Y-60846595D01*
X78907743Y-60846595D01*
X78827779Y-60859210D01*
X78814451Y-60861313D01*
X73446053Y-61701117D01*
X60892811Y-63664880D01*
X60892793Y-63664882D01*
X60853585Y-63671016D01*
X60847541Y-63671665D01*
X60708979Y-63679809D01*
X60684721Y-63678892D01*
X60556242Y-63661539D01*
X60532611Y-63655987D01*
X60409846Y-63614318D01*
X60387718Y-63604338D01*
X60275216Y-63539896D01*
X60255411Y-63525856D01*
X60157360Y-63441040D01*
X60140616Y-63423464D01*
X60060650Y-63321419D01*
X60047590Y-63300964D01*
X59988671Y-63185465D01*
X59979777Y-63162884D01*
X59941604Y-63029507D01*
X59940223Y-63023626D01*
X59933527Y-62987297D01*
X59933526Y-62987296D01*
X59247172Y-59263623D01*
X58937186Y-57575522D01*
X66150479Y-57575522D01*
X66154504Y-57598346D01*
X66670466Y-60524521D01*
X66670469Y-60524530D01*
X66671424Y-60529946D01*
X66671424Y-60529948D01*
X66686532Y-60615628D01*
X66687318Y-60620083D01*
X66692556Y-60627368D01*
X66706356Y-60651975D01*
X66709842Y-60660245D01*
X66709846Y-60660251D01*
X66716573Y-60666187D01*
X66735508Y-60687111D01*
X66740746Y-60694396D01*
X66748625Y-60698686D01*
X66771745Y-60714875D01*
X66778467Y-60720808D01*
X66778470Y-60720810D01*
X66787104Y-60723239D01*
X66813238Y-60733874D01*
X66821125Y-60738169D01*
X66830084Y-60738615D01*
X66857938Y-60743169D01*
X66866574Y-60745600D01*
X66956709Y-60729707D01*
X66956709Y-60729706D01*
X70194955Y-60158715D01*
X70214918Y-60155195D01*
X70214920Y-60155196D01*
X70305055Y-60139303D01*
X70312342Y-60134063D01*
X70336953Y-60120260D01*
X70345222Y-60116775D01*
X70351161Y-60110044D01*
X70372077Y-60091116D01*
X70379368Y-60085875D01*
X70383665Y-60077983D01*
X70399845Y-60054876D01*
X70405782Y-60048150D01*
X70408211Y-60039514D01*
X70418845Y-60013383D01*
X70423141Y-60005496D01*
X70423588Y-59996527D01*
X70428142Y-59968681D01*
X70430572Y-59960046D01*
X70414679Y-59869911D01*
X70414678Y-59869910D01*
X69914981Y-57035987D01*
X69914981Y-57035982D01*
X69904732Y-56977858D01*
X69893735Y-56915487D01*
X69888494Y-56908197D01*
X69874690Y-56883584D01*
X69871207Y-56875320D01*
X69864474Y-56869378D01*
X69845548Y-56848464D01*
X69840307Y-56841174D01*
X69832416Y-56836877D01*
X69809310Y-56820697D01*
X69802582Y-56814760D01*
X69802580Y-56814759D01*
X69802578Y-56814758D01*
X69793936Y-56812326D01*
X69767814Y-56801695D01*
X69759930Y-56797401D01*
X69759926Y-56797400D01*
X69750958Y-56796953D01*
X69723119Y-56792401D01*
X69714478Y-56789970D01*
X69714477Y-56789970D01*
X69691658Y-56793994D01*
X66371558Y-57379416D01*
X66371550Y-57379418D01*
X66366133Y-57380374D01*
X66366132Y-57380374D01*
X66305974Y-57390981D01*
X66275996Y-57396268D01*
X66268707Y-57401509D01*
X66244106Y-57415306D01*
X66235831Y-57418794D01*
X66235826Y-57418797D01*
X66229885Y-57425530D01*
X66208975Y-57444453D01*
X66201683Y-57449695D01*
X66197386Y-57457587D01*
X66181211Y-57480688D01*
X66175268Y-57487422D01*
X66172836Y-57496066D01*
X66162208Y-57522183D01*
X66157910Y-57530075D01*
X66157910Y-57530076D01*
X66157463Y-57539037D01*
X66152912Y-57566877D01*
X66150479Y-57575522D01*
X58937186Y-57575522D01*
X58340876Y-54328174D01*
X65028050Y-54328174D01*
X65047014Y-54629607D01*
X65047017Y-54629631D01*
X65087055Y-54839517D01*
X65103615Y-54926328D01*
X65196955Y-55213598D01*
X65224529Y-55272196D01*
X65325560Y-55486899D01*
X65325568Y-55486913D01*
X65487407Y-55741931D01*
X65487409Y-55741934D01*
X65679946Y-55974671D01*
X65679948Y-55974673D01*
X65900134Y-56181442D01*
X66108717Y-56332986D01*
X66144501Y-56358984D01*
X66409192Y-56504500D01*
X66593895Y-56577629D01*
X66690028Y-56615691D01*
X66690031Y-56615691D01*
X66690034Y-56615693D01*
X66982598Y-56690810D01*
X66982604Y-56690810D01*
X66982605Y-56690811D01*
X67044126Y-56698583D01*
X67282269Y-56728668D01*
X67282272Y-56728668D01*
X67584320Y-56728668D01*
X67584323Y-56728668D01*
X67883994Y-56690810D01*
X68176558Y-56615693D01*
X68457400Y-56504500D01*
X68722091Y-56358984D01*
X68966458Y-56181442D01*
X69186645Y-55974672D01*
X69379181Y-55741936D01*
X69541029Y-55486904D01*
X69669637Y-55213598D01*
X69762977Y-54926328D01*
X69819576Y-54629625D01*
X69828176Y-54492930D01*
X69838542Y-54328174D01*
X69838542Y-54328161D01*
X69819577Y-54026728D01*
X69819576Y-54026711D01*
X69762977Y-53730008D01*
X69669637Y-53442738D01*
X69541029Y-53169432D01*
X69541023Y-53169422D01*
X69379184Y-52914404D01*
X69379182Y-52914401D01*
X69344464Y-52872434D01*
X72154026Y-52872434D01*
X72160535Y-52932981D01*
X72160537Y-52932989D01*
X72211636Y-53069987D01*
X72211638Y-53069992D01*
X72299264Y-53187046D01*
X72416318Y-53274672D01*
X72416320Y-53274673D01*
X72416322Y-53274674D01*
X72475401Y-53296709D01*
X72553321Y-53325773D01*
X72553329Y-53325775D01*
X72613876Y-53332284D01*
X72613881Y-53332284D01*
X72613888Y-53332285D01*
X72613894Y-53332285D01*
X74235158Y-53332285D01*
X74235164Y-53332285D01*
X74235171Y-53332284D01*
X74235175Y-53332284D01*
X74295722Y-53325775D01*
X74295725Y-53325774D01*
X74295727Y-53325774D01*
X74432730Y-53274674D01*
X74442660Y-53267241D01*
X74549787Y-53187046D01*
X74637413Y-53069992D01*
X74637413Y-53069991D01*
X74637415Y-53069989D01*
X74688515Y-52932986D01*
X74690514Y-52914400D01*
X74695025Y-52872434D01*
X74695026Y-52872417D01*
X74695026Y-51251152D01*
X74695025Y-51251135D01*
X74688516Y-51190588D01*
X74688514Y-51190580D01*
X74637415Y-51053582D01*
X74637413Y-51053577D01*
X74549787Y-50936523D01*
X74432733Y-50848897D01*
X74432728Y-50848895D01*
X74295730Y-50797796D01*
X74295722Y-50797794D01*
X74235175Y-50791285D01*
X74235164Y-50791285D01*
X72613888Y-50791285D01*
X72613876Y-50791285D01*
X72553329Y-50797794D01*
X72553321Y-50797796D01*
X72416323Y-50848895D01*
X72416318Y-50848897D01*
X72299264Y-50936523D01*
X72211638Y-51053577D01*
X72211636Y-51053582D01*
X72160537Y-51190580D01*
X72160535Y-51190588D01*
X72154026Y-51251135D01*
X72154026Y-52872434D01*
X69344464Y-52872434D01*
X69186645Y-52681664D01*
X69186643Y-52681662D01*
X68966457Y-52474893D01*
X68722093Y-52297353D01*
X68681522Y-52275049D01*
X68457400Y-52151836D01*
X68376566Y-52119831D01*
X68176563Y-52040644D01*
X68176556Y-52040642D01*
X67883986Y-51965524D01*
X67584337Y-51927669D01*
X67584325Y-51927668D01*
X67584323Y-51927668D01*
X67282269Y-51927668D01*
X67282266Y-51927668D01*
X67282254Y-51927669D01*
X66982605Y-51965524D01*
X66690035Y-52040642D01*
X66690028Y-52040644D01*
X66409192Y-52151836D01*
X66144498Y-52297353D01*
X65900135Y-52474893D01*
X65900134Y-52474893D01*
X65679948Y-52681662D01*
X65679946Y-52681664D01*
X65487409Y-52914401D01*
X65487407Y-52914404D01*
X65325568Y-53169422D01*
X65325560Y-53169436D01*
X65196958Y-53442731D01*
X65196956Y-53442735D01*
X65103616Y-53730004D01*
X65103614Y-53730012D01*
X65047017Y-54026704D01*
X65047014Y-54026728D01*
X65028050Y-54328161D01*
X65028050Y-54328174D01*
X58340876Y-54328174D01*
X57991539Y-52425779D01*
X57347609Y-48699765D01*
X57346860Y-48693667D01*
X57336559Y-48553214D01*
X57337166Y-48528597D01*
X57342686Y-48483790D01*
X57353245Y-48398059D01*
X57358630Y-48374030D01*
X57363615Y-48358903D01*
X57399797Y-48249107D01*
X57409749Y-48226595D01*
X57474432Y-48112062D01*
X57488566Y-48091923D01*
X57574298Y-47992154D01*
X57592085Y-47975146D01*
X57695584Y-47893962D01*
X57716328Y-47880745D01*
X57833653Y-47821238D01*
X57856578Y-47812307D01*
X57992582Y-47774138D01*
X57998574Y-47772768D01*
X58034390Y-47766409D01*
X58034391Y-47766407D01*
X58053439Y-47763026D01*
X58053446Y-47763023D01*
X74089329Y-44915527D01*
X74089531Y-44915512D01*
X74101580Y-44913367D01*
X74101582Y-44913368D01*
X74130665Y-44908192D01*
X74140848Y-44906380D01*
X74164040Y-44902603D01*
X74181141Y-44900328D01*
X74187337Y-44899505D01*
X74210713Y-44897092D01*
X74210712Y-44897091D01*
X74210973Y-44897064D01*
X74213425Y-44896847D01*
X74215434Y-44896670D01*
X74961431Y-44830747D01*
X76483249Y-44696267D01*
X76552864Y-44710195D01*
X76603899Y-44759550D01*
X76620150Y-44828662D01*
X76596456Y-44895588D01*
X76569849Y-44922645D01*
X76527264Y-44954524D01*
X76439638Y-45071577D01*
X76439636Y-45071582D01*
X76388537Y-45208580D01*
X76388535Y-45208588D01*
X76382026Y-45269135D01*
X76382026Y-47066434D01*
X76388535Y-47126981D01*
X76388537Y-47126989D01*
X76439636Y-47263987D01*
X76439638Y-47263992D01*
X76527264Y-47381046D01*
X76644317Y-47468671D01*
X76644318Y-47468671D01*
X76644322Y-47468674D01*
X76759336Y-47511572D01*
X76816168Y-47554117D01*
X76840979Y-47620637D01*
X76825888Y-47690011D01*
X76808001Y-47714964D01*
X76664806Y-47870514D01*
X76664801Y-47870519D01*
X76541667Y-48058991D01*
X76451229Y-48265171D01*
X76451228Y-48265172D01*
X76395963Y-48483409D01*
X76395962Y-48483415D01*
X76395962Y-48483417D01*
X76377370Y-48707785D01*
X76385367Y-48804298D01*
X76395963Y-48932160D01*
X76451228Y-49150397D01*
X76451229Y-49150398D01*
X76451230Y-49150401D01*
X76520725Y-49308834D01*
X76541667Y-49356578D01*
X76664801Y-49545050D01*
X76664805Y-49545055D01*
X76782776Y-49673204D01*
X76816134Y-49709440D01*
X76817288Y-49710693D01*
X76862306Y-49745732D01*
X76994950Y-49848974D01*
X77028206Y-49866971D01*
X77078597Y-49916985D01*
X77093949Y-49986301D01*
X77069388Y-50052914D01*
X77028206Y-50088598D01*
X76994952Y-50106595D01*
X76994950Y-50106596D01*
X76817288Y-50244876D01*
X76664805Y-50410514D01*
X76664801Y-50410519D01*
X76541667Y-50598991D01*
X76451229Y-50805171D01*
X76451228Y-50805172D01*
X76395963Y-51023409D01*
X76395962Y-51023415D01*
X76395962Y-51023417D01*
X76377370Y-51247785D01*
X76388535Y-51382528D01*
X76395963Y-51472160D01*
X76451228Y-51690397D01*
X76451229Y-51690398D01*
X76451230Y-51690401D01*
X76532058Y-51874672D01*
X76541667Y-51896578D01*
X76664801Y-52085050D01*
X76664805Y-52085055D01*
X76793065Y-52224381D01*
X76807278Y-52239820D01*
X76817288Y-52250693D01*
X76871857Y-52293166D01*
X76994950Y-52388974D01*
X77028206Y-52406971D01*
X77078597Y-52456985D01*
X77093949Y-52526301D01*
X77069388Y-52592914D01*
X77028206Y-52628598D01*
X76994952Y-52646595D01*
X76994950Y-52646596D01*
X76817288Y-52784876D01*
X76664805Y-52950514D01*
X76664801Y-52950519D01*
X76541667Y-53138991D01*
X76451229Y-53345171D01*
X76451228Y-53345172D01*
X76395963Y-53563409D01*
X76395962Y-53563415D01*
X76395962Y-53563417D01*
X76377370Y-53787785D01*
X76391228Y-53955028D01*
X76395963Y-54012160D01*
X76451228Y-54230397D01*
X76451229Y-54230398D01*
X76451230Y-54230401D01*
X76523225Y-54394534D01*
X76541667Y-54436578D01*
X76664801Y-54625050D01*
X76664805Y-54625055D01*
X76817288Y-54790693D01*
X76817643Y-54790969D01*
X76994950Y-54928974D01*
X77192952Y-55036127D01*
X77192953Y-55036127D01*
X77192954Y-55036128D01*
X77286841Y-55068359D01*
X77405891Y-55109229D01*
X77627957Y-55146285D01*
X77627961Y-55146285D01*
X77853091Y-55146285D01*
X77853095Y-55146285D01*
X78075161Y-55109229D01*
X78119818Y-55093897D01*
X78190742Y-55090696D01*
X78249826Y-55123975D01*
X80148232Y-57022381D01*
X80182258Y-57084693D01*
X80177193Y-57155508D01*
X80134646Y-57212344D01*
X80133198Y-57213412D01*
X80029273Y-57288918D01*
X80025963Y-57292595D01*
X79965517Y-57329835D01*
X79932326Y-57334285D01*
X77755121Y-57334285D01*
X77687000Y-57314283D01*
X77666026Y-57297380D01*
X77587647Y-57219001D01*
X77553621Y-57156689D01*
X77551434Y-57143091D01*
X77534068Y-56977857D01*
X77475053Y-56796229D01*
X77379566Y-56630841D01*
X77379564Y-56630839D01*
X77379560Y-56630833D01*
X77251781Y-56488920D01*
X77097278Y-56376667D01*
X76922814Y-56298991D01*
X76736013Y-56259285D01*
X76545039Y-56259285D01*
X76358237Y-56298991D01*
X76183773Y-56376667D01*
X76029269Y-56488921D01*
X76029267Y-56488923D01*
X76024764Y-56493924D01*
X75964315Y-56531159D01*
X75893331Y-56529801D01*
X75842040Y-56498701D01*
X75313598Y-55970259D01*
X74731931Y-55388591D01*
X74697905Y-55326279D01*
X74695026Y-55299496D01*
X74695026Y-54651152D01*
X74695025Y-54651135D01*
X74688516Y-54590588D01*
X74688514Y-54590580D01*
X74659450Y-54512660D01*
X74637415Y-54453581D01*
X74637414Y-54453579D01*
X74637413Y-54453577D01*
X74549787Y-54336523D01*
X74432733Y-54248897D01*
X74432728Y-54248895D01*
X74295730Y-54197796D01*
X74295722Y-54197794D01*
X74235175Y-54191285D01*
X74235164Y-54191285D01*
X72613888Y-54191285D01*
X72613876Y-54191285D01*
X72553329Y-54197794D01*
X72553321Y-54197796D01*
X72416323Y-54248895D01*
X72416318Y-54248897D01*
X72299264Y-54336523D01*
X72211638Y-54453577D01*
X72211636Y-54453582D01*
X72160537Y-54590580D01*
X72160535Y-54590588D01*
X72154026Y-54651135D01*
X72154026Y-56272434D01*
X72160535Y-56332981D01*
X72160537Y-56332989D01*
X72211636Y-56469987D01*
X72211638Y-56469992D01*
X72299264Y-56587046D01*
X72416318Y-56674672D01*
X72416320Y-56674673D01*
X72416322Y-56674674D01*
X72446010Y-56685747D01*
X72553321Y-56725773D01*
X72553329Y-56725775D01*
X72613876Y-56732284D01*
X72613881Y-56732284D01*
X72613888Y-56732285D01*
X72613894Y-56732285D01*
X74235158Y-56732285D01*
X74235164Y-56732285D01*
X74235171Y-56732284D01*
X74235175Y-56732284D01*
X74268808Y-56728668D01*
X74295727Y-56725774D01*
X74306965Y-56721581D01*
X74377781Y-56716513D01*
X74440092Y-56750533D01*
X76765766Y-59076207D01*
X76771198Y-59082401D01*
X76792219Y-59109796D01*
X76792221Y-59109798D01*
X76803735Y-59118633D01*
X76851112Y-59154987D01*
X76886900Y-59182447D01*
X76914361Y-59203519D01*
X76927292Y-59208875D01*
X77056597Y-59262435D01*
X77170913Y-59277485D01*
X77170915Y-59277485D01*
X77209234Y-59282530D01*
X77209235Y-59282530D01*
X77243456Y-59278025D01*
X77251688Y-59277485D01*
X78237861Y-59277485D01*
X78305982Y-59297487D01*
X78331496Y-59319173D01*
X78378747Y-59371651D01*
X78533248Y-59483903D01*
X78707712Y-59561579D01*
X78894513Y-59601285D01*
X79085487Y-59601285D01*
X79272288Y-59561579D01*
X79446752Y-59483903D01*
X79601253Y-59371651D01*
X79613099Y-59358495D01*
X79729034Y-59229736D01*
X79729035Y-59229734D01*
X79729040Y-59229729D01*
X79824527Y-59064341D01*
X79883542Y-58882713D01*
X79894119Y-58782072D01*
X79921132Y-58716417D01*
X79979353Y-58675786D01*
X80050298Y-58673083D01*
X80093487Y-58693305D01*
X80183774Y-58758903D01*
X80358238Y-58836579D01*
X80545039Y-58876285D01*
X80736013Y-58876285D01*
X80922814Y-58836579D01*
X81097278Y-58758903D01*
X81159704Y-58713548D01*
X85790026Y-58713548D01*
X85793922Y-58721639D01*
X85803237Y-58748260D01*
X85805236Y-58757016D01*
X85805237Y-58757017D01*
X85810830Y-58764030D01*
X85825843Y-58787921D01*
X85829738Y-58796009D01*
X85836755Y-58801605D01*
X85856706Y-58821556D01*
X85862302Y-58828573D01*
X85870389Y-58832467D01*
X85894275Y-58847477D01*
X85901295Y-58853075D01*
X85910047Y-58855072D01*
X85936675Y-58864390D01*
X85944763Y-58868285D01*
X89436288Y-58868285D01*
X89436289Y-58868285D01*
X89444376Y-58864390D01*
X89471008Y-58855071D01*
X89479757Y-58853075D01*
X89486775Y-58847477D01*
X89510669Y-58832464D01*
X89518750Y-58828573D01*
X89524343Y-58821558D01*
X89544299Y-58801602D01*
X89551314Y-58796009D01*
X89555205Y-58787928D01*
X89570218Y-58764034D01*
X89575816Y-58757016D01*
X89577813Y-58748265D01*
X89587131Y-58721635D01*
X89591026Y-58713548D01*
X89591026Y-58622022D01*
X89591026Y-58622021D01*
X89591026Y-55645195D01*
X89591026Y-55622022D01*
X89587131Y-55613934D01*
X89577813Y-55587306D01*
X89575816Y-55578554D01*
X89570218Y-55571534D01*
X89555208Y-55547648D01*
X89551314Y-55539561D01*
X89544297Y-55533965D01*
X89524346Y-55514014D01*
X89518750Y-55506997D01*
X89510662Y-55503102D01*
X89486773Y-55488090D01*
X89479757Y-55482495D01*
X89471001Y-55480496D01*
X89444380Y-55471181D01*
X89436289Y-55467285D01*
X89413116Y-55467285D01*
X86036289Y-55467285D01*
X85944763Y-55467285D01*
X85944760Y-55467285D01*
X85936668Y-55471182D01*
X85910052Y-55480495D01*
X85901297Y-55482493D01*
X85901291Y-55482496D01*
X85894268Y-55488097D01*
X85870396Y-55503097D01*
X85862307Y-55506993D01*
X85862302Y-55506997D01*
X85856703Y-55514018D01*
X85836761Y-55533959D01*
X85835727Y-55534785D01*
X85829738Y-55539561D01*
X85829734Y-55539566D01*
X85825838Y-55547655D01*
X85810838Y-55571527D01*
X85805237Y-55578550D01*
X85805234Y-55578556D01*
X85803236Y-55587311D01*
X85793923Y-55613927D01*
X85790026Y-55622019D01*
X85790026Y-55622021D01*
X85790026Y-55622022D01*
X85790026Y-55645195D01*
X85790026Y-58622021D01*
X85790026Y-58622022D01*
X85790026Y-58713548D01*
X81159704Y-58713548D01*
X81251779Y-58646651D01*
X81379566Y-58504729D01*
X81475053Y-58339341D01*
X81528463Y-58174962D01*
X81568537Y-58116357D01*
X81633933Y-58088720D01*
X81674493Y-58090652D01*
X81690612Y-58094079D01*
X81724510Y-58101285D01*
X81724513Y-58101285D01*
X81915487Y-58101285D01*
X82102288Y-58061579D01*
X82276752Y-57983903D01*
X82431253Y-57871651D01*
X82480985Y-57816418D01*
X82559034Y-57729736D01*
X82559035Y-57729734D01*
X82559040Y-57729729D01*
X82654527Y-57564341D01*
X82713542Y-57382713D01*
X82733504Y-57192785D01*
X82713542Y-57002857D01*
X82654527Y-56821229D01*
X82559040Y-56655841D01*
X82559038Y-56655839D01*
X82559034Y-56655833D01*
X82431255Y-56513920D01*
X82276752Y-56401667D01*
X82102288Y-56323991D01*
X81915487Y-56284285D01*
X81724513Y-56284285D01*
X81537711Y-56323991D01*
X81363243Y-56401669D01*
X81344920Y-56414981D01*
X81278051Y-56438837D01*
X81208901Y-56422754D01*
X81181768Y-56402137D01*
X79076447Y-54296816D01*
X79042421Y-54234504D01*
X79043398Y-54176789D01*
X79085090Y-54012153D01*
X79103682Y-53787785D01*
X79085090Y-53563417D01*
X79054528Y-53442731D01*
X79029823Y-53345172D01*
X79029822Y-53345171D01*
X79029822Y-53345169D01*
X78939386Y-53138994D01*
X78894302Y-53069987D01*
X78816250Y-52950519D01*
X78816246Y-52950514D01*
X78663763Y-52784876D01*
X78560812Y-52704746D01*
X78486102Y-52646596D01*
X78485152Y-52646082D01*
X78452846Y-52628599D01*
X78402455Y-52578587D01*
X78394189Y-52541266D01*
X85249250Y-52541266D01*
X85268214Y-52842699D01*
X85268217Y-52842723D01*
X85273883Y-52872423D01*
X85324815Y-53139420D01*
X85385365Y-53325774D01*
X85418156Y-53426692D01*
X85418158Y-53426696D01*
X85546760Y-53699991D01*
X85546768Y-53700005D01*
X85708607Y-53955023D01*
X85708609Y-53955026D01*
X85901146Y-54187763D01*
X85901148Y-54187765D01*
X86121334Y-54394534D01*
X86356681Y-54565523D01*
X86365701Y-54572076D01*
X86630392Y-54717592D01*
X86815722Y-54790969D01*
X86911228Y-54828783D01*
X86911231Y-54828783D01*
X86911234Y-54828785D01*
X87203798Y-54903902D01*
X87203804Y-54903902D01*
X87203805Y-54903903D01*
X87360862Y-54923744D01*
X87503469Y-54941760D01*
X87503472Y-54941760D01*
X87805520Y-54941760D01*
X87805523Y-54941760D01*
X88105194Y-54903902D01*
X88397758Y-54828785D01*
X88678600Y-54717592D01*
X88943291Y-54572076D01*
X89187658Y-54394534D01*
X89407845Y-54187764D01*
X89600381Y-53955028D01*
X89762229Y-53699996D01*
X89890837Y-53426690D01*
X89984177Y-53139420D01*
X90040776Y-52842717D01*
X90054247Y-52628599D01*
X90059742Y-52541266D01*
X90059742Y-52541253D01*
X90040777Y-52239820D01*
X90040776Y-52239803D01*
X89984177Y-51943100D01*
X89890837Y-51655830D01*
X89762229Y-51382524D01*
X89678855Y-51251147D01*
X89600384Y-51127496D01*
X89600382Y-51127493D01*
X89407845Y-50894756D01*
X89407843Y-50894754D01*
X89187657Y-50687985D01*
X88943293Y-50510445D01*
X88761529Y-50410519D01*
X88678600Y-50364928D01*
X88597766Y-50332923D01*
X88397763Y-50253736D01*
X88397756Y-50253734D01*
X88105186Y-50178616D01*
X87805537Y-50140761D01*
X87805525Y-50140760D01*
X87805523Y-50140760D01*
X87503469Y-50140760D01*
X87503466Y-50140760D01*
X87503454Y-50140761D01*
X87203805Y-50178616D01*
X86911235Y-50253734D01*
X86911228Y-50253736D01*
X86630392Y-50364928D01*
X86365698Y-50510445D01*
X86121335Y-50687985D01*
X86121334Y-50687985D01*
X85901148Y-50894754D01*
X85901146Y-50894756D01*
X85708609Y-51127493D01*
X85708607Y-51127496D01*
X85546768Y-51382514D01*
X85546760Y-51382528D01*
X85418158Y-51655823D01*
X85418156Y-51655827D01*
X85324816Y-51943096D01*
X85324814Y-51943104D01*
X85268217Y-52239796D01*
X85268214Y-52239820D01*
X85249250Y-52541253D01*
X85249250Y-52541266D01*
X78394189Y-52541266D01*
X78387102Y-52509270D01*
X78411662Y-52442657D01*
X78452846Y-52406971D01*
X78486102Y-52388974D01*
X78663766Y-52250691D01*
X78816248Y-52085053D01*
X78939386Y-51896576D01*
X79029822Y-51690401D01*
X79085090Y-51472153D01*
X79103682Y-51247785D01*
X79085090Y-51023417D01*
X79063086Y-50936524D01*
X79029823Y-50805172D01*
X79029822Y-50805171D01*
X79029822Y-50805169D01*
X78939386Y-50598994D01*
X78881534Y-50510445D01*
X78816250Y-50410519D01*
X78816246Y-50410514D01*
X78700096Y-50284343D01*
X78663766Y-50244879D01*
X78663765Y-50244878D01*
X78663763Y-50244876D01*
X78578632Y-50178616D01*
X78486102Y-50106596D01*
X78452845Y-50088598D01*
X78402455Y-50038587D01*
X78387102Y-49969270D01*
X78411662Y-49902657D01*
X78452846Y-49866971D01*
X78486102Y-49848974D01*
X78663766Y-49710691D01*
X78816248Y-49545053D01*
X78939386Y-49356576D01*
X79029822Y-49150401D01*
X79085090Y-48932153D01*
X79103682Y-48707785D01*
X79085090Y-48483417D01*
X79060365Y-48385781D01*
X79029823Y-48265172D01*
X79029822Y-48265171D01*
X79029822Y-48265169D01*
X78939386Y-48058994D01*
X78884602Y-47975140D01*
X78816250Y-47870519D01*
X78816245Y-47870514D01*
X78762659Y-47812305D01*
X78673050Y-47714964D01*
X78641629Y-47651299D01*
X78649616Y-47580753D01*
X78694474Y-47525724D01*
X78721709Y-47511574D01*
X78836730Y-47468674D01*
X78900032Y-47421287D01*
X78953787Y-47381046D01*
X79041413Y-47263992D01*
X79041413Y-47263991D01*
X79041415Y-47263989D01*
X79092515Y-47126986D01*
X79099026Y-47066423D01*
X79099026Y-46767785D01*
X81327022Y-46767785D01*
X81346983Y-46957712D01*
X81377052Y-47050255D01*
X81405999Y-47139341D01*
X81406002Y-47139346D01*
X81501484Y-47304726D01*
X81501491Y-47304736D01*
X81629270Y-47446649D01*
X81629273Y-47446651D01*
X81783774Y-47558903D01*
X81958238Y-47636579D01*
X82145039Y-47676285D01*
X82336013Y-47676285D01*
X82522814Y-47636579D01*
X82697278Y-47558903D01*
X82851779Y-47446651D01*
X82855088Y-47442975D01*
X82915535Y-47405735D01*
X82948726Y-47401285D01*
X86958235Y-47401285D01*
X87026356Y-47421287D01*
X87047329Y-47438189D01*
X88085424Y-48476285D01*
X89084984Y-49475845D01*
X89094949Y-49488282D01*
X89095176Y-49488095D01*
X89100228Y-49494202D01*
X89151307Y-49542168D01*
X89172452Y-49563314D01*
X89172456Y-49563317D01*
X89172459Y-49563320D01*
X89178011Y-49567627D01*
X89182498Y-49571458D01*
X89204081Y-49591726D01*
X89216906Y-49603770D01*
X89216908Y-49603771D01*
X89234657Y-49613528D01*
X89251182Y-49624383D01*
X89267188Y-49636799D01*
X89307378Y-49654190D01*
X89310491Y-49655537D01*
X89315812Y-49658143D01*
X89357169Y-49680880D01*
X89357177Y-49680882D01*
X89376787Y-49685917D01*
X89395496Y-49692322D01*
X89414084Y-49700366D01*
X89460706Y-49707749D01*
X89466491Y-49708948D01*
X89512199Y-49720685D01*
X89532453Y-49720685D01*
X89552163Y-49722236D01*
X89554370Y-49722585D01*
X89572172Y-49725405D01*
X89606099Y-49722197D01*
X89619146Y-49720965D01*
X89625079Y-49720685D01*
X96028084Y-49720685D01*
X96096205Y-49740687D01*
X96142698Y-49794343D01*
X96152839Y-49847773D01*
X96154026Y-49847773D01*
X96154026Y-51472434D01*
X96160535Y-51532981D01*
X96160537Y-51532989D01*
X96211636Y-51669987D01*
X96211638Y-51669992D01*
X96299264Y-51787046D01*
X96416318Y-51874672D01*
X96416320Y-51874673D01*
X96416322Y-51874674D01*
X96443602Y-51884849D01*
X96553321Y-51925773D01*
X96553329Y-51925775D01*
X96613876Y-51932284D01*
X96613881Y-51932284D01*
X96613888Y-51932285D01*
X96613894Y-51932285D01*
X98235158Y-51932285D01*
X98235164Y-51932285D01*
X98235171Y-51932284D01*
X98235175Y-51932284D01*
X98295722Y-51925775D01*
X98295727Y-51925774D01*
X98295730Y-51925773D01*
X98405450Y-51884848D01*
X98476264Y-51879783D01*
X98493515Y-51884849D01*
X98619321Y-51931773D01*
X98619329Y-51931775D01*
X98679876Y-51938284D01*
X98679881Y-51938284D01*
X98679888Y-51938285D01*
X98679894Y-51938285D01*
X100301158Y-51938285D01*
X100301164Y-51938285D01*
X100301171Y-51938284D01*
X100301175Y-51938284D01*
X100361722Y-51931775D01*
X100361725Y-51931774D01*
X100361727Y-51931774D01*
X100372736Y-51927668D01*
X100380571Y-51924745D01*
X100498730Y-51880674D01*
X100499921Y-51879783D01*
X100615787Y-51793046D01*
X100703413Y-51675992D01*
X100703413Y-51675991D01*
X100703415Y-51675989D01*
X100754515Y-51538986D01*
X100761026Y-51478423D01*
X100761026Y-49857147D01*
X100759771Y-49845481D01*
X100772378Y-49775612D01*
X100820756Y-49723650D01*
X100869259Y-49707005D01*
X100879923Y-49705659D01*
X100923805Y-49688284D01*
X100929400Y-49686368D01*
X100957942Y-49678076D01*
X100974717Y-49673204D01*
X100974721Y-49673202D01*
X100992152Y-49662893D01*
X101009906Y-49654194D01*
X101028743Y-49646737D01*
X101066912Y-49619003D01*
X101071870Y-49615747D01*
X101112488Y-49591727D01*
X101126811Y-49577403D01*
X101141850Y-49564559D01*
X101158233Y-49552657D01*
X101188314Y-49516293D01*
X101192292Y-49511921D01*
X102191026Y-48513189D01*
X102253339Y-48479164D01*
X102280122Y-48476285D01*
X102336013Y-48476285D01*
X102522814Y-48436579D01*
X102697278Y-48358903D01*
X102851779Y-48246651D01*
X102954121Y-48132989D01*
X102979560Y-48104736D01*
X102979561Y-48104734D01*
X102979566Y-48104729D01*
X103075053Y-47939341D01*
X103134068Y-47757713D01*
X103154030Y-47567785D01*
X103134068Y-47377857D01*
X103075053Y-47196229D01*
X102979566Y-47030841D01*
X102979564Y-47030839D01*
X102979560Y-47030833D01*
X102851781Y-46888920D01*
X102697278Y-46776667D01*
X102522814Y-46698991D01*
X102336013Y-46659285D01*
X102145039Y-46659285D01*
X101958237Y-46698991D01*
X101783773Y-46776667D01*
X101629270Y-46888920D01*
X101501491Y-47030833D01*
X101501484Y-47030843D01*
X101406002Y-47196223D01*
X101405999Y-47196230D01*
X101346983Y-47377857D01*
X101329619Y-47543075D01*
X101302606Y-47608732D01*
X101293404Y-47619000D01*
X100976121Y-47936283D01*
X100913809Y-47970309D01*
X100842994Y-47965244D01*
X100786158Y-47922697D01*
X100761347Y-47856177D01*
X100761026Y-47847188D01*
X100761026Y-46457152D01*
X100761025Y-46457135D01*
X100754516Y-46396588D01*
X100754514Y-46396580D01*
X100715378Y-46291656D01*
X100703415Y-46259581D01*
X100703414Y-46259579D01*
X100703413Y-46259577D01*
X100615787Y-46142523D01*
X100498733Y-46054897D01*
X100498728Y-46054895D01*
X100361730Y-46003796D01*
X100361722Y-46003794D01*
X100301175Y-45997285D01*
X100301164Y-45997285D01*
X98679888Y-45997285D01*
X98679876Y-45997285D01*
X98619329Y-46003794D01*
X98619326Y-46003795D01*
X98509601Y-46044721D01*
X98438786Y-46049785D01*
X98421538Y-46044721D01*
X98295727Y-45997796D01*
X98295725Y-45997795D01*
X98295723Y-45997795D01*
X98295722Y-45997794D01*
X98235175Y-45991285D01*
X98235164Y-45991285D01*
X96613888Y-45991285D01*
X96613876Y-45991285D01*
X96553329Y-45997794D01*
X96553321Y-45997796D01*
X96416323Y-46048895D01*
X96416318Y-46048897D01*
X96299264Y-46136523D01*
X96211638Y-46253577D01*
X96211636Y-46253582D01*
X96160537Y-46390580D01*
X96160535Y-46390588D01*
X96154026Y-46451135D01*
X96154026Y-48072434D01*
X96160535Y-48132981D01*
X96160537Y-48132989D01*
X96214786Y-48278432D01*
X96212756Y-48279188D01*
X96225260Y-48336680D01*
X96200445Y-48403199D01*
X96143608Y-48445743D01*
X96099581Y-48453685D01*
X89906823Y-48453685D01*
X89838702Y-48433683D01*
X89817728Y-48416780D01*
X88806683Y-47405735D01*
X87780073Y-46379124D01*
X87770108Y-46366686D01*
X87769881Y-46366875D01*
X87764830Y-46360769D01*
X87764829Y-46360767D01*
X87713750Y-46312801D01*
X87713749Y-46312800D01*
X87692606Y-46291656D01*
X87692601Y-46291651D01*
X87687054Y-46287348D01*
X87682546Y-46283497D01*
X87648154Y-46251202D01*
X87648148Y-46251198D01*
X87630392Y-46241436D01*
X87613876Y-46230587D01*
X87597870Y-46218171D01*
X87567118Y-46204863D01*
X87554569Y-46199433D01*
X87549237Y-46196821D01*
X87507890Y-46174090D01*
X87488265Y-46169051D01*
X87469565Y-46162649D01*
X87450974Y-46154604D01*
X87450972Y-46154603D01*
X87450971Y-46154603D01*
X87404371Y-46147222D01*
X87398558Y-46146018D01*
X87352859Y-46134285D01*
X87332605Y-46134285D01*
X87312895Y-46132734D01*
X87292886Y-46129565D01*
X87292885Y-46129565D01*
X87245912Y-46134005D01*
X87239979Y-46134285D01*
X82948726Y-46134285D01*
X82880605Y-46114283D01*
X82855089Y-46092595D01*
X82851778Y-46088918D01*
X82697278Y-45976667D01*
X82522814Y-45898991D01*
X82336013Y-45859285D01*
X82145039Y-45859285D01*
X81958237Y-45898991D01*
X81783773Y-45976667D01*
X81629270Y-46088920D01*
X81501491Y-46230833D01*
X81501484Y-46230843D01*
X81406002Y-46396223D01*
X81405999Y-46396229D01*
X81391525Y-46440771D01*
X81346983Y-46577857D01*
X81327022Y-46767785D01*
X79099026Y-46767785D01*
X79099026Y-45269147D01*
X79099025Y-45269135D01*
X79092516Y-45208588D01*
X79092514Y-45208580D01*
X79041415Y-45071582D01*
X79041413Y-45071577D01*
X78953787Y-44954523D01*
X78836733Y-44866897D01*
X78836728Y-44866895D01*
X78699730Y-44815796D01*
X78699722Y-44815794D01*
X78639175Y-44809285D01*
X78639164Y-44809285D01*
X78061577Y-44809285D01*
X77993456Y-44789283D01*
X77946963Y-44735627D01*
X77936859Y-44665353D01*
X77966353Y-44600773D01*
X78026079Y-44562389D01*
X78050486Y-44557774D01*
X78177125Y-44546583D01*
X79276552Y-44449429D01*
X79276600Y-44449429D01*
X79288510Y-44448375D01*
X79288512Y-44448376D01*
X79324226Y-44445217D01*
X79328240Y-44444862D01*
X79351655Y-44443138D01*
X79374031Y-44442148D01*
X79375116Y-44442101D01*
X79386720Y-44441930D01*
X79398325Y-44441760D01*
X79398596Y-44441760D01*
X79438478Y-44441760D01*
X95846436Y-44441760D01*
X95886316Y-44441761D01*
G37*
G04 #@! TD.AperFunction*
G04 #@! TA.AperFunction,Conductor*
G36*
X67470797Y-78556220D02*
G01*
X67529781Y-78595734D01*
X67557090Y-78654539D01*
X67587080Y-78824616D01*
X67588186Y-78830887D01*
X67594557Y-78852909D01*
X67605113Y-78889398D01*
X67679229Y-79015449D01*
X67785849Y-79115507D01*
X67785852Y-79115509D01*
X67916347Y-79181479D01*
X68038495Y-79204019D01*
X68101855Y-79236050D01*
X68137839Y-79297252D01*
X68135023Y-79368193D01*
X68121113Y-79396843D01*
X68012646Y-79562863D01*
X67922245Y-79768955D01*
X67922242Y-79768962D01*
X67866998Y-79987119D01*
X67849895Y-80193503D01*
X68563186Y-80067731D01*
X68633746Y-80075600D01*
X68688849Y-80120367D01*
X68711003Y-80187819D01*
X68711066Y-80191817D01*
X68711066Y-80283301D01*
X68747935Y-80408867D01*
X68747935Y-80479864D01*
X68709551Y-80539590D01*
X68648919Y-80568451D01*
X67939636Y-80693516D01*
X68012646Y-80859960D01*
X68135740Y-81048370D01*
X68288163Y-81213946D01*
X68465764Y-81352179D01*
X68465765Y-81352180D01*
X68663694Y-81459294D01*
X68663700Y-81459296D01*
X68712168Y-81475935D01*
X68770103Y-81516971D01*
X68796656Y-81582815D01*
X68783395Y-81652563D01*
X68748650Y-81694538D01*
X68728897Y-81709912D01*
X68576412Y-81875552D01*
X68576408Y-81875557D01*
X68453274Y-82064029D01*
X68362836Y-82270208D01*
X68327204Y-82410912D01*
X68291091Y-82472038D01*
X68227663Y-82503936D01*
X68157060Y-82496479D01*
X68115965Y-82469075D01*
X67271605Y-81624715D01*
X67237579Y-81562403D01*
X67234700Y-81535620D01*
X67234700Y-78756722D01*
X67254702Y-78688601D01*
X67267056Y-78672420D01*
X67339372Y-78592105D01*
X67399813Y-78554869D01*
X67470797Y-78556220D01*
G37*
G04 #@! TD.AperFunction*
G04 #@! TA.AperFunction,NonConductor*
G36*
X80727533Y-70553524D02*
G01*
X80784368Y-70596071D01*
X80809179Y-70662591D01*
X80809500Y-70671580D01*
X80809500Y-71616649D01*
X80816009Y-71677196D01*
X80816011Y-71677204D01*
X80867110Y-71814202D01*
X80867112Y-71814207D01*
X80954738Y-71931261D01*
X81071792Y-72018887D01*
X81071796Y-72018889D01*
X81199310Y-72066450D01*
X81256146Y-72108996D01*
X81280956Y-72175517D01*
X81275111Y-72223440D01*
X81266457Y-72250073D01*
X81246496Y-72439999D01*
X81266457Y-72629927D01*
X81296526Y-72722470D01*
X81325473Y-72811556D01*
X81325476Y-72811561D01*
X81401046Y-72942453D01*
X81420960Y-72976944D01*
X81542937Y-73112413D01*
X81573653Y-73176419D01*
X81575300Y-73196722D01*
X81575300Y-76067546D01*
X81574760Y-76075778D01*
X81570255Y-76109999D01*
X81575300Y-76148318D01*
X81590349Y-76262635D01*
X81605327Y-76298794D01*
X81649264Y-76404871D01*
X81683422Y-76449386D01*
X81742986Y-76527013D01*
X81770383Y-76548035D01*
X81776576Y-76553466D01*
X82794079Y-77570970D01*
X82828104Y-77633280D01*
X82827127Y-77690994D01*
X82785437Y-77855624D01*
X82766844Y-78080000D01*
X82785437Y-78304375D01*
X82840702Y-78522612D01*
X82840703Y-78522613D01*
X82840704Y-78522616D01*
X82906410Y-78672411D01*
X82931141Y-78728793D01*
X83054275Y-78917265D01*
X83054279Y-78917270D01*
X83206762Y-79082908D01*
X83241662Y-79110072D01*
X83384424Y-79221189D01*
X83411885Y-79236050D01*
X83417680Y-79239186D01*
X83468071Y-79289200D01*
X83483423Y-79358516D01*
X83458862Y-79425129D01*
X83417680Y-79460813D01*
X83384426Y-79478810D01*
X83384424Y-79478811D01*
X83206762Y-79617091D01*
X83054279Y-79782729D01*
X83054275Y-79782734D01*
X82931141Y-79971206D01*
X82840703Y-80177386D01*
X82840702Y-80177387D01*
X82785437Y-80395624D01*
X82785436Y-80395630D01*
X82785436Y-80395632D01*
X82766844Y-80620000D01*
X82785295Y-80842671D01*
X82785437Y-80844375D01*
X82840702Y-81062612D01*
X82840703Y-81062613D01*
X82840704Y-81062616D01*
X82913743Y-81229130D01*
X82922322Y-81248687D01*
X82931368Y-81319105D01*
X82900907Y-81383235D01*
X82840611Y-81420716D01*
X82806934Y-81425300D01*
X81756013Y-81425300D01*
X81687892Y-81405298D01*
X81666918Y-81388395D01*
X81497763Y-81219240D01*
X81463737Y-81156928D01*
X81461548Y-81116973D01*
X81463504Y-81098368D01*
X81443542Y-80908440D01*
X81384527Y-80726812D01*
X81289040Y-80561424D01*
X81289038Y-80561422D01*
X81289034Y-80561416D01*
X81161255Y-80419503D01*
X81006752Y-80307250D01*
X80832288Y-80229574D01*
X80645487Y-80189868D01*
X80560700Y-80189868D01*
X80492579Y-80169866D01*
X80446086Y-80116210D01*
X80434700Y-80063868D01*
X80434700Y-80056722D01*
X80454702Y-79988601D01*
X80467057Y-79972419D01*
X80589040Y-79836944D01*
X80684527Y-79671556D01*
X80743542Y-79489928D01*
X80763504Y-79300000D01*
X80743542Y-79110072D01*
X80684527Y-78928444D01*
X80589040Y-78763056D01*
X80589038Y-78763054D01*
X80589034Y-78763048D01*
X80461255Y-78621135D01*
X80306752Y-78508882D01*
X80132288Y-78431206D01*
X79945487Y-78391500D01*
X79754513Y-78391500D01*
X79567711Y-78431206D01*
X79393247Y-78508882D01*
X79238744Y-78621135D01*
X79110965Y-78763048D01*
X79110958Y-78763058D01*
X79021927Y-78917265D01*
X79015473Y-78928444D01*
X79000999Y-78972986D01*
X78956457Y-79110072D01*
X78936496Y-79299999D01*
X78956457Y-79489927D01*
X78973357Y-79541937D01*
X79015473Y-79671556D01*
X79015476Y-79671561D01*
X79079660Y-79782732D01*
X79110960Y-79836944D01*
X79232937Y-79972413D01*
X79263653Y-80036419D01*
X79265300Y-80056722D01*
X79265300Y-82305619D01*
X79245298Y-82373740D01*
X79228395Y-82394714D01*
X78249795Y-83373314D01*
X78187483Y-83407340D01*
X78116668Y-83402275D01*
X78059832Y-83359728D01*
X78035021Y-83293208D01*
X78034700Y-83284219D01*
X78034700Y-73194379D01*
X78054702Y-73126258D01*
X78071600Y-73105289D01*
X80594405Y-70582484D01*
X80656717Y-70548459D01*
X80727533Y-70553524D01*
G37*
G04 #@! TD.AperFunction*
G04 #@! TA.AperFunction,NonConductor*
G36*
X80647540Y-82026870D02*
G01*
X80668514Y-82043773D01*
X81018167Y-82393426D01*
X81023599Y-82399620D01*
X81032264Y-82410912D01*
X81044619Y-82427013D01*
X81075283Y-82450542D01*
X81166759Y-82520734D01*
X81225675Y-82545137D01*
X81308995Y-82579650D01*
X81423311Y-82594700D01*
X81423313Y-82594700D01*
X81461632Y-82599745D01*
X81461633Y-82599745D01*
X81495854Y-82595240D01*
X81504086Y-82594700D01*
X85285028Y-82594700D01*
X85353149Y-82614702D01*
X85399642Y-82668358D01*
X85409746Y-82738632D01*
X85380252Y-82803212D01*
X85320526Y-82841596D01*
X85304560Y-82845176D01*
X84590803Y-82957168D01*
X79907016Y-83692072D01*
X79836618Y-83682871D01*
X79782370Y-83637071D01*
X79761495Y-83569212D01*
X79780621Y-83500840D01*
X79798390Y-83478500D01*
X79992671Y-83284219D01*
X80233433Y-83043456D01*
X80239624Y-83038028D01*
X80267013Y-83017013D01*
X80297603Y-82977147D01*
X80360734Y-82894873D01*
X80419650Y-82752637D01*
X80439746Y-82600000D01*
X80439746Y-82599998D01*
X80435240Y-82565770D01*
X80434700Y-82557538D01*
X80434700Y-82132868D01*
X80454702Y-82064747D01*
X80508358Y-82018254D01*
X80560700Y-82006868D01*
X80579419Y-82006868D01*
X80647540Y-82026870D01*
G37*
G04 #@! TD.AperFunction*
M02*
