%TF.GenerationSoftware,KiCad,Pcbnew,7.0.7*%
%TF.CreationDate,2024-02-03T15:44:29+08:00*%
%TF.ProjectId,flex,666c6578-2e6b-4696-9361-645f70636258,rev?*%
%TF.SameCoordinates,Original*%
%TF.FileFunction,Drillmap*%
%TF.FilePolarity,Positive*%
%FSLAX45Y45*%
G04 Gerber Fmt 4.5, Leading zero omitted, Abs format (unit mm)*
G04 Created by KiCad (PCBNEW 7.0.7) date 2024-02-03 15:44:29*
%MOMM*%
%LPD*%
G01*
G04 APERTURE LIST*
%ADD10C,0.200000*%
%ADD11C,0.050000*%
%ADD12C,0.040000*%
%ADD13C,0.100000*%
G04 APERTURE END LIST*
D10*
X8555443Y-6193620D02*
X8588920Y-6544631D01*
D11*
X10151759Y-8130428D02*
X10150581Y-7455429D01*
D10*
X6578791Y-9159953D02*
G75*
G03*
X6498440Y-9277529I17799J-98407D01*
G01*
X7999179Y-6190786D02*
G75*
G03*
X7884479Y-6105951I-99029J-13934D01*
G01*
X6505684Y-8140108D02*
X6387312Y-7475569D01*
X9602204Y-6085052D02*
G75*
G03*
X9588632Y-6084126I-13574J-99048D01*
G01*
X9588632Y-6084126D02*
X8654991Y-6084126D01*
X7249653Y-8639773D02*
G75*
G03*
X7116613Y-8553580I-107073J-19497D01*
G01*
X9602204Y-4425051D02*
X10362119Y-4529147D01*
X6761335Y-10716293D02*
X6709820Y-10432825D01*
X8654991Y-6084132D02*
G75*
G03*
X8555443Y-6193620I-1J-99998D01*
G01*
X6963330Y-5432817D02*
G75*
G03*
X6963330Y-5432817I-220000J0D01*
G01*
X10140952Y-6857929D02*
X10150581Y-7455429D01*
X11940831Y-5072795D02*
X11835280Y-5450836D01*
X8620912Y-10470958D02*
G75*
G03*
X8710912Y-10370953I-1642J91978D01*
G01*
X8588925Y-6544631D02*
G75*
G03*
X8688622Y-6635137I99545J9491D01*
G01*
X7939859Y-4424126D02*
G75*
G03*
X7931057Y-4424514I1J-99894D01*
G01*
X8597566Y-8295276D02*
G75*
G03*
X8588763Y-8295665I4J-99994D01*
G01*
X5796008Y-4757601D02*
G75*
G03*
X5714951Y-4873086I17482J-98459D01*
G01*
X6399393Y-6973159D02*
G75*
G03*
X6318480Y-7089151I17537J-98451D01*
G01*
X11425000Y-6548437D02*
X11006407Y-6431563D01*
X8306806Y-10473223D02*
X6881811Y-10795943D01*
X8016904Y-8892278D02*
X8550202Y-8816586D01*
X5796007Y-4757597D02*
X7410571Y-4470898D01*
D11*
X10339365Y-6245322D02*
X11006407Y-6431563D01*
D10*
X8718416Y-9000722D02*
G75*
G03*
X8550202Y-8816586I-168216J15232D01*
G01*
X11653759Y-6100971D02*
X11548208Y-6479012D01*
X10339365Y-6245322D02*
X9929033Y-6130755D01*
X6399394Y-6973164D02*
X7972959Y-6698675D01*
X7939859Y-4424126D02*
X9588632Y-4424126D01*
X8054800Y-6586234D02*
X7999176Y-6190786D01*
X9970952Y-8287929D02*
X8597566Y-8295276D01*
X5974358Y-6306286D02*
X5905000Y-5930000D01*
X7972959Y-6698676D02*
G75*
G03*
X8054800Y-6586234I-17190J98516D01*
G01*
X9915712Y-6127996D02*
X9602204Y-6085051D01*
X7296108Y-8912783D02*
X7249657Y-8639772D01*
D11*
X11653759Y-6100971D02*
X11835280Y-5450836D01*
D10*
X6589129Y-9768703D02*
X6709820Y-10432825D01*
X5974357Y-6306286D02*
G75*
G03*
X6088157Y-6386958I98343J18126D01*
G01*
X10375440Y-4531905D02*
X11871407Y-4949587D01*
X6761337Y-10716293D02*
G75*
G03*
X6881811Y-10795943I98383J17873D01*
G01*
X5779416Y-5246102D02*
X5714951Y-4873086D01*
X7419305Y-4469737D02*
X7931057Y-4424514D01*
X8620912Y-10470953D02*
X8306806Y-10473223D01*
X8718413Y-9000722D02*
X8718413Y-9328376D01*
X8719591Y-10003374D02*
X8710912Y-10370953D01*
X5905000Y-5930000D02*
X5779416Y-5246102D01*
X6574516Y-8526526D02*
X6505684Y-8140108D01*
D11*
X8719591Y-10003374D02*
X8718413Y-9328376D01*
D10*
X6518949Y-9382528D02*
X6498440Y-9277529D01*
X6574521Y-8526525D02*
G75*
G03*
X6690503Y-8607439I98449J17535D01*
G01*
X9970952Y-8287927D02*
G75*
G03*
X10151759Y-8130428I14908J165418D01*
G01*
X7419305Y-4469737D02*
G75*
G03*
X7410571Y-4470898I8825J-99813D01*
G01*
X6387312Y-7475569D02*
X6318480Y-7089151D01*
X11940829Y-5072795D02*
G75*
G03*
X11871407Y-4949587I-96329J26885D01*
G01*
X11165095Y-5552700D02*
G75*
G03*
X11165095Y-5552700I-220000J0D01*
G01*
X10140953Y-6857929D02*
G75*
G03*
X9900952Y-6633278I-225143J-1D01*
G01*
X9602204Y-4425052D02*
G75*
G03*
X9588632Y-4424126I-13574J-99048D01*
G01*
X10375440Y-4531905D02*
G75*
G03*
X10362119Y-4529147I-26930J-96495D01*
G01*
X7209914Y-9045821D02*
G75*
G03*
X7296108Y-8912783I-19494J107071D01*
G01*
X7884479Y-6105950D02*
X6088157Y-6386958D01*
X9929033Y-6130755D02*
G75*
G03*
X9915712Y-6127996I-26883J-96275D01*
G01*
X7883858Y-8806086D02*
G75*
G03*
X8016904Y-8892278I107072J19496D01*
G01*
X7837410Y-8533074D02*
X7883861Y-8806086D01*
D11*
X7116613Y-8553580D02*
X6690503Y-8607439D01*
D10*
X8688622Y-6635137D02*
X9900952Y-6633278D01*
X6578791Y-9159955D02*
X7209915Y-9045827D01*
X11424999Y-6548439D02*
G75*
G03*
X11548208Y-6479012I26891J96319D01*
G01*
X8985450Y-5254126D02*
G75*
G03*
X8985450Y-5254126I-220000J0D01*
G01*
X6589129Y-9768703D02*
X6518949Y-9382528D01*
X7923601Y-8400026D02*
G75*
G03*
X7837410Y-8533074I19499J-107074D01*
G01*
X8588763Y-8295664D02*
X7923602Y-8400031D01*
D12*
X6645000Y-7780000D02*
X6685000Y-7820000D01*
X6685000Y-7780000D02*
X6645000Y-7820000D01*
X6925000Y-9366000D02*
X6965000Y-9406000D01*
X6965000Y-9366000D02*
X6925000Y-9406000D01*
X7316000Y-10104000D02*
X7356000Y-10144000D01*
X7356000Y-10104000D02*
X7316000Y-10144000D01*
X7404053Y-5856778D02*
X7444053Y-5896778D01*
X7444053Y-5856778D02*
X7404053Y-5896778D01*
X7595000Y-8334048D02*
X7635000Y-8374048D01*
X7635000Y-8334048D02*
X7595000Y-8374048D01*
X7644053Y-5696778D02*
X7684053Y-5736778D01*
X7684053Y-5696778D02*
X7644053Y-5736778D01*
X7805000Y-8950000D02*
X7845000Y-8990000D01*
X7845000Y-8950000D02*
X7805000Y-8990000D01*
X7879000Y-5849278D02*
X7919000Y-5889278D01*
X7919000Y-5849278D02*
X7879000Y-5889278D01*
X7880000Y-10418000D02*
X7920000Y-10458000D01*
X7920000Y-10418000D02*
X7880000Y-10458000D01*
X7965000Y-7910000D02*
X8005000Y-7950000D01*
X8005000Y-7910000D02*
X7965000Y-7950000D01*
X8035000Y-8089837D02*
X8075000Y-8129837D01*
X8075000Y-8089837D02*
X8035000Y-8129837D01*
X8044053Y-5776778D02*
X8084053Y-5816778D01*
X8084053Y-5776778D02*
X8044053Y-5816778D01*
X8162000Y-5699278D02*
X8202000Y-5739278D01*
X8202000Y-5699278D02*
X8162000Y-5739278D01*
X8196000Y-7224000D02*
X8236000Y-7264000D01*
X8236000Y-7224000D02*
X8196000Y-7264000D01*
X8204053Y-4656779D02*
X8244053Y-4696779D01*
X8244053Y-4656779D02*
X8204053Y-4696779D01*
X8230000Y-6071000D02*
X8270000Y-6111000D01*
X8270000Y-6071000D02*
X8230000Y-6111000D01*
X8473000Y-6174000D02*
X8513000Y-6214000D01*
X8513000Y-6174000D02*
X8473000Y-6214000D01*
X8627000Y-7523000D02*
X8667000Y-7563000D01*
X8667000Y-7523000D02*
X8627000Y-7563000D01*
X8640000Y-7997000D02*
X8680000Y-8037000D01*
X8680000Y-7997000D02*
X8640000Y-8037000D01*
X8684053Y-5936778D02*
X8724053Y-5976778D01*
X8724053Y-5936778D02*
X8684053Y-5976778D01*
X8735000Y-8181000D02*
X8775000Y-8221000D01*
X8775000Y-8181000D02*
X8735000Y-8221000D01*
X9404053Y-5616778D02*
X9444053Y-5656778D01*
X9444053Y-5616778D02*
X9404053Y-5656778D01*
X9559000Y-8113380D02*
X9599000Y-8153380D01*
X9599000Y-8113380D02*
X9559000Y-8153380D01*
X9724053Y-6016778D02*
X9764053Y-6056778D01*
X9764053Y-6016778D02*
X9724053Y-6056778D01*
X10204053Y-4736779D02*
X10244053Y-4776779D01*
X10244053Y-4736779D02*
X10204053Y-4776779D01*
X10284053Y-6096778D02*
X10324053Y-6136778D01*
X10324053Y-6096778D02*
X10284053Y-6136778D01*
D13*
X6927000Y-7771000D02*
G75*
G03*
X6927000Y-7771000I-50000J0D01*
G01*
X6971107Y-8021141D02*
G75*
G03*
X6971107Y-8021141I-50000J0D01*
G01*
X7015213Y-8271282D02*
G75*
G03*
X7015213Y-8271282I-50000J0D01*
G01*
X7824053Y-4616779D02*
G75*
G03*
X7824053Y-4616779I-50000J0D01*
G01*
X7824053Y-4870779D02*
G75*
G03*
X7824053Y-4870779I-50000J0D01*
G01*
X7824053Y-5124779D02*
G75*
G03*
X7824053Y-5124779I-50000J0D01*
G01*
X7824053Y-5378779D02*
G75*
G03*
X7824053Y-5378779I-50000J0D01*
G01*
X8463000Y-6792000D02*
G75*
G03*
X8463000Y-6792000I-50000J0D01*
G01*
X8463000Y-7046000D02*
G75*
G03*
X8463000Y-7046000I-50000J0D01*
G01*
X8463000Y-7300000D02*
G75*
G03*
X8463000Y-7300000I-50000J0D01*
G01*
X8463000Y-7554000D02*
G75*
G03*
X8463000Y-7554000I-50000J0D01*
G01*
X8463000Y-7808000D02*
G75*
G03*
X8463000Y-7808000I-50000J0D01*
G01*
X8463000Y-8062000D02*
G75*
G03*
X8463000Y-8062000I-50000J0D01*
G01*
X9974053Y-5382779D02*
G75*
G03*
X9974053Y-5382779I-50000J0D01*
G01*
X9974053Y-5636778D02*
G75*
G03*
X9974053Y-5636778I-50000J0D01*
G01*
X9974053Y-5890778D02*
G75*
G03*
X9974053Y-5890778I-50000J0D01*
G01*
D10*
X5964268Y-11119897D02*
X5964268Y-10919897D01*
X5964268Y-10919897D02*
X6011887Y-10919897D01*
X6011887Y-10919897D02*
X6040458Y-10929421D01*
X6040458Y-10929421D02*
X6059506Y-10948469D01*
X6059506Y-10948469D02*
X6069030Y-10967516D01*
X6069030Y-10967516D02*
X6078554Y-11005612D01*
X6078554Y-11005612D02*
X6078554Y-11034183D01*
X6078554Y-11034183D02*
X6069030Y-11072278D01*
X6069030Y-11072278D02*
X6059506Y-11091326D01*
X6059506Y-11091326D02*
X6040458Y-11110374D01*
X6040458Y-11110374D02*
X6011887Y-11119897D01*
X6011887Y-11119897D02*
X5964268Y-11119897D01*
X6164268Y-11119897D02*
X6164268Y-10986564D01*
X6164268Y-11024659D02*
X6173792Y-11005612D01*
X6173792Y-11005612D02*
X6183315Y-10996088D01*
X6183315Y-10996088D02*
X6202363Y-10986564D01*
X6202363Y-10986564D02*
X6221411Y-10986564D01*
X6288077Y-11119897D02*
X6288077Y-10986564D01*
X6288077Y-10919897D02*
X6278554Y-10929421D01*
X6278554Y-10929421D02*
X6288077Y-10938945D01*
X6288077Y-10938945D02*
X6297601Y-10929421D01*
X6297601Y-10929421D02*
X6288077Y-10919897D01*
X6288077Y-10919897D02*
X6288077Y-10938945D01*
X6411887Y-11119897D02*
X6392839Y-11110374D01*
X6392839Y-11110374D02*
X6383315Y-11091326D01*
X6383315Y-11091326D02*
X6383315Y-10919897D01*
X6516649Y-11119897D02*
X6497601Y-11110374D01*
X6497601Y-11110374D02*
X6488077Y-11091326D01*
X6488077Y-11091326D02*
X6488077Y-10919897D01*
X6745220Y-11119897D02*
X6745220Y-10919897D01*
X6745220Y-10919897D02*
X6811887Y-11062754D01*
X6811887Y-11062754D02*
X6878554Y-10919897D01*
X6878554Y-10919897D02*
X6878554Y-11119897D01*
X7059506Y-11119897D02*
X7059506Y-11015135D01*
X7059506Y-11015135D02*
X7049982Y-10996088D01*
X7049982Y-10996088D02*
X7030935Y-10986564D01*
X7030935Y-10986564D02*
X6992839Y-10986564D01*
X6992839Y-10986564D02*
X6973792Y-10996088D01*
X7059506Y-11110374D02*
X7040458Y-11119897D01*
X7040458Y-11119897D02*
X6992839Y-11119897D01*
X6992839Y-11119897D02*
X6973792Y-11110374D01*
X6973792Y-11110374D02*
X6964268Y-11091326D01*
X6964268Y-11091326D02*
X6964268Y-11072278D01*
X6964268Y-11072278D02*
X6973792Y-11053231D01*
X6973792Y-11053231D02*
X6992839Y-11043707D01*
X6992839Y-11043707D02*
X7040458Y-11043707D01*
X7040458Y-11043707D02*
X7059506Y-11034183D01*
X7154744Y-10986564D02*
X7154744Y-11186564D01*
X7154744Y-10996088D02*
X7173792Y-10986564D01*
X7173792Y-10986564D02*
X7211887Y-10986564D01*
X7211887Y-10986564D02*
X7230935Y-10996088D01*
X7230935Y-10996088D02*
X7240458Y-11005612D01*
X7240458Y-11005612D02*
X7249982Y-11024659D01*
X7249982Y-11024659D02*
X7249982Y-11081802D01*
X7249982Y-11081802D02*
X7240458Y-11100850D01*
X7240458Y-11100850D02*
X7230935Y-11110374D01*
X7230935Y-11110374D02*
X7211887Y-11119897D01*
X7211887Y-11119897D02*
X7173792Y-11119897D01*
X7173792Y-11119897D02*
X7154744Y-11110374D01*
X7335696Y-11100850D02*
X7345220Y-11110374D01*
X7345220Y-11110374D02*
X7335696Y-11119897D01*
X7335696Y-11119897D02*
X7326173Y-11110374D01*
X7326173Y-11110374D02*
X7335696Y-11100850D01*
X7335696Y-11100850D02*
X7335696Y-11119897D01*
X7335696Y-10996088D02*
X7345220Y-11005612D01*
X7345220Y-11005612D02*
X7335696Y-11015135D01*
X7335696Y-11015135D02*
X7326173Y-11005612D01*
X7326173Y-11005612D02*
X7335696Y-10996088D01*
X7335696Y-10996088D02*
X7335696Y-11015135D01*
D12*
X5663491Y-11428413D02*
X5703491Y-11468413D01*
X5703491Y-11428413D02*
X5663491Y-11468413D01*
D10*
X6002363Y-11339897D02*
X6021411Y-11339897D01*
X6021411Y-11339897D02*
X6040458Y-11349421D01*
X6040458Y-11349421D02*
X6049982Y-11358945D01*
X6049982Y-11358945D02*
X6059506Y-11377992D01*
X6059506Y-11377992D02*
X6069030Y-11416088D01*
X6069030Y-11416088D02*
X6069030Y-11463707D01*
X6069030Y-11463707D02*
X6059506Y-11501802D01*
X6059506Y-11501802D02*
X6049982Y-11520850D01*
X6049982Y-11520850D02*
X6040458Y-11530373D01*
X6040458Y-11530373D02*
X6021411Y-11539897D01*
X6021411Y-11539897D02*
X6002363Y-11539897D01*
X6002363Y-11539897D02*
X5983315Y-11530373D01*
X5983315Y-11530373D02*
X5973792Y-11520850D01*
X5973792Y-11520850D02*
X5964268Y-11501802D01*
X5964268Y-11501802D02*
X5954744Y-11463707D01*
X5954744Y-11463707D02*
X5954744Y-11416088D01*
X5954744Y-11416088D02*
X5964268Y-11377992D01*
X5964268Y-11377992D02*
X5973792Y-11358945D01*
X5973792Y-11358945D02*
X5983315Y-11349421D01*
X5983315Y-11349421D02*
X6002363Y-11339897D01*
X6154744Y-11520850D02*
X6164268Y-11530373D01*
X6164268Y-11530373D02*
X6154744Y-11539897D01*
X6154744Y-11539897D02*
X6145220Y-11530373D01*
X6145220Y-11530373D02*
X6154744Y-11520850D01*
X6154744Y-11520850D02*
X6154744Y-11539897D01*
X6335696Y-11406564D02*
X6335696Y-11539897D01*
X6288077Y-11330373D02*
X6240458Y-11473231D01*
X6240458Y-11473231D02*
X6364268Y-11473231D01*
X6478554Y-11339897D02*
X6497601Y-11339897D01*
X6497601Y-11339897D02*
X6516649Y-11349421D01*
X6516649Y-11349421D02*
X6526173Y-11358945D01*
X6526173Y-11358945D02*
X6535696Y-11377992D01*
X6535696Y-11377992D02*
X6545220Y-11416088D01*
X6545220Y-11416088D02*
X6545220Y-11463707D01*
X6545220Y-11463707D02*
X6535696Y-11501802D01*
X6535696Y-11501802D02*
X6526173Y-11520850D01*
X6526173Y-11520850D02*
X6516649Y-11530373D01*
X6516649Y-11530373D02*
X6497601Y-11539897D01*
X6497601Y-11539897D02*
X6478554Y-11539897D01*
X6478554Y-11539897D02*
X6459506Y-11530373D01*
X6459506Y-11530373D02*
X6449982Y-11520850D01*
X6449982Y-11520850D02*
X6440458Y-11501802D01*
X6440458Y-11501802D02*
X6430935Y-11463707D01*
X6430935Y-11463707D02*
X6430935Y-11416088D01*
X6430935Y-11416088D02*
X6440458Y-11377992D01*
X6440458Y-11377992D02*
X6449982Y-11358945D01*
X6449982Y-11358945D02*
X6459506Y-11349421D01*
X6459506Y-11349421D02*
X6478554Y-11339897D01*
X6669030Y-11339897D02*
X6688077Y-11339897D01*
X6688077Y-11339897D02*
X6707125Y-11349421D01*
X6707125Y-11349421D02*
X6716649Y-11358945D01*
X6716649Y-11358945D02*
X6726173Y-11377992D01*
X6726173Y-11377992D02*
X6735696Y-11416088D01*
X6735696Y-11416088D02*
X6735696Y-11463707D01*
X6735696Y-11463707D02*
X6726173Y-11501802D01*
X6726173Y-11501802D02*
X6716649Y-11520850D01*
X6716649Y-11520850D02*
X6707125Y-11530373D01*
X6707125Y-11530373D02*
X6688077Y-11539897D01*
X6688077Y-11539897D02*
X6669030Y-11539897D01*
X6669030Y-11539897D02*
X6649982Y-11530373D01*
X6649982Y-11530373D02*
X6640458Y-11520850D01*
X6640458Y-11520850D02*
X6630935Y-11501802D01*
X6630935Y-11501802D02*
X6621411Y-11463707D01*
X6621411Y-11463707D02*
X6621411Y-11416088D01*
X6621411Y-11416088D02*
X6630935Y-11377992D01*
X6630935Y-11377992D02*
X6640458Y-11358945D01*
X6640458Y-11358945D02*
X6649982Y-11349421D01*
X6649982Y-11349421D02*
X6669030Y-11339897D01*
X6821411Y-11539897D02*
X6821411Y-11406564D01*
X6821411Y-11425611D02*
X6830935Y-11416088D01*
X6830935Y-11416088D02*
X6849982Y-11406564D01*
X6849982Y-11406564D02*
X6878554Y-11406564D01*
X6878554Y-11406564D02*
X6897601Y-11416088D01*
X6897601Y-11416088D02*
X6907125Y-11435135D01*
X6907125Y-11435135D02*
X6907125Y-11539897D01*
X6907125Y-11435135D02*
X6916649Y-11416088D01*
X6916649Y-11416088D02*
X6935696Y-11406564D01*
X6935696Y-11406564D02*
X6964268Y-11406564D01*
X6964268Y-11406564D02*
X6983316Y-11416088D01*
X6983316Y-11416088D02*
X6992839Y-11435135D01*
X6992839Y-11435135D02*
X6992839Y-11539897D01*
X7088077Y-11539897D02*
X7088077Y-11406564D01*
X7088077Y-11425611D02*
X7097601Y-11416088D01*
X7097601Y-11416088D02*
X7116649Y-11406564D01*
X7116649Y-11406564D02*
X7145220Y-11406564D01*
X7145220Y-11406564D02*
X7164268Y-11416088D01*
X7164268Y-11416088D02*
X7173792Y-11435135D01*
X7173792Y-11435135D02*
X7173792Y-11539897D01*
X7173792Y-11435135D02*
X7183316Y-11416088D01*
X7183316Y-11416088D02*
X7202363Y-11406564D01*
X7202363Y-11406564D02*
X7230935Y-11406564D01*
X7230935Y-11406564D02*
X7249982Y-11416088D01*
X7249982Y-11416088D02*
X7259506Y-11435135D01*
X7259506Y-11435135D02*
X7259506Y-11539897D01*
X7649982Y-11330373D02*
X7478554Y-11587516D01*
X7907125Y-11339897D02*
X7926173Y-11339897D01*
X7926173Y-11339897D02*
X7945220Y-11349421D01*
X7945220Y-11349421D02*
X7954744Y-11358945D01*
X7954744Y-11358945D02*
X7964268Y-11377992D01*
X7964268Y-11377992D02*
X7973792Y-11416088D01*
X7973792Y-11416088D02*
X7973792Y-11463707D01*
X7973792Y-11463707D02*
X7964268Y-11501802D01*
X7964268Y-11501802D02*
X7954744Y-11520850D01*
X7954744Y-11520850D02*
X7945220Y-11530373D01*
X7945220Y-11530373D02*
X7926173Y-11539897D01*
X7926173Y-11539897D02*
X7907125Y-11539897D01*
X7907125Y-11539897D02*
X7888078Y-11530373D01*
X7888078Y-11530373D02*
X7878554Y-11520850D01*
X7878554Y-11520850D02*
X7869030Y-11501802D01*
X7869030Y-11501802D02*
X7859506Y-11463707D01*
X7859506Y-11463707D02*
X7859506Y-11416088D01*
X7859506Y-11416088D02*
X7869030Y-11377992D01*
X7869030Y-11377992D02*
X7878554Y-11358945D01*
X7878554Y-11358945D02*
X7888078Y-11349421D01*
X7888078Y-11349421D02*
X7907125Y-11339897D01*
X8059506Y-11520850D02*
X8069030Y-11530373D01*
X8069030Y-11530373D02*
X8059506Y-11539897D01*
X8059506Y-11539897D02*
X8049982Y-11530373D01*
X8049982Y-11530373D02*
X8059506Y-11520850D01*
X8059506Y-11520850D02*
X8059506Y-11539897D01*
X8192839Y-11339897D02*
X8211887Y-11339897D01*
X8211887Y-11339897D02*
X8230935Y-11349421D01*
X8230935Y-11349421D02*
X8240459Y-11358945D01*
X8240459Y-11358945D02*
X8249982Y-11377992D01*
X8249982Y-11377992D02*
X8259506Y-11416088D01*
X8259506Y-11416088D02*
X8259506Y-11463707D01*
X8259506Y-11463707D02*
X8249982Y-11501802D01*
X8249982Y-11501802D02*
X8240459Y-11520850D01*
X8240459Y-11520850D02*
X8230935Y-11530373D01*
X8230935Y-11530373D02*
X8211887Y-11539897D01*
X8211887Y-11539897D02*
X8192839Y-11539897D01*
X8192839Y-11539897D02*
X8173792Y-11530373D01*
X8173792Y-11530373D02*
X8164268Y-11520850D01*
X8164268Y-11520850D02*
X8154744Y-11501802D01*
X8154744Y-11501802D02*
X8145220Y-11463707D01*
X8145220Y-11463707D02*
X8145220Y-11416088D01*
X8145220Y-11416088D02*
X8154744Y-11377992D01*
X8154744Y-11377992D02*
X8164268Y-11358945D01*
X8164268Y-11358945D02*
X8173792Y-11349421D01*
X8173792Y-11349421D02*
X8192839Y-11339897D01*
X8449982Y-11539897D02*
X8335697Y-11539897D01*
X8392840Y-11539897D02*
X8392840Y-11339897D01*
X8392840Y-11339897D02*
X8373792Y-11368469D01*
X8373792Y-11368469D02*
X8354744Y-11387516D01*
X8354744Y-11387516D02*
X8335697Y-11397040D01*
X8630935Y-11339897D02*
X8535697Y-11339897D01*
X8535697Y-11339897D02*
X8526173Y-11435135D01*
X8526173Y-11435135D02*
X8535697Y-11425611D01*
X8535697Y-11425611D02*
X8554744Y-11416088D01*
X8554744Y-11416088D02*
X8602363Y-11416088D01*
X8602363Y-11416088D02*
X8621411Y-11425611D01*
X8621411Y-11425611D02*
X8630935Y-11435135D01*
X8630935Y-11435135D02*
X8640459Y-11454183D01*
X8640459Y-11454183D02*
X8640459Y-11501802D01*
X8640459Y-11501802D02*
X8630935Y-11520850D01*
X8630935Y-11520850D02*
X8621411Y-11530373D01*
X8621411Y-11530373D02*
X8602363Y-11539897D01*
X8602363Y-11539897D02*
X8554744Y-11539897D01*
X8554744Y-11539897D02*
X8535697Y-11530373D01*
X8535697Y-11530373D02*
X8526173Y-11520850D01*
X8707125Y-11339897D02*
X8840459Y-11339897D01*
X8840459Y-11339897D02*
X8754744Y-11539897D01*
X8907125Y-11339897D02*
X8907125Y-11377992D01*
X8983316Y-11339897D02*
X8983316Y-11377992D01*
X9278554Y-11616088D02*
X9269030Y-11606564D01*
X9269030Y-11606564D02*
X9249983Y-11577992D01*
X9249983Y-11577992D02*
X9240459Y-11558945D01*
X9240459Y-11558945D02*
X9230935Y-11530373D01*
X9230935Y-11530373D02*
X9221411Y-11482754D01*
X9221411Y-11482754D02*
X9221411Y-11444659D01*
X9221411Y-11444659D02*
X9230935Y-11397040D01*
X9230935Y-11397040D02*
X9240459Y-11368469D01*
X9240459Y-11368469D02*
X9249983Y-11349421D01*
X9249983Y-11349421D02*
X9269030Y-11320850D01*
X9269030Y-11320850D02*
X9278554Y-11311326D01*
X9345221Y-11358945D02*
X9354744Y-11349421D01*
X9354744Y-11349421D02*
X9373792Y-11339897D01*
X9373792Y-11339897D02*
X9421411Y-11339897D01*
X9421411Y-11339897D02*
X9440459Y-11349421D01*
X9440459Y-11349421D02*
X9449983Y-11358945D01*
X9449983Y-11358945D02*
X9459506Y-11377992D01*
X9459506Y-11377992D02*
X9459506Y-11397040D01*
X9459506Y-11397040D02*
X9449983Y-11425611D01*
X9449983Y-11425611D02*
X9335697Y-11539897D01*
X9335697Y-11539897D02*
X9459506Y-11539897D01*
X9630935Y-11339897D02*
X9592840Y-11339897D01*
X9592840Y-11339897D02*
X9573792Y-11349421D01*
X9573792Y-11349421D02*
X9564268Y-11358945D01*
X9564268Y-11358945D02*
X9545221Y-11387516D01*
X9545221Y-11387516D02*
X9535697Y-11425611D01*
X9535697Y-11425611D02*
X9535697Y-11501802D01*
X9535697Y-11501802D02*
X9545221Y-11520850D01*
X9545221Y-11520850D02*
X9554744Y-11530373D01*
X9554744Y-11530373D02*
X9573792Y-11539897D01*
X9573792Y-11539897D02*
X9611887Y-11539897D01*
X9611887Y-11539897D02*
X9630935Y-11530373D01*
X9630935Y-11530373D02*
X9640459Y-11520850D01*
X9640459Y-11520850D02*
X9649983Y-11501802D01*
X9649983Y-11501802D02*
X9649983Y-11454183D01*
X9649983Y-11454183D02*
X9640459Y-11435135D01*
X9640459Y-11435135D02*
X9630935Y-11425611D01*
X9630935Y-11425611D02*
X9611887Y-11416088D01*
X9611887Y-11416088D02*
X9573792Y-11416088D01*
X9573792Y-11416088D02*
X9554744Y-11425611D01*
X9554744Y-11425611D02*
X9545221Y-11435135D01*
X9545221Y-11435135D02*
X9535697Y-11454183D01*
X9888078Y-11539897D02*
X9888078Y-11339897D01*
X9973792Y-11539897D02*
X9973792Y-11435135D01*
X9973792Y-11435135D02*
X9964268Y-11416088D01*
X9964268Y-11416088D02*
X9945221Y-11406564D01*
X9945221Y-11406564D02*
X9916649Y-11406564D01*
X9916649Y-11406564D02*
X9897602Y-11416088D01*
X9897602Y-11416088D02*
X9888078Y-11425611D01*
X10097602Y-11539897D02*
X10078554Y-11530373D01*
X10078554Y-11530373D02*
X10069030Y-11520850D01*
X10069030Y-11520850D02*
X10059506Y-11501802D01*
X10059506Y-11501802D02*
X10059506Y-11444659D01*
X10059506Y-11444659D02*
X10069030Y-11425611D01*
X10069030Y-11425611D02*
X10078554Y-11416088D01*
X10078554Y-11416088D02*
X10097602Y-11406564D01*
X10097602Y-11406564D02*
X10126173Y-11406564D01*
X10126173Y-11406564D02*
X10145221Y-11416088D01*
X10145221Y-11416088D02*
X10154745Y-11425611D01*
X10154745Y-11425611D02*
X10164268Y-11444659D01*
X10164268Y-11444659D02*
X10164268Y-11501802D01*
X10164268Y-11501802D02*
X10154745Y-11520850D01*
X10154745Y-11520850D02*
X10145221Y-11530373D01*
X10145221Y-11530373D02*
X10126173Y-11539897D01*
X10126173Y-11539897D02*
X10097602Y-11539897D01*
X10278554Y-11539897D02*
X10259506Y-11530373D01*
X10259506Y-11530373D02*
X10249983Y-11511326D01*
X10249983Y-11511326D02*
X10249983Y-11339897D01*
X10430935Y-11530373D02*
X10411887Y-11539897D01*
X10411887Y-11539897D02*
X10373792Y-11539897D01*
X10373792Y-11539897D02*
X10354745Y-11530373D01*
X10354745Y-11530373D02*
X10345221Y-11511326D01*
X10345221Y-11511326D02*
X10345221Y-11435135D01*
X10345221Y-11435135D02*
X10354745Y-11416088D01*
X10354745Y-11416088D02*
X10373792Y-11406564D01*
X10373792Y-11406564D02*
X10411887Y-11406564D01*
X10411887Y-11406564D02*
X10430935Y-11416088D01*
X10430935Y-11416088D02*
X10440459Y-11435135D01*
X10440459Y-11435135D02*
X10440459Y-11454183D01*
X10440459Y-11454183D02*
X10345221Y-11473231D01*
X10516649Y-11530373D02*
X10535697Y-11539897D01*
X10535697Y-11539897D02*
X10573792Y-11539897D01*
X10573792Y-11539897D02*
X10592840Y-11530373D01*
X10592840Y-11530373D02*
X10602364Y-11511326D01*
X10602364Y-11511326D02*
X10602364Y-11501802D01*
X10602364Y-11501802D02*
X10592840Y-11482754D01*
X10592840Y-11482754D02*
X10573792Y-11473231D01*
X10573792Y-11473231D02*
X10545221Y-11473231D01*
X10545221Y-11473231D02*
X10526173Y-11463707D01*
X10526173Y-11463707D02*
X10516649Y-11444659D01*
X10516649Y-11444659D02*
X10516649Y-11435135D01*
X10516649Y-11435135D02*
X10526173Y-11416088D01*
X10526173Y-11416088D02*
X10545221Y-11406564D01*
X10545221Y-11406564D02*
X10573792Y-11406564D01*
X10573792Y-11406564D02*
X10592840Y-11416088D01*
X10669030Y-11616088D02*
X10678554Y-11606564D01*
X10678554Y-11606564D02*
X10697602Y-11577992D01*
X10697602Y-11577992D02*
X10707126Y-11558945D01*
X10707126Y-11558945D02*
X10716649Y-11530373D01*
X10716649Y-11530373D02*
X10726173Y-11482754D01*
X10726173Y-11482754D02*
X10726173Y-11444659D01*
X10726173Y-11444659D02*
X10716649Y-11397040D01*
X10716649Y-11397040D02*
X10707126Y-11368469D01*
X10707126Y-11368469D02*
X10697602Y-11349421D01*
X10697602Y-11349421D02*
X10678554Y-11320850D01*
X10678554Y-11320850D02*
X10669030Y-11311326D01*
D13*
X5703491Y-11712413D02*
G75*
G03*
X5703491Y-11712413I-50000J0D01*
G01*
D10*
X6069030Y-11803897D02*
X5954744Y-11803897D01*
X6011887Y-11803897D02*
X6011887Y-11603897D01*
X6011887Y-11603897D02*
X5992839Y-11632469D01*
X5992839Y-11632469D02*
X5973792Y-11651516D01*
X5973792Y-11651516D02*
X5954744Y-11661040D01*
X6154744Y-11784850D02*
X6164268Y-11794373D01*
X6164268Y-11794373D02*
X6154744Y-11803897D01*
X6154744Y-11803897D02*
X6145220Y-11794373D01*
X6145220Y-11794373D02*
X6154744Y-11784850D01*
X6154744Y-11784850D02*
X6154744Y-11803897D01*
X6288077Y-11603897D02*
X6307125Y-11603897D01*
X6307125Y-11603897D02*
X6326173Y-11613421D01*
X6326173Y-11613421D02*
X6335696Y-11622945D01*
X6335696Y-11622945D02*
X6345220Y-11641992D01*
X6345220Y-11641992D02*
X6354744Y-11680088D01*
X6354744Y-11680088D02*
X6354744Y-11727707D01*
X6354744Y-11727707D02*
X6345220Y-11765802D01*
X6345220Y-11765802D02*
X6335696Y-11784850D01*
X6335696Y-11784850D02*
X6326173Y-11794373D01*
X6326173Y-11794373D02*
X6307125Y-11803897D01*
X6307125Y-11803897D02*
X6288077Y-11803897D01*
X6288077Y-11803897D02*
X6269030Y-11794373D01*
X6269030Y-11794373D02*
X6259506Y-11784850D01*
X6259506Y-11784850D02*
X6249982Y-11765802D01*
X6249982Y-11765802D02*
X6240458Y-11727707D01*
X6240458Y-11727707D02*
X6240458Y-11680088D01*
X6240458Y-11680088D02*
X6249982Y-11641992D01*
X6249982Y-11641992D02*
X6259506Y-11622945D01*
X6259506Y-11622945D02*
X6269030Y-11613421D01*
X6269030Y-11613421D02*
X6288077Y-11603897D01*
X6478554Y-11603897D02*
X6497601Y-11603897D01*
X6497601Y-11603897D02*
X6516649Y-11613421D01*
X6516649Y-11613421D02*
X6526173Y-11622945D01*
X6526173Y-11622945D02*
X6535696Y-11641992D01*
X6535696Y-11641992D02*
X6545220Y-11680088D01*
X6545220Y-11680088D02*
X6545220Y-11727707D01*
X6545220Y-11727707D02*
X6535696Y-11765802D01*
X6535696Y-11765802D02*
X6526173Y-11784850D01*
X6526173Y-11784850D02*
X6516649Y-11794373D01*
X6516649Y-11794373D02*
X6497601Y-11803897D01*
X6497601Y-11803897D02*
X6478554Y-11803897D01*
X6478554Y-11803897D02*
X6459506Y-11794373D01*
X6459506Y-11794373D02*
X6449982Y-11784850D01*
X6449982Y-11784850D02*
X6440458Y-11765802D01*
X6440458Y-11765802D02*
X6430935Y-11727707D01*
X6430935Y-11727707D02*
X6430935Y-11680088D01*
X6430935Y-11680088D02*
X6440458Y-11641992D01*
X6440458Y-11641992D02*
X6449982Y-11622945D01*
X6449982Y-11622945D02*
X6459506Y-11613421D01*
X6459506Y-11613421D02*
X6478554Y-11603897D01*
X6669030Y-11603897D02*
X6688077Y-11603897D01*
X6688077Y-11603897D02*
X6707125Y-11613421D01*
X6707125Y-11613421D02*
X6716649Y-11622945D01*
X6716649Y-11622945D02*
X6726173Y-11641992D01*
X6726173Y-11641992D02*
X6735696Y-11680088D01*
X6735696Y-11680088D02*
X6735696Y-11727707D01*
X6735696Y-11727707D02*
X6726173Y-11765802D01*
X6726173Y-11765802D02*
X6716649Y-11784850D01*
X6716649Y-11784850D02*
X6707125Y-11794373D01*
X6707125Y-11794373D02*
X6688077Y-11803897D01*
X6688077Y-11803897D02*
X6669030Y-11803897D01*
X6669030Y-11803897D02*
X6649982Y-11794373D01*
X6649982Y-11794373D02*
X6640458Y-11784850D01*
X6640458Y-11784850D02*
X6630935Y-11765802D01*
X6630935Y-11765802D02*
X6621411Y-11727707D01*
X6621411Y-11727707D02*
X6621411Y-11680088D01*
X6621411Y-11680088D02*
X6630935Y-11641992D01*
X6630935Y-11641992D02*
X6640458Y-11622945D01*
X6640458Y-11622945D02*
X6649982Y-11613421D01*
X6649982Y-11613421D02*
X6669030Y-11603897D01*
X6821411Y-11803897D02*
X6821411Y-11670564D01*
X6821411Y-11689611D02*
X6830935Y-11680088D01*
X6830935Y-11680088D02*
X6849982Y-11670564D01*
X6849982Y-11670564D02*
X6878554Y-11670564D01*
X6878554Y-11670564D02*
X6897601Y-11680088D01*
X6897601Y-11680088D02*
X6907125Y-11699135D01*
X6907125Y-11699135D02*
X6907125Y-11803897D01*
X6907125Y-11699135D02*
X6916649Y-11680088D01*
X6916649Y-11680088D02*
X6935696Y-11670564D01*
X6935696Y-11670564D02*
X6964268Y-11670564D01*
X6964268Y-11670564D02*
X6983316Y-11680088D01*
X6983316Y-11680088D02*
X6992839Y-11699135D01*
X6992839Y-11699135D02*
X6992839Y-11803897D01*
X7088077Y-11803897D02*
X7088077Y-11670564D01*
X7088077Y-11689611D02*
X7097601Y-11680088D01*
X7097601Y-11680088D02*
X7116649Y-11670564D01*
X7116649Y-11670564D02*
X7145220Y-11670564D01*
X7145220Y-11670564D02*
X7164268Y-11680088D01*
X7164268Y-11680088D02*
X7173792Y-11699135D01*
X7173792Y-11699135D02*
X7173792Y-11803897D01*
X7173792Y-11699135D02*
X7183316Y-11680088D01*
X7183316Y-11680088D02*
X7202363Y-11670564D01*
X7202363Y-11670564D02*
X7230935Y-11670564D01*
X7230935Y-11670564D02*
X7249982Y-11680088D01*
X7249982Y-11680088D02*
X7259506Y-11699135D01*
X7259506Y-11699135D02*
X7259506Y-11803897D01*
X7649982Y-11594373D02*
X7478554Y-11851516D01*
X7907125Y-11603897D02*
X7926173Y-11603897D01*
X7926173Y-11603897D02*
X7945220Y-11613421D01*
X7945220Y-11613421D02*
X7954744Y-11622945D01*
X7954744Y-11622945D02*
X7964268Y-11641992D01*
X7964268Y-11641992D02*
X7973792Y-11680088D01*
X7973792Y-11680088D02*
X7973792Y-11727707D01*
X7973792Y-11727707D02*
X7964268Y-11765802D01*
X7964268Y-11765802D02*
X7954744Y-11784850D01*
X7954744Y-11784850D02*
X7945220Y-11794373D01*
X7945220Y-11794373D02*
X7926173Y-11803897D01*
X7926173Y-11803897D02*
X7907125Y-11803897D01*
X7907125Y-11803897D02*
X7888078Y-11794373D01*
X7888078Y-11794373D02*
X7878554Y-11784850D01*
X7878554Y-11784850D02*
X7869030Y-11765802D01*
X7869030Y-11765802D02*
X7859506Y-11727707D01*
X7859506Y-11727707D02*
X7859506Y-11680088D01*
X7859506Y-11680088D02*
X7869030Y-11641992D01*
X7869030Y-11641992D02*
X7878554Y-11622945D01*
X7878554Y-11622945D02*
X7888078Y-11613421D01*
X7888078Y-11613421D02*
X7907125Y-11603897D01*
X8059506Y-11784850D02*
X8069030Y-11794373D01*
X8069030Y-11794373D02*
X8059506Y-11803897D01*
X8059506Y-11803897D02*
X8049982Y-11794373D01*
X8049982Y-11794373D02*
X8059506Y-11784850D01*
X8059506Y-11784850D02*
X8059506Y-11803897D01*
X8192839Y-11603897D02*
X8211887Y-11603897D01*
X8211887Y-11603897D02*
X8230935Y-11613421D01*
X8230935Y-11613421D02*
X8240459Y-11622945D01*
X8240459Y-11622945D02*
X8249982Y-11641992D01*
X8249982Y-11641992D02*
X8259506Y-11680088D01*
X8259506Y-11680088D02*
X8259506Y-11727707D01*
X8259506Y-11727707D02*
X8249982Y-11765802D01*
X8249982Y-11765802D02*
X8240459Y-11784850D01*
X8240459Y-11784850D02*
X8230935Y-11794373D01*
X8230935Y-11794373D02*
X8211887Y-11803897D01*
X8211887Y-11803897D02*
X8192839Y-11803897D01*
X8192839Y-11803897D02*
X8173792Y-11794373D01*
X8173792Y-11794373D02*
X8164268Y-11784850D01*
X8164268Y-11784850D02*
X8154744Y-11765802D01*
X8154744Y-11765802D02*
X8145220Y-11727707D01*
X8145220Y-11727707D02*
X8145220Y-11680088D01*
X8145220Y-11680088D02*
X8154744Y-11641992D01*
X8154744Y-11641992D02*
X8164268Y-11622945D01*
X8164268Y-11622945D02*
X8173792Y-11613421D01*
X8173792Y-11613421D02*
X8192839Y-11603897D01*
X8326173Y-11603897D02*
X8449982Y-11603897D01*
X8449982Y-11603897D02*
X8383316Y-11680088D01*
X8383316Y-11680088D02*
X8411887Y-11680088D01*
X8411887Y-11680088D02*
X8430935Y-11689611D01*
X8430935Y-11689611D02*
X8440459Y-11699135D01*
X8440459Y-11699135D02*
X8449982Y-11718183D01*
X8449982Y-11718183D02*
X8449982Y-11765802D01*
X8449982Y-11765802D02*
X8440459Y-11784850D01*
X8440459Y-11784850D02*
X8430935Y-11794373D01*
X8430935Y-11794373D02*
X8411887Y-11803897D01*
X8411887Y-11803897D02*
X8354744Y-11803897D01*
X8354744Y-11803897D02*
X8335697Y-11794373D01*
X8335697Y-11794373D02*
X8326173Y-11784850D01*
X8545221Y-11803897D02*
X8583316Y-11803897D01*
X8583316Y-11803897D02*
X8602363Y-11794373D01*
X8602363Y-11794373D02*
X8611887Y-11784850D01*
X8611887Y-11784850D02*
X8630935Y-11756278D01*
X8630935Y-11756278D02*
X8640459Y-11718183D01*
X8640459Y-11718183D02*
X8640459Y-11641992D01*
X8640459Y-11641992D02*
X8630935Y-11622945D01*
X8630935Y-11622945D02*
X8621411Y-11613421D01*
X8621411Y-11613421D02*
X8602363Y-11603897D01*
X8602363Y-11603897D02*
X8564268Y-11603897D01*
X8564268Y-11603897D02*
X8545221Y-11613421D01*
X8545221Y-11613421D02*
X8535697Y-11622945D01*
X8535697Y-11622945D02*
X8526173Y-11641992D01*
X8526173Y-11641992D02*
X8526173Y-11689611D01*
X8526173Y-11689611D02*
X8535697Y-11708659D01*
X8535697Y-11708659D02*
X8545221Y-11718183D01*
X8545221Y-11718183D02*
X8564268Y-11727707D01*
X8564268Y-11727707D02*
X8602363Y-11727707D01*
X8602363Y-11727707D02*
X8621411Y-11718183D01*
X8621411Y-11718183D02*
X8630935Y-11708659D01*
X8630935Y-11708659D02*
X8640459Y-11689611D01*
X8811887Y-11670564D02*
X8811887Y-11803897D01*
X8764268Y-11594373D02*
X8716649Y-11737231D01*
X8716649Y-11737231D02*
X8840459Y-11737231D01*
X8907125Y-11603897D02*
X8907125Y-11641992D01*
X8983316Y-11603897D02*
X8983316Y-11641992D01*
X9278554Y-11880088D02*
X9269030Y-11870564D01*
X9269030Y-11870564D02*
X9249983Y-11841992D01*
X9249983Y-11841992D02*
X9240459Y-11822945D01*
X9240459Y-11822945D02*
X9230935Y-11794373D01*
X9230935Y-11794373D02*
X9221411Y-11746754D01*
X9221411Y-11746754D02*
X9221411Y-11708659D01*
X9221411Y-11708659D02*
X9230935Y-11661040D01*
X9230935Y-11661040D02*
X9240459Y-11632469D01*
X9240459Y-11632469D02*
X9249983Y-11613421D01*
X9249983Y-11613421D02*
X9269030Y-11584850D01*
X9269030Y-11584850D02*
X9278554Y-11575326D01*
X9459506Y-11803897D02*
X9345221Y-11803897D01*
X9402363Y-11803897D02*
X9402363Y-11603897D01*
X9402363Y-11603897D02*
X9383316Y-11632469D01*
X9383316Y-11632469D02*
X9364268Y-11651516D01*
X9364268Y-11651516D02*
X9345221Y-11661040D01*
X9630935Y-11603897D02*
X9592840Y-11603897D01*
X9592840Y-11603897D02*
X9573792Y-11613421D01*
X9573792Y-11613421D02*
X9564268Y-11622945D01*
X9564268Y-11622945D02*
X9545221Y-11651516D01*
X9545221Y-11651516D02*
X9535697Y-11689611D01*
X9535697Y-11689611D02*
X9535697Y-11765802D01*
X9535697Y-11765802D02*
X9545221Y-11784850D01*
X9545221Y-11784850D02*
X9554744Y-11794373D01*
X9554744Y-11794373D02*
X9573792Y-11803897D01*
X9573792Y-11803897D02*
X9611887Y-11803897D01*
X9611887Y-11803897D02*
X9630935Y-11794373D01*
X9630935Y-11794373D02*
X9640459Y-11784850D01*
X9640459Y-11784850D02*
X9649983Y-11765802D01*
X9649983Y-11765802D02*
X9649983Y-11718183D01*
X9649983Y-11718183D02*
X9640459Y-11699135D01*
X9640459Y-11699135D02*
X9630935Y-11689611D01*
X9630935Y-11689611D02*
X9611887Y-11680088D01*
X9611887Y-11680088D02*
X9573792Y-11680088D01*
X9573792Y-11680088D02*
X9554744Y-11689611D01*
X9554744Y-11689611D02*
X9545221Y-11699135D01*
X9545221Y-11699135D02*
X9535697Y-11718183D01*
X9888078Y-11803897D02*
X9888078Y-11603897D01*
X9973792Y-11803897D02*
X9973792Y-11699135D01*
X9973792Y-11699135D02*
X9964268Y-11680088D01*
X9964268Y-11680088D02*
X9945221Y-11670564D01*
X9945221Y-11670564D02*
X9916649Y-11670564D01*
X9916649Y-11670564D02*
X9897602Y-11680088D01*
X9897602Y-11680088D02*
X9888078Y-11689611D01*
X10097602Y-11803897D02*
X10078554Y-11794373D01*
X10078554Y-11794373D02*
X10069030Y-11784850D01*
X10069030Y-11784850D02*
X10059506Y-11765802D01*
X10059506Y-11765802D02*
X10059506Y-11708659D01*
X10059506Y-11708659D02*
X10069030Y-11689611D01*
X10069030Y-11689611D02*
X10078554Y-11680088D01*
X10078554Y-11680088D02*
X10097602Y-11670564D01*
X10097602Y-11670564D02*
X10126173Y-11670564D01*
X10126173Y-11670564D02*
X10145221Y-11680088D01*
X10145221Y-11680088D02*
X10154745Y-11689611D01*
X10154745Y-11689611D02*
X10164268Y-11708659D01*
X10164268Y-11708659D02*
X10164268Y-11765802D01*
X10164268Y-11765802D02*
X10154745Y-11784850D01*
X10154745Y-11784850D02*
X10145221Y-11794373D01*
X10145221Y-11794373D02*
X10126173Y-11803897D01*
X10126173Y-11803897D02*
X10097602Y-11803897D01*
X10278554Y-11803897D02*
X10259506Y-11794373D01*
X10259506Y-11794373D02*
X10249983Y-11775326D01*
X10249983Y-11775326D02*
X10249983Y-11603897D01*
X10430935Y-11794373D02*
X10411887Y-11803897D01*
X10411887Y-11803897D02*
X10373792Y-11803897D01*
X10373792Y-11803897D02*
X10354745Y-11794373D01*
X10354745Y-11794373D02*
X10345221Y-11775326D01*
X10345221Y-11775326D02*
X10345221Y-11699135D01*
X10345221Y-11699135D02*
X10354745Y-11680088D01*
X10354745Y-11680088D02*
X10373792Y-11670564D01*
X10373792Y-11670564D02*
X10411887Y-11670564D01*
X10411887Y-11670564D02*
X10430935Y-11680088D01*
X10430935Y-11680088D02*
X10440459Y-11699135D01*
X10440459Y-11699135D02*
X10440459Y-11718183D01*
X10440459Y-11718183D02*
X10345221Y-11737231D01*
X10516649Y-11794373D02*
X10535697Y-11803897D01*
X10535697Y-11803897D02*
X10573792Y-11803897D01*
X10573792Y-11803897D02*
X10592840Y-11794373D01*
X10592840Y-11794373D02*
X10602364Y-11775326D01*
X10602364Y-11775326D02*
X10602364Y-11765802D01*
X10602364Y-11765802D02*
X10592840Y-11746754D01*
X10592840Y-11746754D02*
X10573792Y-11737231D01*
X10573792Y-11737231D02*
X10545221Y-11737231D01*
X10545221Y-11737231D02*
X10526173Y-11727707D01*
X10526173Y-11727707D02*
X10516649Y-11708659D01*
X10516649Y-11708659D02*
X10516649Y-11699135D01*
X10516649Y-11699135D02*
X10526173Y-11680088D01*
X10526173Y-11680088D02*
X10545221Y-11670564D01*
X10545221Y-11670564D02*
X10573792Y-11670564D01*
X10573792Y-11670564D02*
X10592840Y-11680088D01*
X10669030Y-11880088D02*
X10678554Y-11870564D01*
X10678554Y-11870564D02*
X10697602Y-11841992D01*
X10697602Y-11841992D02*
X10707126Y-11822945D01*
X10707126Y-11822945D02*
X10716649Y-11794373D01*
X10716649Y-11794373D02*
X10726173Y-11746754D01*
X10726173Y-11746754D02*
X10726173Y-11708659D01*
X10726173Y-11708659D02*
X10716649Y-11661040D01*
X10716649Y-11661040D02*
X10707126Y-11632469D01*
X10707126Y-11632469D02*
X10697602Y-11613421D01*
X10697602Y-11613421D02*
X10678554Y-11584850D01*
X10678554Y-11584850D02*
X10669030Y-11575326D01*
M02*
