G04 #@! TF.GenerationSoftware,KiCad,Pcbnew,7.0.7*
G04 #@! TF.CreationDate,2024-02-03T15:44:35+08:00*
G04 #@! TF.ProjectId,flex,666c6578-2e6b-4696-9361-645f70636258,rev?*
G04 #@! TF.SameCoordinates,Original*
G04 #@! TF.FileFunction,Profile,NP*
%FSLAX46Y46*%
G04 Gerber Fmt 4.6, Leading zero omitted, Abs format (unit mm)*
G04 Created by KiCad (PCBNEW 7.0.7) date 2024-02-03 15:44:35*
%MOMM*%
%LPD*%
G01*
G04 APERTURE LIST*
G04 #@! TA.AperFunction,Profile*
%ADD10C,0.200000*%
G04 #@! TD*
G04 #@! TA.AperFunction,Profile*
%ADD11C,0.050000*%
G04 #@! TD*
G04 #@! TA.AperFunction,Profile*
%ADD12C,0.120000*%
G04 #@! TD*
G04 APERTURE END LIST*
D10*
X85554430Y-61936204D02*
X85889204Y-65446311D01*
D11*
X101517591Y-81304279D02*
X101505810Y-74554291D01*
D10*
X65787906Y-91599527D02*
G75*
G03*
X64984402Y-92775286I177994J-984073D01*
G01*
X79991793Y-61907856D02*
G75*
G03*
X78844795Y-61059506I-990293J-139344D01*
G01*
X65056842Y-81401082D02*
X63873117Y-74755687D01*
X96022037Y-60850518D02*
G75*
G03*
X95886322Y-60841260I-135737J-990482D01*
G01*
X95886322Y-60841260D02*
X86549912Y-60841260D01*
X72496527Y-86397728D02*
G75*
G03*
X71166131Y-85535797I-1070727J-194972D01*
G01*
X96022038Y-44250513D02*
X103621191Y-45291467D01*
X67613349Y-107162928D02*
X67098201Y-104328251D01*
X86549912Y-60841317D02*
G75*
G03*
X85554431Y-61936204I-12J-999983D01*
G01*
X69633296Y-54328168D02*
G75*
G03*
X69633296Y-54328168I-2200000J0D01*
G01*
X101409519Y-68579288D02*
X101505810Y-74554291D01*
X119408312Y-50727951D02*
X118352802Y-54508363D01*
X86209123Y-104709584D02*
G75*
G03*
X87109122Y-103709526I-16423J919784D01*
G01*
X85889246Y-65446307D02*
G75*
G03*
X86886219Y-66351367I995454J94907D01*
G01*
X79398595Y-44241256D02*
G75*
G03*
X79310570Y-44245142I5J-998944D01*
G01*
X85975656Y-82952760D02*
G75*
G03*
X85887631Y-82956646I44J-999940D01*
G01*
X57960077Y-47576011D02*
G75*
G03*
X57149512Y-48730861I174823J-984589D01*
G01*
X63993931Y-69731595D02*
G75*
G03*
X63184803Y-70891511I175369J-984505D01*
G01*
X114250000Y-65484366D02*
X110064071Y-64315634D01*
X83068065Y-104732225D02*
X68818112Y-107959427D01*
X80169043Y-88922779D02*
X85502015Y-88165856D01*
X57960070Y-47575969D02*
X74105714Y-44708982D01*
D11*
X103393649Y-62453218D02*
X110064071Y-64315634D01*
D10*
X87184161Y-90007223D02*
G75*
G03*
X85502015Y-88165856I-1682161J152323D01*
G01*
X116537593Y-61009710D02*
X115482083Y-64790123D01*
X103393649Y-62453218D02*
X99290326Y-61307550D01*
X63993939Y-69731642D02*
X79729594Y-66986755D01*
X79398595Y-44241260D02*
X95886322Y-44241260D01*
X80548003Y-65862342D02*
X79991765Y-61907860D01*
X99709519Y-82879288D02*
X85975656Y-82952763D01*
X59743578Y-63062862D02*
X59050000Y-59300000D01*
X79729595Y-66986762D02*
G75*
G03*
X80548003Y-65862342I-171895J985162D01*
G01*
X99157122Y-61279965D02*
X96022038Y-60850512D01*
X72961078Y-89127832D02*
X72496567Y-86397721D01*
D11*
X116537593Y-61009710D02*
X118352802Y-54508363D01*
D10*
X65891286Y-97687027D02*
X67098201Y-104328251D01*
X59743570Y-63062863D02*
G75*
G03*
X60881567Y-63869577I983430J181263D01*
G01*
X103754395Y-45319052D02*
X118714069Y-49495868D01*
X67613368Y-107162925D02*
G75*
G03*
X68818112Y-107959426I983832J178725D01*
G01*
X57794157Y-52461015D02*
X57149512Y-48730861D01*
X74193055Y-44697367D02*
X79310570Y-44245142D01*
X86209122Y-104709526D02*
X83068065Y-104732225D01*
X87184126Y-90007220D02*
X87184125Y-93283755D01*
X87195906Y-100033743D02*
X87109122Y-103709526D01*
X59050000Y-59300000D02*
X57794157Y-52461015D01*
X65745157Y-85265257D02*
X65056842Y-81401082D01*
D11*
X87195906Y-100033743D02*
X87184125Y-93283755D01*
D10*
X65189488Y-93825278D02*
X64984401Y-92775286D01*
X65745211Y-85265247D02*
G75*
G03*
X66905027Y-86074393I984489J175347D01*
G01*
X99709520Y-82879275D02*
G75*
G03*
X101517591Y-81304279I149080J1654175D01*
G01*
X74193055Y-44697371D02*
G75*
G03*
X74105713Y-44708982I88245J-998129D01*
G01*
X63873117Y-74755687D02*
X63184802Y-70891512D01*
X119408294Y-50727946D02*
G75*
G03*
X118714069Y-49495868I-963294J268846D01*
G01*
X111650948Y-55527002D02*
G75*
G03*
X111650948Y-55527002I-2200000J0D01*
G01*
X101409527Y-68579288D02*
G75*
G03*
X99009518Y-66332781I-2251427J-12D01*
G01*
X96022037Y-44250519D02*
G75*
G03*
X95886323Y-44241261I-135737J-990481D01*
G01*
X103754395Y-45319054D02*
G75*
G03*
X103621191Y-45291468I-269295J-964946D01*
G01*
X72099143Y-90458207D02*
G75*
G03*
X72961077Y-89127832I-194943J1070707D01*
G01*
X78844795Y-61059505D02*
X60881567Y-63869578D01*
X99290326Y-61307549D02*
G75*
G03*
X99157122Y-61279965I-268826J-962751D01*
G01*
X78838577Y-88060861D02*
G75*
G03*
X80169043Y-88922778I1070723J194961D01*
G01*
X78374096Y-85330744D02*
X78838607Y-88060855D01*
D11*
X71166131Y-85535797D02*
X66905027Y-86074393D01*
D10*
X86886219Y-66351367D02*
X99009518Y-66332781D01*
X65787909Y-91599546D02*
X72099154Y-90458268D01*
X114249994Y-65484386D02*
G75*
G03*
X115482081Y-64790124I268906J963186D01*
G01*
X89854496Y-52541260D02*
G75*
G03*
X89854496Y-52541260I-2200000J0D01*
G01*
X65891286Y-97687027D02*
X65189488Y-93825278D01*
X79236011Y-84000257D02*
G75*
G03*
X78374096Y-85330744I194989J-1070743D01*
G01*
X85887631Y-82956644D02*
X79236020Y-84000308D01*
D12*
X95950000Y-80700000D02*
X92550000Y-80700000D01*
X95950000Y-77700000D02*
X95950000Y-80700000D01*
X92550000Y-80700000D02*
X92550000Y-77700000D01*
X92550000Y-77700000D02*
X95950000Y-77700000D01*
X70225171Y-59949795D02*
X66876825Y-60540199D01*
X69704227Y-56995371D02*
X70225171Y-59949795D01*
X66876825Y-60540199D02*
X66355881Y-57585775D01*
X66355881Y-57585775D02*
X69704227Y-56995371D01*
X109394371Y-61956666D02*
X106110224Y-61076681D01*
X110170828Y-59058889D02*
X109394371Y-61956666D01*
X106110224Y-61076681D02*
X106886681Y-58178904D01*
X106886681Y-58178904D02*
X110170828Y-59058889D01*
X76784645Y-81982010D02*
X73436299Y-82572414D01*
X76263701Y-79027586D02*
X76784645Y-81982010D01*
X73436299Y-82572414D02*
X72915355Y-79617990D01*
X72915355Y-79617990D02*
X76263701Y-79027586D01*
X78384645Y-104012010D02*
X75036299Y-104602414D01*
X77863701Y-101057586D02*
X78384645Y-104012010D01*
X75036299Y-104602414D02*
X74515355Y-101647990D01*
X74515355Y-101647990D02*
X77863701Y-101057586D01*
X89390526Y-58667785D02*
X85990526Y-58667785D01*
X89390526Y-55667785D02*
X89390526Y-58667785D01*
X85990526Y-58667785D02*
X85990526Y-55667785D01*
X85990526Y-55667785D02*
X89390526Y-55667785D01*
M02*
