G04 Layer: BottomSilkscreenLayer*
G04 EasyEDA v6.5.25, 2023-03-20 21:11:36*
**********************************至少这一行要换成自己的************************************
G04 Gerber Generator version 0.2*
G04 Scale: 100 percent, Rotated: No, Reflected: No *
G04 Dimensions in millimeters  *
G04 leading zeros omitted , absolute positions ,3 integer and 6 decimal *
G04 #@! TF.GenerationSoftware,KiCad,Pcbnew,7.0.7*
G04 #@! TF.CreationDate,2024-01-25T12:17:36+08:00*
G04 #@! TF.ProjectId,sensor,73656e73-6f72-42e6-9b69-6361645f7063,rev?*
G04 #@! TF.SameCoordinates,Original*
G04 #@! TF.FileFunction,Copper,L2,Bot*
G04 #@! TF.FilePolarity,Positive*
%FSLAX46Y46*%
G04 Gerber Fmt 4.6, Leading zero omitted, Abs format (unit mm)*
G04 Created by KiCad (PCBNEW 7.0.7) date 2024-01-25 12:17:36*
%MOMM*%
%LPD*%
G01*
G04 APERTURE LIST*
G04 Aperture macros list*
%AMRoundRect*
0 Rectangle with rounded corners*
0 $1 Rounding radius*
0 $2 $3 $4 $5 $6 $7 $8 $9 X,Y pos of 4 corners*
0 Add a 4 corners polygon primitive as box body*
4,1,4,$2,$3,$4,$5,$6,$7,$8,$9,$2,$3,0*
0 Add four circle primitives for the rounded corners*
1,1,$1+$1,$2,$3*
1,1,$1+$1,$4,$5*
1,1,$1+$1,$6,$7*
1,1,$1+$1,$8,$9*
0 Add four rect primitives between the rounded corners*
20,1,$1+$1,$2,$3,$4,$5,0*
20,1,$1+$1,$4,$5,$6,$7,0*
20,1,$1+$1,$6,$7,$8,$9,0*
20,1,$1+$1,$8,$9,$2,$3,0*%
G04 Aperture macros list end*
G04 #@! TA.AperFunction,ComponentPad*
%ADD10C,5.700000*%
G04 #@! TD*
G04 #@! TA.AperFunction,ComponentPad*
%ADD11R,1.700000X1.700000*%
G04 #@! TD*
G04 #@! TA.AperFunction,ComponentPad*
%ADD12O,1.700000X1.700000*%
G04 #@! TD*
G04 #@! TA.AperFunction,ComponentPad*
%ADD13C,1.700000*%
G04 #@! TD*
G04 #@! TA.AperFunction,SMDPad,CuDef*
%ADD14RoundRect,0.150000X-0.150000X0.512500X-0.150000X-0.512500X0.150000X-0.512500X0.150000X0.512500X0*%
G04 #@! TD*
G04 #@! TA.AperFunction,SMDPad,CuDef*
%ADD15RoundRect,0.225000X-0.250000X0.225000X-0.250000X-0.225000X0.250000X-0.225000X0.250000X0.225000X0*%
G04 #@! TD*
G04 #@! TA.AperFunction,SMDPad,CuDef*
%ADD16RoundRect,0.225000X0.250000X-0.225000X0.250000X0.225000X-0.250000X0.225000X-0.250000X-0.225000X0*%
G04 #@! TD*
G04 #@! TA.AperFunction,SMDPad,CuDef*
%ADD17RoundRect,0.225000X0.225000X0.250000X-0.225000X0.250000X-0.225000X-0.250000X0.225000X-0.250000X0*%
G04 #@! TD*
G04 #@! TA.AperFunction,ComponentPad*
%ADD18C,1.200000*%
G04 #@! TD*
G04 #@! TA.AperFunction,ComponentPad*
%ADD19R,1.200000X1.200000*%
G04 #@! TD*
G04 #@! TA.AperFunction,SMDPad,CuDef*
%ADD20RoundRect,0.200000X-0.275000X0.200000X-0.275000X-0.200000X0.275000X-0.200000X0.275000X0.200000X0*%
G04 #@! TD*
G04 #@! TA.AperFunction,SMDPad,CuDef*
%ADD21RoundRect,0.225000X-0.225000X-0.250000X0.225000X-0.250000X0.225000X0.250000X-0.225000X0.250000X0*%
G04 #@! TD*
G04 #@! TA.AperFunction,ViaPad*
%ADD22C,0.600000*%
G04 #@! TD*
G04 #@! TA.AperFunction,Conductor*
%ADD23C,0.400000*%
G04 #@! TD*
G04 #@! TA.AperFunction,Conductor*
%ADD24C,0.550000*%
G04 #@! TD*
G04 APERTURE END LIST*
D10*
X81600000Y-129200000D03*
D11*
X96800000Y-116800000D03*
D12*
X96800000Y-114260000D03*
X96800000Y-111720000D03*
X96800000Y-109180000D03*
X96800000Y-106640000D03*
D13*
X96800000Y-104100000D03*
D10*
X81600000Y-92200000D03*
D14*
X77724000Y-119800000D03*
X78674000Y-119800000D03*
X79624000Y-119800000D03*
X79624000Y-122075000D03*
X77724000Y-122075000D03*
D15*
X89004000Y-112415000D03*
X89004000Y-113965000D03*
D16*
X88994000Y-110940000D03*
X88994000Y-109390000D03*
D17*
X74325000Y-105500000D03*
X72775000Y-105500000D03*
D18*
X76210000Y-114280000D03*
X76210000Y-112500000D03*
X76210000Y-110720000D03*
X76210000Y-108940000D03*
X76210000Y-107160000D03*
X76210000Y-105380000D03*
X76210000Y-103600000D03*
X76210000Y-101820000D03*
X86910000Y-100930000D03*
X86910000Y-102710000D03*
D19*
X86910000Y-104490000D03*
D18*
X86910000Y-106270000D03*
X86910000Y-108050000D03*
X86910000Y-109830000D03*
X86910000Y-111610000D03*
X86910000Y-113390000D03*
D15*
X88984000Y-102805000D03*
X88984000Y-104355000D03*
D17*
X86119000Y-98840000D03*
X84569000Y-98840000D03*
D16*
X81144000Y-120467500D03*
X81144000Y-118917500D03*
X88974000Y-107795000D03*
X88974000Y-106245000D03*
D17*
X86119000Y-97136000D03*
X84569000Y-97136000D03*
D20*
X74360000Y-102145000D03*
X74360000Y-103795000D03*
D21*
X77919000Y-123747500D03*
X79469000Y-123747500D03*
D22*
X81200000Y-98200000D03*
X89200000Y-100600000D03*
X74900000Y-109700000D03*
D23*
X78674000Y-122952500D02*
X78674000Y-119380000D01*
D24*
X87090000Y-104400000D02*
X88939000Y-104400000D01*
X87045000Y-104355000D02*
X87090000Y-104400000D01*
D23*
X79469000Y-123747500D02*
X78674000Y-122952500D01*
D24*
X84569000Y-97390000D02*
X84569000Y-98840000D01*
X88939000Y-104400000D02*
X88984000Y-104355000D01*
X87005000Y-102805000D02*
X88984000Y-102805000D01*
D23*
X91600000Y-109484680D02*
X91600000Y-100600000D01*
X75200000Y-96000000D02*
X70800000Y-100400000D01*
X88994000Y-110940000D02*
X90144680Y-110940000D01*
D24*
X87154000Y-109830000D02*
X88264000Y-110940000D01*
X88264000Y-110940000D02*
X88994000Y-110940000D01*
D23*
X70800000Y-100400000D02*
X70800000Y-116200000D01*
D24*
X77744000Y-122167500D02*
X77744000Y-123572500D01*
D23*
X90144680Y-110940000D02*
X91600000Y-109484680D01*
D24*
X89004000Y-112415000D02*
X89004000Y-110950000D01*
D23*
X70800000Y-116200000D02*
X76675000Y-122075000D01*
X87000000Y-96000000D02*
X75200000Y-96000000D01*
X91600000Y-100600000D02*
X87000000Y-96000000D01*
X76675000Y-122075000D02*
X77724000Y-122075000D01*
D24*
X96800000Y-116800000D02*
X94682500Y-118917500D01*
D23*
X78054000Y-118367500D02*
X79274000Y-118367500D01*
X79624000Y-118717500D02*
X79624000Y-119380000D01*
X77744000Y-119360000D02*
X77744000Y-118677500D01*
X74324000Y-105460000D02*
X74000000Y-105784000D01*
X74000000Y-105784000D02*
X74000000Y-116076000D01*
D24*
X79624000Y-119800000D02*
X80506500Y-118917500D01*
D23*
X74000000Y-116076000D02*
X77724000Y-119800000D01*
D24*
X94682500Y-118917500D02*
X81144000Y-118917500D01*
D23*
X77744000Y-118677500D02*
X78054000Y-118367500D01*
X74360000Y-103795000D02*
X74360000Y-105424000D01*
D24*
X74324000Y-105460000D02*
X76130000Y-105460000D01*
X80506500Y-118917500D02*
X81144000Y-118917500D01*
D23*
X79274000Y-118367500D02*
X79624000Y-118717500D01*
X87165000Y-107795000D02*
X88974000Y-107795000D01*
X86935000Y-106245000D02*
X88974000Y-106245000D01*
D24*
X86119000Y-98840000D02*
X86910000Y-99631000D01*
X86119000Y-97390000D02*
X86119000Y-98840000D01*
X86910000Y-99631000D02*
X86910000Y-100930000D01*
D23*
X93360000Y-117700000D02*
X96800000Y-114260000D01*
X74900000Y-115700000D02*
X76900000Y-117700000D01*
X76900000Y-117700000D02*
X93360000Y-117700000D01*
X74900000Y-109700000D02*
X74900000Y-115700000D01*
X74755000Y-102145000D02*
X76210000Y-103600000D01*
X74360000Y-102145000D02*
X74755000Y-102145000D01*
X86910000Y-113390000D02*
X86910000Y-111610000D01*
G04 #@! TA.AperFunction,Conductor*
G36*
X84613902Y-89484746D02*
G01*
X84715065Y-89498198D01*
X85607962Y-89655804D01*
X86493355Y-89851215D01*
X87369642Y-90084080D01*
X88235241Y-90353976D01*
X89088587Y-90660416D01*
X89928138Y-91002847D01*
X90752378Y-91380649D01*
X91559816Y-91793141D01*
X92348995Y-92239576D01*
X93043054Y-92672136D01*
X93118485Y-92719147D01*
X93866899Y-93230988D01*
X94592883Y-93774175D01*
X95295126Y-94347725D01*
X95972359Y-94950602D01*
X96623358Y-95581718D01*
X97246945Y-96239930D01*
X97841996Y-96924050D01*
X98407433Y-97632842D01*
X98942236Y-98365024D01*
X99445438Y-99119274D01*
X99916130Y-99894229D01*
X100353461Y-100688488D01*
X100756640Y-101500615D01*
X101124940Y-102329145D01*
X101457694Y-103172578D01*
X101754302Y-104029391D01*
X102014227Y-104898036D01*
X102237000Y-105776943D01*
X102422218Y-106664524D01*
X102569547Y-107559175D01*
X102678719Y-108459278D01*
X102749539Y-109363209D01*
X102781877Y-110269332D01*
X102775676Y-111176011D01*
X102730947Y-112081607D01*
X102647770Y-112984484D01*
X102526296Y-113883010D01*
X102366744Y-114775562D01*
X102169403Y-115660526D01*
X101934630Y-116536304D01*
X101662847Y-117401313D01*
X101354548Y-118253989D01*
X101010288Y-119092792D01*
X100630690Y-119916206D01*
X100216440Y-120722743D01*
X99768286Y-121510946D01*
X99287039Y-122279390D01*
X98773567Y-123026686D01*
X98228800Y-123751485D01*
X97653720Y-124452477D01*
X97049368Y-125128394D01*
X96416835Y-125778015D01*
X95757266Y-126400167D01*
X95071850Y-126993724D01*
X94361828Y-127557616D01*
X93628481Y-128090822D01*
X92873136Y-128592378D01*
X92097158Y-129061380D01*
X91301947Y-129496978D01*
X90488943Y-129898387D01*
X89659613Y-130264880D01*
X88815456Y-130595795D01*
X87957998Y-130890535D01*
X87088789Y-131148566D01*
X86707460Y-131244336D01*
X86209398Y-131369423D01*
X85321416Y-131552706D01*
X84426447Y-131698084D01*
X84140767Y-131732101D01*
X84070759Y-131720294D01*
X84018248Y-131672512D01*
X83999906Y-131603925D01*
X84021556Y-131536310D01*
X84039223Y-131515506D01*
X84041837Y-131513031D01*
X84277606Y-131235463D01*
X84364060Y-131107953D01*
X84953434Y-131107953D01*
X85231118Y-131062847D01*
X86098362Y-130883845D01*
X86434703Y-130799372D01*
X85429157Y-129793826D01*
X85406994Y-129815988D01*
X85374869Y-130011954D01*
X85372968Y-130021860D01*
X85369333Y-130038372D01*
X85366902Y-130048140D01*
X85264954Y-130415324D01*
X85261996Y-130424954D01*
X85256600Y-130440972D01*
X85253124Y-130450430D01*
X85112069Y-130804454D01*
X85108083Y-130813721D01*
X85100987Y-130829054D01*
X85096516Y-130838070D01*
X84953434Y-131107953D01*
X84364060Y-131107953D01*
X84481982Y-130934031D01*
X84652569Y-130612269D01*
X84787368Y-130273949D01*
X84884798Y-129923039D01*
X84888840Y-129898387D01*
X84902348Y-129815988D01*
X84943716Y-129563651D01*
X84950329Y-129441688D01*
X85781295Y-129441688D01*
X86843371Y-130503763D01*
X87905446Y-129441688D01*
X88609723Y-129441688D01*
X89112492Y-129944457D01*
X89468002Y-129805096D01*
X90277965Y-129447163D01*
X90586842Y-129294657D01*
X89671798Y-128379613D01*
X88609723Y-129441688D01*
X87905446Y-129441688D01*
X86843370Y-128379613D01*
X85781295Y-129441688D01*
X84950329Y-129441688D01*
X84963433Y-129200000D01*
X84943716Y-128836349D01*
X84884798Y-128476961D01*
X84787368Y-128126051D01*
X84652569Y-127787731D01*
X84481982Y-127465969D01*
X84430115Y-127389471D01*
X85005084Y-127389471D01*
X85096516Y-127561930D01*
X85100987Y-127570946D01*
X85108083Y-127586279D01*
X85112069Y-127595546D01*
X85253124Y-127949570D01*
X85256600Y-127959028D01*
X85261996Y-127975046D01*
X85264954Y-127984676D01*
X85366902Y-128351860D01*
X85369333Y-128361628D01*
X85372968Y-128378140D01*
X85374869Y-128388046D01*
X85436521Y-128764118D01*
X85437883Y-128774103D01*
X85439710Y-128790906D01*
X85440528Y-128800946D01*
X85454786Y-129063920D01*
X86491232Y-128027474D01*
X87195509Y-128027474D01*
X88257584Y-129089550D01*
X89319660Y-128027474D01*
X90023936Y-128027474D01*
X91058328Y-129061866D01*
X91071982Y-129055126D01*
X91179126Y-128996434D01*
X92148086Y-128027474D01*
X91086011Y-126965399D01*
X90023936Y-128027474D01*
X89319660Y-128027474D01*
X88257584Y-126965399D01*
X87195509Y-128027474D01*
X86491232Y-128027474D01*
X85429157Y-126965399D01*
X85005084Y-127389471D01*
X84430115Y-127389471D01*
X84277606Y-127164537D01*
X84041837Y-126886969D01*
X84023803Y-126869886D01*
X83777454Y-126636531D01*
X83777439Y-126636518D01*
X83585865Y-126490888D01*
X83487515Y-126416124D01*
X83460994Y-126400167D01*
X83384969Y-126354424D01*
X83175460Y-126228366D01*
X83175454Y-126228363D01*
X82844946Y-126075453D01*
X82844934Y-126075448D01*
X82499823Y-125959167D01*
X82499822Y-125959166D01*
X82499814Y-125959164D01*
X82499809Y-125959162D01*
X82499806Y-125959162D01*
X82351290Y-125926471D01*
X83639658Y-125926471D01*
X83751502Y-125993767D01*
X83759996Y-125999196D01*
X83773985Y-126008681D01*
X83782164Y-126014555D01*
X84085535Y-126245172D01*
X84093382Y-126251478D01*
X84106273Y-126262427D01*
X84113779Y-126269162D01*
X84390445Y-126531233D01*
X84397564Y-126538352D01*
X84409190Y-126550624D01*
X84415923Y-126558130D01*
X84662636Y-126848582D01*
X84668943Y-126856430D01*
X84679174Y-126869886D01*
X84685055Y-126878076D01*
X84736430Y-126953848D01*
X85077018Y-126613260D01*
X85781295Y-126613260D01*
X86843371Y-127675336D01*
X87905446Y-126613261D01*
X87905445Y-126613260D01*
X88609723Y-126613260D01*
X89671798Y-127675336D01*
X90733873Y-126613261D01*
X91438150Y-126613261D01*
X92500225Y-127675336D01*
X93562300Y-126613261D01*
X94266577Y-126613261D01*
X94480631Y-126827315D01*
X94753845Y-126610332D01*
X95423254Y-126030638D01*
X95621295Y-125843829D01*
X95328652Y-125551186D01*
X94266577Y-126613261D01*
X93562300Y-126613261D01*
X92500225Y-125551186D01*
X91438150Y-126613261D01*
X90733873Y-126613261D01*
X89671798Y-125551186D01*
X88609723Y-126613260D01*
X87905445Y-126613260D01*
X86843370Y-125551186D01*
X85781295Y-126613260D01*
X85077018Y-126613260D01*
X84014944Y-125551186D01*
X83639658Y-125926471D01*
X82351290Y-125926471D01*
X82144159Y-125880878D01*
X82144146Y-125880875D01*
X82144143Y-125880875D01*
X82144140Y-125880874D01*
X82144131Y-125880873D01*
X81782100Y-125841500D01*
X81782093Y-125841500D01*
X81417907Y-125841500D01*
X81417899Y-125841500D01*
X81055868Y-125880873D01*
X81055840Y-125880878D01*
X80700193Y-125959162D01*
X80700176Y-125959167D01*
X80355065Y-126075448D01*
X80355053Y-126075453D01*
X80024545Y-126228363D01*
X80024538Y-126228367D01*
X79712487Y-126416122D01*
X79422560Y-126636518D01*
X79422545Y-126636531D01*
X79158162Y-126886969D01*
X78922393Y-127164538D01*
X78718017Y-127465969D01*
X78718015Y-127465973D01*
X78547430Y-127787733D01*
X78547426Y-127787742D01*
X78412632Y-128126050D01*
X78315200Y-128476965D01*
X78256284Y-128836348D01*
X78236567Y-129199997D01*
X78236567Y-129200002D01*
X78256284Y-129563651D01*
X78315200Y-129923034D01*
X78412632Y-130273949D01*
X78478903Y-130440278D01*
X78547431Y-130612269D01*
X78649321Y-130804454D01*
X78718015Y-130934026D01*
X78718017Y-130934030D01*
X78771500Y-131012911D01*
X78921576Y-131234257D01*
X78922393Y-131235461D01*
X78922392Y-131235461D01*
X79158158Y-131513026D01*
X79158161Y-131513029D01*
X79158163Y-131513031D01*
X79182738Y-131536310D01*
X79237616Y-131588293D01*
X79273315Y-131649661D01*
X79270170Y-131720588D01*
X79229177Y-131778555D01*
X79163353Y-131805158D01*
X79143664Y-131805556D01*
X79116803Y-131803997D01*
X79113773Y-131803748D01*
X78333505Y-131720549D01*
X78330489Y-131720154D01*
X77555149Y-131599392D01*
X77552155Y-131598851D01*
X76783532Y-131440804D01*
X76780568Y-131440119D01*
X76400531Y-131342640D01*
X76020489Y-131245161D01*
X76017567Y-131244336D01*
X75267759Y-131012911D01*
X75264875Y-131011944D01*
X75182829Y-130982213D01*
X74929835Y-130890535D01*
X74527136Y-130744608D01*
X74524301Y-130743503D01*
X74473918Y-130722442D01*
X76015259Y-130722442D01*
X76154426Y-130765396D01*
X76894100Y-130955119D01*
X77642184Y-131108943D01*
X77737985Y-131123865D01*
X78005950Y-130855901D01*
X76943875Y-129793826D01*
X76015259Y-130722442D01*
X74473918Y-130722442D01*
X73800317Y-130440866D01*
X73797539Y-130439626D01*
X73766712Y-130424954D01*
X73258018Y-130182839D01*
X73089002Y-130102395D01*
X73086287Y-130101022D01*
X72394852Y-129729985D01*
X72392207Y-129728483D01*
X71719488Y-129324506D01*
X71716918Y-129322877D01*
X71196903Y-128975390D01*
X72105457Y-128975390D01*
X72639564Y-129296129D01*
X73312519Y-129657249D01*
X73471893Y-129733103D01*
X73763309Y-129441688D01*
X74467586Y-129441688D01*
X75529662Y-130503763D01*
X76591737Y-129441688D01*
X75529662Y-128379612D01*
X74467586Y-129441688D01*
X73763309Y-129441688D01*
X73763310Y-129441687D01*
X72701235Y-128379613D01*
X72105457Y-128975390D01*
X71196903Y-128975390D01*
X71064488Y-128886907D01*
X71062000Y-128885156D01*
X70431368Y-128418198D01*
X70428968Y-128416329D01*
X70060323Y-128114758D01*
X69821602Y-127919473D01*
X69819304Y-127917497D01*
X69684233Y-127795659D01*
X70456760Y-127795659D01*
X70736163Y-128024224D01*
X71349913Y-128478682D01*
X71678390Y-128698179D01*
X72349096Y-128027474D01*
X73053373Y-128027474D01*
X74115449Y-129089549D01*
X75177524Y-128027474D01*
X75881800Y-128027474D01*
X76943875Y-129089549D01*
X77891341Y-128142083D01*
X77935046Y-127984676D01*
X77938004Y-127975046D01*
X77941914Y-127963438D01*
X76943875Y-126965399D01*
X75881800Y-128027474D01*
X75177524Y-128027474D01*
X74115449Y-126965399D01*
X73053373Y-128027474D01*
X72349096Y-128027474D01*
X71287021Y-126965398D01*
X70456760Y-127795659D01*
X69684233Y-127795659D01*
X69549840Y-127674432D01*
X69236619Y-127391896D01*
X69234426Y-127389819D01*
X68677809Y-126836724D01*
X68675703Y-126834528D01*
X68312482Y-126436964D01*
X68987028Y-126436964D01*
X69036294Y-126490888D01*
X69577985Y-127029152D01*
X70072722Y-127475420D01*
X70934881Y-126613261D01*
X71639160Y-126613261D01*
X72701235Y-127675336D01*
X73763310Y-126613261D01*
X74467587Y-126613261D01*
X75529662Y-127675336D01*
X76591737Y-126613261D01*
X76591736Y-126613260D01*
X77296014Y-126613260D01*
X78152406Y-127469652D01*
X78281994Y-127225222D01*
X78286962Y-127216438D01*
X78295674Y-127201960D01*
X78301092Y-127193485D01*
X78514945Y-126878076D01*
X78520826Y-126869886D01*
X78531057Y-126856430D01*
X78537364Y-126848582D01*
X78784077Y-126558130D01*
X78790810Y-126550624D01*
X78802436Y-126538352D01*
X78809555Y-126531233D01*
X79081005Y-126274101D01*
X78358089Y-125551185D01*
X77296014Y-126613260D01*
X76591736Y-126613260D01*
X75529662Y-125551185D01*
X74467587Y-126613261D01*
X73763310Y-126613261D01*
X72701235Y-125551185D01*
X71639160Y-126613261D01*
X70934881Y-126613261D01*
X70934882Y-126613260D01*
X69872807Y-125551185D01*
X68987028Y-126436964D01*
X68312482Y-126436964D01*
X68146416Y-126255197D01*
X68144419Y-126252902D01*
X68075369Y-126169580D01*
X67643722Y-125648712D01*
X67641852Y-125646341D01*
X67256774Y-125133135D01*
X67170881Y-125018661D01*
X67169118Y-125016189D01*
X67144162Y-124979351D01*
X67086969Y-124894927D01*
X67700639Y-124894927D01*
X68033889Y-125339061D01*
X68521147Y-125927033D01*
X68650786Y-126068930D01*
X69520669Y-125199047D01*
X70224946Y-125199047D01*
X71287021Y-126261123D01*
X72349097Y-125199047D01*
X73053373Y-125199047D01*
X74115449Y-126261122D01*
X75177523Y-125199048D01*
X75881801Y-125199048D01*
X76943876Y-126261122D01*
X77975999Y-125229000D01*
X77637191Y-125229000D01*
X77627739Y-125228760D01*
X77611877Y-125227953D01*
X77602421Y-125227230D01*
X77478818Y-125214601D01*
X77475409Y-125214158D01*
X77458760Y-125211533D01*
X77455383Y-125210906D01*
X77425447Y-125204498D01*
X77422104Y-125203686D01*
X77405838Y-125199264D01*
X77405122Y-125199048D01*
X78710228Y-125199048D01*
X79483741Y-125972561D01*
X79775042Y-125797290D01*
X79783821Y-125792327D01*
X79798753Y-125784412D01*
X79807771Y-125779940D01*
X80153634Y-125619926D01*
X80162900Y-125615940D01*
X80178610Y-125609682D01*
X80188057Y-125606213D01*
X80548741Y-125484682D01*
X80834376Y-125199047D01*
X81538654Y-125199047D01*
X81683107Y-125343500D01*
X81790551Y-125343500D01*
X81800633Y-125343774D01*
X81817505Y-125344689D01*
X81827537Y-125345506D01*
X82206381Y-125386708D01*
X82216349Y-125388066D01*
X82233029Y-125390798D01*
X82242939Y-125392700D01*
X82615127Y-125474625D01*
X82624900Y-125477056D01*
X82641182Y-125481576D01*
X82650817Y-125484534D01*
X83011943Y-125606213D01*
X83021390Y-125609682D01*
X83037100Y-125615940D01*
X83046366Y-125619926D01*
X83180068Y-125681782D01*
X83662805Y-125199047D01*
X84367081Y-125199047D01*
X85429157Y-126261123D01*
X86491232Y-125199047D01*
X87195509Y-125199047D01*
X88257584Y-126261123D01*
X89319660Y-125199047D01*
X90023936Y-125199047D01*
X91086011Y-126261123D01*
X92148087Y-125199047D01*
X92852363Y-125199047D01*
X93914438Y-126261123D01*
X94976514Y-125199047D01*
X95680790Y-125199047D01*
X95983713Y-125501970D01*
X96067420Y-125423014D01*
X96685181Y-124788564D01*
X97019995Y-124414101D01*
X96742866Y-124136972D01*
X95680790Y-125199047D01*
X94976514Y-125199047D01*
X93914438Y-124136972D01*
X92852363Y-125199047D01*
X92148087Y-125199047D01*
X91086011Y-124136972D01*
X90023936Y-125199047D01*
X89319660Y-125199047D01*
X88257584Y-124136972D01*
X87195509Y-125199047D01*
X86491232Y-125199047D01*
X85429157Y-124136972D01*
X84367081Y-125199047D01*
X83662805Y-125199047D01*
X82600730Y-124136972D01*
X81538654Y-125199047D01*
X80834376Y-125199047D01*
X80533863Y-124898533D01*
X80492320Y-124940077D01*
X80489655Y-124942591D01*
X80476221Y-124954547D01*
X80473412Y-124956904D01*
X80447793Y-124977161D01*
X80444851Y-124979351D01*
X80430122Y-124989663D01*
X80427062Y-124991676D01*
X80253429Y-125098773D01*
X80250257Y-125100605D01*
X80234432Y-125109138D01*
X80231155Y-125110784D01*
X80201556Y-125124587D01*
X80198191Y-125126038D01*
X80181479Y-125132678D01*
X80178034Y-125133932D01*
X79985350Y-125197780D01*
X79982064Y-125198771D01*
X79965795Y-125203195D01*
X79962450Y-125204007D01*
X79932509Y-125210416D01*
X79929130Y-125211043D01*
X79912483Y-125213667D01*
X79909077Y-125214109D01*
X79785551Y-125226730D01*
X79776095Y-125227453D01*
X79760233Y-125228260D01*
X79750781Y-125228500D01*
X79621877Y-125228500D01*
X79573659Y-125218909D01*
X79483243Y-125181458D01*
X79468999Y-125171940D01*
X79454757Y-125181458D01*
X79364341Y-125218909D01*
X79316123Y-125228500D01*
X79187219Y-125228500D01*
X79177767Y-125228260D01*
X79161905Y-125227453D01*
X79152449Y-125226730D01*
X79028923Y-125214109D01*
X79025517Y-125213667D01*
X79008870Y-125211043D01*
X79005491Y-125210416D01*
X78975550Y-125204007D01*
X78972205Y-125203195D01*
X78955936Y-125198771D01*
X78952650Y-125197780D01*
X78771516Y-125137759D01*
X78710228Y-125199048D01*
X77405122Y-125199048D01*
X77402551Y-125198273D01*
X77209755Y-125134388D01*
X77206311Y-125133135D01*
X77189598Y-125126495D01*
X77186232Y-125125043D01*
X77156633Y-125111241D01*
X77153358Y-125109596D01*
X77137531Y-125101062D01*
X77134357Y-125099230D01*
X76960625Y-124992069D01*
X76957566Y-124990057D01*
X76942838Y-124979746D01*
X76939895Y-124977555D01*
X76914276Y-124957298D01*
X76911467Y-124954941D01*
X76898033Y-124942986D01*
X76895368Y-124940471D01*
X76751029Y-124796132D01*
X76748514Y-124793467D01*
X76736559Y-124780033D01*
X76734202Y-124777224D01*
X76713945Y-124751605D01*
X76711754Y-124748662D01*
X76701443Y-124733934D01*
X76699431Y-124730875D01*
X76592270Y-124557143D01*
X76590438Y-124553969D01*
X76581904Y-124538142D01*
X76580259Y-124534867D01*
X76569358Y-124511490D01*
X75881801Y-125199048D01*
X75177523Y-125199048D01*
X75177524Y-125199047D01*
X74115449Y-124136972D01*
X73053373Y-125199047D01*
X72349097Y-125199047D01*
X71287021Y-124136972D01*
X70224946Y-125199047D01*
X69520669Y-125199047D01*
X68458595Y-124136972D01*
X67700639Y-124894927D01*
X67086969Y-124894927D01*
X66729012Y-124366540D01*
X66727381Y-124364002D01*
X66319131Y-123693843D01*
X66317612Y-123691207D01*
X66130771Y-123348270D01*
X66032368Y-123167656D01*
X66599483Y-123167656D01*
X66749887Y-123443716D01*
X67147220Y-124095956D01*
X67408965Y-124482322D01*
X68106454Y-123784834D01*
X68810733Y-123784834D01*
X69872808Y-124846909D01*
X70934883Y-123784834D01*
X71639160Y-123784834D01*
X72701235Y-124846909D01*
X73763310Y-123784834D01*
X74467587Y-123784834D01*
X75529662Y-124846909D01*
X76462500Y-123914070D01*
X76462500Y-123655596D01*
X75529662Y-122722758D01*
X74467587Y-123784834D01*
X73763310Y-123784834D01*
X72701235Y-122722758D01*
X71639160Y-123784834D01*
X70934883Y-123784834D01*
X69872808Y-122722759D01*
X68810733Y-123784834D01*
X68106454Y-123784834D01*
X68106455Y-123784833D01*
X67044381Y-122722759D01*
X66599483Y-123167656D01*
X66032368Y-123167656D01*
X65942190Y-123002139D01*
X65940809Y-122999450D01*
X65636603Y-122370620D01*
X67396519Y-122370620D01*
X68458594Y-123432695D01*
X69520670Y-122370620D01*
X70224946Y-122370620D01*
X71287021Y-123432695D01*
X72349097Y-122370620D01*
X73053373Y-122370620D01*
X74115449Y-123432695D01*
X75177524Y-122370620D01*
X74115449Y-121308544D01*
X73053373Y-122370620D01*
X72349097Y-122370620D01*
X71287021Y-121308544D01*
X70224946Y-122370620D01*
X69520670Y-122370620D01*
X68458594Y-121308544D01*
X67396519Y-122370620D01*
X65636603Y-122370620D01*
X65599083Y-122293061D01*
X65597838Y-122290322D01*
X65290590Y-121568226D01*
X65289479Y-121565427D01*
X65064402Y-120956407D01*
X65982305Y-120956407D01*
X67044381Y-122018482D01*
X68106456Y-120956407D01*
X68810733Y-120956407D01*
X69872808Y-122018482D01*
X70934883Y-120956407D01*
X71639160Y-120956407D01*
X72701235Y-122018482D01*
X73763310Y-120956407D01*
X72701235Y-119894331D01*
X71639160Y-120956407D01*
X70934883Y-120956407D01*
X69872807Y-119894332D01*
X68810733Y-120956407D01*
X68106456Y-120956407D01*
X67044380Y-119894332D01*
X65982305Y-120956407D01*
X65064402Y-120956407D01*
X65017454Y-120829373D01*
X65016479Y-120826529D01*
X64780289Y-120078177D01*
X64779462Y-120075318D01*
X64579666Y-119316432D01*
X64578963Y-119313472D01*
X64554835Y-119199795D01*
X64527970Y-119073222D01*
X65037062Y-119073222D01*
X65063928Y-119199795D01*
X65258366Y-119938332D01*
X65394010Y-120368111D01*
X65630167Y-120604268D01*
X66692243Y-119542193D01*
X67396519Y-119542193D01*
X68458594Y-120604268D01*
X69520670Y-119542193D01*
X70224946Y-119542193D01*
X71287021Y-120604268D01*
X72349097Y-119542193D01*
X71287021Y-118480117D01*
X70224946Y-119542193D01*
X69520670Y-119542193D01*
X68458594Y-118480117D01*
X67396519Y-119542193D01*
X66692243Y-119542193D01*
X65630168Y-118480118D01*
X65037062Y-119073222D01*
X64527970Y-119073222D01*
X64416039Y-118545877D01*
X64415486Y-118542926D01*
X64348155Y-118127979D01*
X65982305Y-118127979D01*
X67044381Y-119190055D01*
X68106456Y-118127979D01*
X68810732Y-118127979D01*
X69872808Y-119190055D01*
X70934883Y-118127979D01*
X69872807Y-117065904D01*
X68810732Y-118127979D01*
X68106456Y-118127979D01*
X67044381Y-117065904D01*
X65982305Y-118127979D01*
X64348155Y-118127979D01*
X64289794Y-117768311D01*
X64289388Y-117765358D01*
X64201231Y-116985591D01*
X64200964Y-116982578D01*
X64199162Y-116954595D01*
X64176726Y-116606100D01*
X64675757Y-116606100D01*
X64690573Y-116836247D01*
X65630167Y-117775841D01*
X66692242Y-116713766D01*
X67396519Y-116713766D01*
X68458594Y-117775841D01*
X69520670Y-116713765D01*
X68458594Y-115651690D01*
X67396519Y-116713766D01*
X66692242Y-116713766D01*
X66692243Y-116713765D01*
X65630168Y-115651691D01*
X64675757Y-116606100D01*
X64176726Y-116606100D01*
X64165770Y-116435919D01*
X64150630Y-116200751D01*
X64150500Y-116196702D01*
X64150500Y-115299552D01*
X65982305Y-115299552D01*
X67044381Y-116361628D01*
X68106456Y-115299552D01*
X68810732Y-115299552D01*
X69593500Y-116082320D01*
X69593500Y-114516785D01*
X68810732Y-115299552D01*
X68106456Y-115299552D01*
X67044381Y-114237477D01*
X65982305Y-115299552D01*
X64150500Y-115299552D01*
X64150500Y-113965746D01*
X64648500Y-113965746D01*
X65630168Y-114947414D01*
X66692242Y-113885339D01*
X67396519Y-113885339D01*
X68458594Y-114947414D01*
X69520670Y-113885339D01*
X68458594Y-112823263D01*
X67396519Y-113885339D01*
X66692242Y-113885339D01*
X66692243Y-113885338D01*
X65630167Y-112823263D01*
X64648500Y-113804931D01*
X64648500Y-113965746D01*
X64150500Y-113965746D01*
X64150500Y-112471125D01*
X65982305Y-112471125D01*
X67044381Y-113533200D01*
X68106456Y-112471125D01*
X68810732Y-112471125D01*
X69593500Y-113253892D01*
X69593500Y-111688358D01*
X68810732Y-112471125D01*
X68106456Y-112471125D01*
X67044381Y-111409050D01*
X65982305Y-112471125D01*
X64150500Y-112471125D01*
X64150500Y-111137319D01*
X64648500Y-111137319D01*
X65630168Y-112118986D01*
X66692243Y-111056912D01*
X67396519Y-111056912D01*
X68458594Y-112118987D01*
X69520670Y-111056912D01*
X68458594Y-109994836D01*
X67396519Y-111056912D01*
X66692243Y-111056912D01*
X65630167Y-109994836D01*
X64648500Y-110976504D01*
X64648500Y-111137319D01*
X64150500Y-111137319D01*
X64150500Y-109642698D01*
X65982305Y-109642698D01*
X67044381Y-110704773D01*
X68106456Y-109642698D01*
X68810733Y-109642698D01*
X69593500Y-110425465D01*
X69593500Y-108859931D01*
X68810733Y-109642698D01*
X68106456Y-109642698D01*
X67044381Y-108580623D01*
X65982305Y-109642698D01*
X64150500Y-109642698D01*
X64150500Y-108308892D01*
X64648500Y-108308892D01*
X65630168Y-109290560D01*
X66692243Y-108228484D01*
X67396519Y-108228484D01*
X68458594Y-109290560D01*
X69520670Y-108228484D01*
X68458594Y-107166409D01*
X67396519Y-108228484D01*
X66692243Y-108228484D01*
X65630167Y-107166409D01*
X64648500Y-108148077D01*
X64648500Y-108308892D01*
X64150500Y-108308892D01*
X64150500Y-106814271D01*
X65982305Y-106814271D01*
X67044381Y-107876346D01*
X68106456Y-106814271D01*
X68106455Y-106814270D01*
X68810732Y-106814270D01*
X69593500Y-107597038D01*
X69593500Y-106031503D01*
X68810732Y-106814270D01*
X68106455Y-106814270D01*
X67044380Y-105752195D01*
X65982305Y-106814271D01*
X64150500Y-106814271D01*
X64150500Y-105480465D01*
X64648500Y-105480465D01*
X65630168Y-106462133D01*
X66692243Y-105400057D01*
X67396519Y-105400057D01*
X68458594Y-106462133D01*
X69520670Y-105400057D01*
X68458594Y-104337982D01*
X67396519Y-105400057D01*
X66692243Y-105400057D01*
X65630167Y-104337982D01*
X64648500Y-105319649D01*
X64648500Y-105480465D01*
X64150500Y-105480465D01*
X64150500Y-104915117D01*
X64152353Y-104893586D01*
X64153602Y-104886384D01*
X64291708Y-104090076D01*
X64292253Y-104087306D01*
X64292299Y-104087101D01*
X64314601Y-103985844D01*
X65982306Y-103985844D01*
X67044381Y-105047919D01*
X68106456Y-103985844D01*
X68810733Y-103985844D01*
X69593500Y-104768611D01*
X69593500Y-103203077D01*
X68810733Y-103985844D01*
X68106456Y-103985844D01*
X67044381Y-102923769D01*
X65982306Y-103985844D01*
X64314601Y-103985844D01*
X64398011Y-103607135D01*
X64470396Y-103278487D01*
X64471069Y-103275729D01*
X64531422Y-103050533D01*
X65046995Y-103050533D01*
X65630168Y-103633706D01*
X66692243Y-102571630D01*
X67396519Y-102571630D01*
X68458594Y-103633706D01*
X69520670Y-102571630D01*
X68458594Y-101509555D01*
X67396519Y-102571630D01*
X66692243Y-102571630D01*
X65630168Y-101509555D01*
X65473162Y-101666561D01*
X65408239Y-101843334D01*
X65163944Y-102614160D01*
X65046995Y-103050533D01*
X64531422Y-103050533D01*
X64685470Y-102475730D01*
X64686245Y-102473079D01*
X64936471Y-101683539D01*
X64937377Y-101680888D01*
X65129632Y-101157417D01*
X65982306Y-101157417D01*
X67044381Y-102219492D01*
X68106456Y-101157417D01*
X68106455Y-101157416D01*
X68810732Y-101157416D01*
X69593500Y-101940184D01*
X69593500Y-100436453D01*
X69589974Y-100378174D01*
X68810732Y-101157416D01*
X68106455Y-101157416D01*
X67044381Y-100095342D01*
X65982306Y-101157417D01*
X65129632Y-101157417D01*
X65222920Y-100903413D01*
X65223941Y-100900816D01*
X65256376Y-100823463D01*
X65544216Y-100136994D01*
X65545348Y-100134455D01*
X65730547Y-99743203D01*
X67396519Y-99743203D01*
X68458594Y-100805278D01*
X69520670Y-99743203D01*
X68458594Y-98681127D01*
X67396519Y-99743203D01*
X65730547Y-99743203D01*
X65899697Y-99385857D01*
X65900968Y-99383322D01*
X65902385Y-99380649D01*
X66099089Y-99009333D01*
X66662649Y-99009333D01*
X67044380Y-99391065D01*
X68106456Y-98328990D01*
X68810733Y-98328990D01*
X69872808Y-99391065D01*
X70934883Y-98328990D01*
X69872808Y-97266915D01*
X68810733Y-98328990D01*
X68106456Y-98328990D01*
X67465581Y-97688115D01*
X67134462Y-98196512D01*
X66724139Y-98893261D01*
X66662649Y-99009333D01*
X66099089Y-99009333D01*
X66288662Y-98651478D01*
X66290045Y-98649004D01*
X66341901Y-98560951D01*
X66710322Y-97935354D01*
X66711792Y-97932979D01*
X67142595Y-97271529D01*
X67753272Y-97271529D01*
X68458594Y-97976851D01*
X69520670Y-96914776D01*
X70224946Y-96914776D01*
X71287021Y-97976851D01*
X72349097Y-96914776D01*
X71287021Y-95852700D01*
X70224946Y-96914776D01*
X69520670Y-96914776D01*
X68679772Y-96073878D01*
X68547616Y-96226865D01*
X68047101Y-96861993D01*
X67753272Y-97271529D01*
X67142595Y-97271529D01*
X67163808Y-97238959D01*
X67165384Y-97236651D01*
X67648232Y-96563659D01*
X67649882Y-96561466D01*
X68162538Y-95910930D01*
X68164311Y-95908781D01*
X68348108Y-95696015D01*
X69006185Y-95696015D01*
X69872808Y-96562638D01*
X70934883Y-95500562D01*
X71639159Y-95500562D01*
X72701235Y-96562638D01*
X73763310Y-95500562D01*
X72701235Y-94438487D01*
X71639159Y-95500562D01*
X70934883Y-95500562D01*
X70053959Y-94619638D01*
X69631784Y-95027533D01*
X69076174Y-95614996D01*
X69006185Y-95696015D01*
X68348108Y-95696015D01*
X68705772Y-95281978D01*
X68707600Y-95279955D01*
X69276718Y-94678209D01*
X69278681Y-94676224D01*
X69686311Y-94282383D01*
X70420980Y-94282383D01*
X71287021Y-95148424D01*
X72349097Y-94086349D01*
X73053374Y-94086349D01*
X74115449Y-95148424D01*
X75177524Y-94086349D01*
X75881801Y-94086349D01*
X76588952Y-94793500D01*
X77298800Y-94793500D01*
X78005950Y-94086349D01*
X76943876Y-93024274D01*
X75881801Y-94086349D01*
X75177524Y-94086349D01*
X74115449Y-93024274D01*
X73053374Y-94086349D01*
X72349097Y-94086349D01*
X71585885Y-93323137D01*
X71449262Y-93423382D01*
X70819530Y-93930614D01*
X70420980Y-94282383D01*
X69686311Y-94282383D01*
X69874337Y-94100717D01*
X69876413Y-94098801D01*
X70497343Y-93550753D01*
X70499513Y-93548923D01*
X71144502Y-93029401D01*
X71146740Y-93027678D01*
X71150281Y-93025080D01*
X71992104Y-93025080D01*
X72701235Y-93734211D01*
X73763310Y-92672135D01*
X74467586Y-92672135D01*
X75529662Y-93734211D01*
X76591737Y-92672135D01*
X75529662Y-91610060D01*
X74467586Y-92672135D01*
X73763310Y-92672135D01*
X73281519Y-92190344D01*
X72773985Y-92496567D01*
X72101213Y-92945024D01*
X71992104Y-93025080D01*
X71150281Y-93025080D01*
X71814537Y-92537696D01*
X71816787Y-92536123D01*
X72505975Y-92076722D01*
X72508297Y-92075249D01*
X72740429Y-91935191D01*
X73730643Y-91935191D01*
X74115448Y-92319997D01*
X75177524Y-91257922D01*
X75881801Y-91257922D01*
X76943875Y-92319996D01*
X77815190Y-91448681D01*
X77825131Y-91388045D01*
X77827032Y-91378140D01*
X77830667Y-91361628D01*
X77833098Y-91351860D01*
X77891075Y-91143046D01*
X77214722Y-90466693D01*
X77170412Y-90479076D01*
X76411048Y-90728674D01*
X75881801Y-91257922D01*
X75177524Y-91257922D01*
X75151624Y-91232022D01*
X74903881Y-91339021D01*
X74176792Y-91692720D01*
X73730643Y-91935191D01*
X72740429Y-91935191D01*
X73217476Y-91647363D01*
X73219882Y-91645984D01*
X73947640Y-91250466D01*
X73950073Y-91249213D01*
X74694893Y-90886889D01*
X74697450Y-90885717D01*
X74835139Y-90826250D01*
X75457804Y-90557325D01*
X75460385Y-90556279D01*
X76234731Y-90262485D01*
X76237408Y-90261538D01*
X76437262Y-90195847D01*
X77024228Y-90002914D01*
X77026896Y-90002104D01*
X77824577Y-89779185D01*
X77827283Y-89778495D01*
X78634194Y-89591737D01*
X78636897Y-89591175D01*
X79253626Y-89477431D01*
X79324242Y-89484746D01*
X79379695Y-89529079D01*
X79402377Y-89596355D01*
X79385087Y-89665214D01*
X79363126Y-89692816D01*
X79158162Y-89886968D01*
X78922393Y-90164538D01*
X78718017Y-90465969D01*
X78718015Y-90465973D01*
X78547430Y-90787733D01*
X78547426Y-90787742D01*
X78412632Y-91126050D01*
X78315200Y-91476965D01*
X78256284Y-91836348D01*
X78236567Y-92199997D01*
X78236567Y-92200002D01*
X78256284Y-92563651D01*
X78315200Y-92923034D01*
X78412632Y-93273949D01*
X78522546Y-93549814D01*
X78547431Y-93612269D01*
X78616206Y-93741993D01*
X78718015Y-93934026D01*
X78718017Y-93934030D01*
X78922393Y-94235461D01*
X78922392Y-94235461D01*
X79158162Y-94513030D01*
X79422545Y-94763468D01*
X79422560Y-94763481D01*
X79712485Y-94983876D01*
X79712488Y-94983877D01*
X79712487Y-94983877D01*
X79834908Y-95057536D01*
X79882966Y-95109795D01*
X79895141Y-95179740D01*
X79867568Y-95245164D01*
X79809002Y-95285295D01*
X79769948Y-95291500D01*
X75223319Y-95291500D01*
X75219519Y-95291385D01*
X75156908Y-95287598D01*
X75156907Y-95287598D01*
X75156905Y-95287598D01*
X75095218Y-95298902D01*
X75091459Y-95299474D01*
X75083178Y-95300480D01*
X75029202Y-95307034D01*
X75029195Y-95307035D01*
X75019661Y-95310651D01*
X74997710Y-95316770D01*
X74987678Y-95318609D01*
X74987664Y-95318613D01*
X74930479Y-95344350D01*
X74926965Y-95345805D01*
X74877389Y-95364608D01*
X74868325Y-95368046D01*
X74868324Y-95368046D01*
X74868323Y-95368047D01*
X74859929Y-95373841D01*
X74840074Y-95385039D01*
X74830777Y-95389223D01*
X74830776Y-95389224D01*
X74781414Y-95427895D01*
X74778351Y-95430149D01*
X74726727Y-95465783D01*
X74726727Y-95465784D01*
X74685126Y-95512740D01*
X74682518Y-95515511D01*
X70315511Y-99882518D01*
X70312740Y-99885126D01*
X70265784Y-99926726D01*
X70230157Y-99978339D01*
X70227904Y-99981401D01*
X70189227Y-100030769D01*
X70189222Y-100030779D01*
X70185035Y-100040080D01*
X70173846Y-100059921D01*
X70168045Y-100068326D01*
X70145807Y-100126961D01*
X70144351Y-100130476D01*
X70118613Y-100187665D01*
X70118609Y-100187678D01*
X70116770Y-100197711D01*
X70110651Y-100219661D01*
X70107034Y-100229199D01*
X70099476Y-100291441D01*
X70098904Y-100295201D01*
X70093084Y-100326967D01*
X70087598Y-100356907D01*
X70091317Y-100418393D01*
X70091385Y-100419508D01*
X70091500Y-100423313D01*
X70091500Y-116176685D01*
X70091385Y-116180488D01*
X70087598Y-116243093D01*
X70091985Y-116267035D01*
X70098902Y-116304782D01*
X70099475Y-116308544D01*
X70107033Y-116370794D01*
X70107034Y-116370798D01*
X70110650Y-116380333D01*
X70116771Y-116402289D01*
X70118612Y-116412332D01*
X70144353Y-116469528D01*
X70145809Y-116473043D01*
X70153568Y-116493500D01*
X70168046Y-116531675D01*
X70171241Y-116536304D01*
X70173840Y-116540069D01*
X70185035Y-116559919D01*
X70189223Y-116569222D01*
X70189225Y-116569226D01*
X70206184Y-116590872D01*
X70227899Y-116618590D01*
X70230154Y-116621655D01*
X70265783Y-116673271D01*
X70265784Y-116673272D01*
X70265785Y-116673273D01*
X70312750Y-116714880D01*
X70315494Y-116717464D01*
X76157533Y-122559503D01*
X76160119Y-122562249D01*
X76201727Y-122609215D01*
X76234666Y-122631951D01*
X76253355Y-122644852D01*
X76256389Y-122647083D01*
X76305775Y-122685775D01*
X76315070Y-122689958D01*
X76334933Y-122701161D01*
X76343325Y-122706954D01*
X76401986Y-122729200D01*
X76405466Y-122730642D01*
X76462671Y-122756389D01*
X76472704Y-122758227D01*
X76494668Y-122764351D01*
X76504196Y-122767964D01*
X76504199Y-122767965D01*
X76566470Y-122775525D01*
X76570193Y-122776092D01*
X76631908Y-122787402D01*
X76694519Y-122783614D01*
X76698319Y-122783500D01*
X76834500Y-122783500D01*
X76902621Y-122803502D01*
X76949114Y-122857158D01*
X76960500Y-122909500D01*
X76960500Y-124046380D01*
X76960499Y-124046380D01*
X76970763Y-124146833D01*
X76970764Y-124146836D01*
X77024698Y-124309601D01*
X77059047Y-124365289D01*
X77114715Y-124455540D01*
X77114720Y-124455546D01*
X77235953Y-124576779D01*
X77235959Y-124576784D01*
X77235960Y-124576785D01*
X77381899Y-124666802D01*
X77544664Y-124720736D01*
X77564756Y-124722788D01*
X77645120Y-124731000D01*
X77645128Y-124731000D01*
X78192880Y-124731000D01*
X78265936Y-124723535D01*
X78293336Y-124720736D01*
X78456101Y-124666802D01*
X78602040Y-124576785D01*
X78605250Y-124573574D01*
X78667554Y-124539545D01*
X78738370Y-124544601D01*
X78783447Y-124573567D01*
X78786266Y-124576386D01*
X78786270Y-124576389D01*
X78932115Y-124666347D01*
X79094758Y-124720242D01*
X79094770Y-124720244D01*
X79195147Y-124730499D01*
X79195147Y-124730500D01*
X79215000Y-124730500D01*
X79215000Y-124001500D01*
X79723000Y-124001500D01*
X79723000Y-124730500D01*
X79742853Y-124730500D01*
X79742852Y-124730499D01*
X79843229Y-124720244D01*
X79843241Y-124720242D01*
X80005884Y-124666347D01*
X80151728Y-124576390D01*
X80151734Y-124576385D01*
X80239855Y-124488264D01*
X80827872Y-124488264D01*
X81186517Y-124846909D01*
X82248591Y-123784834D01*
X82952869Y-123784834D01*
X84014944Y-124846908D01*
X85077019Y-123784834D01*
X85077018Y-123784833D01*
X85781295Y-123784833D01*
X86843371Y-124846908D01*
X87905446Y-123784834D01*
X88609723Y-123784834D01*
X89671798Y-124846909D01*
X90733873Y-123784834D01*
X91438149Y-123784834D01*
X92500225Y-124846909D01*
X93562300Y-123784834D01*
X94266577Y-123784834D01*
X95328652Y-124846909D01*
X96390727Y-123784834D01*
X97095004Y-123784834D01*
X97348960Y-124038790D01*
X97837068Y-123443812D01*
X98283785Y-122849465D01*
X98157079Y-122722758D01*
X97095004Y-123784834D01*
X96390727Y-123784834D01*
X95328652Y-122722758D01*
X94266577Y-123784834D01*
X93562300Y-123784834D01*
X92500225Y-122722758D01*
X91438149Y-123784834D01*
X90733873Y-123784834D01*
X89671798Y-122722758D01*
X88609723Y-123784834D01*
X87905446Y-123784834D01*
X86843370Y-122722758D01*
X85781295Y-123784833D01*
X85077018Y-123784833D01*
X84014944Y-122722759D01*
X82952869Y-123784834D01*
X82248591Y-123784834D01*
X81186517Y-122722759D01*
X80846703Y-123062572D01*
X80894280Y-123206150D01*
X80895271Y-123209436D01*
X80899695Y-123225705D01*
X80900507Y-123229050D01*
X80906916Y-123258991D01*
X80907543Y-123262370D01*
X80910167Y-123279017D01*
X80910609Y-123282423D01*
X80923230Y-123405949D01*
X80923953Y-123415405D01*
X80924760Y-123431267D01*
X80925000Y-123440719D01*
X80925000Y-123594623D01*
X80915409Y-123642841D01*
X80877958Y-123733257D01*
X80868441Y-123747499D01*
X80877958Y-123761743D01*
X80915409Y-123852159D01*
X80925000Y-123900377D01*
X80925000Y-124054281D01*
X80924760Y-124063733D01*
X80923953Y-124079595D01*
X80923230Y-124089051D01*
X80910609Y-124212577D01*
X80910167Y-124215983D01*
X80907543Y-124232630D01*
X80906916Y-124236009D01*
X80900507Y-124265950D01*
X80899695Y-124269295D01*
X80895271Y-124285564D01*
X80894280Y-124288850D01*
X80830432Y-124481534D01*
X80829178Y-124484979D01*
X80827872Y-124488264D01*
X80239855Y-124488264D01*
X80272885Y-124455234D01*
X80272890Y-124455228D01*
X80362847Y-124309384D01*
X80416742Y-124146741D01*
X80416744Y-124146729D01*
X80426999Y-124046352D01*
X80427000Y-124046352D01*
X80427000Y-124001500D01*
X79723000Y-124001500D01*
X79215000Y-124001500D01*
X79215000Y-123619500D01*
X79235002Y-123551379D01*
X79288658Y-123504886D01*
X79341000Y-123493500D01*
X80427000Y-123493500D01*
X80427000Y-123448647D01*
X80416744Y-123348270D01*
X80416742Y-123348258D01*
X80362847Y-123185615D01*
X80312168Y-123103451D01*
X80293431Y-123034971D01*
X80310955Y-122973167D01*
X80383145Y-122851101D01*
X80429562Y-122691331D01*
X80432500Y-122654002D01*
X80432500Y-122370620D01*
X81538654Y-122370620D01*
X82600730Y-123432695D01*
X83662805Y-122370620D01*
X84367081Y-122370620D01*
X85429157Y-123432695D01*
X86491232Y-122370620D01*
X87195509Y-122370620D01*
X88257584Y-123432695D01*
X89319660Y-122370620D01*
X90023936Y-122370620D01*
X91086011Y-123432695D01*
X92148087Y-122370620D01*
X92852363Y-122370620D01*
X93914438Y-123432695D01*
X94976514Y-122370620D01*
X95680790Y-122370620D01*
X96742866Y-123432695D01*
X97804941Y-122370620D01*
X96742866Y-121308544D01*
X95680790Y-122370620D01*
X94976514Y-122370620D01*
X93914438Y-121308544D01*
X92852363Y-122370620D01*
X92148087Y-122370620D01*
X91086011Y-121308544D01*
X90023936Y-122370620D01*
X89319660Y-122370620D01*
X88257584Y-121308544D01*
X87195509Y-122370620D01*
X86491232Y-122370620D01*
X85429157Y-121308544D01*
X84367081Y-122370620D01*
X83662805Y-122370620D01*
X82600730Y-121308544D01*
X81538654Y-122370620D01*
X80432500Y-122370620D01*
X80432500Y-121496004D01*
X80432503Y-121496038D01*
X80447087Y-121426556D01*
X80496921Y-121375988D01*
X80566183Y-121360390D01*
X80597746Y-121366527D01*
X80744758Y-121415242D01*
X80744770Y-121415244D01*
X80845147Y-121425499D01*
X80845147Y-121425500D01*
X80890000Y-121425500D01*
X80890000Y-120721500D01*
X81398000Y-120721500D01*
X81398000Y-121425500D01*
X81442853Y-121425500D01*
X81442852Y-121425499D01*
X81543229Y-121415244D01*
X81543241Y-121415242D01*
X81705884Y-121361347D01*
X81851728Y-121271390D01*
X81851734Y-121271385D01*
X81972885Y-121150234D01*
X81972890Y-121150228D01*
X82062847Y-121004384D01*
X82078745Y-120956407D01*
X82952868Y-120956407D01*
X84014944Y-122018481D01*
X85077019Y-120956407D01*
X85781296Y-120956407D01*
X86843371Y-122018482D01*
X87905446Y-120956407D01*
X88609723Y-120956407D01*
X89671798Y-122018482D01*
X90733873Y-120956407D01*
X91438150Y-120956407D01*
X92500225Y-122018482D01*
X93562299Y-120956407D01*
X94266577Y-120956407D01*
X95328652Y-122018482D01*
X96390727Y-120956407D01*
X97095004Y-120956407D01*
X98157079Y-122018482D01*
X99219154Y-120956407D01*
X98157079Y-119894331D01*
X97095004Y-120956407D01*
X96390727Y-120956407D01*
X95410421Y-119976101D01*
X95400179Y-119984270D01*
X95397355Y-119986396D01*
X95383211Y-119996433D01*
X95380269Y-119998398D01*
X95353598Y-120015156D01*
X95350552Y-120016953D01*
X95335372Y-120025342D01*
X95332231Y-120026964D01*
X95303361Y-120040864D01*
X95276229Y-120057916D01*
X95273181Y-120059714D01*
X95258001Y-120068104D01*
X95254860Y-120069726D01*
X95226485Y-120083390D01*
X95223260Y-120084833D01*
X95207240Y-120091469D01*
X95203937Y-120092730D01*
X95173680Y-120103316D01*
X95144803Y-120117225D01*
X95141575Y-120118669D01*
X95125549Y-120125307D01*
X95122245Y-120126569D01*
X95092519Y-120136969D01*
X95089153Y-120138042D01*
X95083237Y-120139746D01*
X94266577Y-120956407D01*
X93562299Y-120956407D01*
X92804893Y-120199000D01*
X92195557Y-120199000D01*
X91438150Y-120956407D01*
X90733873Y-120956407D01*
X89976466Y-120199000D01*
X89367130Y-120199000D01*
X88609723Y-120956407D01*
X87905446Y-120956407D01*
X87148039Y-120199000D01*
X86538703Y-120199000D01*
X85781296Y-120956407D01*
X85077019Y-120956407D01*
X84319612Y-120199000D01*
X83710276Y-120199000D01*
X82952868Y-120956407D01*
X82078745Y-120956407D01*
X82116742Y-120841741D01*
X82116744Y-120841729D01*
X82126999Y-120741352D01*
X82127000Y-120741352D01*
X82127000Y-120721500D01*
X81398000Y-120721500D01*
X80890000Y-120721500D01*
X80890000Y-120339500D01*
X80910002Y-120271379D01*
X80963658Y-120224886D01*
X81016000Y-120213500D01*
X82127000Y-120213500D01*
X82127000Y-120193647D01*
X82116744Y-120093270D01*
X82116742Y-120093258D01*
X82062846Y-119930614D01*
X82062845Y-119930611D01*
X82039737Y-119893146D01*
X82021000Y-119824667D01*
X82042260Y-119756928D01*
X82096767Y-119711437D01*
X82146978Y-119701000D01*
X94770776Y-119701000D01*
X94770779Y-119701000D01*
X94810505Y-119691932D01*
X94817457Y-119690751D01*
X94847957Y-119687315D01*
X94857940Y-119686191D01*
X94857940Y-119686190D01*
X94857948Y-119686190D01*
X94896411Y-119672730D01*
X94903198Y-119670776D01*
X94942911Y-119661712D01*
X94979618Y-119644034D01*
X94986138Y-119641333D01*
X94998934Y-119636856D01*
X95775454Y-119636856D01*
X96742866Y-120604268D01*
X97804941Y-119542193D01*
X98509217Y-119542193D01*
X99571292Y-120604268D01*
X99871778Y-120303781D01*
X100182866Y-119698099D01*
X100374211Y-119283036D01*
X99571293Y-118480118D01*
X98509217Y-119542193D01*
X97804941Y-119542193D01*
X96919248Y-118656500D01*
X97623524Y-118656500D01*
X98157079Y-119190055D01*
X99219154Y-118127979D01*
X99923431Y-118127979D01*
X100593106Y-118797654D01*
X100889820Y-118074701D01*
X101183118Y-117263515D01*
X100985507Y-117065903D01*
X99923431Y-118127979D01*
X99219154Y-118127979D01*
X98656500Y-117565325D01*
X98656500Y-117706989D01*
X98656234Y-117716938D01*
X98655340Y-117733627D01*
X98654540Y-117743562D01*
X98645262Y-117829873D01*
X98644718Y-117833775D01*
X98641458Y-117852814D01*
X98640673Y-117856670D01*
X98632606Y-117890805D01*
X98631581Y-117894605D01*
X98625976Y-117913079D01*
X98624717Y-117916808D01*
X98560485Y-118089019D01*
X98558764Y-118093174D01*
X98549598Y-118113244D01*
X98547585Y-118117267D01*
X98528371Y-118152455D01*
X98526077Y-118156323D01*
X98514142Y-118174895D01*
X98511575Y-118178593D01*
X98399917Y-118327750D01*
X98397095Y-118331252D01*
X98382642Y-118347932D01*
X98379576Y-118351225D01*
X98351225Y-118379576D01*
X98347932Y-118382642D01*
X98331252Y-118397095D01*
X98327750Y-118399917D01*
X98178593Y-118511575D01*
X98174895Y-118514142D01*
X98156323Y-118526077D01*
X98152455Y-118528371D01*
X98117267Y-118547585D01*
X98113244Y-118549598D01*
X98093174Y-118558764D01*
X98089019Y-118560485D01*
X97916808Y-118624717D01*
X97913079Y-118625976D01*
X97894605Y-118631581D01*
X97890805Y-118632606D01*
X97856670Y-118640673D01*
X97852814Y-118641458D01*
X97833775Y-118644718D01*
X97829873Y-118645262D01*
X97743562Y-118654540D01*
X97733627Y-118655340D01*
X97716938Y-118656234D01*
X97706989Y-118656500D01*
X97623524Y-118656500D01*
X96919248Y-118656500D01*
X96755814Y-118656500D01*
X95775454Y-119636856D01*
X94998934Y-119636856D01*
X95024599Y-119627876D01*
X95059100Y-119606196D01*
X95065266Y-119602787D01*
X95101985Y-119585106D01*
X95133847Y-119559696D01*
X95139587Y-119555624D01*
X95174096Y-119533941D01*
X95298941Y-119409096D01*
X95358436Y-119349601D01*
X95358447Y-119349588D01*
X96512634Y-118195402D01*
X96574944Y-118161379D01*
X96601727Y-118158500D01*
X97698632Y-118158500D01*
X97698638Y-118158500D01*
X97698645Y-118158499D01*
X97698649Y-118158499D01*
X97759196Y-118151990D01*
X97759199Y-118151989D01*
X97759201Y-118151989D01*
X97896204Y-118100889D01*
X97912061Y-118089019D01*
X98013261Y-118013261D01*
X98100887Y-117896207D01*
X98100887Y-117896206D01*
X98100889Y-117896204D01*
X98151989Y-117759201D01*
X98153671Y-117743562D01*
X98158499Y-117698649D01*
X98158500Y-117698632D01*
X98158500Y-116861047D01*
X98656500Y-116861047D01*
X99571293Y-117775841D01*
X100633368Y-116713766D01*
X99571293Y-115651691D01*
X98656500Y-116566484D01*
X98656500Y-116861047D01*
X98158500Y-116861047D01*
X98158500Y-115901367D01*
X98158499Y-115901350D01*
X98151990Y-115840803D01*
X98151988Y-115840795D01*
X98100889Y-115703797D01*
X98100887Y-115703792D01*
X98013261Y-115586738D01*
X97896207Y-115499112D01*
X97896203Y-115499110D01*
X97781192Y-115456213D01*
X97724356Y-115413667D01*
X97699546Y-115347146D01*
X97709900Y-115299552D01*
X99923431Y-115299552D01*
X100985506Y-116361627D01*
X101641810Y-115705322D01*
X101685647Y-115541804D01*
X101795809Y-115047781D01*
X100985506Y-114237477D01*
X99923431Y-115299552D01*
X97709900Y-115299552D01*
X97714638Y-115277772D01*
X97732525Y-115252820D01*
X97875714Y-115097277D01*
X97875724Y-115097265D01*
X97884776Y-115083410D01*
X97998860Y-114908791D01*
X98089296Y-114702616D01*
X98144564Y-114484368D01*
X98163156Y-114260000D01*
X98144564Y-114035632D01*
X98127032Y-113966400D01*
X98089297Y-113817387D01*
X98089296Y-113817386D01*
X98089296Y-113817384D01*
X98080250Y-113796762D01*
X98597793Y-113796762D01*
X98630493Y-113925890D01*
X98633650Y-113940949D01*
X98637897Y-113966400D01*
X98639798Y-113981654D01*
X98642893Y-114019014D01*
X99571293Y-114947413D01*
X100633368Y-113885339D01*
X100633367Y-113885338D01*
X101337644Y-113885338D01*
X101916508Y-114464202D01*
X102034204Y-113805800D01*
X102130660Y-113092322D01*
X101337644Y-113885338D01*
X100633367Y-113885338D01*
X99571292Y-112823263D01*
X98597793Y-113796762D01*
X98080250Y-113796762D01*
X97998860Y-113611209D01*
X97985499Y-113590758D01*
X97875724Y-113422734D01*
X97875720Y-113422729D01*
X97746412Y-113282265D01*
X97723240Y-113257094D01*
X97723239Y-113257093D01*
X97723237Y-113257091D01*
X97556157Y-113127047D01*
X97545576Y-113118811D01*
X97512319Y-113100813D01*
X97461929Y-113050802D01*
X97448462Y-112990000D01*
X98154247Y-112990000D01*
X98250850Y-113094936D01*
X98260796Y-113106679D01*
X98276648Y-113127047D01*
X98285579Y-113139558D01*
X98390352Y-113299926D01*
X99219154Y-112471125D01*
X99923431Y-112471125D01*
X100985506Y-113533200D01*
X102047582Y-112471125D01*
X100985506Y-111409049D01*
X99923431Y-112471125D01*
X99219154Y-112471125D01*
X98647953Y-111899925D01*
X98639798Y-111998346D01*
X98637897Y-112013600D01*
X98633650Y-112039051D01*
X98630493Y-112054110D01*
X98568890Y-112297374D01*
X98564503Y-112312108D01*
X98556128Y-112336507D01*
X98550537Y-112350839D01*
X98449732Y-112580653D01*
X98442976Y-112594471D01*
X98430696Y-112617162D01*
X98422823Y-112630373D01*
X98285579Y-112840442D01*
X98276648Y-112852953D01*
X98260796Y-112873321D01*
X98250850Y-112885064D01*
X98154247Y-112990000D01*
X97448462Y-112990000D01*
X97446576Y-112981485D01*
X97471136Y-112914872D01*
X97512320Y-112879186D01*
X97545576Y-112861189D01*
X97723240Y-112722906D01*
X97875722Y-112557268D01*
X97998860Y-112368791D01*
X98089296Y-112162616D01*
X98144564Y-111944368D01*
X98163156Y-111720000D01*
X98144564Y-111495632D01*
X98144562Y-111495624D01*
X98089297Y-111277387D01*
X98089296Y-111277386D01*
X98089296Y-111277384D01*
X97998860Y-111071209D01*
X97977178Y-111038023D01*
X98528105Y-111038023D01*
X98550537Y-111089161D01*
X98556128Y-111103493D01*
X98556299Y-111103993D01*
X99571292Y-112118986D01*
X100633368Y-111056912D01*
X100633367Y-111056911D01*
X101337644Y-111056911D01*
X102238459Y-111957726D01*
X102277760Y-111162019D01*
X102283817Y-110276513D01*
X102278104Y-110116451D01*
X101337644Y-111056911D01*
X100633367Y-111056911D01*
X99571292Y-109994836D01*
X98528105Y-111038023D01*
X97977178Y-111038023D01*
X97967984Y-111023950D01*
X97875724Y-110882734D01*
X97875720Y-110882729D01*
X97723237Y-110717091D01*
X97588868Y-110612507D01*
X97545576Y-110578811D01*
X97512319Y-110560813D01*
X97461929Y-110510802D01*
X97448462Y-110450000D01*
X98154247Y-110450000D01*
X98250850Y-110554936D01*
X98260796Y-110566679D01*
X98275841Y-110586010D01*
X99219154Y-109642698D01*
X99923431Y-109642698D01*
X100985506Y-110704773D01*
X102047582Y-109642698D01*
X100985506Y-108580622D01*
X99923431Y-109642698D01*
X99219154Y-109642698D01*
X98654406Y-109077951D01*
X98660521Y-109151734D01*
X98661156Y-109167101D01*
X98661156Y-109192899D01*
X98660521Y-109208266D01*
X98639798Y-109458346D01*
X98637897Y-109473600D01*
X98633650Y-109499051D01*
X98630493Y-109514110D01*
X98568890Y-109757374D01*
X98564503Y-109772108D01*
X98556128Y-109796507D01*
X98550537Y-109810839D01*
X98449732Y-110040653D01*
X98442976Y-110054471D01*
X98430696Y-110077162D01*
X98422823Y-110090373D01*
X98285579Y-110300442D01*
X98276648Y-110312953D01*
X98260796Y-110333321D01*
X98250850Y-110345064D01*
X98154247Y-110450000D01*
X97448462Y-110450000D01*
X97446576Y-110441485D01*
X97471136Y-110374872D01*
X97512320Y-110339186D01*
X97545576Y-110321189D01*
X97723240Y-110182906D01*
X97875722Y-110017268D01*
X97998860Y-109828791D01*
X98089296Y-109622616D01*
X98144564Y-109404368D01*
X98163156Y-109180000D01*
X98144564Y-108955632D01*
X98128494Y-108892174D01*
X98089297Y-108737387D01*
X98089296Y-108737386D01*
X98089296Y-108737384D01*
X97998860Y-108531209D01*
X97964123Y-108478040D01*
X97875724Y-108342734D01*
X97875720Y-108342729D01*
X97770548Y-108228484D01*
X98509217Y-108228484D01*
X99571292Y-109290560D01*
X100633367Y-108228485D01*
X101337645Y-108228485D01*
X102231111Y-109121951D01*
X102183067Y-108508730D01*
X102076444Y-107629647D01*
X102056654Y-107509475D01*
X101337645Y-108228485D01*
X100633367Y-108228485D01*
X100633368Y-108228484D01*
X99571293Y-107166409D01*
X98509217Y-108228484D01*
X97770548Y-108228484D01*
X97723237Y-108177091D01*
X97641382Y-108113381D01*
X97545576Y-108038811D01*
X97512319Y-108020813D01*
X97461929Y-107970802D01*
X97446576Y-107901485D01*
X97471136Y-107834872D01*
X97512320Y-107799186D01*
X97545576Y-107781189D01*
X97618910Y-107724110D01*
X98309315Y-107724110D01*
X99219154Y-106814271D01*
X99923431Y-106814271D01*
X100985506Y-107876346D01*
X101957074Y-106904776D01*
X101932557Y-106755891D01*
X101917619Y-106684308D01*
X100985506Y-105752195D01*
X99923431Y-106814271D01*
X99219154Y-106814271D01*
X98603269Y-106198385D01*
X98630493Y-106305890D01*
X98633650Y-106320949D01*
X98637897Y-106346400D01*
X98639798Y-106361654D01*
X98660521Y-106611734D01*
X98661156Y-106627101D01*
X98661156Y-106652899D01*
X98660521Y-106668266D01*
X98639798Y-106918346D01*
X98637897Y-106933600D01*
X98633650Y-106959051D01*
X98630493Y-106974110D01*
X98568890Y-107217374D01*
X98564503Y-107232108D01*
X98556128Y-107256507D01*
X98550537Y-107270839D01*
X98449732Y-107500653D01*
X98442976Y-107514471D01*
X98430696Y-107537162D01*
X98422823Y-107550373D01*
X98309315Y-107724110D01*
X97618910Y-107724110D01*
X97723240Y-107642906D01*
X97875722Y-107477268D01*
X97998860Y-107288791D01*
X98089296Y-107082616D01*
X98144564Y-106864368D01*
X98163156Y-106640000D01*
X98144564Y-106415632D01*
X98107278Y-106268392D01*
X98089297Y-106197387D01*
X98089296Y-106197386D01*
X98089296Y-106197384D01*
X97998860Y-105991209D01*
X97982423Y-105966050D01*
X97875724Y-105802734D01*
X97875720Y-105802729D01*
X97723237Y-105637091D01*
X97626709Y-105561960D01*
X97545576Y-105498811D01*
X97511792Y-105480528D01*
X97461402Y-105430516D01*
X97454656Y-105400057D01*
X98509217Y-105400057D01*
X99571292Y-106462133D01*
X100633368Y-105400057D01*
X99571293Y-104337982D01*
X98509217Y-105400057D01*
X97454656Y-105400057D01*
X97446050Y-105361199D01*
X97470610Y-105294586D01*
X97511793Y-105258901D01*
X97545299Y-105240768D01*
X97545302Y-105240766D01*
X97565688Y-105224898D01*
X97057427Y-104716638D01*
X97023402Y-104654325D01*
X97028466Y-104583510D01*
X97067145Y-104531840D01*
X97066289Y-104530853D01*
X97070830Y-104526917D01*
X97071013Y-104526674D01*
X97071510Y-104526328D01*
X97073095Y-104524953D01*
X97073100Y-104524952D01*
X97181761Y-104430798D01*
X97217824Y-104374681D01*
X97271478Y-104328189D01*
X97341752Y-104318084D01*
X97406333Y-104347576D01*
X97412918Y-104353707D01*
X97923077Y-104863866D01*
X97998419Y-104748551D01*
X98088820Y-104542456D01*
X98088823Y-104542449D01*
X98144067Y-104324292D01*
X98162653Y-104100000D01*
X98144067Y-103875707D01*
X98088823Y-103657550D01*
X98088820Y-103657543D01*
X97998422Y-103451456D01*
X97998417Y-103451448D01*
X97923076Y-103336132D01*
X97412916Y-103846292D01*
X97350604Y-103880317D01*
X97279788Y-103875252D01*
X97222953Y-103832705D01*
X97217836Y-103825336D01*
X97181761Y-103769202D01*
X97178034Y-103765973D01*
X97109444Y-103706540D01*
X97073100Y-103675048D01*
X97073098Y-103675047D01*
X97066289Y-103669147D01*
X97068312Y-103666811D01*
X97031912Y-103624809D01*
X97021802Y-103554536D01*
X97051290Y-103489952D01*
X97057426Y-103483361D01*
X97353212Y-103187575D01*
X98420885Y-103187575D01*
X98422381Y-103189864D01*
X98430249Y-103203070D01*
X98442528Y-103225758D01*
X98449288Y-103239581D01*
X98550060Y-103469318D01*
X98555652Y-103483650D01*
X98564028Y-103508051D01*
X98568416Y-103522787D01*
X98629998Y-103765973D01*
X98633155Y-103781030D01*
X98637402Y-103806483D01*
X98639303Y-103821737D01*
X98660019Y-104071734D01*
X98660654Y-104087101D01*
X98660654Y-104112899D01*
X98660019Y-104128266D01*
X98639303Y-104378263D01*
X98637402Y-104393517D01*
X98633155Y-104418970D01*
X98629998Y-104434027D01*
X98582193Y-104622804D01*
X99219154Y-103985844D01*
X99219153Y-103985843D01*
X99923431Y-103985843D01*
X100985506Y-105047918D01*
X101411721Y-104621702D01*
X101280238Y-104182297D01*
X100990558Y-103345494D01*
X100869818Y-103039456D01*
X99923431Y-103985843D01*
X99219153Y-103985843D01*
X98420885Y-103187575D01*
X97353212Y-103187575D01*
X97565688Y-102975099D01*
X97545306Y-102959235D01*
X97545299Y-102959230D01*
X97347371Y-102852118D01*
X97347369Y-102852116D01*
X97134516Y-102779044D01*
X97134509Y-102779042D01*
X96912523Y-102742000D01*
X96687477Y-102742000D01*
X96465490Y-102779042D01*
X96465483Y-102779044D01*
X96252630Y-102852116D01*
X96252628Y-102852118D01*
X96054700Y-102959230D01*
X96034310Y-102975099D01*
X96034310Y-102975100D01*
X96542572Y-103483361D01*
X96576597Y-103545674D01*
X96571533Y-103616489D01*
X96532854Y-103668157D01*
X96533711Y-103669147D01*
X96529164Y-103673086D01*
X96528986Y-103673325D01*
X96528498Y-103673663D01*
X96418238Y-103769202D01*
X96382175Y-103825318D01*
X96328519Y-103871811D01*
X96258245Y-103881914D01*
X96193664Y-103852421D01*
X96187082Y-103846292D01*
X95676922Y-103336132D01*
X95601580Y-103451451D01*
X95511179Y-103657543D01*
X95511176Y-103657550D01*
X95455932Y-103875707D01*
X95437346Y-104100000D01*
X95455932Y-104324292D01*
X95511176Y-104542449D01*
X95511179Y-104542456D01*
X95601580Y-104748548D01*
X95676922Y-104863866D01*
X96187081Y-104353706D01*
X96249394Y-104319681D01*
X96320209Y-104324745D01*
X96377045Y-104367292D01*
X96382162Y-104374661D01*
X96418239Y-104430798D01*
X96526900Y-104524952D01*
X96526901Y-104524952D01*
X96533711Y-104530853D01*
X96531686Y-104533189D01*
X96568084Y-104575187D01*
X96578195Y-104645460D01*
X96548709Y-104710043D01*
X96542572Y-104716636D01*
X96034310Y-105224898D01*
X96054694Y-105240763D01*
X96054700Y-105240768D01*
X96088206Y-105258900D01*
X96138597Y-105308913D01*
X96153949Y-105378230D01*
X96129389Y-105444843D01*
X96088209Y-105480526D01*
X96054430Y-105498806D01*
X96054424Y-105498811D01*
X95876762Y-105637091D01*
X95724279Y-105802729D01*
X95724275Y-105802734D01*
X95601141Y-105991206D01*
X95510703Y-106197386D01*
X95510702Y-106197387D01*
X95455437Y-106415624D01*
X95455436Y-106415630D01*
X95455436Y-106415632D01*
X95436844Y-106640000D01*
X95455346Y-106863284D01*
X95455437Y-106864375D01*
X95510702Y-107082612D01*
X95510703Y-107082613D01*
X95510704Y-107082616D01*
X95569814Y-107217374D01*
X95601141Y-107288793D01*
X95724275Y-107477265D01*
X95724279Y-107477270D01*
X95876762Y-107642908D01*
X95931331Y-107685381D01*
X96054424Y-107781189D01*
X96087680Y-107799186D01*
X96138071Y-107849200D01*
X96153423Y-107918516D01*
X96128862Y-107985129D01*
X96087680Y-108020813D01*
X96054426Y-108038810D01*
X96054424Y-108038811D01*
X95876762Y-108177091D01*
X95724279Y-108342729D01*
X95724275Y-108342734D01*
X95601141Y-108531206D01*
X95510703Y-108737386D01*
X95510702Y-108737387D01*
X95455437Y-108955624D01*
X95455436Y-108955630D01*
X95455436Y-108955632D01*
X95436844Y-109180000D01*
X95452025Y-109363209D01*
X95455437Y-109404375D01*
X95510702Y-109622612D01*
X95510703Y-109622613D01*
X95510704Y-109622616D01*
X95593266Y-109810839D01*
X95601141Y-109828793D01*
X95724275Y-110017265D01*
X95724279Y-110017270D01*
X95876762Y-110182908D01*
X95931331Y-110225381D01*
X96054424Y-110321189D01*
X96087680Y-110339186D01*
X96138071Y-110389200D01*
X96153423Y-110458516D01*
X96128862Y-110525129D01*
X96087680Y-110560813D01*
X96054426Y-110578810D01*
X96054424Y-110578811D01*
X95876762Y-110717091D01*
X95724279Y-110882729D01*
X95724275Y-110882734D01*
X95601141Y-111071206D01*
X95510703Y-111277386D01*
X95510702Y-111277387D01*
X95455437Y-111495624D01*
X95455436Y-111495630D01*
X95455436Y-111495632D01*
X95436844Y-111720000D01*
X95452915Y-111913950D01*
X95455437Y-111944375D01*
X95510702Y-112162612D01*
X95510703Y-112162613D01*
X95510704Y-112162616D01*
X95586979Y-112336507D01*
X95601141Y-112368793D01*
X95724275Y-112557265D01*
X95724279Y-112557270D01*
X95876762Y-112722908D01*
X95899245Y-112740407D01*
X96054424Y-112861189D01*
X96087680Y-112879186D01*
X96138071Y-112929200D01*
X96153423Y-112998516D01*
X96128862Y-113065129D01*
X96087680Y-113100813D01*
X96054426Y-113118810D01*
X96054424Y-113118811D01*
X95876762Y-113257091D01*
X95724279Y-113422729D01*
X95724275Y-113422734D01*
X95601141Y-113611206D01*
X95510703Y-113817386D01*
X95510702Y-113817387D01*
X95455437Y-114035624D01*
X95455436Y-114035630D01*
X95455436Y-114035632D01*
X95436844Y-114260000D01*
X95455436Y-114484368D01*
X95455436Y-114484371D01*
X95455437Y-114484372D01*
X95461750Y-114509304D01*
X95459081Y-114580250D01*
X95428700Y-114629328D01*
X93103435Y-116954595D01*
X93041123Y-116988620D01*
X93014340Y-116991500D01*
X86036500Y-116991500D01*
X85968379Y-116971498D01*
X85921886Y-116917842D01*
X85910500Y-116865500D01*
X85910500Y-116493500D01*
X87415775Y-116493500D01*
X89099394Y-116493500D01*
X90244202Y-116493500D01*
X91927821Y-116493500D01*
X91086011Y-115651690D01*
X90244202Y-116493500D01*
X89099394Y-116493500D01*
X88257584Y-115651690D01*
X87415775Y-116493500D01*
X85910500Y-116493500D01*
X85910500Y-115926755D01*
X86408500Y-115926755D01*
X86843371Y-116361627D01*
X87783998Y-115421000D01*
X88731170Y-115421000D01*
X89671798Y-116361628D01*
X90733872Y-115299553D01*
X90733871Y-115299552D01*
X91438149Y-115299552D01*
X92500225Y-116361628D01*
X93562300Y-115299552D01*
X92500225Y-114237477D01*
X91438149Y-115299552D01*
X90733871Y-115299552D01*
X90289837Y-114855517D01*
X90248176Y-114923062D01*
X90246163Y-114926122D01*
X90235851Y-114940851D01*
X90233661Y-114943793D01*
X90213404Y-114969412D01*
X90211047Y-114972221D01*
X90199092Y-114985655D01*
X90196577Y-114988320D01*
X90052320Y-115132577D01*
X90049655Y-115135092D01*
X90036221Y-115147047D01*
X90033412Y-115149404D01*
X90007793Y-115169661D01*
X90004851Y-115171851D01*
X89990122Y-115182163D01*
X89987062Y-115184176D01*
X89813429Y-115291273D01*
X89810257Y-115293105D01*
X89794432Y-115301638D01*
X89791155Y-115303284D01*
X89761556Y-115317087D01*
X89758191Y-115318538D01*
X89741479Y-115325178D01*
X89738034Y-115326432D01*
X89545350Y-115390280D01*
X89542064Y-115391271D01*
X89525795Y-115395695D01*
X89522450Y-115396507D01*
X89492509Y-115402916D01*
X89489130Y-115403543D01*
X89472483Y-115406167D01*
X89469077Y-115406609D01*
X89345551Y-115419230D01*
X89336095Y-115419953D01*
X89320233Y-115420760D01*
X89310781Y-115421000D01*
X89156877Y-115421000D01*
X89108659Y-115411409D01*
X89018243Y-115373958D01*
X89004000Y-115364441D01*
X88989757Y-115373958D01*
X88899341Y-115411409D01*
X88851123Y-115421000D01*
X88731170Y-115421000D01*
X87783998Y-115421000D01*
X87905446Y-115299552D01*
X87492910Y-114887017D01*
X87382462Y-114929807D01*
X87379720Y-114930797D01*
X87366181Y-114935333D01*
X87363405Y-114936193D01*
X87338469Y-114943288D01*
X87335650Y-114944020D01*
X87321752Y-114947289D01*
X87318906Y-114947889D01*
X87091481Y-114990403D01*
X87088606Y-114990872D01*
X87074465Y-114992844D01*
X87071576Y-114993179D01*
X87045759Y-114995572D01*
X87042855Y-114995773D01*
X87028593Y-114996433D01*
X87025682Y-114996500D01*
X86794318Y-114996500D01*
X86791407Y-114996433D01*
X86777145Y-114995773D01*
X86774241Y-114995572D01*
X86748424Y-114993179D01*
X86745535Y-114992844D01*
X86731394Y-114990872D01*
X86728519Y-114990403D01*
X86501094Y-114947889D01*
X86498248Y-114947289D01*
X86484350Y-114944020D01*
X86481531Y-114943288D01*
X86456595Y-114936193D01*
X86453819Y-114935333D01*
X86440280Y-114930797D01*
X86437538Y-114929807D01*
X86408500Y-114918557D01*
X86408500Y-115926755D01*
X85910500Y-115926755D01*
X85910500Y-114264180D01*
X85930502Y-114196059D01*
X85984158Y-114149566D01*
X86054432Y-114139462D01*
X86119012Y-114168956D01*
X86121371Y-114171052D01*
X86239118Y-114278392D01*
X86413782Y-114386540D01*
X86605345Y-114460751D01*
X86807282Y-114498500D01*
X86807285Y-114498500D01*
X87012715Y-114498500D01*
X87012718Y-114498500D01*
X87214655Y-114460751D01*
X87406218Y-114386540D01*
X87580882Y-114278392D01*
X87732701Y-114139991D01*
X87794449Y-114058222D01*
X87851463Y-114015915D01*
X87922299Y-114011147D01*
X87984468Y-114045433D01*
X88018232Y-114107887D01*
X88021000Y-114134154D01*
X88021000Y-114238852D01*
X88031255Y-114339229D01*
X88031257Y-114339241D01*
X88085152Y-114501884D01*
X88175109Y-114647728D01*
X88175114Y-114647734D01*
X88296265Y-114768885D01*
X88296271Y-114768890D01*
X88442115Y-114858847D01*
X88604758Y-114912742D01*
X88604770Y-114912744D01*
X88705147Y-114922999D01*
X88705147Y-114923000D01*
X88750000Y-114923000D01*
X88750000Y-114219000D01*
X89258000Y-114219000D01*
X89258000Y-114923000D01*
X89302853Y-114923000D01*
X89302852Y-114922999D01*
X89403229Y-114912744D01*
X89403241Y-114912742D01*
X89565884Y-114858847D01*
X89711728Y-114768890D01*
X89711734Y-114768885D01*
X89832885Y-114647734D01*
X89832890Y-114647728D01*
X89922847Y-114501884D01*
X89976742Y-114339241D01*
X89976744Y-114339229D01*
X89986999Y-114238852D01*
X89987000Y-114238852D01*
X89987000Y-114219000D01*
X89258000Y-114219000D01*
X88750000Y-114219000D01*
X88750000Y-113965000D01*
X90428440Y-113965000D01*
X90437958Y-113979243D01*
X90475409Y-114069659D01*
X90485000Y-114117877D01*
X90485000Y-114246781D01*
X90484760Y-114256233D01*
X90483953Y-114272095D01*
X90483230Y-114281552D01*
X90477381Y-114338783D01*
X91086012Y-114947413D01*
X92148086Y-113885339D01*
X92852363Y-113885339D01*
X93914438Y-114947413D01*
X94976513Y-113885338D01*
X93914438Y-112823263D01*
X92852363Y-113885339D01*
X92148086Y-113885339D01*
X92148087Y-113885338D01*
X91086012Y-112823264D01*
X90455713Y-113453561D01*
X90459695Y-113468205D01*
X90460507Y-113471550D01*
X90466916Y-113501491D01*
X90467543Y-113504870D01*
X90470167Y-113521517D01*
X90470609Y-113524923D01*
X90483230Y-113648449D01*
X90483953Y-113657905D01*
X90484760Y-113673767D01*
X90485000Y-113683219D01*
X90485000Y-113812123D01*
X90475409Y-113860341D01*
X90437958Y-113950757D01*
X90428440Y-113965000D01*
X88750000Y-113965000D01*
X88750000Y-113837000D01*
X88770002Y-113768879D01*
X88823658Y-113722386D01*
X88876000Y-113711000D01*
X89987000Y-113711000D01*
X89987000Y-113691147D01*
X89976744Y-113590770D01*
X89976742Y-113590758D01*
X89922847Y-113428115D01*
X89832890Y-113282271D01*
X89832885Y-113282265D01*
X89830067Y-113279447D01*
X89828749Y-113277034D01*
X89828338Y-113276514D01*
X89828426Y-113276443D01*
X89796041Y-113217135D01*
X89801106Y-113146320D01*
X89830073Y-113101251D01*
X89833285Y-113098040D01*
X89923302Y-112952101D01*
X89977236Y-112789336D01*
X89985004Y-112713304D01*
X89987500Y-112688880D01*
X89987500Y-112471125D01*
X91438149Y-112471125D01*
X92500225Y-113533200D01*
X93562300Y-112471125D01*
X93562299Y-112471124D01*
X94266576Y-112471124D01*
X95165436Y-113369985D01*
X95169304Y-113362838D01*
X95177177Y-113349627D01*
X95314421Y-113139558D01*
X95323352Y-113127047D01*
X95339204Y-113106679D01*
X95349150Y-113094936D01*
X95445752Y-112990000D01*
X95349150Y-112885064D01*
X95339204Y-112873321D01*
X95323352Y-112852953D01*
X95314421Y-112840442D01*
X95177177Y-112630373D01*
X95169304Y-112617162D01*
X95157024Y-112594471D01*
X95150268Y-112580653D01*
X95049463Y-112350839D01*
X95043872Y-112336507D01*
X95035497Y-112312108D01*
X95031110Y-112297374D01*
X94969507Y-112054110D01*
X94966350Y-112039051D01*
X94962103Y-112013600D01*
X94960202Y-111998346D01*
X94943301Y-111794399D01*
X94266576Y-112471124D01*
X93562299Y-112471124D01*
X92500224Y-111409050D01*
X91438149Y-112471125D01*
X89987500Y-112471125D01*
X89987500Y-112141119D01*
X89977236Y-112040666D01*
X89977236Y-112040664D01*
X89932077Y-111904381D01*
X90871406Y-111904381D01*
X91086011Y-112118987D01*
X92148086Y-111056912D01*
X92852363Y-111056912D01*
X93914438Y-112118987D01*
X94976514Y-111056912D01*
X93914438Y-109994836D01*
X92852363Y-111056912D01*
X92148086Y-111056912D01*
X91941049Y-110849874D01*
X91023616Y-111767306D01*
X90979470Y-111817140D01*
X90976860Y-111819912D01*
X90963653Y-111833119D01*
X90960882Y-111835728D01*
X90935490Y-111858223D01*
X90932562Y-111860663D01*
X90917859Y-111872180D01*
X90914795Y-111874435D01*
X90871406Y-111904381D01*
X89932077Y-111904381D01*
X89923302Y-111877899D01*
X89900323Y-111840645D01*
X89881587Y-111772168D01*
X89902846Y-111704429D01*
X89957353Y-111658937D01*
X90007565Y-111648500D01*
X90121365Y-111648500D01*
X90125168Y-111648614D01*
X90187773Y-111652402D01*
X90249492Y-111641091D01*
X90253205Y-111640526D01*
X90315481Y-111632965D01*
X90325010Y-111629350D01*
X90346984Y-111623226D01*
X90357009Y-111621389D01*
X90414232Y-111595634D01*
X90417689Y-111594202D01*
X90476355Y-111571954D01*
X90484746Y-111566161D01*
X90504602Y-111554961D01*
X90513906Y-111550775D01*
X90563316Y-111512063D01*
X90566301Y-111509867D01*
X90617953Y-111474215D01*
X90659576Y-111427231D01*
X90662129Y-111424519D01*
X91588913Y-110497735D01*
X92293188Y-110497735D01*
X92500225Y-110704773D01*
X93562300Y-109642698D01*
X93562299Y-109642697D01*
X94266576Y-109642697D01*
X95278466Y-110654588D01*
X95314421Y-110599557D01*
X95323352Y-110587047D01*
X95339204Y-110566679D01*
X95349150Y-110554936D01*
X95445752Y-110450000D01*
X95349150Y-110345064D01*
X95339204Y-110333321D01*
X95323352Y-110312953D01*
X95314421Y-110300442D01*
X95177177Y-110090373D01*
X95169304Y-110077162D01*
X95157024Y-110054471D01*
X95150268Y-110040653D01*
X95049463Y-109810839D01*
X95043872Y-109796507D01*
X95035497Y-109772108D01*
X95031110Y-109757374D01*
X94969507Y-109514110D01*
X94966350Y-109499051D01*
X94962103Y-109473600D01*
X94960202Y-109458346D01*
X94939479Y-109208266D01*
X94938844Y-109192899D01*
X94938844Y-109167101D01*
X94939479Y-109151734D01*
X94955917Y-108953356D01*
X94266576Y-109642697D01*
X93562299Y-109642697D01*
X92806500Y-108886898D01*
X92806500Y-109448239D01*
X92810516Y-109514633D01*
X92810631Y-109518438D01*
X92810631Y-109537106D01*
X92810516Y-109540909D01*
X92808469Y-109574764D01*
X92808125Y-109578558D01*
X92805873Y-109597103D01*
X92805300Y-109600866D01*
X92793309Y-109666281D01*
X92785291Y-109732337D01*
X92784718Y-109736104D01*
X92781351Y-109754478D01*
X92780552Y-109758199D01*
X92772433Y-109791137D01*
X92771410Y-109794804D01*
X92766694Y-109809938D01*
X92762912Y-109825286D01*
X92761891Y-109828952D01*
X92751800Y-109861342D01*
X92750558Y-109864943D01*
X92743931Y-109882416D01*
X92742473Y-109885937D01*
X92715165Y-109946603D01*
X92691583Y-110008794D01*
X92690127Y-110012310D01*
X92682461Y-110029345D01*
X92680792Y-110032772D01*
X92665024Y-110062814D01*
X92663153Y-110066131D01*
X92654961Y-110079679D01*
X92647604Y-110093700D01*
X92645733Y-110097019D01*
X92628181Y-110126055D01*
X92626111Y-110129255D01*
X92615499Y-110144628D01*
X92613243Y-110147693D01*
X92572213Y-110200058D01*
X92534435Y-110254795D01*
X92532180Y-110257859D01*
X92520663Y-110272562D01*
X92518223Y-110275490D01*
X92495728Y-110300882D01*
X92493119Y-110303653D01*
X92479912Y-110316860D01*
X92477140Y-110319470D01*
X92427314Y-110363609D01*
X92293188Y-110497735D01*
X91588913Y-110497735D01*
X92084519Y-110002129D01*
X92087231Y-109999576D01*
X92134215Y-109957953D01*
X92169867Y-109906301D01*
X92172063Y-109903316D01*
X92210775Y-109853906D01*
X92214961Y-109844602D01*
X92226161Y-109824746D01*
X92231954Y-109816355D01*
X92254206Y-109757678D01*
X92255633Y-109754232D01*
X92281388Y-109697010D01*
X92283224Y-109686988D01*
X92289351Y-109665009D01*
X92289790Y-109663852D01*
X92292965Y-109655481D01*
X92300526Y-109593200D01*
X92301094Y-109589467D01*
X92312401Y-109527773D01*
X92308614Y-109465178D01*
X92308500Y-109461376D01*
X92308500Y-108228484D01*
X92852363Y-108228484D01*
X93914439Y-109290560D01*
X94976514Y-108228484D01*
X93914438Y-107166409D01*
X92852363Y-108228484D01*
X92308500Y-108228484D01*
X92308500Y-106058471D01*
X92806500Y-106058471D01*
X92806500Y-107570071D01*
X93562300Y-106814271D01*
X94266576Y-106814271D01*
X95328651Y-107876346D01*
X95373491Y-107831505D01*
X95349150Y-107805064D01*
X95339204Y-107793321D01*
X95323352Y-107772953D01*
X95314421Y-107760442D01*
X95177177Y-107550373D01*
X95169304Y-107537162D01*
X95157024Y-107514471D01*
X95150268Y-107500653D01*
X95049463Y-107270839D01*
X95043872Y-107256507D01*
X95035497Y-107232108D01*
X95031110Y-107217374D01*
X94969507Y-106974110D01*
X94966350Y-106959051D01*
X94962103Y-106933600D01*
X94960202Y-106918346D01*
X94939479Y-106668266D01*
X94938844Y-106652899D01*
X94938844Y-106627101D01*
X94939479Y-106611734D01*
X94960202Y-106361654D01*
X94962103Y-106346400D01*
X94966350Y-106320949D01*
X94969507Y-106305890D01*
X95031110Y-106062626D01*
X95035497Y-106047892D01*
X95036825Y-106044022D01*
X94266576Y-106814271D01*
X93562300Y-106814271D01*
X92806500Y-106058471D01*
X92308500Y-106058471D01*
X92308500Y-105400057D01*
X92852363Y-105400057D01*
X93914438Y-106462132D01*
X94976514Y-105400057D01*
X93914438Y-104337982D01*
X92852363Y-105400057D01*
X92308500Y-105400057D01*
X92308500Y-103230044D01*
X92806500Y-103230044D01*
X92806500Y-104741643D01*
X93562298Y-103985844D01*
X94266577Y-103985844D01*
X95080043Y-104799310D01*
X95049940Y-104730682D01*
X95044348Y-104716350D01*
X95035972Y-104691949D01*
X95031584Y-104677213D01*
X94970002Y-104434027D01*
X94966845Y-104418970D01*
X94962598Y-104393517D01*
X94960697Y-104378263D01*
X94939981Y-104128266D01*
X94939346Y-104112899D01*
X94939346Y-104087101D01*
X94939981Y-104071734D01*
X94960697Y-103821737D01*
X94962598Y-103806483D01*
X94966845Y-103781030D01*
X94970002Y-103765973D01*
X95031584Y-103522787D01*
X95035972Y-103508051D01*
X95044348Y-103483650D01*
X95049940Y-103469318D01*
X95150710Y-103239587D01*
X95157465Y-103225771D01*
X95169744Y-103203080D01*
X95177617Y-103189867D01*
X95323223Y-102967002D01*
X95347931Y-102943048D01*
X95328652Y-102923769D01*
X94266577Y-103985844D01*
X93562298Y-103985844D01*
X93562299Y-103985843D01*
X92806500Y-103230044D01*
X92308500Y-103230044D01*
X92308500Y-102571630D01*
X92852363Y-102571630D01*
X93914439Y-103633706D01*
X94976514Y-102571630D01*
X95680790Y-102571630D01*
X95707533Y-102598373D01*
X95741895Y-102571630D01*
X98509217Y-102571630D01*
X99571292Y-103633706D01*
X100633368Y-102571630D01*
X99571293Y-101509555D01*
X98509217Y-102571630D01*
X95741895Y-102571630D01*
X95759013Y-102558308D01*
X95771524Y-102549376D01*
X95793121Y-102535266D01*
X95806333Y-102527394D01*
X96026953Y-102408000D01*
X96040766Y-102401247D01*
X96064392Y-102390883D01*
X96078725Y-102385290D01*
X96315988Y-102303837D01*
X96330723Y-102299451D01*
X96355734Y-102293116D01*
X96370792Y-102289958D01*
X96618233Y-102248668D01*
X96633490Y-102246767D01*
X96659197Y-102244637D01*
X96674568Y-102244000D01*
X96925432Y-102244000D01*
X96940803Y-102244637D01*
X96966510Y-102246767D01*
X96981767Y-102248668D01*
X97229208Y-102289958D01*
X97244266Y-102293116D01*
X97269277Y-102299451D01*
X97284012Y-102303837D01*
X97521275Y-102385290D01*
X97535608Y-102390883D01*
X97559234Y-102401247D01*
X97573047Y-102408000D01*
X97721823Y-102488513D01*
X96742866Y-101509555D01*
X95680790Y-102571630D01*
X94976514Y-102571630D01*
X93914438Y-101509555D01*
X92852363Y-102571630D01*
X92308500Y-102571630D01*
X92308500Y-100623302D01*
X92308615Y-100619497D01*
X92312401Y-100556907D01*
X92301095Y-100495216D01*
X92300525Y-100491469D01*
X92298673Y-100476216D01*
X92292965Y-100429199D01*
X92289347Y-100419662D01*
X92283225Y-100397696D01*
X92281388Y-100387669D01*
X92279865Y-100384286D01*
X92789169Y-100384286D01*
X92793309Y-100418393D01*
X92805300Y-100483816D01*
X92805873Y-100487578D01*
X92808125Y-100506123D01*
X92808469Y-100509917D01*
X92810516Y-100543773D01*
X92810631Y-100547576D01*
X92810631Y-100566244D01*
X92810516Y-100570049D01*
X92806500Y-100636439D01*
X92806500Y-101913216D01*
X93562300Y-101157417D01*
X94266577Y-101157417D01*
X95328652Y-102219492D01*
X96390727Y-101157417D01*
X97095004Y-101157417D01*
X98157079Y-102219492D01*
X99219154Y-101157417D01*
X98157079Y-100095341D01*
X97095004Y-101157417D01*
X96390727Y-101157417D01*
X95328652Y-100095341D01*
X94266577Y-101157417D01*
X93562300Y-101157417D01*
X92789169Y-100384286D01*
X92279865Y-100384286D01*
X92255651Y-100330485D01*
X92254194Y-100326967D01*
X92231954Y-100268326D01*
X92231951Y-100268320D01*
X92226163Y-100259935D01*
X92214958Y-100240070D01*
X92210775Y-100230774D01*
X92172073Y-100181375D01*
X92169855Y-100178360D01*
X92134215Y-100126727D01*
X92087258Y-100085127D01*
X92084512Y-100082541D01*
X91745174Y-99743203D01*
X92852363Y-99743203D01*
X93914438Y-100805278D01*
X94976514Y-99743203D01*
X95680790Y-99743203D01*
X96742865Y-100805278D01*
X97804941Y-99743203D01*
X98509218Y-99743203D01*
X99571292Y-100805278D01*
X99750558Y-100626011D01*
X99484994Y-100143704D01*
X99025295Y-99386847D01*
X98961378Y-99291042D01*
X98509218Y-99743203D01*
X97804941Y-99743203D01*
X96742866Y-98681128D01*
X95680790Y-99743203D01*
X94976514Y-99743203D01*
X93914438Y-98681127D01*
X92852363Y-99743203D01*
X91745174Y-99743203D01*
X90330960Y-98328990D01*
X91438150Y-98328990D01*
X92500225Y-99391065D01*
X93562300Y-98328990D01*
X94266577Y-98328990D01*
X95328652Y-99391065D01*
X96390726Y-98328990D01*
X97095004Y-98328990D01*
X98157078Y-99391064D01*
X98679542Y-98868599D01*
X98533844Y-98650212D01*
X98011531Y-97935128D01*
X97779599Y-97644394D01*
X97095004Y-98328990D01*
X96390726Y-98328990D01*
X96390727Y-98328989D01*
X95328652Y-97266914D01*
X94266577Y-98328990D01*
X93562300Y-98328990D01*
X92500225Y-97266915D01*
X91438150Y-98328990D01*
X90330960Y-98328990D01*
X88916746Y-96914776D01*
X90023936Y-96914776D01*
X91086011Y-97976851D01*
X92148087Y-96914776D01*
X92852363Y-96914776D01*
X93914438Y-97976851D01*
X94976514Y-96914776D01*
X95680791Y-96914776D01*
X96742865Y-97976851D01*
X97467076Y-97252638D01*
X97459299Y-97242889D01*
X96878144Y-96574747D01*
X96461061Y-96134505D01*
X95680791Y-96914776D01*
X94976514Y-96914776D01*
X93914438Y-95852700D01*
X92852363Y-96914776D01*
X92148087Y-96914776D01*
X91086011Y-95852700D01*
X90023936Y-96914776D01*
X88916746Y-96914776D01*
X87517464Y-95515494D01*
X87514880Y-95512750D01*
X87504082Y-95500562D01*
X88609722Y-95500562D01*
X89671798Y-96562638D01*
X90733873Y-95500562D01*
X91438149Y-95500562D01*
X92500225Y-96562638D01*
X93562299Y-95500563D01*
X94266577Y-95500563D01*
X95328652Y-96562637D01*
X96111850Y-95779439D01*
X95633324Y-95315529D01*
X95008147Y-94758992D01*
X94266577Y-95500563D01*
X93562299Y-95500563D01*
X93562300Y-95500562D01*
X92500225Y-94438487D01*
X91438149Y-95500562D01*
X90733873Y-95500562D01*
X89671798Y-94438487D01*
X88609722Y-95500562D01*
X87504082Y-95500562D01*
X87473273Y-95465785D01*
X87473270Y-95465783D01*
X87473271Y-95465783D01*
X87421655Y-95430154D01*
X87418590Y-95427899D01*
X87400146Y-95413449D01*
X87369226Y-95389225D01*
X87369222Y-95389223D01*
X87359919Y-95385035D01*
X87340069Y-95373840D01*
X87331675Y-95368046D01*
X87308705Y-95359334D01*
X87273043Y-95345809D01*
X87269528Y-95344353D01*
X87212332Y-95318612D01*
X87212330Y-95318611D01*
X87212329Y-95318611D01*
X87202286Y-95316770D01*
X87180336Y-95310650D01*
X87170801Y-95307035D01*
X87170800Y-95307034D01*
X87170798Y-95307034D01*
X87170794Y-95307033D01*
X87118362Y-95300667D01*
X87108537Y-95299473D01*
X87104786Y-95298902D01*
X87063760Y-95291385D01*
X87043094Y-95287598D01*
X87043093Y-95287598D01*
X86980488Y-95291385D01*
X86976685Y-95291500D01*
X83430052Y-95291500D01*
X83361931Y-95271498D01*
X83315438Y-95217842D01*
X83305334Y-95147568D01*
X83334828Y-95082988D01*
X83365092Y-95057536D01*
X83392850Y-95040834D01*
X83487515Y-94983876D01*
X83777440Y-94763481D01*
X84041837Y-94513031D01*
X84093813Y-94451840D01*
X84732573Y-94451840D01*
X85074233Y-94793500D01*
X85784080Y-94793500D01*
X86491231Y-94086349D01*
X87195509Y-94086349D01*
X88257584Y-95148424D01*
X89319660Y-94086349D01*
X90023936Y-94086349D01*
X91086011Y-95148424D01*
X92148087Y-94086349D01*
X92148086Y-94086348D01*
X92852363Y-94086348D01*
X93914438Y-95148423D01*
X94621952Y-94440908D01*
X94286064Y-94166575D01*
X93577035Y-93636073D01*
X93414082Y-93524629D01*
X92852363Y-94086348D01*
X92148086Y-94086348D01*
X91086011Y-93024273D01*
X90023936Y-94086349D01*
X89319660Y-94086349D01*
X88257584Y-93024273D01*
X87195509Y-94086349D01*
X86491231Y-94086349D01*
X86491232Y-94086348D01*
X85429157Y-93024274D01*
X85352144Y-93101286D01*
X85264954Y-93415324D01*
X85261996Y-93424954D01*
X85256600Y-93440972D01*
X85253124Y-93450430D01*
X85112069Y-93804454D01*
X85108083Y-93813721D01*
X85100987Y-93829054D01*
X85096516Y-93838070D01*
X84918006Y-94174778D01*
X84913038Y-94183562D01*
X84904326Y-94198040D01*
X84898908Y-94206515D01*
X84732573Y-94451840D01*
X84093813Y-94451840D01*
X84277606Y-94235463D01*
X84481982Y-93934031D01*
X84652569Y-93612269D01*
X84787368Y-93273949D01*
X84884798Y-92923039D01*
X84925931Y-92672135D01*
X85781295Y-92672135D01*
X86843371Y-93734211D01*
X87905446Y-92672135D01*
X88609722Y-92672135D01*
X89671798Y-93734211D01*
X90733872Y-92672136D01*
X91438150Y-92672136D01*
X92500224Y-93734210D01*
X92995839Y-93238594D01*
X92846098Y-93136186D01*
X92094577Y-92667814D01*
X91678082Y-92432204D01*
X91438150Y-92672136D01*
X90733872Y-92672136D01*
X90733873Y-92672135D01*
X89671798Y-91610060D01*
X88609722Y-92672135D01*
X87905446Y-92672135D01*
X86843371Y-91610060D01*
X85781295Y-92672135D01*
X84925931Y-92672135D01*
X84943716Y-92563651D01*
X84963433Y-92200000D01*
X84962909Y-92190344D01*
X84956750Y-92076747D01*
X84943716Y-91836349D01*
X84884798Y-91476961D01*
X84787368Y-91126051D01*
X84652569Y-90787731D01*
X84521270Y-90540074D01*
X85084929Y-90540074D01*
X85096516Y-90561930D01*
X85100987Y-90570946D01*
X85108083Y-90586279D01*
X85112069Y-90595546D01*
X85253124Y-90949570D01*
X85256600Y-90959028D01*
X85261996Y-90975046D01*
X85264954Y-90984676D01*
X85366902Y-91351860D01*
X85369333Y-91361628D01*
X85372968Y-91378140D01*
X85374869Y-91388046D01*
X85436521Y-91764118D01*
X85437883Y-91774103D01*
X85439710Y-91790906D01*
X85440528Y-91800945D01*
X85461161Y-92181481D01*
X85461433Y-92191553D01*
X85461433Y-92208447D01*
X85461161Y-92218519D01*
X85457177Y-92291976D01*
X86491232Y-91257922D01*
X87195509Y-91257922D01*
X88257584Y-92319997D01*
X89295102Y-91282479D01*
X88910311Y-91125533D01*
X88076895Y-90826250D01*
X87734074Y-90719356D01*
X87195509Y-91257922D01*
X86491232Y-91257922D01*
X85429157Y-90195847D01*
X85084929Y-90540074D01*
X84521270Y-90540074D01*
X84481982Y-90465969D01*
X84277606Y-90164537D01*
X84041837Y-89886969D01*
X83933454Y-89784303D01*
X83777454Y-89636531D01*
X83777444Y-89636523D01*
X83777440Y-89636519D01*
X83777427Y-89636509D01*
X83736873Y-89605680D01*
X83694747Y-89548532D01*
X83690206Y-89477680D01*
X83724691Y-89415621D01*
X83787253Y-89382058D01*
X83829730Y-89380472D01*
X84613902Y-89484746D01*
G37*
G04 #@! TD.AperFunction*
G04 #@! TA.AperFunction,Conductor*
G36*
X78757621Y-119566002D02*
G01*
X78804114Y-119619658D01*
X78815500Y-119672000D01*
X78815500Y-120379006D01*
X78818437Y-120416329D01*
X78864856Y-120576103D01*
X78910453Y-120653202D01*
X78928000Y-120717342D01*
X78928000Y-120967492D01*
X78931683Y-120970258D01*
X78974148Y-121027154D01*
X78979112Y-121097977D01*
X78952002Y-121147566D01*
X78954405Y-121149430D01*
X78949544Y-121155696D01*
X78864856Y-121298894D01*
X78818437Y-121458670D01*
X78815500Y-121495994D01*
X78815500Y-122654006D01*
X78818437Y-122691329D01*
X78818438Y-122691332D01*
X78842798Y-122775182D01*
X78842595Y-122846179D01*
X78804040Y-122905795D01*
X78787954Y-122917571D01*
X78786276Y-122918606D01*
X78786267Y-122918612D01*
X78783442Y-122921438D01*
X78781026Y-122922756D01*
X78780514Y-122923162D01*
X78780444Y-122923074D01*
X78721128Y-122955459D01*
X78650312Y-122950390D01*
X78605257Y-122921432D01*
X78602041Y-122918216D01*
X78602034Y-122918211D01*
X78587350Y-122909153D01*
X78539874Y-122856366D01*
X78527500Y-122801914D01*
X78527500Y-122714032D01*
X78529550Y-122691397D01*
X78529562Y-122691330D01*
X78532500Y-122654006D01*
X78532500Y-121495994D01*
X78529562Y-121458670D01*
X78520232Y-121426556D01*
X78483145Y-121298899D01*
X78483143Y-121298897D01*
X78483143Y-121298894D01*
X78398455Y-121155696D01*
X78393595Y-121149430D01*
X78396015Y-121147552D01*
X78368848Y-121097801D01*
X78373913Y-121026986D01*
X78416317Y-120970257D01*
X78420000Y-120967491D01*
X78420000Y-120717342D01*
X78437547Y-120653202D01*
X78483145Y-120576101D01*
X78529562Y-120416331D01*
X78532500Y-120379002D01*
X78532500Y-119672000D01*
X78552502Y-119603879D01*
X78606158Y-119557386D01*
X78658500Y-119546000D01*
X78689500Y-119546000D01*
X78757621Y-119566002D01*
G37*
G04 #@! TD.AperFunction*
G04 #@! TA.AperFunction,Conductor*
G36*
X83553121Y-96728502D02*
G01*
X83599614Y-96782158D01*
X83611000Y-96834500D01*
X83611000Y-96882000D01*
X84697000Y-96882000D01*
X84765121Y-96902002D01*
X84811614Y-96955658D01*
X84823000Y-97008000D01*
X84823000Y-98968000D01*
X84802998Y-99036121D01*
X84749342Y-99082614D01*
X84697000Y-99094000D01*
X83611000Y-99094000D01*
X83611000Y-99138852D01*
X83621255Y-99239229D01*
X83621257Y-99239241D01*
X83675152Y-99401884D01*
X83765109Y-99547728D01*
X83765114Y-99547734D01*
X83886265Y-99668885D01*
X83886271Y-99668890D01*
X84032115Y-99758847D01*
X84168063Y-99803896D01*
X84226434Y-99844310D01*
X84253690Y-99909866D01*
X84241177Y-99979751D01*
X84192867Y-100031777D01*
X84128430Y-100049500D01*
X77295109Y-100049500D01*
X77274191Y-100045339D01*
X77260000Y-100045339D01*
X77249955Y-100049500D01*
X77221350Y-100061348D01*
X77221349Y-100061348D01*
X77221349Y-100061349D01*
X77205339Y-100100000D01*
X77205339Y-100100001D01*
X77205339Y-100114193D01*
X77209500Y-100135109D01*
X77209500Y-100945819D01*
X77189498Y-101013940D01*
X77135842Y-101060433D01*
X77065568Y-101070537D01*
X77000988Y-101041043D01*
X76998615Y-101038934D01*
X76880887Y-100931611D01*
X76880884Y-100931609D01*
X76706223Y-100823463D01*
X76706222Y-100823462D01*
X76706218Y-100823460D01*
X76588866Y-100777998D01*
X76514656Y-100749249D01*
X76464170Y-100739811D01*
X76312718Y-100711500D01*
X76107282Y-100711500D01*
X75986119Y-100734149D01*
X75905343Y-100749249D01*
X75793919Y-100792415D01*
X75713782Y-100823460D01*
X75713781Y-100823460D01*
X75713780Y-100823461D01*
X75713776Y-100823463D01*
X75539116Y-100931608D01*
X75387297Y-101070009D01*
X75263497Y-101233949D01*
X75263496Y-101233951D01*
X75223754Y-101313762D01*
X75175484Y-101365825D01*
X75106730Y-101383527D01*
X75045780Y-101365426D01*
X74927913Y-101294173D01*
X74927912Y-101294172D01*
X74927911Y-101294172D01*
X74927906Y-101294170D01*
X74763646Y-101242986D01*
X74711722Y-101238268D01*
X74692265Y-101236500D01*
X74692262Y-101236500D01*
X74027738Y-101236500D01*
X73956353Y-101242986D01*
X73956352Y-101242986D01*
X73792093Y-101294170D01*
X73792088Y-101294172D01*
X73644844Y-101383184D01*
X73644839Y-101383188D01*
X73523188Y-101504839D01*
X73523184Y-101504844D01*
X73434172Y-101652088D01*
X73434170Y-101652093D01*
X73382986Y-101816353D01*
X73376500Y-101887737D01*
X73376500Y-102402261D01*
X73382986Y-102473646D01*
X73382986Y-102473647D01*
X73434170Y-102637906D01*
X73434172Y-102637911D01*
X73523184Y-102785155D01*
X73523188Y-102785160D01*
X73618933Y-102880905D01*
X73652959Y-102943217D01*
X73647894Y-103014032D01*
X73618933Y-103059095D01*
X73523188Y-103154839D01*
X73523184Y-103154844D01*
X73434172Y-103302088D01*
X73434170Y-103302093D01*
X73382986Y-103466353D01*
X73376500Y-103537737D01*
X73376500Y-104052261D01*
X73382986Y-104123646D01*
X73382986Y-104123647D01*
X73434170Y-104287906D01*
X73434171Y-104287909D01*
X73434172Y-104287911D01*
X73434173Y-104287913D01*
X73513400Y-104418970D01*
X73519901Y-104429724D01*
X73538024Y-104498368D01*
X73516159Y-104565914D01*
X73461247Y-104610916D01*
X73390722Y-104619086D01*
X73345925Y-104602149D01*
X73311884Y-104581152D01*
X73149241Y-104527257D01*
X73149229Y-104527255D01*
X73048852Y-104517000D01*
X73029000Y-104517000D01*
X73029000Y-106483000D01*
X73048852Y-106483000D01*
X73152693Y-106472390D01*
X73222494Y-106485364D01*
X73274200Y-106534016D01*
X73291500Y-106597737D01*
X73291500Y-116052685D01*
X73291385Y-116056488D01*
X73287598Y-116119093D01*
X73296208Y-116166079D01*
X73298902Y-116180782D01*
X73299475Y-116184544D01*
X73307033Y-116246794D01*
X73307034Y-116246798D01*
X73310650Y-116256333D01*
X73316771Y-116278289D01*
X73318612Y-116288332D01*
X73344353Y-116345528D01*
X73345809Y-116349043D01*
X73350582Y-116361627D01*
X73368046Y-116407675D01*
X73373840Y-116416069D01*
X73385035Y-116435919D01*
X73389223Y-116445222D01*
X73389225Y-116445226D01*
X73408265Y-116469528D01*
X73427899Y-116494590D01*
X73430154Y-116497655D01*
X73465783Y-116549271D01*
X73465784Y-116549272D01*
X73465785Y-116549273D01*
X73512750Y-116590880D01*
X73515494Y-116593464D01*
X75249780Y-118327750D01*
X76878595Y-119956565D01*
X76912621Y-120018877D01*
X76915500Y-120045660D01*
X76915500Y-120379006D01*
X76918437Y-120416329D01*
X76964856Y-120576105D01*
X77049544Y-120719303D01*
X77049549Y-120719310D01*
X77167193Y-120836954D01*
X77168469Y-120837944D01*
X77169212Y-120838973D01*
X77172798Y-120842559D01*
X77172219Y-120843137D01*
X77210034Y-120895502D01*
X77213881Y-120966394D01*
X77178791Y-121028113D01*
X77168469Y-121037056D01*
X77167193Y-121038045D01*
X77049549Y-121155689D01*
X77049546Y-121155693D01*
X77023763Y-121199290D01*
X76971869Y-121247742D01*
X76902019Y-121260447D01*
X76836388Y-121233371D01*
X76826215Y-121224245D01*
X71545405Y-115943434D01*
X71511379Y-115881122D01*
X71508500Y-115854339D01*
X71508500Y-115666893D01*
X72006500Y-115666893D01*
X72701234Y-116361627D01*
X72806466Y-116256395D01*
X72794698Y-116192174D01*
X72794125Y-116188410D01*
X72791874Y-116169871D01*
X72791530Y-116166079D01*
X72789483Y-116132226D01*
X72789368Y-116128423D01*
X72789368Y-116109754D01*
X72789483Y-116105949D01*
X72793500Y-116039545D01*
X72793500Y-114329742D01*
X72701235Y-114237477D01*
X72006500Y-114932212D01*
X72006500Y-115666893D01*
X71508500Y-115666893D01*
X71508500Y-112838464D01*
X72006500Y-112838464D01*
X72701235Y-113533200D01*
X72793500Y-113440936D01*
X72793500Y-111501315D01*
X72701234Y-111409050D01*
X72006500Y-112103785D01*
X72006500Y-112838464D01*
X71508500Y-112838464D01*
X71508500Y-110010037D01*
X72006500Y-110010037D01*
X72701234Y-110704772D01*
X72793500Y-110612507D01*
X72793500Y-108672888D01*
X72701234Y-108580623D01*
X72006500Y-109275357D01*
X72006500Y-110010037D01*
X71508500Y-110010037D01*
X71508500Y-106859983D01*
X72006500Y-106859983D01*
X72006500Y-107181610D01*
X72701235Y-107876346D01*
X72793500Y-107784081D01*
X72793500Y-106935720D01*
X72789244Y-106933958D01*
X72775000Y-106924440D01*
X72760757Y-106933958D01*
X72670341Y-106971409D01*
X72622123Y-106981000D01*
X72493219Y-106981000D01*
X72483767Y-106980760D01*
X72467905Y-106979953D01*
X72458449Y-106979230D01*
X72334923Y-106966609D01*
X72331517Y-106966167D01*
X72314870Y-106963543D01*
X72311491Y-106962916D01*
X72281550Y-106956507D01*
X72278205Y-106955695D01*
X72261936Y-106951271D01*
X72258650Y-106950280D01*
X72065966Y-106886432D01*
X72062521Y-106885178D01*
X72045809Y-106878538D01*
X72042444Y-106877087D01*
X72012845Y-106863284D01*
X72009568Y-106861638D01*
X72006500Y-106859983D01*
X71508500Y-106859983D01*
X71508500Y-105754000D01*
X71817000Y-105754000D01*
X71817000Y-105798852D01*
X71827255Y-105899229D01*
X71827257Y-105899241D01*
X71881152Y-106061884D01*
X71971109Y-106207728D01*
X71971114Y-106207734D01*
X72092265Y-106328885D01*
X72092271Y-106328890D01*
X72238115Y-106418847D01*
X72400758Y-106472742D01*
X72400770Y-106472744D01*
X72501147Y-106482999D01*
X72501147Y-106483000D01*
X72521000Y-106483000D01*
X72521000Y-105754000D01*
X71817000Y-105754000D01*
X71508500Y-105754000D01*
X71508500Y-105246000D01*
X71817000Y-105246000D01*
X72521000Y-105246000D01*
X72521000Y-104517000D01*
X72501147Y-104517000D01*
X72400770Y-104527255D01*
X72400758Y-104527257D01*
X72238115Y-104581152D01*
X72092271Y-104671109D01*
X72092265Y-104671114D01*
X71971114Y-104792265D01*
X71971109Y-104792271D01*
X71881152Y-104938115D01*
X71827257Y-105100758D01*
X71827255Y-105100770D01*
X71817000Y-105201147D01*
X71817000Y-105246000D01*
X71508500Y-105246000D01*
X71508500Y-104140016D01*
X72006500Y-104140016D01*
X72009568Y-104138362D01*
X72012845Y-104136716D01*
X72042444Y-104122913D01*
X72045809Y-104121462D01*
X72062521Y-104114822D01*
X72065966Y-104113568D01*
X72258650Y-104049720D01*
X72261936Y-104048729D01*
X72278205Y-104044305D01*
X72281550Y-104043493D01*
X72311491Y-104037084D01*
X72314870Y-104036457D01*
X72331517Y-104033833D01*
X72334923Y-104033391D01*
X72458449Y-104020770D01*
X72467905Y-104020047D01*
X72483767Y-104019240D01*
X72493219Y-104019000D01*
X72622123Y-104019000D01*
X72670341Y-104028591D01*
X72760757Y-104066042D01*
X72775000Y-104075559D01*
X72789243Y-104066042D01*
X72878500Y-104029070D01*
X72878500Y-103530656D01*
X72878692Y-103522224D01*
X72879332Y-103508106D01*
X72879904Y-103499704D01*
X72888373Y-103406503D01*
X72888762Y-103403191D01*
X72891101Y-103387011D01*
X72891664Y-103383729D01*
X72897454Y-103354631D01*
X72898189Y-103351385D01*
X72902216Y-103335562D01*
X72903123Y-103332358D01*
X72952229Y-103174763D01*
X72701235Y-102923769D01*
X72006500Y-103618504D01*
X72006500Y-104140016D01*
X71508500Y-104140016D01*
X71508500Y-101524755D01*
X72006500Y-101524755D01*
X72701234Y-102219490D01*
X72878500Y-102042225D01*
X72878500Y-101880656D01*
X72878692Y-101872224D01*
X72879332Y-101858106D01*
X72879904Y-101849704D01*
X72888373Y-101756503D01*
X72888762Y-101753191D01*
X72891101Y-101737011D01*
X72891664Y-101733729D01*
X72897454Y-101704631D01*
X72898189Y-101701385D01*
X72902216Y-101685562D01*
X72903123Y-101682358D01*
X72963767Y-101487738D01*
X72965009Y-101484139D01*
X72971635Y-101466669D01*
X72973093Y-101463148D01*
X72987016Y-101432219D01*
X72988681Y-101428801D01*
X72997354Y-101412277D01*
X72999223Y-101408962D01*
X73105777Y-101232700D01*
X73107843Y-101229504D01*
X73118448Y-101214140D01*
X73120703Y-101211075D01*
X73141618Y-101184377D01*
X73144056Y-101181452D01*
X73156442Y-101167471D01*
X73159052Y-101164699D01*
X73304699Y-101019052D01*
X73307471Y-101016442D01*
X73321452Y-101004056D01*
X73324377Y-101001618D01*
X73351075Y-100980703D01*
X73354140Y-100978448D01*
X73369504Y-100967843D01*
X73372700Y-100965777D01*
X73496705Y-100890812D01*
X72756069Y-100150177D01*
X72006500Y-100899746D01*
X72006500Y-101524755D01*
X71508500Y-101524755D01*
X71508500Y-100745660D01*
X71528502Y-100677539D01*
X71545405Y-100656565D01*
X72403933Y-99798037D01*
X73108207Y-99798037D01*
X74048670Y-100738500D01*
X74182226Y-100738500D01*
X75177524Y-99743203D01*
X75881800Y-99743203D01*
X76353768Y-100215170D01*
X76371576Y-100216821D01*
X76374465Y-100217156D01*
X76388606Y-100219128D01*
X76391481Y-100219597D01*
X76618906Y-100262111D01*
X76621752Y-100262711D01*
X76635650Y-100265980D01*
X76638469Y-100266712D01*
X76663405Y-100273807D01*
X76666181Y-100274667D01*
X76679720Y-100279203D01*
X76682462Y-100280193D01*
X76711500Y-100291442D01*
X76711500Y-100182623D01*
X76709761Y-100173882D01*
X76707339Y-100149297D01*
X76707339Y-100050708D01*
X76709760Y-100026126D01*
X76719214Y-99978598D01*
X76726384Y-99954961D01*
X76780121Y-99825230D01*
X76791766Y-99803445D01*
X76818688Y-99763155D01*
X76834357Y-99744064D01*
X76904066Y-99674355D01*
X76923160Y-99658685D01*
X76963452Y-99631763D01*
X76985235Y-99620119D01*
X77059375Y-99589410D01*
X77114954Y-99566386D01*
X77138592Y-99559215D01*
X77186122Y-99549760D01*
X77210705Y-99547339D01*
X77309294Y-99547339D01*
X77333877Y-99549760D01*
X77342624Y-99551500D01*
X77814248Y-99551500D01*
X78901931Y-99551500D01*
X80642675Y-99551500D01*
X81730358Y-99551500D01*
X83200101Y-99551500D01*
X83143720Y-99381350D01*
X83142729Y-99378064D01*
X83138305Y-99361795D01*
X83137493Y-99358450D01*
X83131084Y-99328509D01*
X83130457Y-99325130D01*
X83127833Y-99308483D01*
X83127391Y-99305077D01*
X83116319Y-99196717D01*
X82600729Y-98681128D01*
X81730358Y-99551500D01*
X80642675Y-99551500D01*
X80134772Y-99043597D01*
X80839049Y-99043597D01*
X81186516Y-99391065D01*
X81519469Y-99058112D01*
X81418401Y-99093478D01*
X81390894Y-99099757D01*
X81214108Y-99119676D01*
X81185892Y-99119676D01*
X81009106Y-99099757D01*
X80981599Y-99093478D01*
X80839049Y-99043597D01*
X80134772Y-99043597D01*
X79772303Y-98681128D01*
X78901931Y-99551500D01*
X77814248Y-99551500D01*
X76943876Y-98681128D01*
X75881800Y-99743203D01*
X75177524Y-99743203D01*
X74170283Y-98735962D01*
X73108207Y-99798037D01*
X72403933Y-99798037D01*
X73818146Y-98383824D01*
X74522421Y-98383824D01*
X75529662Y-99391065D01*
X76591737Y-98328990D01*
X76591736Y-98328989D01*
X77296014Y-98328989D01*
X78358089Y-99391065D01*
X79420165Y-98328990D01*
X80124441Y-98328990D01*
X80356402Y-98560951D01*
X80341887Y-98519469D01*
X82058112Y-98519469D01*
X82248592Y-98328990D01*
X82119676Y-98200074D01*
X82119676Y-98214108D01*
X82099757Y-98390894D01*
X82093478Y-98418401D01*
X82058112Y-98519469D01*
X80341887Y-98519469D01*
X80306522Y-98418401D01*
X80300243Y-98390894D01*
X80280324Y-98214108D01*
X80280324Y-98185892D01*
X80281947Y-98171483D01*
X80124441Y-98328990D01*
X79420165Y-98328990D01*
X78358089Y-97266914D01*
X77296014Y-98328989D01*
X76591736Y-98328989D01*
X75584496Y-97321748D01*
X74522421Y-98383824D01*
X73818146Y-98383824D01*
X74995470Y-97206500D01*
X76173525Y-97206500D01*
X76943876Y-97976851D01*
X77714227Y-97206500D01*
X79001952Y-97206500D01*
X79772303Y-97976851D01*
X80467207Y-97281947D01*
X81171484Y-97281947D01*
X81185892Y-97280324D01*
X81199926Y-97280324D01*
X81186516Y-97266914D01*
X81171484Y-97281947D01*
X80467207Y-97281947D01*
X80542654Y-97206500D01*
X81830379Y-97206500D01*
X82600729Y-97976851D01*
X83113826Y-97463753D01*
X83113240Y-97452233D01*
X83113000Y-97442781D01*
X83113000Y-97390000D01*
X83611000Y-97390000D01*
X83611000Y-97434852D01*
X83621255Y-97535229D01*
X83621257Y-97535241D01*
X83675152Y-97697884D01*
X83765109Y-97843728D01*
X83765114Y-97843734D01*
X83820285Y-97898905D01*
X83854311Y-97961217D01*
X83849246Y-98032032D01*
X83820285Y-98077095D01*
X83765114Y-98132265D01*
X83765109Y-98132271D01*
X83675152Y-98278115D01*
X83621257Y-98440758D01*
X83621255Y-98440770D01*
X83611000Y-98541147D01*
X83611000Y-98586000D01*
X84315000Y-98586000D01*
X84315000Y-97390000D01*
X83611000Y-97390000D01*
X83113000Y-97390000D01*
X83113000Y-97288877D01*
X83122591Y-97240659D01*
X83136740Y-97206500D01*
X81830379Y-97206500D01*
X80542654Y-97206500D01*
X79001952Y-97206500D01*
X77714227Y-97206500D01*
X76173525Y-97206500D01*
X74995470Y-97206500D01*
X75456565Y-96745405D01*
X75518877Y-96711379D01*
X75545660Y-96708500D01*
X83485000Y-96708500D01*
X83553121Y-96728502D01*
G37*
G04 #@! TD.AperFunction*
G04 #@! TA.AperFunction,Conductor*
G36*
X77132937Y-115038284D02*
G01*
X77187748Y-115083410D01*
X77209460Y-115151005D01*
X77209500Y-115154180D01*
X77209500Y-116703340D01*
X77189498Y-116771461D01*
X77135842Y-116817954D01*
X77065568Y-116828058D01*
X77000988Y-116798564D01*
X76994405Y-116792435D01*
X75752081Y-115550111D01*
X75718055Y-115487799D01*
X75723120Y-115416984D01*
X75765667Y-115360148D01*
X75832187Y-115335337D01*
X75886691Y-115343524D01*
X75905345Y-115350751D01*
X76107282Y-115388500D01*
X76107285Y-115388500D01*
X76312715Y-115388500D01*
X76312718Y-115388500D01*
X76514655Y-115350751D01*
X76706218Y-115276540D01*
X76880882Y-115168392D01*
X76998614Y-115061064D01*
X77062431Y-115029954D01*
X77132937Y-115038284D01*
G37*
G04 #@! TD.AperFunction*
G04 #@! TA.AperFunction,Conductor*
G36*
X75328119Y-106263502D02*
G01*
X75374612Y-106317158D01*
X75384716Y-106387432D01*
X75360549Y-106445431D01*
X75263496Y-106573951D01*
X75263493Y-106573954D01*
X75171929Y-106757839D01*
X75171923Y-106757855D01*
X75115706Y-106955437D01*
X75096751Y-107160000D01*
X75115706Y-107364562D01*
X75171923Y-107562144D01*
X75171929Y-107562160D01*
X75263493Y-107746045D01*
X75263497Y-107746050D01*
X75387300Y-107909993D01*
X75438737Y-107956884D01*
X75475604Y-108017558D01*
X75473815Y-108088532D01*
X75438739Y-108143113D01*
X75387298Y-108190008D01*
X75263497Y-108353949D01*
X75263493Y-108353954D01*
X75171929Y-108537839D01*
X75171923Y-108537855D01*
X75115705Y-108735442D01*
X75111492Y-108780906D01*
X75085289Y-108846891D01*
X75027572Y-108888234D01*
X74971924Y-108894487D01*
X74900000Y-108886384D01*
X74848606Y-108892174D01*
X74778674Y-108879924D01*
X74726467Y-108831810D01*
X74708500Y-108766966D01*
X74708500Y-106561184D01*
X74728502Y-106493063D01*
X74782158Y-106446570D01*
X74794854Y-106441584D01*
X74862101Y-106419302D01*
X75008040Y-106329285D01*
X75056921Y-106280403D01*
X75119231Y-106246380D01*
X75146015Y-106243500D01*
X75259998Y-106243500D01*
X75328119Y-106263502D01*
G37*
G04 #@! TD.AperFunction*
G04 #@! TA.AperFunction,NonConductor*
G36*
X87286012Y-97288436D02*
G01*
X87292595Y-97294565D01*
X90854594Y-100856565D01*
X90888620Y-100918877D01*
X90891499Y-100945660D01*
X90891500Y-109139019D01*
X90871498Y-109207140D01*
X90854595Y-109228114D01*
X90168354Y-109914355D01*
X90106042Y-109948381D01*
X90035227Y-109943316D01*
X89978391Y-109900769D01*
X89953580Y-109834249D01*
X89959655Y-109785625D01*
X89966743Y-109764234D01*
X89966744Y-109764229D01*
X89976999Y-109663852D01*
X89977000Y-109663852D01*
X89977000Y-109644000D01*
X88866000Y-109644000D01*
X88797879Y-109623998D01*
X88751386Y-109570342D01*
X88740000Y-109518000D01*
X88740000Y-109262000D01*
X88760002Y-109193879D01*
X88813658Y-109147386D01*
X88866000Y-109136000D01*
X89977000Y-109136000D01*
X89977000Y-109116147D01*
X89966744Y-109015770D01*
X89966742Y-109015758D01*
X89912847Y-108853115D01*
X89822890Y-108707271D01*
X89822885Y-108707265D01*
X89787567Y-108671947D01*
X89753541Y-108609635D01*
X89758606Y-108538820D01*
X89787567Y-108493757D01*
X89803285Y-108478040D01*
X89893302Y-108332101D01*
X89947236Y-108169336D01*
X89950035Y-108141936D01*
X89957500Y-108068880D01*
X89957500Y-107521119D01*
X89947236Y-107420666D01*
X89947236Y-107420664D01*
X89893302Y-107257899D01*
X89803285Y-107111960D01*
X89803283Y-107111958D01*
X89803281Y-107111955D01*
X89800415Y-107109089D01*
X89799077Y-107106638D01*
X89798732Y-107106202D01*
X89798806Y-107106143D01*
X89766394Y-107046775D01*
X89771463Y-106975959D01*
X89800424Y-106930900D01*
X89803285Y-106928040D01*
X89893302Y-106782101D01*
X89947236Y-106619336D01*
X89950035Y-106591936D01*
X89957500Y-106518880D01*
X89957500Y-105971119D01*
X89947236Y-105870666D01*
X89947236Y-105870664D01*
X89893302Y-105707899D01*
X89803285Y-105561960D01*
X89803284Y-105561959D01*
X89803279Y-105561953D01*
X89682046Y-105440720D01*
X89682037Y-105440713D01*
X89632293Y-105410030D01*
X89584815Y-105357244D01*
X89573413Y-105287169D01*
X89601706Y-105222054D01*
X89632295Y-105195549D01*
X89691725Y-105158892D01*
X89691734Y-105158885D01*
X89812885Y-105037734D01*
X89812890Y-105037728D01*
X89902847Y-104891884D01*
X89956742Y-104729241D01*
X89956744Y-104729229D01*
X89966999Y-104628852D01*
X89967000Y-104628852D01*
X89967000Y-104609000D01*
X88058000Y-104609000D01*
X88058000Y-104618000D01*
X88037998Y-104686121D01*
X87984342Y-104732614D01*
X87932000Y-104744000D01*
X87373604Y-104744000D01*
X87305483Y-104723998D01*
X87258990Y-104670342D01*
X87248886Y-104600068D01*
X87251459Y-104587071D01*
X87253979Y-104577114D01*
X87253982Y-104577108D01*
X87263628Y-104460698D01*
X87246467Y-104392930D01*
X87249134Y-104321985D01*
X87289734Y-104263743D01*
X87355378Y-104236697D01*
X87368611Y-104236000D01*
X87961000Y-104236000D01*
X87961000Y-104227000D01*
X87981002Y-104158879D01*
X88034658Y-104112386D01*
X88087000Y-104101000D01*
X89967000Y-104101000D01*
X89967000Y-104081147D01*
X89956744Y-103980770D01*
X89956742Y-103980758D01*
X89902847Y-103818115D01*
X89812889Y-103672270D01*
X89812886Y-103672266D01*
X89810067Y-103669447D01*
X89808749Y-103667034D01*
X89808338Y-103666514D01*
X89808426Y-103666443D01*
X89776041Y-103607135D01*
X89781106Y-103536320D01*
X89810073Y-103491251D01*
X89813285Y-103488040D01*
X89903302Y-103342101D01*
X89957236Y-103179336D01*
X89960035Y-103151936D01*
X89967500Y-103078880D01*
X89967500Y-102531119D01*
X89957236Y-102430666D01*
X89957236Y-102430664D01*
X89903302Y-102267899D01*
X89813285Y-102121960D01*
X89813284Y-102121959D01*
X89813279Y-102121953D01*
X89692046Y-102000720D01*
X89692040Y-102000715D01*
X89644565Y-101971432D01*
X89546101Y-101910698D01*
X89383336Y-101856764D01*
X89383333Y-101856763D01*
X89282880Y-101846500D01*
X89282872Y-101846500D01*
X88685128Y-101846500D01*
X88685120Y-101846500D01*
X88584666Y-101856763D01*
X88512561Y-101880656D01*
X88421899Y-101910698D01*
X88275960Y-102000715D01*
X88275959Y-102000715D01*
X88272676Y-102002741D01*
X88206529Y-102021500D01*
X87841878Y-102021500D01*
X87773757Y-102001498D01*
X87741328Y-101971432D01*
X87732702Y-101960009D01*
X87681261Y-101913114D01*
X87644395Y-101852439D01*
X87646184Y-101781465D01*
X87681263Y-101726883D01*
X87732700Y-101679992D01*
X87742843Y-101666561D01*
X87856503Y-101516050D01*
X87856504Y-101516046D01*
X87856506Y-101516045D01*
X87948070Y-101332160D01*
X87948069Y-101332160D01*
X87948074Y-101332152D01*
X88004294Y-101134559D01*
X88023249Y-100930000D01*
X88004294Y-100725441D01*
X88000327Y-100711500D01*
X87948076Y-100527855D01*
X87948075Y-100527854D01*
X87948074Y-100527848D01*
X87948070Y-100527839D01*
X87856506Y-100343954D01*
X87856502Y-100343949D01*
X87732703Y-100180010D01*
X87728781Y-100175709D01*
X87730169Y-100174442D01*
X87697744Y-100121067D01*
X87693499Y-100088637D01*
X87693499Y-99954961D01*
X87693499Y-99727004D01*
X87693501Y-99726996D01*
X87693501Y-99542723D01*
X87693501Y-99542721D01*
X87684432Y-99502991D01*
X87683250Y-99496027D01*
X87678691Y-99455559D01*
X87678690Y-99455558D01*
X87678690Y-99455552D01*
X87665228Y-99417082D01*
X87663277Y-99410309D01*
X87654212Y-99370589D01*
X87636528Y-99333868D01*
X87633835Y-99327366D01*
X87620376Y-99288901D01*
X87598700Y-99254404D01*
X87595279Y-99248215D01*
X87591809Y-99241010D01*
X87577606Y-99211515D01*
X87552205Y-99179662D01*
X87548119Y-99173904D01*
X87526441Y-99139404D01*
X87401596Y-99014559D01*
X87401595Y-99014558D01*
X87329224Y-98942187D01*
X87996524Y-98942187D01*
X88007647Y-98959887D01*
X88009443Y-98962931D01*
X88017834Y-98978113D01*
X88019459Y-98981258D01*
X88033365Y-99010136D01*
X88050421Y-99037279D01*
X88052217Y-99040323D01*
X88060608Y-99055505D01*
X88062233Y-99058650D01*
X88075896Y-99087026D01*
X88077339Y-99090252D01*
X88083972Y-99106267D01*
X88085231Y-99109567D01*
X88095816Y-99139816D01*
X88109722Y-99168692D01*
X88111166Y-99171918D01*
X88117799Y-99187930D01*
X88119059Y-99191231D01*
X88129464Y-99220960D01*
X88130539Y-99224334D01*
X88135343Y-99241010D01*
X88136225Y-99244433D01*
X88143351Y-99275664D01*
X88153941Y-99305924D01*
X88155014Y-99309291D01*
X88159813Y-99325948D01*
X88160696Y-99329370D01*
X88167706Y-99360076D01*
X88168396Y-99363544D01*
X88171303Y-99380649D01*
X88171797Y-99384151D01*
X88175384Y-99415995D01*
X88182518Y-99447251D01*
X88183208Y-99450718D01*
X88186112Y-99467809D01*
X88186606Y-99471308D01*
X88190132Y-99502603D01*
X88190430Y-99506127D01*
X88191402Y-99523442D01*
X88191501Y-99526974D01*
X88191501Y-99746008D01*
X88191498Y-99746040D01*
X88191499Y-99961184D01*
X88261730Y-100054185D01*
X88263431Y-100056549D01*
X88271498Y-100068327D01*
X88273086Y-100070764D01*
X88286735Y-100092808D01*
X88288212Y-100095320D01*
X88295159Y-100107794D01*
X88296515Y-100110367D01*
X88358131Y-100234107D01*
X88365280Y-100213678D01*
X88377522Y-100188257D01*
X88472173Y-100037621D01*
X88489765Y-100015562D01*
X88615562Y-99889765D01*
X88637621Y-99872173D01*
X88788257Y-99777522D01*
X88813678Y-99765280D01*
X88981599Y-99706522D01*
X88996804Y-99703050D01*
X88116233Y-98822479D01*
X87996524Y-98942187D01*
X87329224Y-98942187D01*
X87114405Y-98727368D01*
X87080379Y-98665056D01*
X87077500Y-98638273D01*
X87077500Y-98541119D01*
X87067247Y-98440770D01*
X87067236Y-98440664D01*
X87013302Y-98277899D01*
X86923285Y-98131960D01*
X86923283Y-98131958D01*
X86921259Y-98128676D01*
X86902500Y-98062529D01*
X86902500Y-97913470D01*
X86921260Y-97847322D01*
X86923283Y-97844041D01*
X86923285Y-97844040D01*
X87013302Y-97698101D01*
X87067236Y-97535336D01*
X87070035Y-97507936D01*
X87077500Y-97434880D01*
X87077500Y-97383660D01*
X87097502Y-97315539D01*
X87151158Y-97269046D01*
X87221432Y-97258942D01*
X87286012Y-97288436D01*
G37*
G04 #@! TD.AperFunction*
M02*
