G04 Layer: BottomSilkscreenLayer*
G04 EasyEDA v6.5.25, 2023-03-20 21:11:36*
**********************************至少这一行要换成自己的************************************
G04 Gerber Generator version 0.2*
G04 Scale: 100 percent, Rotated: No, Reflected: No *
G04 Dimensions in millimeters  *
G04 leading zeros omitted , absolute positions ,3 integer and 6 decimal *
G04 #@! TF.GenerationSoftware,KiCad,Pcbnew,7.0.7*
G04 #@! TF.CreationDate,2024-01-25T12:17:36+08:00*
G04 #@! TF.ProjectId,sensor,73656e73-6f72-42e6-9b69-6361645f7063,rev?*
G04 #@! TF.SameCoordinates,Original*
G04 #@! TF.FileFunction,Legend,Bot*
G04 #@! TF.FilePolarity,Positive*
%FSLAX46Y46*%
G04 Gerber Fmt 4.6, Leading zero omitted, Abs format (unit mm)*
G04 Created by KiCad (PCBNEW 7.0.7) date 2024-01-25 12:17:36*
%MOMM*%
%LPD*%
G01*
G04 APERTURE LIST*
%ADD10C,0.150000*%
%ADD11C,0.120000*%
%ADD12C,0.400000*%
G04 APERTURE END LIST*
D10*
X94806207Y-106937003D02*
X94099101Y-106229896D01*
X94099101Y-106229896D02*
X94368475Y-106970675D01*
X94368475Y-106970675D02*
X93627696Y-106701301D01*
X93627696Y-106701301D02*
X94334803Y-107408407D01*
X93156292Y-107172705D02*
X93021605Y-107307392D01*
X93021605Y-107307392D02*
X92987933Y-107408407D01*
X92987933Y-107408407D02*
X92987933Y-107543094D01*
X92987933Y-107543094D02*
X93088948Y-107711453D01*
X93088948Y-107711453D02*
X93324650Y-107947155D01*
X93324650Y-107947155D02*
X93493009Y-108048171D01*
X93493009Y-108048171D02*
X93627696Y-108048171D01*
X93627696Y-108048171D02*
X93728711Y-108014499D01*
X93728711Y-108014499D02*
X93863398Y-107879812D01*
X93863398Y-107879812D02*
X93897070Y-107778797D01*
X93897070Y-107778797D02*
X93897070Y-107644110D01*
X93897070Y-107644110D02*
X93796055Y-107475751D01*
X93796055Y-107475751D02*
X93560353Y-107240049D01*
X93560353Y-107240049D02*
X93391994Y-107139033D01*
X93391994Y-107139033D02*
X93257307Y-107139033D01*
X93257307Y-107139033D02*
X93156292Y-107172705D01*
X92651215Y-107677781D02*
X92247154Y-108081842D01*
X93156292Y-108586919D02*
X92449185Y-107879812D01*
X92718559Y-109024651D02*
X92011452Y-108317545D01*
X91540048Y-108788949D02*
X91405361Y-108923636D01*
X91405361Y-108923636D02*
X91371689Y-109024651D01*
X91371689Y-109024651D02*
X91371689Y-109159338D01*
X91371689Y-109159338D02*
X91472704Y-109327697D01*
X91472704Y-109327697D02*
X91708407Y-109563399D01*
X91708407Y-109563399D02*
X91876765Y-109664414D01*
X91876765Y-109664414D02*
X92011452Y-109664414D01*
X92011452Y-109664414D02*
X92112468Y-109630743D01*
X92112468Y-109630743D02*
X92247155Y-109496056D01*
X92247155Y-109496056D02*
X92280826Y-109395040D01*
X92280826Y-109395040D02*
X92280826Y-109260353D01*
X92280826Y-109260353D02*
X92179811Y-109091995D01*
X92179811Y-109091995D02*
X91944109Y-108856292D01*
X91944109Y-108856292D02*
X91775750Y-108755277D01*
X91775750Y-108755277D02*
X91641063Y-108755277D01*
X91641063Y-108755277D02*
X91540048Y-108788949D01*
X91641063Y-110102147D02*
X90933956Y-109395040D01*
X90933956Y-109395040D02*
X91237002Y-110506208D01*
X91237002Y-110506208D02*
X90529895Y-109799101D01*
X94783280Y-109392586D02*
X94715937Y-109527273D01*
X94715937Y-109527273D02*
X94547578Y-109695632D01*
X94547578Y-109695632D02*
X94446563Y-109729304D01*
X94446563Y-109729304D02*
X94379219Y-109729304D01*
X94379219Y-109729304D02*
X94278204Y-109695632D01*
X94278204Y-109695632D02*
X94210861Y-109628289D01*
X94210861Y-109628289D02*
X94177189Y-109527273D01*
X94177189Y-109527273D02*
X94177189Y-109459930D01*
X94177189Y-109459930D02*
X94210861Y-109358915D01*
X94210861Y-109358915D02*
X94311876Y-109190556D01*
X94311876Y-109190556D02*
X94345548Y-109089541D01*
X94345548Y-109089541D02*
X94345548Y-109022197D01*
X94345548Y-109022197D02*
X94311876Y-108921182D01*
X94311876Y-108921182D02*
X94244532Y-108853838D01*
X94244532Y-108853838D02*
X94143517Y-108820167D01*
X94143517Y-108820167D02*
X94076174Y-108820167D01*
X94076174Y-108820167D02*
X93975158Y-108853838D01*
X93975158Y-108853838D02*
X93806799Y-109022197D01*
X93806799Y-109022197D02*
X93739456Y-109156884D01*
X93638441Y-110470083D02*
X93705784Y-110470083D01*
X93705784Y-110470083D02*
X93840471Y-110402739D01*
X93840471Y-110402739D02*
X93907815Y-110335396D01*
X93907815Y-110335396D02*
X93975158Y-110200709D01*
X93975158Y-110200709D02*
X93975158Y-110066022D01*
X93975158Y-110066022D02*
X93941486Y-109965006D01*
X93941486Y-109965006D02*
X93840471Y-109796648D01*
X93840471Y-109796648D02*
X93739456Y-109695632D01*
X93739456Y-109695632D02*
X93571097Y-109594617D01*
X93571097Y-109594617D02*
X93470082Y-109560945D01*
X93470082Y-109560945D02*
X93335395Y-109560945D01*
X93335395Y-109560945D02*
X93200708Y-109628289D01*
X93200708Y-109628289D02*
X93133364Y-109695632D01*
X93133364Y-109695632D02*
X93066021Y-109830319D01*
X93066021Y-109830319D02*
X93066021Y-109897663D01*
X93066021Y-111177189D02*
X93402738Y-110840472D01*
X93402738Y-110840472D02*
X92695632Y-110133365D01*
X92830319Y-111412892D02*
X92123212Y-110705785D01*
X92426258Y-111816953D02*
X92325242Y-111109846D01*
X91719151Y-111109846D02*
X92527273Y-111109846D01*
X93886918Y-104109422D02*
X93920590Y-104008407D01*
X93920590Y-104008407D02*
X94021605Y-103907392D01*
X94021605Y-103907392D02*
X94156292Y-103840048D01*
X94156292Y-103840048D02*
X94290979Y-103840048D01*
X94290979Y-103840048D02*
X94391994Y-103873720D01*
X94391994Y-103873720D02*
X94560353Y-103974735D01*
X94560353Y-103974735D02*
X94661368Y-104075751D01*
X94661368Y-104075751D02*
X94762383Y-104244109D01*
X94762383Y-104244109D02*
X94796055Y-104345125D01*
X94796055Y-104345125D02*
X94796055Y-104479812D01*
X94796055Y-104479812D02*
X94728712Y-104614499D01*
X94728712Y-104614499D02*
X94661368Y-104681842D01*
X94661368Y-104681842D02*
X94526681Y-104749186D01*
X94526681Y-104749186D02*
X94459338Y-104749186D01*
X94459338Y-104749186D02*
X94223635Y-104513483D01*
X94223635Y-104513483D02*
X94358322Y-104378796D01*
X94223635Y-105119575D02*
X93516528Y-104412468D01*
X93516528Y-104412468D02*
X93819574Y-105523636D01*
X93819574Y-105523636D02*
X93112467Y-104816529D01*
X93482857Y-105860353D02*
X92775750Y-105153247D01*
X92775750Y-105153247D02*
X92607391Y-105321605D01*
X92607391Y-105321605D02*
X92540048Y-105456292D01*
X92540048Y-105456292D02*
X92540048Y-105590979D01*
X92540048Y-105590979D02*
X92573719Y-105691995D01*
X92573719Y-105691995D02*
X92674735Y-105860353D01*
X92674735Y-105860353D02*
X92775750Y-105961369D01*
X92775750Y-105961369D02*
X92944109Y-106062384D01*
X92944109Y-106062384D02*
X93045124Y-106096056D01*
X93045124Y-106096056D02*
X93179811Y-106096056D01*
X93179811Y-106096056D02*
X93314498Y-106028712D01*
X93314498Y-106028712D02*
X93482857Y-105860353D01*
X94813907Y-114529304D02*
X94106800Y-113822197D01*
X94106800Y-113822197D02*
X94409846Y-114933365D01*
X94409846Y-114933365D02*
X93702739Y-114226258D01*
X93601724Y-115606800D02*
X93669067Y-115606800D01*
X93669067Y-115606800D02*
X93803754Y-115539456D01*
X93803754Y-115539456D02*
X93871098Y-115472113D01*
X93871098Y-115472113D02*
X93938441Y-115337426D01*
X93938441Y-115337426D02*
X93938441Y-115202739D01*
X93938441Y-115202739D02*
X93904769Y-115101723D01*
X93904769Y-115101723D02*
X93803754Y-114933365D01*
X93803754Y-114933365D02*
X93702739Y-114832349D01*
X93702739Y-114832349D02*
X93534380Y-114731334D01*
X93534380Y-114731334D02*
X93433365Y-114697662D01*
X93433365Y-114697662D02*
X93298678Y-114697662D01*
X93298678Y-114697662D02*
X93163991Y-114765006D01*
X93163991Y-114765006D02*
X93096647Y-114832349D01*
X93096647Y-114832349D02*
X93029304Y-114967036D01*
X93029304Y-114967036D02*
X93029304Y-115034380D01*
X93366021Y-115909845D02*
X93298678Y-116044533D01*
X93298678Y-116044533D02*
X93130319Y-116212891D01*
X93130319Y-116212891D02*
X93029304Y-116246563D01*
X93029304Y-116246563D02*
X92961960Y-116246563D01*
X92961960Y-116246563D02*
X92860945Y-116212891D01*
X92860945Y-116212891D02*
X92793601Y-116145548D01*
X92793601Y-116145548D02*
X92759930Y-116044533D01*
X92759930Y-116044533D02*
X92759930Y-115977189D01*
X92759930Y-115977189D02*
X92793601Y-115876174D01*
X92793601Y-115876174D02*
X92894617Y-115707815D01*
X92894617Y-115707815D02*
X92928288Y-115606800D01*
X92928288Y-115606800D02*
X92928288Y-115539456D01*
X92928288Y-115539456D02*
X92894617Y-115438441D01*
X92894617Y-115438441D02*
X92827273Y-115371097D01*
X92827273Y-115371097D02*
X92726258Y-115337426D01*
X92726258Y-115337426D02*
X92658914Y-115337426D01*
X92658914Y-115337426D02*
X92557899Y-115371097D01*
X92557899Y-115371097D02*
X92389540Y-115539456D01*
X92389540Y-115539456D02*
X92322197Y-115674143D01*
X65173152Y-107980952D02*
X65982676Y-107980952D01*
X65982676Y-107980952D02*
X66077914Y-107933333D01*
X66077914Y-107933333D02*
X66125533Y-107885714D01*
X66125533Y-107885714D02*
X66173152Y-107790476D01*
X66173152Y-107790476D02*
X66173152Y-107647619D01*
X66173152Y-107647619D02*
X66125533Y-107552381D01*
X65792200Y-107980952D02*
X65839819Y-107885714D01*
X65839819Y-107885714D02*
X65839819Y-107695238D01*
X65839819Y-107695238D02*
X65792200Y-107600000D01*
X65792200Y-107600000D02*
X65744580Y-107552381D01*
X65744580Y-107552381D02*
X65649342Y-107504762D01*
X65649342Y-107504762D02*
X65363628Y-107504762D01*
X65363628Y-107504762D02*
X65268390Y-107552381D01*
X65268390Y-107552381D02*
X65220771Y-107600000D01*
X65220771Y-107600000D02*
X65173152Y-107695238D01*
X65173152Y-107695238D02*
X65173152Y-107885714D01*
X65173152Y-107885714D02*
X65220771Y-107980952D01*
X65839819Y-108457143D02*
X65173152Y-108457143D01*
X64839819Y-108457143D02*
X64887438Y-108409524D01*
X64887438Y-108409524D02*
X64935057Y-108457143D01*
X64935057Y-108457143D02*
X64887438Y-108504762D01*
X64887438Y-108504762D02*
X64839819Y-108457143D01*
X64839819Y-108457143D02*
X64935057Y-108457143D01*
X65173152Y-108790476D02*
X65173152Y-109171428D01*
X64839819Y-108933333D02*
X65696961Y-108933333D01*
X65696961Y-108933333D02*
X65792200Y-108980952D01*
X65792200Y-108980952D02*
X65839819Y-109076190D01*
X65839819Y-109076190D02*
X65839819Y-109171428D01*
X65839819Y-109504762D02*
X64839819Y-109504762D01*
X65839819Y-109933333D02*
X65316009Y-109933333D01*
X65316009Y-109933333D02*
X65220771Y-109885714D01*
X65220771Y-109885714D02*
X65173152Y-109790476D01*
X65173152Y-109790476D02*
X65173152Y-109647619D01*
X65173152Y-109647619D02*
X65220771Y-109552381D01*
X65220771Y-109552381D02*
X65268390Y-109504762D01*
X65173152Y-110838095D02*
X65839819Y-110838095D01*
X65173152Y-110409524D02*
X65696961Y-110409524D01*
X65696961Y-110409524D02*
X65792200Y-110457143D01*
X65792200Y-110457143D02*
X65839819Y-110552381D01*
X65839819Y-110552381D02*
X65839819Y-110695238D01*
X65839819Y-110695238D02*
X65792200Y-110790476D01*
X65792200Y-110790476D02*
X65744580Y-110838095D01*
X65839819Y-111314286D02*
X64839819Y-111314286D01*
X65220771Y-111314286D02*
X65173152Y-111409524D01*
X65173152Y-111409524D02*
X65173152Y-111600000D01*
X65173152Y-111600000D02*
X65220771Y-111695238D01*
X65220771Y-111695238D02*
X65268390Y-111742857D01*
X65268390Y-111742857D02*
X65363628Y-111790476D01*
X65363628Y-111790476D02*
X65649342Y-111790476D01*
X65649342Y-111790476D02*
X65744580Y-111742857D01*
X65744580Y-111742857D02*
X65792200Y-111695238D01*
X65792200Y-111695238D02*
X65839819Y-111600000D01*
X65839819Y-111600000D02*
X65839819Y-111409524D01*
X65839819Y-111409524D02*
X65792200Y-111314286D01*
X65744580Y-112219048D02*
X65792200Y-112266667D01*
X65792200Y-112266667D02*
X65839819Y-112219048D01*
X65839819Y-112219048D02*
X65792200Y-112171429D01*
X65792200Y-112171429D02*
X65744580Y-112219048D01*
X65744580Y-112219048D02*
X65839819Y-112219048D01*
X65792200Y-113123809D02*
X65839819Y-113028571D01*
X65839819Y-113028571D02*
X65839819Y-112838095D01*
X65839819Y-112838095D02*
X65792200Y-112742857D01*
X65792200Y-112742857D02*
X65744580Y-112695238D01*
X65744580Y-112695238D02*
X65649342Y-112647619D01*
X65649342Y-112647619D02*
X65363628Y-112647619D01*
X65363628Y-112647619D02*
X65268390Y-112695238D01*
X65268390Y-112695238D02*
X65220771Y-112742857D01*
X65220771Y-112742857D02*
X65173152Y-112838095D01*
X65173152Y-112838095D02*
X65173152Y-113028571D01*
X65173152Y-113028571D02*
X65220771Y-113123809D01*
X65839819Y-113695238D02*
X65792200Y-113600000D01*
X65792200Y-113600000D02*
X65744580Y-113552381D01*
X65744580Y-113552381D02*
X65649342Y-113504762D01*
X65649342Y-113504762D02*
X65363628Y-113504762D01*
X65363628Y-113504762D02*
X65268390Y-113552381D01*
X65268390Y-113552381D02*
X65220771Y-113600000D01*
X65220771Y-113600000D02*
X65173152Y-113695238D01*
X65173152Y-113695238D02*
X65173152Y-113838095D01*
X65173152Y-113838095D02*
X65220771Y-113933333D01*
X65220771Y-113933333D02*
X65268390Y-113980952D01*
X65268390Y-113980952D02*
X65363628Y-114028571D01*
X65363628Y-114028571D02*
X65649342Y-114028571D01*
X65649342Y-114028571D02*
X65744580Y-113980952D01*
X65744580Y-113980952D02*
X65792200Y-113933333D01*
X65792200Y-113933333D02*
X65839819Y-113838095D01*
X65839819Y-113838095D02*
X65839819Y-113695238D01*
X65839819Y-114457143D02*
X65173152Y-114457143D01*
X65268390Y-114457143D02*
X65220771Y-114504762D01*
X65220771Y-114504762D02*
X65173152Y-114600000D01*
X65173152Y-114600000D02*
X65173152Y-114742857D01*
X65173152Y-114742857D02*
X65220771Y-114838095D01*
X65220771Y-114838095D02*
X65316009Y-114885714D01*
X65316009Y-114885714D02*
X65839819Y-114885714D01*
X65316009Y-114885714D02*
X65220771Y-114933333D01*
X65220771Y-114933333D02*
X65173152Y-115028571D01*
X65173152Y-115028571D02*
X65173152Y-115171428D01*
X65173152Y-115171428D02*
X65220771Y-115266667D01*
X65220771Y-115266667D02*
X65316009Y-115314286D01*
X65316009Y-115314286D02*
X65839819Y-115314286D01*
X64792200Y-116504761D02*
X66077914Y-115647619D01*
X65173152Y-117266666D02*
X65839819Y-117266666D01*
X65173152Y-116838095D02*
X65696961Y-116838095D01*
X65696961Y-116838095D02*
X65792200Y-116885714D01*
X65792200Y-116885714D02*
X65839819Y-116980952D01*
X65839819Y-116980952D02*
X65839819Y-117123809D01*
X65839819Y-117123809D02*
X65792200Y-117219047D01*
X65792200Y-117219047D02*
X65744580Y-117266666D01*
X65173152Y-117600000D02*
X65173152Y-117980952D01*
X65839819Y-117742857D02*
X64982676Y-117742857D01*
X64982676Y-117742857D02*
X64887438Y-117790476D01*
X64887438Y-117790476D02*
X64839819Y-117885714D01*
X64839819Y-117885714D02*
X64839819Y-117980952D01*
X65839819Y-118742857D02*
X65316009Y-118742857D01*
X65316009Y-118742857D02*
X65220771Y-118695238D01*
X65220771Y-118695238D02*
X65173152Y-118600000D01*
X65173152Y-118600000D02*
X65173152Y-118409524D01*
X65173152Y-118409524D02*
X65220771Y-118314286D01*
X65792200Y-118742857D02*
X65839819Y-118647619D01*
X65839819Y-118647619D02*
X65839819Y-118409524D01*
X65839819Y-118409524D02*
X65792200Y-118314286D01*
X65792200Y-118314286D02*
X65696961Y-118266667D01*
X65696961Y-118266667D02*
X65601723Y-118266667D01*
X65601723Y-118266667D02*
X65506485Y-118314286D01*
X65506485Y-118314286D02*
X65458866Y-118409524D01*
X65458866Y-118409524D02*
X65458866Y-118647619D01*
X65458866Y-118647619D02*
X65411247Y-118742857D01*
X65173152Y-119219048D02*
X65839819Y-119219048D01*
X65268390Y-119219048D02*
X65220771Y-119266667D01*
X65220771Y-119266667D02*
X65173152Y-119361905D01*
X65173152Y-119361905D02*
X65173152Y-119504762D01*
X65173152Y-119504762D02*
X65220771Y-119600000D01*
X65220771Y-119600000D02*
X65316009Y-119647619D01*
X65316009Y-119647619D02*
X65839819Y-119647619D01*
X66545057Y-109504762D02*
X66497438Y-109552381D01*
X66497438Y-109552381D02*
X66449819Y-109647619D01*
X66449819Y-109647619D02*
X66449819Y-109885714D01*
X66449819Y-109885714D02*
X66497438Y-109980952D01*
X66497438Y-109980952D02*
X66545057Y-110028571D01*
X66545057Y-110028571D02*
X66640295Y-110076190D01*
X66640295Y-110076190D02*
X66735533Y-110076190D01*
X66735533Y-110076190D02*
X66878390Y-110028571D01*
X66878390Y-110028571D02*
X67449819Y-109457143D01*
X67449819Y-109457143D02*
X67449819Y-110076190D01*
X66449819Y-110695238D02*
X66449819Y-110790476D01*
X66449819Y-110790476D02*
X66497438Y-110885714D01*
X66497438Y-110885714D02*
X66545057Y-110933333D01*
X66545057Y-110933333D02*
X66640295Y-110980952D01*
X66640295Y-110980952D02*
X66830771Y-111028571D01*
X66830771Y-111028571D02*
X67068866Y-111028571D01*
X67068866Y-111028571D02*
X67259342Y-110980952D01*
X67259342Y-110980952D02*
X67354580Y-110933333D01*
X67354580Y-110933333D02*
X67402200Y-110885714D01*
X67402200Y-110885714D02*
X67449819Y-110790476D01*
X67449819Y-110790476D02*
X67449819Y-110695238D01*
X67449819Y-110695238D02*
X67402200Y-110600000D01*
X67402200Y-110600000D02*
X67354580Y-110552381D01*
X67354580Y-110552381D02*
X67259342Y-110504762D01*
X67259342Y-110504762D02*
X67068866Y-110457143D01*
X67068866Y-110457143D02*
X66830771Y-110457143D01*
X66830771Y-110457143D02*
X66640295Y-110504762D01*
X66640295Y-110504762D02*
X66545057Y-110552381D01*
X66545057Y-110552381D02*
X66497438Y-110600000D01*
X66497438Y-110600000D02*
X66449819Y-110695238D01*
X66545057Y-111409524D02*
X66497438Y-111457143D01*
X66497438Y-111457143D02*
X66449819Y-111552381D01*
X66449819Y-111552381D02*
X66449819Y-111790476D01*
X66449819Y-111790476D02*
X66497438Y-111885714D01*
X66497438Y-111885714D02*
X66545057Y-111933333D01*
X66545057Y-111933333D02*
X66640295Y-111980952D01*
X66640295Y-111980952D02*
X66735533Y-111980952D01*
X66735533Y-111980952D02*
X66878390Y-111933333D01*
X66878390Y-111933333D02*
X67449819Y-111361905D01*
X67449819Y-111361905D02*
X67449819Y-111980952D01*
X66545057Y-112361905D02*
X66497438Y-112409524D01*
X66497438Y-112409524D02*
X66449819Y-112504762D01*
X66449819Y-112504762D02*
X66449819Y-112742857D01*
X66449819Y-112742857D02*
X66497438Y-112838095D01*
X66497438Y-112838095D02*
X66545057Y-112885714D01*
X66545057Y-112885714D02*
X66640295Y-112933333D01*
X66640295Y-112933333D02*
X66735533Y-112933333D01*
X66735533Y-112933333D02*
X66878390Y-112885714D01*
X66878390Y-112885714D02*
X67449819Y-112314286D01*
X67449819Y-112314286D02*
X67449819Y-112933333D01*
X67354580Y-113361905D02*
X67402200Y-113409524D01*
X67402200Y-113409524D02*
X67449819Y-113361905D01*
X67449819Y-113361905D02*
X67402200Y-113314286D01*
X67402200Y-113314286D02*
X67354580Y-113361905D01*
X67354580Y-113361905D02*
X67449819Y-113361905D01*
X66449819Y-114028571D02*
X66449819Y-114123809D01*
X66449819Y-114123809D02*
X66497438Y-114219047D01*
X66497438Y-114219047D02*
X66545057Y-114266666D01*
X66545057Y-114266666D02*
X66640295Y-114314285D01*
X66640295Y-114314285D02*
X66830771Y-114361904D01*
X66830771Y-114361904D02*
X67068866Y-114361904D01*
X67068866Y-114361904D02*
X67259342Y-114314285D01*
X67259342Y-114314285D02*
X67354580Y-114266666D01*
X67354580Y-114266666D02*
X67402200Y-114219047D01*
X67402200Y-114219047D02*
X67449819Y-114123809D01*
X67449819Y-114123809D02*
X67449819Y-114028571D01*
X67449819Y-114028571D02*
X67402200Y-113933333D01*
X67402200Y-113933333D02*
X67354580Y-113885714D01*
X67354580Y-113885714D02*
X67259342Y-113838095D01*
X67259342Y-113838095D02*
X67068866Y-113790476D01*
X67068866Y-113790476D02*
X66830771Y-113790476D01*
X66830771Y-113790476D02*
X66640295Y-113838095D01*
X66640295Y-113838095D02*
X66545057Y-113885714D01*
X66545057Y-113885714D02*
X66497438Y-113933333D01*
X66497438Y-113933333D02*
X66449819Y-114028571D01*
X67449819Y-114838095D02*
X67449819Y-115028571D01*
X67449819Y-115028571D02*
X67402200Y-115123809D01*
X67402200Y-115123809D02*
X67354580Y-115171428D01*
X67354580Y-115171428D02*
X67211723Y-115266666D01*
X67211723Y-115266666D02*
X67021247Y-115314285D01*
X67021247Y-115314285D02*
X66640295Y-115314285D01*
X66640295Y-115314285D02*
X66545057Y-115266666D01*
X66545057Y-115266666D02*
X66497438Y-115219047D01*
X66497438Y-115219047D02*
X66449819Y-115123809D01*
X66449819Y-115123809D02*
X66449819Y-114933333D01*
X66449819Y-114933333D02*
X66497438Y-114838095D01*
X66497438Y-114838095D02*
X66545057Y-114790476D01*
X66545057Y-114790476D02*
X66640295Y-114742857D01*
X66640295Y-114742857D02*
X66878390Y-114742857D01*
X66878390Y-114742857D02*
X66973628Y-114790476D01*
X66973628Y-114790476D02*
X67021247Y-114838095D01*
X67021247Y-114838095D02*
X67068866Y-114933333D01*
X67068866Y-114933333D02*
X67068866Y-115123809D01*
X67068866Y-115123809D02*
X67021247Y-115219047D01*
X67021247Y-115219047D02*
X66973628Y-115266666D01*
X66973628Y-115266666D02*
X66878390Y-115314285D01*
X67354580Y-115742857D02*
X67402200Y-115790476D01*
X67402200Y-115790476D02*
X67449819Y-115742857D01*
X67449819Y-115742857D02*
X67402200Y-115695238D01*
X67402200Y-115695238D02*
X67354580Y-115742857D01*
X67354580Y-115742857D02*
X67449819Y-115742857D01*
X66449819Y-116409523D02*
X66449819Y-116504761D01*
X66449819Y-116504761D02*
X66497438Y-116599999D01*
X66497438Y-116599999D02*
X66545057Y-116647618D01*
X66545057Y-116647618D02*
X66640295Y-116695237D01*
X66640295Y-116695237D02*
X66830771Y-116742856D01*
X66830771Y-116742856D02*
X67068866Y-116742856D01*
X67068866Y-116742856D02*
X67259342Y-116695237D01*
X67259342Y-116695237D02*
X67354580Y-116647618D01*
X67354580Y-116647618D02*
X67402200Y-116599999D01*
X67402200Y-116599999D02*
X67449819Y-116504761D01*
X67449819Y-116504761D02*
X67449819Y-116409523D01*
X67449819Y-116409523D02*
X67402200Y-116314285D01*
X67402200Y-116314285D02*
X67354580Y-116266666D01*
X67354580Y-116266666D02*
X67259342Y-116219047D01*
X67259342Y-116219047D02*
X67068866Y-116171428D01*
X67068866Y-116171428D02*
X66830771Y-116171428D01*
X66830771Y-116171428D02*
X66640295Y-116219047D01*
X66640295Y-116219047D02*
X66545057Y-116266666D01*
X66545057Y-116266666D02*
X66497438Y-116314285D01*
X66497438Y-116314285D02*
X66449819Y-116409523D01*
X66783152Y-117599999D02*
X67449819Y-117599999D01*
X66402200Y-117361904D02*
X67116485Y-117123809D01*
X67116485Y-117123809D02*
X67116485Y-117742856D01*
X70003152Y-106671429D02*
X70669819Y-106909524D01*
X70669819Y-106909524D02*
X70003152Y-107147619D01*
X70669819Y-107671429D02*
X70622200Y-107576191D01*
X70622200Y-107576191D02*
X70574580Y-107528572D01*
X70574580Y-107528572D02*
X70479342Y-107480953D01*
X70479342Y-107480953D02*
X70193628Y-107480953D01*
X70193628Y-107480953D02*
X70098390Y-107528572D01*
X70098390Y-107528572D02*
X70050771Y-107576191D01*
X70050771Y-107576191D02*
X70003152Y-107671429D01*
X70003152Y-107671429D02*
X70003152Y-107814286D01*
X70003152Y-107814286D02*
X70050771Y-107909524D01*
X70050771Y-107909524D02*
X70098390Y-107957143D01*
X70098390Y-107957143D02*
X70193628Y-108004762D01*
X70193628Y-108004762D02*
X70479342Y-108004762D01*
X70479342Y-108004762D02*
X70574580Y-107957143D01*
X70574580Y-107957143D02*
X70622200Y-107909524D01*
X70622200Y-107909524D02*
X70669819Y-107814286D01*
X70669819Y-107814286D02*
X70669819Y-107671429D01*
X70669819Y-108433334D02*
X70003152Y-108433334D01*
X69669819Y-108433334D02*
X69717438Y-108385715D01*
X69717438Y-108385715D02*
X69765057Y-108433334D01*
X69765057Y-108433334D02*
X69717438Y-108480953D01*
X69717438Y-108480953D02*
X69669819Y-108433334D01*
X69669819Y-108433334D02*
X69765057Y-108433334D01*
X70669819Y-109338095D02*
X69669819Y-109338095D01*
X70622200Y-109338095D02*
X70669819Y-109242857D01*
X70669819Y-109242857D02*
X70669819Y-109052381D01*
X70669819Y-109052381D02*
X70622200Y-108957143D01*
X70622200Y-108957143D02*
X70574580Y-108909524D01*
X70574580Y-108909524D02*
X70479342Y-108861905D01*
X70479342Y-108861905D02*
X70193628Y-108861905D01*
X70193628Y-108861905D02*
X70098390Y-108909524D01*
X70098390Y-108909524D02*
X70050771Y-108957143D01*
X70050771Y-108957143D02*
X70003152Y-109052381D01*
X70003152Y-109052381D02*
X70003152Y-109242857D01*
X70003152Y-109242857D02*
X70050771Y-109338095D01*
X70622200Y-110195238D02*
X70669819Y-110100000D01*
X70669819Y-110100000D02*
X70669819Y-109909524D01*
X70669819Y-109909524D02*
X70622200Y-109814286D01*
X70622200Y-109814286D02*
X70526961Y-109766667D01*
X70526961Y-109766667D02*
X70146009Y-109766667D01*
X70146009Y-109766667D02*
X70050771Y-109814286D01*
X70050771Y-109814286D02*
X70003152Y-109909524D01*
X70003152Y-109909524D02*
X70003152Y-110100000D01*
X70003152Y-110100000D02*
X70050771Y-110195238D01*
X70050771Y-110195238D02*
X70146009Y-110242857D01*
X70146009Y-110242857D02*
X70241247Y-110242857D01*
X70241247Y-110242857D02*
X70336485Y-109766667D01*
X70669819Y-111100000D02*
X69669819Y-111100000D01*
X70622200Y-111100000D02*
X70669819Y-111004762D01*
X70669819Y-111004762D02*
X70669819Y-110814286D01*
X70669819Y-110814286D02*
X70622200Y-110719048D01*
X70622200Y-110719048D02*
X70574580Y-110671429D01*
X70574580Y-110671429D02*
X70479342Y-110623810D01*
X70479342Y-110623810D02*
X70193628Y-110623810D01*
X70193628Y-110623810D02*
X70098390Y-110671429D01*
X70098390Y-110671429D02*
X70050771Y-110719048D01*
X70050771Y-110719048D02*
X70003152Y-110814286D01*
X70003152Y-110814286D02*
X70003152Y-111004762D01*
X70003152Y-111004762D02*
X70050771Y-111100000D01*
X69765057Y-112290477D02*
X69717438Y-112338096D01*
X69717438Y-112338096D02*
X69669819Y-112433334D01*
X69669819Y-112433334D02*
X69669819Y-112671429D01*
X69669819Y-112671429D02*
X69717438Y-112766667D01*
X69717438Y-112766667D02*
X69765057Y-112814286D01*
X69765057Y-112814286D02*
X69860295Y-112861905D01*
X69860295Y-112861905D02*
X69955533Y-112861905D01*
X69955533Y-112861905D02*
X70098390Y-112814286D01*
X70098390Y-112814286D02*
X70669819Y-112242858D01*
X70669819Y-112242858D02*
X70669819Y-112861905D01*
X69669819Y-113480953D02*
X69669819Y-113576191D01*
X69669819Y-113576191D02*
X69717438Y-113671429D01*
X69717438Y-113671429D02*
X69765057Y-113719048D01*
X69765057Y-113719048D02*
X69860295Y-113766667D01*
X69860295Y-113766667D02*
X70050771Y-113814286D01*
X70050771Y-113814286D02*
X70288866Y-113814286D01*
X70288866Y-113814286D02*
X70479342Y-113766667D01*
X70479342Y-113766667D02*
X70574580Y-113719048D01*
X70574580Y-113719048D02*
X70622200Y-113671429D01*
X70622200Y-113671429D02*
X70669819Y-113576191D01*
X70669819Y-113576191D02*
X70669819Y-113480953D01*
X70669819Y-113480953D02*
X70622200Y-113385715D01*
X70622200Y-113385715D02*
X70574580Y-113338096D01*
X70574580Y-113338096D02*
X70479342Y-113290477D01*
X70479342Y-113290477D02*
X70288866Y-113242858D01*
X70288866Y-113242858D02*
X70050771Y-113242858D01*
X70050771Y-113242858D02*
X69860295Y-113290477D01*
X69860295Y-113290477D02*
X69765057Y-113338096D01*
X69765057Y-113338096D02*
X69717438Y-113385715D01*
X69717438Y-113385715D02*
X69669819Y-113480953D01*
X69765057Y-114195239D02*
X69717438Y-114242858D01*
X69717438Y-114242858D02*
X69669819Y-114338096D01*
X69669819Y-114338096D02*
X69669819Y-114576191D01*
X69669819Y-114576191D02*
X69717438Y-114671429D01*
X69717438Y-114671429D02*
X69765057Y-114719048D01*
X69765057Y-114719048D02*
X69860295Y-114766667D01*
X69860295Y-114766667D02*
X69955533Y-114766667D01*
X69955533Y-114766667D02*
X70098390Y-114719048D01*
X70098390Y-114719048D02*
X70669819Y-114147620D01*
X70669819Y-114147620D02*
X70669819Y-114766667D01*
X69669819Y-115100001D02*
X69669819Y-115719048D01*
X69669819Y-115719048D02*
X70050771Y-115385715D01*
X70050771Y-115385715D02*
X70050771Y-115528572D01*
X70050771Y-115528572D02*
X70098390Y-115623810D01*
X70098390Y-115623810D02*
X70146009Y-115671429D01*
X70146009Y-115671429D02*
X70241247Y-115719048D01*
X70241247Y-115719048D02*
X70479342Y-115719048D01*
X70479342Y-115719048D02*
X70574580Y-115671429D01*
X70574580Y-115671429D02*
X70622200Y-115623810D01*
X70622200Y-115623810D02*
X70669819Y-115528572D01*
X70669819Y-115528572D02*
X70669819Y-115242858D01*
X70669819Y-115242858D02*
X70622200Y-115147620D01*
X70622200Y-115147620D02*
X70574580Y-115100001D01*
X70574580Y-116147620D02*
X70622200Y-116195239D01*
X70622200Y-116195239D02*
X70669819Y-116147620D01*
X70669819Y-116147620D02*
X70622200Y-116100001D01*
X70622200Y-116100001D02*
X70574580Y-116147620D01*
X70574580Y-116147620D02*
X70669819Y-116147620D01*
X69669819Y-116814286D02*
X69669819Y-116909524D01*
X69669819Y-116909524D02*
X69717438Y-117004762D01*
X69717438Y-117004762D02*
X69765057Y-117052381D01*
X69765057Y-117052381D02*
X69860295Y-117100000D01*
X69860295Y-117100000D02*
X70050771Y-117147619D01*
X70050771Y-117147619D02*
X70288866Y-117147619D01*
X70288866Y-117147619D02*
X70479342Y-117100000D01*
X70479342Y-117100000D02*
X70574580Y-117052381D01*
X70574580Y-117052381D02*
X70622200Y-117004762D01*
X70622200Y-117004762D02*
X70669819Y-116909524D01*
X70669819Y-116909524D02*
X70669819Y-116814286D01*
X70669819Y-116814286D02*
X70622200Y-116719048D01*
X70622200Y-116719048D02*
X70574580Y-116671429D01*
X70574580Y-116671429D02*
X70479342Y-116623810D01*
X70479342Y-116623810D02*
X70288866Y-116576191D01*
X70288866Y-116576191D02*
X70050771Y-116576191D01*
X70050771Y-116576191D02*
X69860295Y-116623810D01*
X69860295Y-116623810D02*
X69765057Y-116671429D01*
X69765057Y-116671429D02*
X69717438Y-116719048D01*
X69717438Y-116719048D02*
X69669819Y-116814286D01*
X69669819Y-117480953D02*
X69669819Y-118100000D01*
X69669819Y-118100000D02*
X70050771Y-117766667D01*
X70050771Y-117766667D02*
X70050771Y-117909524D01*
X70050771Y-117909524D02*
X70098390Y-118004762D01*
X70098390Y-118004762D02*
X70146009Y-118052381D01*
X70146009Y-118052381D02*
X70241247Y-118100000D01*
X70241247Y-118100000D02*
X70479342Y-118100000D01*
X70479342Y-118100000D02*
X70574580Y-118052381D01*
X70574580Y-118052381D02*
X70622200Y-118004762D01*
X70622200Y-118004762D02*
X70669819Y-117909524D01*
X70669819Y-117909524D02*
X70669819Y-117623810D01*
X70669819Y-117623810D02*
X70622200Y-117528572D01*
X70622200Y-117528572D02*
X70574580Y-117480953D01*
X70574580Y-118528572D02*
X70622200Y-118576191D01*
X70622200Y-118576191D02*
X70669819Y-118528572D01*
X70669819Y-118528572D02*
X70622200Y-118480953D01*
X70622200Y-118480953D02*
X70574580Y-118528572D01*
X70574580Y-118528572D02*
X70669819Y-118528572D01*
X70669819Y-119528571D02*
X70669819Y-118957143D01*
X70669819Y-119242857D02*
X69669819Y-119242857D01*
X69669819Y-119242857D02*
X69812676Y-119147619D01*
X69812676Y-119147619D02*
X69907914Y-119052381D01*
X69907914Y-119052381D02*
X69955533Y-118957143D01*
X69669819Y-120385714D02*
X69669819Y-120195238D01*
X69669819Y-120195238D02*
X69717438Y-120100000D01*
X69717438Y-120100000D02*
X69765057Y-120052381D01*
X69765057Y-120052381D02*
X69907914Y-119957143D01*
X69907914Y-119957143D02*
X70098390Y-119909524D01*
X70098390Y-119909524D02*
X70479342Y-119909524D01*
X70479342Y-119909524D02*
X70574580Y-119957143D01*
X70574580Y-119957143D02*
X70622200Y-120004762D01*
X70622200Y-120004762D02*
X70669819Y-120100000D01*
X70669819Y-120100000D02*
X70669819Y-120290476D01*
X70669819Y-120290476D02*
X70622200Y-120385714D01*
X70622200Y-120385714D02*
X70574580Y-120433333D01*
X70574580Y-120433333D02*
X70479342Y-120480952D01*
X70479342Y-120480952D02*
X70241247Y-120480952D01*
X70241247Y-120480952D02*
X70146009Y-120433333D01*
X70146009Y-120433333D02*
X70098390Y-120385714D01*
X70098390Y-120385714D02*
X70050771Y-120290476D01*
X70050771Y-120290476D02*
X70050771Y-120100000D01*
X70050771Y-120100000D02*
X70098390Y-120004762D01*
X70098390Y-120004762D02*
X70146009Y-119957143D01*
X70146009Y-119957143D02*
X70241247Y-119909524D01*
X94682265Y-112093602D02*
X94614922Y-112228289D01*
X94614922Y-112228289D02*
X94446563Y-112396647D01*
X94446563Y-112396647D02*
X94345548Y-112430319D01*
X94345548Y-112430319D02*
X94278204Y-112430319D01*
X94278204Y-112430319D02*
X94177189Y-112396647D01*
X94177189Y-112396647D02*
X94109845Y-112329304D01*
X94109845Y-112329304D02*
X94076174Y-112228289D01*
X94076174Y-112228289D02*
X94076174Y-112160945D01*
X94076174Y-112160945D02*
X94109845Y-112059930D01*
X94109845Y-112059930D02*
X94210861Y-111891571D01*
X94210861Y-111891571D02*
X94244532Y-111790556D01*
X94244532Y-111790556D02*
X94244532Y-111723212D01*
X94244532Y-111723212D02*
X94210861Y-111622197D01*
X94210861Y-111622197D02*
X94143517Y-111554854D01*
X94143517Y-111554854D02*
X94042502Y-111521182D01*
X94042502Y-111521182D02*
X93975158Y-111521182D01*
X93975158Y-111521182D02*
X93874143Y-111554854D01*
X93874143Y-111554854D02*
X93705784Y-111723212D01*
X93705784Y-111723212D02*
X93638441Y-111857899D01*
X94008830Y-112834380D02*
X93301723Y-112127273D01*
X93301723Y-112127273D02*
X93133365Y-112295632D01*
X93133365Y-112295632D02*
X93066021Y-112430319D01*
X93066021Y-112430319D02*
X93066021Y-112565006D01*
X93066021Y-112565006D02*
X93099693Y-112666021D01*
X93099693Y-112666021D02*
X93200708Y-112834380D01*
X93200708Y-112834380D02*
X93301723Y-112935395D01*
X93301723Y-112935395D02*
X93470082Y-113036411D01*
X93470082Y-113036411D02*
X93571097Y-113070082D01*
X93571097Y-113070082D02*
X93705784Y-113070082D01*
X93705784Y-113070082D02*
X93840471Y-113002739D01*
X93840471Y-113002739D02*
X94008830Y-112834380D01*
X93301723Y-113541487D02*
X92594617Y-112834380D01*
X92123212Y-113305784D02*
X91988525Y-113440471D01*
X91988525Y-113440471D02*
X91954854Y-113541487D01*
X91954854Y-113541487D02*
X91954854Y-113676174D01*
X91954854Y-113676174D02*
X92055869Y-113844532D01*
X92055869Y-113844532D02*
X92291571Y-114080235D01*
X92291571Y-114080235D02*
X92459930Y-114181250D01*
X92459930Y-114181250D02*
X92594617Y-114181250D01*
X92594617Y-114181250D02*
X92695632Y-114147578D01*
X92695632Y-114147578D02*
X92830319Y-114012891D01*
X92830319Y-114012891D02*
X92863991Y-113911876D01*
X92863991Y-113911876D02*
X92863991Y-113777189D01*
X92863991Y-113777189D02*
X92762976Y-113608830D01*
X92762976Y-113608830D02*
X92527273Y-113373128D01*
X92527273Y-113373128D02*
X92358915Y-113272113D01*
X92358915Y-113272113D02*
X92224228Y-113272113D01*
X92224228Y-113272113D02*
X92123212Y-113305784D01*
X94257307Y-116371690D02*
X94728712Y-117314499D01*
X94728712Y-117314499D02*
X93785903Y-116843094D01*
X93785902Y-118122621D02*
X93853246Y-118122621D01*
X93853246Y-118122621D02*
X93987933Y-118055277D01*
X93987933Y-118055277D02*
X94055276Y-117987934D01*
X94055276Y-117987934D02*
X94122620Y-117853247D01*
X94122620Y-117853247D02*
X94122620Y-117718560D01*
X94122620Y-117718560D02*
X94088948Y-117617545D01*
X94088948Y-117617545D02*
X93987933Y-117449186D01*
X93987933Y-117449186D02*
X93886918Y-117348171D01*
X93886918Y-117348171D02*
X93718559Y-117247155D01*
X93718559Y-117247155D02*
X93617544Y-117213484D01*
X93617544Y-117213484D02*
X93482857Y-117213484D01*
X93482857Y-117213484D02*
X93348170Y-117280827D01*
X93348170Y-117280827D02*
X93280826Y-117348171D01*
X93280826Y-117348171D02*
X93213483Y-117482858D01*
X93213483Y-117482858D02*
X93213483Y-117550201D01*
X93078796Y-118829728D02*
X93146139Y-118829728D01*
X93146139Y-118829728D02*
X93280826Y-118762384D01*
X93280826Y-118762384D02*
X93348170Y-118695041D01*
X93348170Y-118695041D02*
X93415513Y-118560354D01*
X93415513Y-118560354D02*
X93415513Y-118425667D01*
X93415513Y-118425667D02*
X93381841Y-118324651D01*
X93381841Y-118324651D02*
X93280826Y-118156293D01*
X93280826Y-118156293D02*
X93179811Y-118055277D01*
X93179811Y-118055277D02*
X93011452Y-117954262D01*
X93011452Y-117954262D02*
X92910437Y-117920590D01*
X92910437Y-117920590D02*
X92775750Y-117920590D01*
X92775750Y-117920590D02*
X92641063Y-117987934D01*
X92641063Y-117987934D02*
X92573719Y-118055277D01*
X92573719Y-118055277D02*
X92506376Y-118189964D01*
X92506376Y-118189964D02*
X92506376Y-118257308D01*
D11*
X80234000Y-120937500D02*
X80234000Y-120137500D01*
X80234000Y-120937500D02*
X80234000Y-121737500D01*
X77114000Y-120937500D02*
X77114000Y-119137500D01*
X77114000Y-120937500D02*
X77114000Y-121737500D01*
X89514000Y-113049420D02*
X89514000Y-113330580D01*
X88494000Y-113049420D02*
X88494000Y-113330580D01*
X88484000Y-110305580D02*
X88484000Y-110024420D01*
X89504000Y-110305580D02*
X89504000Y-110024420D01*
X73690580Y-106010000D02*
X73409420Y-106010000D01*
X73690580Y-104990000D02*
X73409420Y-104990000D01*
D12*
X75185000Y-114280000D02*
G75*
G03*
X75185000Y-114280000I-200000J0D01*
G01*
D11*
X89494000Y-103439420D02*
X89494000Y-103720580D01*
X88474000Y-103439420D02*
X88474000Y-103720580D01*
X85484580Y-99350000D02*
X85203420Y-99350000D01*
X85484580Y-98330000D02*
X85203420Y-98330000D01*
X80634000Y-119833080D02*
X80634000Y-119551920D01*
X81654000Y-119833080D02*
X81654000Y-119551920D01*
X88464000Y-107160580D02*
X88464000Y-106879420D01*
X89484000Y-107160580D02*
X89484000Y-106879420D01*
X85484580Y-97646000D02*
X85203420Y-97646000D01*
X85484580Y-96626000D02*
X85203420Y-96626000D01*
X74882500Y-102732742D02*
X74882500Y-103207258D01*
X73837500Y-102732742D02*
X73837500Y-103207258D01*
X78553420Y-123237500D02*
X78834580Y-123237500D01*
X78553420Y-124257500D02*
X78834580Y-124257500D01*
M02*
