G04 Layer: BottomSilkscreenLayer*
G04 EasyEDA v6.5.25, 2023-03-20 21:11:36*
**********************************至少这一行要换成自己的************************************
G04 Gerber Generator version 0.2*
G04 Scale: 100 percent, Rotated: No, Reflected: No *
G04 Dimensions in millimeters  *
G04 leading zeros omitted , absolute positions ,3 integer and 6 decimal *
G04 #@! TF.GenerationSoftware,KiCad,Pcbnew,7.0.7*
G04 #@! TF.CreationDate,2024-02-03T15:44:35+08:00*
G04 #@! TF.ProjectId,flex,666c6578-2e6b-4696-9361-645f70636258,rev?*
G04 #@! TF.SameCoordinates,Original*
G04 #@! TF.FileFunction,Copper,L2,Bot*
G04 #@! TF.FilePolarity,Positive*
%FSLAX46Y46*%
G04 Gerber Fmt 4.6, Leading zero omitted, Abs format (unit mm)*
G04 Created by KiCad (PCBNEW 7.0.7) date 2024-02-03 15:44:35*
%MOMM*%
%LPD*%
G01*
G04 APERTURE LIST*
G04 Aperture macros list*
%AMRoundRect*
0 Rectangle with rounded corners*
0 $1 Rounding radius*
0 $2 $3 $4 $5 $6 $7 $8 $9 X,Y pos of 4 corners*
0 Add a 4 corners polygon primitive as box body*
4,1,4,$2,$3,$4,$5,$6,$7,$8,$9,$2,$3,0*
0 Add four circle primitives for the rounded corners*
1,1,$1+$1,$2,$3*
1,1,$1+$1,$4,$5*
1,1,$1+$1,$6,$7*
1,1,$1+$1,$8,$9*
0 Add four rect primitives between the rounded corners*
20,1,$1+$1,$2,$3,$4,$5,0*
20,1,$1+$1,$4,$5,$6,$7,0*
20,1,$1+$1,$6,$7,$8,$9,0*
20,1,$1+$1,$8,$9,$2,$3,0*%
%AMHorizOval*
0 Thick line with rounded ends*
0 $1 width*
0 $2 $3 position (X,Y) of the first rounded end (center of the circle)*
0 $4 $5 position (X,Y) of the second rounded end (center of the circle)*
0 Add line between two ends*
20,1,$1,$2,$3,$4,$5,0*
0 Add two circle primitives to create the rounded ends*
1,1,$1,$2,$3*
1,1,$1,$4,$5*%
%AMRotRect*
0 Rectangle, with rotation*
0 The origin of the aperture is its center*
0 $1 length*
0 $2 width*
0 $3 Rotation angle, in degrees counterclockwise*
0 Add horizontal line*
21,1,$1,$2,0,0,$3*%
G04 Aperture macros list end*
G04 #@! TA.AperFunction,ComponentPad*
%ADD10RotRect,1.700000X1.700000X10.000000*%
G04 #@! TD*
G04 #@! TA.AperFunction,ComponentPad*
%ADD11HorizOval,1.700000X0.000000X0.000000X0.000000X0.000000X0*%
G04 #@! TD*
G04 #@! TA.AperFunction,SMDPad,CuDef*
%ADD12R,2.550000X2.500000*%
G04 #@! TD*
G04 #@! TA.AperFunction,SMDPad,CuDef*
%ADD13R,1.524000X1.524000*%
G04 #@! TD*
G04 #@! TA.AperFunction,SMDPad,CuDef*
%ADD14RotRect,2.550000X2.500000X10.000000*%
G04 #@! TD*
G04 #@! TA.AperFunction,ComponentPad*
%ADD15R,1.700000X1.700000*%
G04 #@! TD*
G04 #@! TA.AperFunction,ComponentPad*
%ADD16O,1.700000X1.700000*%
G04 #@! TD*
G04 #@! TA.AperFunction,SMDPad,CuDef*
%ADD17RotRect,2.550000X2.500000X344.000000*%
G04 #@! TD*
G04 #@! TA.AperFunction,SMDPad,CuDef*
%ADD18RoundRect,0.250001X-0.624999X0.462499X-0.624999X-0.462499X0.624999X-0.462499X0.624999X0.462499X0*%
G04 #@! TD*
G04 #@! TA.AperFunction,SMDPad,CuDef*
%ADD19R,2.400000X0.820000*%
G04 #@! TD*
G04 #@! TA.AperFunction,SMDPad,CuDef*
%ADD20RotRect,2.400000X0.820000X190.000000*%
G04 #@! TD*
G04 #@! TA.AperFunction,SMDPad,CuDef*
%ADD21RotRect,2.400000X0.820000X165.000000*%
G04 #@! TD*
G04 #@! TA.AperFunction,SMDPad,CuDef*
%ADD22RoundRect,0.250001X-0.695816X0.346943X-0.535192X-0.564003X0.695816X-0.346943X0.535192X0.564003X0*%
G04 #@! TD*
G04 #@! TA.AperFunction,SMDPad,CuDef*
%ADD23RoundRect,0.250001X0.695816X-0.346943X0.535192X0.564003X-0.695816X0.346943X-0.535192X-0.564003X0*%
G04 #@! TD*
G04 #@! TA.AperFunction,ViaPad*
%ADD24C,0.800000*%
G04 #@! TD*
G04 #@! TA.AperFunction,Conductor*
%ADD25C,0.250000*%
G04 #@! TD*
G04 #@! TA.AperFunction,Conductor*
%ADD26C,0.152400*%
G04 #@! TD*
G04 APERTURE END LIST*
D10*
X68770000Y-77710000D03*
D11*
X69211066Y-80211412D03*
X69652133Y-82712823D03*
D12*
X80165326Y-50002185D03*
X94015326Y-47462185D03*
D13*
X73424526Y-52061785D03*
X73424526Y-55461785D03*
X83872275Y-91345142D03*
X83872275Y-94745142D03*
D14*
X67653387Y-97058569D03*
X80851908Y-92152130D03*
D13*
X82080000Y-70806000D03*
X82080000Y-67406000D03*
D12*
X86724800Y-72034400D03*
X100574800Y-69494400D03*
D15*
X84130000Y-67920000D03*
D16*
X84130000Y-70460000D03*
X84130000Y-73000000D03*
X84130000Y-75540000D03*
X84130000Y-78080000D03*
X84130000Y-80620000D03*
D14*
X59620713Y-53182354D03*
X72819234Y-48275915D03*
D13*
X99490526Y-47267785D03*
X99490526Y-50667785D03*
D15*
X77740526Y-46167785D03*
D16*
X77740526Y-48707785D03*
X77740526Y-51247785D03*
X77740526Y-53787785D03*
D13*
X97424526Y-47261785D03*
X97424526Y-50661785D03*
X99670000Y-77774000D03*
X99670000Y-81174000D03*
D14*
X66180187Y-75214569D03*
X79378708Y-70308130D03*
D17*
X102951506Y-51013962D03*
X116965100Y-52389935D03*
D15*
X99240526Y-53827785D03*
D16*
X99240526Y-56367785D03*
X99240526Y-58907785D03*
D18*
X96740526Y-53780285D03*
X96740526Y-56755285D03*
D19*
X91450000Y-79950000D03*
X97050000Y-79950000D03*
X97050000Y-78450000D03*
X91450000Y-78450000D03*
D20*
X65663300Y-59992606D03*
X71178224Y-59020176D03*
X70917752Y-57542964D03*
X65402828Y-58515394D03*
D21*
X105241819Y-60067536D03*
X110651004Y-61516923D03*
X111039233Y-60068034D03*
X105630048Y-58618647D03*
D20*
X72222774Y-82024821D03*
X77737698Y-81052391D03*
X77477226Y-79575179D03*
X71962302Y-80547609D03*
X73822774Y-104054821D03*
X79337698Y-103082391D03*
X79077226Y-101605179D03*
X73562302Y-102577609D03*
D19*
X84890526Y-57917785D03*
X90490526Y-57917785D03*
X90490526Y-56417785D03*
X84890526Y-56417785D03*
D22*
X81421698Y-79015098D03*
X81938302Y-81944902D03*
D18*
X101840526Y-53780285D03*
X101840526Y-56755285D03*
D23*
X80328302Y-76574902D03*
X79811698Y-73645098D03*
D24*
X94240526Y-56367785D03*
X97440526Y-60367785D03*
X78250000Y-89700000D03*
X78990000Y-58692785D03*
X81820000Y-57192785D03*
X82500000Y-60910000D03*
X84930000Y-61940000D03*
X82160000Y-72440000D03*
X102240526Y-47567785D03*
X82240526Y-46767785D03*
X86470000Y-75430000D03*
X66650000Y-78000000D03*
X69450000Y-93860000D03*
X79850000Y-79300000D03*
X73360000Y-101240000D03*
X86600000Y-80170000D03*
X76150000Y-83540484D03*
X79000000Y-104380000D03*
X87040526Y-59567785D03*
X95790000Y-81333800D03*
X74240526Y-58767785D03*
X103040526Y-61167785D03*
X76640526Y-57167785D03*
X80640526Y-57967785D03*
X87550000Y-82010000D03*
X80550000Y-81098368D03*
D25*
X107693579Y-58058647D02*
X103415217Y-53780285D01*
X97440526Y-60367785D02*
X104941570Y-60367785D01*
X104941570Y-60367785D02*
X105241819Y-60067536D01*
X90490526Y-56417785D02*
X94190526Y-56417785D01*
X78071126Y-45837185D02*
X95999926Y-45837185D01*
X103415217Y-53780285D02*
X101840526Y-53780285D01*
X94190526Y-56417785D02*
X94240526Y-56367785D01*
X95999926Y-45837185D02*
X97424526Y-47261785D01*
X116965100Y-52389935D02*
X113711112Y-49135947D01*
X101022364Y-49135947D02*
X99490526Y-50667785D01*
X109663818Y-58058647D02*
X107693579Y-58058647D01*
X111039233Y-60068034D02*
X111039233Y-59434062D01*
X111039233Y-59434062D02*
X109663818Y-58058647D01*
X77740526Y-46167785D02*
X78071126Y-45837185D01*
X113711112Y-49135947D02*
X101022364Y-49135947D01*
D26*
X82227133Y-89700000D02*
X83872275Y-91345142D01*
X78250000Y-89700000D02*
X82227133Y-89700000D01*
D25*
X72337526Y-54374785D02*
X72337526Y-48757623D01*
D26*
X79378708Y-70308130D02*
X79378708Y-70107292D01*
X82080000Y-67406000D02*
X82080000Y-62720664D01*
X79378708Y-70107292D02*
X82080000Y-67406000D01*
X82080000Y-62720664D02*
X78990000Y-59630664D01*
D25*
X73424526Y-55461785D02*
X72337526Y-54374785D01*
X72337526Y-48757623D02*
X72819234Y-48275915D01*
D26*
X78990000Y-59630664D02*
X78990000Y-58692785D01*
X85256200Y-62266200D02*
X84930000Y-61940000D01*
X82500000Y-60910000D02*
X79964326Y-58374326D01*
D25*
X73424526Y-52061785D02*
X76014526Y-52061785D01*
D26*
X82080000Y-70806000D02*
X83839800Y-69046200D01*
X79964326Y-57687693D02*
X80459234Y-57192785D01*
X82080000Y-72360000D02*
X82080000Y-70806000D01*
X82160000Y-72440000D02*
X82080000Y-72360000D01*
X80459234Y-57192785D02*
X81820000Y-57192785D01*
X85256200Y-69046200D02*
X85256200Y-62266200D01*
X83839800Y-69046200D02*
X85256200Y-69046200D01*
X79964326Y-58374326D02*
X79964326Y-57687693D01*
D25*
X76014526Y-52061785D02*
X77740526Y-53787785D01*
D26*
X83872275Y-94745142D02*
X83444920Y-94745142D01*
X83444920Y-94745142D02*
X80851908Y-92152130D01*
D25*
X79680526Y-46767785D02*
X82240526Y-46767785D01*
D26*
X87708300Y-76668300D02*
X86470000Y-75430000D01*
D25*
X101940526Y-47267785D02*
X99490526Y-47267785D01*
D26*
X98564300Y-76668300D02*
X87708300Y-76668300D01*
D25*
X102240526Y-47567785D02*
X101940526Y-47267785D01*
D26*
X99670000Y-77774000D02*
X98564300Y-76668300D01*
D25*
X77740526Y-48707785D02*
X79680526Y-46767785D01*
X94015326Y-47462185D02*
X94224926Y-47462185D01*
X94224926Y-47462185D02*
X97424526Y-50661785D01*
D26*
X101161570Y-79682430D02*
X101161570Y-71781570D01*
X100574800Y-71194800D02*
X100574800Y-69494400D01*
X99670000Y-81174000D02*
X101161570Y-79682430D01*
X101161570Y-71781570D02*
X100574800Y-71194800D01*
D25*
X74696245Y-48203504D02*
X77740526Y-51247785D01*
X78986126Y-50002185D02*
X77740526Y-51247785D01*
X80165326Y-50002185D02*
X78986126Y-50002185D01*
D26*
X77450001Y-72100000D02*
X80690000Y-72100000D01*
X86724800Y-72945200D02*
X86724800Y-72034400D01*
D25*
X80165326Y-50002185D02*
X81799726Y-48367785D01*
D26*
X68494756Y-72900000D02*
X76650001Y-72900000D01*
X66180187Y-75214569D02*
X68494756Y-72900000D01*
X69450000Y-93860000D02*
X67653387Y-95656613D01*
X66180187Y-77530187D02*
X66650000Y-78000000D01*
D25*
X81799726Y-48367785D02*
X88872829Y-48367785D01*
D26*
X66180187Y-75214569D02*
X66180187Y-77530187D01*
X84130000Y-75540000D02*
X86724800Y-72945200D01*
D25*
X88872829Y-48367785D02*
X92259829Y-51754785D01*
D26*
X80690000Y-72100000D02*
X84130000Y-75540000D01*
D25*
X59620713Y-53182354D02*
X66304563Y-46498504D01*
X66304563Y-46498504D02*
X74696245Y-46498504D01*
X92259829Y-51754785D02*
X102210683Y-51754785D01*
X74696245Y-46498504D02*
X74696245Y-48203504D01*
D26*
X67653387Y-95656613D02*
X67653387Y-97058569D01*
X76650001Y-72900000D02*
X77450001Y-72100000D01*
D25*
X102210683Y-51754785D02*
X102951506Y-51013962D01*
D26*
X90660000Y-79240000D02*
X91450000Y-78450000D01*
X79850000Y-79300000D02*
X79875098Y-79325098D01*
X79781176Y-75300000D02*
X81450000Y-75300000D01*
D25*
X84890526Y-55757785D02*
X85305526Y-55342785D01*
D26*
X73360000Y-102375307D02*
X73562302Y-102577609D01*
D25*
X79790526Y-56417785D02*
X84890526Y-56417785D01*
X99240526Y-53827785D02*
X101130526Y-55717785D01*
D26*
X81491698Y-79325098D02*
X81576796Y-79240000D01*
D25*
X95178026Y-55342785D02*
X96740526Y-53780285D01*
D26*
X71962302Y-80547609D02*
X70714693Y-79300000D01*
X73360000Y-101240000D02*
X73360000Y-102375307D01*
D25*
X102729186Y-55717785D02*
X105630048Y-58618647D01*
D26*
X76331176Y-78750000D02*
X79781176Y-75300000D01*
X81576796Y-79240000D02*
X90660000Y-79240000D01*
D25*
X84890526Y-56417785D02*
X84890526Y-55757785D01*
X64085335Y-60612594D02*
X64402496Y-60929755D01*
D26*
X79875098Y-79325098D02*
X81491698Y-79325098D01*
D25*
X64402496Y-60929755D02*
X75278556Y-60929755D01*
X65402828Y-58515394D02*
X64184316Y-58515394D01*
D26*
X69028054Y-77613361D02*
X71962302Y-80547609D01*
D25*
X96740526Y-53780285D02*
X99193026Y-53780285D01*
D26*
X82250000Y-78566796D02*
X81491698Y-79325098D01*
X73128191Y-79300000D02*
X73678191Y-78750000D01*
D25*
X75278556Y-60929755D02*
X79790526Y-56417785D01*
D26*
X82250000Y-76100000D02*
X82250000Y-78566796D01*
X70714693Y-79300000D02*
X73128191Y-79300000D01*
D25*
X99193026Y-53780285D02*
X99240526Y-53827785D01*
D26*
X73678191Y-78750000D02*
X76331176Y-78750000D01*
D25*
X64085335Y-58614375D02*
X64085335Y-60612594D01*
X101130526Y-55717785D02*
X102729186Y-55717785D01*
X85305526Y-55342785D02*
X95178026Y-55342785D01*
D26*
X69011539Y-77613361D02*
X69028054Y-77613361D01*
D25*
X64184316Y-58515394D02*
X64085335Y-58614375D01*
D26*
X81450000Y-75300000D02*
X82250000Y-76100000D01*
X69893672Y-82616184D02*
X67326200Y-80048712D01*
D25*
X101393026Y-56755285D02*
X101840526Y-56755285D01*
X99240526Y-58907785D02*
X101393026Y-56755285D01*
D26*
X67326200Y-76973800D02*
X67890000Y-76410000D01*
X67326200Y-80048712D02*
X67326200Y-76973800D01*
X70916200Y-76410000D02*
X73681102Y-73645098D01*
X67890000Y-76410000D02*
X70916200Y-76410000D01*
X73681102Y-73645098D02*
X79811698Y-73645098D01*
X84130000Y-61770654D02*
X85341573Y-60559081D01*
X96292938Y-60559081D02*
X97944234Y-58907785D01*
X84130000Y-67920000D02*
X84130000Y-61770654D01*
X85341573Y-60559081D02*
X96292938Y-60559081D01*
X97944234Y-58907785D02*
X99240526Y-58907785D01*
X81302168Y-80422168D02*
X81938302Y-81058302D01*
D25*
X95578026Y-57917785D02*
X96740526Y-56755285D01*
D26*
X80269908Y-80422168D02*
X81302168Y-80422168D01*
D25*
X109862493Y-62305434D02*
X104178175Y-62305434D01*
X89500526Y-59567785D02*
X90490526Y-58577785D01*
D26*
X81938302Y-81944902D02*
X84825098Y-81944902D01*
X81938302Y-81058302D02*
X81938302Y-81944902D01*
D25*
X98853026Y-56755285D02*
X99240526Y-56367785D01*
D26*
X79000000Y-103420089D02*
X79337698Y-103082391D01*
X95790000Y-81333800D02*
X97050000Y-80073800D01*
X77737698Y-81052391D02*
X78220089Y-80570000D01*
X97050000Y-80073800D02*
X97050000Y-79950000D01*
X76150000Y-83540484D02*
X77737698Y-81952786D01*
D25*
X71178224Y-59020176D02*
X73988135Y-59020176D01*
D26*
X80122076Y-80570000D02*
X80269908Y-80422168D01*
X77737698Y-81952786D02*
X77737698Y-81052391D01*
D25*
X90490526Y-58577785D02*
X90490526Y-57917785D01*
D26*
X79000000Y-104380000D02*
X79000000Y-103420089D01*
D25*
X96740526Y-56755285D02*
X98853026Y-56755285D01*
X104178175Y-62305434D02*
X103040526Y-61167785D01*
X110651004Y-61516923D02*
X109862493Y-62305434D01*
D26*
X84825098Y-81944902D02*
X86600000Y-80170000D01*
D25*
X87040526Y-59567785D02*
X89500526Y-59567785D01*
X90490526Y-57917785D02*
X95578026Y-57917785D01*
D26*
X78220089Y-80570000D02*
X80122076Y-80570000D01*
D25*
X73988135Y-59020176D02*
X74240526Y-58767785D01*
D26*
X75582679Y-86978376D02*
X75582679Y-95362716D01*
X75582679Y-95362716D02*
X79077226Y-98857263D01*
D25*
X76265347Y-57542964D02*
X76640526Y-57167785D01*
D26*
X88486631Y-79950000D02*
X85735733Y-82700898D01*
X83232724Y-83093630D02*
X79467425Y-83093630D01*
D25*
X80640526Y-57967785D02*
X80690526Y-57917785D01*
D26*
X91450000Y-79950000D02*
X88486631Y-79950000D01*
X79077226Y-98857263D02*
X79077226Y-101605179D01*
D25*
X80690526Y-57917785D02*
X84890526Y-57917785D01*
X70917752Y-57542964D02*
X76265347Y-57542964D01*
D26*
X85735733Y-82700898D02*
X83232724Y-83093630D01*
X79467425Y-83093630D02*
X75582679Y-86978376D01*
X97840000Y-78450000D02*
X98610000Y-79220000D01*
X80550000Y-81098368D02*
X80231632Y-81098368D01*
X97050000Y-78450000D02*
X97840000Y-78450000D01*
X98610000Y-79220000D02*
X98610000Y-80552400D01*
X77113316Y-84216684D02*
X74414637Y-84216684D01*
X98610000Y-80552400D02*
X97152400Y-82010000D01*
X80231632Y-81098368D02*
X77113316Y-84216684D01*
X97152400Y-82010000D02*
X87550000Y-82010000D01*
X74414637Y-84216684D02*
X72222774Y-82024821D01*
X80328302Y-76574902D02*
X80328302Y-76724103D01*
X80328302Y-76724103D02*
X77477226Y-79575179D01*
G04 #@! TA.AperFunction,Conductor*
G36*
X64670435Y-76899479D02*
G01*
X64714516Y-76943835D01*
X64740331Y-76987741D01*
X64846952Y-77087800D01*
X64846955Y-77087802D01*
X64977450Y-77153772D01*
X65121245Y-77180305D01*
X65182018Y-77176201D01*
X65447608Y-77129370D01*
X65518166Y-77137239D01*
X65573270Y-77182006D01*
X65595424Y-77249458D01*
X65595487Y-77253456D01*
X65595487Y-77487733D01*
X65594947Y-77495965D01*
X65591912Y-77519022D01*
X65590442Y-77530187D01*
X65595487Y-77568505D01*
X65595487Y-77568508D01*
X65598200Y-77589112D01*
X65610536Y-77682822D01*
X65610537Y-77682824D01*
X65644989Y-77765998D01*
X65669453Y-77825060D01*
X65684352Y-77844476D01*
X65700331Y-77865301D01*
X65713990Y-77883102D01*
X65739589Y-77949322D01*
X65739336Y-77972971D01*
X65736496Y-77999998D01*
X65736496Y-77999999D01*
X65756457Y-78189927D01*
X65783100Y-78271923D01*
X65815473Y-78371556D01*
X65815476Y-78371561D01*
X65910958Y-78536941D01*
X65910965Y-78536951D01*
X66038744Y-78678864D01*
X66084930Y-78712420D01*
X66193248Y-78791118D01*
X66367712Y-78868794D01*
X66554513Y-78908500D01*
X66615500Y-78908500D01*
X66683621Y-78928502D01*
X66730114Y-78982158D01*
X66741500Y-79034500D01*
X66741500Y-80006258D01*
X66740960Y-80014490D01*
X66737629Y-80039795D01*
X66736455Y-80048712D01*
X66739488Y-80071750D01*
X66741500Y-80087030D01*
X66756549Y-80201347D01*
X66798210Y-80301925D01*
X66815464Y-80343582D01*
X66815466Y-80343585D01*
X66830642Y-80363362D01*
X66875658Y-80422029D01*
X66909189Y-80465727D01*
X66936583Y-80486747D01*
X66942776Y-80492178D01*
X68073503Y-81622906D01*
X68411107Y-81960510D01*
X68445133Y-82022822D01*
X68440068Y-82093638D01*
X68437400Y-82100218D01*
X68362836Y-82270208D01*
X68362835Y-82270210D01*
X68307570Y-82488447D01*
X68307569Y-82488453D01*
X68307569Y-82488455D01*
X68288977Y-82712823D01*
X68298703Y-82830200D01*
X68307570Y-82937198D01*
X68362835Y-83155435D01*
X68362836Y-83155436D01*
X68362837Y-83155439D01*
X68399930Y-83240003D01*
X68453274Y-83361616D01*
X68576408Y-83550088D01*
X68576412Y-83550093D01*
X68728895Y-83715731D01*
X68748984Y-83731367D01*
X68906557Y-83854012D01*
X69104559Y-83961165D01*
X69104560Y-83961165D01*
X69104561Y-83961166D01*
X69216360Y-83999546D01*
X69317498Y-84034267D01*
X69539564Y-84071323D01*
X69539568Y-84071323D01*
X69764698Y-84071323D01*
X69764702Y-84071323D01*
X69986768Y-84034267D01*
X70199707Y-83961165D01*
X70397709Y-83854012D01*
X70575373Y-83715729D01*
X70727855Y-83550091D01*
X70850993Y-83361614D01*
X70914685Y-83216409D01*
X70960363Y-83162065D01*
X71028175Y-83141040D01*
X71052933Y-83143117D01*
X71091828Y-83150295D01*
X71152601Y-83146191D01*
X72248105Y-82953023D01*
X72318661Y-82960892D01*
X72359076Y-82988013D01*
X73971172Y-84600110D01*
X73976604Y-84606304D01*
X73997622Y-84633695D01*
X73997624Y-84633697D01*
X74028288Y-84657226D01*
X74119764Y-84727418D01*
X74178680Y-84751821D01*
X74262000Y-84786334D01*
X74376316Y-84801384D01*
X74376318Y-84801384D01*
X74414637Y-84806429D01*
X74414638Y-84806429D01*
X74448859Y-84801924D01*
X74457091Y-84801384D01*
X76628591Y-84801384D01*
X76696712Y-84821386D01*
X76743205Y-84875042D01*
X76753309Y-84945316D01*
X76723815Y-85009896D01*
X76717701Y-85016463D01*
X75523104Y-86211060D01*
X75199262Y-86534902D01*
X75193061Y-86540340D01*
X75165666Y-86561363D01*
X75106101Y-86638989D01*
X75071803Y-86683687D01*
X75071154Y-86685413D01*
X75013028Y-86825740D01*
X74997979Y-86940055D01*
X74992934Y-86978375D01*
X74992934Y-86978376D01*
X74997439Y-87012597D01*
X74997979Y-87020829D01*
X74997979Y-95320262D01*
X74997439Y-95328494D01*
X74993062Y-95361740D01*
X74992934Y-95362716D01*
X74997979Y-95401034D01*
X74997979Y-95401037D01*
X75003231Y-95440931D01*
X75013028Y-95515351D01*
X75037140Y-95573561D01*
X75071944Y-95657588D01*
X75071944Y-95657589D01*
X75106101Y-95702102D01*
X75165665Y-95779729D01*
X75193062Y-95800751D01*
X75199255Y-95806182D01*
X78455622Y-99062549D01*
X78489647Y-99124859D01*
X78492526Y-99151642D01*
X78492526Y-100669881D01*
X78472524Y-100738002D01*
X78418868Y-100784495D01*
X78388406Y-100793967D01*
X77984974Y-100865103D01*
X77928969Y-100862308D01*
X77919400Y-100859615D01*
X77910432Y-100859168D01*
X77882593Y-100854616D01*
X77873952Y-100852185D01*
X77873951Y-100852185D01*
X77851132Y-100856209D01*
X74531032Y-101441631D01*
X74531024Y-101441633D01*
X74525607Y-101442589D01*
X74525606Y-101442589D01*
X74435471Y-101458483D01*
X74435469Y-101458484D01*
X74421491Y-101460949D01*
X74421178Y-101459174D01*
X74367970Y-101465228D01*
X74304287Y-101433843D01*
X74267682Y-101373011D01*
X74264262Y-101327928D01*
X74273504Y-101240000D01*
X74253542Y-101050072D01*
X74194527Y-100868444D01*
X74099040Y-100703056D01*
X74099038Y-100703054D01*
X74099034Y-100703048D01*
X73971255Y-100561135D01*
X73816752Y-100448882D01*
X73642288Y-100371206D01*
X73455487Y-100331500D01*
X73264513Y-100331500D01*
X73077711Y-100371206D01*
X72903247Y-100448882D01*
X72748744Y-100561135D01*
X72620965Y-100703048D01*
X72620958Y-100703058D01*
X72525476Y-100868438D01*
X72525473Y-100868444D01*
X72510999Y-100912986D01*
X72466457Y-101050072D01*
X72446496Y-101240000D01*
X72466457Y-101429927D01*
X72488701Y-101498385D01*
X72525473Y-101611556D01*
X72525473Y-101611557D01*
X72525474Y-101611558D01*
X72548792Y-101651946D01*
X72565529Y-101720941D01*
X72542308Y-101788033D01*
X72486501Y-101831920D01*
X72461552Y-101839031D01*
X72173137Y-101889887D01*
X72114624Y-101906816D01*
X71988576Y-101980930D01*
X71888514Y-102087554D01*
X71822544Y-102218050D01*
X71811902Y-102275726D01*
X71796012Y-102361843D01*
X71800116Y-102422617D01*
X71800117Y-102422622D01*
X71954494Y-103298138D01*
X71959400Y-103325957D01*
X71966996Y-103352214D01*
X71976327Y-103384468D01*
X71976328Y-103384469D01*
X72050442Y-103510518D01*
X72050443Y-103510519D01*
X72050444Y-103510520D01*
X72067098Y-103526150D01*
X72103083Y-103587352D01*
X72100267Y-103658292D01*
X72093324Y-103674869D01*
X72083017Y-103695258D01*
X72083016Y-103695260D01*
X72056484Y-103839055D01*
X72060588Y-103899829D01*
X72060589Y-103899834D01*
X72219459Y-104800830D01*
X72219872Y-104803169D01*
X72222627Y-104812691D01*
X72236799Y-104861680D01*
X72310915Y-104987732D01*
X72417535Y-105087790D01*
X72417538Y-105087792D01*
X72548033Y-105153762D01*
X72691828Y-105180295D01*
X72752601Y-105176191D01*
X74915023Y-104794896D01*
X74971028Y-104797691D01*
X74980596Y-104800382D01*
X74980599Y-104800384D01*
X74989558Y-104800830D01*
X75017412Y-104805384D01*
X75026048Y-104807815D01*
X75116183Y-104791922D01*
X75116183Y-104791921D01*
X78354429Y-104220930D01*
X78374392Y-104217410D01*
X78374394Y-104217411D01*
X78464529Y-104201518D01*
X78471816Y-104196278D01*
X78496427Y-104182475D01*
X78504696Y-104178990D01*
X78504699Y-104178986D01*
X78513699Y-104172517D01*
X78565372Y-104150734D01*
X79246965Y-104030550D01*
X79122726Y-103325957D01*
X79116108Y-103288425D01*
X79631945Y-103288425D01*
X79747248Y-103942337D01*
X80726724Y-103769629D01*
X80726739Y-103769626D01*
X80785178Y-103752719D01*
X80911109Y-103678674D01*
X81011070Y-103572158D01*
X81011073Y-103572154D01*
X81076975Y-103441793D01*
X81076978Y-103441786D01*
X81103482Y-103298142D01*
X81103482Y-103298138D01*
X81099381Y-103237417D01*
X81063855Y-103035940D01*
X79631945Y-103288425D01*
X79116108Y-103288425D01*
X79065329Y-103000442D01*
X79073198Y-102929882D01*
X79117965Y-102874779D01*
X79167535Y-102854476D01*
X80975642Y-102535657D01*
X80940115Y-102334176D01*
X80940113Y-102334166D01*
X80923206Y-102275726D01*
X80849162Y-102149797D01*
X80849161Y-102149796D01*
X80832663Y-102134313D01*
X80796679Y-102073111D01*
X80799495Y-102002171D01*
X80806435Y-101985604D01*
X80816983Y-101964740D01*
X80843516Y-101820945D01*
X80839412Y-101760171D01*
X80680128Y-100856831D01*
X80663200Y-100798319D01*
X80589086Y-100672270D01*
X80589085Y-100672269D01*
X80589084Y-100672267D01*
X80482464Y-100572209D01*
X80482461Y-100572207D01*
X80409783Y-100535466D01*
X80351967Y-100506238D01*
X80351965Y-100506237D01*
X80208175Y-100479705D01*
X80208174Y-100479705D01*
X80208172Y-100479705D01*
X80147399Y-100483809D01*
X80147394Y-100483809D01*
X80147392Y-100483810D01*
X79809805Y-100543335D01*
X79739246Y-100535466D01*
X79684143Y-100490698D01*
X79661989Y-100423246D01*
X79661926Y-100419249D01*
X79661926Y-98899723D01*
X79662466Y-98891491D01*
X79666972Y-98857263D01*
X79646876Y-98704627D01*
X79587960Y-98562391D01*
X79587960Y-98562390D01*
X79549576Y-98512367D01*
X79516802Y-98469654D01*
X79516797Y-98469648D01*
X79494240Y-98440251D01*
X79494239Y-98440250D01*
X79466845Y-98419230D01*
X79460655Y-98413801D01*
X76204284Y-95157430D01*
X76170258Y-95095118D01*
X76167379Y-95068335D01*
X76167379Y-87272756D01*
X76187381Y-87204635D01*
X76204284Y-87183661D01*
X77052199Y-86335746D01*
X77981798Y-85406146D01*
X78044108Y-85372123D01*
X78114923Y-85377187D01*
X78171759Y-85419734D01*
X78195106Y-85474109D01*
X78632289Y-88043596D01*
X78632775Y-88049970D01*
X78641320Y-88096777D01*
X78641320Y-88096778D01*
X78641571Y-88098153D01*
X78644737Y-88116756D01*
X78644840Y-88117360D01*
X78645965Y-88122145D01*
X78660300Y-88200421D01*
X78660302Y-88200426D01*
X78731234Y-88398876D01*
X78833460Y-88583167D01*
X78964266Y-88748404D01*
X79120176Y-88890198D01*
X79120177Y-88890199D01*
X79123981Y-88893658D01*
X79123040Y-88894692D01*
X79161010Y-88946910D01*
X79165092Y-89017789D01*
X79130205Y-89079623D01*
X79067427Y-89112780D01*
X79042355Y-89115300D01*
X79002139Y-89115300D01*
X78934018Y-89095298D01*
X78908502Y-89073610D01*
X78861252Y-89021133D01*
X78706752Y-88908882D01*
X78532288Y-88831206D01*
X78345487Y-88791500D01*
X78154513Y-88791500D01*
X77967711Y-88831206D01*
X77793247Y-88908882D01*
X77638744Y-89021135D01*
X77510965Y-89163048D01*
X77510958Y-89163058D01*
X77415476Y-89328438D01*
X77415473Y-89328445D01*
X77356457Y-89510072D01*
X77336496Y-89699999D01*
X77356457Y-89889927D01*
X77383180Y-89972168D01*
X77415473Y-90071556D01*
X77415476Y-90071561D01*
X77510958Y-90236941D01*
X77510965Y-90236951D01*
X77638744Y-90378864D01*
X77638747Y-90378866D01*
X77793248Y-90491118D01*
X77967712Y-90568794D01*
X78154513Y-90608500D01*
X78345487Y-90608500D01*
X78532288Y-90568794D01*
X78706752Y-90491118D01*
X78861253Y-90378866D01*
X78908502Y-90326389D01*
X78968948Y-90289150D01*
X79002139Y-90284700D01*
X79875644Y-90284700D01*
X79943765Y-90304702D01*
X79990258Y-90358358D01*
X80000362Y-90428632D01*
X79970868Y-90493212D01*
X79911142Y-90531596D01*
X79897524Y-90534786D01*
X79243018Y-90650193D01*
X79184505Y-90667122D01*
X79058457Y-90741236D01*
X78958395Y-90847860D01*
X78892425Y-90978356D01*
X78865892Y-91122149D01*
X78865893Y-91122149D01*
X78869997Y-91182923D01*
X79115526Y-92575387D01*
X79321009Y-93740740D01*
X79337938Y-93799253D01*
X79412053Y-93925303D01*
X79518673Y-94025361D01*
X79518676Y-94025363D01*
X79649171Y-94091333D01*
X79792966Y-94117866D01*
X79853739Y-94113762D01*
X81602342Y-93805435D01*
X81672898Y-93813304D01*
X81713314Y-93840426D01*
X82564870Y-94691982D01*
X82598896Y-94754294D01*
X82601775Y-94781077D01*
X82601775Y-95555791D01*
X82608284Y-95616338D01*
X82608286Y-95616346D01*
X82659385Y-95753344D01*
X82659387Y-95753349D01*
X82747013Y-95870403D01*
X82864067Y-95958029D01*
X82864069Y-95958030D01*
X82864071Y-95958031D01*
X82923150Y-95980066D01*
X83001070Y-96009130D01*
X83001078Y-96009132D01*
X83061625Y-96015641D01*
X83061630Y-96015641D01*
X83061637Y-96015642D01*
X83061643Y-96015642D01*
X84682907Y-96015642D01*
X84682913Y-96015642D01*
X84682920Y-96015641D01*
X84682924Y-96015641D01*
X84743471Y-96009132D01*
X84743474Y-96009131D01*
X84743476Y-96009131D01*
X84880479Y-95958031D01*
X84997536Y-95870403D01*
X84997535Y-95870403D01*
X85085162Y-95753349D01*
X85085162Y-95753348D01*
X85085164Y-95753346D01*
X85131851Y-95628174D01*
X85136263Y-95616346D01*
X85136265Y-95616338D01*
X85142774Y-95555791D01*
X85142775Y-95555774D01*
X85142775Y-93934509D01*
X85142774Y-93934492D01*
X85136265Y-93873945D01*
X85136263Y-93873937D01*
X85104268Y-93788157D01*
X85085164Y-93736938D01*
X85085163Y-93736936D01*
X85085162Y-93736934D01*
X84997536Y-93619880D01*
X84880482Y-93532254D01*
X84880477Y-93532252D01*
X84743479Y-93481153D01*
X84743471Y-93481151D01*
X84682924Y-93474642D01*
X84682913Y-93474642D01*
X83061637Y-93474642D01*
X83060479Y-93474704D01*
X83060217Y-93474642D01*
X83058263Y-93474642D01*
X83058263Y-93474180D01*
X82991387Y-93458372D01*
X82964648Y-93437979D01*
X82864635Y-93337966D01*
X82830609Y-93275654D01*
X82829822Y-93226011D01*
X82837923Y-93182111D01*
X82833819Y-93121337D01*
X82763616Y-92723200D01*
X82771485Y-92652645D01*
X82816252Y-92597541D01*
X82883704Y-92575387D01*
X82931735Y-92583269D01*
X83001070Y-92609130D01*
X83001078Y-92609132D01*
X83061625Y-92615641D01*
X83061630Y-92615641D01*
X83061637Y-92615642D01*
X83061643Y-92615642D01*
X84682907Y-92615642D01*
X84682913Y-92615642D01*
X84682920Y-92615641D01*
X84682924Y-92615641D01*
X84743471Y-92609132D01*
X84743474Y-92609131D01*
X84743476Y-92609131D01*
X84880479Y-92558031D01*
X84997536Y-92470403D01*
X85085164Y-92353346D01*
X85136264Y-92216343D01*
X85142775Y-92155780D01*
X85142775Y-90534504D01*
X85142774Y-90534492D01*
X85136265Y-90473945D01*
X85136263Y-90473937D01*
X85085164Y-90336939D01*
X85085162Y-90336934D01*
X84997536Y-90219880D01*
X84880482Y-90132254D01*
X84880477Y-90132252D01*
X84743479Y-90081153D01*
X84743471Y-90081151D01*
X84682924Y-90074642D01*
X84682913Y-90074642D01*
X83480855Y-90074642D01*
X83412734Y-90054640D01*
X83391760Y-90037737D01*
X83054022Y-89699999D01*
X82670594Y-89316571D01*
X82665167Y-89310383D01*
X82652938Y-89294445D01*
X82644145Y-89282985D01*
X82566519Y-89223422D01*
X82522005Y-89189265D01*
X82480345Y-89172010D01*
X82458709Y-89163048D01*
X82379770Y-89130350D01*
X82379769Y-89130349D01*
X82292050Y-89118801D01*
X82265454Y-89115300D01*
X82265452Y-89115300D01*
X82227133Y-89110255D01*
X82227132Y-89110255D01*
X82192911Y-89114760D01*
X82184679Y-89115300D01*
X82023803Y-89115300D01*
X81955682Y-89095298D01*
X81909189Y-89041642D01*
X81899085Y-88971368D01*
X81928579Y-88906788D01*
X81988305Y-88868404D01*
X82006094Y-88864550D01*
X85497693Y-88368977D01*
X85524902Y-88368087D01*
X85703473Y-88381598D01*
X85716439Y-88382579D01*
X85735232Y-88385439D01*
X85935488Y-88431593D01*
X85953628Y-88437245D01*
X86144674Y-88513004D01*
X86161761Y-88521323D01*
X86339227Y-88624956D01*
X86354871Y-88635752D01*
X86514718Y-88764893D01*
X86528562Y-88777921D01*
X86667176Y-88929656D01*
X86678901Y-88944617D01*
X86736000Y-89030038D01*
X86791309Y-89112780D01*
X86793101Y-89115460D01*
X86802443Y-89132016D01*
X86889646Y-89318105D01*
X86896391Y-89335876D01*
X86954609Y-89532969D01*
X86958603Y-89551554D01*
X86986507Y-89755154D01*
X86987660Y-89774128D01*
X86984729Y-89972168D01*
X86984340Y-89978287D01*
X86983626Y-89984627D01*
X86983625Y-89995316D01*
X86983368Y-90000988D01*
X86980846Y-90028855D01*
X86982159Y-90041197D01*
X86981238Y-90041294D01*
X86983625Y-90056960D01*
X86983625Y-93257690D01*
X86983580Y-93258489D01*
X86983625Y-93283863D01*
X86983625Y-93309358D01*
X86983670Y-93310162D01*
X86995402Y-100031539D01*
X86909770Y-103658511D01*
X86907045Y-103674935D01*
X86907257Y-103674959D01*
X86905907Y-103687296D01*
X86908109Y-103712444D01*
X86908331Y-103719425D01*
X86908144Y-103727372D01*
X86908911Y-103736014D01*
X86909150Y-103742539D01*
X86907352Y-103861298D01*
X86904324Y-103886910D01*
X86877825Y-104005306D01*
X86869646Y-104029764D01*
X86819595Y-104140287D01*
X86806608Y-104162567D01*
X86794630Y-104178988D01*
X86735102Y-104260586D01*
X86717850Y-104279755D01*
X86627886Y-104361160D01*
X86607092Y-104376416D01*
X86502436Y-104437799D01*
X86478972Y-104448501D01*
X86364014Y-104487289D01*
X86338862Y-104492990D01*
X86209703Y-104508612D01*
X86202587Y-104509067D01*
X83067486Y-104531722D01*
X83067444Y-104531722D01*
X83045733Y-104531686D01*
X83044940Y-104531782D01*
X83044106Y-104531874D01*
X83022941Y-104536865D01*
X68824678Y-107752362D01*
X68824647Y-107752366D01*
X68776923Y-107763177D01*
X68770670Y-107764265D01*
X68667130Y-107776949D01*
X68626671Y-107781906D01*
X68601302Y-107782440D01*
X68466235Y-107771634D01*
X68441273Y-107767073D01*
X68311118Y-107729426D01*
X68287575Y-107719956D01*
X68167602Y-107656992D01*
X68146435Y-107642998D01*
X68041508Y-107557271D01*
X68023578Y-107539324D01*
X67937946Y-107434299D01*
X67923980Y-107413128D01*
X67861135Y-107293089D01*
X67851689Y-107269539D01*
X67837728Y-107221092D01*
X67811462Y-107129945D01*
X67810020Y-107123788D01*
X67803492Y-107087852D01*
X67803491Y-107087851D01*
X67801191Y-107075185D01*
X67801180Y-107075148D01*
X67291431Y-104270175D01*
X67291430Y-104270173D01*
X66361830Y-99154913D01*
X66369330Y-99084315D01*
X66413808Y-99028977D01*
X66481143Y-99006471D01*
X66508664Y-99008477D01*
X66552850Y-99016629D01*
X66594445Y-99024305D01*
X66655218Y-99020201D01*
X69262276Y-98560506D01*
X69320789Y-98543577D01*
X69446837Y-98469463D01*
X69546899Y-98362840D01*
X69612869Y-98232345D01*
X69639402Y-98088550D01*
X69635298Y-98027776D01*
X69184286Y-95469959D01*
X69167357Y-95411446D01*
X69093243Y-95285398D01*
X69093242Y-95285397D01*
X69093241Y-95285395D01*
X69063371Y-95257364D01*
X69027385Y-95196163D01*
X69030200Y-95125222D01*
X69060499Y-95076390D01*
X69068555Y-95068335D01*
X69331486Y-94805404D01*
X69393799Y-94771379D01*
X69420582Y-94768500D01*
X69545487Y-94768500D01*
X69732288Y-94728794D01*
X69906752Y-94651118D01*
X70061253Y-94538866D01*
X70189040Y-94396944D01*
X70284527Y-94231556D01*
X70343542Y-94049928D01*
X70363504Y-93860000D01*
X70343542Y-93670072D01*
X70284527Y-93488444D01*
X70189040Y-93323056D01*
X70189038Y-93323054D01*
X70189034Y-93323048D01*
X70061255Y-93181135D01*
X69906752Y-93068882D01*
X69732288Y-92991206D01*
X69545487Y-92951500D01*
X69354513Y-92951500D01*
X69167711Y-92991206D01*
X68993247Y-93068882D01*
X68838744Y-93181135D01*
X68710965Y-93323048D01*
X68710958Y-93323058D01*
X68615476Y-93488438D01*
X68615473Y-93488445D01*
X68556457Y-93670072D01*
X68536496Y-93860001D01*
X68536496Y-93860002D01*
X68538451Y-93878609D01*
X68525677Y-93948447D01*
X68502236Y-93980871D01*
X67269970Y-95213139D01*
X67263769Y-95218577D01*
X67236372Y-95239601D01*
X67178675Y-95314795D01*
X67171361Y-95324326D01*
X67114020Y-95366190D01*
X67093283Y-95371702D01*
X66044497Y-95556632D01*
X65985984Y-95573561D01*
X65985980Y-95573563D01*
X65893101Y-95628174D01*
X65824241Y-95645459D01*
X65756967Y-95622771D01*
X65712639Y-95567314D01*
X65705268Y-95542087D01*
X65700410Y-95515353D01*
X65391383Y-93814883D01*
X65390646Y-93809250D01*
X65386526Y-93788156D01*
X65382676Y-93766973D01*
X65381303Y-93761419D01*
X65336542Y-93532253D01*
X65181779Y-92739905D01*
X65180892Y-92733754D01*
X65179899Y-92723204D01*
X65167542Y-92591892D01*
X65167673Y-92566974D01*
X65181524Y-92434611D01*
X65186552Y-92410218D01*
X65226187Y-92283150D01*
X65235914Y-92260234D01*
X65299772Y-92143466D01*
X65313830Y-92122896D01*
X65399419Y-92020979D01*
X65417248Y-92003578D01*
X65521227Y-91920493D01*
X65542123Y-91906949D01*
X65660413Y-91845953D01*
X65683567Y-91836784D01*
X65820396Y-91797736D01*
X65826460Y-91796326D01*
X65826909Y-91796245D01*
X72083339Y-90664878D01*
X72083986Y-90664826D01*
X72095831Y-90662668D01*
X72095832Y-90662669D01*
X72134882Y-90655558D01*
X72157062Y-90651548D01*
X72157063Y-90651547D01*
X72159383Y-90651128D01*
X72161442Y-90650632D01*
X72238701Y-90636485D01*
X72437143Y-90565560D01*
X72621428Y-90463343D01*
X72786661Y-90332549D01*
X72928453Y-90176651D01*
X73043039Y-89999791D01*
X73127373Y-89806667D01*
X73166537Y-89652368D01*
X73179216Y-89602416D01*
X73179217Y-89602409D01*
X73197193Y-89392442D01*
X73180822Y-89182343D01*
X73164462Y-89115460D01*
X73158074Y-89089345D01*
X73157162Y-89084942D01*
X73146306Y-89021135D01*
X72702886Y-86414991D01*
X72702439Y-86409119D01*
X72694030Y-86362943D01*
X72690431Y-86341787D01*
X72689010Y-86335746D01*
X72680330Y-86288352D01*
X72674802Y-86258165D01*
X72603873Y-86059725D01*
X72603870Y-86059720D01*
X72603870Y-86059718D01*
X72501653Y-85875441D01*
X72447427Y-85806940D01*
X72370855Y-85710210D01*
X72370854Y-85710209D01*
X72370850Y-85710204D01*
X72262529Y-85611688D01*
X72214955Y-85568419D01*
X72214952Y-85568417D01*
X72214951Y-85568416D01*
X72069388Y-85474109D01*
X72038094Y-85453834D01*
X72038090Y-85453832D01*
X72038088Y-85453831D01*
X71844969Y-85369500D01*
X71640712Y-85317658D01*
X71598716Y-85314062D01*
X71430742Y-85299682D01*
X71430737Y-85299682D01*
X71430734Y-85299682D01*
X71220643Y-85316052D01*
X71220639Y-85316052D01*
X71133115Y-85337461D01*
X71126042Y-85338768D01*
X66930366Y-85869094D01*
X66912048Y-85870064D01*
X66909137Y-85870005D01*
X66876426Y-85875830D01*
X66873284Y-85876309D01*
X66866017Y-85877227D01*
X66863027Y-85877533D01*
X66726001Y-85888252D01*
X66701306Y-85887756D01*
X66570320Y-85872191D01*
X66546196Y-85866886D01*
X66420767Y-85826067D01*
X66398142Y-85816158D01*
X66283085Y-85751653D01*
X66262827Y-85737520D01*
X66162569Y-85651811D01*
X66145458Y-85633998D01*
X66063840Y-85530368D01*
X66050533Y-85509560D01*
X65990702Y-85392002D01*
X65981715Y-85369011D01*
X65943289Y-85232526D01*
X65941911Y-85226515D01*
X65935557Y-85190835D01*
X65935555Y-85190833D01*
X65933275Y-85178027D01*
X65933271Y-85178011D01*
X65869746Y-84821386D01*
X65250273Y-81343681D01*
X65169540Y-80890446D01*
X64481853Y-77029794D01*
X64489599Y-76959221D01*
X64534269Y-76904040D01*
X64601682Y-76881769D01*
X64670435Y-76899479D01*
G37*
G04 #@! TD.AperFunction*
G04 #@! TA.AperFunction,Conductor*
G36*
X79509116Y-80142705D02*
G01*
X79567712Y-80168794D01*
X79754513Y-80208500D01*
X79845733Y-80208500D01*
X79913854Y-80228502D01*
X79960347Y-80282158D01*
X79970451Y-80352432D01*
X79940957Y-80417012D01*
X79939369Y-80418810D01*
X79810965Y-80561416D01*
X79810958Y-80561426D01*
X79715473Y-80726809D01*
X79695544Y-80788143D01*
X79664807Y-80838300D01*
X79532388Y-80970718D01*
X79470076Y-81004743D01*
X79465173Y-81005708D01*
X78031945Y-81258425D01*
X78147248Y-81912337D01*
X78292167Y-81886784D01*
X78362726Y-81894653D01*
X78417830Y-81939420D01*
X78439984Y-82006872D01*
X78422153Y-82075593D01*
X78403143Y-82099965D01*
X76908031Y-83595079D01*
X76845718Y-83629104D01*
X76818935Y-83631984D01*
X74709019Y-83631984D01*
X74640898Y-83611982D01*
X74619924Y-83595080D01*
X74277824Y-83252980D01*
X73917355Y-82892512D01*
X73883331Y-82830200D01*
X73888395Y-82759385D01*
X73930942Y-82702549D01*
X73984568Y-82679331D01*
X76754429Y-82190930D01*
X76774392Y-82187410D01*
X76774394Y-82187411D01*
X76864529Y-82171518D01*
X76871816Y-82166278D01*
X76896427Y-82152475D01*
X76904696Y-82148990D01*
X76904699Y-82148986D01*
X76913699Y-82142517D01*
X76965372Y-82120734D01*
X77646965Y-82000550D01*
X77531141Y-81343681D01*
X77465329Y-80970442D01*
X77473198Y-80899882D01*
X77517965Y-80844779D01*
X77567535Y-80824476D01*
X79375642Y-80505657D01*
X79340115Y-80304176D01*
X79340114Y-80304171D01*
X79336834Y-80292834D01*
X79337114Y-80221838D01*
X79375733Y-80162264D01*
X79440429Y-80133026D01*
X79509116Y-80142705D01*
G37*
G04 #@! TD.AperFunction*
G04 #@! TA.AperFunction,Conductor*
G36*
X82870669Y-79844702D02*
G01*
X82917162Y-79898358D01*
X82927266Y-79968632D01*
X82917935Y-80001312D01*
X82912155Y-80014490D01*
X82840705Y-80177380D01*
X82840702Y-80177387D01*
X82785437Y-80395624D01*
X82785436Y-80395630D01*
X82785436Y-80395632D01*
X82774831Y-80523617D01*
X82749271Y-80589853D01*
X82691959Y-80631756D01*
X82631000Y-80637881D01*
X82495689Y-80618060D01*
X82391609Y-80625643D01*
X81976505Y-80698838D01*
X82144337Y-81650654D01*
X82210670Y-82026850D01*
X82202801Y-82097410D01*
X82158033Y-82152513D01*
X82108464Y-82172816D01*
X80620419Y-82435198D01*
X80606414Y-82455200D01*
X80550957Y-82499529D01*
X80503200Y-82508930D01*
X79952151Y-82508930D01*
X79884030Y-82488928D01*
X79837537Y-82435272D01*
X79827433Y-82364998D01*
X79856927Y-82300418D01*
X79863055Y-82293835D01*
X80014373Y-82142517D01*
X80155022Y-82001866D01*
X80217335Y-81967842D01*
X80270313Y-81967715D01*
X80454513Y-82006868D01*
X80645487Y-82006868D01*
X80832288Y-81967162D01*
X81006752Y-81889486D01*
X81052730Y-81856080D01*
X81104910Y-81833931D01*
X81644053Y-81738866D01*
X81476222Y-80787051D01*
X81458994Y-80774988D01*
X81440889Y-80772969D01*
X81385786Y-80728201D01*
X81380451Y-80719753D01*
X81375635Y-80711412D01*
X81289040Y-80561424D01*
X81289038Y-80561422D01*
X81289034Y-80561416D01*
X81221161Y-80486036D01*
X81190444Y-80422029D01*
X81199208Y-80351575D01*
X81244670Y-80297044D01*
X81292915Y-80277640D01*
X82299003Y-80100241D01*
X82399463Y-80071751D01*
X82555535Y-79987599D01*
X82687991Y-79869722D01*
X82687994Y-79869717D01*
X82690471Y-79866935D01*
X82692651Y-79865574D01*
X82693473Y-79864843D01*
X82693597Y-79864983D01*
X82750700Y-79829345D01*
X82784596Y-79824700D01*
X82802548Y-79824700D01*
X82870669Y-79844702D01*
G37*
G04 #@! TD.AperFunction*
G04 #@! TA.AperFunction,Conductor*
G36*
X87548972Y-79844702D02*
G01*
X87595465Y-79898358D01*
X87605569Y-79968632D01*
X87576075Y-80033212D01*
X87569946Y-80039795D01*
X85485975Y-82123764D01*
X85423663Y-82157790D01*
X85416411Y-82159146D01*
X83541667Y-82453301D01*
X83471269Y-82444100D01*
X83417021Y-82398300D01*
X83396146Y-82330441D01*
X83396779Y-82320920D01*
X83396707Y-82320918D01*
X83396957Y-82314041D01*
X83389374Y-82209960D01*
X83347699Y-81973613D01*
X83355568Y-81903054D01*
X83400335Y-81847950D01*
X83467787Y-81825796D01*
X83531753Y-81840919D01*
X83544745Y-81847950D01*
X83582422Y-81868340D01*
X83582428Y-81868343D01*
X83680835Y-81902126D01*
X83795365Y-81941444D01*
X84017431Y-81978500D01*
X84017435Y-81978500D01*
X84242565Y-81978500D01*
X84242569Y-81978500D01*
X84464635Y-81941444D01*
X84677574Y-81868342D01*
X84875576Y-81761189D01*
X85053240Y-81622906D01*
X85205722Y-81457268D01*
X85328860Y-81268791D01*
X85419296Y-81062616D01*
X85474564Y-80844368D01*
X85493156Y-80620000D01*
X85474564Y-80395632D01*
X85474562Y-80395624D01*
X85419297Y-80177387D01*
X85419294Y-80177380D01*
X85415527Y-80168793D01*
X85342064Y-80001313D01*
X85333018Y-79930896D01*
X85363479Y-79866766D01*
X85423775Y-79829284D01*
X85457452Y-79824700D01*
X87480851Y-79824700D01*
X87548972Y-79844702D01*
G37*
G04 #@! TD.AperFunction*
G04 #@! TA.AperFunction,Conductor*
G36*
X97246121Y-79716002D02*
G01*
X97292614Y-79769658D01*
X97304000Y-79822000D01*
X97304000Y-80874103D01*
X97330685Y-80922972D01*
X97325620Y-80993787D01*
X97296660Y-81038849D01*
X96947113Y-81388396D01*
X96884803Y-81422420D01*
X96858020Y-81425300D01*
X88302139Y-81425300D01*
X88234018Y-81405298D01*
X88208502Y-81383610D01*
X88192543Y-81365886D01*
X88161253Y-81331134D01*
X88148047Y-81321539D01*
X88104693Y-81265316D01*
X88098618Y-81194580D01*
X88131750Y-81131789D01*
X88133013Y-81130507D01*
X88382544Y-80880977D01*
X88691916Y-80571604D01*
X88754229Y-80537579D01*
X88781012Y-80534700D01*
X89685308Y-80534700D01*
X89753429Y-80554702D01*
X89795898Y-80600320D01*
X89799111Y-80606204D01*
X89886738Y-80723261D01*
X90003792Y-80810887D01*
X90003794Y-80810888D01*
X90003796Y-80810889D01*
X90062875Y-80832924D01*
X90140795Y-80861988D01*
X90140803Y-80861990D01*
X90201350Y-80868499D01*
X90201355Y-80868499D01*
X90201362Y-80868500D01*
X92397145Y-80868500D01*
X92451813Y-80880977D01*
X92460767Y-80885288D01*
X92460769Y-80885290D01*
X92469521Y-80887287D01*
X92496149Y-80896605D01*
X92504237Y-80900500D01*
X95995762Y-80900500D01*
X95995763Y-80900500D01*
X96003850Y-80896605D01*
X96030482Y-80887286D01*
X96039231Y-80885290D01*
X96039231Y-80885289D01*
X96039233Y-80885289D01*
X96049224Y-80880478D01*
X96103893Y-80868000D01*
X96796000Y-80868000D01*
X96796000Y-79822000D01*
X96816002Y-79753879D01*
X96869658Y-79707386D01*
X96922000Y-79696000D01*
X97178000Y-79696000D01*
X97246121Y-79716002D01*
G37*
G04 #@! TD.AperFunction*
G04 #@! TA.AperFunction,Conductor*
G36*
X100518991Y-79064502D02*
G01*
X100565484Y-79118158D01*
X100576870Y-79170500D01*
X100576870Y-79388048D01*
X100556868Y-79456169D01*
X100539965Y-79477143D01*
X100150512Y-79866596D01*
X100088202Y-79900620D01*
X100061419Y-79903500D01*
X99320700Y-79903500D01*
X99252579Y-79883498D01*
X99206086Y-79829842D01*
X99194700Y-79777500D01*
X99194700Y-79262452D01*
X99195240Y-79254219D01*
X99196332Y-79245921D01*
X99199745Y-79220000D01*
X99195393Y-79186945D01*
X99206332Y-79116799D01*
X99253459Y-79063700D01*
X99320315Y-79044500D01*
X100450870Y-79044500D01*
X100518991Y-79064502D01*
G37*
G04 #@! TD.AperFunction*
G04 #@! TA.AperFunction,Conductor*
G36*
X78472348Y-74249800D02*
G01*
X78518841Y-74303456D01*
X78528313Y-74333918D01*
X78538305Y-74390588D01*
X78538306Y-74390590D01*
X78566796Y-74491050D01*
X78610103Y-74571368D01*
X78647993Y-74641642D01*
X78650948Y-74647121D01*
X78768825Y-74779577D01*
X78914071Y-74881280D01*
X79064482Y-74941035D01*
X79120404Y-74984774D01*
X79143802Y-75051804D01*
X79127246Y-75120844D01*
X79107056Y-75147227D01*
X76125891Y-78128395D01*
X76063579Y-78162420D01*
X76036796Y-78165300D01*
X73720644Y-78165300D01*
X73712412Y-78164760D01*
X73678192Y-78160255D01*
X73678191Y-78160255D01*
X73639872Y-78165300D01*
X73639870Y-78165300D01*
X73616045Y-78168436D01*
X73525554Y-78180349D01*
X73525553Y-78180350D01*
X73443008Y-78214542D01*
X73383321Y-78239263D01*
X73340759Y-78271923D01*
X73261177Y-78332987D01*
X73240161Y-78360374D01*
X73234724Y-78366574D01*
X72922906Y-78678395D01*
X72860594Y-78712420D01*
X72833810Y-78715300D01*
X71009075Y-78715300D01*
X70940954Y-78695298D01*
X70919980Y-78678396D01*
X70219908Y-77978325D01*
X70185883Y-77916012D01*
X70184917Y-77911109D01*
X70183046Y-77900500D01*
X70049405Y-77142579D01*
X70057274Y-77072020D01*
X70102042Y-77016917D01*
X70169493Y-76994763D01*
X70173491Y-76994700D01*
X70873747Y-76994700D01*
X70881979Y-76995240D01*
X70916199Y-76999745D01*
X70916200Y-76999745D01*
X70954519Y-76994700D01*
X70954521Y-76994700D01*
X71068837Y-76979650D01*
X71155302Y-76943835D01*
X71175476Y-76935479D01*
X71211071Y-76920735D01*
X71211071Y-76920734D01*
X71211073Y-76920734D01*
X71268405Y-76876741D01*
X71333213Y-76827013D01*
X71354236Y-76799613D01*
X71359656Y-76793432D01*
X73886386Y-74266703D01*
X73948699Y-74232677D01*
X73975482Y-74229798D01*
X78404227Y-74229798D01*
X78472348Y-74249800D01*
G37*
G04 #@! TD.AperFunction*
G04 #@! TA.AperFunction,Conductor*
G36*
X81433712Y-73675964D02*
G01*
X81458084Y-73694975D01*
X82794078Y-75030969D01*
X82828104Y-75093281D01*
X82827127Y-75150995D01*
X82785437Y-75315624D01*
X82770165Y-75499921D01*
X82744605Y-75566157D01*
X82687293Y-75608060D01*
X82616425Y-75612326D01*
X82555500Y-75578610D01*
X82292514Y-75315624D01*
X81893461Y-74916571D01*
X81888034Y-74910383D01*
X81867013Y-74882987D01*
X81773250Y-74811041D01*
X81773249Y-74811041D01*
X81744875Y-74789267D01*
X81744865Y-74789261D01*
X81695000Y-74768608D01*
X81602637Y-74730350D01*
X81602636Y-74730349D01*
X81514917Y-74718801D01*
X81488321Y-74715300D01*
X81488319Y-74715300D01*
X81450000Y-74710255D01*
X81449999Y-74710255D01*
X81415778Y-74714760D01*
X81407546Y-74715300D01*
X81166865Y-74715300D01*
X81098744Y-74695298D01*
X81052251Y-74641642D01*
X81042147Y-74571368D01*
X81071641Y-74506788D01*
X81073160Y-74505247D01*
X81073112Y-74505204D01*
X81077984Y-74499727D01*
X81077991Y-74499722D01*
X81179693Y-74354476D01*
X81245158Y-74189692D01*
X81270856Y-74014251D01*
X81263269Y-73910105D01*
X81244903Y-73805948D01*
X81252772Y-73735391D01*
X81297539Y-73680287D01*
X81364991Y-73658133D01*
X81433712Y-73675964D01*
G37*
G04 #@! TD.AperFunction*
G04 #@! TA.AperFunction,Conductor*
G36*
X80763366Y-66605919D02*
G01*
X80803376Y-66664568D01*
X80809500Y-66703373D01*
X80809500Y-67797417D01*
X80789498Y-67865538D01*
X80772595Y-67886513D01*
X80326944Y-68332163D01*
X80264632Y-68366188D01*
X80259729Y-68367153D01*
X77769818Y-68806193D01*
X77711305Y-68823122D01*
X77585257Y-68897236D01*
X77485195Y-69003860D01*
X77419225Y-69134356D01*
X77404221Y-69215671D01*
X77392693Y-69278149D01*
X77396797Y-69338923D01*
X77750952Y-71347438D01*
X77754476Y-71367420D01*
X77746607Y-71437979D01*
X77701840Y-71493083D01*
X77634388Y-71515237D01*
X77630390Y-71515300D01*
X77492462Y-71515300D01*
X77484230Y-71514760D01*
X77450002Y-71510254D01*
X77450001Y-71510254D01*
X77297365Y-71530349D01*
X77297362Y-71530350D01*
X77155132Y-71589263D01*
X77155130Y-71589264D01*
X77110614Y-71623422D01*
X77032988Y-71682987D01*
X77011968Y-71710378D01*
X77006530Y-71716578D01*
X76444716Y-72278395D01*
X76382403Y-72312420D01*
X76355620Y-72315300D01*
X68537217Y-72315300D01*
X68528985Y-72314760D01*
X68494757Y-72310254D01*
X68494756Y-72310254D01*
X68342120Y-72330349D01*
X68199879Y-72389267D01*
X68181201Y-72403600D01*
X68174275Y-72408916D01*
X68137240Y-72437333D01*
X68077744Y-72482985D01*
X68056720Y-72510382D01*
X68051282Y-72516583D01*
X67353415Y-73214449D01*
X67291103Y-73248475D01*
X67246997Y-73249176D01*
X67246991Y-73249286D01*
X67245497Y-73249199D01*
X67241466Y-73249264D01*
X67239129Y-73248833D01*
X67178356Y-73252937D01*
X67178350Y-73252937D01*
X67178350Y-73252938D01*
X64571297Y-73712632D01*
X64512784Y-73729561D01*
X64386736Y-73803675D01*
X64286674Y-73910299D01*
X64220704Y-74040795D01*
X64208769Y-74105476D01*
X64176738Y-74168836D01*
X64115536Y-74204821D01*
X64044595Y-74202005D01*
X63986439Y-74161283D01*
X63960815Y-74104710D01*
X63392282Y-70912990D01*
X63392282Y-70912966D01*
X63389189Y-70895605D01*
X63382736Y-70859391D01*
X63381953Y-70853266D01*
X63370927Y-70712461D01*
X63371421Y-70687764D01*
X63372913Y-70675203D01*
X63386980Y-70556757D01*
X63392280Y-70532649D01*
X63433099Y-70407196D01*
X63443002Y-70384581D01*
X63507511Y-70269502D01*
X63521634Y-70249257D01*
X63607355Y-70148973D01*
X63625158Y-70131870D01*
X63728799Y-70050237D01*
X63749598Y-70036935D01*
X63867170Y-69977092D01*
X63890162Y-69968105D01*
X64025546Y-69929986D01*
X64031784Y-69928567D01*
X79709343Y-67193813D01*
X79709366Y-67193813D01*
X79716436Y-67192579D01*
X79716558Y-67192592D01*
X79764058Y-67184277D01*
X79764059Y-67184278D01*
X79767415Y-67183690D01*
X79777536Y-67181919D01*
X79789933Y-67179757D01*
X79790056Y-67179728D01*
X79811088Y-67176046D01*
X79865329Y-67166554D01*
X80058928Y-67097284D01*
X80237931Y-66996104D01*
X80397123Y-66865962D01*
X80531869Y-66710647D01*
X80575672Y-66638187D01*
X80628030Y-66590240D01*
X80698000Y-66578210D01*
X80763366Y-66605919D01*
G37*
G04 #@! TD.AperFunction*
G04 #@! TA.AperFunction,Conductor*
G36*
X82713621Y-68696502D02*
G01*
X82760114Y-68750158D01*
X82771500Y-68802500D01*
X82771500Y-68818649D01*
X82778009Y-68879196D01*
X82778011Y-68879204D01*
X82829110Y-69016202D01*
X82829110Y-69016203D01*
X82829111Y-69016204D01*
X82855209Y-69051067D01*
X82880020Y-69117586D01*
X82864929Y-69186960D01*
X82843437Y-69215671D01*
X82560515Y-69498595D01*
X82498203Y-69532620D01*
X82471419Y-69535500D01*
X81269350Y-69535500D01*
X81208803Y-69542009D01*
X81208792Y-69542012D01*
X81205970Y-69543065D01*
X81203632Y-69543231D01*
X81201132Y-69543823D01*
X81201036Y-69543417D01*
X81135154Y-69548124D01*
X81072845Y-69514095D01*
X81038824Y-69451780D01*
X81037861Y-69446887D01*
X81023489Y-69365381D01*
X81031358Y-69294826D01*
X81058477Y-69254411D01*
X81599486Y-68713404D01*
X81661799Y-68679379D01*
X81688582Y-68676500D01*
X82645500Y-68676500D01*
X82713621Y-68696502D01*
G37*
G04 #@! TD.AperFunction*
G04 #@! TA.AperFunction,Conductor*
G36*
X78130176Y-59078203D02*
G01*
X78187012Y-59120750D01*
X78195262Y-59133257D01*
X78250960Y-59229729D01*
X78372937Y-59365198D01*
X78403653Y-59429204D01*
X78405300Y-59449507D01*
X78405300Y-59588210D01*
X78404760Y-59596442D01*
X78402872Y-59610784D01*
X78400255Y-59630664D01*
X78405300Y-59668982D01*
X78405300Y-59668985D01*
X78408133Y-59690504D01*
X78420349Y-59783299D01*
X78452523Y-59860974D01*
X78479263Y-59925533D01*
X78505746Y-59960046D01*
X78572987Y-60047677D01*
X78600383Y-60068699D01*
X78606576Y-60074130D01*
X78905494Y-60373048D01*
X79164194Y-60631748D01*
X79198220Y-60694060D01*
X79193155Y-60764875D01*
X79150608Y-60821711D01*
X79084088Y-60846522D01*
X79074912Y-60846843D01*
X78908290Y-60846595D01*
X78907749Y-60846595D01*
X78907748Y-60846595D01*
X78907743Y-60846595D01*
X78827779Y-60859210D01*
X78814451Y-60861313D01*
X77714982Y-61033308D01*
X76147911Y-61278452D01*
X76077517Y-61269219D01*
X76023290Y-61223393D01*
X76002447Y-61155525D01*
X76021604Y-61087162D01*
X76039338Y-61064875D01*
X77997051Y-59107162D01*
X78059361Y-59073138D01*
X78130176Y-59078203D01*
G37*
G04 #@! TD.AperFunction*
G04 #@! TA.AperFunction,Conductor*
G36*
X77072738Y-58050455D02*
G01*
X77110552Y-58110544D01*
X77109877Y-58181537D01*
X77078419Y-58233986D01*
X75053056Y-60259350D01*
X74990744Y-60293375D01*
X74963961Y-60296255D01*
X70667959Y-60296255D01*
X70599838Y-60276253D01*
X70553345Y-60222597D01*
X70543241Y-60152323D01*
X70572735Y-60087743D01*
X70632461Y-60049359D01*
X70646079Y-60046169D01*
X71087491Y-59968335D01*
X70972125Y-59314063D01*
X70956634Y-59226210D01*
X71472471Y-59226210D01*
X71587774Y-59880122D01*
X72567250Y-59707414D01*
X72567265Y-59707411D01*
X72625704Y-59690504D01*
X72751635Y-59616459D01*
X72851596Y-59509943D01*
X72851599Y-59509939D01*
X72917501Y-59379578D01*
X72917504Y-59379571D01*
X72944008Y-59235927D01*
X72944008Y-59235923D01*
X72939907Y-59175202D01*
X72904381Y-58973725D01*
X71472471Y-59226210D01*
X70956634Y-59226210D01*
X70905855Y-58938227D01*
X70913724Y-58867668D01*
X70958491Y-58812564D01*
X71008061Y-58792261D01*
X72816167Y-58473442D01*
X72789878Y-58324344D01*
X72797747Y-58253784D01*
X72842515Y-58198681D01*
X72909966Y-58176527D01*
X72913964Y-58176464D01*
X76181494Y-58176464D01*
X76197335Y-58178213D01*
X76197363Y-58177920D01*
X76205249Y-58178664D01*
X76205256Y-58178666D01*
X76275305Y-58176464D01*
X76305203Y-58176464D01*
X76312165Y-58175583D01*
X76318066Y-58175118D01*
X76365236Y-58173637D01*
X76384694Y-58167983D01*
X76404041Y-58163977D01*
X76424144Y-58161438D01*
X76468026Y-58144063D01*
X76473621Y-58142147D01*
X76502163Y-58133855D01*
X76518938Y-58128983D01*
X76518940Y-58128982D01*
X76536381Y-58118666D01*
X76554127Y-58109973D01*
X76572964Y-58102516D01*
X76575949Y-58100346D01*
X76578683Y-58099371D01*
X76579912Y-58098696D01*
X76580020Y-58098894D01*
X76642818Y-58076490D01*
X76650008Y-58076285D01*
X76736013Y-58076285D01*
X76922814Y-58036579D01*
X76938073Y-58029785D01*
X77008441Y-58020350D01*
X77072738Y-58050455D01*
G37*
G04 #@! TD.AperFunction*
G04 #@! TA.AperFunction,Conductor*
G36*
X103318007Y-54579698D02*
G01*
X103326366Y-54587338D01*
X106358565Y-57619537D01*
X106392591Y-57681849D01*
X106387526Y-57752664D01*
X106344979Y-57809500D01*
X106278459Y-57834311D01*
X106236859Y-57830339D01*
X105587530Y-57656352D01*
X105531046Y-57623740D01*
X103236430Y-55329124D01*
X103226465Y-55316686D01*
X103226238Y-55316875D01*
X103221187Y-55310769D01*
X103221186Y-55310767D01*
X103170107Y-55262801D01*
X103167683Y-55260377D01*
X103148963Y-55241656D01*
X103148958Y-55241651D01*
X103143411Y-55237348D01*
X103138903Y-55233497D01*
X103104511Y-55201202D01*
X103104505Y-55201198D01*
X103086749Y-55191436D01*
X103070233Y-55180587D01*
X103054227Y-55168171D01*
X103023475Y-55154863D01*
X103010926Y-55149433D01*
X103005594Y-55146821D01*
X102964247Y-55124090D01*
X102944622Y-55119051D01*
X102925922Y-55112649D01*
X102925797Y-55112595D01*
X102907331Y-55104604D01*
X102907328Y-55104603D01*
X102900059Y-55101458D01*
X102901114Y-55099019D01*
X102852134Y-55067740D01*
X102822456Y-55003244D01*
X102832359Y-54932941D01*
X102878698Y-54879153D01*
X102880928Y-54877743D01*
X102939177Y-54841815D01*
X103064556Y-54716436D01*
X103130031Y-54610284D01*
X103182816Y-54562808D01*
X103252891Y-54551405D01*
X103318007Y-54579698D01*
G37*
G04 #@! TD.AperFunction*
G04 #@! TA.AperFunction,Conductor*
G36*
X114266851Y-48462350D02*
G01*
X118657164Y-49688148D01*
X118663001Y-49690092D01*
X118794658Y-49741241D01*
X118816683Y-49752395D01*
X118856674Y-49777852D01*
X118927959Y-49823230D01*
X118947392Y-49838469D01*
X119042720Y-49929655D01*
X119058804Y-49948390D01*
X119129375Y-50049086D01*
X119134509Y-50056412D01*
X119146633Y-50077928D01*
X119199816Y-50198651D01*
X119207507Y-50222109D01*
X119236119Y-50350882D01*
X119239087Y-50375399D01*
X119242031Y-50507285D01*
X119240159Y-50531912D01*
X119215676Y-50671188D01*
X119214306Y-50677226D01*
X119094041Y-51107965D01*
X119056457Y-51168197D01*
X118992275Y-51198548D01*
X118921873Y-51189382D01*
X118897816Y-51175426D01*
X118778600Y-51087357D01*
X118778595Y-51087354D01*
X118778593Y-51087353D01*
X118762276Y-51080715D01*
X118722171Y-51064399D01*
X116319338Y-50375399D01*
X116177446Y-50334712D01*
X116177444Y-50334711D01*
X116177443Y-50334711D01*
X116117434Y-50324278D01*
X116117427Y-50324277D01*
X115971653Y-50335635D01*
X115971646Y-50335636D01*
X115928359Y-50352095D01*
X115857577Y-50357609D01*
X115795051Y-50323979D01*
X115794485Y-50323416D01*
X114218356Y-48747286D01*
X114208391Y-48734848D01*
X114208164Y-48735037D01*
X114203113Y-48728931D01*
X114203112Y-48728929D01*
X114152033Y-48680963D01*
X114143875Y-48672804D01*
X114109849Y-48610492D01*
X114114914Y-48539677D01*
X114157461Y-48482841D01*
X114223981Y-48458030D01*
X114266851Y-48462350D01*
G37*
G04 #@! TD.AperFunction*
G04 #@! TA.AperFunction,Conductor*
G36*
X95886316Y-44441761D02*
G01*
X95887698Y-44441792D01*
X95921183Y-44442553D01*
X95923980Y-44442680D01*
X95940678Y-44443819D01*
X95957362Y-44444958D01*
X95960188Y-44445215D01*
X95994815Y-44449162D01*
X95994815Y-44449160D01*
X95995030Y-44449185D01*
X95997736Y-44449556D01*
X95999645Y-44449818D01*
X96050520Y-44456790D01*
X96050547Y-44456790D01*
X103593927Y-45490104D01*
X103593954Y-45490108D01*
X103593954Y-45490109D01*
X103607944Y-45492351D01*
X103628395Y-45495629D01*
X103631199Y-45496144D01*
X103639089Y-45497777D01*
X103663955Y-45502927D01*
X103666673Y-45503554D01*
X103700499Y-45512174D01*
X103700499Y-45512173D01*
X103700571Y-45512192D01*
X113473364Y-48240805D01*
X113524524Y-48255089D01*
X113584756Y-48292673D01*
X113615107Y-48356855D01*
X113605941Y-48427257D01*
X113560167Y-48481528D01*
X113492319Y-48502436D01*
X113490640Y-48502447D01*
X102887494Y-48502447D01*
X102819373Y-48482445D01*
X102772880Y-48428789D01*
X102762776Y-48358515D01*
X102792270Y-48293935D01*
X102813433Y-48274511D01*
X102826287Y-48265172D01*
X102851779Y-48246651D01*
X102869843Y-48226589D01*
X102979560Y-48104736D01*
X102979561Y-48104734D01*
X102979566Y-48104729D01*
X103075053Y-47939341D01*
X103134068Y-47757713D01*
X103154030Y-47567785D01*
X103134068Y-47377857D01*
X103075053Y-47196229D01*
X102979566Y-47030841D01*
X102979564Y-47030839D01*
X102979560Y-47030833D01*
X102851781Y-46888920D01*
X102697278Y-46776667D01*
X102522814Y-46698991D01*
X102336013Y-46659285D01*
X102152716Y-46659285D01*
X102126544Y-46655559D01*
X102126499Y-46655844D01*
X102072069Y-46647222D01*
X102066255Y-46646018D01*
X102041698Y-46639713D01*
X102020556Y-46634285D01*
X102020555Y-46634285D01*
X102000302Y-46634285D01*
X101980592Y-46632734D01*
X101960583Y-46629565D01*
X101960582Y-46629565D01*
X101913609Y-46634005D01*
X101907676Y-46634285D01*
X100887026Y-46634285D01*
X100818905Y-46614283D01*
X100772412Y-46560627D01*
X100761026Y-46508285D01*
X100761026Y-46457152D01*
X100761025Y-46457135D01*
X100754516Y-46396588D01*
X100754514Y-46396580D01*
X100703415Y-46259582D01*
X100703413Y-46259577D01*
X100615787Y-46142523D01*
X100498733Y-46054897D01*
X100498728Y-46054895D01*
X100361730Y-46003796D01*
X100361722Y-46003794D01*
X100301175Y-45997285D01*
X100301164Y-45997285D01*
X98679888Y-45997285D01*
X98679876Y-45997285D01*
X98619329Y-46003794D01*
X98619326Y-46003795D01*
X98509601Y-46044721D01*
X98438786Y-46049785D01*
X98421538Y-46044721D01*
X98295727Y-45997796D01*
X98295725Y-45997795D01*
X98295723Y-45997795D01*
X98295722Y-45997794D01*
X98235175Y-45991285D01*
X98235164Y-45991285D01*
X97102121Y-45991285D01*
X97034000Y-45971283D01*
X97013026Y-45954380D01*
X96507170Y-45448524D01*
X96497205Y-45436086D01*
X96496978Y-45436275D01*
X96491927Y-45430169D01*
X96491926Y-45430167D01*
X96440846Y-45382200D01*
X96419703Y-45361056D01*
X96419698Y-45361051D01*
X96414151Y-45356748D01*
X96409643Y-45352897D01*
X96375251Y-45320602D01*
X96375245Y-45320598D01*
X96357489Y-45310836D01*
X96340973Y-45299987D01*
X96324967Y-45287571D01*
X96294215Y-45274263D01*
X96281666Y-45268833D01*
X96276334Y-45266221D01*
X96234987Y-45243490D01*
X96215362Y-45238451D01*
X96196662Y-45232049D01*
X96178071Y-45224004D01*
X96178069Y-45224003D01*
X96178068Y-45224003D01*
X96131468Y-45216622D01*
X96125655Y-45215418D01*
X96079956Y-45203685D01*
X96059702Y-45203685D01*
X96039992Y-45202134D01*
X96019983Y-45198965D01*
X96019982Y-45198965D01*
X95973009Y-45203405D01*
X95967076Y-45203685D01*
X79178170Y-45203685D01*
X79110049Y-45183683D01*
X79063556Y-45130027D01*
X79060124Y-45121742D01*
X79041415Y-45071581D01*
X79041413Y-45071579D01*
X79041413Y-45071577D01*
X78953787Y-44954523D01*
X78836733Y-44866897D01*
X78836728Y-44866895D01*
X78699730Y-44815796D01*
X78699722Y-44815794D01*
X78639175Y-44809285D01*
X78639164Y-44809285D01*
X78061577Y-44809285D01*
X77993456Y-44789283D01*
X77946963Y-44735627D01*
X77936859Y-44665353D01*
X77966353Y-44600773D01*
X78026079Y-44562389D01*
X78050486Y-44557774D01*
X78177125Y-44546583D01*
X79276552Y-44449429D01*
X79276600Y-44449429D01*
X79288510Y-44448375D01*
X79288512Y-44448376D01*
X79324226Y-44445217D01*
X79328240Y-44444862D01*
X79351655Y-44443138D01*
X79374031Y-44442148D01*
X79375116Y-44442101D01*
X79386720Y-44441930D01*
X79398325Y-44441760D01*
X79398596Y-44441760D01*
X79438478Y-44441760D01*
X95846436Y-44441760D01*
X95886316Y-44441761D01*
G37*
G04 #@! TD.AperFunction*
G04 #@! TA.AperFunction,Conductor*
G36*
X81600447Y-47421287D02*
G01*
X81625963Y-47442975D01*
X81629273Y-47446651D01*
X81726937Y-47517608D01*
X81770291Y-47573830D01*
X81776366Y-47644566D01*
X81743235Y-47707358D01*
X81688025Y-47740542D01*
X81680372Y-47742765D01*
X81661030Y-47746770D01*
X81640930Y-47749310D01*
X81640929Y-47749310D01*
X81597061Y-47766678D01*
X81591446Y-47768600D01*
X81546139Y-47781763D01*
X81546130Y-47781767D01*
X81528688Y-47792082D01*
X81510941Y-47800776D01*
X81492109Y-47808232D01*
X81492107Y-47808233D01*
X81453940Y-47835963D01*
X81448980Y-47839221D01*
X81408362Y-47863244D01*
X81408359Y-47863246D01*
X81394038Y-47877568D01*
X81379009Y-47890404D01*
X81362619Y-47902312D01*
X81332539Y-47938671D01*
X81328544Y-47943061D01*
X81064827Y-48206780D01*
X81002515Y-48240805D01*
X80975731Y-48243685D01*
X79404720Y-48243685D01*
X79336599Y-48223683D01*
X79290106Y-48170027D01*
X79280002Y-48099753D01*
X79309496Y-48035173D01*
X79315625Y-48028590D01*
X79906025Y-47438190D01*
X79968337Y-47404164D01*
X79995120Y-47401285D01*
X81532326Y-47401285D01*
X81600447Y-47421287D01*
G37*
G04 #@! TD.AperFunction*
G04 #@! TA.AperFunction,NonConductor*
G36*
X76552864Y-44710195D02*
G01*
X76603899Y-44759550D01*
X76620150Y-44828662D01*
X76596456Y-44895588D01*
X76569849Y-44922645D01*
X76527264Y-44954524D01*
X76439638Y-45071577D01*
X76439636Y-45071582D01*
X76388537Y-45208580D01*
X76388535Y-45208588D01*
X76382026Y-45269135D01*
X76382026Y-47066434D01*
X76388535Y-47126981D01*
X76388537Y-47126989D01*
X76439636Y-47263987D01*
X76439638Y-47263992D01*
X76527264Y-47381046D01*
X76644317Y-47468671D01*
X76644318Y-47468671D01*
X76644322Y-47468674D01*
X76759336Y-47511572D01*
X76816168Y-47554117D01*
X76840979Y-47620637D01*
X76825888Y-47690011D01*
X76808001Y-47714964D01*
X76664806Y-47870514D01*
X76664801Y-47870519D01*
X76541667Y-48058991D01*
X76451229Y-48265171D01*
X76451228Y-48265172D01*
X76395963Y-48483409D01*
X76395962Y-48483415D01*
X76395962Y-48483417D01*
X76387434Y-48586333D01*
X76378320Y-48696320D01*
X76352760Y-48762556D01*
X76295448Y-48804459D01*
X76224580Y-48808725D01*
X76163655Y-48775009D01*
X75366650Y-47978004D01*
X75332624Y-47915692D01*
X75329745Y-47888909D01*
X75329745Y-46570297D01*
X75331978Y-46546683D01*
X75333519Y-46538604D01*
X75333519Y-46538603D01*
X75333520Y-46538598D01*
X75329868Y-46480554D01*
X75329745Y-46476619D01*
X75329745Y-46458650D01*
X75329745Y-46458648D01*
X75327491Y-46440813D01*
X75327121Y-46436896D01*
X75323470Y-46378854D01*
X75320923Y-46371016D01*
X75315750Y-46347873D01*
X75314719Y-46339707D01*
X75293314Y-46285646D01*
X75291976Y-46281926D01*
X75274008Y-46226627D01*
X75269595Y-46219674D01*
X75258827Y-46198541D01*
X75255797Y-46190887D01*
X75221624Y-46143852D01*
X75219400Y-46140579D01*
X75188245Y-46091486D01*
X75182237Y-46085844D01*
X75166554Y-46068054D01*
X75161719Y-46061399D01*
X75161717Y-46061397D01*
X75116921Y-46024339D01*
X75113952Y-46021721D01*
X75071570Y-45981922D01*
X75071566Y-45981918D01*
X75064341Y-45977946D01*
X75044735Y-45964621D01*
X75038389Y-45959371D01*
X74985782Y-45934615D01*
X74982257Y-45932819D01*
X74949169Y-45914630D01*
X74931305Y-45904809D01*
X74931301Y-45904808D01*
X74931299Y-45904807D01*
X74923323Y-45902759D01*
X74901018Y-45894729D01*
X74893561Y-45891220D01*
X74836455Y-45880326D01*
X74832594Y-45879463D01*
X74776275Y-45865004D01*
X74768039Y-45865004D01*
X74744428Y-45862772D01*
X74742585Y-45862420D01*
X74736341Y-45861229D01*
X74736335Y-45861229D01*
X74721867Y-45862139D01*
X74678295Y-45864880D01*
X74674362Y-45865004D01*
X70172538Y-45865004D01*
X70104417Y-45845002D01*
X70057924Y-45791346D01*
X70047820Y-45721072D01*
X70077314Y-45656492D01*
X70137040Y-45618108D01*
X70150509Y-45614945D01*
X74089329Y-44915527D01*
X74089531Y-44915512D01*
X74101580Y-44913367D01*
X74101582Y-44913368D01*
X74130665Y-44908192D01*
X74140848Y-44906380D01*
X74164040Y-44902603D01*
X74181141Y-44900328D01*
X74187337Y-44899505D01*
X74210713Y-44897092D01*
X74210712Y-44897091D01*
X74210973Y-44897064D01*
X74213425Y-44896847D01*
X74215434Y-44896670D01*
X74961431Y-44830747D01*
X76483249Y-44696267D01*
X76552864Y-44710195D01*
G37*
G04 #@! TD.AperFunction*
G04 #@! TA.AperFunction,NonConductor*
G36*
X98493515Y-48484849D02*
G01*
X98619321Y-48531773D01*
X98619329Y-48531775D01*
X98679876Y-48538284D01*
X98679881Y-48538284D01*
X98679888Y-48538285D01*
X98679894Y-48538285D01*
X100301158Y-48538285D01*
X100301164Y-48538285D01*
X100301171Y-48538284D01*
X100301175Y-48538284D01*
X100361722Y-48531775D01*
X100361725Y-48531774D01*
X100361727Y-48531774D01*
X100407380Y-48514745D01*
X100478194Y-48509680D01*
X100540507Y-48543704D01*
X100574533Y-48606016D01*
X100569469Y-48676832D01*
X100540509Y-48721896D01*
X99902027Y-49360380D01*
X99839714Y-49394405D01*
X99812931Y-49397285D01*
X98679876Y-49397285D01*
X98619329Y-49403794D01*
X98619326Y-49403795D01*
X98509601Y-49444721D01*
X98438786Y-49449785D01*
X98421538Y-49444721D01*
X98295727Y-49397796D01*
X98295725Y-49397795D01*
X98295723Y-49397795D01*
X98295722Y-49397794D01*
X98235175Y-49391285D01*
X98235164Y-49391285D01*
X97102120Y-49391285D01*
X97033999Y-49371283D01*
X97013025Y-49354380D01*
X96433654Y-48775009D01*
X96374539Y-48715893D01*
X96340514Y-48653583D01*
X96345579Y-48582768D01*
X96388126Y-48525932D01*
X96454646Y-48501121D01*
X96507668Y-48508745D01*
X96553321Y-48525773D01*
X96553329Y-48525775D01*
X96613876Y-48532284D01*
X96613881Y-48532284D01*
X96613888Y-48532285D01*
X96613894Y-48532285D01*
X98235158Y-48532285D01*
X98235164Y-48532285D01*
X98235171Y-48532284D01*
X98235175Y-48532284D01*
X98295722Y-48525775D01*
X98295727Y-48525774D01*
X98317980Y-48517474D01*
X98405450Y-48484848D01*
X98476264Y-48479783D01*
X98493515Y-48484849D01*
G37*
G04 #@! TD.AperFunction*
G04 #@! TA.AperFunction,NonConductor*
G36*
X92173947Y-46490687D02*
G01*
X92220440Y-46544343D01*
X92231826Y-46596685D01*
X92231826Y-48760834D01*
X92238335Y-48821381D01*
X92238337Y-48821389D01*
X92289436Y-48958387D01*
X92289438Y-48958392D01*
X92377064Y-49075446D01*
X92494118Y-49163072D01*
X92494120Y-49163073D01*
X92494122Y-49163074D01*
X92553201Y-49185109D01*
X92631121Y-49214173D01*
X92631129Y-49214175D01*
X92691676Y-49220684D01*
X92691681Y-49220684D01*
X92691688Y-49220685D01*
X95035332Y-49220685D01*
X95103453Y-49240687D01*
X95124426Y-49257589D01*
X96117122Y-50250285D01*
X96151146Y-50312595D01*
X96154026Y-50339378D01*
X96154026Y-50995285D01*
X96134024Y-51063406D01*
X96080368Y-51109899D01*
X96028026Y-51121285D01*
X92574424Y-51121285D01*
X92506303Y-51101283D01*
X92485329Y-51084380D01*
X89380073Y-47979124D01*
X89370108Y-47966686D01*
X89369881Y-47966875D01*
X89364830Y-47960769D01*
X89364829Y-47960767D01*
X89342012Y-47939341D01*
X89313750Y-47912801D01*
X89292606Y-47891656D01*
X89292601Y-47891651D01*
X89287054Y-47887348D01*
X89282546Y-47883497D01*
X89248154Y-47851202D01*
X89248148Y-47851198D01*
X89230392Y-47841436D01*
X89213876Y-47830587D01*
X89197870Y-47818171D01*
X89157672Y-47800776D01*
X89154569Y-47799433D01*
X89149237Y-47796821D01*
X89107890Y-47774090D01*
X89088265Y-47769051D01*
X89069565Y-47762649D01*
X89050974Y-47754604D01*
X89050972Y-47754603D01*
X89050971Y-47754603D01*
X89004371Y-47747222D01*
X88998558Y-47746018D01*
X88952859Y-47734285D01*
X88932605Y-47734285D01*
X88912895Y-47732734D01*
X88892886Y-47729565D01*
X88892885Y-47729565D01*
X88845912Y-47734005D01*
X88839979Y-47734285D01*
X82843673Y-47734285D01*
X82775552Y-47714283D01*
X82729059Y-47660627D01*
X82718955Y-47590353D01*
X82748449Y-47525773D01*
X82769612Y-47506349D01*
X82821471Y-47468671D01*
X82851779Y-47446651D01*
X82855089Y-47442975D01*
X82979560Y-47304736D01*
X82979561Y-47304734D01*
X82979566Y-47304729D01*
X83075053Y-47139341D01*
X83134068Y-46957713D01*
X83154030Y-46767785D01*
X83137431Y-46609854D01*
X83150203Y-46540017D01*
X83198705Y-46488170D01*
X83262741Y-46470685D01*
X92105826Y-46470685D01*
X92173947Y-46490687D01*
G37*
G04 #@! TD.AperFunction*
G04 #@! TA.AperFunction,NonConductor*
G36*
X74957599Y-49369659D02*
G01*
X74989850Y-49393013D01*
X76390658Y-50793821D01*
X76424684Y-50856133D01*
X76423708Y-50913846D01*
X76395962Y-51023413D01*
X76381450Y-51198548D01*
X76377370Y-51247785D01*
X76381764Y-51300817D01*
X76384135Y-51329422D01*
X76369826Y-51398962D01*
X76320193Y-51449727D01*
X76250994Y-51465599D01*
X76208528Y-51455466D01*
X76192671Y-51448604D01*
X76192669Y-51448603D01*
X76192668Y-51448603D01*
X76146068Y-51441222D01*
X76140255Y-51440018D01*
X76094556Y-51428285D01*
X76074302Y-51428285D01*
X76054592Y-51426734D01*
X76034583Y-51423565D01*
X76034582Y-51423565D01*
X75987609Y-51428005D01*
X75981676Y-51428285D01*
X74821026Y-51428285D01*
X74752905Y-51408283D01*
X74706412Y-51354627D01*
X74695026Y-51302285D01*
X74695026Y-51251152D01*
X74695025Y-51251135D01*
X74688516Y-51190588D01*
X74688514Y-51190580D01*
X74650011Y-51087353D01*
X74637415Y-51053581D01*
X74637414Y-51053579D01*
X74637413Y-51053577D01*
X74549787Y-50936523D01*
X74432733Y-50848897D01*
X74432728Y-50848895D01*
X74295730Y-50797796D01*
X74295722Y-50797794D01*
X74235175Y-50791285D01*
X74235164Y-50791285D01*
X73097026Y-50791285D01*
X73028905Y-50771283D01*
X72982412Y-50717627D01*
X72971026Y-50665285D01*
X72971026Y-50140503D01*
X72991028Y-50072382D01*
X73044684Y-50025889D01*
X73075139Y-50016419D01*
X74428123Y-49777852D01*
X74486636Y-49760923D01*
X74612684Y-49686809D01*
X74712746Y-49580186D01*
X74778716Y-49449691D01*
X74778717Y-49449682D01*
X74781361Y-49441846D01*
X74822081Y-49383688D01*
X74887780Y-49356778D01*
X74957599Y-49369659D01*
G37*
G04 #@! TD.AperFunction*
G04 #@! TA.AperFunction,NonConductor*
G36*
X65135450Y-46525784D02*
G01*
X65190608Y-46570484D01*
X65212843Y-46637909D01*
X65195095Y-46706652D01*
X65176006Y-46731154D01*
X60724764Y-51182396D01*
X60662452Y-51216422D01*
X60644162Y-51219014D01*
X60618884Y-51220721D01*
X58011824Y-51680417D01*
X58005028Y-51682383D01*
X57934032Y-51682098D01*
X57874460Y-51643475D01*
X57845856Y-51582804D01*
X57347609Y-48699765D01*
X57346860Y-48693665D01*
X57336559Y-48553214D01*
X57337166Y-48528597D01*
X57337495Y-48525932D01*
X57353245Y-48398059D01*
X57358630Y-48374030D01*
X57369604Y-48340730D01*
X57399797Y-48249107D01*
X57409749Y-48226595D01*
X57474432Y-48112062D01*
X57488566Y-48091923D01*
X57574298Y-47992154D01*
X57592085Y-47975146D01*
X57695584Y-47893962D01*
X57716328Y-47880745D01*
X57833653Y-47821238D01*
X57856578Y-47812307D01*
X57992582Y-47774138D01*
X57998574Y-47772768D01*
X58034390Y-47766409D01*
X58034391Y-47766407D01*
X58053439Y-47763026D01*
X58053446Y-47763023D01*
X65064884Y-46518000D01*
X65135450Y-46525784D01*
G37*
G04 #@! TD.AperFunction*
G04 #@! TA.AperFunction,NonConductor*
G36*
X88626356Y-49021287D02*
G01*
X88647330Y-49038190D01*
X91752582Y-52143442D01*
X91762549Y-52155882D01*
X91762776Y-52155695D01*
X91767828Y-52161802D01*
X91818924Y-52209784D01*
X91840054Y-52230915D01*
X91845597Y-52235215D01*
X91850110Y-52239070D01*
X91862488Y-52250693D01*
X91884508Y-52271371D01*
X91884509Y-52271371D01*
X91884511Y-52271373D01*
X91902258Y-52281129D01*
X91918788Y-52291987D01*
X91934788Y-52304398D01*
X91965965Y-52317889D01*
X91978080Y-52323132D01*
X91983414Y-52325744D01*
X92024769Y-52348480D01*
X92044391Y-52353518D01*
X92063092Y-52359920D01*
X92081684Y-52367966D01*
X92128299Y-52375348D01*
X92134071Y-52376543D01*
X92179799Y-52388285D01*
X92200060Y-52388285D01*
X92219768Y-52389835D01*
X92239772Y-52393004D01*
X92273288Y-52389836D01*
X92286739Y-52388565D01*
X92292671Y-52388285D01*
X95733513Y-52388285D01*
X95801634Y-52408287D01*
X95848127Y-52461943D01*
X95858231Y-52532217D01*
X95828737Y-52596797D01*
X95797940Y-52620045D01*
X95799034Y-52621818D01*
X95792789Y-52625669D01*
X95792788Y-52625670D01*
X95758862Y-52646596D01*
X95641874Y-52718755D01*
X95641868Y-52718760D01*
X95516501Y-52844127D01*
X95516496Y-52844133D01*
X95423412Y-52995045D01*
X95423411Y-52995047D01*
X95367638Y-53163363D01*
X95357026Y-53267232D01*
X95357026Y-54215690D01*
X95337024Y-54283811D01*
X95320121Y-54304785D01*
X94952526Y-54672380D01*
X94890214Y-54706406D01*
X94863431Y-54709285D01*
X89142228Y-54709285D01*
X89074107Y-54689283D01*
X89027614Y-54635627D01*
X89017510Y-54565353D01*
X89047004Y-54500773D01*
X89068167Y-54481349D01*
X89103618Y-54455592D01*
X89187658Y-54394534D01*
X89407845Y-54187764D01*
X89600381Y-53955028D01*
X89762229Y-53699996D01*
X89890837Y-53426690D01*
X89984177Y-53139420D01*
X90040776Y-52842717D01*
X90054247Y-52628599D01*
X90059742Y-52541266D01*
X90059742Y-52541253D01*
X90040777Y-52239820D01*
X90040776Y-52239803D01*
X89984177Y-51943100D01*
X89890837Y-51655830D01*
X89762229Y-51382524D01*
X89762223Y-51382514D01*
X89600384Y-51127496D01*
X89600382Y-51127493D01*
X89407845Y-50894756D01*
X89407843Y-50894754D01*
X89187657Y-50687985D01*
X88943293Y-50510445D01*
X88902722Y-50488141D01*
X88678600Y-50364928D01*
X88575927Y-50324277D01*
X88397763Y-50253736D01*
X88397756Y-50253734D01*
X88105186Y-50178616D01*
X87805537Y-50140761D01*
X87805525Y-50140760D01*
X87805523Y-50140760D01*
X87503469Y-50140760D01*
X87503466Y-50140760D01*
X87503454Y-50140761D01*
X87203805Y-50178616D01*
X86911235Y-50253734D01*
X86911228Y-50253736D01*
X86630392Y-50364928D01*
X86365698Y-50510445D01*
X86121335Y-50687985D01*
X86121334Y-50687985D01*
X85901148Y-50894754D01*
X85901146Y-50894756D01*
X85708609Y-51127493D01*
X85708607Y-51127496D01*
X85546768Y-51382514D01*
X85546760Y-51382528D01*
X85418158Y-51655823D01*
X85418156Y-51655827D01*
X85324816Y-51943096D01*
X85324814Y-51943104D01*
X85268217Y-52239796D01*
X85268214Y-52239820D01*
X85249250Y-52541253D01*
X85249250Y-52541266D01*
X85268214Y-52842699D01*
X85268217Y-52842723D01*
X85312043Y-53072467D01*
X85324815Y-53139420D01*
X85418155Y-53426690D01*
X85445729Y-53485288D01*
X85546760Y-53699991D01*
X85546768Y-53700005D01*
X85708607Y-53955023D01*
X85708609Y-53955026D01*
X85901146Y-54187763D01*
X85901148Y-54187765D01*
X86121334Y-54394534D01*
X86240825Y-54481349D01*
X86284179Y-54537571D01*
X86290254Y-54608307D01*
X86257123Y-54671099D01*
X86195303Y-54706010D01*
X86166764Y-54709285D01*
X85389380Y-54709285D01*
X85373538Y-54707535D01*
X85373511Y-54707829D01*
X85365618Y-54707082D01*
X85295555Y-54709285D01*
X85265670Y-54709285D01*
X85265666Y-54709285D01*
X85265655Y-54709286D01*
X85258716Y-54710162D01*
X85252803Y-54710628D01*
X85205637Y-54712110D01*
X85186176Y-54717764D01*
X85166830Y-54721770D01*
X85146730Y-54724310D01*
X85146729Y-54724310D01*
X85102861Y-54741678D01*
X85097246Y-54743600D01*
X85051939Y-54756763D01*
X85051930Y-54756767D01*
X85034488Y-54767082D01*
X85016741Y-54775776D01*
X84997909Y-54783232D01*
X84997907Y-54783233D01*
X84959740Y-54810963D01*
X84954780Y-54814221D01*
X84914162Y-54838244D01*
X84914159Y-54838246D01*
X84899838Y-54852568D01*
X84884809Y-54865404D01*
X84868419Y-54877312D01*
X84838339Y-54913671D01*
X84834343Y-54918062D01*
X84501859Y-55250545D01*
X84489427Y-55260505D01*
X84489615Y-55260732D01*
X84483508Y-55265784D01*
X84435541Y-55316864D01*
X84414392Y-55338012D01*
X84410086Y-55343562D01*
X84406240Y-55348064D01*
X84373943Y-55382459D01*
X84373937Y-55382468D01*
X84364177Y-55400220D01*
X84353329Y-55416735D01*
X84340913Y-55432742D01*
X84338146Y-55437422D01*
X84286254Y-55485876D01*
X84229691Y-55499285D01*
X83641876Y-55499285D01*
X83581329Y-55505794D01*
X83581321Y-55505796D01*
X83444323Y-55556895D01*
X83444318Y-55556897D01*
X83327264Y-55644523D01*
X83260438Y-55733794D01*
X83203603Y-55776341D01*
X83159570Y-55784285D01*
X79874379Y-55784285D01*
X79858537Y-55782535D01*
X79858510Y-55782829D01*
X79850618Y-55782083D01*
X79850617Y-55782083D01*
X79780568Y-55784285D01*
X79750670Y-55784285D01*
X79750666Y-55784285D01*
X79750656Y-55784286D01*
X79743705Y-55785164D01*
X79737793Y-55785629D01*
X79690638Y-55787111D01*
X79690636Y-55787112D01*
X79671181Y-55792763D01*
X79651828Y-55796771D01*
X79631736Y-55799309D01*
X79631728Y-55799311D01*
X79587862Y-55816678D01*
X79582247Y-55818601D01*
X79536933Y-55831767D01*
X79536928Y-55831769D01*
X79519489Y-55842082D01*
X79501744Y-55850775D01*
X79482906Y-55858234D01*
X79460804Y-55874292D01*
X79444738Y-55885965D01*
X79439787Y-55889218D01*
X79399166Y-55913240D01*
X79384833Y-55927572D01*
X79369807Y-55940405D01*
X79353421Y-55952311D01*
X79353420Y-55952311D01*
X79323344Y-55988665D01*
X79319349Y-55993056D01*
X77702727Y-57609678D01*
X77640415Y-57643703D01*
X77569600Y-57638639D01*
X77512764Y-57596092D01*
X77487953Y-57529572D01*
X77493799Y-57481646D01*
X77499224Y-57464952D01*
X77534068Y-57357713D01*
X77554030Y-57167785D01*
X77534068Y-56977857D01*
X77475053Y-56796229D01*
X77379566Y-56630841D01*
X77379564Y-56630839D01*
X77379560Y-56630833D01*
X77251781Y-56488920D01*
X77097278Y-56376667D01*
X76922814Y-56298991D01*
X76736013Y-56259285D01*
X76545039Y-56259285D01*
X76358237Y-56298991D01*
X76183773Y-56376667D01*
X76029270Y-56488920D01*
X75901491Y-56630833D01*
X75901484Y-56630843D01*
X75805999Y-56796226D01*
X75805998Y-56796228D01*
X75797494Y-56822402D01*
X75757420Y-56881007D01*
X75692022Y-56908643D01*
X75677662Y-56909464D01*
X74496408Y-56909464D01*
X74428287Y-56889462D01*
X74381794Y-56835806D01*
X74371690Y-56765532D01*
X74401184Y-56700952D01*
X74426108Y-56680866D01*
X74425516Y-56680075D01*
X74549787Y-56587046D01*
X74637413Y-56469992D01*
X74637413Y-56469991D01*
X74637415Y-56469989D01*
X74688515Y-56332986D01*
X74690425Y-56315227D01*
X74695025Y-56272434D01*
X74695026Y-56272417D01*
X74695026Y-54651152D01*
X74695025Y-54651135D01*
X74688516Y-54590588D01*
X74688514Y-54590580D01*
X74638165Y-54455592D01*
X74637415Y-54453581D01*
X74637414Y-54453579D01*
X74637413Y-54453577D01*
X74549787Y-54336523D01*
X74432733Y-54248897D01*
X74432728Y-54248895D01*
X74295730Y-54197796D01*
X74295722Y-54197794D01*
X74235175Y-54191285D01*
X74235164Y-54191285D01*
X73102121Y-54191285D01*
X73034000Y-54171283D01*
X73013026Y-54154380D01*
X73007931Y-54149285D01*
X72973905Y-54086973D01*
X72971026Y-54060190D01*
X72971026Y-53458285D01*
X72991028Y-53390164D01*
X73044684Y-53343671D01*
X73097026Y-53332285D01*
X74235158Y-53332285D01*
X74235164Y-53332285D01*
X74235171Y-53332284D01*
X74235175Y-53332284D01*
X74295722Y-53325775D01*
X74295725Y-53325774D01*
X74295727Y-53325774D01*
X74432730Y-53274674D01*
X74442660Y-53267241D01*
X74549787Y-53187046D01*
X74637413Y-53069992D01*
X74637413Y-53069991D01*
X74637415Y-53069989D01*
X74688515Y-52932986D01*
X74689060Y-52927925D01*
X74695025Y-52872434D01*
X74695026Y-52872417D01*
X74695026Y-52821285D01*
X74715028Y-52753164D01*
X74768684Y-52706671D01*
X74821026Y-52695285D01*
X75699932Y-52695285D01*
X75768053Y-52715287D01*
X75789027Y-52732190D01*
X76390658Y-53333821D01*
X76424684Y-53396133D01*
X76423708Y-53453846D01*
X76395962Y-53563413D01*
X76384644Y-53700005D01*
X76377370Y-53787785D01*
X76391228Y-53955028D01*
X76395963Y-54012160D01*
X76451228Y-54230397D01*
X76451229Y-54230398D01*
X76451230Y-54230401D01*
X76541666Y-54436576D01*
X76541667Y-54436578D01*
X76664801Y-54625050D01*
X76664805Y-54625055D01*
X76786056Y-54756767D01*
X76810419Y-54783232D01*
X76817288Y-54790693D01*
X76847517Y-54814221D01*
X76994950Y-54928974D01*
X77192952Y-55036127D01*
X77192953Y-55036127D01*
X77192954Y-55036128D01*
X77304753Y-55074508D01*
X77405891Y-55109229D01*
X77627957Y-55146285D01*
X77627961Y-55146285D01*
X77853091Y-55146285D01*
X77853095Y-55146285D01*
X78075161Y-55109229D01*
X78288100Y-55036127D01*
X78486102Y-54928974D01*
X78663766Y-54790691D01*
X78816248Y-54625053D01*
X78939386Y-54436576D01*
X79029822Y-54230401D01*
X79085090Y-54012153D01*
X79103682Y-53787785D01*
X79085090Y-53563417D01*
X79054528Y-53442731D01*
X79029823Y-53345172D01*
X79029822Y-53345171D01*
X79029822Y-53345169D01*
X78939386Y-53138994D01*
X78913493Y-53099361D01*
X78816250Y-52950519D01*
X78816246Y-52950514D01*
X78663763Y-52784876D01*
X78548657Y-52695285D01*
X78486102Y-52646596D01*
X78485152Y-52646082D01*
X78452846Y-52628599D01*
X78402455Y-52578587D01*
X78387102Y-52509270D01*
X78411662Y-52442657D01*
X78452846Y-52406971D01*
X78457569Y-52404415D01*
X78486102Y-52388974D01*
X78663766Y-52250691D01*
X78816248Y-52085053D01*
X78939386Y-51896576D01*
X78965925Y-51836071D01*
X79011607Y-51781723D01*
X79079419Y-51760699D01*
X79081313Y-51760685D01*
X81488958Y-51760685D01*
X81488964Y-51760685D01*
X81488971Y-51760684D01*
X81488975Y-51760684D01*
X81549522Y-51754175D01*
X81549525Y-51754174D01*
X81549527Y-51754174D01*
X81686530Y-51703074D01*
X81749641Y-51655830D01*
X81803587Y-51615446D01*
X81891213Y-51498392D01*
X81891213Y-51498391D01*
X81891215Y-51498389D01*
X81942315Y-51361386D01*
X81945752Y-51329422D01*
X81948825Y-51300834D01*
X81948826Y-51300817D01*
X81948826Y-49166779D01*
X81968828Y-49098658D01*
X81985731Y-49077684D01*
X82025225Y-49038190D01*
X82087537Y-49004164D01*
X82114320Y-49001285D01*
X88558235Y-49001285D01*
X88626356Y-49021287D01*
G37*
G04 #@! TD.AperFunction*
G04 #@! TA.AperFunction,NonConductor*
G36*
X103380122Y-57280980D02*
G01*
X103425587Y-57310090D01*
X103994296Y-57878799D01*
X104028322Y-57941111D01*
X104026908Y-58000505D01*
X103861059Y-58619464D01*
X103861058Y-58619470D01*
X103851673Y-58679650D01*
X103865573Y-58825207D01*
X103865573Y-58825209D01*
X103865574Y-58825210D01*
X103867203Y-58829279D01*
X103874064Y-58846417D01*
X103880812Y-58917093D01*
X103848279Y-58980197D01*
X103834980Y-58992287D01*
X103817019Y-59006411D01*
X103732202Y-59125519D01*
X103732201Y-59125522D01*
X103710241Y-59182325D01*
X103693646Y-59244258D01*
X103587367Y-59640897D01*
X103550416Y-59701519D01*
X103486556Y-59732540D01*
X103465661Y-59734285D01*
X100554293Y-59734285D01*
X100486172Y-59714283D01*
X100439679Y-59660627D01*
X100429575Y-59590353D01*
X100438905Y-59557672D01*
X100439386Y-59556576D01*
X100529822Y-59350401D01*
X100585090Y-59132153D01*
X100603682Y-58907785D01*
X100585090Y-58683417D01*
X100557343Y-58573847D01*
X100560010Y-58502901D01*
X100590390Y-58453823D01*
X101034590Y-58009623D01*
X101096900Y-57975599D01*
X101136485Y-57973373D01*
X101164982Y-57976285D01*
X101164986Y-57976285D01*
X102516078Y-57976285D01*
X102585323Y-57969209D01*
X102619951Y-57965672D01*
X102788264Y-57909900D01*
X102939177Y-57816815D01*
X103064556Y-57691436D01*
X103157641Y-57540523D01*
X103213413Y-57372210D01*
X103213413Y-57372206D01*
X103215576Y-57365680D01*
X103216909Y-57366121D01*
X103247094Y-57310394D01*
X103309289Y-57276156D01*
X103380122Y-57280980D01*
G37*
G04 #@! TD.AperFunction*
G04 #@! TA.AperFunction,NonConductor*
G36*
X79930500Y-59168650D02*
G01*
X79941707Y-59178597D01*
X80752539Y-59989430D01*
X81552236Y-60789127D01*
X81586262Y-60851439D01*
X81588451Y-60891388D01*
X81586496Y-60909995D01*
X81586496Y-60909999D01*
X81606884Y-61103988D01*
X81594112Y-61173826D01*
X81545609Y-61225673D01*
X81476776Y-61243067D01*
X81409467Y-61220485D01*
X81392479Y-61206253D01*
X79665250Y-59479024D01*
X79631224Y-59416712D01*
X79636289Y-59345897D01*
X79660709Y-59305619D01*
X79729034Y-59229736D01*
X79729035Y-59229734D01*
X79729040Y-59229729D01*
X79743495Y-59204691D01*
X79794875Y-59155700D01*
X79864589Y-59142263D01*
X79930500Y-59168650D01*
G37*
G04 #@! TD.AperFunction*
G04 #@! TA.AperFunction,NonConductor*
G36*
X70775868Y-47152006D02*
G01*
X70822361Y-47205662D01*
X70833460Y-47249512D01*
X70837323Y-47306708D01*
X71238198Y-49580184D01*
X71288335Y-49864525D01*
X71305264Y-49923038D01*
X71379379Y-50049088D01*
X71410111Y-50077928D01*
X71486002Y-50149148D01*
X71616497Y-50215118D01*
X71616501Y-50215118D01*
X71618283Y-50215720D01*
X71619829Y-50216802D01*
X71624540Y-50219184D01*
X71624197Y-50219860D01*
X71676443Y-50256438D01*
X71703356Y-50322136D01*
X71704026Y-50335116D01*
X71704026Y-54290931D01*
X71702277Y-54306773D01*
X71702570Y-54306801D01*
X71701824Y-54314692D01*
X71704026Y-54384742D01*
X71704026Y-54414636D01*
X71704027Y-54414657D01*
X71704904Y-54421605D01*
X71705370Y-54427517D01*
X71706852Y-54474673D01*
X71706853Y-54474678D01*
X71712503Y-54494124D01*
X71716512Y-54513482D01*
X71719051Y-54533578D01*
X71719052Y-54533584D01*
X71736419Y-54577447D01*
X71738342Y-54583064D01*
X71751508Y-54628378D01*
X71761820Y-54645816D01*
X71770514Y-54663564D01*
X71777970Y-54682394D01*
X71777976Y-54682405D01*
X71805703Y-54720568D01*
X71808963Y-54725531D01*
X71832986Y-54766150D01*
X71847305Y-54780469D01*
X71860143Y-54795499D01*
X71872052Y-54811889D01*
X71872056Y-54811894D01*
X71908406Y-54841965D01*
X71912799Y-54845962D01*
X72030515Y-54963678D01*
X72117121Y-55050283D01*
X72151146Y-55112595D01*
X72154026Y-55139379D01*
X72154026Y-56272428D01*
X72154737Y-56279039D01*
X72142128Y-56348907D01*
X72093747Y-56400867D01*
X72037949Y-56418215D01*
X71987925Y-56421594D01*
X71987919Y-56421594D01*
X71987919Y-56421595D01*
X69825500Y-56802888D01*
X69769495Y-56800093D01*
X69759926Y-56797400D01*
X69750958Y-56796953D01*
X69723119Y-56792401D01*
X69714478Y-56789970D01*
X69714477Y-56789970D01*
X69691658Y-56793994D01*
X66371558Y-57379416D01*
X66371550Y-57379418D01*
X66366133Y-57380374D01*
X66366132Y-57380374D01*
X66323044Y-57387972D01*
X66275996Y-57396268D01*
X66268707Y-57401509D01*
X66244106Y-57415306D01*
X66235826Y-57418796D01*
X66227761Y-57424595D01*
X66176091Y-57446376D01*
X64013663Y-57827672D01*
X63955150Y-57844601D01*
X63829102Y-57918715D01*
X63729039Y-58025339D01*
X63690110Y-58102344D01*
X63669514Y-58131748D01*
X63630351Y-58173452D01*
X63609201Y-58194602D01*
X63604895Y-58200152D01*
X63601049Y-58204654D01*
X63568752Y-58239049D01*
X63568746Y-58239058D01*
X63558986Y-58256810D01*
X63548138Y-58273325D01*
X63535721Y-58289333D01*
X63516980Y-58332639D01*
X63514369Y-58337969D01*
X63491640Y-58379314D01*
X63491638Y-58379319D01*
X63486602Y-58398934D01*
X63480199Y-58417637D01*
X63472154Y-58436227D01*
X63464772Y-58482831D01*
X63463568Y-58488643D01*
X63451835Y-58534343D01*
X63451835Y-58554598D01*
X63450284Y-58574308D01*
X63447115Y-58594317D01*
X63447115Y-58594318D01*
X63451555Y-58641292D01*
X63451835Y-58647225D01*
X63451835Y-60528740D01*
X63450086Y-60544582D01*
X63450379Y-60544610D01*
X63449633Y-60552501D01*
X63451835Y-60622551D01*
X63451835Y-60652445D01*
X63451836Y-60652466D01*
X63452713Y-60659414D01*
X63453179Y-60665326D01*
X63454661Y-60712482D01*
X63454662Y-60712487D01*
X63460312Y-60731933D01*
X63464321Y-60751291D01*
X63466860Y-60771387D01*
X63466861Y-60771393D01*
X63484228Y-60815256D01*
X63486151Y-60820873D01*
X63499317Y-60866187D01*
X63509629Y-60883625D01*
X63518323Y-60901373D01*
X63525779Y-60920203D01*
X63525785Y-60920214D01*
X63553512Y-60958377D01*
X63556772Y-60963340D01*
X63574200Y-60992808D01*
X63580074Y-61002741D01*
X63580795Y-61003959D01*
X63595114Y-61018278D01*
X63607952Y-61033308D01*
X63614173Y-61041870D01*
X63619863Y-61049701D01*
X63648129Y-61073085D01*
X63656221Y-61079779D01*
X63660602Y-61083765D01*
X63783090Y-61206253D01*
X63895249Y-61318412D01*
X63905216Y-61330852D01*
X63905443Y-61330665D01*
X63910495Y-61336772D01*
X63961591Y-61384754D01*
X63982721Y-61405885D01*
X63988264Y-61410185D01*
X63992777Y-61414040D01*
X64027175Y-61446341D01*
X64027176Y-61446341D01*
X64027178Y-61446343D01*
X64044925Y-61456099D01*
X64061455Y-61466957D01*
X64077455Y-61479368D01*
X64105960Y-61491703D01*
X64120747Y-61498102D01*
X64126081Y-61500714D01*
X64167436Y-61523450D01*
X64187058Y-61528488D01*
X64205759Y-61534890D01*
X64224351Y-61542936D01*
X64270966Y-61550318D01*
X64276738Y-61551513D01*
X64322466Y-61563255D01*
X64342727Y-61563255D01*
X64362435Y-61564805D01*
X64382439Y-61567974D01*
X64415955Y-61564806D01*
X64429406Y-61563535D01*
X64435338Y-61563255D01*
X72706640Y-61563255D01*
X72774761Y-61583257D01*
X72821254Y-61636913D01*
X72831358Y-61707187D01*
X72801864Y-61771767D01*
X72742138Y-61810151D01*
X72726114Y-61813741D01*
X60892811Y-63664880D01*
X60892793Y-63664882D01*
X60853585Y-63671016D01*
X60847541Y-63671665D01*
X60708979Y-63679809D01*
X60684721Y-63678892D01*
X60556242Y-63661539D01*
X60532611Y-63655987D01*
X60409846Y-63614318D01*
X60387718Y-63604338D01*
X60275216Y-63539896D01*
X60255411Y-63525856D01*
X60157360Y-63441040D01*
X60140616Y-63423464D01*
X60060650Y-63321419D01*
X60047590Y-63300964D01*
X59988671Y-63185465D01*
X59979777Y-63162884D01*
X59941604Y-63029507D01*
X59940223Y-63023626D01*
X59933527Y-62987297D01*
X59933526Y-62987296D01*
X59247172Y-59263623D01*
X58517737Y-55291314D01*
X58525107Y-55220702D01*
X58569483Y-55165283D01*
X58619785Y-55144472D01*
X58622539Y-55143986D01*
X58622544Y-55143986D01*
X61229602Y-54684291D01*
X61288115Y-54667362D01*
X61414163Y-54593248D01*
X61514225Y-54486625D01*
X61580195Y-54356130D01*
X61585353Y-54328174D01*
X65028050Y-54328174D01*
X65047014Y-54629607D01*
X65047017Y-54629631D01*
X65090882Y-54859578D01*
X65103615Y-54926328D01*
X65196955Y-55213598D01*
X65214341Y-55250545D01*
X65325560Y-55486899D01*
X65325568Y-55486913D01*
X65487407Y-55741931D01*
X65487409Y-55741934D01*
X65679946Y-55974671D01*
X65679948Y-55974673D01*
X65900134Y-56181442D01*
X66108717Y-56332986D01*
X66144501Y-56358984D01*
X66409192Y-56504500D01*
X66593895Y-56577629D01*
X66690028Y-56615691D01*
X66690031Y-56615691D01*
X66690034Y-56615693D01*
X66982598Y-56690810D01*
X66982604Y-56690810D01*
X66982605Y-56690811D01*
X67139662Y-56710652D01*
X67282269Y-56728668D01*
X67282272Y-56728668D01*
X67584320Y-56728668D01*
X67584323Y-56728668D01*
X67883994Y-56690810D01*
X68176558Y-56615693D01*
X68457400Y-56504500D01*
X68722091Y-56358984D01*
X68966458Y-56181442D01*
X69186645Y-55974672D01*
X69379181Y-55741936D01*
X69541029Y-55486904D01*
X69669637Y-55213598D01*
X69762977Y-54926328D01*
X69819576Y-54629625D01*
X69825618Y-54533584D01*
X69838542Y-54328174D01*
X69838542Y-54328161D01*
X69819577Y-54026728D01*
X69819576Y-54026711D01*
X69762977Y-53730008D01*
X69669637Y-53442738D01*
X69541029Y-53169432D01*
X69539552Y-53167104D01*
X69379184Y-52914404D01*
X69379182Y-52914401D01*
X69186645Y-52681664D01*
X69186643Y-52681662D01*
X68966457Y-52474893D01*
X68722093Y-52297353D01*
X68674828Y-52271369D01*
X68457400Y-52151836D01*
X68376566Y-52119831D01*
X68176563Y-52040644D01*
X68176556Y-52040642D01*
X67883986Y-51965524D01*
X67584337Y-51927669D01*
X67584325Y-51927668D01*
X67584323Y-51927668D01*
X67282269Y-51927668D01*
X67282266Y-51927668D01*
X67282254Y-51927669D01*
X66982605Y-51965524D01*
X66690035Y-52040642D01*
X66690028Y-52040644D01*
X66409192Y-52151836D01*
X66144498Y-52297353D01*
X65900135Y-52474893D01*
X65900134Y-52474893D01*
X65679948Y-52681662D01*
X65679946Y-52681664D01*
X65487409Y-52914401D01*
X65487407Y-52914404D01*
X65325568Y-53169422D01*
X65325560Y-53169436D01*
X65196958Y-53442731D01*
X65196956Y-53442735D01*
X65103616Y-53730004D01*
X65103614Y-53730012D01*
X65047017Y-54026704D01*
X65047014Y-54026728D01*
X65028050Y-54328161D01*
X65028050Y-54328174D01*
X61585353Y-54328174D01*
X61606728Y-54212335D01*
X61602624Y-54151561D01*
X61305944Y-52469006D01*
X61313813Y-52398450D01*
X61340932Y-52358037D01*
X66530061Y-47168909D01*
X66592374Y-47134883D01*
X66619157Y-47132004D01*
X70707747Y-47132004D01*
X70775868Y-47152006D01*
G37*
G04 #@! TD.AperFunction*
G04 #@! TA.AperFunction,NonConductor*
G36*
X113464639Y-49789449D02*
G01*
X113485613Y-49806352D01*
X115271057Y-51591797D01*
X115305083Y-51654109D01*
X115303081Y-51715622D01*
X114892738Y-53146662D01*
X114892737Y-53146667D01*
X114882302Y-53206675D01*
X114882301Y-53206683D01*
X114893659Y-53352460D01*
X114910265Y-53396133D01*
X114945627Y-53489135D01*
X114974730Y-53527502D01*
X115033998Y-53605637D01*
X115151598Y-53692512D01*
X115151603Y-53692514D01*
X115151607Y-53692517D01*
X115190141Y-53708193D01*
X115208028Y-53715470D01*
X115783543Y-53880496D01*
X117752754Y-54445158D01*
X117812766Y-54455592D01*
X117812769Y-54455591D01*
X117812772Y-54455592D01*
X117868004Y-54451288D01*
X117958547Y-54444235D01*
X117958549Y-54444234D01*
X117967347Y-54442263D01*
X117967965Y-54445022D01*
X118024292Y-54440630D01*
X118086822Y-54474253D01*
X118121247Y-54536344D01*
X118119660Y-54597804D01*
X116338811Y-60976094D01*
X115299692Y-64697794D01*
X115289800Y-64733221D01*
X115287847Y-64739090D01*
X115236718Y-64870737D01*
X115225562Y-64892774D01*
X115154735Y-65004057D01*
X115139495Y-65023493D01*
X115048319Y-65118823D01*
X115029578Y-65134915D01*
X114921552Y-65210627D01*
X114900033Y-65222753D01*
X114779322Y-65275931D01*
X114755853Y-65283625D01*
X114627080Y-65312235D01*
X114602557Y-65315203D01*
X114470678Y-65318140D01*
X114446049Y-65316267D01*
X114307167Y-65291842D01*
X114301152Y-65290478D01*
X114297806Y-65289545D01*
X114296265Y-65289115D01*
X110099409Y-64117332D01*
X110099388Y-64117325D01*
X106761856Y-63185470D01*
X104197121Y-62469383D01*
X110658752Y-62469383D01*
X111619446Y-62726800D01*
X111619459Y-62726802D01*
X111679576Y-62736177D01*
X111824999Y-62722292D01*
X111960607Y-62668001D01*
X111960608Y-62668001D01*
X112075436Y-62577699D01*
X112160169Y-62458711D01*
X112160171Y-62458708D01*
X112182108Y-62401962D01*
X112235064Y-62204329D01*
X110830608Y-61828006D01*
X110658752Y-62469383D01*
X104197121Y-62469383D01*
X103428987Y-62254916D01*
X103428966Y-62254909D01*
X99824924Y-61248643D01*
X99764692Y-61211059D01*
X99734341Y-61146877D01*
X99743507Y-61076475D01*
X99789281Y-61022204D01*
X99857129Y-61001296D01*
X99858808Y-61001285D01*
X104857717Y-61001285D01*
X104873558Y-61003034D01*
X104873586Y-61002741D01*
X104881472Y-61003485D01*
X104881479Y-61003487D01*
X104951528Y-61001285D01*
X104981426Y-61001285D01*
X104988388Y-61000404D01*
X104994289Y-60999939D01*
X105041459Y-60998458D01*
X105060908Y-60992806D01*
X105080258Y-60988798D01*
X105090356Y-60987523D01*
X105138758Y-60990821D01*
X105918968Y-61199878D01*
X105968544Y-61226080D01*
X105976075Y-61232560D01*
X105976077Y-61232563D01*
X105982393Y-61235901D01*
X105984009Y-61236755D01*
X106007326Y-61252652D01*
X106014127Y-61258505D01*
X106081328Y-61276511D01*
X106100156Y-61281556D01*
X106102534Y-61282193D01*
X109364298Y-62156181D01*
X109364299Y-62156181D01*
X109386681Y-62162178D01*
X109392178Y-62161137D01*
X109395492Y-62160511D01*
X109423633Y-62158401D01*
X109432605Y-62158737D01*
X109432609Y-62158735D01*
X109443495Y-62156676D01*
X109499536Y-62158771D01*
X110168063Y-62337903D01*
X110389690Y-61510782D01*
X110438787Y-61327546D01*
X110475738Y-61266923D01*
X110539599Y-61235901D01*
X110593105Y-61238449D01*
X112366545Y-61713640D01*
X112419495Y-61516028D01*
X112419497Y-61516015D01*
X112428872Y-61455898D01*
X112414987Y-61310476D01*
X112406580Y-61289478D01*
X112399829Y-61218803D01*
X112432360Y-61155698D01*
X112445662Y-61143604D01*
X112464031Y-61129160D01*
X112548849Y-61010051D01*
X112570813Y-60953237D01*
X112808222Y-60067216D01*
X112817607Y-60007032D01*
X112817559Y-60006534D01*
X112803707Y-59861471D01*
X112773956Y-59787157D01*
X112749362Y-59725723D01*
X112658973Y-59610784D01*
X112588590Y-59560664D01*
X112539863Y-59525965D01*
X112539860Y-59525964D01*
X112483057Y-59504004D01*
X112482482Y-59503850D01*
X111892994Y-59345897D01*
X111723346Y-59300440D01*
X111662723Y-59263488D01*
X111634960Y-59213885D01*
X111625252Y-59180469D01*
X111614936Y-59163026D01*
X111606238Y-59145271D01*
X111598785Y-59126445D01*
X111580843Y-59101750D01*
X111571051Y-59088272D01*
X111567791Y-59083309D01*
X111543775Y-59042700D01*
X111529447Y-59028372D01*
X111516617Y-59013351D01*
X111504705Y-58996955D01*
X111504702Y-58996953D01*
X111504702Y-58996952D01*
X111468340Y-58966870D01*
X111463959Y-58962884D01*
X110416806Y-57915730D01*
X110382780Y-57853418D01*
X110387845Y-57782602D01*
X110430392Y-57725767D01*
X110459514Y-57709485D01*
X110475052Y-57703334D01*
X110739743Y-57557818D01*
X110984110Y-57380276D01*
X111204297Y-57173506D01*
X111396833Y-56940770D01*
X111558681Y-56685738D01*
X111687289Y-56412432D01*
X111780629Y-56125162D01*
X111837228Y-55828459D01*
X111843184Y-55733794D01*
X111856194Y-55527008D01*
X111856194Y-55526995D01*
X111837229Y-55225562D01*
X111837228Y-55225545D01*
X111780629Y-54928842D01*
X111687289Y-54641572D01*
X111558681Y-54368266D01*
X111553479Y-54360069D01*
X111396836Y-54113238D01*
X111396834Y-54113235D01*
X111204297Y-53880498D01*
X111204295Y-53880496D01*
X110984109Y-53673727D01*
X110739745Y-53496187D01*
X110642522Y-53442738D01*
X110475052Y-53350670D01*
X110342096Y-53298029D01*
X110194215Y-53239478D01*
X110194208Y-53239476D01*
X109901638Y-53164358D01*
X109601989Y-53126503D01*
X109601977Y-53126502D01*
X109601975Y-53126502D01*
X109299921Y-53126502D01*
X109299918Y-53126502D01*
X109299906Y-53126503D01*
X109000257Y-53164358D01*
X108707687Y-53239476D01*
X108707680Y-53239478D01*
X108426844Y-53350670D01*
X108162150Y-53496187D01*
X107917787Y-53673727D01*
X107917786Y-53673727D01*
X107697600Y-53880496D01*
X107697598Y-53880498D01*
X107505061Y-54113235D01*
X107505059Y-54113238D01*
X107343220Y-54368256D01*
X107343212Y-54368270D01*
X107214610Y-54641565D01*
X107214608Y-54641569D01*
X107121268Y-54928838D01*
X107121266Y-54928846D01*
X107064669Y-55225538D01*
X107064666Y-55225562D01*
X107045702Y-55526995D01*
X107045702Y-55527008D01*
X107064666Y-55828441D01*
X107064669Y-55828465D01*
X107121266Y-56125157D01*
X107121269Y-56125170D01*
X107183023Y-56315227D01*
X107185051Y-56386194D01*
X107148388Y-56446992D01*
X107084676Y-56478318D01*
X107014142Y-56470225D01*
X106974095Y-56443258D01*
X103922461Y-53391624D01*
X103912496Y-53379186D01*
X103912269Y-53379375D01*
X103907218Y-53373269D01*
X103907217Y-53373267D01*
X103883153Y-53350670D01*
X103856138Y-53325301D01*
X103834994Y-53304156D01*
X103834987Y-53304150D01*
X103829444Y-53299849D01*
X103824940Y-53296002D01*
X103819897Y-53291268D01*
X103818182Y-53289657D01*
X103782212Y-53228450D01*
X103785042Y-53157509D01*
X103825777Y-53099361D01*
X103891482Y-53072467D01*
X103894605Y-53072184D01*
X103944953Y-53068262D01*
X104081629Y-53016294D01*
X104198127Y-52927925D01*
X104285011Y-52810314D01*
X104307963Y-52753892D01*
X105023869Y-50257230D01*
X105034304Y-50197219D01*
X105022947Y-50051438D01*
X104980662Y-49940228D01*
X104975148Y-49869446D01*
X105008777Y-49806919D01*
X105070872Y-49772499D01*
X105098436Y-49769447D01*
X113396518Y-49769447D01*
X113464639Y-49789449D01*
G37*
G04 #@! TD.AperFunction*
G04 #@! TA.AperFunction,NonConductor*
G36*
X80399639Y-61871150D02*
G01*
X80420290Y-61887844D01*
X81458395Y-62925949D01*
X81492421Y-62988261D01*
X81495300Y-63015044D01*
X81495300Y-66009500D01*
X81475298Y-66077621D01*
X81421642Y-66124114D01*
X81369300Y-66135500D01*
X81269350Y-66135500D01*
X81208803Y-66142009D01*
X81208795Y-66142011D01*
X81071797Y-66193110D01*
X81071792Y-66193113D01*
X80949999Y-66284286D01*
X80883478Y-66309097D01*
X80814104Y-66294005D01*
X80763902Y-66243803D01*
X80748811Y-66174429D01*
X80751051Y-66158144D01*
X80754408Y-66141756D01*
X80760813Y-65936237D01*
X80754510Y-65891250D01*
X80754526Y-65891142D01*
X80750080Y-65859525D01*
X80750079Y-65859513D01*
X80748670Y-65849501D01*
X80746549Y-65834422D01*
X80746550Y-65834422D01*
X80740996Y-65794929D01*
X80740995Y-65794928D01*
X80738776Y-65779146D01*
X80738771Y-65779130D01*
X80206423Y-61994488D01*
X80216742Y-61924247D01*
X80263399Y-61870733D01*
X80331580Y-61850940D01*
X80399639Y-61871150D01*
G37*
G04 #@! TD.AperFunction*
G04 #@! TA.AperFunction,NonConductor*
G36*
X97904030Y-54888355D02*
G01*
X97934827Y-54917565D01*
X98027264Y-55041046D01*
X98144318Y-55128672D01*
X98144322Y-55128674D01*
X98259838Y-55171760D01*
X98316674Y-55214307D01*
X98341484Y-55280827D01*
X98326392Y-55350201D01*
X98308507Y-55375152D01*
X98165200Y-55530826D01*
X98056570Y-55697098D01*
X98002566Y-55743186D01*
X97932218Y-55752761D01*
X97867861Y-55722784D01*
X97861992Y-55717277D01*
X97838871Y-55694156D01*
X97838865Y-55694151D01*
X97688051Y-55601127D01*
X97519847Y-55545391D01*
X97519844Y-55545390D01*
X97416041Y-55534785D01*
X96994526Y-55534785D01*
X96994526Y-57975784D01*
X97416033Y-57975784D01*
X97519844Y-57965179D01*
X97688051Y-57909442D01*
X97838865Y-57816418D01*
X97838871Y-57816413D01*
X97964154Y-57691130D01*
X97964159Y-57691124D01*
X98057183Y-57540309D01*
X98100206Y-57410473D01*
X98140620Y-57352101D01*
X98206176Y-57324845D01*
X98276061Y-57337358D01*
X98312513Y-57364769D01*
X98317620Y-57370316D01*
X98495224Y-57508552D01*
X98495230Y-57508556D01*
X98528733Y-57526687D01*
X98579123Y-57576700D01*
X98594475Y-57646017D01*
X98569914Y-57712630D01*
X98528733Y-57748313D01*
X98494956Y-57766592D01*
X98494950Y-57766596D01*
X98317288Y-57904876D01*
X98164805Y-58070514D01*
X98040283Y-58261110D01*
X97986279Y-58307198D01*
X97951249Y-58317116D01*
X97916741Y-58321659D01*
X97905915Y-58323085D01*
X97905913Y-58323085D01*
X97791597Y-58338135D01*
X97791596Y-58338135D01*
X97736131Y-58361110D01*
X97649363Y-58397049D01*
X97649360Y-58397051D01*
X97604847Y-58431207D01*
X97527221Y-58490772D01*
X97506198Y-58518167D01*
X97500759Y-58524368D01*
X96087651Y-59937477D01*
X96025341Y-59971501D01*
X95998558Y-59974381D01*
X85384026Y-59974381D01*
X85375794Y-59973841D01*
X85341574Y-59969336D01*
X85341573Y-59969336D01*
X85303254Y-59974381D01*
X85303252Y-59974381D01*
X85279427Y-59977517D01*
X85188936Y-59989430D01*
X85188935Y-59989431D01*
X85101518Y-60025641D01*
X85046700Y-60048346D01*
X85029051Y-60061889D01*
X85015508Y-60072282D01*
X84995359Y-60087743D01*
X84924561Y-60142066D01*
X84903537Y-60169463D01*
X84898099Y-60175664D01*
X83746583Y-61327180D01*
X83740382Y-61332618D01*
X83712985Y-61353642D01*
X83655298Y-61428824D01*
X83619265Y-61475782D01*
X83612671Y-61491703D01*
X83604768Y-61510782D01*
X83588393Y-61550314D01*
X83560349Y-61618018D01*
X83545505Y-61730779D01*
X83540255Y-61770654D01*
X83544760Y-61804875D01*
X83545300Y-61813107D01*
X83545300Y-66376165D01*
X83525298Y-66444286D01*
X83471642Y-66490779D01*
X83401368Y-66500883D01*
X83336788Y-66471389D01*
X83301245Y-66420199D01*
X83300893Y-66419257D01*
X83292889Y-66397796D01*
X83292887Y-66397794D01*
X83292887Y-66397792D01*
X83205261Y-66280738D01*
X83088207Y-66193112D01*
X83088202Y-66193110D01*
X82951204Y-66142011D01*
X82951196Y-66142009D01*
X82890649Y-66135500D01*
X82890638Y-66135500D01*
X82790700Y-66135500D01*
X82722579Y-66115498D01*
X82676086Y-66061842D01*
X82664700Y-66009500D01*
X82664700Y-62763124D01*
X82665240Y-62754892D01*
X82669746Y-62720664D01*
X82649650Y-62568028D01*
X82604370Y-62458711D01*
X82590734Y-62425791D01*
X82550193Y-62372957D01*
X82497013Y-62303651D01*
X82469615Y-62282628D01*
X82463425Y-62277199D01*
X82197591Y-62011365D01*
X82163565Y-61949053D01*
X82168630Y-61878238D01*
X82211177Y-61821402D01*
X82277697Y-61796591D01*
X82312884Y-61799024D01*
X82404509Y-61818500D01*
X82404513Y-61818500D01*
X82595487Y-61818500D01*
X82782288Y-61778794D01*
X82956752Y-61701118D01*
X83111253Y-61588866D01*
X83111371Y-61588735D01*
X83239034Y-61446951D01*
X83239035Y-61446949D01*
X83239040Y-61446944D01*
X83334527Y-61281556D01*
X83393542Y-61099928D01*
X83413504Y-60910000D01*
X83393542Y-60720072D01*
X83334527Y-60538444D01*
X83239040Y-60373056D01*
X83239038Y-60373054D01*
X83239034Y-60373048D01*
X83111255Y-60231135D01*
X82956752Y-60118882D01*
X82782288Y-60041206D01*
X82595487Y-60001500D01*
X82470581Y-60001500D01*
X82402460Y-59981498D01*
X82381486Y-59964595D01*
X81833603Y-59416712D01*
X81246613Y-58829723D01*
X81212589Y-58767412D01*
X81217653Y-58696597D01*
X81247941Y-58652081D01*
X81247361Y-58651559D01*
X81251192Y-58647303D01*
X81251412Y-58646981D01*
X81251769Y-58646657D01*
X81251779Y-58646651D01*
X81273956Y-58622021D01*
X81300110Y-58592975D01*
X81360556Y-58555735D01*
X81393746Y-58551285D01*
X83159570Y-58551285D01*
X83227691Y-58571287D01*
X83260438Y-58601776D01*
X83327264Y-58691046D01*
X83444318Y-58778672D01*
X83444320Y-58778673D01*
X83444322Y-58778674D01*
X83503401Y-58800709D01*
X83581321Y-58829773D01*
X83581329Y-58829775D01*
X83641876Y-58836284D01*
X83641881Y-58836284D01*
X83641888Y-58836285D01*
X85837671Y-58836285D01*
X85892339Y-58848762D01*
X85901293Y-58853073D01*
X85901295Y-58853075D01*
X85910047Y-58855072D01*
X85936675Y-58864390D01*
X85944763Y-58868285D01*
X89436288Y-58868285D01*
X89436289Y-58868285D01*
X89444376Y-58864390D01*
X89471008Y-58855071D01*
X89479757Y-58853075D01*
X89479757Y-58853074D01*
X89479759Y-58853074D01*
X89489750Y-58848263D01*
X89544419Y-58835785D01*
X90236526Y-58835785D01*
X90236526Y-58171785D01*
X90744526Y-58171785D01*
X90744526Y-58835785D01*
X91739111Y-58835785D01*
X91739123Y-58835784D01*
X91799619Y-58829279D01*
X91936490Y-58778229D01*
X91936491Y-58778229D01*
X92053430Y-58690689D01*
X92140970Y-58573750D01*
X92140970Y-58573749D01*
X92192020Y-58436878D01*
X92198525Y-58376382D01*
X92198526Y-58376370D01*
X92198526Y-58171785D01*
X90744526Y-58171785D01*
X90236526Y-58171785D01*
X90236526Y-57789785D01*
X90256528Y-57721664D01*
X90310184Y-57675171D01*
X90362526Y-57663785D01*
X92198526Y-57663785D01*
X92198526Y-57459199D01*
X92198525Y-57459187D01*
X92192020Y-57398691D01*
X92140970Y-57261821D01*
X92134215Y-57252797D01*
X92109402Y-57186277D01*
X92124492Y-57116902D01*
X92174693Y-57066699D01*
X92235081Y-57051285D01*
X93594711Y-57051285D01*
X93662832Y-57071287D01*
X93668772Y-57075349D01*
X93783774Y-57158903D01*
X93958238Y-57236579D01*
X94145039Y-57276285D01*
X94336013Y-57276285D01*
X94522814Y-57236579D01*
X94697278Y-57158903D01*
X94851779Y-57046651D01*
X94859458Y-57038123D01*
X94885424Y-57009285D01*
X95357527Y-57009285D01*
X95357527Y-57268292D01*
X95368131Y-57372103D01*
X95423868Y-57540310D01*
X95516892Y-57691124D01*
X95516897Y-57691130D01*
X95642180Y-57816413D01*
X95642186Y-57816418D01*
X95793000Y-57909442D01*
X95961204Y-57965178D01*
X95961208Y-57965179D01*
X96065010Y-57975784D01*
X96486526Y-57975784D01*
X96486526Y-57009285D01*
X95357527Y-57009285D01*
X94885424Y-57009285D01*
X94979560Y-56904736D01*
X94979561Y-56904734D01*
X94979566Y-56904729D01*
X95075053Y-56739341D01*
X95134068Y-56557713D01*
X95134068Y-56557711D01*
X95134882Y-56553884D01*
X95135962Y-56551882D01*
X95136109Y-56551432D01*
X95136191Y-56551458D01*
X95168609Y-56491410D01*
X95230758Y-56457088D01*
X95301597Y-56461814D01*
X95347224Y-56490984D01*
X95357525Y-56501285D01*
X96486526Y-56501285D01*
X96486526Y-55534785D01*
X96186119Y-55534785D01*
X96117998Y-55514783D01*
X96071505Y-55461127D01*
X96061401Y-55390853D01*
X96090895Y-55326273D01*
X96097002Y-55319711D01*
X96378525Y-55038189D01*
X96440838Y-55004164D01*
X96467621Y-55001285D01*
X97416078Y-55001285D01*
X97485324Y-54994209D01*
X97519951Y-54990672D01*
X97688264Y-54934900D01*
X97767811Y-54885834D01*
X97836291Y-54867096D01*
X97904030Y-54888355D01*
G37*
G04 #@! TD.AperFunction*
G04 #@! TA.AperFunction,NonConductor*
G36*
X72778541Y-73504702D02*
G01*
X72825034Y-73558358D01*
X72835138Y-73628632D01*
X72805644Y-73693212D01*
X72799515Y-73699795D01*
X70710915Y-75788395D01*
X70648603Y-75822421D01*
X70621820Y-75825300D01*
X68204616Y-75825300D01*
X68136495Y-75805298D01*
X68090002Y-75751642D01*
X68080530Y-75721180D01*
X67974674Y-75120844D01*
X67855073Y-74442553D01*
X67862942Y-74371997D01*
X67890061Y-74331583D01*
X68700041Y-73521604D01*
X68762354Y-73487579D01*
X68789137Y-73484700D01*
X72710420Y-73484700D01*
X72778541Y-73504702D01*
G37*
G04 #@! TD.AperFunction*
G04 #@! TA.AperFunction,NonConductor*
G36*
X86049412Y-66216891D02*
G01*
X86058956Y-66226082D01*
X86075034Y-66243286D01*
X86075037Y-66243288D01*
X86231658Y-66363603D01*
X86405834Y-66456708D01*
X86592882Y-66520100D01*
X86787775Y-66552076D01*
X86886524Y-66551867D01*
X86926405Y-66551806D01*
X86926405Y-66551805D01*
X86951165Y-66551768D01*
X86951317Y-66551766D01*
X98962554Y-66533352D01*
X98970844Y-66533887D01*
X98982948Y-66535473D01*
X98982955Y-66535476D01*
X99014283Y-66533403D01*
X99018302Y-66533267D01*
X99032415Y-66533246D01*
X99032426Y-66533243D01*
X99032827Y-66533198D01*
X99039775Y-66532791D01*
X99276850Y-66532059D01*
X99284744Y-66532532D01*
X99532998Y-66563178D01*
X99540773Y-66564640D01*
X99783207Y-66626216D01*
X99790748Y-66628646D01*
X100023509Y-66720172D01*
X100030696Y-66723534D01*
X100250128Y-66843568D01*
X100256836Y-66847807D01*
X100459449Y-66994441D01*
X100465572Y-66999488D01*
X100546138Y-67074901D01*
X100648177Y-67170414D01*
X100653613Y-67176186D01*
X100813302Y-67368682D01*
X100817974Y-67375096D01*
X100924326Y-67542267D01*
X100944015Y-67610479D01*
X100923700Y-67678507D01*
X100869831Y-67724753D01*
X100818016Y-67735900D01*
X99251150Y-67735900D01*
X99190603Y-67742409D01*
X99190595Y-67742411D01*
X99053597Y-67793510D01*
X99053592Y-67793512D01*
X98936538Y-67881138D01*
X98848912Y-67998192D01*
X98848910Y-67998197D01*
X98797811Y-68135195D01*
X98797809Y-68135203D01*
X98791300Y-68195750D01*
X98791300Y-70793049D01*
X98797809Y-70853596D01*
X98797811Y-70853604D01*
X98848910Y-70990602D01*
X98848912Y-70990607D01*
X98936538Y-71107661D01*
X99053592Y-71195287D01*
X99053594Y-71195288D01*
X99053596Y-71195289D01*
X99112675Y-71217324D01*
X99190595Y-71246388D01*
X99190603Y-71246390D01*
X99251150Y-71252899D01*
X99251155Y-71252899D01*
X99251162Y-71252900D01*
X99883136Y-71252900D01*
X99951257Y-71272902D01*
X99997750Y-71326558D01*
X100004843Y-71346289D01*
X100005150Y-71347437D01*
X100045419Y-71444655D01*
X100064066Y-71489673D01*
X100083731Y-71515300D01*
X100129374Y-71574784D01*
X100157787Y-71611813D01*
X100157791Y-71611816D01*
X100185183Y-71632835D01*
X100191376Y-71638266D01*
X100367314Y-71814204D01*
X100539965Y-71986855D01*
X100573991Y-72049167D01*
X100576870Y-72075950D01*
X100576870Y-76377500D01*
X100556868Y-76445621D01*
X100503212Y-76492114D01*
X100450870Y-76503500D01*
X99278580Y-76503500D01*
X99210459Y-76483498D01*
X99189485Y-76466595D01*
X99099205Y-76376315D01*
X99007761Y-76284871D01*
X99002334Y-76278683D01*
X98981313Y-76251287D01*
X98893330Y-76183776D01*
X98880224Y-76173719D01*
X98859172Y-76157564D01*
X98803143Y-76134358D01*
X98716937Y-76098650D01*
X98716936Y-76098649D01*
X98629217Y-76087101D01*
X98602621Y-76083600D01*
X98602619Y-76083600D01*
X98564300Y-76078555D01*
X98564299Y-76078555D01*
X98530078Y-76083060D01*
X98521846Y-76083600D01*
X88002682Y-76083600D01*
X87934561Y-76063598D01*
X87913587Y-76046696D01*
X87417763Y-75550873D01*
X87383738Y-75488560D01*
X87381548Y-75448605D01*
X87383504Y-75430000D01*
X87363542Y-75240072D01*
X87304527Y-75058444D01*
X87209040Y-74893056D01*
X87209038Y-74893054D01*
X87209034Y-74893048D01*
X87081255Y-74751135D01*
X86926752Y-74638882D01*
X86752288Y-74561206D01*
X86565487Y-74521500D01*
X86374513Y-74521500D01*
X86283727Y-74540797D01*
X86212936Y-74535395D01*
X86156303Y-74492578D01*
X86131810Y-74425940D01*
X86147231Y-74356639D01*
X86168430Y-74328460D01*
X86667088Y-73829802D01*
X86729398Y-73795779D01*
X86756181Y-73792900D01*
X88048432Y-73792900D01*
X88048438Y-73792900D01*
X88048445Y-73792899D01*
X88048449Y-73792899D01*
X88108996Y-73786390D01*
X88108999Y-73786389D01*
X88109001Y-73786389D01*
X88246004Y-73735289D01*
X88293419Y-73699795D01*
X88363061Y-73647661D01*
X88450687Y-73530607D01*
X88450687Y-73530606D01*
X88450689Y-73530604D01*
X88501789Y-73393601D01*
X88508300Y-73333038D01*
X88508300Y-70735762D01*
X88505795Y-70712461D01*
X88501790Y-70675203D01*
X88501788Y-70675195D01*
X88457615Y-70556765D01*
X88450689Y-70538196D01*
X88450688Y-70538194D01*
X88450687Y-70538192D01*
X88363061Y-70421138D01*
X88246007Y-70333512D01*
X88246002Y-70333510D01*
X88109004Y-70282411D01*
X88108996Y-70282409D01*
X88048449Y-70275900D01*
X88048438Y-70275900D01*
X85582831Y-70275900D01*
X85514710Y-70255898D01*
X85468217Y-70202242D01*
X85460687Y-70180831D01*
X85419297Y-70017387D01*
X85419296Y-70017386D01*
X85419296Y-70017384D01*
X85328860Y-69811209D01*
X85327231Y-69808716D01*
X85326878Y-69807547D01*
X85326380Y-69806626D01*
X85326569Y-69806523D01*
X85306713Y-69740752D01*
X85326196Y-69672481D01*
X85379497Y-69625582D01*
X85401200Y-69619264D01*
X85400859Y-69617988D01*
X85408832Y-69615851D01*
X85408833Y-69615850D01*
X85408837Y-69615850D01*
X85551072Y-69556934D01*
X85673213Y-69463213D01*
X85681986Y-69451780D01*
X85696744Y-69432548D01*
X85766929Y-69341079D01*
X85766934Y-69341073D01*
X85825850Y-69198837D01*
X85845945Y-69046200D01*
X85841440Y-69011978D01*
X85840900Y-69003746D01*
X85840900Y-66312115D01*
X85860902Y-66243994D01*
X85914558Y-66197501D01*
X85984832Y-66187397D01*
X86049412Y-66216891D01*
G37*
G04 #@! TD.AperFunction*
G04 #@! TA.AperFunction,NonConductor*
G36*
X85611066Y-75811646D02*
G01*
X85666431Y-75856090D01*
X85672186Y-75865145D01*
X85730958Y-75966941D01*
X85730965Y-75966951D01*
X85858744Y-76108864D01*
X85899295Y-76138326D01*
X86013248Y-76221118D01*
X86187712Y-76298794D01*
X86374513Y-76338500D01*
X86499419Y-76338500D01*
X86567540Y-76358502D01*
X86588514Y-76375404D01*
X86947981Y-76734872D01*
X87264832Y-77051723D01*
X87270271Y-77057925D01*
X87284978Y-77077091D01*
X87291287Y-77085313D01*
X87314722Y-77103295D01*
X87320026Y-77107365D01*
X87320039Y-77107375D01*
X87409735Y-77176201D01*
X87413428Y-77179034D01*
X87555663Y-77237950D01*
X87708300Y-77258046D01*
X87742528Y-77253540D01*
X87750760Y-77253000D01*
X92465941Y-77253000D01*
X92534062Y-77273002D01*
X92580555Y-77326658D01*
X92590659Y-77396932D01*
X92561165Y-77461512D01*
X92515749Y-77490698D01*
X92517023Y-77493343D01*
X92496142Y-77503397D01*
X92469526Y-77512710D01*
X92460771Y-77514708D01*
X92451815Y-77519022D01*
X92397145Y-77531500D01*
X90201350Y-77531500D01*
X90140803Y-77538009D01*
X90140795Y-77538011D01*
X90003797Y-77589110D01*
X90003792Y-77589112D01*
X89886738Y-77676738D01*
X89799112Y-77793792D01*
X89799110Y-77793797D01*
X89748011Y-77930795D01*
X89748009Y-77930803D01*
X89741500Y-77991350D01*
X89741500Y-78529300D01*
X89721498Y-78597421D01*
X89667842Y-78643914D01*
X89615500Y-78655300D01*
X85547581Y-78655300D01*
X85479460Y-78635298D01*
X85432967Y-78581642D01*
X85422863Y-78511368D01*
X85425437Y-78498369D01*
X85472625Y-78312023D01*
X85474564Y-78304368D01*
X85493156Y-78080000D01*
X85474564Y-77855632D01*
X85430803Y-77682824D01*
X85419297Y-77637387D01*
X85419296Y-77637386D01*
X85419296Y-77637384D01*
X85328860Y-77431209D01*
X85322140Y-77420924D01*
X85205724Y-77242734D01*
X85205720Y-77242729D01*
X85077360Y-77103295D01*
X85053240Y-77077094D01*
X85053239Y-77077093D01*
X85053237Y-77077091D01*
X84947380Y-76994699D01*
X84875576Y-76938811D01*
X84842319Y-76920813D01*
X84791929Y-76870802D01*
X84776576Y-76801485D01*
X84801136Y-76734872D01*
X84842320Y-76699186D01*
X84875576Y-76681189D01*
X85053240Y-76542906D01*
X85205722Y-76377268D01*
X85328860Y-76188791D01*
X85419296Y-75982616D01*
X85440922Y-75897214D01*
X85477035Y-75836088D01*
X85540462Y-75804189D01*
X85611066Y-75811646D01*
G37*
G04 #@! TD.AperFunction*
M02*
